<svg xmlns="http://www.w3.org/2000/svg" viewBox="0 0 256.803 44.847"><defs><style>.a{fill:#bd282e;}.b{fill:#fff;}.c{fill:none;stroke:#000;stroke-width:0.892px;}</style></defs><g transform="translate(0 0.2)"><path d="M36.986,28.4H53.343l-1.686,6.971-4.237-.2L43.805,49.83H36.014l3.615-14.656-4.329.2Z" transform="translate(-29.939 -24.256)"></path><path d="M138.255,28.4h7.5l-1.777,7.229h4.784l1.762-7.229h7.5l-5.255,21.43h-7.5l1.807-7.442H142.31L140.5,49.83H133Z" transform="translate(-112.8 -24.256)"></path><path d="M320.376,28.4l-3.1,12.667c-1.534,6.242-6.166,9.1-12.165,9.1s-9.219-2.84-7.67-9.1l3.1-12.667h7.791L305.4,40.338c-.41,1.671-.729,3.159,1.337,3.159s2.521-1.473,2.916-3.159L312.569,28.4Z" transform="translate(-251.94 -24.256)"></path><path d="M442.97,28.4h7.472l4.07,11.877h.228a29.457,29.457,0,0,1,.7-5.452l1.549-6.424h7.442l-5.255,21.415h-7.442l-4.07-11.254h-.228a28.486,28.486,0,0,1-.577,4.283L445.142,49.8H437.7Z" transform="translate(-371.223 -24.256)"></path><path d="M611.54,43.405h.486c2.582,0,4.845-1.2,5.544-4.01.744-3.007-.668-4.3-3.508-4.3h-.486ZM607.44,28.4h7.928c7.184,0,11.938,3.159,10.009,11.026a13.514,13.514,0,0,1-13.32,10.388H602.2Z" transform="translate(-510.739 -24.256)"></path><path d="M760.855,28.4h14.4l-1.412,5.862h-6.561l-.531,2.035h6l-1.367,5.574h-6l-.486,2.1h6.789l-1.458,5.862H755.6Z" transform="translate(-640.841 -24.256)"></path><path d="M883.74,37.892h.547c1.276,0,2.6-.2,2.992-1.792.395-1.64-.714-1.838-2.05-1.838h-.592Zm-5.3-9.492h9.4c4.83,0,8.429,2.05,7.108,7.442-.79,3.235-2.384,4.6-5.513,5.574l-.046.167a4.147,4.147,0,0,1,1,1.276l2.946,6.956h-8.976l-1.731-6.88h-.137l-1.686,6.88H873.2Z" transform="translate(-740.581 -24.256)"></path><path d="M1041.973,35.152a5.241,5.241,0,0,0-4.04-2.157,5.713,5.713,0,0,0-5.255,4.177,3.226,3.226,0,0,0,3.3,4.177,8.038,8.038,0,0,0,4.981-1.99l-2.2,8a19.3,19.3,0,0,1-5.756.851c-6.105,0-9.7-4.739-8.2-10.859,1.519-6.242,7.655-11.254,13.942-11.254a14.471,14.471,0,0,1,5.012.881Z" transform="translate(-868.863 -22.306)"></path><path d="M1139.964,42.154l.015-3.782c0-.911.106-1.853.182-2.749h-.288l-3.037,6.531Zm-7.032,7.761H1124.7L1137.4,28.5h8.612l2.384,21.415h-8.232l-.046-2.673h-5.878Z" transform="translate(-953.883 -24.341)"></path><path d="M1291.786,28.4h16.357l-1.686,6.971-4.237-.2L1298.6,49.83h-7.791l3.615-14.656-4.329.2Z" transform="translate(-1094.163 -24.256)"></path><path d="M44.5,232.4v.881h1.99v8.05H47.4v-8.05h1.99V232.4Z" transform="translate(-37.741 -197.273)"></path><path d="M167.2,232.4v8.93h5.088v-.866H168.1v-3.508h4.192v-.881H168.1v-2.795h4.222V232.4Z" transform="translate(-141.806 -197.273)"></path><path d="M299.033,232.868l-.7.547a3.907,3.907,0,0,0-1.4-1.154,4.132,4.132,0,0,0-1.792-.395,3.874,3.874,0,0,0-1.974.516,3.743,3.743,0,0,0-1.412,1.382,3.822,3.822,0,0,0-.5,1.944,3.7,3.7,0,0,0,1.124,2.734,3.871,3.871,0,0,0,2.825,1.094,3.984,3.984,0,0,0,3.144-1.473l.7.532a4.618,4.618,0,0,1-1.671,1.321,5.339,5.339,0,0,1-2.233.471,4.646,4.646,0,0,1-3.706-1.564,4.719,4.719,0,0,1-1.139-3.189,4.369,4.369,0,0,1,1.382-3.3A4.718,4.718,0,0,1,295.13,231a5.006,5.006,0,0,1,2.263.5,4.314,4.314,0,0,1,1.64,1.367" transform="translate(-246.21 -196.086)"></path><path d="M446.852,232.4v3.751H442.3V232.4h-.9v8.93h.9v-4.313h4.556v4.313h.881V232.4Z" transform="translate(-374.361 -197.273)"></path><path d="M585.536,232.4v6.85L579.6,232.4h-.2v8.93h.926v-6.759l5.893,6.759h.2V232.4Z" transform="translate(-491.402 -197.273)"></path><path d="M723.978,231.766a3.787,3.787,0,0,0-3.265,1.914,3.822,3.822,0,0,0-.5,1.944,3.759,3.759,0,0,0,3.766,3.782,3.846,3.846,0,0,0,1.929-.5,3.556,3.556,0,0,0,1.382-1.382,3.822,3.822,0,0,0,.5-1.944,3.766,3.766,0,0,0-.5-1.929,3.7,3.7,0,0,0-1.4-1.382,4,4,0,0,0-1.914-.5m-.03-.866a4.673,4.673,0,0,1,3.4,1.352,4.72,4.72,0,0,1-6.683,6.667,4.483,4.483,0,0,1-1.367-3.3,4.774,4.774,0,0,1,.623-2.384,4.651,4.651,0,0,1,1.7-1.731,4.735,4.735,0,0,1,2.324-.607" transform="translate(-610.055 -196.001)"></path><path d="M875,232.4v8.93h4.329v-.851H875.9V232.4Z" transform="translate(-742.107 -197.273)"></path><path d="M996.878,231.766a3.787,3.787,0,0,0-3.265,1.914,3.821,3.821,0,0,0-.5,1.944,3.76,3.76,0,0,0,3.767,3.782,3.847,3.847,0,0,0,1.929-.5,3.556,3.556,0,0,0,1.382-1.382,3.822,3.822,0,0,0,.5-1.944,3.765,3.765,0,0,0-.5-1.929,3.7,3.7,0,0,0-1.4-1.382,4.042,4.042,0,0,0-1.914-.5m-.03-.866a4.673,4.673,0,0,1,3.4,1.352,4.72,4.72,0,0,1-6.682,6.667,4.483,4.483,0,0,1-1.367-3.3,4.775,4.775,0,0,1,.623-2.384,4.653,4.653,0,0,1,1.7-1.731,4.736,4.736,0,0,1,2.324-.607" transform="translate(-841.507 -196.001)"></path><path d="M1154.391,232.547l-.7.653a5.221,5.221,0,0,0-1.64-1.109,4.3,4.3,0,0,0-1.731-.38,4.109,4.109,0,0,0-2,.516,3.737,3.737,0,0,0-1.473,1.4,3.614,3.614,0,0,0-.516,1.868,3.664,3.664,0,0,0,.547,1.914,3.953,3.953,0,0,0,1.489,1.428,4.286,4.286,0,0,0,2.1.516,3.617,3.617,0,0,0,2.339-.775,2.991,2.991,0,0,0,1.124-2.02h-2.855v-.866h3.858a4.569,4.569,0,0,1-1.23,3.3,4.364,4.364,0,0,1-3.265,1.215,4.876,4.876,0,0,1-3.918-1.686,4.468,4.468,0,0,1-1.109-3.007,4.67,4.67,0,0,1,2.384-4.086,5.128,5.128,0,0,1,2.521-.623,5.6,5.6,0,0,1,2.141.41,6.867,6.867,0,0,1,1.944,1.337" transform="translate(-971.439 -195.916)"></path><path d="M1302.159,232.4l-2.248,3.691-2.293-3.691H1296.6l2.885,4.663v4.268h.881v-4.268l2.825-4.663Z" transform="translate(-1099.675 -197.273)"></path><path class="a" d="M1493.5,178.981c1.093-2.719,9.386-6.136,14.292-4.663-7.184,1.169-9.4,5.665-9.158,7.442,0,0-3.645.015-5.133-2.779" transform="translate(-1266.671 -147.711)"></path><path d="M1458.771,16.461c.683,1.686-.851,7-3.843,9.189a5,5,0,0,0-2.886-2.278c-.213,2.977-4.981,4.769-6.592,3.979,1.974-.744,3.281-4.086,2.9-5.938-3.493-.82-13.958,2.734-16.4,8.429.623,1.929,4.951,5.285,6.774,5.559,1.61-1.048,2.126-4.6,1.731-5.528,1.458,1.276,2.309,6.06,1.686,7.715a6.621,6.621,0,0,1,1.489.957c.683,1.686-1.154,5.316-2.855,6.014s-4.693-2.9-6.8-4.313c-1.975-1.321-9.113-4.936-11.6-1.99-1.185-3.372,1.975-9.751,3.615-11.33-.972-.516-4.86,1.64-5.5,3.615-.881-2.81,4.45-8.794,6.455-9.857-2.081-1.154-7.928.9-9.538,2.157.683-2.825,6.819-7.685,8.748-8.505-1.4-1.716-6.3-3.539-8.612-3.053,1.762-2.46,7.806-4.116,9.766-4.329-1.7-2.491-2.323-5.544-1.99-7.153,2.734,3.888,9.113,6.06,10.692,6.06,1.579-.015,8.915.638,9.978,1.716s4.207,4.237,6.88,5.392c2.719,1.169,5.528,2.764,5.908,3.493" transform="translate(-1202.129 0)"></path><path class="b" d="M1520,101.137c4.6-2.719,14.975-3.706,19.471-2.688a22.974,22.974,0,0,0-5.7-1.382,40.514,40.514,0,0,0-11.588.471c4.526-1.534,12.12-1.5,17.785.623-2.263-1.792-10.1-4.556-17.147-3.827,6.576-1.412,18.21,2.2,18.529,4.966,0,.061-.076.076-.152.061-3.691-1.549-14.823-1.063-21.2,1.777" transform="translate(-1289.146 -79.908)"></path><path class="b" d="M1579.071,59.965s.334-3.265-.471-4.465a27.74,27.74,0,0,0,8.08,5.285s-5.589-1.23-7.609-.82" transform="translate(-1338.846 -47.24)"></path><line class="c" x2="213.433" transform="translate(0 30.464)"></line></g></svg>