<svg xmlns="http://www.w3.org/2000/svg" id="a" viewBox="0 0 1342.65 421.48"><path d="m537.02,130.42v25.66h-73.62v29.41h67.54v23.84h-67.54v33.87h75.04v25.66h-105.27v-138.43h103.84Z" style="stroke-width:0px;"></path><path d="m650.39,168.45v135.99h-27.38v-48.17c-7.37,10.2-17.71,15.31-31.03,15.31s-24.91-5.3-32.95-15.92c-7.1-9.33-10.65-21.5-10.65-36.51,0-16.23,4.19-29.27,12.57-39.15,8.11-9.54,18.89-14.3,32.35-14.3,14.19,0,24.5,5.04,30.93,15.11v-12.37h26.16Zm-50.5,19.67c-7.64,0-13.46,2.74-17.45,8.22-4.26,5.82-6.39,13.62-6.39,23.42s2.09,16.87,6.29,22.41c4.06,5.27,9.87,7.91,17.45,7.91s13.25-2.64,17.45-7.91c4.39-5.54,6.59-13.35,6.59-23.42s-2.13-17.48-6.39-22.61c-4.19-5.13-10.04-7.8-17.55-8.01Z" style="stroke-width:0px;"></path><path d="m762.14,168.45v100.4h-26.16v-14.19c-7.85,11.29-18.89,16.93-33.16,16.93-12.31,0-21.64-3.99-27.99-11.97-4.46-5.74-6.7-14.94-6.7-27.58v-63.59h27.38v55.48c0,7.77.47,13.05,1.42,15.81,2.16,6.29,7.47,9.44,15.92,9.44s15.15-3.75,19.07-11.25c1.89-3.58,2.84-10.14,2.84-19.67v-49.79h27.38Z" style="stroke-width:0px;"></path><path d="m807.78,130.42v23.53h-27.38v-23.53h27.38Zm0,38.03v100.4h-27.38v-100.4h27.38Z" style="stroke-width:0px;"></path><path d="m879.17,168.45v18.55h-20.58v47.36c0,6.22.73,10.19,2.18,11.92,1.46,1.72,4.78,2.58,9.99,2.58,2.24,0,5.04-.21,8.42-.61v20.99c-6.15.68-11.84,1.02-17.04,1.02-7.17,0-12.81-.74-16.93-2.23-4.12-1.49-7.37-3.89-9.73-7.2-1.75-2.64-2.9-5.68-3.45-9.13-.54-3.45-.81-9.57-.81-18.36v-46.35h-16.76v-18.55h16.74v-30.32h27.38v30.32h20.58Z" style="stroke-width:0px;"></path><path d="m980.78,168.45v100.4h-26.16v-14.19c-7.85,11.29-18.89,16.93-33.16,16.93-12.31,0-21.64-3.99-27.99-11.97-4.46-5.74-6.7-14.94-6.7-27.58v-63.59h27.38v55.48c0,7.77.47,13.05,1.42,15.81,2.16,6.29,7.47,9.44,15.92,9.44s15.15-3.75,19.07-11.25c1.89-3.58,2.84-10.14,2.84-19.67v-49.79h27.38Z" style="stroke-width:0px;"></path><path d="m1082.39,197.66h-25.76c-.75-4.8-2.55-8.24-5.43-10.3-2.87-2.06-7.28-3.1-13.23-3.1-4.93,0-8.74.86-11.4,2.58-2.68,1.72-4.01,4.14-4.01,7.25,0,3.38,1.42,5.82,4.26,7.3,2.84,1.49,9.63,3.31,20.38,5.48,13.31,2.71,22.92,5.98,28.8,9.84,6.96,4.67,10.44,11.69,10.44,21.1,0,10.75-4.33,19.1-12.98,25.05-8.38,5.82-19.57,8.72-33.57,8.72-29.89,0-45.6-11.79-47.16-35.39h26.27c.54,4.67,1.75,8.14,3.65,10.45,3.52,4.26,9.36,6.39,17.55,6.39,6.15,0,10.78-1.22,13.9-3.65,3.11-2.37,4.67-5.3,4.67-8.82s-1.41-6-4.2-7.65c-2.81-1.65-8.91-3.57-18.31-5.73-9.33-2.09-15.78-3.68-19.37-4.77-3.58-1.08-6.86-2.47-9.84-4.15-3.78-2.09-6.76-5.09-8.92-8.97-2.16-3.89-3.24-8.19-3.24-12.93,0-10.48,4.46-18.46,13.38-23.94,7.23-4.46,17.3-6.69,30.22-6.69,17.11,0,29.4,4.23,36.91,12.68,4.06,4.53,6.4,10.95,7,19.27Z" style="stroke-width:0px;"></path><path d="m1131.88,238.12v30.73h-31.43v-30.73h31.43Z" style="stroke-width:0px;"></path><path d="m1241.61,268.84h-28.09c-1.22-3.65-1.83-6.89-1.83-9.73-8.52,8.32-19.54,12.47-33.06,12.47-10.69,0-18.96-2.4-24.85-7.2-6.83-5.55-10.25-13.25-10.25-23.12,0-12.65,5.85-21.39,17.55-26.27,4.8-2.03,13.52-3.82,26.16-5.37,10.82-1.42,17.58-2.79,20.29-4.1,2.71-1.32,4.06-3.97,4.06-7.96,0-8.85-6.02-13.28-18.05-13.28-6.36,0-11,1.13-13.95,3.39-2.94,2.27-4.85,6.17-5.73,11.71h-26.06c.88-11.09,5.22-19.47,13.04-25.15,7.82-5.68,18.94-8.51,33.41-8.51,15.89,0,27.68,3.18,35.39,9.53,3.52,2.91,5.87,6.07,7.05,9.48,1.18,3.42,1.77,8.77,1.77,16.07,0,1.35-.1,8.08-.31,20.18-.13,11.9-.21,18.86-.21,20.89,0,7.17.26,12.62.76,16.33.5,3.7,1.47,7.25,2.89,10.64Zm-30.22-48.88c-3.59,2.24-10.01,3.99-19.27,5.27-6.49.94-11.19,2.19-14.09,3.75-4.12,2.16-6.18,5.88-6.18,11.16,0,4.26,1.35,7.59,4.06,9.99,2.71,2.4,6.49,3.6,11.35,3.6,8.04,0,14.53-2.77,19.47-8.32,1.75-1.96,2.97-3.95,3.65-5.98.68-2.03,1.02-4.73,1.02-8.11v-11.36h0Z" style="stroke-width:0px;"></path><path d="m1283.59,130.42v23.53h-27.38v-23.53h27.38Zm0,38.03v100.4h-27.38v-100.4h27.38Z" style="stroke-width:0px;"></path><polygon points="378.51 302.02 378.51 127.23 348.32 96.98 336.57 96.98 217.33 96.98 257.89 137.54 336.57 137.54 336.57 261 100.57 261 100.57 220.15 264.37 220.15 223.51 179.3 59.09 179.3 59.09 220.15 59.09 261 59.09 271.86 89.21 302.02 231 302.02 253.48 324.5 334.62 324.5 312.14 302.03 378.5 302.03 378.51 302.03 378.51 302.03 378.51 302.03 378.51 302.02" style="stroke-width:0px;"></polygon><polygon points="181.72 137.54 141.17 96.98 59.06 96.98 99.69 137.54 181.72 137.54" style="stroke-width:0px;"></polygon></svg>