<svg xmlns="http://www.w3.org/2000/svg" width="352" height="481" viewBox="0 0 352 481" fill="none"><path d="M149.816 302.79C134.503 303.91 119.12 303.666 103.849 302.061C88.515 300.45 73.0833 297.379 59.427 290.229C45.7708 283.078 33.9567 271.422 29.208 256.787C24.4593 242.152 27.8764 224.446 39.5445 214.396C30.0898 214.677 20.6457 213.554 11.5206 211.064C9.08853 210.407 6.65649 209.617 4.74121 208.024C2.82593 206.431 1.53691 203.834 2.1571 201.414C2.77729 198.994 5.01473 197.407 7.37995 196.824C9.74517 196.24 12.2441 196.52 14.6397 196.824L43.132 200.168C35.2175 197.306 27.989 192.82 21.9117 186.998C18.9567 184.159 16.1174 179.878 18.0266 176.248C19.4069 173.615 22.8907 172.661 25.7849 173.269C28.6791 173.877 31.1904 175.701 33.58 177.458L62.1875 198.611L47.9476 177.02C45.5155 173.372 43.1197 168.374 45.8132 164.902C47.5643 162.647 50.933 162.172 53.6327 163.078C56.3323 163.984 58.4968 166.045 60.4243 168.149C72.4607 181.348 79.0028 198.645 78.7137 216.505L98.6144 195.103C100.84 192.707 103.181 190.239 106.245 189.09C109.309 187.94 113.316 188.597 114.976 191.412C117.244 195.267 114.046 199.925 111.036 203.251L80.9816 236.224C80.9816 236.224 69.9156 270.985 148.473 266.558" stroke="white" stroke-width="3.6997" stroke-miterlimit="10"></path><path d="M190.955 391.343V471.445H173.311" stroke="white" stroke-width="3.6997" stroke-miterlimit="10"></path><path d="M216.93 391.343V471.445H199.285" stroke="white" stroke-width="3.6997" stroke-miterlimit="10"></path><path d="M310.469 429.236C310.949 428.786 311.241 428.834 311.205 428.178C311.168 427.521 309.989 427.57 309.94 426.919C309.892 426.268 310.919 426.208 310.883 425.545C310.846 424.882 311.004 424.876 310.968 424.213C310.931 423.551 310.785 423.563 310.749 422.9C310.712 422.237 310.962 422.225 310.925 421.569C310.889 420.912 310.08 420.96 310.044 420.292C310.007 419.623 309.697 419.647 309.66 418.984C309.624 418.322 309.593 418.328 309.557 417.665C309.521 417.002 310.044 416.978 310.007 416.315C309.971 415.652 309.8 415.665 309.77 415.002C309.739 414.339 309.581 414.351 309.545 413.689C309.508 413.026 310.153 412.995 310.153 412.332C310.153 411.67 309.612 411.725 309.545 411.037C309.478 410.35 309.478 410.381 309.442 409.718C309.405 409.055 309.502 409.055 309.442 408.392C309.381 407.73 308.925 407.785 308.894 407.097C308.864 406.41 308.858 406.441 308.828 405.778C308.797 405.115 309.387 405.085 309.35 404.428C309.314 403.771 309.667 403.747 309.63 403.084C309.594 402.422 309.113 402.476 309.077 401.789L309.004 400.47C308.967 399.807 308.487 399.862 308.451 399.175C308.414 398.488 309.667 398.445 309.667 397.783C309.667 397.12 308.59 397.174 308.554 396.518C308.517 395.861 308.457 395.861 308.42 395.198C308.384 394.536 308.232 394.548 308.201 393.885C308.171 393.222 308.463 393.21 308.426 392.547C308.39 391.885 309.089 391.848 309.034 391.192C308.979 390.535 308.584 390.583 308.548 389.89C308.511 389.197 308.073 389.252 308.037 388.595C308 387.939 308.195 387.92 308.159 387.264C308.122 386.607 308.408 386.589 308.372 385.926C308.335 385.263 307.763 385.318 307.709 384.637C307.654 383.956 308.797 383.914 308.76 383.257C308.724 382.6 308.712 382.594 308.676 381.937C308.639 381.281 307.849 381.329 307.812 380.654C307.776 379.98 307.769 379.998 307.733 379.335C307.696 378.672 307.447 378.684 307.417 378.028C307.386 377.371 307.447 377.359 307.417 376.702C307.386 376.046 307.581 376.027 307.544 375.365C307.508 374.702 308.402 374.659 308.365 373.997C308.329 373.334 307.338 373.389 307.301 372.732C307.265 372.075 306.961 372.087 306.924 371.425C306.888 370.762 307.435 370.731 307.399 370.075C307.362 369.418 307.928 369.382 307.891 368.719C307.855 368.056 307.66 368.074 307.63 367.412C307.599 366.749 306.955 366.804 306.918 366.123C306.882 365.442 307.557 365.429 307.526 364.767C307.496 364.104 307.702 364.092 307.672 363.435C307.642 362.778 307.034 362.827 306.997 362.14C306.961 361.453 306.997 361.477 306.955 360.821C306.912 360.164 307.052 360.152 307.016 359.489C306.979 358.826 306.456 358.881 306.408 358.194C306.359 357.507 307.368 357.483 307.332 356.82C307.295 356.157 306.663 356.212 306.626 355.537C306.59 354.862 306.213 354.899 306.176 354.236C306.14 353.573 306.566 353.555 306.529 352.892C306.493 352.229 305.976 352.284 305.921 351.603C305.866 350.922 306.128 350.934 306.091 350.271C306.055 349.609 306.383 349.597 306.353 348.934C306.322 348.271 306.036 348.289 306 347.633C305.964 346.976 306.049 346.97 306 346.307C305.951 345.644 306.104 345.644 306.067 344.982C306.031 344.319 306.11 344.319 306.067 343.656C306.025 342.993 306.365 342.981 306.328 342.318C306.292 341.656 306.036 341.674 306 341.011C305.964 340.348 305.952 340.354 305.915 339.692C305.879 339.029 305.307 339.084 305.307 338.403C305.307 337.722 306.049 337.697 306.012 337.035C305.976 336.372 305.009 336.427 304.972 335.764C304.936 335.101 306.091 335.04 306.055 334.384C306.018 333.727 305.556 333.745 305.526 333.089C305.495 332.432 305.702 332.414 305.666 331.751C305.629 331.088 305.994 331.076 305.958 330.413C305.921 329.751 304.863 329.805 304.827 329.149C304.79 328.492 305.344 328.461 305.307 327.799C305.271 327.136 305.775 327.112 305.739 326.455C305.702 325.798 304.602 325.847 304.565 325.19C304.529 324.534 304.565 324.528 304.529 323.871C304.492 323.214 304.985 323.184 304.948 322.521C304.912 321.858 304.814 321.864 304.778 321.202C304.742 320.539 304.34 320.594 304.304 319.9C304.267 319.207 304.243 319.244 304.212 318.581C304.182 317.918 304.668 317.894 304.632 317.231C304.595 316.569 305.04 316.55 305.003 315.888C304.967 315.225 305.003 315.225 304.948 314.562C304.893 313.899 304.948 313.905 304.888 313.243C304.827 312.58 304.608 312.598 304.571 311.935C304.535 311.273 304.936 311.254 304.9 310.592C304.863 309.929 304.541 309.947 304.504 309.284C304.468 308.622 303.684 308.676 303.647 308.008C303.611 307.339 303.684 307.339 303.647 306.676C303.611 306.013 304.51 305.971 304.48 305.308C304.45 304.645 304.437 304.645 304.401 303.982C304.364 303.32 303.434 303.374 303.398 302.712C303.361 302.049 303.745 302.031 303.708 301.368C303.672 300.705 304.316 300.675 304.249 300.018C304.182 299.361 303.988 299.367 303.951 298.705C303.915 298.042 303.988 298.042 303.951 297.379C303.915 296.716 303.781 296.723 303.75 296.06C303.72 295.397 303.142 295.452 303.142 294.771C303.142 294.09 303.799 294.072 303.75 293.409C303.702 292.746 303.884 292.74 303.848 292.077C303.811 291.414 303.434 291.433 303.398 290.776C303.361 290.119 303.659 290.095 303.623 289.432C303.586 288.77 302.747 288.824 302.711 288.156C302.674 287.487 303.319 287.456 303.282 286.8C303.246 286.143 302.765 286.192 302.729 285.498C302.692 284.805 302.291 284.89 302.255 284.197C302.218 283.504 303.009 283.492 302.972 282.829C302.936 282.166 303.343 282.148 303.313 281.485C303.282 280.823 302.735 280.877 302.705 280.19C302.674 279.503 302.218 279.582 302.182 278.895C302.145 278.208 301.86 278.245 301.823 277.582C301.787 276.919 302.699 276.871 302.662 276.208C302.626 275.545 302.972 275.533 302.936 274.87C302.899 274.207 302.711 274.22 302.674 273.557L302.601 272.231C302.565 271.575 302.395 271.581 302.358 270.924C302.322 270.267 302.388 270.255 302.358 269.599C302.328 268.942 301.355 268.991 301.318 268.322C301.282 267.653 302.164 267.616 302.127 266.954C302.091 266.291 301.762 266.309 301.726 265.646C301.689 264.984 302.261 264.953 302.224 264.29C302.188 263.628 301.616 263.682 301.556 263.001C301.495 262.32 301.367 262.345 301.336 261.682C301.306 261.019 301.452 261.013 301.416 260.35C301.379 259.688 302.127 259.651 302.091 258.988C302.054 258.326 301.483 258.38 301.483 257.693C301.483 257.006 300.929 257.085 300.875 256.392C300.82 255.699 301.197 255.711 301.16 255.048C301.124 254.386 301.768 254.349 301.768 253.686C301.768 253.024 301.543 253.036 301.513 252.373C301.482 251.71 301.197 251.729 301.16 251.066C301.124 250.403 301.112 250.403 301.075 249.74C301.039 249.078 301.245 249.066 301.215 248.403C301.185 247.74 301.556 247.716 301.519 247.053C301.483 246.39 301.172 246.402 301.136 245.74C301.155 245.268 301.068 244.798 300.88 244.365C300.637 243.757 300.321 243.897 299.896 243.387C299.47 242.876 299.227 243.076 298.801 242.572C298.375 242.067 298.625 241.848 298.193 241.356C297.761 240.863 298.005 240.644 297.585 240.14C297.165 239.635 297.384 239.447 296.977 238.924C296.57 238.401 296.369 238.547 295.974 238.036C295.579 237.525 294.885 238.085 294.46 237.574C294.034 237.063 294.776 236.443 294.35 235.932C293.925 235.421 293.086 236.127 292.66 235.616C292.234 235.105 292.338 235.008 291.912 234.509C291.486 234.011 291.304 234.163 290.872 233.652C290.441 233.141 291.274 232.436 290.842 231.937C290.41 231.439 289.936 231.828 289.511 231.329C289.085 230.831 288.902 230.989 288.452 230.478C288.003 229.967 288.264 229.773 287.844 229.262C287.425 228.751 287.522 228.654 287.097 228.155C286.671 227.657 287.097 227.274 286.683 226.769C286.27 226.265 286.148 226.344 285.723 225.839C285.297 225.334 285.066 225.523 284.64 225.012C284.215 224.501 284.136 224.568 283.71 224.057C283.284 223.547 283.43 223.449 283.005 222.914C282.579 222.379 282.804 222.209 282.397 221.698C281.989 221.188 281.485 221.589 281.059 221.09C280.633 220.592 280.451 220.732 280.025 220.221C279.6 219.71 279.667 219.655 279.241 219.145C278.815 218.634 279.15 218.354 278.724 217.843C278.298 217.333 278.396 217.235 277.964 216.743C277.532 216.25 277.18 216.536 276.748 216.025C276.316 215.515 276.748 215.168 276.31 214.657C275.873 214.147 275.787 214.226 275.362 213.715C274.936 213.204 275.137 213.034 274.711 212.499C274.285 211.964 274.2 212.061 273.775 211.55C273.349 211.04 272.905 211.41 272.474 210.9C272.042 210.389 272.066 210.377 271.641 209.866C271.215 209.355 271.239 209.337 270.814 208.826C270.388 208.316 270.206 208.48 269.762 207.969C269.318 207.458 269.105 207.647 268.679 207.136C268.254 206.625 268.345 206.528 267.913 206.042C267.482 205.555 268.138 204.984 267.713 204.473C267.287 203.962 267.166 204.066 266.734 203.555C266.302 203.044 266.588 202.813 266.162 202.302C265.737 201.791 265.773 201.761 265.347 201.25C264.922 200.74 264.131 201.415 263.688 200.91C263.244 200.405 263.828 199.925 263.402 199.414C262.976 198.903 263.043 198.849 262.618 198.338C262.192 197.827 261.645 198.283 261.219 197.779C260.793 197.274 260.891 197.17 260.465 196.678C260.04 196.185 260.562 195.723 260.131 195.213C259.699 194.702 259.474 194.896 259.048 194.386C258.623 193.875 258.829 193.699 258.404 193.17C257.978 192.641 257.273 193.255 256.847 192.744C256.422 192.233 256.75 191.954 256.324 191.443L255.467 190.428C255.035 189.917 255.029 189.923 254.604 189.412C254.178 188.901 253.728 189.272 253.302 188.761C252.877 188.251 252.956 188.154 252.53 187.673C252.105 187.193 252.141 187.132 251.71 186.621C251.278 186.111 251.302 186.092 250.87 185.582C250.439 185.071 250.408 185.107 249.977 184.597C249.545 184.086 250.044 183.672 249.612 183.162C249.18 182.651 248.706 183.052 248.28 182.554C247.855 182.055 247.672 182.207 247.228 181.702C246.785 181.198 246.857 181.143 246.432 180.626C246.006 180.109 246.231 179.927 245.824 179.41C245.416 178.893 246.134 178.279 245.708 177.768C245.283 177.258 244.273 178.103 243.842 177.592C243.41 177.081 243.842 176.723 243.41 176.212C242.978 175.701 243.173 175.537 242.741 174.996C242.31 174.455 241.853 174.868 241.422 174.388C240.99 173.907 240.814 173.78 240.601 173.172C240.388 172.564 241.142 172.448 241.209 171.798C241.276 171.147 241.391 171.153 241.47 170.496C241.549 169.84 241.738 169.888 241.817 169.207C241.896 168.526 241.604 168.52 241.683 167.864C241.762 167.207 241.239 167.14 241.318 166.483C241.397 165.827 241.44 165.833 241.519 165.176C241.598 164.52 241.604 164.52 241.683 163.863C241.762 163.206 241.859 163.255 241.938 162.568C242.018 161.881 242.632 161.96 242.711 161.352C242.79 160.744 242.966 160.744 243.045 160.063C243.124 159.382 242.899 159.382 242.978 158.725C243.057 158.068 243.222 158.117 243.301 157.43C243.38 156.743 243.136 156.749 243.215 156.092C243.294 155.436 243.264 155.43 243.337 154.773C243.41 154.116 242.948 154.062 243.027 153.405C243.106 152.748 242.698 152.7 242.777 152.043C242.857 151.386 243.331 151.435 243.386 150.784C243.44 150.134 244.103 150.176 244.182 149.568C244.261 148.96 243.422 148.814 243.501 148.158C243.58 147.501 243.757 147.55 243.836 146.862C243.915 146.175 244.742 146.309 244.821 145.646C244.9 144.984 244.76 144.971 244.821 144.315C244.881 143.658 243.921 143.543 244 142.886C244.079 142.229 245.179 142.363 245.258 141.706C245.337 141.05 244.48 140.946 244.559 140.29C244.638 139.633 245.325 139.682 245.404 139.074C245.483 138.466 245.404 138.411 245.471 137.754C245.538 137.098 244.924 137.019 245.003 136.362C245.082 135.705 245.745 135.754 245.824 135.146C245.903 134.538 245.343 134.422 245.422 133.766C245.501 133.109 246.031 133.158 246.104 132.519C246.176 131.881 245.824 131.82 245.903 131.163C245.982 130.507 245.946 130.501 246.025 129.844C246.104 129.187 246.517 129.236 246.596 128.579C246.675 127.922 246.833 127.971 246.912 127.284C246.991 126.597 246.438 126.561 246.517 125.904C246.596 125.247 246.559 125.241 246.639 124.584C246.718 123.928 247.119 123.976 247.198 123.32C247.277 122.663 246.426 122.56 246.505 121.903C246.584 121.246 247.21 121.295 247.289 120.687C247.368 120.079 247.545 120.079 247.624 119.392C247.703 118.705 246.736 118.62 246.815 117.963C246.894 117.306 247.648 117.398 247.727 116.747C247.806 116.096 248.378 116.139 248.457 115.531C248.536 114.923 247.398 114.734 247.478 114.078C247.557 113.421 248.536 113.537 248.615 112.862C248.694 112.187 247.709 112.089 247.788 111.433C247.867 110.776 248.226 110.825 248.305 110.162C248.384 109.499 248.511 109.518 248.59 108.861C248.669 108.204 248.08 108.137 248.159 107.481C248.238 106.824 249.235 106.939 249.314 106.265C249.393 105.59 249.356 105.602 249.435 104.945C249.515 104.288 249.29 104.258 249.369 103.601C249.448 102.945 248.815 102.872 248.894 102.209C248.973 101.546 248.894 101.546 248.974 100.884C249.053 100.221 250.189 100.367 250.274 99.7101C250.36 99.0534 250.056 99.0169 250.135 98.3603C250.214 97.7036 249.727 97.6428 249.806 96.9861C249.885 96.3294 250.615 96.4146 250.694 95.7701C250.773 95.1256 249.916 95.004 249.995 94.3473C250.074 93.6906 250.05 93.6845 250.129 93.0279C250.208 92.3712 250.737 92.4199 250.834 91.7754C250.931 91.1309 251.107 91.0274 250.682 90.5167C250.256 90.006 250.116 90.5593 249.466 90.5167C248.815 90.4741 248.858 89.7141 248.189 89.6715C247.52 89.629 247.496 90.0364 246.833 89.9938C246.171 89.9513 246.176 89.7506 245.514 89.7081C244.851 89.6655 244.833 89.9087 244.17 89.8722C243.507 89.8358 243.495 89.9209 242.832 89.8722C242.17 89.8236 242.127 90.5289 241.458 90.4803C240.789 90.4316 240.85 89.3311 240.2 89.2642C239.549 89.1973 239.5 89.6958 238.837 89.6533C238.175 89.6107 238.138 90.1701 237.476 90.1276C236.813 90.085 236.868 89.5195 236.174 89.5195C235.481 89.5195 235.469 90.1276 234.806 90.0911C234.144 90.0546 234.144 90.0364 233.475 89.9938C232.806 89.9513 232.867 88.7169 232.222 88.6744C231.578 88.6318 231.511 89.3432 230.848 89.2824C230.186 89.2216 230.155 89.708 229.486 89.6715C228.817 89.6351 228.878 88.6501 228.221 88.6075C227.565 88.5649 227.528 89.0088 226.865 88.9663C226.203 88.9237 226.209 88.8021 225.546 88.7595C224.883 88.7169 224.938 88.267 224.239 88.2244C223.54 88.1819 223.576 88.2244 222.907 88.2244C222.239 88.2244 222.251 88.0542 221.588 88.0177C220.925 87.9812 220.846 89.1973 220.183 89.1547C219.521 89.1122 219.575 88.4738 218.888 88.4312C218.201 88.3887 218.219 88.4312 217.557 88.3704C216.894 88.3096 216.851 88.9298 216.189 88.8872C215.526 88.8447 215.581 88.0117 214.906 87.9691C214.231 87.9266 214.194 88.7109 213.525 88.6744C212.857 88.6379 212.917 87.9812 212.236 87.9387C211.555 87.8961 211.592 87.5617 210.923 87.5192C210.254 87.4766 210.273 87.3003 209.604 87.2577C208.935 87.2151 208.917 87.5496 208.254 87.507C207.591 87.4644 207.579 87.5617 206.916 87.507C206.253 87.4523 206.229 87.7867 205.56 87.7441C204.891 87.7016 204.952 86.9537 204.277 86.9112C203.602 86.8686 203.59 87.1665 202.922 87.124C202.253 87.0814 202.253 87.1239 201.584 87.0813C201.359 87.0231 201.124 87.0152 200.896 87.0583C200.668 87.1014 200.452 87.1944 200.264 87.3307C199.699 87.6712 200.155 87.9387 199.888 88.5467C199.62 89.1547 198.903 88.8385 198.635 89.4405C198.368 90.0424 198.635 90.1641 198.361 90.766C198.088 91.368 198.197 91.4166 197.93 92.0246C197.662 92.6326 197.65 92.6326 197.388 93.2407C197.127 93.8487 197.17 93.8487 196.902 94.4567C196.635 95.0647 196.75 95.1134 196.483 95.7214C196.215 96.3295 195.978 96.22 195.71 96.828C195.443 97.436 196.288 97.8069 196.02 98.4089C195.753 99.0108 195.473 98.8953 195.206 99.4973C194.938 100.099 194.658 99.9837 194.397 100.586C194.136 101.188 194.64 101.419 194.397 102.027C194.154 102.635 193.059 102.16 192.792 102.762C192.524 103.364 192.463 103.37 192.184 103.978C191.904 104.586 192.33 104.769 192.062 105.377C191.795 105.985 192.494 106.283 192.226 106.891C191.959 107.499 191.393 107.25 191.126 107.858C190.858 108.466 190.305 108.216 190.037 108.824C189.77 109.432 190.487 109.742 190.22 110.351C189.952 110.959 190.439 111.171 190.171 111.779C189.904 112.387 189.247 112.096 188.955 112.704C188.663 113.312 188.529 113.239 188.268 113.847C188.007 114.455 188.055 114.455 187.794 115.063C187.532 115.671 187.186 115.525 186.937 116.133C186.687 116.741 187.429 117.075 187.162 117.683C186.894 118.291 186.724 118.212 186.456 118.82C186.189 119.428 186.414 119.526 186.146 120.134C185.879 120.742 186 120.79 185.733 121.398C185.465 122.006 185.173 121.879 184.906 122.487C184.638 123.095 184.377 122.979 184.109 123.587C183.842 124.195 184.279 124.384 184.012 124.992C183.744 125.6 183.355 125.43 183.088 126.032C182.82 126.633 182.918 126.682 182.65 127.29C182.383 127.898 182.936 128.141 182.65 128.749C182.364 129.357 182.224 129.284 181.957 129.892C181.689 130.5 180.662 130.051 180.394 130.659C180.127 131.267 180.394 131.382 180.127 131.99C179.859 132.598 180.224 132.756 179.956 133.364C179.689 133.972 179.348 133.82 179.093 134.428C178.838 135.036 179.05 135.134 178.783 135.742C178.515 136.35 179.209 136.654 178.941 137.262C178.673 137.87 178.667 137.87 178.4 138.478C178.132 139.086 178.029 139.037 177.792 139.645C177.555 140.253 177.597 140.284 177.33 140.892C177.062 141.5 176.016 141.038 175.755 141.646C175.493 142.254 176.254 142.588 175.986 143.196C175.719 143.804 176.016 143.932 175.749 144.54C175.481 145.148 174.746 144.82 174.478 145.428C174.211 146.036 174.788 146.285 174.521 146.893C174.253 147.501 174.174 147.464 173.913 148.072C173.651 148.68 173.013 148.401 172.745 149.009C172.478 149.617 173.171 149.921 172.909 150.523C172.648 151.125 171.864 150.79 171.596 151.398C171.328 152.006 171.596 152.116 171.329 152.724C171.061 153.332 171.049 153.332 170.781 153.94C170.514 154.548 171.006 154.761 170.739 155.369C170.471 155.977 170.544 155.977 170.277 156.585C170.009 157.193 169.699 157.053 169.431 157.655C169.164 158.257 169.17 158.263 168.902 158.871C168.635 159.479 168.757 159.534 168.489 160.142C168.222 160.75 167.881 160.598 167.62 161.206C167.358 161.814 167.06 161.68 166.793 162.288C166.525 162.896 167.006 163.109 166.738 163.717C166.471 164.325 166.33 164.258 166.063 164.866C165.795 165.474 165.668 165.419 165.406 166.027C165.145 166.635 164.798 166.483 164.531 167.092C164.263 167.7 164.202 167.7 163.923 168.308C163.643 168.916 164.124 169.122 163.862 169.73C163.601 170.338 164.172 170.594 163.905 171.202C163.637 171.81 163.345 171.682 163.078 172.29C162.81 172.898 162.36 172.697 162.093 173.306C161.825 173.914 161.582 173.804 161.314 174.412C161.047 175.02 162.111 175.488 161.843 176.096C161.576 176.704 160.712 176.321 160.445 176.929C160.177 177.537 160.56 177.708 160.293 178.31C160.025 178.912 159.429 178.656 159.162 179.264C158.894 179.872 158.785 179.824 158.518 180.432C158.25 181.04 158.931 181.338 158.663 181.939C158.396 182.541 158.317 182.517 158.055 183.125C157.794 183.733 157.994 183.818 157.727 184.426C157.459 185.034 156.876 184.773 156.608 185.381C156.341 185.989 156.152 185.904 155.885 186.512C155.617 187.12 156.055 187.314 155.787 187.916C155.52 188.518 155.258 188.409 154.991 189.017C154.723 189.625 155.66 190.032 155.392 190.64C155.125 191.248 154.875 191.139 154.608 191.747C154.34 192.355 154.358 192.355 154.091 192.963C153.823 193.571 153.179 193.285 152.911 193.893C152.644 194.501 153.069 194.69 152.802 195.298C152.534 195.906 152.443 195.863 152.194 196.471C151.945 197.079 152.005 197.079 151.738 197.687C151.47 198.295 151.081 198.119 150.814 198.727C150.546 199.335 151.422 199.724 151.166 200.332C150.911 200.94 150.522 200.776 150.254 201.384C149.987 201.992 150.333 202.138 150.066 202.746C149.798 203.354 149.458 203.196 149.166 203.804C148.874 204.412 148.789 204.363 148.521 204.971C148.254 205.579 148.442 205.659 148.175 206.267C147.907 206.875 147.828 206.838 147.567 207.446C147.305 208.054 146.959 207.896 146.667 208.504C146.375 209.112 146.181 209.015 145.913 209.623C145.646 210.231 146.114 210.432 145.846 211.04C145.579 211.648 146.101 211.879 145.846 212.487C145.591 213.095 145.129 212.894 144.867 213.502C144.606 214.11 144.752 214.177 144.484 214.785C144.217 215.393 143.517 215.083 143.268 215.691C143.019 216.299 143.481 216.512 143.213 217.12C142.946 217.728 142.253 217.424 141.997 218.026C141.742 218.628 141.949 218.731 141.681 219.339C141.414 219.947 141.383 219.947 141.116 220.555C140.848 221.163 141.499 221.449 141.231 222.057C140.964 222.665 140.8 222.592 140.532 223.194C140.265 223.796 139.693 223.553 139.425 224.161C139.158 224.769 140.204 225.225 139.936 225.833C139.669 226.441 139.121 226.198 138.854 226.806C138.586 227.414 138.988 227.59 138.72 228.198C138.453 228.806 138.568 228.855 138.301 229.463C138.033 230.071 137.085 229.651 136.823 230.259C136.562 230.867 137.376 231.232 137.109 231.84C136.841 232.448 137.036 232.533 136.768 233.141C136.501 233.749 135.826 233.451 135.552 234.059C135.279 234.667 135.017 234.546 134.75 235.154C134.482 235.762 135.419 236.175 135.151 236.783C134.883 237.391 134.5 237.221 134.233 237.829C133.965 238.437 133.862 238.395 133.594 239.003C133.327 239.611 132.761 239.355 132.494 239.963C132.226 240.571 132.257 240.571 131.989 241.179C131.722 241.787 132.226 242.012 131.959 242.614C131.691 243.216 132.117 243.411 131.849 244.019C131.582 244.627 131.503 244.59 131.241 245.198C130.98 245.806 131.241 245.916 130.956 246.524C130.67 247.132 130.177 246.901 129.91 247.509C129.642 248.117 129.946 248.251 129.679 248.859C129.411 249.467 128.663 249.138 128.396 249.746C128.128 250.355 128.791 250.646 128.524 251.254C128.256 251.862 128.304 251.862 128.037 252.47C127.769 253.078 127.526 252.969 127.259 253.577C126.991 254.185 126.322 253.887 126.043 254.495C125.763 255.103 126.401 255.377 126.134 255.985C125.866 256.593 125.66 256.508 125.392 257.116C125.125 257.724 124.644 257.511 124.377 258.119C124.109 258.727 124.808 259.031 124.541 259.639C124.273 260.247 124.158 260.198 123.89 260.807C123.623 261.415 123.568 261.415 123.282 262.023C122.997 262.631 123.203 262.71 122.936 263.318C122.668 263.926 122.456 263.828 122.188 264.436C121.92 265.044 122.462 265.282 122.188 265.89C121.914 266.498 121.616 266.364 121.349 266.972C121.081 267.58 120.82 267.464 120.552 268.072C120.285 268.68 120.935 268.966 120.668 269.574C120.4 270.182 119.567 269.811 119.3 270.419C119.032 271.027 118.965 271.027 118.692 271.635C118.418 272.243 118.783 272.402 118.515 273.01C118.248 273.618 118.364 273.666 118.096 274.274C117.828 274.882 118.254 275.071 117.986 275.679C117.719 276.287 116.856 275.91 116.588 276.518C116.321 277.126 116.922 277.387 116.655 277.995C116.387 278.603 115.901 278.391 115.633 278.999C115.366 279.607 116.016 279.892 115.749 280.5C115.481 281.108 114.964 280.877 114.697 281.485C114.429 282.093 114.752 282.239 114.484 282.847C114.217 283.455 113.876 283.291 113.59 283.899C113.305 284.507 113.286 284.507 113.019 285.115C112.751 285.723 112.526 285.62 112.259 286.228C111.991 286.836 112.684 287.14 112.417 287.748C112.149 288.356 111.529 288.083 111.262 288.691C110.994 289.299 111.42 289.481 111.152 290.089C110.885 290.697 110.502 290.533 110.234 291.141C109.967 291.749 110.234 291.864 109.967 292.472C109.699 293.08 109.504 292.989 109.237 293.597C108.969 294.205 108.787 294.126 108.52 294.734C108.252 295.342 108.349 295.385 108.082 295.993C107.814 296.601 107.553 296.479 107.285 297.087C107.018 297.695 107.37 297.847 107.103 298.455C106.835 299.063 106.756 299.027 106.495 299.635C106.233 300.243 106.525 300.371 106.264 300.979C106.002 301.587 105.844 301.52 105.577 302.122C105.309 302.724 105.467 302.797 105.206 303.405C104.944 304.013 105.115 304.092 104.847 304.7C104.58 305.308 104.671 305.344 104.403 305.952C104.136 306.56 104.294 306.627 104.026 307.235C103.759 307.843 103.716 307.843 103.448 308.451C103.181 309.059 102.336 308.689 102.068 309.297C101.801 309.905 102.743 310.318 102.476 310.926C102.208 311.534 101.673 311.297 101.406 311.905C101.138 312.513 101.126 312.513 100.858 313.121C100.591 313.729 100.573 313.729 100.305 314.337C100.037 314.945 100.183 315.012 99.9158 315.62C99.6482 316.228 100.117 316.429 99.849 317.037C99.5814 317.645 99.0646 317.414 98.7971 318.022C98.5296 318.63 97.9094 318.362 97.6419 318.964C97.3744 319.566 97.6966 319.718 97.429 320.32C97.1615 320.922 97.9825 321.293 97.7149 321.895C97.4474 322.497 96.7603 322.199 96.4989 322.807C96.2374 323.415 96.7115 323.628 96.444 324.236C96.1764 324.844 95.6231 324.601 95.3556 325.209C95.088 325.817 95.6474 326.06 95.3556 326.668C95.0637 327.276 94.7476 327.124 94.4679 327.732C94.1882 328.34 94.2856 328.376 94.0181 328.984C93.7506 329.592 93.4101 329.434 93.1182 330.042C92.8264 330.65 93.5194 330.942 93.2518 331.55C92.9843 332.158 92.2306 331.824 91.963 332.432C91.6955 333.04 92.3704 333.338 92.1029 333.946C91.8353 334.554 91.7502 334.517 91.4949 335.125C91.2395 335.733 91.3732 335.794 91.1056 336.402C90.8381 337.01 90.2423 336.749 89.9748 337.357C89.7073 337.965 90.0781 338.129 89.8106 338.737C89.5431 339.345 89.4093 339.284 89.1417 339.892C88.8742 340.5 89.0566 340.585 88.789 341.193C88.5215 341.802 87.7737 341.467 87.5062 342.075C87.2386 342.683 88.1689 343.097 87.9013 343.705C87.6338 344.313 87.1594 344.1 86.8919 344.708C86.6244 345.316 86.8921 345.444 86.6428 346.052C86.3935 346.66 86.7521 346.83 86.4846 347.438C86.217 348.046 85.9799 347.937 85.7124 348.551C85.4448 349.165 85.2502 349.068 84.9826 349.676C84.7151 350.284 84.6361 350.253 84.3746 350.861C84.1131 351.469 84.1134 351.469 83.8458 352.077C83.5783 352.685 83.2013 352.521 82.9338 353.129C82.6663 353.737 82.7392 353.737 82.4656 354.345C82.192 354.953 82.7697 355.202 82.5021 355.81C82.2346 356.418 81.6569 356.163 81.3894 356.777C81.1219 357.391 81.9123 357.732 81.6447 358.34C81.3772 358.948 81.1035 358.826 80.836 359.434C80.5685 360.042 79.7661 359.69 79.4985 360.298C79.231 360.906 79.8875 361.198 79.6199 361.806C79.3524 362.414 78.6106 362.091 78.343 362.699C78.0755 363.307 78.5194 363.502 78.2519 364.11C77.9844 364.718 78.6227 364.998 78.3552 365.606C78.0877 366.214 77.4006 365.916 77.1392 366.524C76.8777 367.132 76.6345 367.023 76.3669 367.631C76.0994 368.239 76.7865 368.543 76.519 369.151C76.2514 369.759 76.0327 369.661 75.7652 370.269C75.4976 370.877 75.9231 371.066 75.6556 371.674C75.3881 372.282 74.7739 372.014 74.5064 372.622C74.2388 373.23 74.9137 373.522 74.6462 374.13C74.3787 374.738 74.233 374.678 73.9654 375.286C73.6979 375.894 73.7526 375.924 73.4851 376.532C73.2175 377.14 72.6642 376.897 72.3967 377.505C72.1291 378.113 72.7251 378.374 72.4575 378.982C72.19 379.59 71.2415 379.165 70.9496 379.773C70.6578 380.381 71.5576 380.77 71.2961 381.378C71.0347 381.986 71.2353 382.083 70.9678 382.691C70.7002 383.299 69.6178 382.825 69.3503 383.433C69.0828 384.041 69.2289 384.108 68.9614 384.716C68.6939 385.324 69.4841 385.677 69.2105 386.285C68.9369 386.893 68.712 386.789 68.4445 387.397C68.177 388.005 68.0249 387.945 67.7513 388.553C67.4777 389.161 67.344 389.1 67.0764 389.708C66.8089 390.316 66.8393 390.316 66.5717 390.924C66.3042 391.532 66.7906 391.745 66.523 392.359C66.2555 392.973 65.5624 392.663 65.307 393.271C65.0516 393.879 65.611 394.14 65.3435 394.748C65.076 395.356 64.9606 395.308 64.693 395.922C64.4255 396.536 63.0939 396.773 63.4039 397.363C63.714 397.953 64.7232 396.572 65.3738 396.676C66.0244 396.779 65.8238 398.014 66.4744 398.117C67.1249 398.22 67.277 397.333 67.9276 397.436C68.5782 397.539 68.5356 397.649 69.2105 397.752C69.8854 397.855 69.8855 397.697 70.5361 397.807C71.1867 397.916 71.2292 397.661 71.8798 397.764C72.5304 397.868 72.4209 398.561 73.0958 398.664C73.7708 398.767 73.8679 398.056 74.5185 398.141C75.1691 398.226 74.9563 399.546 75.6069 399.649C76.2575 399.753 76.2638 399.728 76.9144 399.838C77.565 399.947 77.6197 399.607 78.2703 399.716C78.9209 399.825 79.0607 398.998 79.7173 399.108C80.374 399.217 80.228 400.038 80.8847 400.142C81.5414 400.245 81.5959 399.874 82.2465 399.984C82.8971 400.093 82.8912 400.136 83.5418 400.245C84.1924 400.354 84.2287 400.142 84.8793 400.245C85.5299 400.348 85.5178 400.452 86.1684 400.555C86.819 400.658 86.8799 400.312 87.5305 400.415C88.1811 400.519 88.0595 401.254 88.7101 401.364C89.3606 401.473 89.4091 401.181 90.0597 401.291C90.7103 401.4 90.6679 401.765 91.3063 401.899C91.9448 402.033 92.1087 401.102 92.7593 401.206C93.4099 401.309 93.2823 402.099 93.9329 402.209C94.5835 402.318 94.6444 401.978 95.295 402.087C95.9456 402.197 95.9028 402.349 96.5716 402.458C97.2405 402.568 97.1798 402.847 97.8304 402.957C98.481 403.066 98.5478 402.641 99.2044 402.744C99.8611 402.847 99.8126 403.097 100.463 403.206C101.114 403.315 101.114 403.322 101.77 403.425L103.071 403.644C103.722 403.753 103.838 403.066 104.494 403.17C105.151 403.273 104.957 404.386 105.607 404.519C106.258 404.653 106.428 403.595 107.084 403.705C107.741 403.814 107.613 404.556 108.264 404.659C108.915 404.763 108.915 404.787 109.565 404.896C110.216 405.006 110.143 405.45 110.781 405.553C111.42 405.656 111.468 405.462 112.125 405.553C112.782 405.644 112.958 404.562 113.609 404.671L114.916 404.89C115.567 405 115.372 406.167 116.023 406.277C116.673 406.386 116.77 405.833 117.421 405.942C118.071 406.052 118.059 406.131 118.71 406.24C119.361 406.35 119.385 406.24 120.036 406.337C120.686 406.435 120.583 407.073 121.252 407.176C121.92 407.28 121.993 406.751 122.644 406.854C123.295 406.958 123.374 406.514 124.024 406.623C124.675 406.733 124.632 407.006 125.283 407.116C125.933 407.225 125.806 408.003 126.456 408.107C127.107 408.21 127.234 407.468 127.885 407.578C128.536 407.687 128.602 407.274 129.253 407.383C129.904 407.493 129.788 408.21 130.439 408.32C131.089 408.429 131.217 407.663 131.874 407.772C132.53 407.882 132.482 408.058 133.145 408.168C133.807 408.277 133.722 408.727 134.361 408.836C134.999 408.946 135.133 408.228 135.789 408.35C136.446 408.472 136.398 408.575 137.072 408.684C137.747 408.794 137.559 409.791 138.209 409.9C138.86 410.01 138.817 410.144 139.492 410.253C140.167 410.363 140.264 409.645 140.921 409.761C141.578 409.876 141.493 410.369 142.137 410.46C142.782 410.551 142.964 409.523 143.621 409.633C144.278 409.742 144.174 410.344 144.837 410.454C145.5 410.563 145.384 411.189 146.053 411.299C146.722 411.408 146.758 411.117 147.409 411.226C148.059 411.335 148.017 411.56 148.68 411.67C149.342 411.779 149.288 411.913 149.962 412.022C150.637 412.132 150.613 412.162 151.27 412.272C151.926 412.381 151.981 412.023 152.638 412.132C153.294 412.241 153.319 412.132 153.975 412.199C154.632 412.266 154.729 411.469 155.386 411.542C156.043 411.615 155.994 412.296 156.602 412.375C157.21 412.454 157.307 412.053 157.964 412.126C158.621 412.199 158.511 413.239 159.18 413.342C159.849 413.445 159.879 413.05 160.536 413.123C161.193 413.196 161.223 412.959 161.88 413.032C162.536 413.105 162.524 413.263 163.181 413.336C163.838 413.409 163.789 413.67 164.47 413.743C165.151 413.816 165.127 413.847 165.783 413.919C166.44 413.992 166.507 413.439 167.163 413.512C167.82 413.585 167.772 414.205 168.41 414.278C169.049 414.351 169.073 414.278 169.729 414.382C170.386 414.485 170.429 414.12 171.085 414.193C171.742 414.266 171.73 414.394 172.386 414.467C173.043 414.54 172.995 414.85 173.669 414.923C174.344 414.996 174.393 414.442 175.05 414.515C175.706 414.588 175.658 414.941 176.327 415.02C176.995 415.099 177.008 414.886 177.67 414.959C178.333 415.032 178.4 414.406 179.057 414.479C179.713 414.552 179.664 414.85 180.339 414.923C181.014 414.996 181.051 414.54 181.707 414.613C182.364 414.686 182.316 415.135 182.978 415.221C183.641 415.306 183.696 414.777 184.352 414.85C185.009 414.923 184.894 415.981 185.568 416.066C186.243 416.151 186.298 415.458 186.961 415.561C187.624 415.665 187.569 416.242 188.177 416.321C188.785 416.4 188.937 415.476 189.6 415.549C190.262 415.622 190.256 415.64 190.913 415.713C191.57 415.786 191.521 416.084 192.196 416.157C192.871 416.23 192.804 416.917 193.412 416.99C194.02 417.063 194.105 416.796 194.762 416.868C195.419 416.941 195.425 416.868 196.087 416.96C196.75 417.051 196.835 416.23 197.492 416.303C198.148 416.376 198.136 416.504 198.793 416.577C199.45 416.65 199.401 417.185 200.052 417.251C200.702 417.318 200.787 416.644 201.444 416.729C202.101 416.814 202.052 417.397 202.691 417.47C203.329 417.543 203.384 417.233 204.04 417.306C204.697 417.379 204.715 417.233 205.372 417.306C206.028 417.379 205.913 418.382 206.588 418.455L207.907 418.607C208.564 418.68 208.57 418.607 209.227 418.674C209.883 418.741 209.975 417.939 210.631 418.012C211.288 418.084 211.203 418.869 211.847 418.942C212.492 419.015 212.486 419.191 213.142 419.27C213.799 419.349 213.854 418.905 214.511 418.978C215.167 419.051 215.21 418.686 215.866 418.759C216.523 418.832 216.474 419.404 217.119 419.477C217.763 419.55 217.843 418.997 218.499 419.076C219.156 419.155 219.15 419.27 219.806 419.343C220.463 419.416 220.378 420.188 221.022 420.267C221.667 420.346 221.776 419.513 222.433 419.586C223.09 419.659 223.108 419.532 223.765 419.586C224.421 419.641 224.446 419.459 225.102 419.532C225.759 419.605 225.674 420.383 226.318 420.456C226.963 420.529 227.005 420.292 227.662 420.365C228.319 420.438 228.325 420.419 228.981 420.492C229.638 420.565 229.711 419.884 230.374 419.969C231.037 420.054 230.982 420.656 231.62 420.729C232.259 420.802 232.198 421.52 232.837 421.593C233.475 421.666 233.548 421.24 234.205 421.319C234.861 421.398 234.812 421.678 235.493 421.757C236.174 421.836 236.278 420.699 236.934 420.772C237.591 420.845 237.5 421.714 238.15 421.787C238.801 421.86 238.758 422.176 239.433 422.249C240.108 422.322 240.169 421.641 240.826 421.708C241.482 421.775 241.434 422.316 242.078 422.42C242.723 422.523 242.814 421.812 243.477 421.873C244.14 421.933 244.176 421.593 244.833 421.666C245.49 421.739 245.386 422.663 246.049 422.736C246.712 422.809 246.791 422.061 247.447 422.128C248.104 422.195 248.055 422.523 248.73 422.596C249.405 422.669 249.405 422.596 250.062 422.651C250.718 422.706 250.627 423.575 251.278 423.648C251.928 423.721 252.014 423.04 252.676 423.095C253.339 423.149 253.357 422.949 254.014 423.022C254.67 423.095 254.652 423.326 255.309 423.399C255.966 423.472 255.917 423.964 256.574 424.007C257.231 424.049 257.285 423.605 257.942 423.678L259.261 423.83C259.924 423.903 259.93 423.83 260.593 423.909C261.256 423.988 261.201 424.305 261.87 424.378C262.539 424.45 262.569 424.122 263.226 424.195C263.882 424.268 263.925 423.928 264.581 424.001C265.238 424.074 265.25 424.001 265.913 424.067C266.576 424.134 266.521 424.524 267.19 424.596C267.859 424.669 267.859 424.596 268.515 424.663C269.172 424.73 269.154 424.967 269.811 425.04C270.467 425.113 270.51 424.754 271.172 424.827C271.835 424.9 271.78 425.344 272.443 425.435C273.106 425.527 273.051 425.892 273.72 425.965C274.389 426.038 274.365 426.153 275.021 426.232C275.678 426.311 275.775 425.502 276.432 425.575C277.088 425.648 277.009 426.39 277.648 426.463C278.286 426.536 278.365 425.983 279.028 426.056C279.691 426.129 279.666 426.317 280.323 426.39C280.98 426.463 280.974 426.536 281.637 426.609C282.299 426.682 282.287 426.743 282.95 426.816C283.613 426.889 283.692 426.135 284.348 426.208C285.005 426.281 285.011 426.268 285.668 426.341C286.324 426.414 286.276 426.858 286.939 426.949C287.601 427.041 287.583 427.138 288.246 427.217C288.909 427.296 288.963 426.731 289.626 426.804C290.289 426.876 290.234 427.278 290.897 427.351C291.559 427.424 291.505 427.776 292.18 427.849C292.854 427.922 292.897 427.442 293.554 427.515C294.211 427.588 294.235 427.418 294.892 427.515C295.548 427.612 295.56 427.515 296.223 427.588C296.886 427.661 296.831 428.123 297.494 428.196C298.157 428.269 298.175 428.056 298.838 428.129C299.5 428.202 299.531 427.928 300.188 428.001C300.844 428.074 300.795 428.609 301.452 428.658C302.109 428.707 302.103 428.81 302.765 428.883C303.428 428.956 303.434 428.883 304.097 428.938C304.76 428.992 304.784 428.774 305.447 428.847C306.11 428.92 306.055 429.454 306.712 429.509C307.368 429.564 307.368 429.619 308.025 429.692C308.681 429.765 308.84 428.962 309.484 429.12C310.129 429.278 309.983 429.692 310.469 429.236Z" fill="#A5A2FF"></path><path d="M194.336 238.917C188.779 238.917 184.255 234.807 184.255 229.754C184.255 224.702 188.779 220.591 194.336 220.591C199.893 220.591 204.411 224.702 204.411 229.754C204.411 234.807 199.893 238.917 194.336 238.917Z" fill="white"></path><path d="M194.336 222.112C199.054 222.112 202.891 225.535 202.891 229.755C202.891 233.974 199.054 237.398 194.336 237.398C189.617 237.398 185.775 233.968 185.775 229.755C185.775 225.541 189.617 222.112 194.336 222.112ZM194.336 219.072C187.927 219.072 182.734 223.851 182.734 229.755C182.734 235.659 187.927 240.438 194.336 240.438C200.744 240.438 205.931 235.653 205.931 229.755C205.931 223.857 200.738 219.072 194.336 219.072Z" fill="white"></path><path d="M223.022 238.912C228.59 238.912 233.103 234.809 233.103 229.749C233.103 224.688 228.59 220.586 223.022 220.586C217.455 220.586 212.941 224.688 212.941 229.749C212.941 234.809 217.455 238.912 223.022 238.912Z" fill="white"></path><path d="M223.029 222.112C227.747 222.112 231.584 225.535 231.584 229.755C231.584 233.974 227.747 237.398 223.029 237.398C218.31 237.398 214.468 233.968 214.468 229.755C214.468 225.541 218.304 222.112 223.029 222.112ZM223.029 219.072C216.62 219.072 211.428 223.851 211.428 229.755C211.428 235.659 216.62 240.438 223.029 240.438C229.437 240.438 234.624 235.653 234.624 229.755C234.624 223.857 229.431 219.072 223.029 219.072Z" fill="white"></path><path d="M186.778 238.346C189.183 238.346 191.132 234.538 191.132 229.84C191.132 225.142 189.183 221.333 186.778 221.333C184.374 221.333 182.425 225.142 182.425 229.84C182.425 234.538 184.374 238.346 186.778 238.346Z" fill="#141414"></path><path d="M215.045 238.346C217.449 238.346 219.398 234.538 219.398 229.84C219.398 225.142 217.449 221.333 215.045 221.333C212.641 221.333 210.691 225.142 210.691 229.84C210.691 234.538 212.641 238.346 215.045 238.346Z" fill="#141414"></path><path d="M254.366 367.734C251.429 389.516 250.007 411.476 250.11 433.455C250.146 441.609 250.45 450.054 253.977 457.411C259.078 468.07 270.296 474.771 281.83 477.342C293.365 479.914 305.361 478.966 317.139 477.999C319.65 477.792 322.24 477.567 324.477 476.412C326.715 475.257 328.545 472.934 328.332 470.423C327.937 465.857 322.039 464.422 317.467 464.179L283.661 462.385L321.535 461.09C323.876 461.011 326.296 460.914 328.424 459.935C330.552 458.956 332.345 456.84 332.212 454.493C331.956 450.133 326.241 448.789 321.875 448.662L286.22 447.634L318.859 447.428C321.212 447.428 323.65 447.379 325.76 446.351C327.87 445.324 329.548 442.989 329.032 440.697C328.466 438.198 325.7 436.884 323.182 436.392C318.47 435.474 313.624 436.161 308.827 436.185C304.03 436.21 298.892 435.413 295.377 432.148C290.933 428.025 290.361 421.319 290.075 415.263L287.54 361.021" stroke="white" stroke-width="3.6997" stroke-miterlimit="10"></path><path d="M213.823 32.4922C208.88 39.8451 205.692 48.2352 204.505 57.0152C203.318 65.7953 204.164 74.7306 206.977 83.1321C209.79 91.5336 214.495 99.1767 220.73 105.472C226.964 111.767 234.561 116.546 242.935 119.44C253.545 123.088 265.323 123.581 276.048 120.261C292.137 115.293 305.197 101.527 309.32 85.1959C313.442 68.8643 308.474 50.5384 296.667 38.542C290.72 32.4618 282.603 27.8712 274.139 28.5096C265.675 29.148 257.528 36.5051 258.209 44.9688C258.975 54.448 269.39 60.1695 278.821 61.3855C286.128 62.3464 293.556 61.7181 300.598 59.5436C307.64 57.3691 314.129 53.6997 319.622 48.7863C325.115 43.8729 329.482 37.8312 332.425 31.0744C335.369 24.3176 336.818 17.005 336.675 9.63647" stroke="white" stroke-width="3.6997" stroke-miterlimit="10"></path><path d="M336.091 29.3246C343.636 29.3246 349.753 23.2078 349.753 15.6623C349.753 8.11682 343.636 2 336.091 2C328.545 2 322.429 8.11682 322.429 15.6623C322.429 23.2078 328.545 29.3246 336.091 29.3246Z" fill="white" stroke="white" stroke-width="3.6997" stroke-miterlimit="10"></path><path d="M193.454 250.135C202.064 256.641 214.613 257.401 223.94 251.959" stroke="white" stroke-width="3.6997" stroke-miterlimit="10"></path></svg>