<svg xmlns="http://www.w3.org/2000/svg" width="358" height="275" viewBox="0 0 358 275" fill="none"><path d="M202.866 122.856L254.366 116.825L258.648 90.7359L278.541 83.2506L292.863 121.258L299.723 141.611L234.33 146.699L358 253.182L284.541 274.771L159.016 159.582L89.4623 173.987C89.4623 173.987 4.28166 150.754 66.4409 141.754C128.6 132.753 127.002 134.585 127.002 134.585L0 1.83145C0 1.83145 88.0074 -1.54575 88.0074 3.58771C88.0074 8.72116 202.866 122.856 202.866 122.856Z" fill="#A5A2FF"></path><path d="M131.541 134.291C128.601 126.912 121.44 121.725 113.721 119.856C106.002 117.986 97.8079 119.102 90.2623 121.552C85.4153 123.135 80.6512 125.321 77.048 128.947C73.4448 132.573 71.1682 137.751 72.0427 142.772L131.541 134.291Z" fill="#DCFF06" stroke="#DCFF06" stroke-width="2.88414" stroke-miterlimit="10"></path></svg>