<svg xmlns="http://www.w3.org/2000/svg" width="1884" height="490" viewBox="0 0 1884 490" fill="none"><rect x="324" y="362" width="1196" height="126.234" fill="#FFF9E6"></rect><rect x="415.056" y="0.593445" width="403.819" height="430.225" fill="#6556A1"></rect><path d="M627.593 169.334H1193.71V406.345H910.653H627.593V169.334Z" fill="#A5A2FF"></path><path d="M269.853 314.583C275.316 314.583 281.517 313.271 286.835 314.583C292.359 317.376 297.75 320.504 302.988 323.954C311.208 329.187 319.582 334.091 328.109 338.665C343.519 346.842 359.404 353.769 375.647 359.395C393.386 365.642 412.531 376.169 428.828 386.612C434.326 390.131 435.273 391.151 442.051 391.235C458.339 391.443 466.388 384.561 480.26 375.221C488.084 369.943 496.854 366.392 504.462 360.718C508.113 358 511.754 351.67 515.693 350.056C519.145 348.64 524.977 349.754 528.249 349.764C540.977 349.764 553.605 349.119 566.314 350.16C581.969 351.357 597.503 354.145 612.735 358.49C630.762 363.768 647.446 377.304 664.59 385.394C685.691 395.337 706.666 403.562 724.982 419.222C730.237 423.709 735.735 429.228 739.052 436.141C748.715 456.298 764.227 468.032 777.937 484.358C786.338 494.353 795.541 504.474 803.536 514.917C805.681 517.717 808.413 517.103 808.332 522.028H11.6474C12.1612 497.31 6.57255 469.303 20.9945 448.583C37.6608 424.636 57.0492 401.907 81.3862 388.642C106.778 374.805 133.341 364.695 158.399 349.775C175.805 339.436 191.642 327.4 210.823 321.778C228.706 316.572 247.328 314.802 265.734 314.677L269.853 314.583Z" fill="#DCFF06"></path><path d="M452.837 381.216C448.551 381.705 443.108 385.542 439.5 387.493C435.814 389.483 432.025 391.263 428.327 393.227C421.472 396.866 417.218 402.832 412.911 409.146C403.014 423.688 396.289 441.889 397.906 459.697C398.186 462.766 399.597 465.462 401.519 467.823C405.098 472.224 409.197 476.858 413.374 480.67C419.162 485.949 427.832 488.407 434.991 491.223C445.257 495.255 452.498 495.5 463.628 495.255C484.784 494.767 505.348 491.219 526.191 488.453C533.752 487.451 540.972 482.952 546.512 477.758C550.457 474.065 555.388 470.468 558.207 465.773C559.934 462.89 560.179 459.622 560.63 456.362C561.141 452.662 561.594 449.004 561.457 445.262C561.302 441.078 560.321 437.038 560.289 432.856C560.265 428.161 560.613 424.796 558.224 420.724C555.629 416.303 551.896 412.157 548.462 408.323C542.464 401.624 532.406 400.76 524.116 398.863C521.155 398.184 519.356 397.749 516.408 398.691C512.059 400.078 509.328 403.661 505.196 405.541C501.127 407.394 496.236 408.494 491.861 409.489C489.859 409.945 486.694 411.393 484.665 410.657C488.196 406.041 493.41 401.398 495.437 395.85C497.236 390.931 496.005 384.211 496.033 378.925C496.063 373.786 494.98 371.28 491.513 367.629C488.927 364.906 485.776 361.556 481.771 361.166C480.241 361.014 478.603 361.285 477.064 361.252C473.142 361.171 469.417 360.096 465.453 360.136C460.225 360.187 452.575 359.01 448.21 362.32C445.353 364.483 441.737 367.55 440.394 370.932C439.869 372.256 440.471 373.567 440.24 374.903C439.901 376.905 439.093 378.009 452.837 381.216Z" fill="black"></path><path d="M294.027 432.421C300.265 432.421 307.348 431.714 313.422 432.421C319.731 433.925 325.889 435.61 331.871 437.469C341.259 440.288 350.824 442.93 360.562 445.394C378.163 449.799 396.305 453.53 414.857 456.561C435.117 459.926 456.983 465.597 475.596 471.223C481.876 473.118 482.957 473.668 490.699 473.713C509.302 473.825 518.495 470.118 534.339 465.087C543.275 462.243 553.292 460.33 561.98 457.273C566.15 455.809 570.309 452.399 574.808 451.53C578.751 450.767 585.412 451.367 589.149 451.373C603.685 451.373 618.108 451.025 632.624 451.586C650.504 452.231 668.245 453.733 685.642 456.073C706.231 458.917 725.287 466.208 744.868 470.566C768.968 475.923 792.924 480.354 813.843 488.79C819.845 491.207 826.125 494.18 829.913 497.904C840.949 508.763 858.667 515.084 874.325 523.878C883.92 529.263 894.431 534.715 903.562 540.34C906.012 541.849 909.132 541.518 909.039 544.171H0.409592C0.409592 527.754 -1.98879 515.361 14.4829 504.199C33.518 491.299 50.9764 479.462 78.7724 472.316C107.773 464.862 138.112 459.416 166.731 451.378C186.611 445.809 204.699 439.325 226.606 436.296C247.031 433.492 268.3 432.538 289.322 432.471L294.027 432.421Z" fill="#6556A1"></path><path d="M1056 325H1827.97L1884 570.822H1056V325Z" fill="#8D7ECB"></path><path d="M1039.15 384.584C1045.47 384.584 1052.63 383.27 1058.78 384.584C1065.16 387.382 1071.4 390.517 1077.45 393.974C1086.95 399.218 1096.63 404.132 1106.48 408.715C1124.29 416.908 1142.65 423.849 1161.42 429.486C1181.92 435.746 1204.05 446.294 1222.88 456.758C1229.24 460.284 1230.33 461.306 1238.16 461.39C1256.99 461.598 1266.29 454.702 1282.32 445.344C1291.36 440.055 1301.5 436.497 1310.29 430.811C1314.51 428.088 1318.72 421.745 1323.27 420.128C1327.26 418.709 1334 419.826 1337.78 419.836C1352.49 419.836 1367.08 419.189 1381.77 420.233C1399.86 421.432 1417.82 424.225 1435.42 428.579C1456.25 433.868 1475.54 447.431 1495.35 455.537C1519.74 465.5 1543.98 473.742 1565.14 489.433C1571.22 493.929 1577.57 499.459 1581.4 506.386C1592.57 526.584 1610.5 538.341 1626.34 554.7C1636.05 564.715 1646.69 574.856 1655.93 585.32C1658.41 588.126 1661.56 587.511 1661.47 592.445H740.748C741.342 567.678 734.883 539.614 751.551 518.853C770.812 494.858 793.219 472.083 821.345 458.792C850.69 444.927 881.389 434.797 910.348 419.847C930.463 409.487 948.766 397.427 970.934 391.793C991.601 386.577 1013.12 384.803 1034.39 384.678L1039.15 384.584Z" fill="#6556A1" stroke="#FFF9E6" stroke-width="4.14611" stroke-miterlimit="10"></path><path d="M1823.92 517.04H1510C1516.87 479.053 1522.55 440.913 1529.42 402.926C1533.97 377.708 1542.06 348.427 1569.81 338.2C1591.67 330.14 1618.15 338.2 1635.01 352.399C1651.87 366.598 1661.13 385.845 1669.59 404.647C1678.04 423.448 1686.41 442.81 1702.06 457.97C1710.55 435.542 1740.12 421.858 1768.06 422.941C1795.99 424.024 1821.59 437.54 1840.39 454.989C1859.19 472.438 1867.03 496.118 1879.84 517.048L1823.92 517.04Z" fill="black"></path><path d="M1757.18 446.637H1738.34" stroke="white" stroke-width="1.41951" stroke-linecap="round" stroke-linejoin="round"></path><path d="M1750.85 458.162L1727.36 455.98" stroke="white" stroke-width="1.41951" stroke-linecap="round" stroke-linejoin="round"></path><path d="M1782.27 454.743L1764.99 453.414" stroke="white" stroke-width="1.41951" stroke-linecap="round" stroke-linejoin="round"></path></svg>