<svg xmlns="http://www.w3.org/2000/svg" width="131" height="132" viewBox="0 0 131 132" fill="none"><path d="M53.4933 56.2705C59.4803 55.2863 67.162 55.5187 69.6566 61.0545C70.9893 64.0275 70.1416 67.6292 68.2553 70.2878C66.3691 72.9464 63.6013 74.819 60.7993 76.4798C52.8577 81.1819 5.07165 100.462 3.06234 82.3164C1.16238 65.1211 43.2486 57.9517 53.4933 56.2705Z" fill="#A5A2FF" stroke="#DCFF06" stroke-width="4.14611" stroke-miterlimit="10"></path><path d="M62.0023 51.1925C67.2033 54.3158 72.9374 59.469 71.2288 65.2919C70.3198 68.422 67.3401 70.6159 64.1895 71.4428C61.0388 72.2698 57.7037 71.8801 54.4915 71.3334C45.3949 69.782 -3.50539 53.564 6.70519 38.4122C16.3827 24.06 53.104 45.8411 62.0023 51.1925Z" fill="#A5A2FF" stroke="#DCFF06" stroke-width="4.14611" stroke-miterlimit="10"></path><path d="M71.7758 52.826C73.7168 58.5737 74.7349 66.2009 69.6774 69.5429C66.9437 71.3404 63.2667 71.0874 60.3416 69.659C57.4164 68.2307 55.1201 65.7976 53.022 63.303C47.0965 56.2294 20.3332 12.1955 37.9112 7.26103C54.5666 2.61364 68.4543 42.9845 71.7758 52.826Z" fill="#A5A2FF" stroke="#DCFF06" stroke-width="4.14611" stroke-miterlimit="10"></path><path d="M78.167 60.3982C75.9253 66.0366 71.7634 72.5089 65.7423 71.7844C62.5096 71.3948 59.8579 68.8113 58.5525 65.8315C57.2471 62.8517 57.0694 59.5029 57.0899 56.2634C57.1514 47.0369 65.2569 -3.87913 81.8372 3.78222C97.5563 10.9857 82.0079 50.748 78.167 60.3982Z" fill="#A5A2FF" stroke="#DCFF06" stroke-width="4.14611" stroke-miterlimit="10"></path><path d="M78.1381 70.3084C72.78 73.1515 65.4128 75.3933 61.2985 70.9441C59.0841 68.5521 58.7353 64.8682 59.6716 61.7517C60.6079 58.6353 62.638 55.97 64.7567 53.4959C70.7778 46.5043 109.898 12.9611 117.6 29.514C124.899 45.1921 87.3099 65.4355 78.1381 70.3084Z" fill="#A5A2FF" stroke="#DCFF06" stroke-width="4.14611" stroke-miterlimit="10"></path><path d="M71.6983 77.8396C65.7729 76.5411 58.7132 73.4793 58.4467 67.424C58.31 64.1708 60.4286 61.1364 63.1624 59.3662C65.8961 57.5961 69.1628 56.8786 72.3818 56.366C81.4988 54.9308 133.023 54.6916 128.185 72.2902C123.592 88.9661 81.8406 80.0608 71.6983 77.8396Z" fill="#A5A2FF" stroke="#DCFF06" stroke-width="4.14611" stroke-miterlimit="10"></path><path d="M61.913 79.4117C58.2361 74.5866 54.8326 67.684 58.5642 62.8999C60.5598 60.3302 64.141 59.387 67.3668 59.8039C70.5926 60.2208 73.552 61.7926 76.3336 63.4944C84.2137 68.2785 123.641 101.466 108.558 111.745C94.267 121.491 68.2075 87.6745 61.913 79.4117Z" fill="#A5A2FF" stroke="#DCFF06" stroke-width="4.14611" stroke-miterlimit="10"></path><path d="M53.4372 74.2784C53.7584 68.2232 55.6378 60.7531 61.57 59.5229C64.7617 58.8395 68.0969 60.4525 70.2839 62.865C72.4709 65.2776 73.7009 68.3871 74.7329 71.4763C77.6307 80.2448 86.2149 131.052 68.0627 129.124C50.8606 127.293 52.8836 84.653 53.4372 74.2784Z" fill="#A5A2FF" stroke="#DCFF06" stroke-width="4.14611" stroke-miterlimit="10"></path><path d="M50.3021 64.8817C54.471 60.4735 60.7315 55.997 66.0555 58.8948C68.9123 60.453 70.4226 63.836 70.5319 67.096C70.6413 70.356 69.5751 73.5204 68.3518 76.5412C64.8799 85.091 38.5333 129.371 25.9786 116.181C14.0321 103.619 43.167 72.4269 50.3021 64.8817Z" fill="#A5A2FF" stroke="#DCFF06" stroke-width="4.14611" stroke-miterlimit="10"></path></svg>