<svg xmlns="http://www.w3.org/2000/svg" id="c" viewBox="0 0 768 150"><path d="m617.08,88.99c-1.71,0-3.43,0-5.14,0-.39,0-.77-.05-1.15-.12-.43-.07-.86-.19-1.27-.33-.52-.18-1.02-.41-1.5-.7-.37-.22-.72-.46-1.05-.73-.2-.16-.38-.35-.57-.52-.5-.46-.91-1-1.26-1.58-.39-.63-.68-1.31-.89-2.03-.12-.42-.2-.84-.26-1.27-.03-.17-.04-.35-.04-.53,0-.29,0-.58,0-.87,0-.44.07-.87.16-1.3.1-.49.25-.96.43-1.42.25-.63.58-1.21.97-1.76.34-.48.75-.91,1.18-1.3.24-.22.51-.41.77-.62.31-.24.65-.44,1.01-.61.5-.25,1.01-.47,1.56-.6.37-.09.74-.16,1.12-.24.14-.03.29-.04.44-.04,1.74-.08,3.48-.02,5.22-.03,1.74,0,3.48,0,5.22,0,.36,0,.73.04,1.09.09.53.07,1.04.2,1.54.37.56.19,1.1.44,1.6.76.47.29.91.63,1.32,1,.51.46.94.98,1.32,1.56.46.7.81,1.45,1.03,2.26.13.46.22.92.26,1.39.02.27.06.53.06.8,0,.41-.03.83-.09,1.24-.07.51-.18,1.01-.35,1.49-.22.63-.5,1.23-.86,1.8-.42.68-.95,1.26-1.54,1.8-.4.36-.84.66-1.3.94-.59.34-1.21.61-1.87.8-.4.11-.8.19-1.21.25-.41.06-.82.06-1.23.06-1.58,0-3.15,0-4.73,0h0Zm.02-13.62h0c-1.56,0-3.13,0-4.69,0-.29,0-.57.01-.85.06-.48.08-.94.23-1.38.44-.43.2-.82.46-1.19.77-.26.22-.5.47-.71.73-.27.33-.48.69-.66,1.07-.33.68-.48,1.41-.51,2.16,0,.17.03.35.03.53,0,.38.09.75.2,1.1.33,1.09.95,2,1.86,2.7.28.22.58.41.9.56.31.14.63.26.96.36.43.13.88.19,1.33.19,3.08,0,6.17,0,9.25,0,.31,0,.62-.02.94-.07.49-.08.96-.21,1.4-.42.77-.36,1.42-.86,1.95-1.53.46-.58.79-1.22.98-1.94.09-.36.16-.72.18-1.09.02-.38,0-.76-.06-1.14-.08-.5-.22-.98-.44-1.43-.18-.36-.39-.71-.64-1.03-.34-.43-.74-.8-1.19-1.12-.28-.2-.58-.35-.88-.49-.16-.08-.34-.12-.51-.18-.09-.03-.18-.05-.27-.08-.34-.11-.68-.17-1.04-.17-1.64,0-3.29,0-4.93,0Z" style="fill:#bfbfbf; stroke-width:0px;"></path><path d="m631.9,80.7c0-2.67,0-5.35,0-8.02q0-.28.27-.28c4.61,0,9.21,0,13.82,0,.77,0,1.52.17,2.23.5.48.22.92.5,1.33.83.52.43.94.95,1.28,1.54.26.46.45.94.57,1.46.07.29.13.59.13.89,0,.14.03.28.03.42-.02.77-.16,1.52-.48,2.24-.22.5-.51.96-.86,1.37-.61.72-1.36,1.26-2.24,1.6-.4.16-.81.28-1.23.33-.33.04-.67.05-1,.06-.39,0-.78,0-1.17,0-.01,0-.03,0-.04.01,0,.01.01.03.03.04.17.15.35.3.52.44.24.2.48.4.72.6.26.22.52.44.79.66.24.2.47.4.7.59.25.21.51.42.76.63.23.19.46.39.69.58.26.22.52.44.79.66.24.2.48.4.72.6.19.16.38.31.56.47.02.01.02.04.04.05-.02,0-.04.02-.06.02-.04,0-.08,0-.12,0-1.43,0-2.85,0-4.28,0-.12,0-.21-.03-.31-.11-.3-.27-.6-.52-.9-.78-.22-.19-.43-.39-.65-.58-.21-.18-.43-.36-.64-.54-.19-.16-.38-.33-.57-.49-.25-.22-.5-.43-.74-.65-.32-.29-.65-.57-.97-.86-.3-.26-.61-.52-.91-.78-.3-.26-.61-.53-.91-.8-.21-.19-.43-.37-.65-.55-.11-.09-.22-.19-.32-.28-.31-.27-.61-.54-.92-.81-.19-.17-.39-.33-.59-.49-.19-.16-.38-.33-.56-.49-.02-.02-.03-.05-.03-.07,0,0,.04-.02.06-.02.04,0,.08,0,.12,0,2.31,0,4.62,0,6.94,0,.51,0,1.02,0,1.53.02.34.01.67,0,1-.09.73-.19,1.3-.61,1.67-1.28.18-.32.28-.67.32-1.03.07-.62-.08-1.18-.39-1.69-.22-.37-.53-.66-.91-.88-.31-.17-.63-.29-.97-.34-.05,0-.1,0-.15,0-3.52,0-7.05,0-10.57,0-.01,0-.02,0-.03,0-.15,0-.15,0-.15.15,0,.05,0,.09,0,.14,0,4.36,0,8.71,0,13.07,0,.29.02.26-.26.26-.91,0-1.83,0-2.74,0-.03,0-.07,0-.1,0-.15,0-.15,0-.15-.16,0-.05,0-.09,0-.14v-8.01Z" style="fill:#bfbfbf; stroke-width:0px;"></path><path d="m723.19,82.18c-2.21,0-4.42,0-6.63,0-.22,0-.23,0-.16.21.22.64.54,1.22.98,1.75.38.45.82.82,1.31,1.13.53.33,1.11.55,1.73.67.39.08.78.11,1.17.11,3.73,0,7.46,0,11.18,0,.07,0,.15.01.22.02-.03.07-.05.14-.09.21-.23.37-.47.74-.71,1.11-.32.5-.65.99-.97,1.49-.06.09-.13.12-.24.12-.86,0-1.71,0-2.57,0-2.47,0-4.93,0-7.4,0-.47,0-.93-.05-1.39-.15-.3-.06-.6-.12-.89-.22-.37-.13-.73-.28-1.09-.44-.28-.13-.55-.28-.81-.44-.22-.14-.44-.28-.64-.45-.29-.23-.57-.47-.83-.73-.22-.22-.42-.47-.62-.7-.35-.41-.63-.87-.88-1.35-.36-.68-.61-1.41-.76-2.16-.07-.35-.11-.71-.14-1.06-.03-.29-.03-.57-.02-.85.01-.3.05-.6.09-.9.05-.44.15-.86.29-1.28.08-.27.18-.53.29-.79.21-.53.5-1.01.81-1.48.16-.24.35-.47.54-.7.15-.18.32-.36.49-.52.54-.51,1.14-.96,1.79-1.33.49-.27,1-.49,1.54-.66.42-.13.84-.23,1.28-.29.52-.07,1.04-.1,1.57-.1,3.64,0,7.27,0,10.91,0,.07,0,.14.02.21.03-.03.06-.06.13-.1.19-.29.46-.58.91-.88,1.37-.24.38-.5.75-.74,1.13-.2.31-.13.27-.5.27-3.12,0-6.23,0-9.35,0-.31,0-.62.06-.92.14-.24.06-.48.12-.71.21-.53.22-1.03.48-1.47.86-.13.11-.26.23-.38.34-.27.26-.49.55-.7.86-.26.38-.45.79-.6,1.22-.08.24-.11.23.16.23,3.96,0,7.91,0,11.87,0,1.08,0,2.17,0,3.25,0,.06,0,.11.01.17.02-.03.05-.05.1-.08.15-.46.72-.92,1.44-1.38,2.16-.12.19-.24.37-.36.56-.04.06-.08.09-.15.07-.06-.01-.13,0-.19,0-2.17,0-4.34,0-6.51,0Z" style="fill:#bfbfbf; stroke-width:0px;"></path><path d="m663.92,83.14c1.35,0,2.71,0,4.06,0,.06,0,.11-.01.17-.02-.02-.05-.04-.1-.07-.15-.33-.52-.66-1.04-.98-1.56-.37-.6-.75-1.2-1.12-1.8-.38-.61-.76-1.22-1.14-1.82-.36-.58-.71-1.15-1.07-1.73-.08-.12-.08-.12-.16,0-.12.19-.24.38-.35.56-.16.26-.32.52-.49.78-.4.63-.79,1.26-1.19,1.89-.27.43-.55.86-.83,1.29-.21.34-.42.68-.63,1.01-.14.23-.29.46-.44.69-.39.62-.79,1.24-1.18,1.86-.37.59-.74,1.18-1.11,1.76-.19.3-.39.6-.58.9-.21.34-.42.68-.63,1.01-.22.35-.44.7-.66,1.05-.04.06-.09.1-.17.09-.03,0-.06,0-.09,0-1.14,0-2.27,0-3.41,0-.06,0-.11-.01-.17-.02.02-.05.04-.11.07-.16.4-.62.79-1.25,1.19-1.87.15-.24.31-.48.46-.72.21-.33.42-.66.63-.99.15-.24.31-.48.46-.72.21-.33.42-.66.63-.99.15-.24.31-.48.46-.72.21-.33.42-.66.63-.99.15-.24.31-.48.46-.72.21-.33.42-.66.63-.99.15-.24.31-.48.46-.72.21-.33.42-.66.63-.99.15-.24.31-.48.46-.72.21-.33.42-.66.63-.99.15-.24.31-.48.46-.72.21-.33.42-.66.63-.99.15-.23.3-.46.45-.69.22-.34.44-.69.67-1.03.31-.45.73-.74,1.25-.9.42-.13.83-.13,1.25-.05.41.08.78.27,1.1.57.22.2.37.44.53.69.25.39.5.79.75,1.18.44.69.88,1.37,1.32,2.06.23.36.47.73.7,1.09.44.69.88,1.37,1.32,2.06.23.36.47.73.7,1.09.44.69.88,1.37,1.32,2.06.23.36.47.73.7,1.09.44.69.88,1.37,1.32,2.06.23.36.47.73.7,1.09.33.52.67,1.03,1,1.55,0,.01.02.03.03.04.02.04.02.07-.03.07-.04,0-.08,0-.12,0-1.14,0-2.28,0-3.43,0-.13,0-.22-.04-.29-.16-.29-.51-.6-1.01-.91-1.51-.23-.39-.47-.77-.71-1.16-.04-.06-.08-.09-.15-.09-.05,0-.09,0-.14,0-2.73,0-5.46,0-8.19,0-.14,0-.23-.03-.31-.15-.19-.32-.4-.62-.6-.93-.13-.2-.27-.4-.4-.61-.25-.39-.5-.78-.74-1.16-.05-.08-.05-.09.05-.09.04,0,.08,0,.12,0,1.35,0,2.69,0,4.04,0Z" style="fill:#bfbfbf; stroke-width:0px;"></path><path d="m686.97,88.99c-1.64,0-3.28,0-4.92,0-.5,0-.99-.07-1.47-.19-.31-.08-.63-.15-.94-.25-.23-.07-.46-.18-.68-.28-.62-.29-1.22-.62-1.74-1.07-.17-.15-.34-.3-.51-.45-.57-.5-1.03-1.1-1.43-1.73-.18-.28-.31-.59-.46-.89-.17-.33-.27-.67-.39-1.02-.12-.38-.2-.77-.26-1.16-.07-.48-.12-.96-.1-1.44.01-.4.05-.79.12-1.18.09-.52.23-1.03.41-1.53.25-.69.61-1.32,1.03-1.92.28-.4.59-.77.94-1.1.44-.42.92-.8,1.44-1.12.59-.37,1.22-.66,1.89-.87.42-.13.86-.23,1.3-.29.5-.07,1.01-.1,1.51-.1,3.64,0,7.27,0,10.91,0,.08,0,.16.02.23.02.02.1-.06.16-.1.23-.2.32-.41.63-.61.94-.23.36-.46.72-.69,1.08-.12.19-.24.38-.36.58-.05.09-.12.13-.23.12-.05,0-.1,0-.15,0-3.09,0-6.19,0-9.28,0-.61,0-1.2.13-1.76.35-.56.22-1.08.52-1.53.92-.42.37-.8.78-1.09,1.26-.3.51-.53,1.04-.66,1.62-.07.34-.12.68-.13,1.03-.02.61.06,1.2.25,1.78.19.57.46,1.1.82,1.58.22.29.47.56.74.8.46.4.98.72,1.55.95.41.16.83.27,1.27.33.17.03.34.04.51.04,3.83,0,7.66,0,11.49,0,.08,0,.16.01.23.02-.04.07-.06.15-.11.22-.44.69-.88,1.37-1.32,2.05-.11.17-.23.34-.33.52-.06.1-.14.13-.25.13-1.12,0-2.25,0-3.37,0h-1.76Z" style="fill:#bfbfbf; stroke-width:0px;"></path><path d="m695.58,80c0-2.46,0-4.92,0-7.37,0-.25-.02-.23.23-.23.92,0,1.84,0,2.76,0,.02,0,.05,0,.07,0,.16,0,.16,0,.17.16,0,.05,0,.09,0,.14,0,4.36,0,8.72,0,13.09,0,.3-.03.27.26.27,4.8,0,9.59,0,14.39,0,.06,0,.13,0,.19,0,.04,0,.06.03.04.07-.02.04-.06.08-.09.13-.22.33-.43.67-.65,1.01-.12.19-.24.38-.36.56-.22.34-.45.69-.67,1.03-.07.1-.14.14-.26.14-4.85,0-9.69,0-14.54,0-.4,0-.73-.17-1.02-.42-.23-.2-.38-.44-.45-.73-.04-.16-.07-.34-.07-.5,0-2.45,0-4.89,0-7.34Z" style="fill:#bfbfbf; stroke-width:0px;"></path><path d="m113.83,72.44v-2.31c.4-.74,1.01-.71,1.64-.71,4.47.01,8.95,0,13.42,0h6c.26.76.52,1.5.83,2.4.46-.84.84-1.56,1.25-2.32h20.79v3.61h-2.27c-13.11,0-26.23,0-39.34-.01-.79,0-1.73.35-2.32-.67Z" style="fill:#bfbfbf; stroke-width:0px;"></path><path d="m63.78,59.22v-3.55h39.17c.49,1.04,1.06,2.16,1.11,3.55h-40.29Z" style="fill:#bfbfbf; stroke-width:0px;"></path><path d="m104.21,90.27c-.4,1.24-.76,2.38-1.14,3.55h-39.27c-.13-1.11-.02-2.29-.06-3.55h40.48Z" style="fill:#bfbfbf; stroke-width:0px;"></path><path d="m63.78,52.36v-3.69h2.28c8.4,0,16.81.02,25.21-.01,2.51-.01,4.66.95,6.76,2.11.64.35,1.2.84,1.78,1.26-.01.09,0,.16-.03.19-.04.06-.11.13-.17.13-11.87,0-23.75,0-35.84,0Z" style="fill:#bfbfbf; stroke-width:0px;"></path><path d="m63.79,100.81v-3.61h36.3c-1.91,1.58-3.85,2.5-5.96,3.18-.94.3-1.85.44-2.82.44-8.48-.01-16.96,0-25.45,0h-2.07Z" style="fill:#bfbfbf; stroke-width:0px;"></path><path d="m70.74,79.4v-2.55c.37-.16.76-.45,1.16-.47,1.15-.07,2.31-.02,3.47-.02h23.88c.97,1.01,1.97,2.06,2.96,3.11.04.04,0,.15,0,.23-.03.07-.04.14-.08.2-.04.06-.11.15-.16.15-10.09,0-20.19,0-30.28,0-.14,0-.28-.06-.41-.12-.07-.03-.11-.1-.17-.16-.11-.11-.22-.22-.37-.37Z" style="fill:#bfbfbf; stroke-width:0px;"></path><path d="m70.74,72.28v-2.38c.4-.16.78-.41,1.19-.45.76-.07,1.54-.02,2.31-.02h27.84c-.34,1.67-1.82,2.42-2.84,3.69h-2.18c-8.09,0-16.18,0-24.27,0-.73,0-1.6.33-2.06-.83Z" style="fill:#bfbfbf; stroke-width:0px;"></path><path d="m60.46,48.75v3.54h-25.39c-.13-1.09-.02-2.28-.06-3.54h25.46Z" style="fill:#bfbfbf; stroke-width:0px;"></path><path d="m35.06,59.21v-3.55h25.39c.12,1.1.02,2.29.06,3.55h-25.45Z" style="fill:#bfbfbf; stroke-width:0px;"></path><path d="m35.06,93.81v-3.53h25.4v3.53h-25.4Z" style="fill:#bfbfbf; stroke-width:0px;"></path><path d="m60.45,97.19v3.55h-25.39c-.12-1.1-.02-2.29-.06-3.55h25.45Z" style="fill:#bfbfbf; stroke-width:0px;"></path><path d="m140.27,59.23c.46-1.28.88-2.46,1.3-3.6h23.1v3.6h-24.4Z" style="fill:#bfbfbf; stroke-width:0px;"></path><path d="m129.89,55.66c.51,1.17.92,2.28,1.13,3.56h-24.07v-3.56h22.93Z" style="fill:#bfbfbf; stroke-width:0px;"></path><path d="m106.96,48.67h20.63c-.14,1.29,1.22,2.16,1.01,3.62h-21.63v-3.62Z" style="fill:#bfbfbf; stroke-width:0px;"></path><path d="m164.72,48.74v3.54h-21.77c.38-1.19.74-2.32,1.14-3.54h20.64Z" style="fill:#bfbfbf; stroke-width:0px;"></path><path d="m137.7,66.13c.58-1.36,1.06-2.46,1.53-3.56h18.53c.12,1.11.02,2.3.06,3.56h-20.12Z" style="fill:#bfbfbf; stroke-width:0px;"></path><path d="m114.44,62.57h17.93c.4,1.13.81,2.27,1.25,3.49.03-.07.02,0-.02.04-.05.05-.12.11-.18.11-6.32,0-12.64,0-18.93,0-.97-1.29-.97-2.41-.04-3.64Z" style="fill:#bfbfbf; stroke-width:0px;"></path><path d="m164.72,90.28v3.53h-18.45v-3.53h18.45Z" style="fill:#bfbfbf; stroke-width:0px;"></path><path d="m125.33,90.26v2.86c-.45.95-1.2.76-1.87.76-5.47,0-10.93,0-16.51,0v-3.63h18.38Z" style="fill:#bfbfbf; stroke-width:0px;"></path><path d="m125.34,97.19v2.88c-.44.91-1.18.74-1.86.74-5.01,0-10.01,0-15.02,0h-1.5v-3.62h18.38Z" style="fill:#bfbfbf; stroke-width:0px;"></path><path d="m164.65,100.81c-5.58,0-11.05,0-16.52,0-.67,0-1.41.17-1.86-.74v-2.87h18.38v3.62Z" style="fill:#bfbfbf; stroke-width:0px;"></path><path d="m128.25,79.97c-.41-1.16-.78-2.24-1.23-3.51,3.09-.23,5.99-.07,8.89-.1,2.92-.03,5.85,0,8.88,0-.44,1.26-.85,2.43-1.27,3.62h-15.27Z" style="fill:#bfbfbf; stroke-width:0px;"></path><path d="m104.63,62.59c-.32,1.24-.62,2.38-.92,3.54h-11.18c-.12-1.1-.01-2.28-.06-3.54h12.16Z" style="fill:#bfbfbf; stroke-width:0px;"></path><path d="m103.72,83.34c.3,1.18.59,2.32.9,3.57h-12.04v-3.57h11.14Z" style="fill:#bfbfbf; stroke-width:0px;"></path><path d="m157.77,76.43v3.53h-11.49c-.13-1.08-.02-2.27-.06-3.53h11.55Z" style="fill:#bfbfbf; stroke-width:0px;"></path><path d="m146.27,86.9v-3.55h11.49c.12,1.1.02,2.29.06,3.55h-11.55Z" style="fill:#bfbfbf; stroke-width:0px;"></path><path d="m53.5,83.36v2.95c-.38.64-.95.69-1.6.68-3.23-.03-6.46-.01-9.88-.01-.13-1.17-.02-2.35-.07-3.61h11.55Z" style="fill:#bfbfbf; stroke-width:0px;"></path><path d="m70.48,83.31h11.71v3.5s0,.03-.06.07c-.06.04-.13.08-.19.08-3.53,0-7.06,0-10.53,0-1.29-1-.36-2.35-.92-3.66Z" style="fill:#bfbfbf; stroke-width:0px;"></path><path d="m129.36,83.33h12.7c.01,1.31-.62,2.38-1.05,3.57h-10.11c-.44-1.03-.95-2.2-1.54-3.57Z" style="fill:#bfbfbf; stroke-width:0px;"></path><path d="m53.51,63.08v2.43c-.4.7-.98.7-1.62.7-3.23-.02-6.45,0-9.87,0-.13-1.17-.02-2.35-.07-3.69h3.94c1.31,0,2.62-.07,3.92.02,1.23.08,2.59-.48,3.7.55Z" style="fill:#bfbfbf; stroke-width:0px;"></path><path d="m70.72,65.69v-2.44c.29-.53.75-.75,1.44-.75,3.3.03,6.6.02,10.01.02v3.69c-3.43,0-6.87.02-10.31-.02-.39,0-.78-.33-1.14-.49Z" style="fill:#bfbfbf; stroke-width:0px;"></path><path d="m53.5,69.94v2.49c-.41.76-1.02.71-1.64.7-3.22-.01-6.45,0-9.78,0v-3.69c3.42,0,6.86-.02,10.3.02.39,0,.78.33,1.13.48Z" style="fill:#bfbfbf; stroke-width:0px;"></path><path d="m125.34,83.34v3.13c-.38.16-.77.47-1.17.47-3.07.04-6.15.04-9.22,0-.39,0-.78-.33-1.11-.49v-3.12h11.49Z" style="fill:#bfbfbf; stroke-width:0px;"></path><path d="m53.54,76.75v2.62c-.23.22-.44.44-.64.64h-10.87v-3.64c1.91,0,3.88-.07,5.85.02,1.85.09,3.77-.42,5.66.37Z" style="fill:#bfbfbf; stroke-width:0px;"></path><path d="m125.33,76.36v3.18c-.34.15-.73.48-1.12.48-3.07.04-6.14.04-9.21,0-.39,0-.79-.31-1.17-.47v-2.7c.36-.16.75-.47,1.14-.48,3.43-.04,6.87-.02,10.35-.02Z" style="fill:#bfbfbf; stroke-width:0px;"></path><path d="m139.76,90.28c-.39,1.24-.75,2.38-1.12,3.57h-5.42c-.41-1.14-.84-2.32-1.29-3.57h7.83Z" style="fill:#bfbfbf; stroke-width:0px;"></path><path d="m135.85,101.23c-.54-1.52-.94-2.66-1.4-3.98h2.91c-.45,1.19-.91,2.41-1.51,3.98Z" style="fill:#bfbfbf; stroke-width:0px;"></path><path d="m499.32,106.5c.43-.31.83-.67,1.3-.92,4.95-2.65,9.91-5.27,14.86-7.91,7.08-3.78,14.16-7.57,21.24-11.36,2.18-1.17,4.34-2.37,6.53-3.51.74-.38,1.18-.86,1.35-1.71.63-3.11,1.35-6.21,2.02-9.32.08-.38.01-.8.01-1.31-.5-.04-.95-.1-1.4-.1-3.56-.02-7.11,0-10.67-.07-.97-.02-1.66.28-2.29.98-.76.84-1.59,1.62-2.4,2.4-3.29,3.18-6.59,6.36-9.89,9.53-.7.67-1.46,1.29-2.21,1.92-.13.11-.34.11-.61.05,1.89-2.74,4.28-5.02,6.49-7.46,2.21-2.43,4.49-4.78,6.88-7.31-.56-.04-.94-.1-1.32-.1-6.59-.11-13.19-.22-19.78-.33-5.92-.1-11.84-.21-17.77-.31-6.23-.11-12.46-.21-18.69-.31-5.87-.1-11.74-.21-17.61-.31-6.13-.11-12.26-.2-18.38-.31-4.84-.09-9.68-.19-14.52-.31-.48-.01-.96-.1-1.44-.16-.02-.1-.03-.21-.05-.31.22-.14.43-.38.66-.41.56-.07,1.13-.05,1.7-.05,35.98,0,71.97-.01,107.95.04,1.58,0,2.67-.42,3.48-1.72.16-.26.4-.47.61-.69,3.78-4,7.56-7.99,11.33-12,2.78-2.96,5.55-5.93,8.32-8.9.61-.66,1.21-1.34,1.81-2.01.1.04.19.09.29.13,0,.26.06.54,0,.79-1.18,4.3-2.39,8.6-3.57,12.91-1.02,3.71-2.01,7.42-3.01,11.16.54.46,1.13.29,1.66.29,8.09.01,16.19,0,24.28.01.55,0,1.09.04,1.81.07-.35.78-.94.9-1.41,1.12-5.2,2.5-10.41,4.96-15.6,7.49-4.68,2.28-9.31,4.64-13.98,6.93-.86.42-1.29.98-1.54,1.92-1.84,6.89-3.74,13.76-5.64,20.64-.2.72-.48,1.41-.74,2.15-.75-.33-.45-.79-.38-1.13.84-4.07,1.7-8.13,2.57-12.19.66-3.06,1.33-6.11,2-9.17.02-.08-.06-.18-.11-.32-7.32,3.66-14.61,7.34-21.94,10.96-7.31,3.61-14.5,7.48-21.86,11-.1-.15-.21-.3-.31-.46Zm51.11-52.57c-.46.32-.97.6-1.37.98-3.96,3.81-7.91,7.64-11.86,11.46-.28.28-.54.58-1.03,1.11,3.96,0,7.62.03,11.32-.03.79-3.43,1.54-6.67,2.26-9.92.27-1.2.44-2.41.66-3.62.02-.03.04-.07.06-.1-.02.04-.03.07-.05.11Zm-3.57,26.59c.18.02.34.1.43.05,5.83-3.12,11.66-6.25,17.82-9.56-.98-.16-1.57-.34-2.17-.35-4.12-.05-8.24-.06-12.36-.11-.74,0-1.14.26-1.33.98-.78,2.97-1.58,5.94-2.4,8.98Z" style="fill:#bfbfbf; stroke-width:0px;"></path><path d="m389.4,88.81c.4-1.99.73-3.63,1.06-5.27-.08-.03-.17-.06-.25-.08-.54,1.29-1.07,2.59-1.61,3.88q-.61,1.46-2.26,1.47c-.67,0-1.34.01-2.01,0-1.22-.03-1.27-.09-1.28-1.35-.01-1.38,0-2.76-.14-4.17-.33,1.44-.65,2.89-1.01,4.32-.28,1.14-.31,1.17-1.42,1.2-1.02.03-2.04,0-3.16,0-.04-.49-.15-.84-.09-1.16.73-3.51,1.47-7.02,2.24-10.53.29-1.31.32-1.32,1.6-1.33,1.49-.01,2.99-.02,4.48,0,1.35.02,1.59.29,1.51,1.67-.07,1.23-.17,2.45-.24,3.68-.02.25,0,.51.17.82.64-1.59,1.28-3.17,1.92-4.76.55-1.37.57-1.4,2.01-1.41,1.84-.01,3.68,0,5.58,0,.04.37.11.57.08.75-.7,3.47-1.41,6.93-2.14,10.39-.39,1.88-.41,1.88-2.29,1.88-.81,0-1.62,0-2.75,0Zm1.26-6.3l-.06.11.09.02-.03-.13Z" style="fill:#bfbfbf; stroke-width:0px;"></path><path d="m505.63,75.79c-.45,2.12-.85,3.91-1.22,5.71-.41,1.96-.78,3.92-1.2,5.87-.31,1.43-.34,1.43-1.85,1.44-1.08,0-2.17,0-3.25,0-1.46-.01-1.62-.12-1.79-1.5-.16-1.32-.26-2.65-.38-3.98-.02-.25-.04-.5-.24-.8-.1.24-.24.48-.29.73-.33,1.55-.65,3.11-.94,4.67-.1.53-.3.86-.88.86-1.17,0-2.35,0-3.74,0,.3-1.47.55-2.75.82-4.03.51-2.51,1.01-5.03,1.55-7.53.31-1.44.34-1.43,1.86-1.45,1.08,0,2.17-.01,3.25,0,1.5.01,1.59.14,1.78,1.67.17,1.42.41,2.84.62,4.25.01.08.08.15.15.27.42-1.73.87-3.41,1.22-5.12.17-.82.53-1.13,1.35-1.09.96.05,1.93.01,3.19.01Z" style="fill:#bfbfbf; stroke-width:0px;"></path><path d="m286.88,88.67c.25-1.54.47-2.94.7-4.34-1.53-.21-1.64-.15-1.87,1.09-.15.81-.27,1.62-.4,2.43-.09.58-.36.95-1,.96-1.43,0-2.86,0-4.52,0,.33-1.67.61-3.16.92-4.64.49-2.36.99-4.72,1.49-7.07.24-1.14.37-1.27,1.52-1.29.98-.02,1.96-.02,2.94,0,.34,0,.67.12,1.11.2-.27,1.34-.52,2.58-.8,3.95h1.61c.24-1.05.5-2.09.71-3.13.11-.56.33-1,.97-1,1.38-.02,2.76,0,4.28,0,0,.65.08,1.15-.01,1.61-.67,3.37-1.38,6.73-2.09,10.09-.24,1.15-.38,1.3-1.52,1.29-1.31-.01-2.65.15-4.03-.14Z" style="fill:#bfbfbf; stroke-width:0px;"></path><path d="m345.02,88.6c.2-1.01.37-1.96.57-2.9.61-2.91,1.2-5.81,1.84-8.71.25-1.13.3-1.17,1.43-1.18,1.85-.02,3.71-.04,5.56.02.76.03,1.54.19,2.26.44,1.9.64,3.03,2.51,2.87,4.76-.27,3.82-2.68,6.74-6.15,7.59-.4.1-.81.18-1.21.19-2.06.02-4.12.02-6.18.01-.29,0-.58-.12-.98-.21Zm5.98-3.39c1.06.34,1.75,0,2.03-.81.4-1.14.65-2.34.9-3.53.07-.32,0-.75-.17-1.03-.16-.26-.54-.54-.81-.53-.25,0-.65.34-.72.6-.45,1.72-.82,3.47-1.24,5.29Z" style="fill:#bfbfbf; stroke-width:0px;"></path><path d="m428.41,88.81c.17-.98.26-1.63.4-2.27.69-3.15,1.39-6.29,2.11-9.43.3-1.29.32-1.3,1.64-1.31,2.16-.01,4.32,0,6.48,0,.15,0,.31-.01.46.01,1.16.22,2.43.32,2.92,1.64.49,1.31-.2,3.3-1.35,4.15-.25.18-.53.31-.91.53.91,1.02,1.19,2.16.85,3.5-.17.68-.09,1.43-.08,2.14,0,.69-.25,1.05-.99,1.04-1.13-.02-2.26-.01-3.39,0-.66,0-.94-.35-.9-.96.05-.76.15-1.52.23-2.28.1-.95-.01-1.06-1.28-1.27-.25,1.14-.54,2.27-.73,3.42-.14.82-.56,1.13-1.36,1.11-1.27-.03-2.54,0-4.09,0Zm6.99-7.97c.71.29,1.18.11,1.54-.4.27-.38.29-.8-.13-1.05-.41-.24-.9-.31-1.12.29-.13.36-.18.74-.28,1.16Z" style="fill:#bfbfbf; stroke-width:0px;"></path><path d="m264.02,80.15c.9-1.28,1.66-2.29,2.32-3.35.46-.74,1.03-1.08,1.9-1.02,1.32.1,2.65-.16,4.13.19-.18.4-.27.74-.46,1-1.01,1.35-2,2.73-3.11,4.01-.64.74-.67,1.4-.35,2.24.47,1.25.87,2.52,1.29,3.78.16.48.28.96.48,1.67-.67.05-1.2.12-1.74.13-.93.02-1.85-.03-2.78.02-.82.04-1.22-.33-1.43-1.08-.31-1.13-.68-2.24-1.26-3.36-.24,1.03-.48,2.06-.74,3.09-.34,1.33-.35,1.34-1.75,1.34-1.16,0-2.33-.01-3.67-.03.33-1.62.6-3.01.89-4.4.5-2.46,1.01-4.91,1.52-7.37.23-1.12.29-1.19,1.39-1.22,1.22-.03,2.45,0,3.71,0,.43,1.49-.4,2.72-.36,4.36Z" style="fill:#bfbfbf; stroke-width:0px;"></path><path d="m221.28,75.69c.77.08,1.56.05,2.29.25,1.88.5,3.22,2.07,3.25,4.05.05,3.32-1.05,6.2-4.04,7.97-2.08,1.23-4.36,1.51-6.7.69-1.83-.64-2.85-2.02-2.9-3.95-.08-3.35.97-6.16,3.95-8.01,1.19-.74,2.12-.95,4.15-1Zm.14,5.2c-.05-.01-.11-.03-.16-.04,0-.26.05-.53-.01-.77-.07-.27-.22-.7-.39-.73-.3-.05-.71.07-.94.27-.26.22-.43.59-.52.92-.31,1.13-.59,2.28-.82,3.43-.1.49-.13,1.06.48,1.32.54.23,1.12-.07,1.39-.87.39-1.15.66-2.35.98-3.53Z" style="fill:#bfbfbf; stroke-width:0px;"></path><path d="m418.15,88.8c-1.78,0-3.26.03-4.74-.03-.27-.01-.63-.34-.76-.61-.2-.4-.23-.87-.35-1.4-.47-.03-.93-.04-1.37-.09-1.1-.13-1.89.15-2.2,1.36-.08.31-.54.72-.84.74-1.42.08-2.84.03-4.55.03.42-.87.68-1.47.99-2.04,1.75-3.31,3.54-6.61,5.26-9.95.38-.74.85-1.06,1.69-1.02,1.49.06,2.99.03,4.48.01.68,0,1.02.24,1.09.97.28,2.8.61,5.6.92,8.4.12,1.11.24,2.22.39,3.64Zm-5.8-5.45v-2.88c-.06-.02-.12-.04-.18-.06-.4.94-.8,1.89-1.24,2.94h1.43Z" style="fill:#bfbfbf; stroke-width:0px;"></path><path d="m315.61,76.06c-.19.88-.37,1.67-.52,2.47-.14.74-.57,1.03-1.3,1.01-.93-.02-1.85-.02-2.78.01-.31.01-.61.17-.92.57.3.1.59.27.9.29.72.05,1.44-.02,2.16.05.78.07.99.37.89,1.11,0,.05-.02.1-.03.15-.41,2.41-.41,2.38-2.95,2.43-.71.01-1.55-.34-2.2.59,1.46.66,2.99-.01,4.46.46.44,1.12-.1,2.16-.4,3.2-.06.2-.6.37-.92.37-2.68.03-5.36.04-8.03,0-1-.01-1.1-.2-.87-1.26.58-2.6,1.17-5.2,1.75-7.8.21-.95.4-1.9.6-2.86.14-.67.44-1.11,1.23-1.1,2.78.03,5.56.02,8.34.04.14,0,.28.11.6.24Z" style="fill:#bfbfbf; stroke-width:0px;"></path><path d="m324,88.81c.58-2.84,1.1-5.39,1.63-7.94.27-1.3.52-2.61.82-3.91.24-1.04.38-1.15,1.48-1.16,2.42-.02,4.84-.02,7.26,0,1.16.01,1.43.28,1.14,1.39-.59,2.28.2,2.39-2.79,2.35-.62,0-1.24-.04-1.85.04-.27.04-.51.34-.76.52.03.12.07.23.1.35.91,0,1.81-.02,2.72,0,1.27.04,1.45.27,1.24,1.47q-.39,2.23-2.68,2.23c-.57,0-1.14-.02-1.69.05-.23.03-.44.29-.59.77,1.54.05,3.08.11,4.82.16-.24,1.12-.44,2.05-.63,2.99-.1.49-.41.68-.88.68-3.02,0-6.05,0-9.34,0Z" style="fill:#bfbfbf; stroke-width:0px;"></path><path d="m243.33,80.94c-.06-.39-.04-.67-.15-.88-.15-.29-.37-.69-.61-.73-.28-.05-.67.19-.91.41-.24.24-.42.6-.51.93-.3,1.14-.55,2.29-.82,3.44-.12.5-.03.96.47,1.16.49.2,1.03.01,1.18-.45.41-1.19,1.32-1.08,2.25-1.06.92.02,1.84,0,2.96,0-.04.52,0,.92-.12,1.25-.67,1.82-2.04,2.95-3.83,3.54-1.52.5-3.07.68-4.7.3-2.66-.63-3.5-2.04-3.6-4.5-.07-1.82.42-3.66,1.42-5.28,1.12-1.83,2.83-2.86,4.86-3.23,1.24-.22,2.57-.18,3.83-.03,2.19.26,3.41,1.99,3.16,4.15-.08.68-.38,1.04-1.07,1.05-.88.01-1.75.02-2.63,0-.35,0-.7-.06-1.2-.11Z" style="fill:#bfbfbf; stroke-width:0px;"></path><path d="m455.69,79.89c-.69-.03-1.2-.04-1.7-.08-.99-.07-1.18-.28-.96-1.27.73-3.18.13-2.73,3.24-2.75,2.37-.02,4.74,0,7.11,0,.5,0,1,.06,1.61.09-.11.75-.16,1.34-.28,1.93-.36,1.87-.37,1.9-2.35,1.99-.74.03-1.13.31-1.28,1.03-.4,1.96-.83,3.91-1.26,5.86-.08.35-.2.7-.23,1.05-.08.85-.54,1.11-1.35,1.08-1.37-.04-2.75-.01-4.28-.01.34-3.1,1.3-5.86,1.73-8.92Z" style="fill:#bfbfbf; stroke-width:0px;"></path><path d="m201.82,75.79c-.68,3.21-1.29,6.09-1.94,9.18h4.19c.37,1.31-.09,2.36-.41,3.4-.05.18-.39.39-.6.39-3.02.03-6.05.02-9.27.02.25-1.33.44-2.47.68-3.6.56-2.66,1.14-5.31,1.7-7.96.28-1.32.36-1.42,1.71-1.43,1.22-.01,2.44,0,3.94,0Z" style="fill:#bfbfbf; stroke-width:0px;"></path><path d="m481.03,75.87c-.22,1.26-.37,2.31-.59,3.35-.57,2.76-1.17,5.51-1.75,8.26-.27,1.28-.28,1.31-1.61,1.32-1.27.01-2.54,0-3.98,0,.44-2.23.81-4.23,1.22-6.23.39-1.91.82-3.8,1.2-5.71.1-.48.2-.97.76-1.01,1.52-.11,3.05-.1,4.74.02Z" style="fill:#bfbfbf; stroke-width:0px;"></path></svg>