<svg xmlns="http://www.w3.org/2000/svg" id="Layer_1" viewBox="0 0 768 150"><defs><style>.cls-1{fill:#fff;stroke-width:0px;}</style></defs><path class="cls-1" d="m44.45,85.46c-1.94,0-3.87,0-5.81,0-.44,0-.87-.06-1.3-.13-.49-.08-.97-.21-1.44-.37-.59-.21-1.16-.47-1.7-.79-.41-.25-.81-.52-1.19-.82-.23-.18-.43-.39-.64-.59-.57-.52-1.03-1.14-1.43-1.79-.44-.72-.77-1.49-1-2.29-.14-.47-.23-.95-.3-1.43-.03-.2-.04-.4-.05-.59,0-.33,0-.66,0-.99,0-.5.08-.98.18-1.47.11-.55.28-1.09.49-1.6.28-.71.66-1.37,1.1-1.99.39-.54.84-1.02,1.33-1.47.27-.25.58-.47.87-.7.35-.27.74-.49,1.14-.69.56-.28,1.14-.54,1.76-.68.42-.1.84-.18,1.26-.27.16-.03.33-.04.5-.05,1.97-.09,3.93-.03,5.9-.04,1.97-.01,3.94,0,5.9,0,.41,0,.82.05,1.23.11.6.08,1.17.23,1.74.42.64.22,1.24.5,1.81.86.53.33,1.02.71,1.49,1.13.58.52,1.07,1.11,1.49,1.76.52.79.91,1.64,1.17,2.55.15.52.25,1.04.3,1.57.03.3.07.6.07.9,0,.47-.04.93-.1,1.4-.08.58-.21,1.14-.39,1.69-.24.72-.57,1.39-.97,2.03-.48.77-1.08,1.43-1.74,2.03-.45.41-.95.75-1.47,1.06-.67.39-1.37.69-2.11.9-.45.13-.91.22-1.37.29-.46.07-.92.07-1.39.07-1.78,0-3.56,0-5.34,0h0Zm.02-15.39h0c-1.77,0-3.54,0-5.3,0-.32,0-.64.02-.96.07-.54.09-1.06.26-1.56.49-.49.23-.93.52-1.34.87-.3.25-.56.53-.81.83-.3.37-.54.78-.75,1.21-.37.77-.54,1.59-.58,2.44,0,.2.03.4.03.6,0,.43.1.84.23,1.25.38,1.24,1.07,2.26,2.1,3.05.32.25.65.46,1.01.63.35.16.71.3,1.08.41.49.15.99.22,1.5.22,3.48,0,6.97,0,10.45,0,.35,0,.71-.02,1.06-.07.55-.09,1.08-.24,1.59-.48.87-.4,1.61-.98,2.2-1.72.52-.65.9-1.38,1.11-2.19.11-.41.18-.82.2-1.23.02-.43,0-.86-.07-1.29-.1-.56-.25-1.1-.5-1.62-.2-.41-.44-.8-.72-1.16-.39-.49-.84-.9-1.34-1.27-.31-.22-.65-.39-1-.55-.18-.08-.38-.14-.58-.2-.1-.03-.21-.06-.31-.09-.38-.12-.77-.19-1.17-.19-1.86,0-3.72,0-5.58,0Z"></path><path class="cls-1" d="m61.2,76.08c0-3.02,0-6.05,0-9.07q0-.31.3-.31c5.21,0,10.42,0,15.62,0,.88,0,1.72.2,2.53.56.55.25,1.04.56,1.5.94.59.49,1.06,1.08,1.45,1.74.3.52.51,1.07.65,1.65.08.33.15.66.15,1.01,0,.16.04.32.03.48-.02.88-.18,1.72-.54,2.53-.25.57-.57,1.08-.97,1.55-.69.81-1.54,1.42-2.53,1.81-.45.18-.92.31-1.4.37-.37.05-.76.06-1.13.06-.44,0-.88,0-1.32,0-.02,0-.03.01-.05.02,0,.02.02.04.03.05.2.17.39.33.59.5.27.23.54.45.82.68.3.25.59.49.89.74.27.22.53.45.8.67.29.24.57.48.86.72.26.22.52.44.78.66.3.25.59.49.89.74.27.23.54.46.81.68.21.18.43.35.64.53.02.02.03.04.04.06-.02,0-.04.03-.06.03-.04,0-.09,0-.14,0-1.61,0-3.23,0-4.84,0-.14,0-.24-.03-.35-.13-.33-.3-.68-.59-1.02-.88-.25-.21-.49-.44-.74-.65-.24-.21-.48-.41-.72-.61-.21-.18-.43-.37-.64-.56-.28-.25-.56-.49-.84-.74-.37-.32-.73-.65-1.1-.97-.34-.29-.69-.58-1.02-.88-.34-.3-.68-.6-1.03-.9-.24-.21-.49-.42-.73-.63-.12-.1-.24-.21-.36-.32-.35-.31-.69-.62-1.04-.92-.22-.19-.44-.37-.66-.56-.22-.18-.43-.37-.64-.56-.02-.02-.03-.05-.03-.08,0,0,.04-.03.06-.03.04,0,.09,0,.14,0,2.61,0,5.23,0,7.84,0,.58,0,1.15,0,1.73.02.38.01.76,0,1.13-.1.83-.22,1.47-.7,1.89-1.45.2-.37.31-.75.36-1.17.08-.7-.09-1.33-.45-1.91-.25-.41-.6-.75-1.03-.99-.35-.2-.71-.32-1.1-.39-.06,0-.12,0-.17,0-3.98,0-7.96,0-11.94,0-.01,0-.03,0-.04,0-.17,0-.17,0-.18.17,0,.05,0,.1,0,.15,0,4.92,0,9.85,0,14.77,0,.32.03.29-.29.29-1.03,0-2.07,0-3.1,0-.04,0-.08,0-.12,0-.17,0-.17,0-.18-.18,0-.05,0-.1,0-.15v-9.05Z"></path><path class="cls-1" d="m164.39,77.77c-2.5,0-4.99,0-7.49,0-.25,0-.26,0-.18.24.25.73.62,1.38,1.11,1.97.42.51.92.93,1.49,1.28.6.37,1.26.62,1.95.76.44.09.88.12,1.32.12,4.21,0,8.43,0,12.64,0,.08,0,.16.01.25.02-.04.08-.06.16-.11.24-.26.42-.53.84-.8,1.25-.36.56-.73,1.12-1.09,1.68-.07.11-.15.14-.27.14-.97,0-1.94,0-2.9,0-2.79,0-5.58,0-8.36,0-.53,0-1.05-.06-1.57-.17-.34-.07-.68-.14-1.01-.25-.42-.14-.83-.32-1.23-.5-.31-.15-.62-.32-.91-.5-.25-.15-.5-.32-.73-.5-.33-.26-.65-.53-.94-.82-.25-.25-.47-.53-.7-.8-.39-.47-.71-.99-.99-1.53-.4-.77-.69-1.59-.86-2.45-.08-.4-.12-.8-.16-1.2-.03-.32-.04-.64-.02-.96.01-.34.06-.68.1-1.01.06-.49.17-.97.32-1.45.1-.3.21-.59.32-.89.24-.6.56-1.14.92-1.67.19-.28.4-.53.62-.79.17-.21.36-.41.55-.59.61-.58,1.28-1.09,2.03-1.5.56-.31,1.14-.55,1.74-.74.47-.15.95-.26,1.45-.33.59-.08,1.18-.11,1.77-.11,4.11,0,8.22,0,12.33,0,.08,0,.16.02.24.03-.04.07-.07.15-.12.21-.33.52-.66,1.03-.99,1.54-.28.43-.56.85-.84,1.28-.22.35-.15.3-.57.3-3.52,0-7.05,0-10.57,0-.35,0-.7.07-1.04.15-.27.07-.54.13-.81.24-.6.24-1.17.55-1.66.98-.15.13-.29.26-.43.39-.3.29-.56.62-.79.97-.29.43-.51.89-.68,1.38-.09.27-.12.26.18.26,4.47,0,8.94,0,13.42,0,1.23,0,2.45,0,3.68,0,.06,0,.13.01.19.02-.03.06-.05.11-.09.17-.52.81-1.04,1.63-1.56,2.44-.14.21-.27.42-.41.63-.04.07-.09.1-.17.08-.07-.01-.14,0-.21,0-2.45,0-4.9,0-7.36,0Z"></path><path class="cls-1" d="m97.39,78.84c1.53,0,3.06,0,4.59,0,.06,0,.13-.01.19-.02-.03-.06-.05-.12-.08-.17-.37-.59-.74-1.17-1.11-1.76-.42-.68-.84-1.35-1.27-2.03-.43-.69-.86-1.37-1.29-2.06-.4-.65-.81-1.3-1.21-1.95-.09-.14-.09-.14-.18,0-.13.21-.27.43-.4.64-.18.29-.37.59-.55.88-.45.71-.9,1.43-1.35,2.14-.31.49-.63.97-.94,1.46-.24.38-.48.76-.72,1.15-.16.26-.33.52-.49.78-.45.7-.89,1.4-1.34,2.1-.42.66-.83,1.33-1.25,1.99-.22.34-.44.68-.66,1.02-.24.38-.48.76-.72,1.15-.25.4-.5.79-.75,1.19-.05.07-.11.11-.19.1-.03,0-.06,0-.1,0-1.28,0-2.57,0-3.85,0-.06,0-.13-.01-.19-.02.03-.06.05-.13.08-.18.45-.71.9-1.41,1.35-2.12.17-.27.35-.54.52-.81.24-.37.48-.75.72-1.12.17-.27.35-.54.52-.81.24-.37.48-.75.72-1.12.17-.27.35-.54.52-.81.24-.37.48-.75.72-1.12.17-.27.35-.54.52-.81.24-.37.48-.75.72-1.12.17-.27.35-.54.52-.81.24-.37.48-.75.72-1.12.17-.27.35-.54.52-.81.24-.37.48-.75.72-1.12.17-.27.35-.54.52-.81.24-.37.48-.75.72-1.12.17-.26.34-.52.5-.78.25-.39.49-.78.76-1.17.35-.5.82-.83,1.41-1.01.47-.15.94-.15,1.41-.06.47.09.88.31,1.24.64.25.23.42.5.6.78.29.44.57.89.85,1.33.5.78.99,1.55,1.49,2.33.26.41.53.82.8,1.23.5.77.99,1.55,1.49,2.33.26.41.53.82.8,1.23.5.77.99,1.55,1.49,2.33.26.41.53.82.8,1.23.5.77.99,1.55,1.49,2.33.26.41.53.82.8,1.23.38.58.75,1.17,1.13,1.75.01.02.02.03.03.05.02.04.02.08-.04.08-.04,0-.09,0-.14,0-1.29,0-2.58,0-3.87,0-.15,0-.24-.04-.33-.18-.33-.57-.68-1.14-1.02-1.7-.27-.44-.53-.87-.8-1.31-.04-.07-.09-.11-.17-.1-.05,0-.1,0-.15,0-3.08,0-6.17,0-9.25,0-.16,0-.26-.03-.35-.17-.21-.36-.45-.7-.67-1.05-.15-.23-.31-.46-.46-.69-.28-.44-.56-.88-.84-1.32-.06-.09-.05-.1.06-.1.05,0,.09,0,.14,0,1.52,0,3.05,0,4.57,0Z"></path><path class="cls-1" d="m123.45,85.46c-1.85,0-3.7,0-5.56,0-.56,0-1.12-.08-1.66-.21-.36-.09-.71-.17-1.06-.29-.26-.08-.52-.2-.76-.32-.7-.33-1.38-.7-1.97-1.21-.2-.17-.39-.34-.58-.51-.65-.56-1.16-1.24-1.62-1.96-.2-.32-.35-.67-.53-1.01-.19-.37-.31-.76-.44-1.15-.14-.43-.23-.87-.3-1.31-.08-.54-.13-1.08-.11-1.63.02-.45.06-.89.13-1.34.1-.59.26-1.17.47-1.73.28-.78.69-1.5,1.16-2.17.32-.45.67-.86,1.06-1.24.5-.48,1.04-.9,1.62-1.27.67-.42,1.38-.74,2.14-.98.48-.15.97-.26,1.47-.33.57-.08,1.14-.11,1.71-.11,4.11,0,8.22,0,12.33,0,.09,0,.18.02.26.03.03.11-.06.18-.11.25-.22.36-.46.71-.69,1.07-.26.41-.52.82-.78,1.22-.14.22-.28.43-.41.65-.06.1-.14.15-.26.14-.06,0-.12,0-.17,0-3.5,0-6.99,0-10.49,0-.69,0-1.35.15-1.99.4-.64.25-1.22.59-1.73,1.04-.48.41-.9.88-1.23,1.43-.34.57-.6,1.18-.75,1.83-.08.38-.14.77-.15,1.16-.02.69.07,1.36.28,2.01.21.65.52,1.25.93,1.79.25.33.53.63.84.9.52.46,1.11.82,1.75,1.07.46.18.94.3,1.43.38.19.03.38.05.58.05,4.33,0,8.66,0,12.99,0,.09,0,.18.02.26.02-.04.08-.07.17-.12.25-.5.77-1,1.55-1.5,2.32-.13.19-.25.39-.37.59-.07.11-.15.15-.28.15-1.27,0-2.54,0-3.81,0h-1.99Z"></path><path class="cls-1" d="m133.18,75.3c0-2.78,0-5.56,0-8.33,0-.28-.02-.27.26-.27,1.04,0,2.08,0,3.12,0,.03,0,.05,0,.08,0,.18,0,.19,0,.19.18,0,.05,0,.1,0,.15,0,4.93,0,9.86,0,14.79,0,.34-.04.3.3.3,5.42,0,10.84,0,16.26,0,.07,0,.14,0,.21,0,.05,0,.07.04.04.08-.03.05-.07.09-.1.14-.24.38-.49.76-.73,1.14-.14.21-.27.43-.4.64-.25.39-.51.78-.75,1.17-.07.12-.16.16-.3.16-5.48,0-10.96,0-16.44,0-.45,0-.82-.19-1.15-.47-.26-.22-.43-.5-.51-.82-.05-.18-.08-.38-.08-.57,0-2.77,0-5.53,0-8.3Z"></path><path class="cls-1" d="m308.3,72.72v-2.11c.37-.68.92-.65,1.5-.64,4.09.01,8.17,0,12.26,0h5.48c.24.69.48,1.37.76,2.19.42-.77.77-1.42,1.14-2.11h18.99v3.3h-2.08c-11.97,0-23.95,0-35.92-.01-.73,0-1.58.32-2.12-.61Z"></path><path class="cls-1" d="m262.59,60.64v-3.24h35.77c.45.95.97,1.98,1.02,3.24h-36.79Z"></path><path class="cls-1" d="m299.51,89c-.36,1.14-.69,2.17-1.04,3.25h-35.86c-.11-1.01-.02-2.09-.06-3.25h36.96Z"></path><path class="cls-1" d="m262.59,54.38v-3.37h2.09c7.68,0,15.35.02,23.03-.01,2.29-.01,4.25.87,6.17,1.93.58.32,1.1.77,1.63,1.15-.01.08,0,.14-.03.18-.04.05-.1.12-.16.12-10.84,0-21.69,0-32.72,0Z"></path><path class="cls-1" d="m262.59,98.62v-3.3h33.15c-1.75,1.45-3.52,2.29-5.44,2.9-.86.27-1.69.4-2.58.4-7.75-.01-15.49,0-23.24,0h-1.89Z"></path><path class="cls-1" d="m268.94,79.07v-2.33c.34-.15.69-.41,1.06-.43,1.05-.06,2.11-.02,3.16-.02h21.8c.88.92,1.8,1.88,2.7,2.84.04.04,0,.14,0,.21-.02.06-.04.13-.07.18-.04.06-.1.14-.15.14-9.22,0-18.43,0-27.65,0-.13,0-.26-.06-.38-.11-.06-.03-.1-.09-.15-.14-.1-.1-.2-.2-.34-.34Z"></path><path class="cls-1" d="m268.95,72.57v-2.17c.36-.14.72-.38,1.09-.41.7-.07,1.41-.02,2.11-.02h25.43c-.31,1.53-1.66,2.21-2.59,3.37h-1.99c-7.39,0-14.78,0-22.16,0-.67,0-1.46.3-1.88-.76Z"></path><path class="cls-1" d="m259.55,51.08v3.23h-23.19c-.11-1-.02-2.08-.06-3.23h23.25Z"></path><path class="cls-1" d="m236.36,60.63v-3.24h23.19c.11,1.01.02,2.09.06,3.24h-23.24Z"></path><path class="cls-1" d="m236.36,92.23v-3.23h23.19v3.23h-23.19Z"></path><path class="cls-1" d="m259.55,95.32v3.24h-23.19c-.11-1.01-.02-2.09-.06-3.24h23.24Z"></path><path class="cls-1" d="m332.44,60.65c.42-1.17.81-2.25,1.18-3.29h21.1v3.29h-22.28Z"></path><path class="cls-1" d="m322.96,57.39c.46,1.06.84,2.08,1.04,3.25h-21.98v-3.25h20.94Z"></path><path class="cls-1" d="m302.01,51.01h18.84c-.13,1.18,1.12,1.98.92,3.31h-19.76v-3.31Z"></path><path class="cls-1" d="m354.76,51.07v3.23h-19.88c.35-1.09.68-2.12,1.04-3.23h18.84Z"></path><path class="cls-1" d="m330.09,66.95c.53-1.24.97-2.25,1.4-3.25h16.92c.11,1.01.02,2.1.06,3.25h-18.38Z"></path><path class="cls-1" d="m308.84,63.7h16.38c.37,1.03.74,2.07,1.14,3.18.03-.06.02,0-.02.04-.05.04-.11.1-.17.1-5.77,0-11.54,0-17.29,0-.88-1.17-.88-2.2-.04-3.32Z"></path><path class="cls-1" d="m354.77,89v3.22h-16.85v-3.22h16.85Z"></path><path class="cls-1" d="m318.8,88.99v2.62c-.41.87-1.09.69-1.71.69-4.99,0-9.99,0-15.08,0v-3.31h16.79Z"></path><path class="cls-1" d="m318.8,95.32v2.63c-.4.83-1.08.68-1.69.68-4.57,0-9.14,0-13.72,0h-1.37v-3.31h16.78Z"></path><path class="cls-1" d="m354.7,98.62c-5.1,0-10.09,0-15.09,0-.62,0-1.29.16-1.7-.68v-2.62h16.78v3.3Z"></path><path class="cls-1" d="m321.46,79.59c-.37-1.06-.72-2.04-1.12-3.2,2.82-.21,5.47-.07,8.11-.09,2.67-.03,5.34,0,8.11,0-.4,1.15-.78,2.22-1.16,3.3h-13.95Z"></path><path class="cls-1" d="m299.89,63.72c-.29,1.13-.57,2.18-.84,3.24h-10.21c-.11-1-.01-2.08-.06-3.24h11.11Z"></path><path class="cls-1" d="m299.06,82.67c.27,1.08.54,2.12.83,3.26h-11v-3.26h10.17Z"></path><path class="cls-1" d="m348.42,76.36v3.23h-10.49c-.11-.99-.01-2.07-.06-3.23h10.55Z"></path><path class="cls-1" d="m337.92,85.92v-3.24h10.49c.11,1,.02,2.09.06,3.24h-10.55Z"></path><path class="cls-1" d="m253.2,82.68v2.69c-.35.59-.87.63-1.46.62-2.95-.02-5.9-.01-9.02-.01-.12-1.06-.02-2.15-.06-3.3h10.55Z"></path><path class="cls-1" d="m268.71,82.64h10.69v3.2s0,.02-.06.06c-.05.04-.12.08-.18.08-3.23,0-6.45,0-9.62,0-1.18-.91-.33-2.14-.84-3.34Z"></path><path class="cls-1" d="m322.47,82.66h11.6c0,1.2-.57,2.17-.95,3.26h-9.24c-.41-.94-.87-2-1.41-3.26Z"></path><path class="cls-1" d="m253.21,64.17v2.22c-.36.64-.9.64-1.48.64-2.95-.02-5.89,0-9.01,0-.12-1.06-.02-2.15-.07-3.37h3.6c1.19,0,2.39-.06,3.58.02,1.13.08,2.36-.44,3.38.5Z"></path><path class="cls-1" d="m268.92,66.55v-2.23c.27-.48.69-.69,1.32-.68,3.01.03,6.03.01,9.14.01v3.37c-3.13,0-6.27.02-9.41-.02-.36,0-.71-.3-1.04-.45Z"></path><path class="cls-1" d="m253.2,70.43v2.27c-.37.7-.94.64-1.5.64-2.94,0-5.89,0-8.93,0v-3.37c3.13,0,6.27-.02,9.41.02.36,0,.71.3,1.03.44Z"></path><path class="cls-1" d="m318.8,82.67v2.86c-.35.15-.71.43-1.07.43-2.81.04-5.61.04-8.42,0-.36,0-.71-.3-1.01-.44v-2.85h10.5Z"></path><path class="cls-1" d="m253.24,76.65v2.39c-.21.21-.4.4-.58.58h-9.93v-3.33c1.74,0,3.55-.07,5.34.02,1.69.08,3.44-.38,5.17.34Z"></path><path class="cls-1" d="m318.79,76.29v2.91c-.31.14-.66.44-1.02.44-2.8.04-5.6.04-8.41,0-.36,0-.72-.28-1.07-.43v-2.47c.33-.15.69-.43,1.04-.44,3.14-.04,6.27-.02,9.45-.02Z"></path><path class="cls-1" d="m331.97,89.01c-.36,1.13-.68,2.17-1.03,3.26h-4.95c-.38-1.04-.76-2.12-1.17-3.26h7.15Z"></path><path class="cls-1" d="m328.4,99.01c-.49-1.39-.86-2.43-1.28-3.63h2.66c-.41,1.09-.83,2.2-1.38,3.63Z"></path><path class="cls-1" d="m669.48,100.5c.38-.27.73-.59,1.13-.81,4.32-2.31,8.65-4.6,12.97-6.91,6.19-3.3,12.37-6.61,18.55-9.92,1.9-1.02,3.79-2.07,5.7-3.07.64-.34,1.03-.75,1.18-1.5.55-2.72,1.18-5.42,1.76-8.14.07-.33,0-.7,0-1.15-.44-.03-.83-.09-1.22-.09-3.11-.02-6.21,0-9.32-.06-.85-.02-1.45.25-2,.86-.66.73-1.38,1.41-2.1,2.1-2.88,2.78-5.75,5.55-8.64,8.32-.62.59-1.28,1.13-1.93,1.68-.11.09-.3.1-.53.04,1.65-2.39,3.74-4.39,5.67-6.51,1.93-2.12,3.92-4.18,6.01-6.39-.49-.04-.82-.08-1.15-.09-5.76-.1-11.51-.19-17.27-.29-5.17-.09-10.34-.18-15.51-.27-5.44-.09-10.88-.18-16.32-.27-5.13-.09-10.25-.18-15.38-.27-5.35-.09-10.7-.18-16.05-.27-4.23-.08-8.45-.17-12.68-.27-.42,0-.84-.09-1.26-.14-.01-.09-.03-.18-.04-.27.19-.12.37-.33.58-.36.49-.06.99-.04,1.48-.04,31.42,0,62.85-.01,94.27.03,1.38,0,2.34-.37,3.04-1.5.14-.23.35-.41.53-.6,3.3-3.49,6.6-6.98,9.9-10.47,2.43-2.58,4.85-5.18,7.26-7.77.54-.58,1.06-1.17,1.58-1.75.08.04.17.07.25.11,0,.23.05.47,0,.69-1.03,3.76-2.09,7.51-3.12,11.27-.89,3.24-1.75,6.48-2.63,9.74.47.41.98.25,1.45.25,7.07.01,14.14,0,21.2.01.48,0,.95.03,1.58.06-.31.68-.82.78-1.23.98-4.54,2.18-9.09,4.33-13.62,6.54-4.08,1.99-8.13,4.05-12.21,6.05-.75.37-1.13.86-1.35,1.68-1.61,6.02-3.27,12.02-4.92,18.02-.17.63-.42,1.23-.64,1.88-.65-.29-.39-.69-.33-.99.74-3.55,1.49-7.1,2.25-10.64.57-2.67,1.17-5.33,1.74-8,.02-.07-.05-.16-.09-.28-6.39,3.19-12.76,6.41-19.16,9.57-6.39,3.15-12.66,6.53-19.09,9.61-.09-.13-.18-.27-.27-.4Zm44.63-45.9c-.4.28-.84.52-1.19.86-3.46,3.33-6.91,6.67-10.36,10.01-.25.24-.47.51-.9.97,3.46,0,6.66.02,9.89-.02.69-3,1.35-5.82,1.98-8.66.23-1.04.39-2.11.58-3.16.02-.03.03-.06.05-.09-.02.03-.03.06-.05.1Zm-3.11,23.22c.16.02.3.09.38.04,5.09-2.72,10.18-5.46,15.56-8.35-.86-.14-1.38-.3-1.89-.31-3.6-.05-7.2-.05-10.79-.09-.64,0-1,.23-1.16.85-.68,2.6-1.38,5.19-2.09,7.85Z"></path><path class="cls-1" d="m573.48,85.06c.35-1.74.64-3.17.93-4.6-.07-.02-.15-.05-.22-.07-.47,1.13-.94,2.26-1.41,3.39q-.54,1.28-1.97,1.28c-.59,0-1.17.01-1.76,0-1.06-.03-1.11-.07-1.12-1.18-.01-1.21,0-2.41-.12-3.64-.29,1.26-.57,2.52-.88,3.78-.24,1-.27,1.02-1.24,1.05-.89.02-1.78,0-2.76,0-.04-.43-.13-.74-.07-1.01.64-3.07,1.29-6.13,1.95-9.19.25-1.15.28-1.15,1.4-1.16,1.31-.01,2.61-.02,3.92,0,1.18.01,1.39.25,1.32,1.46-.06,1.07-.15,2.14-.21,3.21-.01.22,0,.44.15.71.56-1.38,1.12-2.77,1.67-4.15.48-1.2.49-1.22,1.75-1.23,1.61,0,3.22,0,4.87,0,.04.32.1.5.07.65-.61,3.03-1.23,6.05-1.86,9.08-.34,1.64-.36,1.64-2,1.64-.71,0-1.41,0-2.4,0Zm1.1-5.5l-.05.1h.08s-.02-.1-.02-.1Z"></path><path class="cls-1" d="m674.98,73.69c-.4,1.85-.74,3.41-1.07,4.98-.36,1.71-.68,3.42-1.05,5.13-.27,1.25-.3,1.24-1.62,1.25-.95,0-1.89,0-2.84,0-1.27,0-1.41-.11-1.56-1.31-.14-1.15-.23-2.31-.33-3.47-.02-.22-.04-.44-.21-.7-.09.21-.21.42-.25.64-.29,1.36-.57,2.72-.82,4.08-.08.46-.26.75-.77.75-1.03,0-2.05,0-3.27,0,.26-1.29.48-2.4.71-3.52.45-2.19.88-4.39,1.35-6.58.27-1.25.3-1.25,1.62-1.26.95,0,1.89,0,2.84,0,1.31.01,1.39.12,1.55,1.46.15,1.24.35,2.48.54,3.71.01.07.07.13.13.24.37-1.51.76-2.98,1.06-4.47.14-.71.46-.99,1.18-.95.84.04,1.69,0,2.78,0Z"></path><path class="cls-1" d="m483.96,84.93c.22-1.35.41-2.57.61-3.79-1.34-.18-1.43-.13-1.64.95-.13.7-.24,1.41-.35,2.12-.08.5-.32.83-.87.84-1.25,0-2.5,0-3.95,0,.29-1.46.53-2.76.8-4.05.43-2.06.86-4.12,1.3-6.18.21-1,.33-1.11,1.33-1.13.85-.02,1.71-.02,2.57,0,.3,0,.59.1.97.17-.24,1.17-.45,2.26-.7,3.45h1.41c.21-.92.43-1.82.62-2.74.1-.49.29-.87.84-.88,1.2-.02,2.41,0,3.74,0,0,.57.07,1-.01,1.41-.59,2.94-1.21,5.87-1.82,8.81-.21,1-.33,1.14-1.32,1.13-1.15-.01-2.31.13-3.52-.12Z"></path><path class="cls-1" d="m534.73,84.87c.17-.89.33-1.71.5-2.53.53-2.54,1.05-5.08,1.6-7.61.22-.99.27-1.02,1.25-1.03,1.62-.02,3.24-.04,4.85.02.66.02,1.34.17,1.97.38,1.66.56,2.65,2.2,2.51,4.16-.23,3.33-2.34,5.88-5.37,6.63-.35.08-.71.16-1.06.16-1.8.02-3.6.02-5.39,0-.25,0-.5-.1-.86-.18Zm5.22-2.96c.93.3,1.53,0,1.78-.7.35-1,.57-2.05.79-3.08.06-.28,0-.65-.15-.9-.14-.23-.47-.47-.71-.46-.22,0-.57.3-.63.52-.39,1.51-.72,3.03-1.08,4.62Z"></path><path class="cls-1" d="m607.55,85.06c.15-.86.23-1.42.35-1.98.61-2.75,1.21-5.5,1.84-8.24.26-1.13.28-1.14,1.43-1.15,1.89-.01,3.77,0,5.66,0,.13,0,.27-.01.4.01,1.01.19,2.12.28,2.55,1.43.43,1.14-.17,2.88-1.18,3.62-.21.16-.46.27-.79.46.79.89,1.04,1.89.74,3.05-.15.59-.08,1.25-.07,1.87,0,.6-.22.92-.86.91-.99-.02-1.98-.01-2.96,0-.58,0-.82-.31-.79-.84.05-.67.13-1.33.2-1.99.08-.83,0-.92-1.12-1.11-.21.99-.47,1.98-.63,2.99-.12.72-.49.98-1.19.97-1.11-.03-2.22,0-3.57,0Zm6.11-6.96c.62.25,1.03.1,1.34-.35.23-.33.25-.7-.12-.92-.36-.21-.79-.27-.98.25-.12.31-.16.65-.25,1.01Z"></path><path class="cls-1" d="m464,77.5c.78-1.12,1.45-2,2.03-2.93.4-.65.9-.94,1.66-.89,1.15.08,2.32-.14,3.6.17-.16.35-.23.65-.4.87-.89,1.18-1.75,2.39-2.72,3.5-.56.64-.58,1.22-.31,1.96.41,1.09.76,2.2,1.13,3.3.14.42.24.84.42,1.46-.59.04-1.05.1-1.52.11-.81.02-1.62-.03-2.43.01-.71.04-1.07-.29-1.25-.94-.27-.98-.59-1.96-1.1-2.94-.21.9-.42,1.8-.64,2.7-.29,1.16-.3,1.17-1.53,1.17-1.02,0-2.03-.01-3.2-.02.28-1.41.52-2.63.77-3.84.44-2.15.88-4.29,1.33-6.43.2-.98.25-1.04,1.21-1.06,1.07-.02,2.14,0,3.24,0,.38,1.3-.35,2.38-.32,3.81Z"></path><path class="cls-1" d="m426.67,73.6c.67.07,1.36.04,2,.22,1.64.44,2.81,1.81,2.84,3.53.04,2.9-.91,5.42-3.53,6.96-1.81,1.07-3.81,1.32-5.85.6-1.6-.56-2.49-1.76-2.53-3.45-.07-2.92.85-5.38,3.45-7,1.04-.65,1.85-.83,3.63-.88Zm.12,4.54s-.1-.03-.14-.04c0-.22.04-.46-.01-.67-.06-.24-.19-.61-.34-.63-.26-.05-.62.06-.82.23-.22.19-.38.51-.46.81-.27.99-.51,1.99-.72,2.99-.09.43-.12.93.42,1.15.47.2.97-.06,1.21-.76.34-1.01.58-2.05.86-3.08Z"></path><path class="cls-1" d="m598.59,85.05c-1.56,0-2.85.03-4.14-.02-.23,0-.55-.29-.66-.53-.17-.35-.2-.76-.31-1.23-.41-.03-.81-.04-1.2-.08-.96-.12-1.65.13-1.92,1.19-.07.27-.47.63-.74.64-1.24.07-2.48.03-3.97.03.37-.76.6-1.28.86-1.78,1.53-2.89,3.09-5.78,4.59-8.68.34-.65.74-.92,1.47-.9,1.3.05,2.61.03,3.92.01.6,0,.89.21.95.84.24,2.45.53,4.89.8,7.33.11.97.21,1.94.34,3.18Zm-5.06-4.76v-2.52c-.05-.02-.11-.03-.16-.05-.35.83-.7,1.65-1.09,2.57h1.24Z"></path><path class="cls-1" d="m509.05,73.93c-.16.77-.32,1.46-.45,2.16-.12.64-.49.9-1.13.89-.81-.02-1.62-.02-2.43.01-.27.01-.53.15-.8.5.26.09.52.24.78.26.63.04,1.26-.01,1.89.04.68.06.86.32.78.97,0,.04-.02.09-.03.13-.36,2.11-.36,2.08-2.58,2.12-.62.01-1.36-.3-1.92.52,1.28.57,2.61-.01,3.89.4.39.97-.08,1.89-.35,2.79-.05.18-.52.32-.8.33-2.34.03-4.68.03-7.01,0-.87,0-.96-.17-.76-1.1.5-2.27,1.02-4.54,1.53-6.81.18-.83.35-1.66.52-2.49.12-.58.38-.97,1.07-.96,2.43.02,4.86.02,7.28.03.12,0,.24.09.52.21Z"></path><path class="cls-1" d="m516.37,85.06c.51-2.48.96-4.71,1.42-6.93.23-1.14.45-2.28.72-3.41.21-.91.33-1.01,1.29-1.01,2.11-.02,4.23-.02,6.34,0,1.01,0,1.25.25,1,1.22-.51,1.99.18,2.08-2.43,2.06-.54,0-1.09-.04-1.62.03-.24.03-.44.29-.66.45.03.1.06.2.09.3.79,0,1.58-.02,2.38,0,1.11.03,1.26.24,1.08,1.28q-.34,1.94-2.34,1.95c-.49,0-.99-.02-1.48.05-.2.03-.38.26-.52.67,1.35.05,2.69.09,4.21.14-.21.98-.38,1.79-.55,2.61-.09.43-.36.59-.77.59-2.64,0-5.28,0-8.15,0Z"></path><path class="cls-1" d="m445.93,78.19c-.05-.34-.04-.58-.13-.77-.13-.25-.32-.6-.53-.64-.24-.04-.59.16-.79.36-.21.21-.37.52-.44.82-.26.99-.48,2-.72,3-.1.44-.03.84.41,1.02.43.18.9,0,1.03-.39.35-1.03,1.15-.94,1.97-.93.8.02,1.61,0,2.59,0-.04.45,0,.8-.1,1.09-.59,1.59-1.78,2.58-3.34,3.09-1.33.43-2.68.6-4.11.26-2.33-.55-3.06-1.78-3.15-3.93-.06-1.59.37-3.19,1.24-4.61.98-1.6,2.47-2.5,4.25-2.82,1.08-.19,2.24-.15,3.34-.02,1.91.23,2.98,1.73,2.76,3.63-.07.59-.33.91-.93.92-.76,0-1.53.02-2.29,0-.31,0-.61-.05-1.05-.09Z"></path><path class="cls-1" d="m631.37,77.27c-.61-.03-1.05-.04-1.49-.07-.86-.06-1.03-.24-.83-1.11.64-2.78.11-2.38,2.83-2.4,2.07-.02,4.14,0,6.21,0,.43,0,.87.05,1.4.08-.09.65-.14,1.17-.24,1.69-.32,1.63-.32,1.66-2.05,1.73-.65.03-.99.27-1.12.9-.35,1.71-.73,3.41-1.1,5.12-.07.31-.17.61-.2.92-.07.74-.47.97-1.18.94-1.2-.04-2.4-.01-3.74-.01.3-2.71,1.14-5.12,1.51-7.79Z"></path><path class="cls-1" d="m409.68,73.69c-.59,2.8-1.12,5.32-1.7,8.02h3.66c.32,1.15-.08,2.06-.36,2.97-.05.16-.34.34-.52.34-2.64.02-5.28.02-8.1.02.22-1.16.39-2.16.6-3.14.49-2.32,1-4.63,1.49-6.95.24-1.16.32-1.24,1.49-1.25,1.07-.01,2.14,0,3.44,0Z"></path><path class="cls-1" d="m653.5,73.76c-.19,1.1-.33,2.02-.51,2.92-.5,2.41-1.02,4.81-1.53,7.22-.24,1.12-.25,1.14-1.4,1.16-1.11.01-2.21,0-3.47,0,.38-1.95.71-3.7,1.06-5.44.34-1.66.71-3.32,1.05-4.99.09-.42.18-.85.67-.88,1.33-.09,2.66-.09,4.14.02Z"></path></svg>