<svg xmlns="http://www.w3.org/2000/svg" id="a" viewBox="0 0 507.45 161.73"><path d="m107.85.01c.17.09.33.23.51.26.45.07.91.12,1.36.13,2.89.06,5.7.69,8.48,1.39,2.4.61,4.78,1.31,7.11,2.16,2.16.79,4.21,1.76,6.06,3.13,2.49,1.86,4.48,4.16,6.06,6.84,1.67,2.83,2.79,5.89,3.58,9.07.91,3.68,1.41,7.43,1.65,11.21.18,2.8.54,5.58.98,8.35.55,3.41,1.1,6.82,1.39,10.27.07.84.27,1.67.5,2.49.51,1.81,1.69,3.06,3.39,3.82.65.29,1.34.52,2.01.77.43.16.87.29,1.28.48,1.19.55,1.97,1.46,2.35,2.72.25.83.28,1.68.11,2.52-.28,1.38-1.15,2.3-2.39,2.91-.77.38-1.6.58-2.44.67-2.69.3-5.02-.45-6.98-2.35-1.09-1.06-1.98-2.26-2.69-3.59-1.9-3.53-3.34-7.23-3.94-11.2-.28-1.87-.38-3.76-.5-5.65-.25-3.91-.55-7.81-1.18-11.68-.44-2.7-.98-5.39-1.83-8-.71-2.18-1.57-4.29-2.73-6.26-1.06-1.81-2.35-3.45-3.94-4.83-1.55-1.34-3.32-2.3-5.19-3.1-2.9-1.24-5.96-1.91-9.08-2.3-1.55-.19-3.13-.17-4.69-.04-1.11.09-2.19.38-3.19.88-1.1.54-1.6,1.77-1.25,2.99.13.47.43.8.81,1.07.54.38,1.15.59,1.79.77.41.11.66.41.69.85.03.32.06.65.04.97-.21,3.37-1.08,6.55-2.86,9.45-.07.11-.13.23-.2.34-.92,1.43-1.08,1.2.5,2.36,6.97,5.12,12.74,11.36,17.25,18.75,2.94,4.81,5.22,9.91,6.85,15.31.85,2.82,1.49,5.68,1.97,8.57.32,1.93.54,3.87.65,5.83.15,2.93.18,5.86.02,8.8-.19,3.46-.66,6.88-1.36,10.27-1.42,6.89-3.88,13.39-7.46,19.46-2.53,4.29-5.53,8.22-8.98,11.81-4.46,4.63-9.42,8.64-14.94,11.94-5.35,3.19-11.04,5.57-17.12,7.03-4.92,1.18-9.89,1.72-14.93,1.71-2.35,0-4.69-.15-7.03-.47-1.29-.18-2.59-.29-3.88-.46-3.89-.53-7.67-1.52-11.35-2.88-8.77-3.23-16.41-8.24-23.02-14.81-5.27-5.24-9.56-11.19-12.9-17.84-2.48-4.92-4.34-10.05-5.54-15.42-.75-3.38-1.31-6.79-1.45-10.25-.03-.85-.11-1.69-.16-2.54-.02-.33-.05-.65-.03-.98.16-2.93.23-5.87.71-8.77.21-1.29.42-2.57.64-3.86.98-5.82,2.74-11.41,5.3-16.73,3.1-6.47,7.23-12.22,12.28-17.32,4.52-4.57,9.52-8.52,15.13-11.68,3.24-1.83,6.63-3.35,10.15-4.57,2.53-.87,5.11-1.58,7.73-2.09,5.6-1.1,11.24-1.54,16.94-1.14,1.69.12,3.39.12,5.07.42.31.06.66.04.97-.02.53-.09.99-.35,1.27-.83.2-.33.35-.7.5-1.06.75-1.81,1.48-3.62,2.24-5.42.2-.48.42-.96.71-1.39.68-1,1.64-1.5,2.86-1.26.9.18,1.79.31,2.72.25.95-.06,1.78-.39,2.48-1.02.39-.35.75-.72,1.12-1.1.32-.33.63-.67.92-1.02,1.53-1.83,3.5-2.9,5.79-3.42,1.78-.4,3.57-.78,5.37-1.09,1.02-.17,2.08-.17,3.12-.25.39-.03.79-.04,1.09-.34h2.74,0Zm-6.48,69.72c0-1.89-.11-3.64-.43-5.38-1.15-6.3-4.25-11.43-9.2-15.45-3.46-2.81-7.41-4.57-11.77-5.44-2.65-.53-5.32-.59-7.99-.28-3.39.4-6.62,1.41-9.64,3.04-1.61.87-3.28,1.59-5.02,2.16-3.61,1.17-7.3,1.32-11.02.76-1.35-.2-2.68-.55-4.02-.82-2.36-.48-4.73-.97-7.15-1.06-2.38-.09-4.69.18-6.88,1.14-4.08,1.79-7.2,4.66-9.36,8.55-1.78,3.2-2.6,6.67-2.6,10.32,0,1.23.18,2.47.37,3.69.55,3.55,1.89,6.77,4.15,9.58.37.46.77.89,1.17,1.32.31.33.61.34,1.04.07.22-.14.43-.3.65-.44,1.28-.79,2.57-1.55,3.95-2.15,1.5-.66,3.07-1.07,4.69-1.33.12-.02.25.05.38.07-.08.16-.12.38-.25.48-.62.47-1.28.9-1.91,1.36-2.9,2.13-5.59,4.49-7.86,7.3-1.03,1.27-1.92,2.64-2.59,4.13-1.13,2.54-1.72,5.2-1.43,8,.21,2.02.72,3.98,1.57,5.83,1.97,4.25,4.99,7.61,8.85,10.22,2.6,1.76,5.33,3.28,8.15,4.65,3.29,1.6,6.68,2.93,10.22,3.88,2.9.78,5.85,1.29,8.85,1.56,4.26.37,8.48.12,12.66-.71,5.47-1.08,10.66-2.99,15.56-5.68,4.57-2.51,8.55-5.73,11.77-9.85,1.45-1.85,2.8-3.78,3.72-5.95,1.12-2.64,1.53-5.36,1.01-8.22-.46-2.57-1.56-4.82-3.16-6.85-1.05-1.34-2.26-2.52-3.59-3.59-1.79-1.43-3.75-2.59-5.79-3.63-1.34-.68-2.7-1.3-4.05-1.96-.29-.14-.55-.34-.81-.52-.04-.03-.09-.13-.07-.17.05-.11.12-.29.2-.3.71-.08,1.42-.17,2.13-.2,3.51-.13,6.88.44,10.07,1.95.71.33,1.4.7,2.1,1.04.2.1.57,0,.69-.18.79-1.21,1.35-2.53,1.73-3.92.65-2.34.85-4.74.92-7.03h-.01Z" style="fill:#7592a7; stroke-width:0px;"></path><path d="m296.98,101.01c.1,7.03.18,13.38.27,19.73,0,.36-.03.73-.06,1.09-.12,1.18-.82,2-2.07,2.24-1.31.25-2.64.49-3.98.56-2.1.11-3.79-.79-5.02-2.49-.43-.59-.8-1.23-1.19-1.84-3.5-5.44-6.98-10.89-10.5-16.32-.46-.71-.86-1.48-1.62-1.96-.26-.16-.88-.24-1.03-.05-.14.18-.31.37-.36.59-.08.35-.08.73-.08,1.09-.01.85-.01,1.71-.01,2.56v12.82c0,.98-.02,1.95-.1,2.93-.1,1.26-.81,2.05-2,2.28-.48.09-.96.21-1.45.21-1.83,0-3.66.2-5.48-.19-1.04-.22-1.82-.8-1.96-1.9-.16-1.33-.27-2.67-.28-4.01-.03-5.74,0-11.48-.01-17.21,0-5.74-.04-11.48-.02-17.21,0-.97.12-1.95.32-2.89.24-1.15.99-1.9,2.13-2.3,2.56-.88,5.06-.58,7.54.28,1.04.36,1.94,1.01,2.72,1.82,1.03,1.07,1.82,2.29,2.51,3.59,2.41,4.53,5.33,8.75,8.16,13.02.26.4.6.76.96,1.07.13.11.44.05.67.02.09-.01.22-.13.24-.22.1-.47.23-.95.23-1.43.03-3.91.03-7.81.04-11.72,0-1.22-.02-2.44.05-3.66.03-.47.22-.95.43-1.38.32-.69.87-1.19,1.63-1.36.83-.19,1.68-.43,2.52-.41,1.58.05,3.16.24,4.73.43.96.12,1.52.81,1.69,1.7.18.95.28,1.93.3,2.9.06,3.17.07,6.35.08,9.52.01,2.93,0,5.86,0,8.1h0Z" style="fill:#7592a7; stroke-width:0px;"></path><path d="m255.47,102.16c-.06,7.76-3.54,14.41-10.49,19.15-4.71,3.21-9.96,4.37-15.65,3.66-9.15-1.13-17.6-8.23-19.86-18.06-2.06-8.97.64-16.65,7.51-22.74,4.9-4.34,10.72-5.95,17.25-5.59,8.47.47,18.07,6.89,20.64,17.46.44,1.79.53,3.61.6,6.11h0Zm-22.76,11.17c.72-.1,1.85-.12,2.87-.44,4.95-1.55,8.11-5.46,8.37-10.39.21-4.02-1.21-7.32-4.35-9.95-3.78-3.16-11.46-3.63-16,1.2-3.45,3.67-4.34,9.11-1.79,13.5,2.34,4.02,5.9,5.99,10.9,6.08h0Z" style="fill:#7592a7; stroke-width:0px;"></path><path d="m433.36,94.84c.03-4.81.2-9.94-.17-15.06-.05-.73.34-1.18,1.05-1.22,2.07-.1,4.14-.27,6.22-.25,2.81.02,3.7.92,3.86,3.72.06,1.1.05,2.2.05,3.29v19.41c0,1.59.04,3.17.5,4.71.62,2.09,2.07,3.27,4.12,3.72,1.44.32,2.91.28,4.37.05,2.15-.35,3.88-1.87,4.23-4.01.28-1.68.41-3.4.42-5.1.05-6.35,0-12.7.03-19.04,0-1.58.14-3.17.29-4.74.07-.79.6-1.37,1.36-1.56,2.39-.6,4.8-.9,7.22-.16,1.28.39,2.09,1.31,2.21,2.61.05.48.06.97.06,1.46,0,7.69-.02,15.38-.03,23.07,0,1.1.03,2.2-.03,3.3-.4,6.85-3.7,11.79-10.02,14.5-5.96,2.55-11.92,2.27-17.66-.74-3.84-2.01-6.5-5.12-7.6-9.39-.3-1.17-.46-2.4-.47-3.61-.05-4.88-.02-9.76-.02-14.96h.01Z" style="fill:#7592a7; stroke-width:0px;"></path><path d="m187.08,78.54c7.69.15,13.88,3.22,18.43,9.49.28.39.48.85.64,1.3.34.93,0,2.13-.81,2.6-1.68.98-3.37,1.95-5.11,2.84-1.57.8-3.09.5-4.44-.59-.76-.61-1.44-1.32-2.19-1.94-2.41-1.96-5.15-2.64-8.22-2.13-1.84.3-3.5.96-5.1,1.91-4.97,2.95-6.55,9.01-4.47,14.06,1.75,4.25,5.06,6.43,9.44,7.16,3.48.58,6.48-.61,9.19-2.73.96-.75,1.9-1.52,2.9-2.23.51-.37,1.15-.43,1.75-.2,2.42.91,4.58,2.28,6.62,3.84.38.29.53.79.48,1.32-.08.88-.38,1.68-.92,2.36-4.36,5.49-9.78,9.11-16.98,9.57-1.84.12-3.67-.08-5.46-.44-5.4-1.09-10.23-3.32-13.79-7.68-4.93-6.04-6.71-13-5.03-20.59,1.44-6.51,5.36-11.4,11.16-14.74,3.67-2.12,7.64-3.16,11.9-3.2v.02h.01Z" style="fill:#7592a7; stroke-width:0px;"></path><path d="m346.91,101.03v-17.55c0-.85-.02-1.71.04-2.56.09-1.43,1.1-2.51,2.53-2.67.84-.1,1.7-.09,2.56-.09h12.8c2.07,0,4.14-.01,6.22,0,.61,0,1.23-.02,1.82.1,1.66.34,2.5,1.4,2.51,2.71.02,1.83-.02,3.65-.06,5.48,0,.36-.09.73-.21,1.07-.25.72-.7,1.26-1.47,1.48-.96.27-1.92.22-2.9.17-2.68-.13-5.36-.23-8.04-.31-.85-.03-1.71.01-2.56.08-1.06.08-2.02.95-2.34,2.03-.24.83-.28,1.67-.14,2.53.2,1.25.88,1.95,2.19,2.02,2.07.1,4.14.15,6.21.18,1.34.02,2.68-.03,4.02-.03.49,0,.97.05,1.46.12,1.12.16,2.06,1.05,2.2,2.14.27,2.19.17,4.38-.02,6.57-.09.97-.97,1.87-1.91,1.94-1.46.1-2.92.16-4.38.18-2.56.03-5.12,0-7.68,0-.62,0-1.16.47-1.33,1.06-.44,1.56-.44,3.12-.05,4.69.09.35.7.87,1.06.87,3.78,0,7.56-.02,11.33-.02.85,0,1.71-.01,2.56.05,1.27.09,2.39,1.04,2.45,2.31.1,2.06.09,4.13,0,6.19-.05,1.05-1.12,2.05-2.16,2.22-.72.12-1.45.2-2.18.2-6.7,0-13.41,0-20.11-.03-.73,0-1.46-.04-2.19-.12-1.1-.13-2.06-1.09-2.17-2.16-.08-.73-.11-1.46-.11-2.19v-18.65h.05,0Z" style="fill:#7592a7; stroke-width:0px;"></path><path d="m381.29,101.96v-17.55c0-1.1.04-2.19.13-3.28.09-1.06,1.08-2.07,2.13-2.2.6-.08,1.21-.11,1.82-.11h20.48c.61,0,1.22.04,1.82.13.84.11,1.81,1.09,1.98,1.95.07.36.14.72.14,1.08,0,1.58-.01,3.17-.09,4.75-.03.59-.21,1.2-.42,1.76-.22.58-.67,1.05-1.33,1.13-.84.11-1.69.2-2.54.17-2.31-.07-4.63-.25-6.94-.31-1.34-.04-2.68-.02-4.01.12-1.21.12-1.95.9-2.28,2.08-.23.84-.28,1.67-.1,2.53.22,1.08.89,1.83,1.92,1.88,2.31.12,4.63.18,6.94.23,1.46.03,2.93-.03,4.39.03,1.93.08,2.8.99,2.91,3.01.07,1.34.03,2.68.03,4.02,0,.49-.02.98-.07,1.46-.13,1.27-1.09,2.19-2.43,2.3-.85.07-1.7.07-2.56.07-2.68,0-5.36-.01-8.05,0-.48,0-.99,0-1.44.16-.3.1-.65.4-.76.69-.63,1.64-.69,3.32-.15,5.01.12.36.7.82,1.1.82,3.78,0,7.56-.02,11.34-.02.85,0,1.71,0,2.56.04,1.15.07,2.03.85,2.31,2,.06.24.15.47.15.71.03,1.7.11,3.41.05,5.11-.06,1.69-1.36,2.93-3.06,3.06-.73.06-1.46.06-2.19.06-6.46,0-12.92-.02-19.38-.03-.73,0-1.46-.03-2.18-.13-1.02-.14-2.01-1.19-2.11-2.24-.08-.97-.11-1.95-.11-2.92v-17.57h0Z" style="fill:#7592a7; stroke-width:0px;"></path><path d="m490.17,77.4c5.5.23,10.2,2.15,13.77,6.49.63.76,1.13,1.58,1.45,2.52.26.77.03,1.8-.58,2.34-.27.24-.55.49-.86.68-1.57.94-3.15,1.87-4.73,2.79-.21.12-.44.21-.68.27-.99.25-1.92.19-2.74-.54-.91-.81-1.83-1.6-2.79-2.36-.78-.63-1.73-.92-2.71-1.02-1.41-.15-2.34.63-2.4,2.1-.04.88.22,1.68.79,2.37.87,1.08,1.99,1.79,3.26,2.28,2.05.79,4.08,1.61,6.15,2.35,1.39.5,2.67,1.2,3.88,2.03,3.43,2.37,5.37,5.6,5.46,9.82.03,1.1,0,2.2-.09,3.29-.26,3.22-1.76,5.78-4.22,7.83-.19.16-.39.3-.58.45-4.2,3.14-10.91,4.46-16.01,3.2-2.86-.71-5.6-1.68-7.96-3.54-1.65-1.29-3.08-2.77-4.15-4.58-.19-.31-.35-.64-.5-.97-.38-.86-.13-2.01.56-2.71.17-.17.32-.38.53-.5,1.68-.99,3.35-2,5.07-2.92,1.13-.61,2.49-.38,3.4.48.53.5.98,1.09,1.52,1.57,2.17,1.91,4.71,2.48,7.5,1.92,1.11-.22,2.01-.84,2.75-1.7.45-.53.55-1.46.2-2.05-.51-.86-1.18-1.56-2.1-1.97-.78-.34-1.59-.62-2.39-.91-2.06-.74-4.15-1.43-6.19-2.23-2.41-.94-4.59-2.26-6.41-4.13-2.13-2.2-3.25-4.78-3.36-7.87-.27-7,4.1-12.28,10.46-14.12,1.52-.44,3.08-.76,4.7-.66h0Z" style="fill:#7592a7; stroke-width:0px;"></path><path d="m306.29,78.56c.75-.09,1.35-.22,1.96-.23,2.27-.03,4.05.82,5,2.99.29.67.52,1.36.75,2.06,1.91,5.79,3.8,11.59,5.72,17.38.42,1.27.89,2.53,1.69,3.62.18.25.77.18.93-.14.26-.54.56-1.08.75-1.65,1.88-5.54,3.73-11.1,5.62-16.64.39-1.15.86-2.28,1.35-3.4.24-.55.57-1.08.94-1.57,2.06-2.72,5.3-3.87,9.17-2.51.86.3,1.38.94,1.51,1.89.17,1.24-.03,2.42-.42,3.6-1.76,5.33-3.48,10.67-5.22,16-2.24,6.84-4.55,13.66-6.68,20.53-.8,2.59-2.4,3.9-4.98,4.06-1.82.11-3.66.03-5.49,0-.48,0-.95-.19-1.42-.32-1.12-.32-1.96-1.01-2.47-2.03-.38-.76-.7-1.56-.97-2.37-1.25-3.7-2.47-7.41-3.69-11.11-2.72-8.22-5.42-16.46-8.17-24.67-.39-1.16-.78-2.31-.84-3.54-.04-.86.61-1.7,1.45-1.85.48-.08.96-.16,1.45-.17.73,0,1.46.06,2.05.09h.01Z" style="fill:#7592a7; stroke-width:0px;"></path><path d="m169.41,63.34h-5.06c-.39,0-.79.01-1.17-.05-.67-.12-1.18-.56-1.3-1.28-.03-.19-.06-.38-.07-.58-.03-.59.26-1.03.79-1.19.31-.09.63-.17.94-.22,3.59-.57,7.18-1.1,10.75-1.81,1.49-.3,2.19.41,2.36,1.6.12.83.16,1.68.19,2.52.02.46-.38.9-.82.96-.38.06-.77.09-1.16.1h-5.45v-.04h0Z" style="fill:#7592a7; stroke-width:0px;"></path><path d="m142.25,90.47c-.79-.03-1.75-.14-2.67-.52-.4-.17-.71-.67-.62-1.11.1-.51.21-1.02.36-1.52.85-2.67,1.71-5.32,2.56-7.99.22-.68.39-1.38.61-2.06.1-.31.22-.62.39-.89.3-.46.97-.8,1.53-.53.35.17.68.37.99.6.27.2.41.51.4.85-.02.45-.04.91-.1,1.36-.46,3.29-.93,6.57-1.4,9.86-.04.26-.06.52-.12.77-.16.74-.64,1.14-1.36,1.16h-.58v.02h0Z" style="fill:#7592a7; stroke-width:0px;"></path><path d="m173.4,78.11c-.02.12,0,.27-.06.36-.82,1.17-1.65,2.33-2.49,3.49-.2.27-.61.29-.86.06-1.33-1.24-2.68-2.46-3.99-3.72-1.5-1.44-2.98-2.9-4.47-4.35-.19-.18-.36-.38-.55-.56-.65-.62-.71-1.32-.4-2.13.33-.88,1.37-1.01,1.95-.71.23.12.45.26.66.41,3.32,2.29,6.63,4.57,9.94,6.86.1.07.17.19.26.29h.01Z" style="fill:#7592a7; stroke-width:0px;"></path><path d="m152.11,80.22c-.08-.91-.15-1.82-.23-2.72-.07-.75.27-1.24.92-1.56.12-.06.23-.12.35-.18.52-.24,1.23,0,1.53.5.13.22.25.46.33.7.17.49.32.99.45,1.5.77,3.03,1.54,6.06,2.29,9.09.37,1.5.06,2.05-1.41,2.43-.88.23-1.77.41-2.67.6-.47.1-.71-.1-.76-.63-.14-1.42-.29-2.85-.41-4.28-.16-1.82-.3-3.63-.45-5.45h.06Z" style="fill:#7592a7; stroke-width:0px;"></path><path d="m161.13,42.2c.14.03.42.03.65.13.95.42,1.89.87,2.83,1.32.23.11.3.43.16.67-.54.89-1.08,1.78-1.64,2.66-1.61,2.53-3.23,5.05-4.85,7.57-.14.22-.28.44-.44.65-.41.5-.97.66-1.58.58-.64-.09-1.07-.47-1.23-1.1-.06-.24-.09-.53,0-.76.23-.68.5-1.34.78-2,1.14-2.7,2.29-5.39,3.45-8.09.1-.24.22-.47.34-.7.3-.57.8-.83,1.54-.92h0Z" style="fill:#7592a7; stroke-width:0px;"></path><path d="m420.6,113.81c3.65-.08,5.41,1.81,5.78,4.82.17,1.37-.13,2.67-.81,3.85-.84,1.45-2.06,2.38-3.79,2.47-.72.04-1.45,0-2.18-.04-1.73-.09-3.5-1.9-3.85-3.41-.34-1.45-.38-2.86-.03-4.32.43-1.76,2.18-3.22,3.9-3.3.48-.02.97-.06.96-.06h.02Z" style="fill:#7592a7; stroke-width:0px;"></path><path d="m357.33,74.46c-.83-.15-1.66-.29-2.49-.44-.27-.05-.5-.6-.39-.9.65-1.85,1.58-3.54,2.94-4.97,1.57-1.64,3.46-2.63,5.74-2.87,1.59-.16,3.15-.14,4.68.37.27.09.45.65.28.93-1.59,2.47-3.51,4.63-5.95,6.31-1.45,1-3.01,1.56-4.8,1.56h0Z" style="fill:#7592a7; stroke-width:0px;"></path><path d="m323.71,155.01c-.45.78-.83,1.54-1.31,2.23-.18.25-.57.38-.89.5-.31.11-.8-.32-.71-.59.18-.58.32-1.17.56-1.72,1.41-3.22,2.84-6.43,4.28-9.64.15-.33.37-.62.57-.92.27-.39,1.37-.43,1.65-.07.15.19.33.37.43.58,1.54,3.56,3.07,7.12,4.58,10.69.14.33.21.71.21,1.06,0,.2-.16.48-.33.57-.18.1-.48.08-.7,0-.21-.07-.46-.21-.57-.39-.39-.61-.69-1.28-1.11-1.86-.19-.27-.57-.52-.89-.56-1.92-.21-3.85-.35-5.76.1h0Zm3.08-2.08c.59-.08,1.18-.13,1.76-.26.16-.04.29-.31.39-.49.05-.09.06-.24.02-.35-.47-1.22-.94-2.44-1.46-3.64-.07-.17-.37-.33-.57-.33-.17,0-.44.18-.51.34-.52,1.2-1,2.42-1.49,3.64-.11.27.19.82.45.86.47.08.93.15,1.41.22h0Z" style="fill:#7592a7; stroke-width:0px;"></path><path d="m451.89,149.65c.52-.22,1.06-.5,1.63-.69.83-.29,1.68-.22,2.52.02.75.22,1.33.71,1.51,1.45.57,2.28.69,4.57.02,6.86-.04.13-.38.19-.59.23-.09.02-.28-.09-.3-.17-.13-.46-.28-.92-.31-1.39-.08-1.34-.07-2.68-.16-4.01-.06-.86-.86-1.49-1.77-1.52-.97-.03-1.83.47-2,1.25-.15.71-.25,1.43-.31,2.16-.09,1.09-.11,2.18-.22,3.27-.02.18-.27.37-.46.48-.3.18-.81-.07-.85-.39-.08-.72-.15-1.44-.21-2.17-.1-1.21-.17-2.43-.29-3.64-.05-.52-.75-.98-1.37-.98-1.11,0-1.89.54-2.25,1.52-.38,1.05-.49,2.13-.52,3.23-.02.71-.16,1.43-.28,2.14-.05.3-.29.35-.57.18-.1-.06-.24-.09-.28-.17-.1-.21-.23-.45-.23-.68-.02-2.19-.02-4.39-.02-6.58,0-.52.38-.88.95-.8.62.1,1.18.08,1.77-.14,1.33-.51,2.63-.39,3.86.34.2.12.46.14.73.21h0Z" style="fill:#7592a7; stroke-width:0px;"></path><path d="m365.79,158.3c-1.04-.62-2.03-.34-2.98-.37-2-.06-3.2-.48-3.6-3.23-.2-1.36-.06-2.67.35-3.96.35-1.11,1.09-1.92,2.3-2.08,1.69-.24,3.39-.26,5.08,0,.39.06.86.59.91,1.03.04.36.09.72.09,1.09v9.12c0,.36,0,.76-.15,1.06-.15.28-.5.61-.78.62s-.78-.29-.84-.53c-.2-.93-.27-1.89-.37-2.75h0Zm.25-5.1c-.05-.76-.08-1.35-.14-1.95-.05-.5-.7-1.12-1.24-1.14-2.77-.11-3.57.6-3.52,3.21.01.59.13,1.19.26,1.76.11.5.5.84.96,1,.81.28,1.66.29,2.48.05.46-.13.89-.44.98-.96.12-.7.16-1.42.22-1.98h0Z" style="fill:#7592a7; stroke-width:0px;"></path><path d="m426.11,143.96c1.25,0,2.41.33,3.45,1.02.29.19.54.5.71.81.1.18.09.52-.02.68-.11.17-.44.33-.63.28-.82-.2-1.61-.5-2.42-.72-2.23-.61-4.1.19-5.27,2.2-1.13,1.96-1.18,3.91-.05,5.9,1.12,1.97,3.49,2.97,5.64,2.26.68-.23,1.3-.64,1.97-.95.21-.1.47-.18.68-.14s.47.18.58.36c.1.17.09.47.02.67-.08.22-.24.43-.43.58-2.26,1.74-4.76,1.87-7.24.71-2.39-1.11-3.7-3.12-3.74-5.82-.01-.97.02-1.97.25-2.9.71-2.89,3.47-4.93,6.49-4.94h0Z" style="fill:#7592a7; stroke-width:0px;"></path><path d="m348.64,151.48c0-1.46-.02-2.92,0-4.38,0-.59.58-1.16,1.18-1.17,1.94,0,3.89,0,5.83.03.22,0,.48.13.64.29.14.14.26.42.23.61-.04.19-.26.49-.42.5-1.09.08-2.19.09-3.28.14-.48.02-.98.03-1.45.14-.33.08-.68.27-.72.72-.02.24-.09.48-.09.72,0,1.1.45,1.71,1.39,1.8,1.21.11,2.42.15,3.63.27.16.02.41.29.41.45,0,.2-.17.45-.34.6-.17.16-.41.3-.63.32-.72.08-1.45.11-2.18.16-.48.03-.99,0-1.44.13-.29.09-.67.41-.72.68-.12.58-.08,1.2-.04,1.79.03.44.56.88,1.01.9.73.02,1.46,0,2.18.04.85.03,1.7.05,2.55.14.17.02.48.34.46.41-.12.31-.31.63-.55.86-.16.15-.45.19-.69.19-1.95,0-3.89,0-5.84,0-.59,0-1.12-.57-1.13-1.21-.02-1.7,0-3.41,0-5.11h0v-.02h.01Z" style="fill:#7592a7; stroke-width:0px;"></path><path d="m460.64,155v-5.11c0-.5.43-.8,1.01-.71.59.08,1.14.34,1.76.03.43-.21.92-.31,1.4-.38,3.36-.47,5.69,2.1,5.28,5.28-.11.87-.41,1.65-.94,2.34-.88,1.15-2.07,1.7-3.49,1.59-.84-.06-1.65-.39-2.49-.48-.25-.03-.73.34-.78.59-.19.95-.23,1.92-.38,2.88-.03.17-.33.39-.53.41s-.52-.13-.6-.3c-.16-.31-.26-.69-.27-1.04-.03-1.7-.01-3.41-.01-5.11h.05-.01Zm7.76-1.58c-.05-1.88-1.4-3.16-3.26-3.08-1.62.07-2.83,1.41-2.84,3.13,0,1.79,1.5,3.23,3.24,3.1,1.63-.13,2.89-1.52,2.85-3.15h.01Z" style="fill:#7592a7; stroke-width:0px;"></path><path d="m379.51,153.13c-.08,1.21-.14,2.42-.24,3.63-.03.42-.55.92-.98.93-1.7.03-3.4.08-5.1.04-1.04-.03-1.91-.83-1.94-1.83-.06-2.18-.02-4.37-.02-6.56,0-.24.63-.74.79-.62.28.2.69.45.73.73.13.96.1,1.94.17,2.91.06.85.13,1.7.25,2.54.1.69.78,1.26,1.55,1.32.48.04.97.04,1.46.02.83-.04,1.45-.58,1.47-1.33.05-1.46.03-2.92.08-4.38.02-.47.13-.95.29-1.39.05-.15.38-.29.58-.28.19,0,.47.16.55.32.15.32.25.69.26,1.04.03.97.01,1.95.01,2.92h.1-.01Z" style="fill:#7592a7; stroke-width:0px;"></path><path d="m409.29,157.91s-.58-.04-1.18-.15c-.22-.04-.47-.19-.61-.36-.14-.17-.18-.43-.22-.65,0-.06.17-.2.28-.21.96-.09,1.91-.16,2.87-.24.5-.04.93-.24,1.28-.6.18-.19.22-.87.02-.98-.31-.18-.61-.41-.95-.51-.93-.3-1.87-.53-2.8-.81-.71-.22-1.11-.84-1.13-1.68-.05-1.87.91-3.1,2.71-3.23,1.07-.08,2.17.05,3.25.14.36.03.61.34.67.74.05.36-.23.65-.65.68-.96.07-1.93.09-2.88.24-.3.05-.58.39-.82.64-.24.26-.1.8.15.95,1.08.63,2.33.65,3.48,1,.33.1.66.33.88.6.7.84.59,1.8.27,2.76-.29.88-.89,1.43-1.81,1.6-.24.04-.48.08-.72.09-.49,0-.97,0-2.08,0v-.02h-.01Z" style="fill:#7592a7; stroke-width:0px;"></path><path d="m442.23,153.56c-.04,2.48-1.53,4.16-3.95,4.46-.48.06-.97.08-1.44.04-2.14-.18-3.54-1.4-4.09-3.53-.48-1.84.37-4.07,2.03-5.06,1.69-1,3.49-1.03,5.19-.1,1.62.89,2.33,2.39,2.26,4.19Zm-4.72-3.23c-1.81,0-3.16,1.4-3.08,3.26.08,1.73,1.31,2.94,3,3,1.59.06,3-1.32,3.1-2.92.11-1.8-1.28-3.33-3.02-3.34h0Z" style="fill:#7592a7; stroke-width:0px;"></path><path d="m495.88,154.69c.37-.27.76-.4.88-.66.6-1.33,1.1-2.7,1.68-4.04.13-.31.39-.6.67-.8.16-.12.5-.12.69-.03.17.09.29.37.32.58.03.23-.03.49-.11.71-1.25,3.17-2.51,6.33-3.78,9.49-.18.45-.45.86-.71,1.27-.31.5-1.21.68-1.97.36-.13-.05-.16-.39-.19-.6,0-.06.19-.13.29-.2,1.42-.99,1.54-2.38,1.16-3.9-.12-.47-.37-.9-.55-1.35-.73-1.8-1.46-3.61-2.18-5.42-.12-.29.06-.92.31-.94.33-.03.79-.02.99.18.33.32.54.8.73,1.23.6,1.33,1.16,2.66,1.79,4.11h-.02Z" style="fill:#7592a7; stroke-width:0px;"></path><path d="m390.33,150.51c-.53,1.64-.27,3.2-.11,4.75.04.42.51.88.98.95.6.09,1.21.12,1.8.24.16.03.39.3.39.46,0,.2-.19.41-.32.59-.07.09-.19.16-.3.19-1.08.27-2.16.23-3.24.02-.52-.1-1.12-.68-1.21-1.22-.08-.47-.16-.95-.18-1.43-.03-.97-.08-1.94,0-2.91.09-1.08-.4-1.86-1.16-2.66.57-1.01,1.12-2.06,1.77-3.06.09-.14.75-.1.96.07.24.2.28.65.39.99.16.51.51.79,1.04.86.71.1,1.43.18,2.13.34.14.03.23.37.3.58.02.07-.09.22-.17.27-.42.22-.84.46-1.29.6-.57.17-1.16.25-1.76.37h-.02Z" style="fill:#7592a7; stroke-width:0px;"></path><path d="m404.19,153.45c-.06,1.09-.1,2.17-.17,3.26-.03.44-.52.96-.93.97-1.81.03-3.63.07-5.44.04-.86-.02-1.56-.73-1.7-1.62-.36-2.29-.36-4.58-.03-6.87.04-.27.6-.58.87-.45.2.1.5.24.54.41.13.58.2,1.19.22,1.79.05,1.21.04,2.42.09,3.63.02.5.27.96.68,1.23.98.64,2.04.68,3.11.26.2-.08.41-.31.47-.51.16-.58.33-1.17.35-1.76.05-1.21,0-2.42.02-3.64,0-.35.03-.77.22-1.04.17-.24.57-.39.88-.44.15-.02.41.24.53.42.12.19.19.45.2.68.02,1.21,0,2.42,0,3.64h.09Z" style="fill:#7592a7; stroke-width:0px;"></path><path d="m479.46,157.5c-1.3.24-2.52.18-3.68.51-.45.13-.97.06-1.44,0-1.62-.17-2.56-1.43-2.33-3.07.13-.93.64-1.6,1.5-1.88.8-.27,1.65-.36,2.47-.56.47-.12.92-.29,1.37-.46.27-.1.37-.68.19-.94-.3-.42-.7-.74-1.2-.71-.96.06-1.91.25-2.87.33-.19.02-.44-.16-.58-.32-.18-.22,0-.82.25-.96,1.59-.89,3.25-.98,4.89-.21.79.37,1.3,1.13,1.39,2.03.21,2.06.12,4.11.04,6.23h0Zm-4.08-.69c1.21-.05,2.02-.78,2.37-2.03.12-.44-.32-1.08-.75-1.01-.83.12-1.66.27-2.48.45-.44.1-.79.65-.78,1.11,0,.53.28.93.73,1.16.31.17.67.23.91.31h0Z" style="fill:#7592a7; stroke-width:0px;"></path><path d="m482.32,153.41c0-1.09-.02-2.18,0-3.27.02-.76.3-1.01,1.16-.93.47.04.91.17,1.39-.04.79-.34,1.64-.39,2.5-.31,1.12.1,2.13.84,2.43,1.89.17.58.32,1.18.34,1.78.05,1.33.01,2.67,0,4-.01.63-.29,1.02-.72,1.11-.42.09-.87-.55-.89-1.3-.03-.97-.02-1.94-.04-2.91-.01-.48-.05-.97-.11-1.45-.08-.74-.67-1.37-1.36-1.51-1.11-.22-2.18.14-2.51.97-.27.66-.48,1.37-.56,2.08-.12,1.08-.1,2.18-.18,3.26-.02.22-.18.44-.3.63-.05.08-.19.16-.28.15-.21-.04-.56-.09-.59-.2-.16-.57-.27-1.16-.32-1.76-.05-.72-.01-1.45-.01-2.18h.05Z" style="fill:#7592a7; stroke-width:0px;"></path><path d="m335.08,153.15c0-.85-.01-1.71,0-2.56.03-1.22.1-1.27,1.48-1.33.35-.02.69-.05,1.04-.1.72-.1,1.43-.3,2.15-.31,1.68-.04,2.85.94,2.94,2.6.1,1.82,0,3.65-.02,5.47,0,.11-.1.22-.17.32-.06.08-.17.22-.23.21-.21-.04-.48-.09-.61-.23-.15-.17-.22-.44-.24-.67-.05-.85-.05-1.7-.09-2.55-.03-.61-.07-1.22-.16-1.82-.19-1.37-1.28-2.08-2.66-1.67-.43.13-.85.47-1.13.82-.29.37-.46.86-.55,1.33-.12.59-.13,1.21-.16,1.82-.04.73-.04,1.46-.08,2.19-.04.67-.4,1.02-.85.93-.45-.1-.56-.45-.57-.77-.04-1.22-.02-2.43-.02-3.65h-.07v-.03h0Z" style="fill:#7592a7; stroke-width:0px;"></path><path d="m384.48,153.12c0,1.09.03,2.18-.02,3.27-.02.33-.22.69-.42.97-.11.15-.41.24-.61.22-.19-.03-.36-.23-.51-.38-.08-.08-.12-.22-.12-.33,0-2.42-.01-4.84,0-7.26,0-.12.06-.24.08-.35.04-.23.63-.6.87-.49.2.1.45.22.53.4.14.32.22.69.23,1.04.03.97.01,1.94.01,2.91h-.04Z" style="fill:#7592a7; stroke-width:0px;"></path><path d="m384.68,145.83c-.01.39-.5.83-.99.88s-.96-.34-.97-.81c-.03-.67.47-1.15,1.09-1.04.43.07.88.58.87.98h0Z" style="fill:#7592a7; stroke-width:0px;"></path><path d="m59.16,114.67c-8.87-.04-16.37-2.48-23.09-7.3-2.77-1.98-5.25-4.28-7.52-6.82-.08-.09-.08-.24-.11-.36-.03-.13.22-.2.48-.13.06.02.12.05.18.07,4.33,1.25,8.73,2.16,13.19,2.77,2.78.38,5.57.6,8.38.59,1.63,0,3.26-.02,4.89-.04,4.12-.04,8.18-.63,12.21-1.46,5.97-1.23,11.69-3.19,17.18-5.79,1.82-.86,3.6-1.82,5.41-2.73.34-.17.71-.31,1.07-.45.03,0,.13.08.13.13,0,.12,0,.26-.06.37-1.95,3.78-4.16,7.38-6.97,10.59-2.43,2.78-5.24,5.07-8.54,6.76-1.63.83-3.32,1.5-5.08,2.01-4.03,1.18-8.16,1.69-11.76,1.79h.01Z" style="fill:#7592a7; stroke-width:0px;"></path><path d="m35.61,60.31c2.07-.02,3.79.78,5.2,2.28.64.68,1.06,1.48,1.35,2.35.99,2.91.33,6.33-2.4,8.18-1.75,1.19-3.71,1.52-5.78,1.13-.38-.07-.76-.18-1.13-.31-2.64-.97-4.1-2.89-4.45-5.65-.18-1.45.03-2.85.7-4.17,1.2-2.34,3.12-3.59,5.72-3.81.26-.02.52,0,.78,0h.01Z" style="fill:#7592a7; stroke-width:0px;"></path><path d="m79.62,73.59c-3.61.2-7.06-2.93-7.08-7-.02-3.54,3.02-7.25,6.98-7.23,4.24.02,7.26,3.36,7.29,7.11.04,4.39-3.65,7.23-7.19,7.12h0Z" style="fill:#7592a7; stroke-width:0px;"></path><path d="m59.8,81.43c1.21-.06,2.33.27,3.37.86,1.08.62,1.78,1.5,1.9,2.78.06.66-.22,1.16-.82,1.4-1.71.68-3.22.21-4.5-.96-.94-.85-1.44-2-1.65-3.25-.05-.29.22-.65.54-.7.39-.05.77-.09,1.16-.13h0Z" style="fill:#7592a7; stroke-width:0px;"></path><path d="m42.54,87.61c-.21-.05-.66-.13-1.08-.29-1.05-.4-1.07-1.35-.81-2.11.02-.06.05-.12.08-.18,1.07-1.5,2.46-2.51,4.32-2.77.58-.08,1.17-.06,1.76-.06s.85.31.8.85c-.24,2.48-2.41,4.53-5.07,4.55h0Z" style="fill:#7592a7; stroke-width:0px;"></path></svg>