<svg xmlns="http://www.w3.org/2000/svg" id="Layer_1" data-name="Layer 1" viewBox="0 0 1920 180"><defs><style>      .cls-1 {        fill: #feb4b4;      }      .cls-1, .cls-2, .cls-3, .cls-4 {        stroke-width: 0px;      }      .cls-2 {        fill: #fff;      }      .cls-3 {        fill: #fe1e1e;      }      .cls-4 {        fill: #9da5aa;      }    </style></defs><g><path class="cls-2" d="m1244.02,113.09h-5.42v-40.7h-42.72v-5.43c.48-.06.93-.16,1.37-.16,15.12,0,30.25,0,45.37,0,1.44,0,1.53.09,1.53,1.48,0,14.5,0,28.99,0,43.49,0,.41-.08.82-.13,1.32Z"></path><path class="cls-2" d="m1121.8,102.05v11.05h-5.43v-20.5c1.71,0,3.39-.04,5.07.04.3.02.64.51.87.85,1.79,2.76,3.56,5.55,5.35,8.32.21.32.44.63.75,1.07.3-.41.54-.7.74-1.01,1.8-2.8,3.62-5.6,5.39-8.42.43-.68.93-.98,1.73-.95,1.37.05,2.75.01,4.24.01v20.54h-5.4v-11.02c-.09-.03-.17-.05-.26-.08-.18.23-.38.44-.54.68-1.26,1.97-2.51,3.95-3.77,5.92-.92,1.45-3.22,1.5-4.15.07-1.26-1.93-2.49-3.88-3.74-5.81-.18-.28-.39-.54-.59-.82-.09.02-.17.04-.26.06Z"></path><path class="cls-2" d="m1168.96,113.1h-5.29v-11.19c-.09-.03-.19-.07-.28-.1-.46.71-.93,1.42-1.39,2.14-1.03,1.61-2.05,3.23-3.09,4.84-.75,1.17-3.15,1.15-3.91-.03-1.29-2-2.56-4-3.84-6-.22-.34-.46-.68-.91-.94v11.24h-5.33v-20.45c1.72,0,3.4-.04,5.08.04.3.02.64.52.86.86,1.77,2.74,3.52,5.5,5.27,8.24.22.35.46.69.79,1.18.31-.43.55-.72.75-1.03,1.8-2.81,3.6-5.61,5.37-8.44.43-.68.93-.98,1.74-.95,1.13.05,2.27.02,3.41.02.65,0,.98.29.98.96,0,6.31,0,12.62-.02,18.93,0,.2-.1.4-.18.68Z"></path><path class="cls-2" d="m1028.65,87.35v-20.48c1.8,0,3.48-.04,5.17.03.3.01.62.43.85.72,2.56,3.22,5.11,6.45,7.66,9.67.28.36.58.71,1.1,1.03v-11.39h5.49v20.49c-1.81,0-3.54.06-5.26-.04-.38-.02-.78-.56-1.07-.94-2.57-3.3-5.12-6.62-7.68-9.93-.19-.24-.4-.47-.81-.95v11.79h-5.46Z"></path><path class="cls-2" d="m1195.88,92.57c1.78,0,3.44-.04,5.09.04.33.02.69.45.94.77,2.61,3.32,5.19,6.66,7.79,9.98.17.21.36.4.77.86,0-.68,0-1.05,0-1.42,0-2.98.03-5.96-.01-8.93-.01-1.01.34-1.41,1.36-1.37,1.34.06,2.68.01,4.13.01v20.61c-1.75,0-3.47.04-5.18-.04-.29-.01-.6-.46-.83-.76-2.52-3.25-5.03-6.51-7.55-9.77-.26-.33-.52-.66-1-1.27v11.77h-5.51v-20.49Z"></path><path class="cls-2" d="m1163.15,66.11c6.4,0,11.37,4.78,11.35,10.91-.02,6.34-4.89,11.23-11.31,11.21-6.8-.02-11.44-4.6-11.47-11.09-.03-6.91,5.48-11.07,11.43-11.03Zm-.08,16.84c3.43,0,5.79-2.36,5.81-5.81.02-3.27-2.49-5.8-5.76-5.82-3.31-.03-5.84,2.6-5.8,6.02.05,3.32,2.4,5.62,5.75,5.62Z"></path><path class="cls-2" d="m1074.02,77.06c.05,6.12-4.57,11.18-11.44,11.17-6.62-.02-11.34-4.82-11.28-11.29.06-6.25,5.06-10.89,11.66-10.82,6.29.07,11.13,4.87,11.07,10.95Zm-11.43,5.89c3.56.01,5.79-2.24,5.79-5.86,0-3.29-2.39-5.75-5.64-5.77-3.31-.03-5.82,2.49-5.83,5.87-.01,3.48,2.23,5.76,5.67,5.77Z"></path><path class="cls-2" d="m1071.36,97.1c-1.51.83-2.86,1.57-4.45,2.44-.3-.4-.54-.8-.85-1.13-1.57-1.67-3.53-2.08-5.66-1.47-1.92.55-2.89,2.11-3.11,3.95-.18,1.56-.26,3.23.12,4.73.92,3.65,5.51,4.87,8.27,2.31.51-.48.81-1.18,1.21-1.77-.06-.1-.11-.2-.17-.3h-4.42v-4.32h10.14c.07.23.19.46.19.69.13,6.77-3.31,11.87-10.77,11.68-5.7-.15-9.75-3.82-10.52-9.81-.69-5.32,2.78-10.55,7.88-11.89,4.38-1.15,8.75.29,11.42,3.78.23.3.41.65.71,1.14Z"></path><path class="cls-2" d="m1130.07,87.38h-5.44v-7.67h-7.26v7.65h-5.48v-20.4h5.45v6.94h7.19v-6.97h5.52v20.45Z"></path><path class="cls-2" d="m1082.26,80.4v6.95h-5.44v-20.4c.43-.06.77-.15,1.11-.15,2.69.04,5.4-.04,8.08.17,5.49.41,7.26,5.58,5.34,9.55-.49,1.01-1.58,1.74-2.53,2.74.77,1.19,1.65,2.54,2.52,3.9.85,1.33,1.7,2.66,2.74,4.29-1.36,0-2.42-.13-3.44.03-2.36.37-3.85-.49-4.8-2.69-.59-1.39-1.51-2.64-2.34-3.92-.19-.3-.6-.46-.91-.69-.11.07-.22.14-.33.22Zm.13-9.26v4.9c1.38.02,2.73.25,3.6-.96.67-.93.67-2.06,0-2.99-.87-1.21-2.22-.97-3.59-.95Z"></path><path class="cls-2" d="m1092.93,113.17c-2.29,0-4.23.04-6.17-.04-.31-.01-.7-.45-.9-.78-1.14-1.84-2.21-3.71-3.35-5.55-.22-.35-.61-.59-.93-.89-.14.06-.27.12-.41.19v7h-5.48v-20.34c.22-.08.41-.21.61-.21,2.94.03,5.9-.1,8.82.16,4.66.42,6.96,4.8,5.24,9.1-.47,1.16-1.63,2.05-2.64,3.26,1.57,2.44,3.29,5.13,5.19,8.09Zm-11.67-11.7c1.73.46,2.96.21,3.57-.65.53-.75.5-2.41-.05-3.13-.6-.79-2.1-1.07-3.52-.62v4.4Z"></path><path class="cls-2" d="m1145.94,79.21c1.66,2.58,3.39,5.26,5.11,7.94-.06.11-.11.21-.17.32-1.29,0-2.6-.12-3.88.03-1.77.21-2.82-.41-3.58-2.02-.73-1.56-1.73-3.01-2.66-4.48-.22-.35-.64-.57-.96-.85-.13.06-.25.13-.38.19v7.01h-5.36v-20.34c.23-.07.46-.2.69-.2,2.98.04,5.98-.09,8.93.21,4.71.48,7.2,6.02,4.56,9.96-.55.82-1.45,1.41-2.31,2.21Zm-6.48-3.29c1.81.39,3.25,0,3.79-.95.48-.84.38-2.35-.2-3.03-.65-.77-2.38-1.06-3.59-.57v4.55Z"></path><path class="cls-2" d="m1107.2,92.62h5.38c.05.48.13.89.13,1.3,0,3.9.02,7.79,0,11.69-.03,4.87-3.23,8.11-8.12,8.23-1.06.03-2.14.06-3.18-.1-3.37-.5-6.96-2.51-7-7.7-.03-4.18-.01-8.36-.01-12.54,0-.24.09-.48.16-.85h5.31c.04.52.09.97.09,1.41,0,3.65,0,7.3,0,10.94.01,2.97,1.45,4.2,4.4,3.83,1.7-.22,2.73-1.38,2.75-3.21.03-3.82,0-7.65.01-11.48,0-.45.04-.91.07-1.53Z"></path><path class="cls-2" d="m1192.97,113.16c-1.89,0-3.65.03-5.4-.03-.24,0-.55-.41-.68-.7-.33-.74-.51-1.56-.89-2.27-.19-.35-.7-.73-1.08-.75-1.73-.08-3.48-.01-5.21-.05-.65-.01-.97.27-1.16.85-.22.67-.5,1.33-.7,2.01-.2.67-.56,1-1.3.98-1.55-.04-3.1-.01-4.83-.01.14-.53.19-.86.31-1.17,2.26-6.11,4.54-12.22,6.78-18.34.32-.87.78-1.23,1.71-1.18,1.31.07,2.62.04,3.94.01.69-.01,1.11.25,1.36.92,2.29,6.21,4.6,12.42,6.9,18.63.11.29.15.6.26,1.09Zm-8.73-8.21c-.66-1.86-1.26-3.58-1.86-5.29-.09.01-.18.03-.27.04-.59,1.72-1.18,3.44-1.8,5.25h3.93Z"></path><path class="cls-2" d="m1183.13,80.41v6.97h-5.39v-20.4c.29-.06.59-.17.89-.17,2.94.03,5.89-.02,8.83.14,3.03.16,5.11,2.12,5.71,5.09.64,3.19-.37,6.15-2.84,7.4-1.18.6-2.63.74-3.98.94-.96.14-1.96.03-3.22.03Zm.17-4.33c1.63.45,3.47,0,4.08-.92.62-.94.59-2.4-.08-3.2-.7-.84-2.61-1.15-4.01-.63v4.74Z"></path><path class="cls-2" d="m1108.57,66.93v5.42h-4.18c0,2.64,0,5.11,0,7.57s0,4.93,0,7.46h-5.55v-15.01h-4.2v-5.44h13.93Z"></path></g><g><path class="cls-2" d="m66.49,104.06c-2.88,0-5.75,0-8.63,0-.65,0-1.3-.09-1.94-.2-.73-.12-1.44-.31-2.14-.56-.88-.31-1.72-.69-2.52-1.17-.62-.37-1.21-.78-1.77-1.22-.34-.27-.63-.58-.95-.87-.84-.78-1.53-1.69-2.12-2.66-.65-1.06-1.14-2.21-1.49-3.41-.2-.7-.34-1.41-.44-2.13-.04-.29-.06-.59-.07-.88-.01-.49,0-.98,0-1.46.01-.74.12-1.46.26-2.18.16-.82.41-1.61.72-2.38.42-1.05.98-2.03,1.64-2.95.58-.81,1.25-1.52,1.98-2.19.41-.37.86-.7,1.3-1.04.52-.41,1.1-.73,1.69-1.03.84-.42,1.7-.79,2.62-1.02.62-.15,1.25-.27,1.88-.4.24-.05.49-.06.74-.07,2.92-.13,5.84-.04,8.77-.05,2.92-.02,5.85,0,8.77,0,.61,0,1.22.07,1.82.16.88.12,1.74.33,2.59.62.94.33,1.84.75,2.69,1.27.79.49,1.52,1.05,2.21,1.68.85.78,1.59,1.65,2.22,2.61.77,1.18,1.35,2.44,1.74,3.79.22.77.37,1.54.44,2.33.04.45.1.89.1,1.34,0,.7-.06,1.39-.15,2.08-.12.85-.3,1.69-.58,2.51-.36,1.06-.85,2.07-1.44,3.02-.71,1.14-1.6,2.12-2.59,3.02-.66.6-1.41,1.12-2.19,1.57-.99.58-2.04,1.02-3.13,1.34-.67.19-1.35.33-2.03.42-.69.1-1.37.1-2.06.1-2.65,0-5.29,0-7.94,0h0Zm.03-22.87h0c-2.63,0-5.25,0-7.88,0-.48,0-.95.02-1.43.11-.81.14-1.58.38-2.32.73-.72.34-1.38.78-1.99,1.29-.44.37-.84.79-1.2,1.23-.45.55-.81,1.16-1.11,1.8-.55,1.15-.81,2.36-.86,3.62-.01.29.04.59.05.88.01.64.15,1.25.34,1.85.56,1.84,1.59,3.35,3.12,4.53.47.36.97.69,1.51.94.52.24,1.06.44,1.61.61.72.22,1.47.32,2.23.32,5.18,0,10.35,0,15.53,0,.53,0,1.05-.03,1.57-.11.82-.13,1.61-.36,2.36-.71,1.29-.6,2.39-1.45,3.27-2.56.77-.97,1.33-2.05,1.65-3.25.16-.6.27-1.21.3-1.83.03-.64,0-1.28-.1-1.91-.14-.83-.37-1.64-.74-2.4-.29-.61-.65-1.19-1.07-1.72-.58-.73-1.25-1.34-2-1.88-.46-.33-.97-.58-1.48-.82-.27-.13-.57-.21-.86-.3-.15-.05-.31-.08-.46-.13-.57-.18-1.15-.29-1.74-.29-2.76,0-5.52,0-8.28,0Z"></path><path class="cls-2" d="m91.37,90.12c0-4.49,0-8.98,0-13.47q0-.46.45-.46c7.74,0,15.47,0,23.21,0,1.3,0,2.55.29,3.75.83.81.37,1.55.84,2.23,1.4.88.72,1.58,1.6,2.15,2.59.44.77.76,1.59.96,2.45.12.49.22.99.22,1.5,0,.24.05.48.05.71-.03,1.3-.27,2.55-.8,3.75-.37.84-.85,1.61-1.44,2.3-1.03,1.2-2.28,2.11-3.77,2.69-.67.26-1.36.46-2.07.56-.56.07-1.12.09-1.68.1-.65.01-1.31,0-1.96-.01-.02,0-.05.02-.07.02.01.02.02.05.04.07.29.25.58.5.87.74.4.34.81.67,1.21,1,.44.37.88.73,1.32,1.1.4.33.79.67,1.18,1,.42.36.85.71,1.28,1.06.39.32.78.65,1.16.97.44.37.88.73,1.32,1.1.4.34.8.68,1.2,1.02.31.26.63.52.95.79.03.02.04.06.06.09-.03.01-.06.04-.09.04-.07,0-.13,0-.2,0-2.4,0-4.79,0-7.19,0-.2,0-.36-.05-.51-.19-.5-.45-1.01-.87-1.52-1.31-.37-.32-.73-.65-1.09-.97-.35-.31-.71-.6-1.07-.91-.32-.27-.63-.55-.95-.83-.42-.36-.83-.73-1.25-1.1-.55-.48-1.09-.96-1.64-1.44-.5-.44-1.02-.87-1.52-1.3-.51-.44-1.02-.9-1.53-1.34-.36-.31-.72-.62-1.09-.93-.18-.16-.36-.31-.54-.47-.52-.45-1.03-.91-1.55-1.37-.32-.28-.66-.55-.99-.83-.32-.27-.63-.55-.95-.83-.03-.03-.04-.08-.05-.12,0-.01.06-.04.09-.04.07,0,.13,0,.2,0,3.88,0,7.77,0,11.65,0,.85,0,1.71,0,2.56.03.57.02,1.13,0,1.68-.15,1.23-.33,2.18-1.03,2.8-2.16.3-.54.47-1.12.54-1.74.12-1.04-.13-1.98-.66-2.84-.38-.62-.89-1.11-1.53-1.47-.52-.29-1.06-.48-1.64-.58-.08-.01-.17,0-.26,0-5.92,0-11.83,0-17.75,0-.02,0-.04,0-.06,0-.25,0-.25,0-.26.26,0,.08,0,.15,0,.23,0,7.32,0,14.63,0,21.95,0,.48.04.43-.43.43-1.53,0-3.07,0-4.6,0-.06,0-.12,0-.17,0-.25,0-.25,0-.26-.26,0-.08,0-.15,0-.23v-13.44Z"></path><path class="cls-2" d="m244.67,92.62c-3.71,0-7.42,0-11.13,0-.38,0-.38,0-.26.35.36,1.08.91,2.05,1.65,2.93.63.76,1.37,1.38,2.21,1.9.9.56,1.87.92,2.9,1.13.65.13,1.3.18,1.97.18,6.26,0,12.52,0,18.78,0,.12,0,.24.02.37.03-.05.12-.09.24-.16.35-.39.62-.79,1.24-1.19,1.86-.54.83-1.09,1.66-1.62,2.5-.1.16-.22.2-.4.2-1.44,0-2.88,0-4.31,0-4.14,0-8.28,0-12.42,0-.79,0-1.56-.09-2.33-.26-.5-.11-1.01-.2-1.5-.37-.62-.21-1.23-.47-1.83-.75-.47-.22-.92-.47-1.36-.74-.37-.23-.74-.48-1.08-.75-.48-.39-.96-.79-1.4-1.22-.37-.37-.7-.78-1.04-1.18-.58-.7-1.06-1.46-1.48-2.27-.6-1.15-1.02-2.36-1.27-3.63-.12-.59-.18-1.18-.24-1.78-.04-.48-.05-.96-.04-1.43.02-.5.09-1.01.15-1.51.08-.73.26-1.45.48-2.15.14-.45.31-.88.48-1.32.35-.88.84-1.7,1.37-2.48.28-.41.6-.79.91-1.17.26-.31.53-.6.82-.88.91-.86,1.91-1.62,3.01-2.23.83-.46,1.69-.82,2.58-1.1.7-.22,1.42-.39,2.15-.49.87-.12,1.75-.17,2.63-.16,6.11,0,12.21,0,18.32,0,.12,0,.24.03.36.04-.06.11-.11.22-.17.32-.49.77-.98,1.53-1.47,2.29-.41.63-.83,1.26-1.24,1.9-.33.51-.22.45-.84.45-5.23,0-10.47,0-15.7,0-.53,0-1.04.1-1.55.23-.41.1-.81.2-1.2.36-.89.36-1.73.81-2.46,1.45-.22.19-.43.38-.64.58-.45.43-.83.92-1.18,1.44-.43.64-.75,1.33-1,2.05-.14.41-.18.38.26.38,6.64,0,13.29,0,19.93,0,1.82,0,3.64,0,5.46,0,.09,0,.19.02.28.03-.04.08-.08.17-.13.25-.77,1.21-1.55,2.42-2.32,3.62-.2.31-.41.62-.61.94-.06.1-.13.15-.26.12-.1-.02-.21,0-.32,0-3.64,0-7.29,0-10.93,0Z"></path><path class="cls-2" d="m145.14,94.23c2.27,0,4.54,0,6.82,0,.09,0,.19-.02.28-.03-.04-.08-.07-.17-.12-.25-.55-.87-1.1-1.74-1.65-2.62-.63-1-1.25-2.01-1.88-3.02-.64-1.02-1.27-2.04-1.91-3.06-.6-.97-1.2-1.93-1.8-2.9-.13-.2-.14-.2-.27,0-.2.32-.4.63-.59.95-.27.44-.55.88-.82,1.31-.67,1.06-1.33,2.12-2.01,3.18-.46.73-.93,1.45-1.39,2.17-.36.56-.71,1.13-1.07,1.7-.24.39-.48.78-.73,1.16-.66,1.04-1.33,2.08-1.99,3.12-.62.99-1.24,1.98-1.86,2.96-.32.51-.65,1.01-.98,1.52-.36.57-.71,1.14-1.06,1.7-.37.59-.74,1.18-1.12,1.77-.07.11-.16.16-.29.15-.05,0-.1,0-.14,0-1.91,0-3.82,0-5.72,0-.09,0-.19-.02-.28-.03.04-.09.07-.19.12-.27.67-1.05,1.33-2.1,2-3.14.26-.4.52-.8.78-1.2.36-.56.71-1.11,1.06-1.67.26-.4.52-.8.78-1.2.36-.56.71-1.11,1.06-1.67.26-.4.52-.8.78-1.2.36-.56.71-1.11,1.06-1.67.26-.4.52-.8.78-1.2.36-.56.71-1.11,1.06-1.67.26-.4.52-.8.78-1.2.36-.56.71-1.11,1.06-1.67.26-.4.52-.8.78-1.2.36-.56.71-1.11,1.06-1.67.26-.4.52-.8.78-1.2.36-.56.71-1.11,1.06-1.67.25-.39.5-.77.75-1.15.37-.58.73-1.17,1.12-1.73.52-.75,1.23-1.24,2.1-1.51.7-.22,1.4-.22,2.1-.08.69.14,1.31.46,1.84.95.37.34.63.75.89,1.16.43.66.84,1.32,1.27,1.98.74,1.15,1.47,2.3,2.21,3.46.39.61.79,1.22,1.18,1.83.74,1.15,1.47,2.3,2.21,3.45.39.61.79,1.22,1.18,1.83.74,1.15,1.47,2.3,2.21,3.45.39.61.79,1.22,1.18,1.83.74,1.15,1.47,2.3,2.21,3.45.39.61.79,1.22,1.18,1.83.56.87,1.12,1.73,1.68,2.6.02.02.03.05.05.07.03.06.03.11-.06.12-.07,0-.13,0-.2,0-1.92,0-3.83,0-5.75,0-.23,0-.36-.06-.48-.27-.49-.85-1.01-1.69-1.52-2.53-.39-.65-.79-1.3-1.19-1.95-.06-.1-.13-.16-.26-.15-.08,0-.15,0-.23,0-4.58,0-9.16,0-13.75,0-.23,0-.39-.04-.52-.26-.32-.53-.66-1.04-1-1.56-.22-.34-.46-.68-.68-1.02-.42-.65-.83-1.3-1.24-1.96-.09-.14-.08-.15.09-.15.07,0,.13,0,.2,0,2.26,0,4.52,0,6.79,0Z"></path><path class="cls-2" d="m183.85,104.06c-2.75,0-5.5,0-8.25,0-.83,0-1.66-.12-2.47-.31-.53-.13-1.06-.26-1.57-.42-.39-.13-.77-.3-1.14-.47-1.04-.49-2.04-1.05-2.93-1.79-.29-.25-.58-.5-.86-.75-.96-.84-1.72-1.84-2.4-2.91-.3-.47-.53-.99-.78-1.49-.28-.55-.46-1.13-.65-1.72-.21-.64-.34-1.29-.44-1.95-.12-.8-.19-1.61-.16-2.42.02-.67.09-1.33.2-1.99.15-.88.39-1.73.69-2.57.42-1.16,1.02-2.22,1.73-3.23.47-.67,1-1.28,1.58-1.85.74-.71,1.54-1.34,2.41-1.88,1-.62,2.06-1.1,3.17-1.46.71-.23,1.44-.39,2.18-.49.84-.12,1.69-.17,2.54-.17,6.11,0,12.21,0,18.32,0,.13,0,.26.03.39.04.04.17-.09.27-.16.38-.33.54-.69,1.06-1.03,1.59-.39.6-.77,1.21-1.15,1.82-.2.32-.41.64-.61.97-.09.14-.21.22-.38.21-.09,0-.17,0-.26,0-5.2,0-10.39,0-15.59,0-1.03,0-2.01.22-2.96.59-.95.36-1.81.88-2.57,1.54-.71.62-1.34,1.31-1.83,2.12-.51.85-.9,1.75-1.11,2.72-.13.57-.2,1.14-.22,1.73-.03,1.02.1,2.02.42,2.99.31.96.77,1.85,1.38,2.66.37.49.79.94,1.25,1.34.77.68,1.64,1.21,2.6,1.59.69.27,1.4.45,2.13.56.28.04.57.07.86.07,6.43,0,12.86,0,19.3,0,.13,0,.26.02.39.04-.06.13-.11.26-.18.37-.74,1.15-1.48,2.3-2.22,3.45-.19.29-.38.58-.55.87-.1.17-.23.22-.42.22-1.89,0-3.78,0-5.67,0h-2.96Z"></path><path class="cls-2" d="m198.3,88.96c0-4.13,0-8.25,0-12.38,0-.41-.03-.39.39-.39,1.54,0,3.09,0,4.63,0,.04,0,.08,0,.12,0,.27,0,.28,0,.28.27,0,.08,0,.15,0,.23,0,7.33,0,14.65,0,21.98,0,.5-.06.45.44.45,8.05,0,16.11,0,24.16,0,.11,0,.21,0,.32,0,.07,0,.1.06.07.12-.04.07-.1.14-.14.21-.36.56-.72,1.12-1.08,1.69-.2.31-.4.63-.6.95-.37.58-.75,1.15-1.12,1.74-.11.18-.23.24-.44.24-8.14,0-16.28,0-24.42,0-.67,0-1.22-.28-1.71-.7-.38-.33-.64-.74-.76-1.22-.07-.27-.12-.56-.12-.85,0-4.11,0-8.22,0-12.32Z"></path></g><g><path class="cls-2" d="m1622.48,97.08v-9.68l-.33-.13c-1.95,3.4-3.89,6.79-5.84,10.2h-5.02c-1.9-3.36-3.84-6.8-6.05-10.72v10.46c-1.57.59-3.1.37-4.93.16-.46-2.46-.2-4.94-.21-7.39-.01-2.38-.18-4.78.17-7.43,2.75-.11,5.3-.05,8.04-.05,1.8,3.25,3.6,6.51,5.57,10.06,1.92-3.45,3.75-6.73,5.56-9.98h7.64c.53,1.68.67,11.05.24,14.6-2.01.54-2.96.53-4.83-.1Z"></path><path class="cls-2" d="m1358.78,82.49v3.84c-.75.06-1.39.15-2.03.16-3.41.01-6.81.01-10.22,0-1.01,0-1.98.04-2.75.86-.97,1.02-1.64,2.1-1.16,3.57.5,1.52,1.69,2.55,3.28,2.59,2.4.07,4.81.02,7.39.02.02-.41.06-1.02.1-1.82-1.68-.09-3.21-.17-4.89-.26v-3.03c1.59-.51,6.75-.63,10.02-.22.47,1.75.53,6.49.11,9.11-.2.07-.42.22-.65.22-4.57.02-9.14.09-13.7,0-3.13-.06-5.65-1.76-6.52-4.58-1.61-5.22.36-9.36,6.3-10.41.73-.13,1.49-.04,2.24-.04,4.06,0,8.12,0,12.47,0Z"></path><path class="cls-2" d="m1504.25,97.43v-14.75c.64-.07,1.19-.18,1.75-.18,4.15-.01,8.29,0,12.44-.01,1.97,0,3.76.51,5.27,1.81,2.42,2.09,3.33,5.65,2.22,8.58-.99,2.61-4,4.64-7.05,4.67-4.39.03-8.79.01-13.18,0-.4,0-.8-.06-1.45-.12Zm5.01-10.9c0,2.35,0,4.33.01,6.31,0,.21.2.42.34.69,2.66,0,5.3.05,7.94-.02,1.93-.05,3.5-1.66,3.53-3.44.03-1.69-1.38-3.41-3.22-3.5-2.78-.14-5.58-.04-8.6-.04Z"></path><path class="cls-2" d="m1571.3,97.47h-6.13c-2.98-3.17-6.1-6.48-9.52-10.11v10.03h-4.88v-14.64c2.31-.57,4.62-.05,7.02-.32,2.77,2.98,5.53,5.95,8.61,9.26.28-1.82.13-3.26.16-4.68.03-1.4,0-2.8,0-4.35h4.6c.49,1.65.61,11.46.14,14.82Z"></path><path class="cls-2" d="m1440.02,97.51c-1.2-1.57-2.3-3.01-3.35-4.38h-5.77c-.06,1.39-.12,2.69-.18,4.08-1.61.63-3.23.32-5.11.2-.53-2.47-.23-4.95-.26-7.4-.03-2.38-.13-4.78.1-7.23.71-.12,1.18-.27,1.65-.28,4.4-.02,8.8-.04,13.2,0,2.52.02,4.48,1.03,5.5,3.49.91,2.21.14,4.52-1.97,5.76-.42.25-.87.47-1.46.79,1.1,1.58,2.16,3.1,3.34,4.8-1.97.39-3.76.16-5.7.16Zm-9.13-8.1c2.69,0,5.16.06,7.63-.03.99-.04,1.96-.41,2.22-1.6-.18-.96-.75-1.61-1.64-1.65-2.7-.1-5.42-.13-8.2.02v3.25Z"></path><path class="cls-2" d="m1661.08,97.53v-3.42c.74-.07,1.37-.17,2.01-.17,3.41-.02,6.81-.01,10.22,0,1.01,0,2.03.06,2.42-1.19-.53-.96-1.44-.7-2.23-.71-2.58-.03-5.15.02-7.73-.02-3-.04-4.87-1.9-4.88-4.76,0-2.83,1.72-4.68,4.59-4.75,2.99-.07,5.98-.02,8.97-.02,1.9,0,3.8,0,5.87,0v3.61c-2.47,0-4.85-.07-7.22.02-2.34.08-4.77-.46-7.05.53.15,1.26.9,1.3,1.67,1.3,2.49,0,4.99,0,7.48,0,.58,0,1.17-.04,1.74.04,2.39.31,3.99,2.39,4.07,4.88.08,2.36-2.15,4.61-4.05,4.63-5.22.06-10.44.02-15.89.02Z"></path><path class="cls-2" d="m1396.48,97.49c-3.08-3.58-6.19-7.19-9.62-11.17v11.06h-4.88v-14.56c1.18-.65,2.52-.25,3.81-.32,1.24-.06,2.48-.01,3.93-.01,2.55,2.94,5.14,5.92,8.06,9.28v-9.08h4.9c.27,2.41.1,4.8.13,7.19.03,2.41,0,4.81,0,7.49-2.11.35-4.14.16-6.32.12Z"></path><path class="cls-2" d="m1405.59,82.61h17.1v3.62c-1.92.54-3.91.19-5.87.25-1.9.06-3.8.01-5.83.01v1.46h11.39c.78,1.18.33,2.23.47,3.51-4.03.24-7.91-.01-11.92.17-.03.61-.05,1.07-.08,1.83,3.94.21,7.81-.03,11.83.15v3.53c-1.62.49-13.65.62-17.06.14-.51-2.35-.22-4.83-.23-7.28-.01-2.39-.22-4.79.21-7.41Z"></path><path class="cls-2" d="m1362.06,82.63h17.09v3.54c-2.1.62-4.09.26-6.05.32-1.97.06-3.95.01-6.01.01-.06.51-.1.82-.13,1.08.12.12.18.22.24.22,3.87.11,7.75.22,11.9.33.08,1.1.14,2.11.23,3.38h-12.25v2.04h11.57c1.03,1.24.58,2.42.62,3.52-1.66.58-12.91.76-17.08.3-.47-1.69-.58-11.52-.14-14.75Z"></path><path class="cls-2" d="m1579.77,95.09c-.65.88-1.19,1.61-1.73,2.35h-5.43c.5-2.13,1.98-3.52,2.96-5.16.98-1.63,2.11-3.17,3.15-4.77,1.08-1.66,2.13-3.34,3.16-4.96h7.61c3.14,4.83,6.32,9.72,9.67,14.88h-6.21c-.51-.67-1.1-1.45-1.78-2.34h-11.4Zm9.12-4.21c-1.3-2-2.34-3.6-3.46-5.33-1.13,1.9-2.12,3.55-3.18,5.33h6.64Z"></path><path class="cls-2" d="m1473.47,97.4h-6.12c-.49-.6-1.16-1.41-1.91-2.33h-11.33c-.55.77-1.08,1.5-1.66,2.32h-5.9c3.34-5.1,6.5-9.92,9.7-14.79h7.44c3.41,4.62,6.38,9.64,9.77,14.8Zm-16.92-6.58h6.62c-1.13-1.78-2.18-3.43-3.34-5.26-1.15,1.84-2.13,3.42-3.27,5.26Z"></path><path class="cls-2" d="m1657.87,82.54c.81,1.32.72,2.48.12,3.83-.72.04-1.45.11-2.18.12-2.66.01-5.31,0-7.97,0-3.24.01-3.94.58-4.73,3.83,1.06,2.75,1.61,3.18,4.29,3.21,2.74.03,5.48,0,8.22.01.81,0,1.61.07,2.61.12v3.6c-.64.11-1.11.26-1.58.26-3.74.02-7.47.05-11.21,0-2.96-.04-5.31-1.29-6.69-3.97-2.16-4.19-.51-10.1,5.54-10.91,4.47-.6,9.09-.12,13.59-.12Z"></path><path class="cls-2" d="m1525.77,82.62h6.17c1.73,1.68,3.62,3.52,5.7,5.55,1.95-1.9,3.83-3.73,5.73-5.58h6.39c-3.36,3.37-6.44,6.47-9.62,9.67v4.95c-1.82.64-3.51.23-5.38.31v-5.1c-3.12-3.17-6.14-6.22-9.16-9.28.06-.17.11-.35.17-.52Z"></path><path class="cls-2" d="m1474.81,97.32v-14.68h4.9v10.66c.72.1,1.26.25,1.81.25,2.74.02,5.49,0,8.23.02.71,0,1.43.13,2.24.21-.06,1.27-.1,2.31-.15,3.33-1.67.54-13.27.7-17.04.21Z"></path><path class="cls-2" d="m1630.53,97.38v-14.72h4.65c.43,1.79.52,11.67.12,14.72h-4.77Z"></path></g><g><path id="path2" class="cls-2" d="m477.73,94.69l6.93-39h-10.61l-8.59,48.23h30.96l3.75-9.23h-22.45Z"></path><path id="path4" class="cls-2" d="m521.76,55.68h10.25l19.63,48.3h-11.4l-3.9-10.17h-19.49l-3.9,10.17h-10.9l19.7-48.3Zm-1.59,29.78h12.99l-2.02-5.41c-1.37-3.82-3.1-8.58-4.4-12.26h-.14c-1.3,3.68-3.03,8.44-4.55,12.54l-1.88,5.12Z"></path><path id="path6" class="cls-2" d="m551.56,90.43c5.13,3.46,11.62,4.97,15.45,4.97s6.71-1.51,6.71-5.12c0-4.47-4.55-4.9-10.75-6.85-6.64-2.16-12.7-5.48-12.7-13.84,0-9.01,6.79-14.56,16.96-14.56,4.76,0,10.54,1.23,14.72,3.46v10.45c-5.12-3.17-11.04-4.69-14.8-4.69s-6.21,1.37-6.21,4.54c0,4.25,4.47,4.61,10.25,6.56,7.29,2.38,13.14,5.77,13.14,14.35,0,9.37-7.15,15.07-17.54,15.07-3.39,0-6.71-.5-9.96-1.44.07,0-5.27-12.91-5.27-12.91Z"></path><path id="path8" class="cls-2" d="m435.22,77.67l1.3-1.44,19.78-20.55h12.85l-21.87,22.35,14,25.88h-12.34l-12.92-24.8-.79-1.44Zm-3.25-.22l3.1,5.91-3.68,20.62h-10.54l8.52-48.3h10.61l-2.89,16.51-5.12,5.26Z"></path><path id="path10" class="cls-4" d="m465.46,112.78h3.75c1.3-.07,2.6.22,3.75.79.94.58,1.52,1.66,1.44,2.81.07,1.51-.94,2.88-2.45,3.32l3.39,5.05h-3.03l-3.03-4.76h-1.15v4.76h-2.6v-11.97h-.07Zm3.97,5.34c.58,0,1.15-.07,1.66-.29.43-.22.72-.72.65-1.23.07-.5-.22-.94-.65-1.15-.65-.29-1.3-.36-1.95-.29h-1.01v2.96h1.3Z"></path><path id="path12" class="cls-4" d="m481.12,112.78h7.36v2.31h-4.76v2.38h4.11v2.16h-4.11v2.88h4.98v2.31h-7.58v-12.04Z"></path><path id="path14" class="cls-4" d="m495.05,121.43c1.15.72,2.45,1.15,3.83,1.23.94,0,1.66-.36,1.66-1.3,0-1.08-1.15-1.23-2.67-1.73-1.66-.58-3.18-1.37-3.18-3.46,0-2.24,1.66-3.6,4.19-3.6,1.3,0,2.53.29,3.68.87v2.6c-1.08-.72-2.38-1.08-3.68-1.15-.87,0-1.52.36-1.52,1.15,0,1.08,1.08,1.15,2.53,1.59,1.8.58,3.25,1.44,3.25,3.53,0,2.31-1.8,3.75-4.33,3.75-1.3,0-2.6-.29-3.75-.87v-2.6Z"></path><path id="path16" class="cls-4" d="m509.56,112.78h7.43v2.31h-4.76v2.38h4.04v2.16h-4.11v2.88h4.98v2.31h-7.58v-12.04Z"></path><path id="path18" class="cls-4" d="m527.46,112.78h2.6l4.84,11.97h-2.81l-.94-2.52h-4.84l-1.01,2.52h-2.67l4.84-11.97Zm-.43,7.43h3.25l-.51-1.3c-.36-.94-.79-2.16-1.08-3.03h-.07c-.29.94-.72,2.09-1.15,3.1l-.43,1.23Z"></path><path id="path20" class="cls-4" d="m540.74,112.78h3.75c1.3-.07,2.6.22,3.75.79.94.58,1.52,1.66,1.44,2.81.07,1.51-.94,2.88-2.45,3.32l3.39,5.05h-3.03l-3.03-4.76h-1.15v4.76h-2.6l-.07-11.97Zm3.97,5.34c.58,0,1.15-.07,1.66-.29.43-.22.72-.72.65-1.23.07-.5-.22-.94-.65-1.15-.65-.29-1.3-.36-1.95-.29h-1.01v2.96h1.3Z"></path><path id="path22" class="cls-4" d="m565.42,124.17c-1.08.5-2.31.79-3.54.79-3.83,0-6.5-2.67-6.5-6.13s2.67-6.2,6.5-6.2c1.16,0,2.31.22,3.32.72v2.67c-1.01-.65-2.09-1.01-3.32-1.01-2.02-.07-3.83,1.44-3.9,3.53v.29c-.07,2.09,1.59,3.75,3.68,3.82h.36c1.23,0,2.38-.43,3.39-1.08v2.6Z"></path><path id="path24" class="cls-4" d="m571.63,112.78h2.6v4.61h5.2v-4.61h2.6v11.97h-2.6v-5.05h-5.2v5.05h-2.6v-11.97Z"></path><path id="path26" class="cls-2" d="m383.04,103.7c-.07,0-.14.07-.22.07h-.51c-.07,0-.14.07-.14.07h-.07c-.07,0-.14.07-.14.07q-.07,0-.14.07h-1.23c-.07,0-.14,0-.22.07h-.58c-.07,0-.22,0-.29.07h-.58s-.07.07-.14.07h-.58c-.14,0-.29,0-.43.07l-.51.07h-.58c-.07,0-.22-.07-.29-.07s-.22,0-.29.07h-2.09l-.72-.07h-3.1c-.14,0-.22,0-.29.07h-.29c-.07,0-.14,0-.22-.07-.43.07-.87.07-1.3,0-.43-.07-.87-.14-1.3-.22-.14,0-.29-.07-.43-.07h-.43c-.29.14-.58.14-.87,0-.29-.14-.51-.29-.72-.5q-.07-.07-.14-.14c-.07-.07-.07-.14-.14-.14-.14-.22-.29-.43-.43-.58-.14-.22-.22-.5-.29-.79v-1.3c.07-.22.14-.43.29-.58.14-.14.29-.22.43-.36.07,0,.14-.07.14-.14s.07-.14.07-.22c0-.29.07-.58.14-.87.07-.29.07-.58.07-.87v-.58c.07-.07.07-.22.07-.29v-.29c0-.29.07-.5.07-.79s.07-.5.14-.79c0-.22.07-.36.14-.58.07-.22.07-.43,0-.58v-.58c0-.29.07-.58.14-.87.07-.29.22-.65.43-.87.29-.43.58-.87.87-1.23.29-.36.58-.79.94-1.23.22-.22.36-.43.51-.72.14-.22.14-.58.07-.79v-.14c0-.22.07-.43.22-.65.14-.22.29-.43.43-.65,0-.22.07-.36.14-.58.07-.14.14-.36.29-.5.07-.14.14-.29.22-.43-.14-.36-.14-.58-.14-.72,0-.43.14-.94.29-1.37.14-.43.43-.87.72-1.23,0,0,.07-.07.07-.14v-.14c-.07-.5,0-1.08.07-1.59.14-.5.51-1.01,1.01-1.3.36-.29.65-.5.94-.79s.65-.58.94-.87c.51-.43.94-.94,1.37-1.51.43-.58.87-1.08,1.23-1.51.07-.07.07-.14.07-.22s0-.14-.07-.22c-.22-.29-.29-.65-.36-1.08,0-.36.07-.79.22-1.15.14-.36.36-.79.43-1.15.14-.36.29-.79.36-1.15.07-.22.14-.43.29-.58.14-.14.29-.36.51-.5.72-.5,1.44-1.08,2.02-1.8.58-.72,1.08-1.51,1.3-2.38,0-.07.07-.14.07-.22s0-.14-.14-.22c-.07-.07-.14-.14-.22-.22,0-.07-.07-.14-.07-.29,0-.22-.07-.43-.07-.72,0-.22,0-.43.07-.65,0-.14,0-.22.07-.36.07-.07.07-.22.14-.29,0-.07.07-.14.07-.22v-.79c0-.22.14-.43.29-.58.14-.07.29-.22.43-.29.14-.07.29-.22.36-.29.29-.22.58-.36.87-.5.43-.22.72-.36,1.01-.43.22,0,.43-.07.65-.07l.65-.07c.43-.07.79-.14,1.23-.29l1.23-.43c.14,0,.29-.07.36-.07s.22,0,.29-.07h.36c.07,0,.14,0,.22-.07.14,0,.29-.07.36-.07h.87c.14,0,.22-.07.36-.07h.29c.51,0,.94-.07,1.44-.07h5.85c.51,0,.94,0,1.37.07.43,0,.87,0,1.3.07.43.07.87.07,1.3.07.22,0,.51,0,.72.14.22.07.43.22.58.29.14.07.29.22.36.36.07.14.14.29.22.5,0,.07.07.22.07.29s.07.22.07.29c.07.14.14.29.14.43s0,.36-.07.5c.14.14.14.22.22.22q.07.07.14.07c.29.07.65.22.87.36.29.14.51.43.72.65.14.22.29.36.43.58.14.22.29.43.36.65.14.22.36.5.51.72.14.29.29.58.51.87.29.5.58,1.01.72,1.51.22.58.36,1.08.51,1.66.07.5.22,1.01.36,1.51.14.5.43,1.01.72,1.44.43.5.72,1.08,1.01,1.73.29.58.58,1.95.79,2.6.14.36.29.79.43,1.15.07.43.14.87.07,1.23,0,.43-.07.87-.14,1.23-.07.36-.14,2.31-.22,2.67-.14.36-.22.79-.22,1.15s0,.72.07,1.15c.07.36.14.65.14.94.07.29.14.58.22.87.07.29.07.58,0,.94-.07.29-.22.58-.43.79-.07.07-.07.14-.07.22s.07.07.14.14c.14.07.29.22.43.29.14.07.29.22.51.29.22.07.36.22.51.43.07.14.22.36.29.5.07.87.22,1.8.36,2.67.14.87.29,1.8.43,2.67.07.5.14.94.29,1.44.14.5.29.94.43,1.44v1.08c-.07.22-.14.43-.22.65-.07.22-.14.43-.29.58-.14.22-.29.43-.36.72-.14.22-.22.5-.29.72-.14.29-.29.58-.43.79-.14.22-.36.43-.58.58-.22.22-.51.36-.79.43-.29.07-.58.14-.87.22q-.07.07-.14.07c-.07,0-.14,0-.14.07h-.29c-.07,0-.14.07-.22.07s-.14,0-.22.07c-.29,0-.58,0-.87.07l-.87.07c-.07,0-.14-.07-.14,0h-.14l-1.15.07c-.36,0-.79.07-1.23.07-.36,0-.65-.07-.94-.14l-.79-.5c-.14-.07-.22-.07-.29-.14-.14-.07-.22-.14-.29-.22-.22-.22-.36-.43-.51-.65-.14-.22-.29-.5-.36-.72-.07-.07-.07-.14-.14-.22v-.43c0-.07,0-.14-.07-.22v-1.59c0-.07-.07-.14-.07-.29v-.36c0-.07,0-.14-.07-.14,0-.22,0-.36-.07-.58-.07-.14-.07-.29-.07-.5v-.58c0-.22,0-.43.07-.58.07-.22.14-.36.22-.58.07-.14.22-.29.29-.43.07-.14.22-.29.29-.43.36-.58.79-1.08,1.15-1.59.36-.58.72-1.15,1.01-1.73.07-.14.14-.22.22-.36.07-.14.07-.22.14-.36,0-.07,0-.14.07-.22,0-.07.07-.14.07-.22.14-.22.22-.36.36-.58.07-.22.22-.36.36-.58.07-.07.07-.14.07-.22s-.07-.07-.14-.14l-.07-.07c-.07-.07-.14-.14-.22-.14-.22-.22-.43-.43-.65-.72-.22-.29-.43-.5-.58-.79-.14-.29-.36-.5-.58-.72-.22-.22-.36-.5-.58-.79-.43-.43-.79-.94-1.15-1.44-.36-.5-.65-1.08-.94-1.66-.22-.5-.43-2.45-.58-2.96-.14-.5-.36-1.01-.58-1.51v-.22c0-.22-.07-.36-.22-.58-.07-.14-.22-.29-.43-.43-.07-.07-.22-.14-.29-.14l-.36-.14c-.29-.14-.51-.29-.72-.5-.22-.22-.43-.43-.65-.65l-.07-.07-.07-.07c-.07-.14-.22-1.01-.29-1.08-.07-.14-.22-.29-.36-.36-.07-.07-.14-.14-.22-.22-.07-.07-.22-.14-.29-.14-.22,0-.43-.07-.65-.14-.22-.07-.36-.22-.58-.29-.07-.07-.14-.07-.22-.07s-.22.07-.29.07l-.22.22c-.07.07-.14.14-.14.22-.22.36-.43.65-.72.94s-.58.58-.87.79c-.43.36-.94.72-1.44,1.01-.51.29-1.08.58-1.59.87-.36.14-.65.36-.94.5-.29.22-.58.43-.79.72-.07.07-.22.22-.36.29l-.36.22c-.14,0-.22.07-.29.14-.07.07-.14.07-.22.14-.14.07-.22.14-.29.29-.07.14-.07.22-.07.36,0,.36-.07.65-.14,1.01-.07.36-.14.65-.22,1.01l-.07.07v.43c0,.07-.07.14-.07.22v.14c0,.22,0,.43.07.65l.22.65c0,.07.07.22.14.29.07.07.07.22,0,.29v.36c.07.07.07.14.07.22s-.07.14-.07.22c-.07.14-.14.29-.22.43l-.22.36c-.07.14-.22.22-.29.36-.07.14-.22.22-.36.29-.07.07-.14.14-.22.22-.07.07-.22.14-.22.22s-.07.14-.07.22-.07.14-.07.22c0,.22,0,.43.07.65s.14.43.22.58c.14.29.29.58.43.87.14.29.14.65.14,1.01v1.08c0,.36-.07.72-.07,1.08s0,.72.07,1.08c-.07.14-.07.29-.07.5,0,.14.07.36.07.5l.07.07v.07c0,.29,0,.5.07.79.07.29.07.5,0,.79v.07l-.07.07v.07l.07.07c0,.14,0,.36.07.5v.58c.07.22.14.43.22.58.07.22.07.43.14.65.07.22.07.36.14.58.07.22.07.36,0,.58,0,.07-.07.14-.07.29,0,.07,0,.14.07.22,0,.36,0,.72-.14,1.01-.14.36-.29.65-.43,1.01,0,.07-.07.22-.07.29,0,.14-.07.22-.07.36v.5c0,.22-.07.5-.14.72-.14.22-.22.36-.36.58-.22.22-.43.43-.65.58-.29,0-.58.07-.94.14.07-.07.07,0,0,0Z"></path><path id="path28" class="cls-4" d="m393.57,66.86c.07-.22.22-.36.43-.5.36-.29.65-.58.94-.94.29-.29.58-.65.79-1.01.36-.43.65-.94.87-1.44.29-.5.51-1.01.65-1.59l.22-.58c.07-.22.22-.36.36-.58q.07-.07.14-.07h.07v.58c0,.07,0,.22.07.29.07.5.14,1.01.22,1.51.07.43.07.87.07,1.3-.07.65.07,1.3.29,1.87.22.5.58.94,1.01,1.3.14.14.29.29.51.36.14.14.36.22.58.36.14.07.29.22.36.29.14.14.22.29.29.43.14.36.29.72.43,1.08.14.36.29.72.51,1.08l.29.72c.14.29.29,1.15.58,1.3.29.22.58.36.94.58.36.14.65.29,1.01.36.29.07.51.22.72.36.22.14.43.36.58.58.22.36.43.72.51,1.15.14.36.22.79.29,1.15.07,1.01.22,2.02.51,3.03.29.5.65.94,1.01,1.3.14.14.36.29.58.29s.36,0,.58-.14c.07,0,.22-.07.22-.14l.22-.22.07-.07c.07,0,.07-.07.14-.07,0,.07.07.07.07.14v.5c.07.43.14.87.22,1.3.07.43.14.87.29,1.3.07.22.07.5-.07.72-.14.22-.29.36-.43.58-.14.14-.29.22-.43.22l-.36-.07h-.36c-.07,0-.22.07-.29.14-.14.07-.22.14-.29.22-.07.07-.14.14-.22.22-.07,0-.07.07-.14.07v.14l.07.07h.07c.07,0,.14,0,.22-.07.07-.07.14-.07.22-.14.14-.22.36-.29.58-.29.22.07.43.22.51.43,0,.07,0,.14.07.22,0,.07.07.07.07.14,0,.29.07.58.07.87s.07.58.07.87c0,.36-.07.65-.07.94s-.07.58-.14.94c0,.43-.07.94-.14,1.37s-.07.87-.07,1.37v.22c0,.07-.07.22-.07.29-.07.14-.14.36-.14.58,0,.14.07.36.22.5.14.29.22.43.22.5s-.14.14-.51.22c-.07,0-.14.07-.22.14-.07.07-.14.14-.22.29-.14.36-.29.79-.36,1.15-.07.43-.22.79-.29,1.23-.07.22-.22.43-.36.58-.14.14-.36.29-.58.36-.22.07-.43.14-.65.29-.22.14-.36.36-.51.58-.14.22-.29.43-.36.72-.07.22-.22.5-.36.72-.07.14-.22.29-.36.36-.14.07-.29.07-.43.07-.36-.07-.65-.14-1.01-.29-.29-.14-.58-.29-.87-.5-.22-.07-.36-.22-.51-.36-.14-.14-.22-.36-.29-.58-.07-.22-.14-.43-.14-.58,0-.22-.07-.43-.07-.58,0-.5,0-1.08-.07-1.59,0-.5-.07-1.01-.22-1.59v-.72c0-.29.14-.5.29-.72.14-.22.29-.5.43-.72l.51-.72c.36-.36.65-.79.94-1.23s.51-.87.72-1.37c.14-.36.36-.65.51-1.01.14-.36.36-.72.58-1.01.14-.29.36-.5.58-.72.22-.22.58-.36.87-.36q.07,0,.07-.07l.07-.07q0-.07-.07-.14l-.14-.07c-.07,0-.14,0-.22.07-.07,0-.14.07-.22.07-.14.07-.22.14-.29.07-.07,0-.14-.07-.22-.07-.29-.22-.51-.36-.72-.58-.22-.22-.36-.43-.58-.65-.29-.36-.58-.72-.87-1.08-.29-.36-.58-.72-.87-1.08-.51-.5-1.01-1.08-1.37-1.73-.36-.65-.72-1.3-1.01-2.02-.22-.5-.36-2.45-.58-2.96-.22-.5-.36-1.01-.58-1.51-.07-.07-.14-.22-.22-.29-.07-.07-.14-.14-.29-.22-.29-.14-.58-.29-.87-.5-.29-.22-.58-.43-.79-.65-.14-.14-.29-1.08-.43-1.23-.14-.14-.29-.36-.43-.43-.14-.22-.36-.36-.51-.5-.14-.14-.36-.22-.58-.29-.22-.07-.36-.07-.58-.14-.14-.07-.36-.14-.51-.29-.14-.07-.22-.22-.36-.29-.07-.07-.14-.22-.22-.29-.22-.29-.36-.58-.51-.94-.14-.36-.22-.72-.14-1.08,0-.87.14-1.08.22-1.3Zm9.38,8.22c.14.07.22.14.29.29,0,.07.07.07.14.14h.87c.22,0,.43,0,.72.07.07,0,.22-.07.22-.14.07-.07.07-.22.07-.29-.07-.07-.14-.22-.22-.22-.07-.07-.22-.14-.29-.22-.29-.14-.65-.22-.94-.29-.36,0-.65,0-1.01.07l-.22.07c-.07,0-.14.07-.14.14s.07.14.07.22l.07.07c.14-.07.22,0,.36.07Zm-1.44-16.29c.29.07.58.07.87.07.14,0,.22-.07.36-.14.14-.07.22-.14.29-.22.07-.07.14-.22.07-.29-.07-.07-.07-.14-.07-.29,0-.07-.07-.07-.07-.07-.07,0-.07.07-.14.07-.22.14-.51.29-.79.29s-.58.07-.87.07c-.07.07-.14.07-.22.07s-.14.07-.22.07c.22.14.51.29.79.36Zm-29.3,44.27c-.51-.29-1.01-.5-1.59-.58-.22,0-.36-.07-.51-.22-.14-.07-.29-.22-.43-.29,0,0-.07,0-.07-.07s-.07-.07-.07-.07c-.14-.29-.22-.65-.29-.94-.07-.36-.07-.65,0-1.01.07-.22.14-.36.29-.58.14-.14.22-.36.36-.5.22-.36.51-.72.79-1.01.29-.29.58-.58.94-.87.22-.14.43-.29.65-.43l.65-.43.43-.29c.14-.07.29-.22.36-.36.07-.07.07-.14.07-.29,0-.07-.07-.07-.22-.14-.29-.07-.58-.14-.87-.14-.29-.07-.58-.14-.87-.22-.14,0-.29-.07-.43-.14-.14-.07-.29-.14-.43-.22-.14-.07-.22-.22-.22-.36,0-.22.07-.36.22-.5l.14-.14q.07-.07.14-.14c.07-.22.22-.36.36-.5.14-.07.36-.14.58-.14.29-.07.65-.07.94-.07s.65,0,.94-.07l.65-.07c.22,0,.43-.07.65-.14.14,0,.29-.07.36-.22.07-.07.14-.22.22-.36v-.14c0-.07-.07-.07-.14-.07h-3.54c-.07,0-.07-.07-.07-.14s0-.14.07-.14h3.03c.14,0,.29-.07.43-.07-.22-.36-.29-.79-.07-1.15.22-.36.36-.72.65-1.08.36-.5.65-.94.94-1.44.29-.5.58-1.01.87-1.59.22-.43.36-.87.43-1.3.14-.43.14-.94.14-1.37v-2.02c0-.58.14-1.23.29-1.8.14-.58.43-1.15.87-1.66.22-.29.43-.65.65-.87.29-.29.58-.5.87-.72.22-.07.43-.14.65-.22.22-.07.43-.07.65-.14.58-.22,1.08-.43,1.52-.79.51-.36.87-.79,1.23-1.3.14-.22.22-.5.36-.72.07-.29.14-.58.22-.87.14-.43.29-.94.43-1.37.22-.43.36-.87.58-1.3.14-.43.29-.79.43-1.23.14-.43.22-.87.36-1.3.07-.43.14-.87.29-1.3.14-.43.22-.79.43-1.23.07-.14.22-.36.36-.43.14-.14.29-.14.51-.14.14,0,.22,0,.36-.07.14-.07.22-.22.29-.29.22-.29.43-.65.58-.94.07-.29.29-.58.58-.87.14-.14.29-.36.51-.5.14-.14.36-.22.58-.22h.29l.36.07h.22c.07,0,.14-.07.14-.14.07-.07.07-.14.14-.14,0-.07.07-.07.14-.14.07-.14.14-.22.22-.29.07-.07.22-.14.36-.07.14,0,.29.14.29.22.07.14.07.22.14.36,0,0,.07.07.07.14s0,.07.07.14c0-.07.07-.14.07-.22v-.22c.14-.65.36-1.23.51-1.87.14-.65.43-1.23.65-1.8.07-.14.07-.29.07-.43,0-.07-.14-.07-.43-.07h-6.71c-.51,0-1.01.14-1.52.22-.51.14-1.01.29-1.52.43l-.72.22c-.22.07-.43.07-.72.07-.51,0-1.01.14-1.44.29-.43.14-.87.43-1.3.72l-.36.14c-.07.07-.14.14-.29.22-.07.07-.14.14-.22.29-.07.07-.07.22-.07.29s0,.22.14.29c.07.07.14.07.29.14.29,0,.58.07.87.07s.58-.07.87-.22c.22-.14.43-.22.58-.22.22,0,.36-.07.58-.07h.22c.07,0,.07.07.07.14s0,.14-.07.14-.14.07-.22.07c-.22,0-.43,0-.65.07-.22.07-.43.07-.72.14-.14.07-.29.14-.43.14-.14.07-.29.07-.43,0h-.43c-.14,0-.29,0-.36-.07-.14-.07-.22-.07-.36,0-.14.07-.22.14-.22.29-.07.22-.14.43-.14.65v.87c0,.07.07.14.07.22s.07.29.22.29.22,0,.29-.14c.29-.29.65-.43,1.01-.58.36-.14.72-.14,1.15-.14.14,0,.29,0,.43-.07.14-.07.29-.14.43-.29.22-.14.36-.29.65-.36.22-.07.43-.07.65-.07.14,0,.29,0,.43-.07l.43-.22h.14q.07,0,.14.07c.07.07,0,.14,0,.14v.07c-.22.07-.36.14-.58.22-.22.07-.36.07-.58.07-.14,0-.29,0-.43.07-.14.07-.29.14-.43.22-.22.14-.43.22-.65.36-.22.07-.51.14-.79.07-.36,0-.65,0-.94.14s-.58.36-.79.58c-.14.07-.22.22-.29.36-.07.14-.07.36-.14.5-.14.43-.29.87-.58,1.23-.22.36-.51.72-.79,1.08-.29.36-.65.72-1.01,1.08-.36.36-.72.65-1.15.87-.14.14-.29.29-.36.43-.07.22-.14.36-.22.58-.07.36-.14.65-.29,1.01-.14.29-.22.65-.43.94-.14.36-.22.72-.22,1.08s.14.72.29,1.01c.14.29.29.58.43.87.14.29.29.58.36.94.07.36.22.65.51.87.22.22.51.43.79.65l.07.07c.07,0,.07.07.07.07,0,0,.07,0,.07.07v.14c0,.07-.07.07-.14.07s-.07,0-.14-.07c-.07-.07-.22-.07-.29-.14-.07-.07-.14-.07-.22-.14-.07-.07-.14-.14-.22-.22-.07-.07-.14-.14-.22-.22l-.22-.22c-.07-.07-.14-.14-.22-.22q0-.07-.07-.07c-.07-.07-.14-.14-.22-.29,0-.14-.07-.22-.07-.36s-.07-.29-.14-.43c-.07-.14-.14-.29-.14-.36-.07-.07-.14-.07-.14-.07,0,0-.07,0-.14.07-.22.29-.43.58-.72.87-.29.29-.51.58-.72.87-.22.29-.58.72-.94,1.01-.36.29-.65.65-1.01,1.01-.22.22-.43.36-.65.58-.22.14-.43.36-.65.58-.22.14-.36.43-.51.65-.07.22-.14.5-.22.72v.58c0,.07.07.14.07.14h.14c.07-.07.07-.14.14-.14.22-.29.36-.5.51-.79.14-.29.29-.58.43-.87,0-.07,0-.14.07-.22,0-.07.14-.07.14-.07.07,0,.07.07.07.14v.22c-.22.43-.43.87-.72,1.3-.29.43-.58.79-.94,1.08-.22.14-.36.36-.43.65-.07.29-.22.5-.29.72-.07.22-.14.43-.14.65-.07.22-.07.43-.07.65v.22c0,.07-.07.14-.07.22-.22.22-.36.43-.51.72-.14.22-.22.5-.22.79,0,.07-.07.22-.07.29s-.07.22-.14.29c0,.07-.07.22-.07.29v.22c0,.36,0,.72-.14,1.01-.14.36-.36.65-.65.94-.29.36-.65.79-.94,1.23-.29.43-.58.87-.87,1.37-.07.22-.14.43-.22.58.14.43.07.65.07.79,0,.43-.07.87-.14,1.3-.07.43-.14.87-.22,1.3-.07.29-.07.58-.07.79,0,.43,0,.87-.07,1.3,0,.43-.07.87-.14,1.3v.29c0,.07,0,.22-.07.29,0,.07-.07.22-.14.29-.07.14-.14.22-.29.22-.22.22-.36.43-.43.72-.07.29-.07.58-.07.87,0,.36.07.65.22.94.14.29.36.5.65.65.07.07.14.22.22.29.07.07.14.14.29.22.07.07.22.07.29.14.14.07.22.07.36,0,.22-.07.43-.07.65-.07l.65.07c.51.07,1.08.14,1.59.22h1.66c.58,0,1.08-.07,1.66-.07s1.15,0,1.66.07c-.07.07-.07.14,0,.14h.07c-.51-.29-1.01-.58-1.52-.79Zm10.03-1.8c-.36-.07-.65-.07-1.01-.14-.14,0-.36,0-.51.07-.14.07-.29.14-.36.22-.14.07-.22.22-.22.29.07.14.14.22.22.29.22.07.36.07.58.07s.36,0,.58-.07l.72-.22c.22-.07.43-.14.72-.22l.14-.07q.07-.07.14-.14c-.36,0-.72,0-1.01-.07Z"></path></g><g><path class="cls-2" d="m824.89,86.61v-3.14c.55-1.01,1.37-.96,2.23-.96,6.07.02,12.14,0,18.21,0h8.14c.36,1.03.71,2.03,1.13,3.25.62-1.15,1.14-2.11,1.7-3.14h28.21v4.9h-3.08c-17.79,0-35.58,0-53.37-.02-1.08,0-2.35.47-3.15-.91Z"></path><path class="cls-2" d="m757,68.67v-4.82h53.14c.67,1.41,1.44,2.93,1.51,4.82h-54.65Z"></path><path class="cls-2" d="m811.83,110.8c-.54,1.69-1.03,3.22-1.54,4.82h-53.28c-.17-1.5-.02-3.11-.09-4.82h54.91Z"></path><path class="cls-2" d="m757,59.37v-5.01h3.1c11.4,0,22.8.03,34.21-.02,3.4-.02,6.32,1.29,9.17,2.87.86.48,1.63,1.14,2.42,1.71-.02.12,0,.21-.05.26-.06.08-.15.18-.23.18-16.11,0-32.22,0-48.62,0Z"></path><path class="cls-2" d="m757,125.09v-4.9h49.24c-2.59,2.15-5.22,3.4-8.09,4.31-1.28.41-2.51.6-3.83.6-11.51-.02-23.01-.01-34.52-.01h-2.8Z"></path><path class="cls-2" d="m766.43,96.04v-3.45c.5-.22,1.03-.61,1.57-.64,1.56-.09,3.13-.03,4.7-.03h32.39c1.31,1.37,2.67,2.79,4.02,4.22.05.06,0,.2,0,.31-.03.09-.05.19-.11.27-.06.08-.15.21-.22.21-13.69,0-27.38,0-41.08,0-.19,0-.38-.08-.56-.16-.09-.04-.15-.14-.22-.21-.15-.15-.3-.29-.5-.5Z"></path><path class="cls-2" d="m766.44,86.39v-3.22c.54-.22,1.06-.56,1.62-.61,1.04-.1,2.09-.03,3.13-.03h37.77c-.46,2.27-2.47,3.28-3.85,5.01h-2.95c-10.97,0-21.95,0-32.92-.01-.99,0-2.16.44-2.79-1.13Z"></path><path class="cls-2" d="m752.48,54.46v4.8h-34.45c-.17-1.48-.02-3.09-.09-4.8h34.54Z"></path><path class="cls-2" d="m718.02,68.66v-4.82h34.44c.17,1.5.03,3.11.09,4.82h-34.53Z"></path><path class="cls-2" d="m718.02,115.6v-4.79h34.46v4.79h-34.46Z"></path><path class="cls-2" d="m752.48,120.18v4.82h-34.44c-.17-1.5-.03-3.11-.09-4.82h34.53Z"></path><path class="cls-2" d="m860.75,68.68c.62-1.73,1.2-3.34,1.76-4.89h31.34v4.89h-33.1Z"></path><path class="cls-2" d="m846.67,63.84c.69,1.58,1.25,3.1,1.54,4.83h-32.65v-4.83h31.11Z"></path><path class="cls-2" d="m815.56,54.36h27.98c-.19,1.75,1.66,2.94,1.37,4.91h-29.35v-4.91Z"></path><path class="cls-2" d="m893.93,54.45v4.8h-29.53c.52-1.61,1.01-3.14,1.54-4.8h27.99Z"></path><path class="cls-2" d="m857.27,78.04c.79-1.84,1.44-3.34,2.07-4.83h25.14c.17,1.51.02,3.12.09,4.83h-27.3Z"></path><path class="cls-2" d="m825.71,73.21h24.33c.55,1.53,1.1,3.07,1.69,4.73.05-.09.02,0-.03.05-.07.07-.16.14-.25.14-8.58,0-17.15,0-25.68,0-1.31-1.74-1.31-3.26-.06-4.93Z"></path><path class="cls-2" d="m893.93,110.81v4.79h-25.03v-4.79h25.03Z"></path><path class="cls-2" d="m840.49,110.79v3.89c-.61,1.29-1.63,1.03-2.54,1.03-7.42,0-14.83,0-22.4,0v-4.92h24.94Z"></path><path class="cls-2" d="m840.5,120.18v3.9c-.6,1.23-1.6,1-2.52,1-6.79,0-13.58,0-20.38,0h-2.04v-4.91h24.93Z"></path><path class="cls-2" d="m893.83,125.09c-7.58,0-15,0-22.41,0-.91,0-1.92.23-2.52-1.01v-3.9h24.93v4.91Z"></path><path class="cls-2" d="m844.45,96.82c-.55-1.57-1.06-3.03-1.67-4.76,4.2-.31,8.13-.1,12.05-.14,3.96-.04,7.93,0,12.05,0-.6,1.71-1.16,3.29-1.72,4.9h-20.72Z"></path><path class="cls-2" d="m812.41,73.25c-.44,1.68-.84,3.23-1.25,4.81h-15.17c-.17-1.49-.02-3.1-.08-4.81h16.5Z"></path><path class="cls-2" d="m811.17,101.4c.4,1.6.8,3.15,1.23,4.85h-16.34v-4.85h15.11Z"></path><path class="cls-2" d="m884.5,92.02v4.79h-15.59c-.17-1.47-.02-3.08-.09-4.79h15.67Z"></path><path class="cls-2" d="m868.9,106.22v-4.81h15.59c.16,1.49.02,3.11.09,4.81h-15.67Z"></path><path class="cls-2" d="m743.05,101.41v4c-.52.87-1.29.93-2.17.92-4.38-.04-8.77-.02-13.4-.02-.18-1.58-.03-3.19-.09-4.9h15.67Z"></path><path class="cls-2" d="m766.08,101.35h15.89v4.75c.05-.06,0,.03-.09.09-.08.06-.17.11-.26.11-4.79,0-9.58,0-14.29,0-1.75-1.35-.49-3.18-1.25-4.96Z"></path><path class="cls-2" d="m845.96,101.38h17.23c.01,1.78-.84,3.23-1.42,4.84h-13.72c-.6-1.4-1.29-2.98-2.09-4.84Z"></path><path class="cls-2" d="m743.05,73.91v3.3c-.54.95-1.33.96-2.2.95-4.38-.03-8.75-.01-13.39-.01-.17-1.58-.03-3.19-.1-5.01h5.34c1.77,0,3.55-.09,5.31.03,1.67.11,3.51-.65,5.03.75Z"></path><path class="cls-2" d="m766.4,77.44v-3.31c.4-.72,1.02-1.02,1.96-1.01,4.48.05,8.96.02,13.58.02v5.01c-4.66,0-9.32.02-13.99-.03-.53,0-1.06-.45-1.55-.67Z"></path><path class="cls-2" d="m743.04,83.21v3.37c-.55,1.04-1.39.96-2.23.96-4.37-.01-8.75,0-13.27,0v-5.01c4.64,0,9.31-.02,13.97.03.53,0,1.06.44,1.53.65Z"></path><path class="cls-2" d="m840.5,101.39v4.25c-.52.22-1.05.63-1.58.64-4.17.05-8.34.06-12.51,0-.53,0-1.05-.45-1.5-.66v-4.23h15.59Z"></path><path class="cls-2" d="m743.1,92.45v3.55c-.31.3-.6.6-.87.86h-14.75v-4.94c2.59,0,5.27-.1,7.93.03,2.51.12,5.11-.57,7.68.5Z"></path><path class="cls-2" d="m840.49,91.92v4.32c-.46.21-.99.65-1.52.66-4.16.06-8.33.06-12.49,0-.54,0-1.06-.41-1.59-.63v-3.67c.49-.22,1.02-.64,1.55-.65,4.66-.05,9.32-.03,14.04-.03Z"></path><path class="cls-2" d="m860.07,110.81c-.53,1.68-1.01,3.22-1.52,4.84h-7.35c-.56-1.55-1.14-3.15-1.75-4.84h10.62Z"></path><path class="cls-2" d="m854.76,125.66c-.73-2.07-1.28-3.61-1.91-5.4h3.95c-.61,1.62-1.24,3.27-2.05,5.4Z"></path></g><g><circle class="cls-4" cx="1828.57" cy="90" r="36"></circle><path class="cls-4" d="m1793.31,88.17c.38.55.38,1.09,0,1.64v-1.64Z"></path><path class="cls-4" d="m1793.31,90.51c.38.55.38,1.09,0,1.64v-1.64Z"></path><path class="cls-3" d="m1825.65,123.1c.57.02,1.17-.24,1.69.21h-1.64c-.08-.03-.11-.07-.1-.12.01-.06.03-.08.05-.08Z"></path><path class="cls-3" d="m1829.68,123.3c.52-.44,1.12-.18,1.69-.21.05.06.07.11.03.15-.03.04-.05.05-.08.05h-1.64Z"></path><path class="cls-1" d="m1825.65,123.1c.03.06.05.13.05.21h-1.41c0-.07,0-.14,0-.21.46,0,.91,0,1.37,0Z"></path><path class="cls-1" d="m1831.33,123.3c0-.07.01-.14.05-.21.46,0,.91,0,1.37,0,0,.07,0,.14,0,.21h-1.41Z"></path><path class="cls-4" d="m1793.31,86.3c.07-.01.14-.01.21-.01,0,.41.15.84-.21,1.18v-1.17Z"></path><path class="cls-4" d="m1793.52,94.04h-.11s-.11-.01-.11-.01v-1.17c.37.34.22.77.21,1.18Z"></path><g><path class="cls-4" d="m1829.68,123.3h-2.35c-.54-.25-1.1-.06-1.65-.12-.43,0-.86,0-1.3,0-4.98-.03-9.52-1.64-13.8-4.02-8.26-4.6-13.9-11.35-16.55-20.49-.44-1.51-.57-3.06-.61-4.62-.05-.4.12-.82-.12-1.21v-.7c.19-.55.19-1.09,0-1.64v-.7c.19-.55.19-1.09,0-1.64v-.7c.24-.39.06-.82.12-1.22,0-4.31,1.49-8.2,3.61-11.83,5.55-9.5,13.84-15.37,24.66-17.08,6.5-1.03,13.16-.96,19.53,1.45,9.96,3.77,17.11,10.42,21,20.4,1.01,2.6,1.53,5.31,1.56,8.1.04,3.81.27,7.64-.79,11.38-2.31,8.11-7.11,14.4-14.11,19.05-3.52,2.33-7.35,3.98-11.44,4.98-1.56.38-3.17.4-4.76.5-.44,0-.88,0-1.32,0-.56.06-1.13-.13-1.68.12Z"></path><path class="cls-2" d="m1839.77,113.69c-.12.92-.59,1.58-1.15,2.17-1.84,1.97-4.02,3.44-6.51,4.48-2.3.95-4.58.75-6.87.01-2.66-.85-5.14-2.08-7.42-3.69-.56-.4-1.11-.84-1.47-1.49.36-.38.72-.1,1.01-.03,3.58.78,6.62-.23,9.27-2.68,2.45-2.27,3.78-5.13,4.42-8.33.45-2.27.51-4.57.07-6.86-.49-2.54-2.35-4.28-4.9-4.69-2.06-.34-4.04-.03-6.03.46-3.74.91-6.91,2.87-9.75,5.38-1.61,1.43-2.54,3.27-2.72,5.41-.1,1.22.27,2.38.85,3.47.75,1.4,1.8,2.54,2.93,3.63.33.32.7.62.95,1.07-.72.28-1.27-.02-1.81-.32-1.38-.76-2.55-1.8-3.71-2.85-1.28-1.15-2.5-2.36-3.61-3.68-.25-.3-.5-.57-.93-.65-1-.19-1.6-.91-2.11-1.72-.64-1.01-.98-2.14-1.05-3.31-.07-1.09-.49-1.86-1.49-2.31-.47-.21-.87-.52-1.09-1.04.23-.6.66-1.05,1.13-1.46,2.94-2.58,5.92-5.1,9.17-7.28,1.13-.76,2.33-1.44,3.52-2.1,1.29-.71,2.33-1.68,3.29-2.78,1.16-1.32,2.26-2.69,3.57-3.87,1.41-1.27,3.15-2.01,4.8-2.89,4.59-2.44,9.54-3.84,14.59-4.91,3.85-.82,7.72-1.56,11.6-2.24,1.23-.22,2.47-.36,3.71-.52.27-.04.54-.06.85.09.14.64-.34.98-.72,1.32-1.01.93-2.14,1.71-3.33,2.39-1.42.81-2.84,1.62-4.44,2.08-.86.25-1.69.25-2.54.01-.79-.22-1.57-.46-2.35-.71-.94-.31-1.91-.4-2.89-.35-.27.01-.56,0-.73.34.39.44.97.42,1.46.53,1.68.37,3.35.73,4.93,1.45.96.44,1.93.15,2.86-.07,1.49-.35,2.88-.98,4.16-1.83.98-.65,1.94-1.32,2.91-1.96,1.25-.82,1.79-.75,2.87.32,1.04,1.03,1.81,2.25,2.47,3.54,2.21,4.28,3.53,8.8,3.87,13.62.17,2.45-.22,4.82-.61,7.2-.33,2-.76,3.98-1.35,5.92-.13.44-.21.91-.64,1.19-.48-.1-.72-.48-1.02-.78-.58-.58-1.19-1.13-1.87-1.59-.79-.55-1.66-.85-2.62-.92-.7-.05-1.4-.13-2.1-.21-.23-.02-.47-.05-.67-.4,1.76-5.17,1.26-10.1-2.65-14.26-2.63-2.79-6.07-3.97-9.92-4.18.04.49.35.47.58.55,2.07.69,4.14,1.39,6.03,2.54,3.42,2.07,5.14,5.06,5.33,9.05.17,3.55-1.08,6.46-3.55,8.95-2.29,2.31-5.02,3.95-7.89,5.41-.59.3-1.21.56-1.74.97-1.58,1.22-2.46,2.8-2.41,4.82.04,1.58,1.04,2.33,2.59,1.96.65-.16,1.24-.46,1.8-.83.32-.21.68-.37,1.02-.55Z"></path></g><path class="cls-4" d="m1812.09,85.9c.34-.62.87-.9,1.33-1.25.94-.71,1.76-1.53,2.46-2.49,2.18-3,5.11-5,8.55-6.3.56-.21,1.15-.5,1.86-.3-.19.54-.52.89-.93,1.2-1.16.88-2.13,1.92-3,3.09-1.04,1.39-2.43,2.43-3.88,3.36-1.68,1.08-3.53,1.83-5.39,2.55-.27.1-.55.29-1,.14Z"></path></g></svg>