<svg xmlns="http://www.w3.org/2000/svg" id="Layer_1" data-name="Layer 1" viewBox="0 0 1920 180"><defs><style>      .cls-1 {        fill: #feb4b4;      }      .cls-1, .cls-2, .cls-3, .cls-4 {        stroke-width: 0px;      }      .cls-2 {        fill: #fff;      }      .cls-3 {        fill: #fe1e1e;      }      .cls-4 {        fill: #6d6d6d;      }    </style></defs><g><path class="cls-2" d="m968.38,102.36h-4.29v-32.22h-33.82v-4.3c.38-.05.73-.12,1.08-.12,11.97,0,23.95,0,35.92,0,1.14,0,1.21.07,1.21,1.18,0,11.48,0,22.95,0,34.43,0,.33-.06.65-.1,1.05Z"></path><path class="cls-2" d="m871.62,93.62v8.75h-4.3v-16.23c1.35,0,2.69-.03,4.01.03.24.01.51.4.68.67,1.42,2.19,2.82,4.39,4.23,6.59.16.25.35.5.59.85.24-.32.43-.55.59-.8,1.43-2.22,2.86-4.43,4.26-6.67.34-.54.74-.77,1.37-.75,1.09.04,2.17.01,3.36.01v16.26h-4.27v-8.73c-.07-.02-.14-.04-.2-.06-.14.18-.3.35-.43.54-1,1.56-1.99,3.12-2.98,4.69-.73,1.15-2.55,1.18-3.28.05-1-1.53-1.97-3.07-2.96-4.6-.14-.22-.31-.43-.47-.65-.07.01-.14.03-.21.04Z"></path><path class="cls-2" d="m908.95,102.36h-4.19v-8.86c-.07-.03-.15-.05-.22-.08-.37.56-.74,1.13-1.1,1.69-.82,1.28-1.62,2.56-2.45,3.83-.6.92-2.49.91-3.09-.02-1.02-1.58-2.03-3.17-3.04-4.75-.17-.27-.36-.54-.72-.75v8.9h-4.22v-16.19c1.36,0,2.69-.03,4.02.03.24.01.51.41.68.68,1.4,2.17,2.78,4.35,4.17,6.53.18.28.37.55.62.93.25-.34.44-.57.6-.82,1.42-2.22,2.85-4.44,4.25-6.68.34-.54.74-.78,1.37-.75.9.04,1.8.02,2.7.01.52,0,.78.23.78.76,0,4.99,0,9.99-.01,14.98,0,.16-.08.32-.15.54Z"></path><path class="cls-2" d="m797.87,81.98v-16.22c1.42,0,2.76-.03,4.09.03.23,0,.49.34.68.57,2.03,2.55,4.04,5.1,6.06,7.66.22.28.46.56.87.82v-9.02h4.35v16.22c-1.44,0-2.8.04-4.16-.04-.3-.02-.61-.45-.85-.74-2.04-2.61-4.05-5.24-6.08-7.86-.15-.19-.31-.37-.64-.76v9.33h-4.32Z"></path><path class="cls-2" d="m930.26,86.11c1.41,0,2.73-.03,4.03.03.26.01.55.36.74.61,2.06,2.63,4.11,5.27,6.17,7.9.13.17.28.32.61.68,0-.54,0-.83,0-1.12,0-2.36.02-4.72-.01-7.07-.01-.8.27-1.12,1.08-1.08,1.06.04,2.12.01,3.27.01v16.31c-1.39,0-2.75.03-4.1-.03-.23,0-.47-.37-.66-.6-2-2.57-3.98-5.15-5.98-7.73-.2-.26-.41-.53-.79-1.01v9.32h-4.36v-16.22Z"></path><path class="cls-2" d="m904.35,65.17c5.07,0,9,3.78,8.99,8.63-.01,5.02-3.87,8.89-8.96,8.88-5.38-.02-9.05-3.65-9.08-8.78-.03-5.47,4.34-8.77,9.05-8.73Zm-.06,13.33c2.71,0,4.58-1.87,4.6-4.6.02-2.59-1.97-4.59-4.56-4.61-2.62-.02-4.63,2.06-4.59,4.76.04,2.63,1.9,4.45,4.55,4.45Z"></path><path class="cls-2" d="m833.79,73.83c.04,4.85-3.62,8.85-9.06,8.84-5.24-.01-8.98-3.81-8.93-8.94.05-4.95,4.01-8.63,9.23-8.56,4.98.06,8.81,3.85,8.76,8.67Zm-9.05,4.66c2.82,0,4.58-1.77,4.58-4.64,0-2.61-1.89-4.55-4.46-4.57-2.62-.02-4.6,1.97-4.61,4.64,0,2.75,1.76,4.56,4.49,4.57Z"></path><path class="cls-2" d="m831.68,89.69c-1.19.65-2.27,1.24-3.52,1.93-.24-.32-.43-.64-.67-.9-1.24-1.32-2.8-1.65-4.48-1.17-1.52.43-2.28,1.67-2.46,3.13-.15,1.23-.2,2.56.1,3.74.73,2.89,4.36,3.86,6.55,1.83.41-.38.64-.93.96-1.4-.05-.08-.09-.16-.14-.24h-3.5v-3.42h8.03c.05.19.15.37.15.55.1,5.36-2.62,9.4-8.53,9.24-4.51-.12-7.72-3.03-8.33-7.77-.54-4.21,2.2-8.35,6.24-9.41,3.47-.91,6.93.23,9.04,2.99.18.24.32.51.56.9Z"></path><path class="cls-2" d="m878.17,82h-4.3v-6.07h-5.74v6.06h-4.34v-16.15h4.32v5.5h5.69v-5.52h4.37v16.19Z"></path><path class="cls-2" d="m840.31,76.48v5.5h-4.31v-16.15c.34-.05.61-.12.88-.12,2.13.03,4.27-.03,6.4.13,4.35.33,5.75,4.41,4.22,7.56-.39.8-1.25,1.38-2,2.17.61.94,1.3,2.01,1.99,3.09.67,1.05,1.34,2.11,2.17,3.4-1.08,0-1.92-.1-2.72.02-1.87.29-3.05-.39-3.8-2.13-.47-1.1-1.2-2.09-1.85-3.1-.15-.24-.48-.37-.72-.54-.09.06-.18.11-.26.17Zm.1-7.33v3.88c1.09.02,2.16.2,2.85-.76.53-.74.53-1.63,0-2.37-.69-.96-1.76-.77-2.85-.75Z"></path><path class="cls-2" d="m848.76,102.42c-1.81,0-3.35.03-4.89-.03-.25,0-.55-.35-.71-.62-.9-1.46-1.75-2.94-2.65-4.4-.17-.28-.49-.47-.73-.7-.11.05-.22.1-.32.15v5.54h-4.34v-16.11c.17-.06.33-.16.48-.16,2.33.02,4.67-.08,6.98.13,3.69.33,5.51,3.8,4.15,7.21-.37.92-1.29,1.62-2.09,2.58,1.24,1.93,2.61,4.06,4.11,6.41Zm-9.24-9.27c1.37.36,2.34.17,2.82-.51.42-.59.4-1.91-.04-2.48-.48-.62-1.66-.85-2.79-.49v3.49Z"></path><path class="cls-2" d="m890.73,75.53c1.31,2.04,2.68,4.16,4.05,6.29-.05.08-.09.17-.14.25-1.02,0-2.06-.1-3.07.02-1.4.17-2.24-.32-2.84-1.6-.58-1.24-1.37-2.38-2.11-3.54-.17-.27-.5-.45-.76-.67-.1.05-.2.1-.3.15v5.55h-4.24v-16.1c.19-.06.37-.16.55-.16,2.36.03,4.73-.07,7.07.17,3.73.38,5.7,4.77,3.61,7.89-.44.65-1.15,1.11-1.83,1.75Zm-5.13-2.6c1.43.31,2.57,0,3-.75.38-.66.3-1.86-.16-2.4-.51-.61-1.89-.84-2.85-.45v3.61Z"></path><path class="cls-2" d="m860.06,86.15h4.26c.04.38.1.71.1,1.03,0,3.08.02,6.17,0,9.25-.02,3.86-2.55,6.42-6.43,6.52-.84.02-1.69.05-2.52-.08-2.67-.39-5.51-1.99-5.54-6.09-.02-3.31-.01-6.62,0-9.93,0-.19.07-.38.13-.67h4.21c.03.41.07.76.07,1.12,0,2.89,0,5.78,0,8.66.01,2.35,1.14,3.32,3.48,3.03,1.35-.17,2.16-1.09,2.17-2.54.02-3.03,0-6.06.01-9.08,0-.36.03-.72.06-1.21Z"></path><path class="cls-2" d="m927.96,102.41c-1.5,0-2.89.02-4.28-.03-.19,0-.44-.32-.54-.55-.26-.59-.4-1.24-.71-1.8-.15-.28-.56-.58-.86-.59-1.37-.06-2.75-.01-4.13-.04-.51,0-.77.21-.92.67-.17.53-.4,1.05-.56,1.59-.16.53-.44.79-1.03.77-1.23-.03-2.45,0-3.83,0,.11-.42.15-.68.24-.93,1.79-4.84,3.6-9.67,5.37-14.52.25-.69.62-.97,1.36-.93,1.04.05,2.08.03,3.12.01.55,0,.88.2,1.07.73,1.81,4.92,3.65,9.83,5.47,14.75.08.23.12.47.21.86Zm-6.91-6.5c-.52-1.48-1-2.83-1.47-4.19-.07.01-.14.02-.21.03-.47,1.36-.94,2.72-1.43,4.15h3.11Z"></path><path class="cls-2" d="m920.17,76.49v5.52h-4.27v-16.15c.23-.05.47-.14.7-.13,2.33.02,4.67-.01,6.99.11,2.4.13,4.05,1.68,4.52,4.03.51,2.53-.29,4.87-2.25,5.86-.94.47-2.08.59-3.15.74-.76.11-1.55.02-2.55.02Zm.13-3.43c1.29.35,2.75,0,3.23-.73.49-.74.46-1.9-.06-2.53-.55-.66-2.06-.91-3.17-.5v3.75Z"></path><path class="cls-2" d="m861.14,65.82v4.29h-3.31c0,2.09,0,4.04,0,6s0,3.9,0,5.9h-4.39v-11.89h-3.33v-4.31h11.03Z"></path></g><g><path class="cls-2" d="m42.47,95.2c-2.28,0-4.55,0-6.83,0-.52,0-1.03-.07-1.53-.15-.58-.09-1.14-.25-1.69-.44-.7-.24-1.36-.55-1.99-.93-.49-.29-.95-.61-1.4-.97-.27-.21-.5-.46-.75-.69-.67-.62-1.21-1.33-1.68-2.1-.52-.84-.9-1.75-1.18-2.7-.16-.55-.27-1.12-.35-1.68-.03-.23-.05-.47-.05-.7,0-.39,0-.77,0-1.16,0-.58.09-1.16.21-1.73.13-.65.33-1.28.57-1.89.33-.83.77-1.61,1.3-2.34.46-.64.99-1.2,1.57-1.73.32-.3.68-.55,1.03-.82.41-.32.87-.58,1.34-.81.66-.33,1.35-.63,2.07-.8.49-.12.99-.22,1.49-.31.19-.04.39-.05.59-.06,2.31-.1,4.63-.03,6.94-.04,2.31-.01,4.63,0,6.94,0,.48,0,.96.06,1.44.12.7.1,1.38.26,2.05.49.75.26,1.46.59,2.13,1.01.63.39,1.21.83,1.75,1.33.68.62,1.26,1.31,1.75,2.07.61.93,1.07,1.93,1.37,3,.17.61.29,1.22.35,1.84.03.35.08.71.08,1.06,0,.55-.05,1.1-.12,1.65-.09.68-.24,1.34-.46,1.98-.29.84-.67,1.63-1.14,2.39-.56.9-1.27,1.68-2.05,2.39-.53.48-1.11.88-1.73,1.24-.78.46-1.61.81-2.48,1.06-.53.15-1.07.26-1.61.34-.54.08-1.09.08-1.63.08-2.09,0-4.19,0-6.28,0h0Zm.02-18.1h0c-2.08,0-4.16,0-6.24,0-.38,0-.75.02-1.13.08-.64.11-1.25.3-1.83.58-.57.27-1.09.62-1.58,1.02-.35.29-.66.62-.95.97-.36.44-.64.92-.88,1.43-.44.91-.64,1.87-.68,2.87,0,.23.03.47.04.7,0,.5.12.99.27,1.47.44,1.45,1.26,2.66,2.47,3.59.37.29.77.55,1.19.74.41.19.84.35,1.27.48.57.17,1.17.25,1.77.25,4.1,0,8.2,0,12.3,0,.42,0,.83-.02,1.24-.09.65-.1,1.27-.28,1.87-.56,1.02-.47,1.89-1.15,2.59-2.03.61-.77,1.05-1.62,1.3-2.58.12-.48.21-.96.24-1.45.02-.51,0-1.01-.08-1.51-.11-.66-.3-1.3-.59-1.9-.23-.48-.51-.94-.85-1.36-.46-.58-.99-1.06-1.58-1.49-.37-.26-.77-.46-1.17-.65-.22-.1-.45-.16-.68-.24-.12-.04-.24-.07-.36-.1-.45-.14-.91-.23-1.38-.23-2.19,0-4.37,0-6.56,0Z"></path><path class="cls-2" d="m62.17,84.17c0-3.56,0-7.11,0-10.67q0-.37.36-.37c6.12,0,12.25,0,18.37,0,1.03,0,2.02.23,2.97.66.64.29,1.23.66,1.76,1.11.7.57,1.25,1.27,1.7,2.05.35.61.6,1.26.76,1.94.09.39.17.78.17,1.19,0,.19.04.38.04.56-.03,1.03-.22,2.02-.64,2.97-.29.66-.67,1.27-1.14,1.82-.81.95-1.81,1.67-2.98,2.13-.53.21-1.08.37-1.64.44-.44.06-.89.07-1.33.08-.52,0-1.04,0-1.56,0-.02,0-.04.01-.06.02.01.02.02.04.03.06.23.2.46.39.69.59.32.27.64.53.96.8.35.29.7.58,1.04.87.31.26.62.53.94.79.34.28.67.56,1.01.84.31.26.61.51.92.77.35.29.7.58,1.04.87.32.27.63.54.95.8.25.21.5.41.75.62.02.02.03.05.05.07-.02.01-.05.03-.07.03-.05,0-.11,0-.16,0-1.9,0-3.79,0-5.69,0-.16,0-.28-.04-.41-.15-.39-.35-.8-.69-1.2-1.03-.29-.25-.58-.51-.87-.77-.28-.24-.57-.48-.85-.72-.25-.22-.5-.44-.75-.65-.33-.29-.66-.58-.99-.87-.43-.38-.86-.76-1.3-1.14-.4-.35-.81-.69-1.21-1.03-.41-.35-.8-.71-1.21-1.06-.28-.25-.57-.49-.86-.74-.14-.12-.29-.25-.43-.37-.41-.36-.81-.72-1.22-1.08-.26-.22-.52-.43-.78-.66-.25-.22-.5-.44-.75-.66-.02-.02-.03-.06-.04-.1,0,0,.05-.03.07-.03.05,0,.11,0,.16,0,3.07,0,6.15,0,9.22,0,.68,0,1.35,0,2.03.03.45.02.89,0,1.33-.11.98-.26,1.73-.82,2.22-1.71.24-.43.37-.88.43-1.37.1-.82-.1-1.57-.52-2.25-.3-.49-.71-.88-1.21-1.16-.41-.23-.84-.38-1.3-.46-.07-.01-.14,0-.2,0-4.68,0-9.37,0-14.05,0-.02,0-.03,0-.05,0-.2,0-.2,0-.21.2,0,.06,0,.12,0,.18,0,5.79,0,11.58,0,17.38,0,.38.03.34-.34.34-1.21,0-2.43,0-3.64,0-.05,0-.09,0-.14,0-.2,0-.2,0-.21-.21,0-.06,0-.12,0-.18v-10.64Z"></path><path class="cls-2" d="m183.53,86.15c-2.94,0-5.87,0-8.81,0-.3,0-.3,0-.21.28.29.86.72,1.63,1.3,2.32.5.6,1.09,1.09,1.75,1.5.71.44,1.48.73,2.3.9.51.1,1.03.14,1.56.14,4.96,0,9.91,0,14.87,0,.1,0,.19.02.29.03-.04.09-.07.19-.13.28-.31.49-.62.98-.94,1.47-.43.66-.86,1.32-1.28,1.98-.08.13-.17.16-.32.16-1.14,0-2.28,0-3.42,0-3.28,0-6.56,0-9.84,0-.62,0-1.24-.07-1.84-.2-.4-.09-.8-.16-1.19-.29-.49-.17-.97-.37-1.44-.59-.37-.17-.73-.37-1.08-.59-.3-.18-.59-.38-.86-.59-.38-.31-.76-.63-1.11-.97-.3-.29-.55-.62-.82-.94-.46-.55-.84-1.16-1.17-1.79-.47-.91-.81-1.87-1.01-2.88-.09-.47-.14-.94-.19-1.41-.04-.38-.04-.76-.03-1.13.01-.4.07-.8.12-1.19.07-.58.2-1.15.38-1.7.11-.35.25-.7.38-1.04.28-.7.66-1.35,1.08-1.97.22-.32.47-.63.72-.93.2-.24.42-.48.65-.7.72-.68,1.51-1.28,2.38-1.76.65-.36,1.34-.65,2.04-.87.56-.18,1.12-.31,1.7-.39.69-.1,1.38-.13,2.08-.13,4.83,0,9.67,0,14.5,0,.09,0,.19.02.28.03-.04.08-.08.17-.14.25-.39.61-.77,1.21-1.16,1.82-.32.5-.66,1-.98,1.5-.26.41-.17.35-.67.35-4.14,0-8.29,0-12.43,0-.42,0-.82.08-1.23.18-.32.08-.64.16-.95.28-.71.29-1.37.64-1.95,1.15-.17.15-.34.3-.5.46-.36.34-.66.73-.93,1.14-.34.51-.6,1.05-.79,1.63-.11.32-.14.3.21.3,5.26,0,10.52,0,15.78,0,1.44,0,2.88,0,4.33,0,.07,0,.15.01.22.02-.03.07-.06.13-.1.19-.61.96-1.22,1.91-1.84,2.87-.16.25-.32.49-.48.74-.05.08-.11.12-.21.09-.08-.02-.17,0-.25,0-2.88,0-5.77,0-8.65,0Z"></path><path class="cls-2" d="m104.74,87.42c1.8,0,3.6,0,5.4,0,.07,0,.15-.01.22-.02-.03-.07-.06-.14-.1-.2-.43-.69-.87-1.38-1.31-2.07-.5-.8-.99-1.59-1.49-2.39-.5-.81-1.01-1.62-1.51-2.42-.48-.76-.95-1.53-1.43-2.29-.1-.16-.11-.16-.21,0-.16.25-.31.5-.47.75-.22.35-.43.69-.65,1.04-.53.84-1.06,1.68-1.59,2.51-.36.57-.74,1.15-1.1,1.72-.28.45-.56.9-.84,1.35-.19.31-.38.62-.58.92-.52.82-1.05,1.64-1.57,2.47-.49.78-.98,1.56-1.47,2.34-.25.4-.52.8-.77,1.2-.28.45-.56.9-.84,1.35-.29.47-.59.93-.88,1.4-.05.08-.12.13-.23.12-.04,0-.08,0-.11,0-1.51,0-3.02,0-4.53,0-.07,0-.15-.01-.22-.02.03-.07.06-.15.1-.22.53-.83,1.06-1.66,1.59-2.49.2-.32.41-.63.62-.95.28-.44.56-.88.84-1.32.2-.32.41-.63.62-.95.28-.44.56-.88.84-1.32.2-.32.41-.63.62-.95.28-.44.56-.88.84-1.32.2-.32.41-.63.62-.95.28-.44.56-.88.84-1.32.2-.32.41-.63.62-.95.28-.44.56-.88.84-1.32.2-.32.41-.63.62-.95.28-.44.56-.88.84-1.32.2-.32.41-.63.62-.95.28-.44.56-.88.84-1.32.2-.31.39-.61.59-.91.3-.46.58-.92.89-1.37.41-.59.97-.98,1.66-1.19.55-.17,1.11-.17,1.66-.07.55.11,1.04.37,1.46.75.29.27.5.59.71.91.34.52.67,1.05,1,1.57.58.91,1.17,1.82,1.75,2.74.31.48.63.97.94,1.45.58.91,1.17,1.82,1.75,2.74.31.48.63.97.94,1.45.58.91,1.17,1.82,1.75,2.73.31.48.63.97.94,1.45.58.91,1.17,1.82,1.75,2.73.31.48.62.97.94,1.45.44.69.89,1.37,1.33,2.06.01.02.03.04.04.06.03.05.02.09-.04.09-.05,0-.11,0-.16,0-1.52,0-3.04,0-4.55,0-.18,0-.29-.05-.38-.21-.39-.67-.8-1.34-1.2-2-.31-.51-.63-1.03-.94-1.54-.05-.08-.11-.12-.2-.12-.06,0-.12,0-.18,0-3.63,0-7.26,0-10.88,0-.18,0-.31-.03-.41-.2-.25-.42-.53-.83-.79-1.24-.18-.27-.36-.54-.54-.81-.33-.51-.66-1.03-.98-1.55-.07-.11-.06-.12.07-.12.05,0,.11,0,.16,0,1.79,0,3.58,0,5.37,0Z"></path><path class="cls-2" d="m135.38,95.2c-2.18,0-4.36,0-6.53,0-.66,0-1.31-.09-1.95-.25-.42-.1-.84-.2-1.25-.34-.31-.1-.61-.23-.9-.37-.82-.39-1.62-.83-2.32-1.42-.23-.19-.46-.4-.68-.59-.76-.66-1.36-1.46-1.9-2.3-.24-.37-.42-.79-.62-1.18-.22-.43-.37-.9-.51-1.36-.16-.5-.27-1.02-.35-1.55-.1-.64-.15-1.28-.13-1.92.02-.53.07-1.05.16-1.57.12-.7.31-1.37.55-2.03.33-.92.81-1.76,1.37-2.55.37-.53.79-1.02,1.25-1.46.58-.56,1.22-1.06,1.91-1.49.79-.49,1.63-.87,2.51-1.15.56-.18,1.14-.31,1.72-.39.67-.1,1.34-.13,2.01-.13,4.83,0,9.67,0,14.5,0,.1,0,.21.02.31.03.03.13-.07.21-.13.3-.26.42-.55.84-.82,1.26-.31.48-.61.96-.91,1.44-.16.26-.33.51-.48.77-.07.11-.16.17-.3.16-.07,0-.14,0-.2,0-4.11,0-8.23,0-12.34,0-.81,0-1.59.17-2.35.47-.75.29-1.43.69-2.04,1.22-.56.49-1.06,1.04-1.45,1.68-.4.67-.71,1.39-.88,2.16-.1.45-.16.9-.17,1.37-.02.81.08,1.6.33,2.37.25.76.61,1.46,1.1,2.11.29.39.62.75.99,1.06.61.54,1.3.96,2.06,1.26.55.22,1.11.36,1.69.45.22.03.45.05.68.05,5.09,0,10.18,0,15.28,0,.1,0,.21.02.31.03-.05.1-.08.2-.14.3-.58.91-1.17,1.82-1.76,2.73-.15.23-.3.46-.44.69-.08.13-.18.18-.33.18-1.49,0-2.99,0-4.48,0h-2.34Z"></path><path class="cls-2" d="m146.83,83.25c0-3.27,0-6.53,0-9.8,0-.33-.02-.31.31-.31,1.22,0,2.44,0,3.67,0,.03,0,.06,0,.09,0,.22,0,.22,0,.22.21,0,.06,0,.12,0,.18,0,5.8,0,11.6,0,17.4,0,.4-.05.36.35.36,6.38,0,12.75,0,19.13,0,.08,0,.17,0,.25,0,.06,0,.08.04.05.1-.03.06-.08.11-.11.17-.29.45-.57.89-.86,1.34-.16.25-.31.5-.47.75-.29.46-.6.91-.88,1.38-.09.14-.18.19-.35.19-6.44,0-12.89,0-19.33,0-.53,0-.96-.22-1.36-.56-.3-.26-.5-.59-.6-.97-.06-.22-.09-.45-.09-.67,0-3.25,0-6.5,0-9.76Z"></path></g><g><path class="cls-2" d="m1258.38,89.68v-7.66l-.26-.1c-1.54,2.69-3.08,5.38-4.63,8.07h-3.98c-1.5-2.66-3.04-5.38-4.79-8.48v8.28c-1.24.47-2.46.29-3.9.13-.36-1.95-.16-3.91-.17-5.85-.01-1.89-.14-3.79.13-5.88,2.18-.08,4.19-.04,6.37-.04,1.42,2.57,2.85,5.15,4.41,7.96,1.52-2.73,2.97-5.33,4.4-7.9h6.05c.42,1.33.53,8.75.19,11.56-1.59.43-2.34.42-3.82-.08Z"></path><path class="cls-2" d="m1049.62,78.13v3.04c-.59.05-1.1.12-1.6.12-2.7.01-5.39.01-8.09,0-.8,0-1.57.03-2.18.68-.77.81-1.29,1.67-.92,2.83.39,1.21,1.34,2.02,2.59,2.05,1.9.05,3.81.01,5.85.01.02-.32.05-.81.08-1.44-1.33-.07-2.54-.14-3.87-.21v-2.4c1.26-.4,5.35-.5,7.93-.18.37,1.38.42,5.14.09,7.21-.16.06-.33.17-.51.17-3.62.01-7.23.07-10.85,0-2.48-.05-4.47-1.39-5.16-3.63-1.27-4.13.28-7.41,4.98-8.24.57-.1,1.18-.03,1.77-.03,3.22,0,6.43,0,9.87,0Z"></path><path class="cls-2" d="m1164.78,89.96v-11.67c.51-.06.94-.14,1.38-.15,3.28-.01,6.56,0,9.85,0,1.56,0,2.98.4,4.17,1.43,1.92,1.66,2.64,4.47,1.76,6.79-.78,2.07-3.16,3.68-5.58,3.69-3.48.03-6.96,0-10.44,0-.32,0-.64-.05-1.15-.1Zm3.97-8.63c0,1.86,0,3.43.01,5,0,.17.16.33.27.54,2.1,0,4.2.04,6.29-.01,1.53-.04,2.77-1.32,2.79-2.73.02-1.34-1.09-2.7-2.55-2.77-2.2-.11-4.42-.03-6.81-.03Z"></path><path class="cls-2" d="m1217.87,89.99h-4.85c-2.36-2.51-4.83-5.13-7.54-8.01v7.94h-3.86v-11.59c1.83-.45,3.66-.04,5.56-.25,2.2,2.36,4.38,4.71,6.81,7.33.22-1.44.1-2.58.12-3.7.02-1.11,0-2.22,0-3.45h3.64c.39,1.31.48,9.07.11,11.73Z"></path><path class="cls-2" d="m1113.93,90.02c-.95-1.24-1.82-2.38-2.65-3.47h-4.57c-.05,1.1-.09,2.13-.14,3.23-1.28.5-2.56.25-4.05.15-.42-1.96-.18-3.92-.2-5.86-.02-1.89-.1-3.79.08-5.73.56-.1.93-.22,1.3-.22,3.48-.01,6.97-.03,10.45,0,2,.02,3.55.81,4.36,2.76.72,1.75.11,3.58-1.56,4.56-.34.2-.69.37-1.16.62.87,1.25,1.71,2.46,2.64,3.8-1.56.31-2.98.12-4.51.13Zm-7.23-6.42c2.13,0,4.08.05,6.04-.02.79-.03,1.55-.33,1.76-1.26-.14-.76-.6-1.28-1.3-1.3-2.14-.08-4.29-.11-6.49.02v2.57Z"></path><path class="cls-2" d="m1288.94,90.04v-2.71c.58-.05,1.09-.14,1.59-.14,2.7-.01,5.39,0,8.09,0,.8,0,1.61.05,1.92-.94-.42-.76-1.14-.55-1.77-.56-2.04-.02-4.08.02-6.12-.01-2.37-.03-3.86-1.5-3.86-3.77,0-2.24,1.36-3.7,3.63-3.76,2.37-.06,4.74-.01,7.1-.01,1.5,0,3.01,0,4.65,0v2.86c-1.96,0-3.84-.05-5.72.01-1.86.07-3.78-.36-5.58.42.12,1,.71,1.03,1.32,1.03,1.97,0,3.95,0,5.92,0,.46,0,.93-.03,1.38.03,1.89.25,3.16,1.89,3.22,3.87.06,1.87-1.7,3.65-3.21,3.67-4.13.05-8.26.02-12.58.02Z"></path><path class="cls-2" d="m1079.46,90c-2.44-2.83-4.9-5.69-7.61-8.84v8.76h-3.87v-11.52c.93-.52,2-.2,3.02-.25.98-.05,1.97-.01,3.11-.01,2.02,2.32,4.07,4.69,6.38,7.35v-7.19h3.88c.22,1.91.08,3.8.1,5.69.02,1.9,0,3.81,0,5.93-1.67.28-3.28.13-5.01.09Z"></path><path class="cls-2" d="m1086.68,78.22h13.54v2.87c-1.52.43-3.1.15-4.64.2-1.5.05-3.01.01-4.61.01v1.16h9.01c.62.93.26,1.77.37,2.78-3.19.19-6.26,0-9.43.13-.02.48-.04.85-.07,1.45,3.12.17,6.18-.02,9.36.12v2.8c-1.28.39-10.81.49-13.51.11-.41-1.86-.17-3.82-.18-5.76-.01-1.89-.17-3.79.16-5.86Z"></path><path class="cls-2" d="m1052.22,78.24h13.53v2.8c-1.66.49-3.24.2-4.79.25-1.56.05-3.13.01-4.76.01-.05.41-.08.65-.1.85.1.09.14.17.19.18,3.07.09,6.14.17,9.42.26.06.87.11,1.67.18,2.68h-9.7v1.62h9.16c.81.98.46,1.91.49,2.78-1.32.46-10.22.6-13.52.24-.37-1.34-.46-9.12-.11-11.67Z"></path><path class="cls-2" d="m1224.57,88.1c-.52.7-.94,1.28-1.37,1.86h-4.3c.4-1.69,1.56-2.78,2.34-4.08.77-1.29,1.67-2.51,2.49-3.78.85-1.31,1.68-2.64,2.5-3.93h6.02c2.48,3.82,5,7.7,7.65,11.78h-4.91c-.4-.53-.87-1.15-1.41-1.86h-9.03Zm7.22-3.33c-1.03-1.58-1.85-2.85-2.74-4.22-.89,1.5-1.67,2.81-2.51,4.22h5.26Z"></path><path class="cls-2" d="m1140.42,89.94h-4.84c-.39-.47-.92-1.12-1.51-1.84h-8.97c-.44.61-.85,1.19-1.32,1.84h-4.67c2.65-4.04,5.15-7.86,7.68-11.71h5.89c2.7,3.66,5.05,7.63,7.74,11.72Zm-13.39-5.21h5.24c-.9-1.41-1.72-2.72-2.65-4.17-.91,1.46-1.68,2.71-2.59,4.17Z"></path><path class="cls-2" d="m1286.4,78.17c.64,1.05.57,1.96.09,3.03-.57.03-1.15.09-1.72.09-2.1.01-4.21,0-6.31,0-2.57.01-3.12.46-3.75,3.03.84,2.18,1.27,2.52,3.4,2.54,2.17.02,4.34,0,6.51.01.64,0,1.27.06,2.06.09v2.85c-.51.09-.88.21-1.25.21-2.96.02-5.92.04-8.87,0-2.34-.03-4.2-1.02-5.3-3.14-1.71-3.32-.4-8,4.38-8.64,3.54-.47,7.19-.09,10.76-.09Z"></path><path class="cls-2" d="m1181.82,78.24h4.88c1.37,1.33,2.87,2.79,4.51,4.39,1.54-1.5,3.03-2.95,4.54-4.41h5.06c-2.66,2.67-5.1,5.12-7.62,7.65v3.92c-1.44.51-2.78.18-4.26.25v-4.03c-2.47-2.51-4.86-4.92-7.25-7.34.05-.14.09-.27.14-.41Z"></path><path class="cls-2" d="m1141.48,89.87v-11.62h3.88v8.44c.57.08,1,.19,1.43.2,2.17.02,4.34,0,6.52.02.56,0,1.13.1,1.78.17-.04,1.01-.08,1.83-.12,2.64-1.32.43-10.51.55-13.49.16Z"></path><path class="cls-2" d="m1264.76,89.92v-11.65h3.68c.34,1.42.41,9.24.1,11.65h-3.78Z"></path></g><g><path id="path2" class="cls-2" d="m377.34,87.79l5.49-30.88h-8.4l-6.8,38.18h24.51l2.97-7.31h-17.77Z"></path><path id="path4" class="cls-2" d="m412.19,56.91h8.11l15.54,38.24h-9.03l-3.09-8.05h-15.43l-3.09,8.05h-8.63l15.6-38.24Zm-1.26,23.57h10.28l-1.6-4.28c-1.09-3.02-2.46-6.79-3.49-9.7h-.11c-1.03,2.91-2.4,6.68-3.6,9.93l-1.49,4.05Z"></path><path id="path6" class="cls-2" d="m435.79,84.42c4.06,2.74,9.2,3.94,12.23,3.94s5.31-1.2,5.31-4.05c0-3.54-3.6-3.88-8.51-5.42-5.26-1.71-10.06-4.34-10.06-10.96,0-7.13,5.37-11.53,13.43-11.53,3.77,0,8.34.97,11.66,2.74v8.28c-4.06-2.51-8.74-3.71-11.71-3.71s-4.91,1.08-4.91,3.6c0,3.37,3.54,3.65,8.11,5.19,5.77,1.88,10.4,4.57,10.4,11.36,0,7.42-5.66,11.93-13.88,11.93-2.69,0-5.31-.4-7.89-1.14.06,0-4.17-10.22-4.17-10.22Z"></path><path id="path8" class="cls-2" d="m343.68,74.32l1.03-1.14,15.66-16.27h10.17l-17.31,17.69,11.08,20.49h-9.77l-10.23-19.63-.63-1.14Zm-2.57-.17l2.46,4.68-2.91,16.32h-8.34l6.74-38.24h8.4l-2.29,13.07-4.06,4.17Z"></path><path id="path10" class="cls-4" d="m367.62,102.11h2.97c1.03-.06,2.06.17,2.97.63.74.46,1.2,1.31,1.14,2.23.06,1.2-.74,2.28-1.94,2.63l2.69,4h-2.4l-2.4-3.77h-.91v3.77h-2.06v-9.47h-.06Zm3.14,4.22c.46,0,.91-.06,1.31-.23.34-.17.57-.57.51-.97.06-.4-.17-.74-.51-.91-.51-.23-1.03-.29-1.54-.23h-.8v2.34h1.03Z"></path><path id="path12" class="cls-4" d="m380.02,102.11h5.83v1.83h-3.77v1.88h3.26v1.71h-3.26v2.28h3.94v1.83h-6v-9.53Z"></path><path id="path14" class="cls-4" d="m391.05,108.96c.91.57,1.94.91,3.03.97.74,0,1.31-.29,1.31-1.03,0-.86-.91-.97-2.11-1.37-1.31-.46-2.51-1.08-2.51-2.74,0-1.77,1.31-2.85,3.31-2.85,1.03,0,2,.23,2.91.68v2.05c-.86-.57-1.89-.86-2.91-.91-.69,0-1.2.29-1.2.91,0,.86.86.91,2,1.26,1.43.46,2.57,1.14,2.57,2.8,0,1.83-1.43,2.97-3.43,2.97-1.03,0-2.06-.23-2.97-.68v-2.05Z"></path><path id="path16" class="cls-4" d="m402.54,102.11h5.89v1.83h-3.77v1.88h3.2v1.71h-3.26v2.28h3.94v1.83h-6v-9.53Z"></path><path id="path18" class="cls-4" d="m416.71,102.11h2.06l3.83,9.47h-2.23l-.74-2h-3.83l-.8,2h-2.11l3.83-9.47Zm-.34,5.88h2.57l-.4-1.03c-.29-.74-.63-1.71-.86-2.4h-.06c-.23.74-.57,1.66-.91,2.45l-.34.97Z"></path><path id="path20" class="cls-4" d="m427.22,102.11h2.97c1.03-.06,2.06.17,2.97.63.74.46,1.2,1.31,1.14,2.23.06,1.2-.74,2.28-1.94,2.63l2.69,4h-2.4l-2.4-3.77h-.91v3.77h-2.06l-.06-9.47Zm3.14,4.22c.46,0,.91-.06,1.31-.23.34-.17.57-.57.51-.97.06-.4-.17-.74-.51-.91-.51-.23-1.03-.29-1.54-.23h-.8v2.34h1.03Z"></path><path id="path22" class="cls-4" d="m446.76,111.13c-.86.4-1.83.63-2.8.63-3.03,0-5.14-2.11-5.14-4.85s2.11-4.91,5.14-4.91c.91,0,1.83.17,2.63.57v2.11c-.8-.51-1.66-.8-2.63-.8-1.6-.06-3.03,1.14-3.09,2.8v.23c-.06,1.66,1.26,2.97,2.91,3.03h.29c.97,0,1.89-.34,2.69-.86v2.05Z"></path><path id="path24" class="cls-4" d="m451.68,102.11h2.06v3.65h4.11v-3.65h2.06v9.47h-2.06v-4h-4.11v4h-2.06v-9.47Z"></path><path id="path26" class="cls-2" d="m302.37,94.92c-.06,0-.11.06-.17.06h-.4c-.06,0-.11.06-.11.06h-.06c-.06,0-.11.06-.11.06q-.06,0-.11.06h-.97c-.06,0-.11,0-.17.06h-.46c-.06,0-.17,0-.23.06h-.46s-.06.06-.11.06h-.46c-.11,0-.23,0-.34.06l-.4.06h-.46c-.06,0-.17-.06-.23-.06s-.17,0-.23.06h-1.66l-.57-.06h-2.46c-.11,0-.17,0-.23.06h-.23c-.06,0-.11,0-.17-.06-.34.06-.69.06-1.03,0-.34-.06-.69-.11-1.03-.17-.11,0-.23-.06-.34-.06h-.34c-.23.11-.46.11-.69,0-.23-.11-.4-.23-.57-.4q-.06-.06-.11-.11c-.06-.06-.06-.11-.11-.11-.11-.17-.23-.34-.34-.46-.11-.17-.17-.4-.23-.63v-1.03c.06-.17.11-.34.23-.46.11-.11.23-.17.34-.29.06,0,.11-.06.11-.11s.06-.11.06-.17c0-.23.06-.46.11-.68.06-.23.06-.46.06-.68v-.46c.06-.06.06-.17.06-.23v-.23c0-.23.06-.4.06-.63s.06-.4.11-.63c0-.17.06-.29.11-.46.06-.17.06-.34,0-.46v-.46c0-.23.06-.46.11-.68.06-.23.17-.51.34-.68.23-.34.46-.68.69-.97.23-.29.46-.63.74-.97.17-.17.29-.34.4-.57.11-.17.11-.46.06-.63v-.11c0-.17.06-.34.17-.51.11-.17.23-.34.34-.51,0-.17.06-.29.11-.46.06-.11.11-.29.23-.4.06-.11.11-.23.17-.34-.11-.29-.11-.46-.11-.57,0-.34.11-.74.23-1.08.11-.34.34-.68.57-.97,0,0,.06-.06.06-.11v-.11c-.06-.4,0-.86.06-1.26.11-.4.4-.8.8-1.03.29-.23.51-.4.74-.63s.51-.46.74-.68c.4-.34.74-.74,1.09-1.2.34-.46.69-.86.97-1.2.06-.06.06-.11.06-.17s0-.11-.06-.17c-.17-.23-.23-.51-.29-.86,0-.29.06-.63.17-.91.11-.29.29-.63.34-.91.11-.29.23-.63.29-.91.06-.17.11-.34.23-.46.11-.11.23-.29.4-.4.57-.4,1.14-.86,1.6-1.43.46-.57.86-1.2,1.03-1.88,0-.06.06-.11.06-.17s0-.11-.11-.17c-.06-.06-.11-.11-.17-.17,0-.06-.06-.11-.06-.23,0-.17-.06-.34-.06-.57,0-.17,0-.34.06-.51,0-.11,0-.17.06-.29.06-.06.06-.17.11-.23,0-.06.06-.11.06-.17v-.63c0-.17.11-.34.23-.46.11-.06.23-.17.34-.23.11-.06.23-.17.29-.23.23-.17.46-.29.69-.4.34-.17.57-.29.8-.34.17,0,.34-.06.51-.06l.51-.06c.34-.06.63-.11.97-.23l.97-.34c.11,0,.23-.06.29-.06s.17,0,.23-.06h.29c.06,0,.11,0,.17-.06.11,0,.23-.06.29-.06h.69c.11,0,.17-.06.29-.06h.23c.4,0,.74-.06,1.14-.06h4.63c.4,0,.74,0,1.09.06.34,0,.69,0,1.03.06.34.06.69.06,1.03.06.17,0,.4,0,.57.11.17.06.34.17.46.23.11.06.23.17.29.29.06.11.11.23.17.4,0,.06.06.17.06.23s.06.17.06.23c.06.11.11.23.11.34s0,.29-.06.4c.11.11.11.17.17.17q.06.06.11.06c.23.06.51.17.69.29.23.11.4.34.57.51.11.17.23.29.34.46.11.17.23.34.29.51.11.17.29.4.4.57.11.23.23.46.4.68.23.4.46.8.57,1.2.17.46.29.86.4,1.31.06.4.17.8.29,1.2.11.4.34.8.57,1.14.34.4.57.86.8,1.37.23.46.46,1.54.63,2.05.11.29.23.63.34.91.06.34.11.68.06.97,0,.34-.06.68-.11.97-.06.29-.11,1.83-.17,2.11-.11.29-.17.63-.17.91s0,.57.06.91c.06.29.11.51.11.74.06.23.11.46.17.68.06.23.06.46,0,.74-.06.23-.17.46-.34.63-.06.06-.06.11-.06.17s.06.06.11.11c.11.06.23.17.34.23.11.06.23.17.4.23.17.06.29.17.4.34.06.11.17.29.23.4.06.68.17,1.43.29,2.11.11.68.23,1.43.34,2.11.06.4.11.74.23,1.14.11.4.23.74.34,1.14v.86c-.06.17-.11.34-.17.51-.06.17-.11.34-.23.46-.11.17-.23.34-.29.57-.11.17-.17.4-.23.57-.11.23-.23.46-.34.63-.11.17-.29.34-.46.46-.17.17-.4.29-.63.34-.23.06-.46.11-.69.17q-.06.06-.11.06c-.06,0-.11,0-.11.06h-.23c-.06,0-.11.06-.17.06s-.11,0-.17.06c-.23,0-.46,0-.69.06l-.69.06c-.06,0-.11-.06-.11,0h-.11l-.91.06c-.29,0-.63.06-.97.06-.29,0-.51-.06-.74-.11l-.63-.4c-.11-.06-.17-.06-.23-.11-.11-.06-.17-.11-.23-.17-.17-.17-.29-.34-.4-.51-.11-.17-.23-.4-.29-.57-.06-.06-.06-.11-.11-.17v-.34c0-.06,0-.11-.06-.17v-1.26c0-.06-.06-.11-.06-.23v-.29c0-.06,0-.11-.06-.11,0-.17,0-.29-.06-.46-.06-.11-.06-.23-.06-.4v-.46c0-.17,0-.34.06-.46.06-.17.11-.29.17-.46.06-.11.17-.23.23-.34.06-.11.17-.23.23-.34.29-.46.63-.86.91-1.26.29-.46.57-.91.8-1.37.06-.11.11-.17.17-.29.06-.11.06-.17.11-.29,0-.06,0-.11.06-.17,0-.06.06-.11.06-.17.11-.17.17-.29.29-.46.06-.17.17-.29.29-.46.06-.06.06-.11.06-.17s-.06-.06-.11-.11l-.06-.06c-.06-.06-.11-.11-.17-.11-.17-.17-.34-.34-.51-.57-.17-.23-.34-.4-.46-.63-.11-.23-.29-.4-.46-.57-.17-.17-.29-.4-.46-.63-.34-.34-.63-.74-.91-1.14-.29-.4-.51-.86-.74-1.31-.17-.4-.34-1.94-.46-2.34-.11-.4-.29-.8-.46-1.2v-.17c0-.17-.06-.29-.17-.46-.06-.11-.17-.23-.34-.34-.06-.06-.17-.11-.23-.11l-.29-.11c-.23-.11-.4-.23-.57-.4-.17-.17-.34-.34-.51-.51l-.06-.06-.06-.06c-.06-.11-.17-.8-.23-.86-.06-.11-.17-.23-.29-.29-.06-.06-.11-.11-.17-.17-.06-.06-.17-.11-.23-.11-.17,0-.34-.06-.51-.11-.17-.06-.29-.17-.46-.23-.06-.06-.11-.06-.17-.06s-.17.06-.23.06l-.17.17c-.06.06-.11.11-.11.17-.17.29-.34.51-.57.74s-.46.46-.69.63c-.34.29-.74.57-1.14.8-.4.23-.86.46-1.26.68-.29.11-.51.29-.74.4-.23.17-.46.34-.63.57-.06.06-.17.17-.29.23l-.29.17c-.11,0-.17.06-.23.11-.06.06-.11.06-.17.11-.11.06-.17.11-.23.23-.06.11-.06.17-.06.29,0,.29-.06.51-.11.8-.06.29-.11.51-.17.8l-.06.06v.34c0,.06-.06.11-.06.17v.11c0,.17,0,.34.06.51l.17.51c0,.06.06.17.11.23.06.06.06.17,0,.23v.29c.06.06.06.11.06.17s-.06.11-.06.17c-.06.11-.11.23-.17.34l-.17.29c-.06.11-.17.17-.23.29-.06.11-.17.17-.29.23-.06.06-.11.11-.17.17-.06.06-.17.11-.17.17s-.06.11-.06.17-.06.11-.06.17c0,.17,0,.34.06.51s.11.34.17.46c.11.23.23.46.34.68.11.23.11.51.11.8v.86c0,.29-.06.57-.06.86s0,.57.06.86c-.06.11-.06.23-.06.4,0,.11.06.29.06.4l.06.06v.06c0,.23,0,.4.06.63.06.23.06.4,0,.63v.06l-.06.06v.06l.06.06c0,.11,0,.29.06.4v.46c.06.17.11.34.17.46.06.17.06.34.11.51.06.17.06.29.11.46.06.17.06.29,0,.46,0,.06-.06.11-.06.23,0,.06,0,.11.06.17,0,.29,0,.57-.11.8-.11.29-.23.51-.34.8,0,.06-.06.17-.06.23,0,.11-.06.17-.06.29v.4c0,.17-.06.4-.11.57-.11.17-.17.29-.29.46-.17.17-.34.34-.51.46-.23,0-.46.06-.74.11.06-.06.06,0,0,0Z"></path><path id="path28" class="cls-4" d="m310.71,65.75c.06-.17.17-.29.34-.4.29-.23.51-.46.74-.74.23-.23.46-.51.63-.8.29-.34.51-.74.69-1.14.23-.4.4-.8.51-1.26l.17-.46c.06-.17.17-.29.29-.46q.06-.06.11-.06h.06v.46c0,.06,0,.17.06.23.06.4.11.8.17,1.2.06.34.06.68.06,1.03-.06.51.06,1.03.23,1.48.17.4.46.74.8,1.03.11.11.23.23.4.29.11.11.29.17.46.29.11.06.23.17.29.23.11.11.17.23.23.34.11.29.23.57.34.86.11.29.23.57.4.86l.23.57c.11.23.23.91.46,1.03.23.17.46.29.74.46.29.11.51.23.8.29.23.06.4.17.57.29.17.11.34.29.46.46.17.29.34.57.4.91.11.29.17.63.23.91.06.8.17,1.6.4,2.4.23.4.51.74.8,1.03.11.11.29.23.46.23s.29,0,.46-.11c.06,0,.17-.06.17-.11l.17-.17.06-.06c.06,0,.06-.06.11-.06,0,.06.06.06.06.11v.4c.06.34.11.68.17,1.03.06.34.11.68.23,1.03.06.17.06.4-.06.57-.11.17-.23.29-.34.46-.11.11-.23.17-.34.17l-.29-.06h-.29c-.06,0-.17.06-.23.11-.11.06-.17.11-.23.17-.06.06-.11.11-.17.17-.06,0-.06.06-.11.06v.11l.06.06h.06c.06,0,.11,0,.17-.06.06-.06.11-.06.17-.11.11-.17.29-.23.46-.23.17.06.34.17.4.34,0,.06,0,.11.06.17,0,.06.06.06.06.11,0,.23.06.46.06.68s.06.46.06.68c0,.29-.06.51-.06.74s-.06.46-.11.74c0,.34-.06.74-.11,1.08s-.06.68-.06,1.08v.17c0,.06-.06.17-.06.23-.06.11-.11.29-.11.46,0,.11.06.29.17.4.11.23.17.34.17.4s-.11.11-.4.17c-.06,0-.11.06-.17.11-.06.06-.11.11-.17.23-.11.29-.23.63-.29.91-.06.34-.17.63-.23.97-.06.17-.17.34-.29.46-.11.11-.29.23-.46.29-.17.06-.34.11-.51.23-.17.11-.29.29-.4.46-.11.17-.23.34-.29.57-.06.17-.17.4-.29.57-.06.11-.17.23-.29.29-.11.06-.23.06-.34.06-.29-.06-.51-.11-.8-.23-.23-.11-.46-.23-.69-.4-.17-.06-.29-.17-.4-.29-.11-.11-.17-.29-.23-.46-.06-.17-.11-.34-.11-.46,0-.17-.06-.34-.06-.46,0-.4,0-.86-.06-1.26,0-.4-.06-.8-.17-1.26v-.57c0-.23.11-.4.23-.57.11-.17.23-.4.34-.57l.4-.57c.29-.29.51-.63.74-.97s.4-.68.57-1.08c.11-.29.29-.51.4-.8.11-.29.29-.57.46-.8.11-.23.29-.4.46-.57.17-.17.46-.29.69-.29q.06,0,.06-.06l.06-.06q0-.06-.06-.11l-.11-.06c-.06,0-.11,0-.17.06-.06,0-.11.06-.17.06-.11.06-.17.11-.23.06-.06,0-.11-.06-.17-.06-.23-.17-.4-.29-.57-.46-.17-.17-.29-.34-.46-.51-.23-.29-.46-.57-.69-.86-.23-.29-.46-.57-.69-.86-.4-.4-.8-.86-1.09-1.37-.29-.51-.57-1.03-.8-1.6-.17-.4-.29-1.94-.46-2.34-.17-.4-.29-.8-.46-1.2-.06-.06-.11-.17-.17-.23-.06-.06-.11-.11-.23-.17-.23-.11-.46-.23-.69-.4-.23-.17-.46-.34-.63-.51-.11-.11-.23-.86-.34-.97-.11-.11-.23-.29-.34-.34-.11-.17-.29-.29-.4-.4-.11-.11-.29-.17-.46-.23-.17-.06-.29-.06-.46-.11-.11-.06-.29-.11-.4-.23-.11-.06-.17-.17-.29-.23-.06-.06-.11-.17-.17-.23-.17-.23-.29-.46-.4-.74-.11-.29-.17-.57-.11-.86,0-.68.11-.86.17-1.03Zm7.43,6.51c.11.06.17.11.23.23,0,.06.06.06.11.11h.69c.17,0,.34,0,.57.06.06,0,.17-.06.17-.11.06-.06.06-.17.06-.23-.06-.06-.11-.17-.17-.17-.06-.06-.17-.11-.23-.17-.23-.11-.51-.17-.74-.23-.29,0-.51,0-.8.06l-.17.06c-.06,0-.11.06-.11.11s.06.11.06.17l.06.06c.11-.06.17,0,.29.06Zm-1.14-12.9c.23.06.46.06.69.06.11,0,.17-.06.29-.11.11-.06.17-.11.23-.17.06-.06.11-.17.06-.23-.06-.06-.06-.11-.06-.23,0-.06-.06-.06-.06-.06-.06,0-.06.06-.11.06-.17.11-.4.23-.63.23s-.46.06-.69.06c-.06.06-.11.06-.17.06s-.11.06-.17.06c.17.11.4.23.63.29Zm-23.2,35.05c-.4-.23-.8-.4-1.26-.46-.17,0-.29-.06-.4-.17-.11-.06-.23-.17-.34-.23,0,0-.06,0-.06-.06s-.06-.06-.06-.06c-.11-.23-.17-.51-.23-.74-.06-.29-.06-.51,0-.8.06-.17.11-.29.23-.46.11-.11.17-.29.29-.4.17-.29.4-.57.63-.8.23-.23.46-.46.74-.68.17-.11.34-.23.51-.34l.51-.34.34-.23c.11-.06.23-.17.29-.29.06-.06.06-.11.06-.23,0-.06-.06-.06-.17-.11-.23-.06-.46-.11-.69-.11-.23-.06-.46-.11-.69-.17-.11,0-.23-.06-.34-.11-.11-.06-.23-.11-.34-.17-.11-.06-.17-.17-.17-.29,0-.17.06-.29.17-.4l.11-.11q.06-.06.11-.11c.06-.17.17-.29.29-.4.11-.06.29-.11.46-.11.23-.06.51-.06.74-.06s.51,0,.74-.06l.51-.06c.17,0,.34-.06.51-.11.11,0,.23-.06.29-.17.06-.06.11-.17.17-.29v-.11c0-.06-.06-.06-.11-.06h-2.8c-.06,0-.06-.06-.06-.11s0-.11.06-.11h2.4c.11,0,.23-.06.34-.06-.17-.29-.23-.63-.06-.91.17-.29.29-.57.51-.86.29-.4.51-.74.74-1.14.23-.4.46-.8.69-1.26.17-.34.29-.69.34-1.03.11-.34.11-.74.11-1.08v-1.6c0-.46.11-.97.23-1.43.11-.46.34-.91.69-1.31.17-.23.34-.51.51-.68.23-.23.46-.4.69-.57.17-.06.34-.11.51-.17.17-.06.34-.06.51-.11.46-.17.86-.34,1.2-.63.4-.29.69-.63.97-1.03.11-.17.17-.4.29-.57.06-.23.11-.46.17-.68.11-.34.23-.74.34-1.08.17-.34.29-.68.46-1.03.11-.34.23-.63.34-.97.11-.34.17-.68.29-1.03.06-.34.11-.68.23-1.03.11-.34.17-.63.34-.97.06-.11.17-.29.29-.34.11-.11.23-.11.4-.11.11,0,.17,0,.29-.06.11-.06.17-.17.23-.23.17-.23.34-.51.46-.74.06-.23.23-.46.46-.68.11-.11.23-.29.4-.4.11-.11.29-.17.46-.17h.23l.29.06h.17c.06,0,.11-.06.11-.11.06-.06.06-.11.11-.11,0-.06.06-.06.11-.11.06-.11.11-.17.17-.23.06-.06.17-.11.29-.06.11,0,.23.11.23.17.06.11.06.17.11.29,0,0,.06.06.06.11s0,.06.06.11c0-.06.06-.11.06-.17v-.17c.11-.51.29-.97.4-1.48.11-.51.34-.97.51-1.43.06-.11.06-.23.06-.34,0-.06-.11-.06-.34-.06h-5.31c-.4,0-.8.11-1.2.17-.4.11-.8.23-1.2.34l-.57.17c-.17.06-.34.06-.57.06-.4,0-.8.11-1.14.23-.34.11-.69.34-1.03.57l-.29.11c-.06.06-.11.11-.23.17-.06.06-.11.11-.17.23-.06.06-.06.17-.06.23s0,.17.11.23c.06.06.11.06.23.11.23,0,.46.06.69.06s.46-.06.69-.17c.17-.11.34-.17.46-.17.17,0,.29-.06.46-.06h.17c.06,0,.06.06.06.11s0,.11-.06.11-.11.06-.17.06c-.17,0-.34,0-.51.06-.17.06-.34.06-.57.11-.11.06-.23.11-.34.11-.11.06-.23.06-.34,0h-.34c-.11,0-.23,0-.29-.06-.11-.06-.17-.06-.29,0-.11.06-.17.11-.17.23-.06.17-.11.34-.11.51v.68c0,.06.06.11.06.17s.06.23.17.23.17,0,.23-.11c.23-.23.51-.34.8-.46.29-.11.57-.11.91-.11.11,0,.23,0,.34-.06.11-.06.23-.11.34-.23.17-.11.29-.23.51-.29.17-.06.34-.06.51-.06.11,0,.23,0,.34-.06l.34-.17h.11q.06,0,.11.06c.06.06,0,.11,0,.11v.06c-.17.06-.29.11-.46.17-.17.06-.29.06-.46.06-.11,0-.23,0-.34.06-.11.06-.23.11-.34.17-.17.11-.34.17-.51.29-.17.06-.4.11-.63.06-.29,0-.51,0-.74.11s-.46.29-.63.46c-.11.06-.17.17-.23.29-.06.11-.06.29-.11.4-.11.34-.23.68-.46.97-.17.29-.4.57-.63.86-.23.29-.51.57-.8.86-.29.29-.57.51-.91.68-.11.11-.23.23-.29.34-.06.17-.11.29-.17.46-.06.29-.11.51-.23.8-.11.23-.17.51-.34.74-.11.29-.17.57-.17.86s.11.57.23.8c.11.23.23.46.34.68.11.23.23.46.29.74.06.29.17.51.4.68.17.17.4.34.63.51l.06.06c.06,0,.06.06.06.06,0,0,.06,0,.06.06v.11c0,.06-.06.06-.11.06s-.06,0-.11-.06c-.06-.06-.17-.06-.23-.11-.06-.06-.11-.06-.17-.11-.06-.06-.11-.11-.17-.17-.06-.06-.11-.11-.17-.17l-.17-.17c-.06-.06-.11-.11-.17-.17q0-.06-.06-.06c-.06-.06-.11-.11-.17-.23,0-.11-.06-.17-.06-.29s-.06-.23-.11-.34c-.06-.11-.11-.23-.11-.29-.06-.06-.11-.06-.11-.06,0,0-.06,0-.11.06-.17.23-.34.46-.57.68-.23.23-.4.46-.57.68-.17.23-.46.57-.74.8-.29.23-.51.51-.8.8-.17.17-.34.29-.51.46-.17.11-.34.29-.51.46-.17.11-.29.34-.4.51-.06.17-.11.4-.17.57v.46c0,.06.06.11.06.11h.11c.06-.06.06-.11.11-.11.17-.23.29-.4.4-.63.11-.23.23-.46.34-.68,0-.06,0-.11.06-.17,0-.06.11-.06.11-.06.06,0,.06.06.06.11v.17c-.17.34-.34.69-.57,1.03-.23.34-.46.63-.74.86-.17.11-.29.29-.34.51-.06.23-.17.4-.23.57-.06.17-.11.34-.11.51-.06.17-.06.34-.06.51v.17c0,.06-.06.11-.06.17-.17.17-.29.34-.4.57-.11.17-.17.4-.17.63,0,.06-.06.17-.06.23s-.06.17-.11.23c0,.06-.06.17-.06.23v.17c0,.29,0,.57-.11.8-.11.29-.29.51-.51.74-.23.29-.51.63-.74.97-.23.34-.46.68-.69,1.08-.06.17-.11.34-.17.46.11.34.06.51.06.63,0,.34-.06.68-.11,1.03-.06.34-.11.69-.17,1.03-.06.23-.06.46-.06.63,0,.34,0,.68-.06,1.03,0,.34-.06.68-.11,1.03v.23c0,.06,0,.17-.06.23,0,.06-.06.17-.11.23-.06.11-.11.17-.23.17-.17.17-.29.34-.34.57-.06.23-.06.46-.06.68,0,.29.06.51.17.74.11.23.29.4.51.51.06.06.11.17.17.23.06.06.11.11.23.17.06.06.17.06.23.11.11.06.17.06.29,0,.17-.06.34-.06.51-.06l.51.06c.4.06.86.11,1.26.17h1.31c.46,0,.86-.06,1.31-.06s.91,0,1.31.06c-.06.06-.06.11,0,.11h.06c-.4-.23-.8-.46-1.2-.63Zm7.94-1.43c-.29-.06-.51-.06-.8-.11-.11,0-.29,0-.4.06-.11.06-.23.11-.29.17-.11.06-.17.17-.17.23.06.11.11.17.17.23.17.06.29.06.46.06s.29,0,.46-.06l.57-.17c.17-.06.34-.11.57-.17l.11-.06q.06-.06.11-.11c-.29,0-.57,0-.8-.06Z"></path></g><g><path class="cls-2" d="m643.72,81.39v-2.48c.43-.8,1.08-.76,1.76-.76,4.8.01,9.61,0,14.41,0h6.44c.28.82.56,1.61.9,2.58.49-.91.91-1.67,1.35-2.49h22.33v3.88h-2.44c-14.08,0-28.17,0-42.25-.01-.85,0-1.86.37-2.5-.72Z"></path><path class="cls-2" d="m589.97,67.19v-3.81h42.07c.53,1.11,1.14,2.32,1.2,3.81h-43.27Z"></path><path class="cls-2" d="m633.38,100.54c-.43,1.34-.82,2.55-1.22,3.82h-42.18c-.13-1.19-.02-2.46-.07-3.82h43.47Z"></path><path class="cls-2" d="m589.97,59.82v-3.96h2.45c9.03,0,18.05.03,27.08-.02,2.69-.01,5,1.02,7.26,2.27.68.38,1.29.9,1.91,1.35-.01.1,0,.17-.04.21-.05.06-.12.14-.18.14-12.75,0-25.51,0-38.49,0Z"></path><path class="cls-2" d="m589.97,111.86v-3.88h38.98c-2.05,1.7-4.14,2.69-6.4,3.41-1.01.32-1.99.48-3.03.47-9.11-.02-18.22,0-27.33,0h-2.22Z"></path><path class="cls-2" d="m597.44,88.86v-2.73c.4-.17.81-.48,1.24-.51,1.24-.07,2.48-.02,3.72-.02h25.64c1.04,1.09,2.11,2.21,3.18,3.34.04.04,0,.16,0,.24-.03.07-.04.15-.08.21-.05.07-.12.16-.18.16-10.84,0-21.68,0-32.52,0-.15,0-.3-.07-.44-.13-.07-.03-.12-.11-.18-.17-.12-.12-.23-.23-.4-.4Z"></path><path class="cls-2" d="m597.44,81.22v-2.55c.43-.17.84-.44,1.28-.49.82-.08,1.65-.02,2.48-.02h29.9c-.36,1.8-1.95,2.59-3.05,3.96h-2.34c-8.69,0-17.38,0-26.07,0-.78,0-1.71.35-2.21-.89Z"></path><path class="cls-2" d="m586.4,55.94v3.8h-27.27c-.13-1.17-.02-2.45-.07-3.8h27.34Z"></path><path class="cls-2" d="m559.12,67.18v-3.81h27.27c.13,1.18.02,2.46.07,3.81h-27.34Z"></path><path class="cls-2" d="m559.12,104.34v-3.79h27.28v3.79h-27.28Z"></path><path class="cls-2" d="m586.39,107.97v3.81h-27.27c-.13-1.18-.02-2.46-.07-3.81h27.34Z"></path><path class="cls-2" d="m672.11,67.2c.49-1.37.95-2.64,1.39-3.87h24.81v3.87h-26.21Z"></path><path class="cls-2" d="m660.96,63.37c.54,1.25.99,2.45,1.22,3.83h-25.85v-3.83h24.63Z"></path><path class="cls-2" d="m636.34,55.86h22.15c-.15,1.39,1.31,2.33,1.08,3.89h-23.23v-3.89Z"></path><path class="cls-2" d="m698.37,55.93v3.8h-23.38c.41-1.28.8-2.49,1.22-3.8h22.16Z"></path><path class="cls-2" d="m669.36,74.61c.63-1.46,1.14-2.65,1.64-3.82h19.9c.13,1.19.02,2.47.07,3.82h-21.61Z"></path><path class="cls-2" d="m644.37,70.78h19.26c.43,1.21.87,2.43,1.34,3.74.04-.07.02,0-.03.04-.05.05-.13.11-.2.11-6.79,0-13.58,0-20.33,0-1.04-1.38-1.04-2.58-.04-3.91Z"></path><path class="cls-2" d="m698.37,100.55v3.79h-19.81v-3.79h19.81Z"></path><path class="cls-2" d="m656.07,100.53v3.08c-.48,1.02-1.29.81-2.01.81-5.87,0-11.74,0-17.73,0v-3.89h19.74Z"></path><path class="cls-2" d="m656.07,107.97v3.09c-.47.98-1.27.8-1.99.8-5.38,0-10.75,0-16.13,0h-1.61v-3.89h19.74Z"></path><path class="cls-2" d="m698.3,111.86c-6,0-11.87,0-17.74,0-.72,0-1.52.18-1.99-.8v-3.08h19.74v3.88Z"></path><path class="cls-2" d="m659.2,89.48c-.44-1.25-.84-2.4-1.32-3.76,3.32-.25,6.44-.08,9.54-.11,3.14-.03,6.28,0,9.54,0-.48,1.35-.91,2.61-1.36,3.88h-16.4Z"></path><path class="cls-2" d="m633.84,70.81c-.35,1.33-.67,2.56-.99,3.81h-12.01c-.13-1.18-.02-2.45-.07-3.81h13.06Z"></path><path class="cls-2" d="m632.86,93.1c.32,1.26.63,2.49.97,3.84h-12.93v-3.84h11.96Z"></path><path class="cls-2" d="m690.91,85.68v3.79h-12.34c-.13-1.17-.02-2.44-.07-3.79h12.41Z"></path><path class="cls-2" d="m678.56,96.91v-3.81h12.34c.13,1.18.02,2.46.07,3.81h-12.41Z"></path><path class="cls-2" d="m578.93,93.11v3.16c-.41.69-1.02.74-1.72.73-3.47-.03-6.94-.01-10.61-.01-.14-1.25-.03-2.53-.08-3.88h12.4Z"></path><path class="cls-2" d="m597.16,93.06h12.58v3.76s0,.03-.07.07c-.06.04-.14.09-.21.09-3.79,0-7.59,0-11.31,0-1.39-1.07-.39-2.52-.99-3.93Z"></path><path class="cls-2" d="m660.4,93.09h13.64c.01,1.41-.66,2.55-1.12,3.83h-10.86c-.48-1.11-1.02-2.36-1.66-3.83Z"></path><path class="cls-2" d="m578.93,71.34v2.61c-.43.75-1.05.76-1.74.75-3.47-.02-6.93-.01-10.6-.01-.14-1.25-.02-2.52-.08-3.96h4.23c1.4,0,2.81-.07,4.21.02,1.32.09,2.78-.51,3.98.59Z"></path><path class="cls-2" d="m597.42,74.13v-2.62c.32-.57.81-.81,1.55-.8,3.54.04,7.09.02,10.75.02v3.96c-3.69,0-7.38.02-11.07-.02-.42,0-.84-.35-1.23-.53Z"></path><path class="cls-2" d="m578.92,78.7v2.67c-.44.82-1.1.76-1.77.76-3.46-.01-6.93,0-10.51,0v-3.96c3.68,0,7.37-.02,11.06.02.42,0,.84.35,1.21.52Z"></path><path class="cls-2" d="m656.08,93.09v3.37c-.41.17-.83.5-1.25.51-3.3.04-6.6.04-9.9,0-.42,0-.83-.36-1.19-.52v-3.35h12.34Z"></path><path class="cls-2" d="m578.97,86.01v2.81c-.24.24-.48.47-.69.68h-11.67v-3.91c2.05,0,4.17-.08,6.28.02,1.98.09,4.04-.45,6.08.4Z"></path><path class="cls-2" d="m656.07,85.59v3.42c-.37.17-.78.51-1.2.52-3.29.05-6.59.04-9.89,0-.42,0-.84-.33-1.26-.5v-2.9c.39-.17.81-.51,1.23-.51,3.69-.04,7.38-.02,11.12-.02Z"></path><path class="cls-2" d="m671.57,100.55c-.42,1.33-.8,2.55-1.21,3.83h-5.82c-.44-1.22-.9-2.49-1.38-3.83h8.41Z"></path><path class="cls-2" d="m667.36,112.31c-.58-1.64-1.01-2.86-1.51-4.27h3.13c-.49,1.28-.98,2.59-1.62,4.27Z"></path></g><g><circle class="cls-4" cx="1413.1" cy="84.08" r="28.5"></circle><path class="cls-4" d="m1385.19,82.63c.3.43.3.87,0,1.3v-1.3Z"></path><path class="cls-4" d="m1385.19,84.48c.3.43.3.87,0,1.3v-1.3Z"></path><path class="cls-3" d="m1410.79,110.28c.45.02.93-.19,1.34.16h-1.3c-.06-.02-.09-.06-.08-.1,0-.04.02-.07.04-.07Z"></path><path class="cls-3" d="m1413.98,110.44c.41-.35.89-.15,1.34-.16.04.05.05.09.03.12-.02.03-.04.04-.06.04h-1.3Z"></path><path class="cls-1" d="m1410.79,110.28c.03.05.04.11.04.16h-1.11c0-.06,0-.11,0-.17.36,0,.72,0,1.08,0Z"></path><path class="cls-1" d="m1415.28,110.44c0-.06.01-.11.04-.16.36,0,.72,0,1.08,0,0,.06,0,.11,0,.17h-1.11Z"></path><path class="cls-4" d="m1385.19,81.14c.06,0,.11-.01.17,0,0,.32.12.67-.17.94v-.93Z"></path><path class="cls-4" d="m1385.36,87.27h-.08s-.08,0-.08,0v-.93c.29.27.17.61.17.94Z"></path><path class="cls-4" d="m1413.98,110.44h-1.86c-.42-.2-.87-.05-1.31-.09-.34,0-.68,0-1.03,0-3.95-.02-7.54-1.3-10.93-3.18-6.54-3.64-11-8.99-13.1-16.22-.35-1.19-.45-2.42-.48-3.65-.04-.32.1-.65-.09-.96v-.56c.15-.43.15-.87,0-1.3v-.56c.15-.43.15-.87,0-1.3v-.56c.19-.31.05-.65.09-.97,0-3.41,1.18-6.49,2.86-9.37,4.39-7.52,10.96-12.17,19.52-13.52,5.15-.82,10.42-.76,15.46,1.15,7.88,2.99,13.54,8.25,16.62,16.15.8,2.06,1.21,4.21,1.24,6.42.04,3.02.21,6.05-.63,9.01-1.83,6.42-5.63,11.4-11.17,15.08-2.78,1.85-5.82,3.15-9.06,3.94-1.23.3-2.51.31-3.77.39-.35,0-.7,0-1.04,0-.44.05-.9-.1-1.33.09Z"></path><path class="cls-2" d="m1421.97,102.83c-.09.73-.47,1.25-.91,1.72-1.46,1.56-3.18,2.73-5.16,3.54-1.82.75-3.63.59-5.44.01-2.1-.68-4.07-1.64-5.87-2.92-.45-.32-.88-.66-1.16-1.18.29-.3.57-.08.8-.03,2.84.62,5.24-.18,7.34-2.12,1.94-1.8,2.99-4.06,3.5-6.6.36-1.8.4-3.62.06-5.43-.39-2.01-1.86-3.39-3.88-3.72-1.63-.27-3.2-.02-4.77.36-2.96.72-5.47,2.27-7.72,4.26-1.28,1.13-2.01,2.59-2.15,4.29-.08.96.21,1.89.67,2.75.59,1.11,1.43,2.01,2.32,2.87.26.25.55.49.75.85-.57.22-1.01-.01-1.44-.25-1.09-.6-2.02-1.42-2.94-2.25-1.01-.91-1.98-1.87-2.86-2.91-.2-.24-.4-.45-.74-.51-.79-.15-1.27-.72-1.67-1.36-.51-.8-.77-1.69-.83-2.62-.05-.86-.39-1.47-1.18-1.83-.37-.17-.69-.41-.86-.82.18-.48.52-.83.89-1.16,2.32-2.04,4.68-4.04,7.26-5.76.9-.6,1.84-1.14,2.79-1.66,1.02-.57,1.85-1.33,2.61-2.2.92-1.05,1.79-2.13,2.83-3.07,1.12-1.01,2.5-1.59,3.8-2.29,3.63-1.93,7.55-3.04,11.55-3.89,3.05-.65,6.11-1.23,9.19-1.77.97-.17,1.96-.29,2.93-.41.21-.03.43-.05.67.07.11.51-.27.77-.57,1.05-.8.73-1.69,1.35-2.63,1.89-1.12.64-2.25,1.29-3.52,1.65-.68.19-1.34.2-2.01.01-.62-.18-1.25-.36-1.86-.56-.75-.25-1.51-.32-2.29-.28-.21.01-.44,0-.58.27.31.35.77.33,1.16.42,1.33.29,2.65.58,3.9,1.15.76.35,1.52.12,2.27-.06,1.18-.28,2.28-.77,3.29-1.45.77-.51,1.53-1.05,2.31-1.56.99-.65,1.41-.6,2.27.25.82.82,1.43,1.78,1.96,2.8,1.75,3.38,2.79,6.97,3.07,10.78.14,1.94-.17,3.82-.48,5.7-.26,1.58-.6,3.15-1.06,4.69-.1.35-.17.72-.51.94-.38-.08-.57-.38-.81-.62-.46-.46-.94-.89-1.48-1.26-.63-.43-1.31-.68-2.07-.73-.56-.04-1.11-.11-1.66-.16-.19-.02-.37-.04-.53-.31,1.39-4.09,1-7.99-2.1-11.29-2.08-2.21-4.8-3.14-7.85-3.31.03.39.27.37.46.43,1.64.55,3.28,1.1,4.77,2.01,2.7,1.64,4.07,4.01,4.22,7.16.13,2.81-.86,5.12-2.81,7.09-1.81,1.82-3.98,3.13-6.24,4.28-.47.24-.96.44-1.38.77-1.25.97-1.95,2.21-1.91,3.82.03,1.25.82,1.85,2.05,1.55.51-.12.98-.36,1.43-.65.25-.17.54-.29.81-.43Z"></path><path class="cls-4" d="m1400.05,80.83c.27-.49.69-.71,1.05-.99.75-.56,1.39-1.21,1.95-1.97,1.72-2.37,4.05-3.95,6.77-4.99.44-.17.91-.4,1.47-.24-.15.42-.41.71-.73.95-.92.69-1.69,1.52-2.38,2.45-.82,1.1-1.92,1.92-3.07,2.66-1.33.86-2.8,1.45-4.26,2.02-.21.08-.44.23-.79.11Z"></path></g><g><path class="cls-2" d="m1813.93,116.42c.44-.32.86-.69,1.33-.95,5.08-2.72,10.17-5.41,15.26-8.13,7.27-3.88,14.54-7.78,21.81-11.67,2.24-1.2,4.45-2.43,6.7-3.61.76-.4,1.21-.88,1.39-1.76.65-3.2,1.39-6.38,2.07-9.57.08-.39.01-.82.01-1.35-.52-.04-.98-.1-1.44-.1-3.65-.02-7.31,0-10.96-.07-.99-.02-1.71.29-2.36,1.01-.78.86-1.63,1.66-2.46,2.47-3.38,3.27-6.76,6.53-10.16,9.78-.72.69-1.5,1.33-2.27,1.97-.13.11-.35.12-.63.05,1.94-2.82,4.4-5.16,6.67-7.66,2.27-2.49,4.61-4.91,7.06-7.51-.57-.05-.97-.1-1.36-.11-6.77-.12-13.54-.22-20.31-.34-6.08-.1-12.16-.21-18.25-.31-6.4-.11-12.8-.21-19.2-.32-6.03-.1-12.06-.21-18.09-.32-6.29-.11-12.59-.21-18.88-.32-4.97-.09-9.94-.2-14.91-.31-.49-.01-.99-.11-1.48-.16-.02-.11-.03-.21-.05-.32.23-.15.44-.39.68-.42.57-.07,1.16-.05,1.74-.05,36.96,0,73.91-.01,110.87.04,1.62,0,2.75-.43,3.57-1.77.16-.27.41-.48.63-.71,3.88-4.11,7.77-8.21,11.64-12.32,2.86-3.04,5.7-6.09,8.54-9.14.63-.68,1.24-1.37,1.86-2.06.1.04.2.09.29.13,0,.27.06.56,0,.81-1.21,4.42-2.45,8.83-3.67,13.26-1.04,3.81-2.06,7.62-3.1,11.46.55.48,1.16.3,1.7.3,8.31.01,16.62,0,24.94.01.56,0,1.12.04,1.86.07-.36.8-.97.92-1.45,1.15-5.34,2.57-10.69,5.09-16.02,7.69-4.8,2.34-9.56,4.77-14.36,7.12-.89.43-1.33,1.01-1.59,1.98-1.89,7.08-3.84,14.13-5.79,21.19-.2.74-.49,1.45-.76,2.21-.77-.34-.46-.81-.39-1.16.87-4.18,1.75-8.35,2.64-12.52.67-3.14,1.37-6.27,2.05-9.41.02-.08-.06-.19-.11-.33-7.51,3.76-15,7.54-22.53,11.26-7.51,3.71-14.89,7.68-22.45,11.3-.11-.16-.21-.31-.32-.47Zm52.49-53.99c-.47.33-.99.61-1.4,1.01-4.07,3.91-8.12,7.84-12.18,11.77-.29.28-.55.6-1.06,1.14,4.07,0,7.83.03,11.63-.03.81-3.52,1.58-6.85,2.32-10.18.27-1.23.45-2.48.68-3.72.02-.04.04-.07.06-.11-.02.04-.04.08-.05.11Zm-3.66,27.3c.19.02.35.1.45.05,5.99-3.2,11.97-6.42,18.3-9.81-1.01-.17-1.62-.35-2.23-.36-4.23-.05-8.46-.06-12.7-.11-.76,0-1.17.27-1.37,1.01-.8,3.06-1.63,6.1-2.46,9.23Z"></path><path class="cls-2" d="m1701.03,98.26c.41-2.05.75-3.73,1.09-5.41-.09-.03-.17-.06-.26-.09-.55,1.33-1.1,2.66-1.66,3.99q-.63,1.5-2.32,1.51c-.69,0-1.38.01-2.06,0-1.25-.03-1.3-.09-1.32-1.39-.02-1.42,0-2.84-.14-4.28-.34,1.48-.67,2.96-1.03,4.44-.29,1.17-.32,1.2-1.46,1.23-1.05.03-2.1,0-3.24,0-.04-.5-.16-.87-.09-1.19.75-3.61,1.51-7.21,2.3-10.81.29-1.35.32-1.35,1.65-1.36,1.54-.01,3.07-.02,4.61,0,1.39.02,1.63.3,1.55,1.71-.07,1.26-.17,2.52-.25,3.78-.02.26,0,.52.17.84.66-1.63,1.32-3.25,1.97-4.88.56-1.41.58-1.44,2.06-1.45,1.89-.01,3.78,0,5.73,0,.04.38.12.58.08.77-.72,3.56-1.45,7.12-2.19,10.67-.4,1.93-.42,1.93-2.36,1.93-.83,0-1.66,0-2.83,0Zm1.29-6.47l-.06.12.09.02-.03-.13Z"></path><path class="cls-2" d="m1820.41,84.89c-.47,2.17-.87,4.02-1.26,5.86-.42,2.01-.8,4.03-1.24,6.03-.32,1.47-.35,1.46-1.9,1.48-1.11,0-2.22,0-3.34,0-1.49-.01-1.66-.13-1.83-1.54-.17-1.36-.27-2.72-.39-4.08-.02-.26-.04-.52-.25-.82-.1.25-.24.49-.3.75-.34,1.6-.67,3.19-.96,4.8-.1.54-.31.89-.9.89-1.21,0-2.41,0-3.84,0,.31-1.51.57-2.83.84-4.14.53-2.58,1.04-5.16,1.59-7.73.32-1.47.35-1.47,1.91-1.49,1.11,0,2.22-.01,3.34,0,1.54.02,1.63.14,1.83,1.72.18,1.46.42,2.91.64,4.37.01.08.09.16.15.28.43-1.78.9-3.5,1.25-5.25.17-.84.55-1.16,1.39-1.12.99.05,1.99.01,3.27.01Z"></path><path class="cls-2" d="m1595.75,98.11c.26-1.59.49-3.02.72-4.46-1.57-.21-1.68-.15-1.93,1.12-.16.83-.28,1.66-.41,2.49-.09.59-.37.98-1.03.98-1.47,0-2.94,0-4.64,0,.34-1.72.63-3.24.94-4.76.5-2.42,1.02-4.84,1.53-7.26.25-1.18.39-1.3,1.56-1.33,1.01-.02,2.01-.02,3.02,0,.35,0,.69.12,1.14.2-.28,1.38-.53,2.65-.82,4.06h1.66c.25-1.08.51-2.15.73-3.22.12-.57.34-1.02.99-1.03,1.42-.02,2.83,0,4.4,0,0,.66.08,1.18-.01,1.66-.69,3.46-1.42,6.91-2.14,10.36-.25,1.18-.39,1.34-1.56,1.33-1.35-.01-2.72.15-4.14-.14Z"></path><path class="cls-2" d="m1655.46,98.04c.2-1.04.38-2.01.58-2.98.62-2.98,1.24-5.97,1.89-8.95.25-1.16.31-1.2,1.47-1.21,1.9-.02,3.81-.04,5.71.02.78.03,1.58.2,2.32.45,1.95.66,3.11,2.58,2.95,4.89-.28,3.92-2.76,6.92-6.31,7.79-.41.1-.83.19-1.25.19-2.11.02-4.23.02-6.34.01-.3,0-.59-.12-1.01-.21Zm6.14-3.49c1.09.35,1.8,0,2.09-.83.41-1.18.67-2.41.93-3.63.07-.33,0-.77-.17-1.06-.16-.27-.55-.55-.83-.54-.26,0-.67.35-.74.62-.46,1.77-.84,3.56-1.27,5.44Z"></path><path class="cls-2" d="m1741.1,98.26c.18-1.01.26-1.68.41-2.33.71-3.23,1.43-6.46,2.17-9.69.3-1.32.33-1.34,1.68-1.35,2.22-.02,4.44,0,6.66,0,.16,0,.32-.01.47.01,1.19.23,2.49.33,3,1.68.5,1.34-.21,3.39-1.39,4.26-.25.19-.54.32-.93.54.93,1.05,1.22,2.22.87,3.59-.18.7-.09,1.47-.08,2.2,0,.71-.26,1.08-1.01,1.07-1.16-.02-2.32-.01-3.49,0-.68,0-.97-.36-.93-.99.05-.78.16-1.56.24-2.34.1-.97-.01-1.09-1.32-1.3-.25,1.17-.55,2.33-.75,3.51-.14.85-.57,1.16-1.4,1.14-1.3-.03-2.61,0-4.2,0Zm7.18-8.18c.73.29,1.21.11,1.58-.41.27-.39.3-.82-.14-1.08-.42-.24-.92-.32-1.15.3-.14.37-.19.76-.29,1.19Z"></path><path class="cls-2" d="m1572.27,89.37c.92-1.32,1.71-2.35,2.39-3.44.47-.76,1.06-1.11,1.95-1.04,1.35.1,2.73-.16,4.24.2-.19.42-.27.76-.47,1.02-1.04,1.39-2.06,2.81-3.19,4.12-.66.76-.69,1.44-.36,2.3.48,1.28.9,2.59,1.33,3.89.16.49.29.99.5,1.72-.69.05-1.24.12-1.78.13-.95.02-1.9-.03-2.85.02-.84.04-1.25-.34-1.47-1.11-.32-1.16-.7-2.3-1.29-3.45-.25,1.06-.49,2.12-.76,3.17-.35,1.37-.36,1.37-1.79,1.38-1.2,0-2.39-.02-3.77-.03.33-1.66.62-3.09.91-4.52.52-2.52,1.04-5.04,1.56-7.57.24-1.15.29-1.22,1.43-1.25,1.26-.03,2.51,0,3.81,0,.44,1.53-.41,2.79-.37,4.48Z"></path><path class="cls-2" d="m1528.37,84.78c.79.08,1.6.05,2.36.25,1.93.52,3.31,2.13,3.33,4.16.05,3.41-1.07,6.37-4.15,8.19-2.13,1.26-4.48,1.55-6.88.71-1.88-.66-2.93-2.07-2.98-4.05-.08-3.44.99-6.32,4.06-8.23,1.22-.76,2.17-.97,4.26-1.03Zm.14,5.34c-.06-.01-.11-.03-.17-.04,0-.26.05-.54-.01-.79-.07-.28-.22-.72-.4-.75-.3-.05-.73.07-.97.27-.26.22-.44.6-.54.95-.32,1.16-.6,2.34-.84,3.52-.1.51-.14,1.09.5,1.35.55.23,1.15-.07,1.43-.89.4-1.19.68-2.41,1.01-3.62Z"></path><path class="cls-2" d="m1730.56,98.24c-1.83,0-3.35.03-4.87-.03-.28-.01-.64-.35-.78-.62-.2-.41-.23-.9-.36-1.44-.49-.03-.95-.04-1.41-.1-1.13-.14-1.94.15-2.26,1.39-.08.32-.55.74-.86.76-1.46.08-2.92.03-4.67.03.43-.89.7-1.51,1.02-2.1,1.8-3.4,3.63-6.79,5.4-10.21.39-.76.87-1.08,1.73-1.05,1.53.06,3.07.03,4.61.01.7,0,1.04.25,1.12.99.29,2.88.63,5.75.94,8.62.13,1.14.25,2.28.4,3.74Zm-5.95-5.6v-2.96c-.06-.02-.12-.04-.19-.06-.41.97-.82,1.94-1.28,3.02h1.46Z"></path><path class="cls-2" d="m1625.25,85.17c-.19.91-.38,1.72-.53,2.54-.14.76-.58,1.06-1.33,1.04-.95-.02-1.9-.03-2.86.01-.32.01-.63.18-.94.59.31.11.61.28.92.3.74.05,1.48-.02,2.22.05.8.07,1.01.38.92,1.14,0,.05-.02.1-.03.15-.42,2.48-.42,2.45-3.03,2.5-.72.01-1.59-.35-2.26.61,1.5.67,3.07-.01,4.58.47.45,1.15-.1,2.22-.41,3.29-.06.21-.62.38-.95.38-2.75.03-5.5.04-8.25,0-1.02-.01-1.13-.2-.89-1.29.59-2.67,1.2-5.34,1.8-8.01.22-.97.41-1.96.61-2.93.14-.69.45-1.14,1.26-1.13,2.86.03,5.71.02,8.57.04.14,0,.29.11.62.24Z"></path><path class="cls-2" d="m1633.87,98.25c.6-2.91,1.13-5.53,1.67-8.15.28-1.34.53-2.68.84-4.01.25-1.07.39-1.18,1.52-1.19,2.48-.02,4.97-.02,7.45,0,1.19.01,1.46.29,1.17,1.43-.6,2.34.21,2.45-2.86,2.42-.63,0-1.28-.04-1.9.04-.28.04-.52.35-.78.53.03.12.07.24.1.35.93,0,1.86-.02,2.79,0,1.3.04,1.49.28,1.27,1.51q-.4,2.29-2.75,2.29c-.58,0-1.17-.02-1.74.05-.24.03-.45.3-.61.79,1.58.05,3.17.11,4.95.17-.24,1.15-.45,2.11-.64,3.07-.1.51-.43.7-.9.7-3.11,0-6.21,0-9.59,0Z"></path><path class="cls-2" d="m1551.02,90.17c-.06-.4-.04-.68-.16-.9-.15-.29-.38-.71-.63-.75-.28-.05-.69.19-.93.42-.25.25-.43.61-.52.96-.31,1.17-.57,2.35-.85,3.53-.12.51-.03.98.49,1.2.5.21,1.06.01,1.22-.46.42-1.22,1.36-1.11,2.31-1.09.94.02,1.89,0,3.04,0-.04.53,0,.94-.12,1.29-.69,1.87-2.1,3.03-3.93,3.64-1.56.51-3.16.7-4.83.3-2.74-.65-3.6-2.1-3.7-4.62-.08-1.87.44-3.75,1.46-5.42,1.16-1.88,2.9-2.94,5-3.32,1.27-.23,2.63-.18,3.93-.03,2.25.27,3.5,2.04,3.24,4.26-.08.7-.39,1.07-1.1,1.08-.9.01-1.8.02-2.7,0-.36,0-.72-.06-1.23-.11Z"></path><path class="cls-2" d="m1769.12,89.1c-.71-.03-1.23-.04-1.75-.08-1.01-.07-1.21-.29-.98-1.3.75-3.27.13-2.8,3.33-2.82,2.43-.02,4.87,0,7.3,0,.51,0,1.02.06,1.65.09-.11.77-.17,1.38-.29,1.98-.37,1.92-.38,1.95-2.42,2.04-.76.03-1.17.32-1.32,1.06-.41,2.01-.86,4.01-1.29,6.02-.08.36-.2.71-.24,1.08-.08.87-.55,1.14-1.38,1.11-1.41-.04-2.82-.01-4.4-.01.35-3.18,1.34-6.02,1.78-9.16Z"></path><path class="cls-2" d="m1508.39,84.89c-.7,3.29-1.32,6.25-1.99,9.43h4.3c.38,1.35-.09,2.42-.42,3.5-.06.19-.4.4-.61.4-3.1.03-6.21.02-9.52.02.26-1.36.46-2.54.7-3.7.57-2.73,1.17-5.45,1.75-8.18.29-1.36.37-1.45,1.75-1.47,1.26-.01,2.51,0,4.05,0Z"></path><path class="cls-2" d="m1795.14,84.97c-.22,1.29-.38,2.37-.6,3.44-.58,2.83-1.2,5.66-1.79,8.49-.28,1.31-.29,1.34-1.65,1.36-1.3.02-2.6,0-4.09,0,.45-2.3.83-4.35,1.25-6.4.4-1.96.84-3.91,1.24-5.86.1-.49.21-1,.78-1.04,1.56-.11,3.13-.11,4.86.02Z"></path></g></svg>