<svg xmlns="http://www.w3.org/2000/svg" id="Layer_1" viewBox="0 0 768 150"><defs><style>.cls-1{fill:#fff;}.cls-1,.cls-2{stroke-width:0px;}.cls-2{fill:#383838;}</style></defs><path class="cls-1" d="m720.43,91.09h-3.78v-28.36h-29.76v-3.78c.34-.04.65-.11.95-.11,10.54,0,21.07,0,31.61,0,1,0,1.07.06,1.07,1.03,0,10.1,0,20.2,0,30.3,0,.29-.05.57-.09.92Z"></path><path class="cls-1" d="m635.28,83.39v7.7h-3.78v-14.28c1.19,0,2.36-.03,3.53.03.21.01.45.36.6.59,1.25,1.93,2.48,3.86,3.72,5.8.14.22.3.44.52.75.21-.28.38-.48.52-.7,1.26-1.95,2.52-3.9,3.75-5.87.3-.47.65-.68,1.21-.66.96.03,1.91,0,2.95,0v14.31h-3.76v-7.68c-.06-.02-.12-.04-.18-.06-.13.16-.27.31-.37.47-.88,1.37-1.75,2.75-2.62,4.12-.64,1.01-2.24,1.04-2.89.05-.88-1.34-1.74-2.7-2.61-4.05-.13-.2-.27-.38-.41-.57-.06.01-.12.03-.18.04Z"></path><path class="cls-1" d="m668.13,91.09h-3.69v-7.8c-.07-.02-.13-.05-.2-.07-.32.5-.65.99-.97,1.49-.72,1.12-1.43,2.25-2.15,3.37-.52.81-2.19.8-2.72-.02-.9-1.39-1.78-2.79-2.68-4.18-.15-.24-.32-.47-.63-.66v7.83h-3.72v-14.25c1.2,0,2.37-.03,3.54.03.21.01.44.36.6.6,1.23,1.91,2.45,3.83,3.67,5.74.16.24.32.48.55.82.22-.3.39-.5.53-.72,1.25-1.96,2.51-3.91,3.74-5.88.3-.48.65-.69,1.21-.66.79.03,1.58.02,2.37.01.45,0,.69.2.69.67,0,4.39,0,8.79-.01,13.18,0,.14-.07.28-.13.48Z"></path><path class="cls-1" d="m570.39,73.15v-14.27c1.25,0,2.43-.03,3.6.02.21,0,.43.3.6.5,1.78,2.24,3.56,4.49,5.33,6.74.2.25.4.49.76.72v-7.93h3.83v14.27c-1.26,0-2.47.04-3.66-.03-.26-.02-.54-.39-.74-.65-1.79-2.3-3.57-4.61-5.35-6.92-.13-.17-.28-.33-.56-.67v8.21h-3.8Z"></path><path class="cls-1" d="m686.89,76.79c1.24,0,2.4-.03,3.55.03.23.01.48.32.65.54,1.82,2.31,3.62,4.64,5.42,6.95.12.15.25.28.54.6,0-.47,0-.73,0-.99,0-2.07.02-4.15,0-6.22,0-.7.24-.98.95-.95.93.04,1.86,0,2.87,0v14.36c-1.22,0-2.42.03-3.61-.02-.2,0-.42-.32-.58-.53-1.76-2.26-3.51-4.53-5.26-6.8-.18-.23-.36-.46-.7-.89v8.2h-3.84v-14.27Z"></path><path class="cls-1" d="m664.09,58.36c4.46,0,7.92,3.33,7.91,7.6-.01,4.42-3.4,7.82-7.88,7.81-4.74-.01-7.97-3.21-7.99-7.72-.02-4.81,3.82-7.71,7.96-7.68Zm-.05,11.73c2.39,0,4.03-1.65,4.05-4.05.01-2.28-1.73-4.04-4.02-4.06-2.31-.02-4.07,1.81-4.04,4.19.03,2.31,1.67,3.91,4.01,3.91Z"></path><path class="cls-1" d="m602,65.99c.03,4.27-3.18,7.79-7.97,7.78-4.61-.01-7.9-3.36-7.86-7.87.04-4.35,3.53-7.59,8.12-7.54,4.38.05,7.76,3.39,7.71,7.63Zm-7.96,4.1c2.48,0,4.03-1.56,4.03-4.08,0-2.29-1.67-4-3.93-4.02-2.31-.02-4.05,1.74-4.06,4.09,0,2.42,1.55,4.01,3.95,4.02Z"></path><path class="cls-1" d="m600.14,79.94c-1.05.58-1.99,1.09-3.1,1.7-.21-.28-.37-.56-.59-.79-1.09-1.16-2.46-1.45-3.94-1.03-1.34.38-2.01,1.47-2.16,2.75-.13,1.08-.18,2.25.08,3.29.64,2.54,3.84,3.4,5.76,1.61.36-.33.57-.82.85-1.23-.04-.07-.08-.14-.12-.21h-3.08v-3.01h7.06c.05.16.13.32.14.48.09,4.71-2.3,8.27-7.51,8.13-3.97-.1-6.79-2.66-7.33-6.83-.48-3.71,1.93-7.35,5.49-8.28,3.05-.8,6.1.2,7.95,2.63.16.21.28.45.5.79Z"></path><path class="cls-1" d="m641.05,73.17h-3.79v-5.34h-5.05v5.33h-3.82v-14.21h3.8v4.84h5.01v-4.86h3.85v14.24Z"></path><path class="cls-1" d="m607.74,68.32v4.84h-3.79v-14.21c.3-.04.54-.11.77-.1,1.88.03,3.76-.02,5.63.12,3.82.29,5.06,3.88,3.72,6.66-.34.71-1.1,1.21-1.76,1.91.53.83,1.15,1.77,1.76,2.72.59.92,1.18,1.85,1.91,2.99-.95,0-1.69-.09-2.39.02-1.64.26-2.68-.34-3.34-1.88-.41-.97-1.05-1.84-1.63-2.73-.13-.21-.42-.32-.63-.48-.08.05-.15.1-.23.15Zm.09-6.45v3.41c.96.02,1.9.18,2.5-.67.47-.65.46-1.44,0-2.08-.61-.84-1.55-.67-2.5-.66Z"></path><path class="cls-1" d="m615.17,91.14c-1.59,0-2.95.02-4.3-.03-.22,0-.48-.31-.63-.54-.79-1.28-1.54-2.59-2.33-3.87-.15-.25-.43-.41-.65-.62-.09.04-.19.09-.28.13v4.87h-3.82v-14.17c.15-.05.29-.14.42-.14,2.05.02,4.11-.07,6.15.11,3.24.29,4.85,3.35,3.65,6.34-.32.81-1.14,1.43-1.84,2.27,1.09,1.7,2.29,3.57,3.62,5.64Zm-8.13-8.15c1.21.32,2.06.15,2.48-.45.37-.52.35-1.68-.03-2.18-.42-.55-1.46-.74-2.45-.43v3.07Z"></path><path class="cls-1" d="m652.1,67.48c1.16,1.8,2.36,3.66,3.56,5.53-.04.07-.08.15-.12.22-.9,0-1.81-.09-2.7.02-1.23.15-1.97-.28-2.49-1.41-.51-1.09-1.21-2.1-1.85-3.12-.15-.24-.44-.39-.67-.59-.09.04-.18.09-.27.13v4.89h-3.73v-14.17c.16-.05.32-.14.48-.14,2.08.03,4.16-.06,6.22.15,3.28.34,5.02,4.2,3.18,6.94-.38.57-1.01.98-1.61,1.54Zm-4.51-2.29c1.26.27,2.26,0,2.64-.66.33-.58.26-1.64-.14-2.11-.45-.53-1.66-.74-2.5-.4v3.17Z"></path><path class="cls-1" d="m625.11,76.83h3.75c.04.34.09.62.09.9,0,2.71.02,5.43,0,8.14-.02,3.4-2.25,5.65-5.66,5.73-.74.02-1.49.04-2.22-.07-2.35-.35-4.85-1.75-4.88-5.36-.02-2.91-.01-5.82,0-8.73,0-.17.06-.33.11-.59h3.7c.03.36.06.67.07.98,0,2.54,0,5.08,0,7.62,0,2.07,1.01,2.92,3.06,2.66,1.18-.15,1.9-.96,1.91-2.24.02-2.66,0-5.33.01-7.99,0-.32.03-.63.05-1.07Z"></path><path class="cls-1" d="m684.86,91.13c-1.32,0-2.54.02-3.76-.02-.17,0-.39-.28-.48-.48-.23-.52-.35-1.09-.62-1.58-.13-.25-.49-.51-.76-.52-1.21-.06-2.42-.01-3.63-.03-.45,0-.68.19-.81.59-.15.47-.35.92-.49,1.4-.14.47-.39.69-.9.68-1.08-.02-2.16,0-3.37,0,.1-.37.13-.6.22-.82,1.57-4.26,3.16-8.51,4.72-12.77.22-.61.54-.86,1.19-.82.91.05,1.83.02,2.74,0,.48,0,.77.17.95.64,1.6,4.33,3.21,8.65,4.81,12.98.07.2.1.42.18.76Zm-6.08-5.72c-.46-1.3-.88-2.49-1.29-3.68-.06,0-.12.02-.19.03-.41,1.2-.82,2.39-1.26,3.65h2.74Z"></path><path class="cls-1" d="m678.01,68.32v4.85h-3.76v-14.21c.2-.04.41-.12.62-.12,2.05.02,4.11-.01,6.15.1,2.11.11,3.56,1.48,3.98,3.55.45,2.22-.26,4.28-1.98,5.16-.82.42-1.83.52-2.77.65-.67.1-1.36.02-2.24.02Zm.12-3.02c1.13.31,2.42,0,2.84-.64.43-.65.41-1.67-.05-2.23-.48-.58-1.82-.8-2.79-.44v3.3Z"></path><path class="cls-1" d="m626.06,58.93v3.78h-2.91c0,1.84,0,3.56,0,5.28s0,3.43,0,5.19h-3.87v-10.46h-2.93v-3.79h9.71Z"></path><path class="cls-1" d="m464.43,79.93v-6.74l-.23-.09c-1.36,2.37-2.71,4.73-4.07,7.1h-3.5c-1.32-2.34-2.67-4.74-4.21-7.47v7.29c-1.09.41-2.16.26-3.43.11-.32-1.71-.14-3.44-.15-5.15-.01-1.66-.12-3.33.12-5.17,1.92-.07,3.69-.03,5.6-.03,1.25,2.27,2.51,4.53,3.88,7,1.34-2.4,2.61-4.69,3.87-6.95h5.32c.37,1.17.47,7.7.17,10.17-1.4.38-2.06.37-3.37-.07Z"></path><path class="cls-1" d="m280.72,69.77v2.68c-.52.04-.97.11-1.41.11-2.37.01-4.74,0-7.12,0-.71,0-1.38.03-1.92.6-.67.71-1.14,1.47-.81,2.49.35,1.06,1.18,1.77,2.28,1.8,1.67.05,3.35.01,5.15.01.02-.28.04-.71.07-1.26-1.17-.06-2.24-.12-3.4-.18v-2.11c1.11-.35,4.7-.44,6.98-.16.33,1.22.37,4.52.08,6.34-.14.05-.29.15-.45.15-3.18.01-6.37.06-9.55,0-2.18-.04-3.93-1.23-4.54-3.19-1.12-3.64.25-6.52,4.39-7.25.51-.09,1.04-.03,1.56-.03,2.83,0,5.66,0,8.69,0Z"></path><path class="cls-1" d="m382.06,80.17v-10.27c.45-.05.83-.13,1.22-.13,2.89-.01,5.78,0,8.66,0,1.38,0,2.62.35,3.67,1.26,1.69,1.46,2.32,3.93,1.55,5.98-.69,1.82-2.78,3.23-4.91,3.25-3.06.02-6.12,0-9.18,0-.28,0-.56-.05-1.01-.08Zm3.49-7.59c0,1.64,0,3.02,0,4.4,0,.15.14.29.24.48,1.85,0,3.69.04,5.53-.01,1.34-.04,2.44-1.16,2.46-2.4.02-1.18-.96-2.37-2.25-2.44-1.94-.1-3.89-.03-5.99-.03Z"></path><path class="cls-1" d="m428.77,80.2h-4.27c-2.08-2.21-4.25-4.51-6.63-7.05v6.99h-3.4v-10.2c1.61-.4,3.22-.04,4.89-.22,1.93,2.08,3.86,4.15,6,6.45.19-1.27.09-2.27.11-3.26.02-.97,0-1.95,0-3.03h3.2c.34,1.15.42,7.98.09,10.32Z"></path><path class="cls-1" d="m337.32,80.23c-.84-1.1-1.6-2.1-2.33-3.05h-4.02c-.04.97-.08,1.87-.12,2.84-1.12.44-2.25.22-3.56.14-.37-1.72-.16-3.45-.18-5.15-.02-1.66-.09-3.33.07-5.04.49-.09.82-.19,1.15-.19,3.07-.01,6.13-.03,9.2,0,1.76.02,3.12.72,3.83,2.43.64,1.54.09,3.15-1.37,4.02-.3.17-.6.33-1.02.55.77,1.1,1.5,2.16,2.32,3.34-1.37.27-2.62.11-3.97.11Zm-6.36-5.65c1.87,0,3.59.04,5.31-.02.69-.02,1.37-.29,1.55-1.11-.12-.67-.52-1.12-1.15-1.15-1.88-.07-3.77-.09-5.71.01v2.27Z"></path><path class="cls-1" d="m491.31,80.25v-2.39c.51-.05.96-.12,1.4-.12,2.37-.01,4.75,0,7.12,0,.7,0,1.42.04,1.69-.83-.37-.67-1-.49-1.55-.49-1.79-.02-3.59.01-5.38-.01-2.09-.03-3.4-1.32-3.4-3.32,0-1.97,1.2-3.26,3.2-3.31,2.08-.05,4.17-.01,6.25-.01,1.32,0,2.64,0,4.09,0v2.52c-1.72,0-3.38-.05-5.03.01-1.63.06-3.32-.32-4.91.37.1.88.62.91,1.16.91,1.74,0,3.47,0,5.21,0,.4,0,.82-.02,1.21.03,1.66.22,2.78,1.67,2.84,3.4.05,1.65-1.5,3.21-2.82,3.23-3.64.04-7.27.02-11.07.02Z"></path><path class="cls-1" d="m306.98,80.22c-2.15-2.49-4.31-5.01-6.7-7.78v7.7h-3.4v-10.14c.82-.45,1.76-.18,2.65-.22.86-.04,1.73,0,2.74,0,1.77,2.04,3.58,4.12,5.61,6.47v-6.33h3.41c.19,1.68.07,3.35.09,5.01.02,1.68,0,3.35,0,5.22-1.47.24-2.88.11-4.41.08Z"></path><path class="cls-1" d="m313.33,69.85h11.91v2.52c-1.34.38-2.72.13-4.09.18-1.32.04-2.65,0-4.06,0v1.02h7.93c.54.82.23,1.55.32,2.45-2.81.17-5.51,0-8.3.12-.02.42-.03.75-.06,1.28,2.74.15,5.44-.02,8.24.1v2.46c-1.13.34-9.51.43-11.89.09-.36-1.64-.15-3.36-.16-5.07,0-1.66-.15-3.34.14-5.16Z"></path><path class="cls-1" d="m283.01,69.87h11.9v2.46c-1.46.43-2.85.18-4.21.22-1.38.04-2.75,0-4.19,0-.04.36-.07.57-.09.75.08.08.13.15.17.15,2.7.08,5.4.15,8.29.23.05.77.1,1.47.16,2.36h-8.53v1.42h8.06c.72.87.41,1.68.43,2.45-1.16.41-9,.53-11.9.21-.32-1.18-.4-8.02-.1-10.27Z"></path><path class="cls-1" d="m434.67,78.55c-.45.62-.83,1.12-1.21,1.64h-3.78c.35-1.49,1.38-2.45,2.06-3.59.68-1.14,1.47-2.21,2.19-3.32.75-1.16,1.48-2.33,2.2-3.46h5.3c2.19,3.36,4.4,6.77,6.74,10.37h-4.32c-.36-.47-.77-1.01-1.24-1.63h-7.94Zm6.35-2.93c-.9-1.39-1.63-2.51-2.41-3.71-.79,1.32-1.47,2.47-2.21,3.71h4.63Z"></path><path class="cls-1" d="m360.62,80.16h-4.26c-.34-.42-.81-.98-1.33-1.62h-7.89c-.38.53-.75,1.05-1.16,1.61h-4.11c2.33-3.55,4.53-6.91,6.76-10.31h5.18c2.37,3.22,4.44,6.72,6.81,10.31Zm-11.79-4.59h4.61c-.79-1.24-1.52-2.39-2.33-3.67-.8,1.28-1.48,2.38-2.28,3.67Z"></path><path class="cls-1" d="m489.08,69.81c.56.92.5,1.73.08,2.67-.5.03-1.01.08-1.52.08-1.85,0-3.7,0-5.55,0-2.26.01-2.74.41-3.3,2.67.74,1.91,1.12,2.22,2.99,2.24,1.91.02,3.82,0,5.73.01.56,0,1.12.05,1.82.08v2.51c-.45.08-.77.18-1.1.18-2.6.01-5.2.03-7.81,0-2.06-.03-3.7-.9-4.66-2.77-1.51-2.92-.35-7.04,3.86-7.6,3.12-.42,6.33-.08,9.46-.08Z"></path><path class="cls-1" d="m397.05,69.86h4.3c1.2,1.17,2.52,2.45,3.97,3.86,1.36-1.32,2.67-2.6,3.99-3.88h4.45c-2.34,2.35-4.48,4.5-6.7,6.73v3.45c-1.27.45-2.44.16-3.75.22v-3.55c-2.18-2.21-4.28-4.33-6.38-6.46.04-.12.08-.24.12-.36Z"></path><path class="cls-1" d="m361.55,80.1v-10.22h3.42v7.42c.5.07.88.17,1.26.17,1.91.02,3.82,0,5.73.01.5,0,.99.09,1.56.15-.04.89-.07,1.61-.1,2.32-1.17.38-9.24.49-11.87.14Z"></path><path class="cls-1" d="m470.03,80.14v-10.25h3.24c.3,1.25.36,8.13.08,10.25h-3.32Z"></path><path id="path2" class="cls-1" d="m127.17,78.26l4.83-27.17h-7.39l-5.98,33.6h21.57l2.61-6.43h-15.64Z"></path><path id="path4" class="cls-1" d="m157.84,51.09h7.14l13.68,33.65h-7.94l-2.72-7.08h-13.58l-2.71,7.08h-7.59l13.73-33.65Zm-1.11,20.74h9.05l-1.41-3.77c-.96-2.66-2.16-5.98-3.07-8.54h-.1c-.91,2.56-2.11,5.88-3.17,8.74l-1.31,3.57Z"></path><path id="path6" class="cls-1" d="m178.61,75.3c3.57,2.41,8.1,3.47,10.76,3.47s4.68-1.05,4.68-3.57c0-3.11-3.17-3.42-7.49-4.77-4.63-1.51-8.85-3.82-8.85-9.64,0-6.28,4.73-10.15,11.82-10.15,3.32,0,7.34.85,10.26,2.41v7.28c-3.57-2.21-7.69-3.26-10.31-3.26s-4.32.95-4.32,3.16c0,2.96,3.12,3.21,7.14,4.57,5.08,1.66,9.15,4.02,9.15,9.99,0,6.53-4.98,10.5-12.22,10.5-2.36,0-4.68-.35-6.94-1,.05,0-3.67-8.99-3.67-8.99Z"></path><path id="path8" class="cls-1" d="m97.56,66.41l.91-1,13.78-14.31h8.95l-15.23,15.57,9.75,18.03h-8.6l-9-17.28-.55-1Zm-2.26-.15l2.16,4.12-2.56,14.36h-7.34l5.93-33.65h7.39l-2.01,11.5-3.57,3.67Z"></path><path id="path10" class="cls-2" d="m118.62,90.87h2.61c.91-.05,1.81.15,2.61.55.65.4,1.06,1.16,1.01,1.96.05,1.05-.65,2.01-1.71,2.31l2.36,3.52h-2.11l-2.11-3.31h-.8v3.31h-1.81v-8.34h-.05Zm2.77,3.72c.4,0,.8-.05,1.16-.2.3-.15.5-.5.45-.85.05-.35-.15-.65-.45-.8-.45-.2-.91-.25-1.36-.2h-.7v2.06h.91Z"></path><path id="path12" class="cls-2" d="m129.53,90.87h5.13v1.61h-3.32v1.66h2.87v1.51h-2.87v2.01h3.47v1.61h-5.28v-8.39Z"></path><path id="path14" class="cls-2" d="m139.24,96.9c.8.5,1.71.8,2.66.85.65,0,1.16-.25,1.16-.9,0-.75-.8-.85-1.86-1.21-1.16-.4-2.21-.95-2.21-2.41,0-1.56,1.16-2.51,2.92-2.51.91,0,1.76.2,2.56.6v1.81c-.75-.5-1.66-.75-2.56-.8-.6,0-1.06.25-1.06.8,0,.75.75.8,1.76,1.1,1.26.4,2.26,1,2.26,2.46,0,1.61-1.26,2.61-3.02,2.61-.91,0-1.81-.2-2.61-.6v-1.81Z"></path><path id="path16" class="cls-2" d="m149.34,90.87h5.18v1.61h-3.32v1.66h2.82v1.51h-2.87v2.01h3.47v1.61h-5.28v-8.39Z"></path><path id="path18" class="cls-2" d="m161.81,90.87h1.81l3.37,8.34h-1.96l-.65-1.76h-3.37l-.7,1.76h-1.86l3.37-8.34Zm-.3,5.17h2.26l-.35-.9c-.25-.65-.55-1.51-.75-2.11h-.05c-.2.65-.5,1.46-.8,2.16l-.3.85Z"></path><path id="path20" class="cls-2" d="m171.06,90.87h2.61c.91-.05,1.81.15,2.61.55.65.4,1.06,1.16,1.01,1.96.05,1.05-.65,2.01-1.71,2.31l2.36,3.52h-2.11l-2.11-3.31h-.8v3.31h-1.81l-.05-8.34Zm2.77,3.72c.4,0,.8-.05,1.16-.2.3-.15.5-.5.45-.85.05-.35-.15-.65-.45-.8-.45-.2-.91-.25-1.36-.2h-.7v2.06h.91Z"></path><path id="path22" class="cls-2" d="m188.26,98.81c-.75.35-1.61.55-2.46.55-2.67,0-4.53-1.86-4.53-4.27s1.86-4.32,4.53-4.32c.8,0,1.61.15,2.31.5v1.86c-.7-.45-1.46-.7-2.31-.7-1.41-.05-2.67,1-2.72,2.46v.2c-.05,1.46,1.11,2.61,2.56,2.66h.25c.85,0,1.66-.3,2.36-.75v1.81Z"></path><path id="path24" class="cls-2" d="m192.58,90.87h1.81v3.21h3.62v-3.21h1.81v8.34h-1.81v-3.52h-3.62v3.52h-1.81v-8.34Z"></path><path id="path26" class="cls-1" d="m61.2,84.54c-.05,0-.1.05-.15.05h-.35c-.05,0-.1.05-.1.05h-.05c-.05,0-.1.05-.1.05q-.05,0-.1.05h-.85c-.05,0-.1,0-.15.05h-.4c-.05,0-.15,0-.2.05h-.4s-.05.05-.1.05h-.4c-.1,0-.2,0-.3.05l-.35.05h-.4c-.05,0-.15-.05-.2-.05s-.15,0-.2.05h-1.46l-.5-.05h-2.16c-.1,0-.15,0-.2.05h-.2c-.05,0-.1,0-.15-.05-.3.05-.6.05-.91,0-.3-.05-.6-.1-.91-.15-.1,0-.2-.05-.3-.05h-.3c-.2.1-.4.1-.6,0-.2-.1-.35-.2-.5-.35q-.05-.05-.1-.1c-.05-.05-.05-.1-.1-.1-.1-.15-.2-.3-.3-.4-.1-.15-.15-.35-.2-.55v-.9c.05-.15.1-.3.2-.4.1-.1.2-.15.3-.25.05,0,.1-.05.1-.1s.05-.1.05-.15c0-.2.05-.4.1-.6.05-.2.05-.4.05-.6v-.4c.05-.05.05-.15.05-.2v-.2c0-.2.05-.35.05-.55s.05-.35.1-.55c0-.15.05-.25.1-.4.05-.15.05-.3,0-.4v-.4c0-.2.05-.4.1-.6.05-.2.15-.45.3-.6.2-.3.4-.6.6-.85.2-.25.4-.55.65-.85.15-.15.25-.3.35-.5.1-.15.1-.4.05-.55v-.1c0-.15.05-.3.15-.45.1-.15.2-.3.3-.45,0-.15.05-.25.1-.4.05-.1.1-.25.2-.35.05-.1.1-.2.15-.3-.1-.25-.1-.4-.1-.5,0-.3.1-.65.2-.95.1-.3.3-.6.5-.85,0,0,.05-.05.05-.1v-.1c-.05-.35,0-.75.05-1.1.1-.35.35-.7.7-.9.25-.2.45-.35.65-.55s.45-.4.65-.6c.35-.3.65-.65.96-1.05.3-.4.6-.75.85-1.05.05-.05.05-.1.05-.15s0-.1-.05-.15c-.15-.2-.2-.45-.25-.75,0-.25.05-.55.15-.8.1-.25.25-.55.3-.8.1-.25.2-.55.25-.8.05-.15.1-.3.2-.4.1-.1.2-.25.35-.35.5-.35,1.01-.75,1.41-1.26.4-.5.75-1.05.91-1.66,0-.05.05-.1.05-.15s0-.1-.1-.15c-.05-.05-.1-.1-.15-.15,0-.05-.05-.1-.05-.2,0-.15-.05-.3-.05-.5,0-.15,0-.3.05-.45,0-.1,0-.15.05-.25.05-.05.05-.15.1-.2,0-.05.05-.1.05-.15v-.55c0-.15.1-.3.2-.4.1-.05.2-.15.3-.2.1-.05.2-.15.25-.2.2-.15.4-.25.6-.35.3-.15.5-.25.7-.3.15,0,.3-.05.45-.05l.45-.05c.3-.05.55-.1.85-.2l.85-.3c.1,0,.2-.05.25-.05s.15,0,.2-.05h.25c.05,0,.1,0,.15-.05.1,0,.2-.05.25-.05h.6c.1,0,.15-.05.25-.05h.2c.35,0,.65-.05,1.01-.05h4.07c.35,0,.65,0,.96.05.3,0,.6,0,.91.05.3.05.6.05.91.05.15,0,.35,0,.5.1.15.05.3.15.4.2.1.05.2.15.25.25.05.1.1.2.15.35,0,.05.05.15.05.2s.05.15.05.2c.05.1.1.2.1.3s0,.25-.05.35c.1.1.1.15.15.15q.05.05.1.05c.2.05.45.15.6.25.2.1.35.3.5.45.1.15.2.25.3.4.1.15.2.3.25.45.1.15.25.35.35.5.1.2.2.4.35.6.2.35.4.7.5,1.05.15.4.25.75.35,1.16.05.35.15.7.25,1.05.1.35.3.7.5,1,.3.35.5.75.7,1.21.2.4.4,1.36.55,1.81.1.25.2.55.3.8.05.3.1.6.05.85,0,.3-.05.6-.1.85-.05.25-.1,1.61-.15,1.86-.1.25-.15.55-.15.8s0,.5.05.8c.05.25.1.45.1.65.05.2.1.4.15.6.05.2.05.4,0,.65-.05.2-.15.4-.3.55-.05.05-.05.1-.05.15s.05.05.1.1c.1.05.2.15.3.2.1.05.2.15.35.2.15.05.25.15.35.3.05.1.15.25.2.35.05.6.15,1.26.25,1.86.1.6.2,1.26.3,1.86.05.35.1.65.2,1,.1.35.2.65.3,1v.75c-.05.15-.1.3-.15.45-.05.15-.1.3-.2.4-.1.15-.2.3-.25.5-.1.15-.15.35-.2.5-.1.2-.2.4-.3.55-.1.15-.25.3-.4.4-.15.15-.35.25-.55.3-.2.05-.4.1-.6.15q-.05.05-.1.05c-.05,0-.1,0-.1.05h-.2c-.05,0-.1.05-.15.05s-.1,0-.15.05c-.2,0-.4,0-.6.05l-.6.05c-.05,0-.1-.05-.1,0h-.1l-.8.05c-.25,0-.55.05-.85.05-.25,0-.45-.05-.65-.1l-.55-.35c-.1-.05-.15-.05-.2-.1-.1-.05-.15-.1-.2-.15-.15-.15-.25-.3-.35-.45-.1-.15-.2-.35-.25-.5-.05-.05-.05-.1-.1-.15v-.3c0-.05,0-.1-.05-.15v-1.1c0-.05-.05-.1-.05-.2v-.25c0-.05,0-.1-.05-.1,0-.15,0-.25-.05-.4-.05-.1-.05-.2-.05-.35v-.4c0-.15,0-.3.05-.4.05-.15.1-.25.15-.4.05-.1.15-.2.2-.3.05-.1.15-.2.2-.3.25-.4.55-.75.8-1.1.25-.4.5-.8.7-1.21.05-.1.1-.15.15-.25.05-.1.05-.15.1-.25,0-.05,0-.1.05-.15,0-.05.05-.1.05-.15.1-.15.15-.25.25-.4.05-.15.15-.25.25-.4.05-.05.05-.1.05-.15s-.05-.05-.1-.1l-.05-.05c-.05-.05-.1-.1-.15-.1-.15-.15-.3-.3-.45-.5-.15-.2-.3-.35-.4-.55-.1-.2-.25-.35-.4-.5-.15-.15-.25-.35-.4-.55-.3-.3-.55-.65-.8-1-.25-.35-.45-.75-.65-1.16-.15-.35-.3-1.71-.4-2.06-.1-.35-.25-.7-.4-1.05v-.15c0-.15-.05-.25-.15-.4-.05-.1-.15-.2-.3-.3-.05-.05-.15-.1-.2-.1l-.25-.1c-.2-.1-.35-.2-.5-.35-.15-.15-.3-.3-.45-.45l-.05-.05-.05-.05c-.05-.1-.15-.7-.2-.75-.05-.1-.15-.2-.25-.25-.05-.05-.1-.1-.15-.15-.05-.05-.15-.1-.2-.1-.15,0-.3-.05-.45-.1-.15-.05-.25-.15-.4-.2-.05-.05-.1-.05-.15-.05s-.15.05-.2.05l-.15.15c-.05.05-.1.1-.1.15-.15.25-.3.45-.5.65s-.4.4-.6.55c-.3.25-.65.5-1.01.7-.35.2-.75.4-1.11.6-.25.1-.45.25-.65.35-.2.15-.4.3-.55.5-.05.05-.15.15-.25.2l-.25.15c-.1,0-.15.05-.2.1-.05.05-.1.05-.15.1-.1.05-.15.1-.2.2-.05.1-.05.15-.05.25,0,.25-.05.45-.1.7-.05.25-.1.45-.15.7l-.05.05v.3c0,.05-.05.1-.05.15v.1c0,.15,0,.3.05.45l.15.45c0,.05.05.15.1.2.05.05.05.15,0,.2v.25c.05.05.05.1.05.15s-.05.1-.05.15c-.05.1-.1.2-.15.3l-.15.25c-.05.1-.15.15-.2.25-.05.1-.15.15-.25.2-.05.05-.1.1-.15.15-.05.05-.15.1-.15.15s-.05.1-.05.15-.05.1-.05.15c0,.15,0,.3.05.45s.1.3.15.4c.1.2.2.4.3.6.1.2.1.45.1.7v.75c0,.25-.05.5-.05.75s0,.5.05.75c-.05.1-.05.2-.05.35,0,.1.05.25.05.35l.05.05v.05c0,.2,0,.35.05.55.05.2.05.35,0,.55v.05l-.05.05v.05l.05.05c0,.1,0,.25.05.35v.4c.05.15.1.3.15.4.05.15.05.3.1.45.05.15.05.25.1.4.05.15.05.25,0,.4,0,.05-.05.1-.05.2,0,.05,0,.1.05.15,0,.25,0,.5-.1.7-.1.25-.2.45-.3.7,0,.05-.05.15-.05.2,0,.1-.05.15-.05.25v.35c0,.15-.05.35-.1.5-.1.15-.15.25-.25.4-.15.15-.3.3-.45.4-.2,0-.4.05-.65.1.05-.05.05,0,0,0Z"></path><path id="path28" class="cls-2" d="m68.55,58.88c.05-.15.15-.25.3-.35.25-.2.45-.4.65-.65.2-.2.4-.45.55-.7.25-.3.45-.65.6-1,.2-.35.35-.7.45-1.1l.15-.4c.05-.15.15-.25.25-.4q.05-.05.1-.05h.05v.4c0,.05,0,.15.05.2.05.35.1.7.15,1.05.05.3.05.6.05.9-.05.45.05.9.2,1.31.15.35.4.65.7.9.1.1.2.2.35.25.1.1.25.15.4.25.1.05.2.15.25.2.1.1.15.2.2.3.1.25.2.5.3.75.1.25.2.5.35.75l.2.5c.1.2.2.8.4.9.2.15.4.25.65.4.25.1.45.2.7.25.2.05.35.15.5.25.15.1.3.25.4.4.15.25.3.5.35.8.1.25.15.55.2.8.05.7.15,1.41.35,2.11.2.35.45.65.7.9.1.1.25.2.4.2s.25,0,.4-.1c.05,0,.15-.05.15-.1l.15-.15.05-.05c.05,0,.05-.05.1-.05,0,.05.05.05.05.1v.35c.05.3.1.6.15.9.05.3.1.6.2.9.05.15.05.35-.05.5-.1.15-.2.25-.3.4-.1.1-.2.15-.3.15l-.25-.05h-.25c-.05,0-.15.05-.2.1-.1.05-.15.1-.2.15-.05.05-.1.1-.15.15-.05,0-.05.05-.1.05v.1l.05.05h.05c.05,0,.1,0,.15-.05.05-.05.1-.05.15-.1.1-.15.25-.2.4-.2.15.05.3.15.35.3,0,.05,0,.1.05.15,0,.05.05.05.05.1,0,.2.05.4.05.6s.05.4.05.6c0,.25-.05.45-.05.65s-.05.4-.1.65c0,.3-.05.65-.1.95s-.05.6-.05.95v.15c0,.05-.05.15-.05.2-.05.1-.1.25-.1.4,0,.1.05.25.15.35.1.2.15.3.15.35s-.1.1-.35.15c-.05,0-.1.05-.15.1-.05.05-.1.1-.15.2-.1.25-.2.55-.25.8-.05.3-.15.55-.2.85-.05.15-.15.3-.25.4-.1.1-.25.2-.4.25-.15.05-.3.1-.45.2-.15.1-.25.25-.35.4-.1.15-.2.3-.25.5-.05.15-.15.35-.25.5-.05.1-.15.2-.25.25-.1.05-.2.05-.3.05-.25-.05-.45-.1-.7-.2-.2-.1-.4-.2-.6-.35-.15-.05-.25-.15-.35-.25-.1-.1-.15-.25-.2-.4-.05-.15-.1-.3-.1-.4,0-.15-.05-.3-.05-.4,0-.35,0-.75-.05-1.1,0-.35-.05-.7-.15-1.1v-.5c0-.2.1-.35.2-.5.1-.15.2-.35.3-.5l.35-.5c.25-.25.45-.55.65-.85s.35-.6.5-.95c.1-.25.25-.45.35-.7.1-.25.25-.5.4-.7.1-.2.25-.35.4-.5.15-.15.4-.25.6-.25q.05,0,.05-.05l.05-.05q0-.05-.05-.1l-.1-.05c-.05,0-.1,0-.15.05-.05,0-.1.05-.15.05-.1.05-.15.1-.2.05-.05,0-.1-.05-.15-.05-.2-.15-.35-.25-.5-.4-.15-.15-.25-.3-.4-.45-.2-.25-.4-.5-.6-.75-.2-.25-.4-.5-.6-.75-.35-.35-.7-.75-.96-1.21-.25-.45-.5-.9-.7-1.41-.15-.35-.25-1.71-.4-2.06-.15-.35-.25-.7-.4-1.05-.05-.05-.1-.15-.15-.2-.05-.05-.1-.1-.2-.15-.2-.1-.4-.2-.6-.35-.2-.15-.4-.3-.55-.45-.1-.1-.2-.75-.3-.85-.1-.1-.2-.25-.3-.3-.1-.15-.25-.25-.35-.35-.1-.1-.25-.15-.4-.2-.15-.05-.25-.05-.4-.1-.1-.05-.25-.1-.35-.2-.1-.05-.15-.15-.25-.2-.05-.05-.1-.15-.15-.2-.15-.2-.25-.4-.35-.65-.1-.25-.15-.5-.1-.75,0-.6.1-.75.15-.9Zm6.54,5.73c.1.05.15.1.2.2,0,.05.05.05.1.1h.6c.15,0,.3,0,.5.05.05,0,.15-.05.15-.1.05-.05.05-.15.05-.2-.05-.05-.1-.15-.15-.15-.05-.05-.15-.1-.2-.15-.2-.1-.45-.15-.65-.2-.25,0-.45,0-.7.05l-.15.05c-.05,0-.1.05-.1.1s.05.1.05.15l.05.05c.1-.05.15,0,.25.05Zm-1.01-11.35c.2.05.4.05.6.05.1,0,.15-.05.25-.1.1-.05.15-.1.2-.15.05-.05.1-.15.05-.2-.05-.05-.05-.1-.05-.2,0-.05-.05-.05-.05-.05-.05,0-.05.05-.1.05-.15.1-.35.2-.55.2s-.4.05-.6.05c-.05.05-.1.05-.15.05s-.1.05-.15.05c.15.1.35.2.55.25Zm-20.41,30.84c-.35-.2-.7-.35-1.11-.4-.15,0-.25-.05-.35-.15-.1-.05-.2-.15-.3-.2,0,0-.05,0-.05-.05s-.05-.05-.05-.05c-.1-.2-.15-.45-.2-.65-.05-.25-.05-.45,0-.7.05-.15.1-.25.2-.4.1-.1.15-.25.25-.35.15-.25.35-.5.55-.7.2-.2.4-.4.65-.6.15-.1.3-.2.45-.3l.45-.3.3-.2c.1-.05.2-.15.25-.25.05-.05.05-.1.05-.2,0-.05-.05-.05-.15-.1-.2-.05-.4-.1-.6-.1-.2-.05-.4-.1-.6-.15-.1,0-.2-.05-.3-.1-.1-.05-.2-.1-.3-.15-.1-.05-.15-.15-.15-.25,0-.15.05-.25.15-.35l.1-.1q.05-.05.1-.1c.05-.15.15-.25.25-.35.1-.05.25-.1.4-.1.2-.05.45-.05.65-.05s.45,0,.65-.05l.45-.05c.15,0,.3-.05.45-.1.1,0,.2-.05.25-.15.05-.05.1-.15.15-.25v-.1c0-.05-.05-.05-.1-.05h-2.46c-.05,0-.05-.05-.05-.1s0-.1.05-.1h2.11c.1,0,.2-.05.3-.05-.15-.25-.2-.55-.05-.8.15-.25.25-.5.45-.75.25-.35.45-.65.65-1,.2-.35.4-.7.6-1.1.15-.3.25-.6.3-.9.1-.3.1-.65.1-.95v-1.41c0-.4.1-.85.2-1.26.1-.4.3-.8.6-1.16.15-.2.3-.45.45-.6.2-.2.4-.35.6-.5.15-.05.3-.1.45-.15.15-.05.3-.05.45-.1.4-.15.75-.3,1.06-.55.35-.25.6-.55.85-.9.1-.15.15-.35.25-.5.05-.2.1-.4.15-.6.1-.3.2-.65.3-.95.15-.3.25-.6.4-.9.1-.3.2-.55.3-.85.1-.3.15-.6.25-.9.05-.3.1-.6.2-.9.1-.3.15-.55.3-.85.05-.1.15-.25.25-.3.1-.1.2-.1.35-.1.1,0,.15,0,.25-.05.1-.05.15-.15.2-.2.15-.2.3-.45.4-.65.05-.2.2-.4.4-.6.1-.1.2-.25.35-.35.1-.1.25-.15.4-.15h.2l.25.05h.15c.05,0,.1-.05.1-.1.05-.05.05-.1.1-.1,0-.05.05-.05.1-.1.05-.1.1-.15.15-.2.05-.05.15-.1.25-.05.1,0,.2.1.2.15.05.1.05.15.1.25,0,0,.05.05.05.1s0,.05.05.1c0-.05.05-.1.05-.15v-.15c.1-.45.25-.85.35-1.31.1-.45.3-.85.45-1.26.05-.1.05-.2.05-.3,0-.05-.1-.05-.3-.05h-4.68c-.35,0-.7.1-1.06.15-.35.1-.7.2-1.06.3l-.5.15c-.15.05-.3.05-.5.05-.35,0-.7.1-1.01.2-.3.1-.6.3-.91.5l-.25.1c-.05.05-.1.1-.2.15-.05.05-.1.1-.15.2-.05.05-.05.15-.05.2s0,.15.1.2c.05.05.1.05.2.1.2,0,.4.05.6.05s.4-.05.6-.15c.15-.1.3-.15.4-.15.15,0,.25-.05.4-.05h.15c.05,0,.05.05.05.1s0,.1-.05.1-.1.05-.15.05c-.15,0-.3,0-.45.05-.15.05-.3.05-.5.1-.1.05-.2.1-.3.1-.1.05-.2.05-.3,0h-.3c-.1,0-.2,0-.25-.05-.1-.05-.15-.05-.25,0-.1.05-.15.1-.15.2-.05.15-.1.3-.1.45v.6c0,.05.05.1.05.15s.05.2.15.2.15,0,.2-.1c.2-.2.45-.3.7-.4.25-.1.5-.1.8-.1.1,0,.2,0,.3-.05.1-.05.2-.1.3-.2.15-.1.25-.2.45-.25.15-.05.3-.05.45-.05.1,0,.2,0,.3-.05l.3-.15h.1q.05,0,.1.05c.05.05,0,.1,0,.1v.05c-.15.05-.25.1-.4.15-.15.05-.25.05-.4.05-.1,0-.2,0-.3.05-.1.05-.2.1-.3.15-.15.1-.3.15-.45.25-.15.05-.35.1-.55.05-.25,0-.45,0-.65.1s-.4.25-.55.4c-.1.05-.15.15-.2.25-.05.1-.05.25-.1.35-.1.3-.2.6-.4.85-.15.25-.35.5-.55.75-.2.25-.45.5-.7.75-.25.25-.5.45-.8.6-.1.1-.2.2-.25.3-.05.15-.1.25-.15.4-.05.25-.1.45-.2.7-.1.2-.15.45-.3.65-.1.25-.15.5-.15.75s.1.5.2.7c.1.2.2.4.3.6.1.2.2.4.25.65.05.25.15.45.35.6.15.15.35.3.55.45l.05.05c.05,0,.05.05.05.05,0,0,.05,0,.05.05v.1c0,.05-.05.05-.1.05s-.05,0-.1-.05c-.05-.05-.15-.05-.2-.1-.05-.05-.1-.05-.15-.1-.05-.05-.1-.1-.15-.15-.05-.05-.1-.1-.15-.15l-.15-.15c-.05-.05-.1-.1-.15-.15q0-.05-.05-.05c-.05-.05-.1-.1-.15-.2,0-.1-.05-.15-.05-.25s-.05-.2-.1-.3c-.05-.1-.1-.2-.1-.25-.05-.05-.1-.05-.1-.05,0,0-.05,0-.1.05-.15.2-.3.4-.5.6-.2.2-.35.4-.5.6-.15.2-.4.5-.65.7-.25.2-.45.45-.7.7-.15.15-.3.25-.45.4-.15.1-.3.25-.45.4-.15.1-.25.3-.35.45-.05.15-.1.35-.15.5v.4c0,.05.05.1.05.1h.1c.05-.05.05-.1.1-.1.15-.2.25-.35.35-.55.1-.2.2-.4.3-.6,0-.05,0-.1.05-.15,0-.05.1-.05.1-.05.05,0,.05.05.05.1v.15c-.15.3-.3.6-.5.9-.2.3-.4.55-.65.75-.15.1-.25.25-.3.45-.05.2-.15.35-.2.5-.05.15-.1.3-.1.45-.05.15-.05.3-.05.45v.15c0,.05-.05.1-.05.15-.15.15-.25.3-.35.5-.1.15-.15.35-.15.55,0,.05-.05.15-.05.2s-.05.15-.1.2c0,.05-.05.15-.05.2v.15c0,.25,0,.5-.1.7-.1.25-.25.45-.45.65-.2.25-.45.55-.65.85-.2.3-.4.6-.6.95-.05.15-.1.3-.15.4.1.3.05.45.05.55,0,.3-.05.6-.1.9-.05.3-.1.6-.15.9-.05.2-.05.4-.05.55,0,.3,0,.6-.05.9,0,.3-.05.6-.1.9v.2c0,.05,0,.15-.05.2,0,.05-.05.15-.1.2-.05.1-.1.15-.2.15-.15.15-.25.3-.3.5-.05.2-.05.4-.05.6,0,.25.05.45.15.65.1.2.25.35.45.45.05.05.1.15.15.2.05.05.1.1.2.15.05.05.15.05.2.1.1.05.15.05.25,0,.15-.05.3-.05.45-.05l.45.05c.35.05.75.1,1.11.15h1.16c.4,0,.75-.05,1.16-.05s.8,0,1.16.05c-.05.05-.05.1,0,.1h.05c-.35-.2-.7-.4-1.06-.55Zm6.99-1.26c-.25-.05-.45-.05-.7-.1-.1,0-.25,0-.35.05-.1.05-.2.1-.25.15-.1.05-.15.15-.15.2.05.1.1.15.15.2.15.05.25.05.4.05s.25,0,.4-.05l.5-.15c.15-.05.3-.1.5-.15l.1-.05q.05-.05.1-.1c-.25,0-.5,0-.7-.05Z"></path></svg>