<svg xmlns="http://www.w3.org/2000/svg" id="Layer_1" data-name="Layer 1" viewBox="0 0 1140.34 989.05"><defs><style>.cls-1,.cls-27{fill:#ebeff2;}.cls-1,.cls-13,.cls-17,.cls-18,.cls-20,.cls-21,.cls-22,.cls-24,.cls-26,.cls-27,.cls-28,.cls-4{stroke:#323a43;}.cls-1,.cls-13,.cls-14,.cls-16,.cls-17,.cls-18,.cls-19,.cls-20,.cls-21,.cls-22,.cls-23,.cls-24,.cls-26,.cls-27,.cls-28,.cls-4{stroke-miterlimit:10;}.cls-1{stroke-width:2.98px;}.cls-10,.cls-19,.cls-2,.cls-24,.cls-26,.cls-29,.cls-32,.cls-5,.cls-6{fill:#323a43;}.cls-3{opacity:0.2;}.cls-4{fill:#fff;}.cls-5{fill-rule:evenodd;}.cls-6{font-size:24.1px;}.cls-10,.cls-29,.cls-32,.cls-6{font-family:Kanit-Regular, Kanit;}.cls-7{letter-spacing:-0.03em;}.cls-8{letter-spacing:-0.05em;}.cls-9{letter-spacing:-0.08em;}.cls-10{font-size:17px;}.cls-11{letter-spacing:-0.02em;}.cls-12{letter-spacing:-0.02em;}.cls-13,.cls-17,.cls-18,.cls-20,.cls-21,.cls-22,.cls-28{fill:none;}.cls-13,.cls-14{stroke-width:0.98px;}.cls-14,.cls-16,.cls-23,.cls-25{fill:#bdccd4;}.cls-14,.cls-16,.cls-19,.cls-23{stroke:#bdccd4;}.cls-15{letter-spacing:0em;}.cls-17{stroke-width:1.19px;}.cls-18{stroke-width:1.46px;}.cls-19{stroke-width:2.95px;}.cls-20{stroke-width:1.1px;}.cls-21{stroke-width:2.98px;}.cls-22{stroke-width:1.34px;}.cls-23{stroke-width:1.49px;}.cls-24{stroke-width:1.63px;}.cls-26{stroke-width:1.68px;}.cls-27{stroke-width:3px;}.cls-28{stroke-width:2.98px;}.cls-29{font-size:24px;}.cls-30{letter-spacing:-0.04em;}.cls-31{letter-spacing:-0.08em;}.cls-32{font-size:17.47px;}.cls-33{letter-spacing:-0.02em;}.cls-34{letter-spacing:-0.01em;}.cls-35{letter-spacing:-0.05em;}.cls-36{letter-spacing:0em;}.cls-37{letter-spacing:-0.03em;}.cls-38{letter-spacing:-0.02em;}.cls-39{letter-spacing:-0.05em;}.cls-40{letter-spacing:0em;}</style></defs><rect class="cls-1" width="1140.34" height="988.41"></rect><path class="cls-2" d="M321.27,132.5H264.5l-6.31,6.31-13.35,13.35-6.31,6.31v93.68a6.15,6.15,0,0,0,6.13,6.14h76.61a6.15,6.15,0,0,0,6.14-6.14V138.64A6.15,6.15,0,0,0,321.27,132.5ZM321.1,252H244.84V159.07h17.81a3,3,0,0,0,3-3V138.81H321.1Z"></path><path class="cls-2" d="M313.29,231.56H252.64a1.58,1.58,0,0,0,0,3.16h60.65a1.58,1.58,0,0,0,0-3.16Z"></path><path class="cls-2" d="M251.07,176.35a1.58,1.58,0,0,0,1.57,1.58h60.65a1.58,1.58,0,1,0,0-3.16H252.64A1.58,1.58,0,0,0,251.07,176.35Z"></path><path class="cls-2" d="M313.29,186.13H252.64a1.58,1.58,0,0,0,0,3.16h60.65a1.58,1.58,0,0,0,0-3.16Z"></path><path class="cls-2" d="M313.29,197.49H252.64a1.58,1.58,0,0,0,0,3.15h60.65a1.58,1.58,0,1,0,0-3.15Z"></path><path class="cls-2" d="M313.29,208.85H252.64a1.58,1.58,0,0,0,0,3.15h60.65a1.58,1.58,0,1,0,0-3.15Z"></path><path class="cls-2" d="M313.29,220.2H252.64a1.58,1.58,0,0,0,0,3.16h60.65a1.58,1.58,0,0,0,0-3.16Z"></path><g class="cls-3"><polygon class="cls-4" points="376.72 119.52 372.55 119.52 372.55 118.88 376.08 118.88 376.08 115.36 376.72 115.36 376.72 119.52"></polygon><path class="cls-4" d="M364.53,119.52h-8v-.64h8Zm-16.06,0h-8v-.64h8Zm-16.05,0h-8v-.64h8Zm-16.05,0h-8v-.64h8Zm-16.06,0h-8v-.64h8Zm-16.05,0h-8v-.64h8Zm-16.06,0h-8v-.64h8Z"></path><path class="cls-4" d="M376.72,107.34h-.64v-8h.64Zm0-16.06h-.64v-8h.64Zm0-16.06h-.64v-8h.64Zm0-16h-.64v-8h.64Zm0-16.06h-.64v-8h.64Zm0-16h-.64V19h.64Zm0-16.06h-.64V3h.64Z"></path><polygon class="cls-4" points="504.81 119.52 500.65 119.52 500.65 118.88 504.17 118.88 504.17 115.36 504.81 115.36 504.81 119.52"></polygon><path class="cls-4" d="M492.62,119.52h-8v-.64h8Zm-16.06,0h-8v-.64h8Zm-16.05,0h-8v-.64h8Zm-16.05,0h-8v-.64h8Zm-16.06,0h-8v-.64h8Zm-16,0h-8v-.64h8Zm-16.06,0h-8v-.64h8Z"></path><polygon class="cls-4" points="380.24 119.52 376.08 119.52 376.08 115.36 376.72 115.36 376.72 118.88 380.24 118.88 380.24 119.52"></polygon><path class="cls-4" d="M376.72,107.34h-.64v-8h.64Zm0-16.06h-.64v-8h.64Zm0-16.06h-.64v-8h.64Zm0-16h-.64v-8h.64Zm0-16.06h-.64v-8h.64Zm0-16h-.64V19h.64Zm0-16.06h-.64V3h.64Z"></path><path class="cls-4" d="M504.81,107.34h-.64v-8h.64Zm0-16.06h-.64v-8h.64Zm0-16.06h-.64v-8h.64Zm0-16h-.64v-8h.64Zm0-16.06h-.64v-8h.64Zm0-16h-.64V19h.64Zm0-16.06h-.64V3h.64Z"></path><polygon class="cls-4" points="632.89 119.52 628.74 119.52 628.74 118.88 632.25 118.88 632.25 115.36 632.89 115.36 632.89 119.52"></polygon><path class="cls-4" d="M620.71,119.52h-8v-.64h8Zm-16.06,0h-8v-.64h8Zm-16,0h-8v-.64h8Zm-16.06,0h-8v-.64h8Zm-16,0h-8v-.64h8Zm-16,0h-8v-.64h8Zm-16.06,0h-8v-.64h8Z"></path><polygon class="cls-4" points="508.33 119.52 504.17 119.52 504.17 115.36 504.81 115.36 504.81 118.88 508.33 118.88 508.33 119.52"></polygon><path class="cls-4" d="M504.81,107.34h-.64v-8h.64Zm0-16.06h-.64v-8h.64Zm0-16.06h-.64v-8h.64Zm0-16h-.64v-8h.64Zm0-16.06h-.64v-8h.64Zm0-16h-.64V19h.64Zm0-16.06h-.64V3h.64Z"></path><path class="cls-4" d="M632.89,107.34h-.64v-8h.64Zm0-16.06h-.64v-8h.64Zm0-16.06h-.64v-8h.64Zm0-16h-.64v-8h.64Zm0-16.06h-.64v-8h.64Zm0-16h-.64V19h.64Zm0-16.06h-.64V3h.64Z"></path><polygon class="cls-4" points="760.98 119.52 756.83 119.52 756.83 118.88 760.34 118.88 760.34 115.36 760.98 115.36 760.98 119.52"></polygon><path class="cls-4" d="M748.8,119.52h-8v-.64h8Zm-16.06,0h-8v-.64h8Zm-16,0h-8v-.64h8Zm-16.06,0h-8v-.64h8Zm-16,0h-8v-.64h8Zm-16.05,0h-8v-.64h8Zm-16,0h-8v-.64h8Z"></path><polygon class="cls-4" points="636.42 119.52 632.25 119.52 632.25 115.36 632.89 115.36 632.89 118.88 636.42 118.88 636.42 119.52"></polygon><path class="cls-4" d="M632.89,107.34h-.64v-8h.64Zm0-16.06h-.64v-8h.64Zm0-16.06h-.64v-8h.64Zm0-16h-.64v-8h.64Zm0-16.06h-.64v-8h.64Zm0-16h-.64V19h.64Zm0-16.06h-.64V3h.64Z"></path><path class="cls-4" d="M761,107.34h-.64v-8H761Zm0-16.06h-.64v-8H761Zm0-16.06h-.64v-8H761Zm0-16h-.64v-8H761Zm0-16.06h-.64v-8H761Zm0-16h-.64V19H761ZM761,11h-.64V3H761Z"></path><polygon class="cls-4" points="889.08 119.52 884.91 119.52 884.91 118.88 888.44 118.88 888.44 115.36 889.08 115.36 889.08 119.52"></polygon><path class="cls-4" d="M876.88,119.52h-8v-.64h8Zm-16,0h-8v-.64h8Zm-16.05,0h-8v-.64h8Zm-16.06,0h-8v-.64h8Zm-16.05,0h-8v-.64h8Zm-16.06,0h-8v-.64h8Zm-16.05,0h-8v-.64h8Z"></path><polygon class="cls-4" points="764.51 119.52 760.34 119.52 760.34 115.36 760.98 115.36 760.98 118.88 764.51 118.88 764.51 119.52"></polygon><path class="cls-4" d="M761,107.34h-.64v-8H761Zm0-16.06h-.64v-8H761Zm0-16.06h-.64v-8H761Zm0-16h-.64v-8H761Zm0-16.06h-.64v-8H761Zm0-16h-.64V19H761ZM761,11h-.64V3H761Z"></path><path class="cls-4" d="M889.08,107.34h-.64v-8h.64Zm0-16.06h-.64v-8h.64Zm0-16.06h-.64v-8h.64Zm0-16h-.64v-8h.64Zm0-16.06h-.64v-8h.64Zm0-16h-.64V19h.64Zm0-16.06h-.64V3h.64Z"></path><polygon class="cls-4" points="1017.17 119.52 1013 119.52 1013 118.88 1016.53 118.88 1016.53 115.36 1017.17 115.36 1017.17 119.52"></polygon><path class="cls-4" d="M1005,119.52h-8v-.64h8Zm-16.05,0h-8v-.64h8Zm-16,0h-8v-.64h8Zm-16,0h-8v-.64h8Zm-16.06,0h-8v-.64h8Zm-16.06,0h-8v-.64h8Zm-16.05,0h-8v-.64h8Z"></path><polygon class="cls-4" points="892.6 119.52 888.44 119.52 888.44 115.36 889.08 115.36 889.08 118.88 892.6 118.88 892.6 119.52"></polygon><path class="cls-4" d="M889.08,107.34h-.64v-8h.64Zm0-16.06h-.64v-8h.64Zm0-16.06h-.64v-8h.64Zm0-16h-.64v-8h.64Zm0-16.06h-.64v-8h.64Zm0-16h-.64V19h.64Zm0-16.06h-.64V3h.64Z"></path><path class="cls-4" d="M1017.17,107.34h-.64v-8h.64Zm0-16.06h-.64v-8h.64Zm0-16.06h-.64v-8h.64Zm0-16h-.64v-8h.64Zm0-16.06h-.64v-8h.64Zm0-16h-.64V19h.64Zm0-16.06h-.64V3h.64Z"></path><path class="cls-4" d="M1133.06,119.52h-8v-.64h8Zm-16,0h-8v-.64h8Zm-16.06,0h-8v-.64h8Zm-16,0h-8v-.64h8Zm-16.05,0h-8v-.64h8Zm-16,0h-8v-.64h8Zm-16.06,0h-8v-.64h8Z"></path><polygon class="cls-4" points="1020.68 119.52 1016.53 119.52 1016.53 115.36 1017.17 115.36 1017.17 118.88 1020.68 118.88 1020.68 119.52"></polygon><path class="cls-4" d="M1017.17,107.34h-.64v-8h.64Zm0-16.06h-.64v-8h.64Zm0-16.06h-.64v-8h.64Zm0-16h-.64v-8h.64Zm0-16.06h-.64v-8h.64Zm0-16h-.64V19h.64Zm0-16.06h-.64V3h.64Z"></path><rect class="cls-4" x="63.02" y="49.89" width="1.28" height="16.01"></rect><rect class="cls-4" x="55.65" y="57.26" width="16.01" height="1.28"></rect><rect class="cls-4" x="1080.25" y="49.89" width="1.28" height="16.01"></rect><rect class="cls-4" x="1072.89" y="57.26" width="16.01" height="1.28"></rect><polygon class="cls-4" points="124.54 119.01 120.38 119.01 120.38 118.37 123.9 118.37 123.9 114.84 124.54 114.84 124.54 119.01"></polygon><path class="cls-4" d="M112.36,119h-8v-.64h8ZM96.3,119h-8v-.64h8Zm-16,0h-8v-.64h8Zm-16.06,0h-8v-.64h8Zm-16,0h-8v-.64h8Zm-16,0h-8v-.64h8ZM16,119H8v-.64h8Z"></path><path class="cls-4" d="M124.54,106.82h-.64v-8h.64Zm0-16.06h-.64v-8h.64Zm0-16.05h-.64v-8h.64Zm0-16h-.64v-8h.64Zm0-16.06h-.64v-8h.64Zm0-16h-.64v-8h.64Zm0-16.06h-.64v-8h.64Z"></path><polygon class="cls-4" points="252.63 119.01 248.47 119.01 248.47 118.37 251.99 118.37 251.99 114.84 252.63 114.84 252.63 119.01"></polygon><path class="cls-4" d="M240.44,119h-8v-.64h8Zm-16.05,0h-8v-.64h8Zm-16,0h-8v-.64h8Zm-16.06,0h-8v-.64h8Zm-16.06,0h-8v-.64h8Zm-16.05,0h-8v-.64h8Zm-16,0h-8v-.64h8Z"></path><polygon class="cls-4" points="128.07 119.01 123.9 119.01 123.9 114.84 124.54 114.84 124.54 118.37 128.07 118.37 128.07 119.01"></polygon><path class="cls-4" d="M124.54,106.82h-.64v-8h.64Zm0-16.06h-.64v-8h.64Zm0-16.05h-.64v-8h.64Zm0-16h-.64v-8h.64Zm0-16.06h-.64v-8h.64Zm0-16h-.64v-8h.64Zm0-16.06h-.64v-8h.64Z"></path><path class="cls-4" d="M252.63,106.82H252v-8h.64Zm0-16.06H252v-8h.64Zm0-16.05H252v-8h.64Zm0-16H252v-8h.64Zm0-16.06H252v-8h.64Zm0-16H252v-8h.64Zm0-16.06H252v-8h.64Z"></path><polygon class="cls-4" points="256.16 119.01 251.99 119.01 251.99 114.84 252.63 114.84 252.63 118.37 256.16 118.37 256.16 119.01"></polygon><path class="cls-4" d="M252.63,106.82H252v-8h.64Zm0-16.06H252v-8h.64Zm0-16.05H252v-8h.64Zm0-16H252v-8h.64Zm0-16.06H252v-8h.64Zm0-16H252v-8h.64Zm0-16.06H252v-8h.64Z"></path><path class="cls-4" d="M376.1,235.62h-.64v-8h.64Zm0-16.06h-.64v-8h.64Zm0-16.06h-.64v-8h.64Zm0-16.05h-.64v-8h.64Zm0-16h-.64v-8h.64Zm0-16.05h-.64v-8h.64Zm0-16.06h-.64v-8h.64Z"></path><path class="cls-4" d="M504.19,235.62h-.64v-8h.64Zm0-16.06h-.64v-8h.64Zm0-16.06h-.64v-8h.64Zm0-16.05h-.64v-8h.64Zm0-16h-.64v-8h.64Zm0-16.05h-.64v-8h.64Zm0-16.06h-.64v-8h.64Z"></path><path class="cls-4" d="M632.27,235.62h-.64v-8h.64Zm0-16.06h-.64v-8h.64Zm0-16.06h-.64v-8h.64Zm0-16.05h-.64v-8h.64Zm0-16h-.64v-8h.64Zm0-16.05h-.64v-8h.64Zm0-16.06h-.64v-8h.64Z"></path><path class="cls-4" d="M760.36,235.62h-.64v-8h.64Zm0-16.06h-.64v-8h.64Zm0-16.06h-.64v-8h.64Zm0-16.05h-.64v-8h.64Zm0-16h-.64v-8h.64Zm0-16.05h-.64v-8h.64Zm0-16.06h-.64v-8h.64Z"></path><path class="cls-4" d="M888.46,235.62h-.64v-8h.64Zm0-16.06h-.64v-8h.64Zm0-16.06h-.64v-8h.64Zm0-16.05h-.64v-8h.64Zm0-16h-.64v-8h.64Zm0-16.05h-.64v-8h.64Zm0-16.06h-.64v-8h.64Z"></path><path class="cls-4" d="M1016.55,235.62h-.64v-8h.64Zm0-16.06h-.64v-8h.64Zm0-16.06h-.64v-8h.64Zm0-16.05h-.64v-8h.64Zm0-16h-.64v-8h.64Zm0-16.05h-.64v-8h.64Zm0-16.06h-.64v-8h.64Z"></path><path class="cls-4" d="M123.92,235.1h-.64v-8h.64Zm0-16.06h-.64v-8h.64Zm0-16h-.64v-8h.64Zm0-16.05h-.64v-8h.64Zm0-16.06h-.64v-8h.64Zm0-16h-.64v-8h.64Zm0-16.06h-.64v-8h.64Z"></path><path class="cls-4" d="M252,235.1h-.64v-8H252ZM252,219h-.64v-8H252Zm0-16h-.64v-8H252Zm0-16.05h-.64v-8H252Zm0-16.06h-.64v-8H252Zm0-16h-.64v-8H252Zm0-16.06h-.64v-8H252Z"></path></g><path class="cls-2" d="M323.16,292.87H263.59L257,299.5l-14,14-6.63,6.62v98.3a6.45,6.45,0,0,0,6.44,6.44h80.39a6.45,6.45,0,0,0,6.44-6.44V299.31A6.45,6.45,0,0,0,323.16,292.87ZM323,418.25H243v-97.5h18.68a3.13,3.13,0,0,0,3.13-3.13V299.5H323Z"></path><path class="cls-2" d="M304.17,353.36c-3.41-3.21-6.54-6.1-9.61-9.06-1.56-1.5-1.7-2.83-.53-3.87,1.44-1.29,2.61-.6,3.74.56,3.47,3.54,7,7,10.45,10.58,1.53,1.56,1.53,2.46,0,4-3.46,3.56-7,7.07-10.42,10.62-1.18,1.2-2.44,1.67-3.76.36s-.79-2.57.41-3.73C297.51,359.9,300.55,356.9,304.17,353.36Z"></path><path class="cls-2" d="M261.72,353.67c3.53,3.34,6.62,6.28,9.72,9.2,1.19,1.12,1.83,2.35.47,3.72s-2.56.81-3.73-.38c-3.47-3.54-7-7-10.45-10.59-1.54-1.57-1.55-2.48,0-4,3.51-3.59,7.07-7.14,10.57-10.75,1.21-1.25,2.47-1.59,3.73-.26s.69,2.52-.43,3.6Z"></path><path class="cls-2" d="M290.06,334.18c-1.17,4.39-2.32,8.77-3.49,13.14-1.83,6.86-3.77,13.69-5.44,20.58-.54,2.23-1.47,3.18-3.72,2.77a9.19,9.19,0,0,0-1.41,0,16.28,16.28,0,0,1,.29-1.65q4.23-15.87,8.5-31.74C285.8,333.49,285.79,333.49,290.06,334.18Z"></path><path class="cls-2" d="M295.69,382.33v13.94l-1.95.16V385.35l-.5-.06-1.89,7.46a10.32,10.32,0,0,1-.65,2.38,2.37,2.37,0,0,1-1.47,1.18c-.36.05-1.09-.69-1.22-1.18-.66-2.53-1.17-5.1-1.74-7.65-.16-.71-.35-1.41-.52-2.12l-.55,0v10.86h-2.28c.26-4.71.5-9.3.75-13.85,3.08-.74,3.22-.66,3.88,2.11a76,76,0,0,0,2.09,7.68c.67-2.55,1.35-5.09,2-7.64S292.37,381.88,295.69,382.33Z"></path><path class="cls-2" d="M262.68,388h4.93v-5.78h2.17v14.1l-2,.1V390.2h-5.07v6.08h-2.12V382.21l2.06-.1Z"></path><path class="cls-2" d="M277.86,396.3h-2.27V384.25L272,384c-.27-1.41.18-2,1.59-1.93,2.47.08,5,0,7.59,0l.38,1.9-3.7.25Z"></path><path class="cls-2" d="M299.24,396.4V382.19h2.1v12.15h5.33c.21,1.44-.05,2.15-1.53,2.08C303.23,396.33,301.32,396.4,299.24,396.4Z"></path><path class="cls-5" d="M333.23,490.77a4.4,4.4,0,0,0-4.4-4.4H237.1a4.4,4.4,0,0,0-4.4,4.4v13.54a4.4,4.4,0,0,0,4.4,4.4h91.73a4.4,4.4,0,0,0,4.4-4.4Zm-86.7,8.84a4.78,4.78,0,1,1,4.78-4.78A4.78,4.78,0,0,1,246.53,499.61Z"></path><path class="cls-5" d="M333.23,515a4.4,4.4,0,0,0-4.4-4.4H237.1a4.4,4.4,0,0,0-4.4,4.4v13.54a4.4,4.4,0,0,0,4.4,4.4h91.73a4.4,4.4,0,0,0,4.4-4.4Zm-86.7,9.75a4.78,4.78,0,1,1,4.78-4.78A4.78,4.78,0,0,1,246.53,524.72Z"></path><path class="cls-5" d="M333.23,539.17a4.4,4.4,0,0,0-4.4-4.4H237.1a4.4,4.4,0,0,0-4.4,4.4v13.55a4.4,4.4,0,0,0,4.4,4.39h91.73a4.4,4.4,0,0,0,4.4-4.39Zm-86.33,8.24a4.78,4.78,0,1,1,4.78-4.78A4.78,4.78,0,0,1,246.9,547.41Z"></path><path class="cls-5" d="M333.23,563.37a4.39,4.39,0,0,0-4.4-4.39H237.1a4.39,4.39,0,0,0-4.4,4.39v13.55a4.4,4.4,0,0,0,4.4,4.4h91.73a4.4,4.4,0,0,0,4.4-4.4Zm-86.7,9.14a4.78,4.78,0,1,1,4.78-4.77A4.78,4.78,0,0,1,246.53,572.51Z"></path><text class="cls-6" transform="translate(202.13 98.43) scale(0.98 1)">[ SI<tspan class="cls-7" x="33.03" y="0">L</tspan><tspan x="44.96" y="0">OED </tspan><tspan class="cls-8" x="96.16" y="0">D</tspan><tspan class="cls-9" x="110.48" y="0">AT</tspan><tspan x="136.93" y="0">A ]</tspan></text><text class="cls-10" transform="translate(140.97 257.56) scale(0.98 1)">Un<tspan class="cls-11" x="21.28" y="0">s</tspan><tspan x="28.92" y="0">tructu</tspan><tspan class="cls-12" x="74.94" y="0">r</tspan><tspan x="80.7" y="0">e</tspan></text><polygon class="cls-13" points="114.41 573.58 124.27 563.46 134.15 573.57 124.29 583.7 114.41 573.58"></polygon><path class="cls-13" d="M129.38,246.87a8.64,8.64,0,0,1,.05,12.13,8.13,8.13,0,0,1-11.69.14,8.68,8.68,0,0,1-.2-12.14A8.19,8.19,0,0,1,129.38,246.87Z"></path><polyline class="cls-14" points="124.91 387.5 134.78 397.62 124.92 407.74"></polyline><text class="cls-10" transform="translate(147.29 404.76) scale(0.98 1)">Semi-<tspan class="cls-11" x="0" y="20.4">s</tspan><tspan x="7.63" y="20.4">tructu</tspan><tspan class="cls-12" x="53.65" y="20.4">r</tspan><tspan x="59.41" y="20.4">e</tspan></text><text class="cls-10" transform="translate(141.72 579.83) scale(0.98 1)"><tspan class="cls-11">S</tspan><tspan x="9.18" y="0">tructu</tspan><tspan class="cls-12" x="55.2" y="0">r</tspan><tspan class="cls-15" x="60.96" y="0">e</tspan></text><polyline class="cls-16" points="467.41 395.59 482.93 411.1 467.43 426.62"></polyline><rect class="cls-17" x="408.47" y="400.14" width="21.94" height="21.94" transform="translate(413.2 -176.18) rotate(44.97)"></rect><polyline class="cls-16" points="419.43 442.11 434.95 457.61 419.45 473.13"></polyline><rect class="cls-17" x="456.45" y="355.14" width="21.94" height="21.94" transform="translate(1056.77 294.11) rotate(134.97)"></rect><rect class="cls-17" x="456.45" y="271.03" width="21.94" height="21.94" transform="translate(997.27 150.58) rotate(134.97)"></rect><rect class="cls-17" x="408.47" y="224.94" width="21.94" height="21.94" transform="translate(882.77 105.85) rotate(134.97)"></rect><path class="cls-18" d="M439.45,306.24a5.82,5.82,0,1,1,8.26-.08A5.8,5.8,0,0,1,439.45,306.24Z"></path><path class="cls-18" d="M447.63,254a5.83,5.83,0,1,1-8.27.09A5.79,5.79,0,0,1,447.63,254Z"></path><path class="cls-18" d="M439.46,348.84a5.83,5.83,0,1,1,8.25-.11A5.8,5.8,0,0,1,439.46,348.84Z"></path><path class="cls-18" d="M439.4,383.79a5.82,5.82,0,1,1,.08,8.26A5.8,5.8,0,0,1,439.4,383.79Z"></path><path class="cls-18" d="M439.39,428.92a5.82,5.82,0,1,1,.11,8.25A5.81,5.81,0,0,1,439.39,428.92Z"></path><polyline class="cls-16" points="419.43 350.59 434.95 366.1 419.45 381.62"></polyline><polyline class="cls-16" points="467.41 308.11 482.93 323.61 467.43 339.13"></polyline><polyline class="cls-16" points="419.43 266.49 434.95 281.99 419.45 297.51"></polyline><rect class="cls-17" x="408.47" y="312.65" width="21.94" height="21.94" transform="translate(944.83 255.55) rotate(134.97)"></rect><path class="cls-18" d="M487.48,348.83a5.82,5.82,0,1,1,8.26-.08A5.8,5.8,0,0,1,487.48,348.83Z"></path><path class="cls-18" d="M495.66,297.94a5.82,5.82,0,1,1-8.27.09A5.79,5.79,0,0,1,495.66,297.94Z"></path><path class="cls-18" d="M487.49,392a5.82,5.82,0,1,1,8.25-.11A5.8,5.8,0,0,1,487.49,392Z"></path><polyline class="cls-16" points="467.41 220.39 482.93 235.9 467.43 251.42"></polyline><polyline class="cls-16" points="419.43 174.3 434.95 189.8 419.45 205.32"></polyline><path class="cls-18" d="M447.63,210.08a5.83,5.83,0,1,1-8.27.1A5.79,5.79,0,0,1,447.63,210.08Z"></path><path class="cls-18" d="M495.66,254a5.83,5.83,0,1,1-8.27.09A5.79,5.79,0,0,1,495.66,254Z"></path><rect class="cls-17" x="456.45" y="446.65" width="21.94" height="21.94" transform="translate(460.11 -196.48) rotate(44.97)"></rect><rect class="cls-17" x="408.47" y="493.17" width="21.94" height="21.94" transform="translate(478.95 -148.97) rotate(44.97)"></rect><path class="cls-18" d="M439.39,474.05a5.82,5.82,0,1,1,.11,8.24A5.8,5.8,0,0,1,439.39,474.05Z"></path><path class="cls-18" d="M487.49,437.16a5.83,5.83,0,1,1,8.25-.12A5.8,5.8,0,0,1,487.49,437.16Z"></path><polyline class="cls-16" points="467.94 518.16 483.46 502.66 467.96 487.13"></polyline><polyline class="cls-16" points="419.96 564.25 435.48 548.75 419.98 533.23"></polyline><path class="cls-18" d="M448.16,528.47a5.83,5.83,0,1,0-8.27-.1A5.79,5.79,0,0,0,448.16,528.47Z"></path><path class="cls-18" d="M496.19,484.54a5.82,5.82,0,1,0-8.27-.09A5.79,5.79,0,0,0,496.19,484.54Z"></path><path class="cls-19" d="M557,290a11.78,11.78,0,1,1,16.68-.23A11.72,11.72,0,0,1,557,290Z"></path><path class="cls-19" d="M557,375.91a11.78,11.78,0,1,1,16.68-.22A11.72,11.72,0,0,1,557,375.91Z"></path><polygon class="cls-20" points="364.5 533.79 375.88 522.62 387.27 533.78 375.89 544.95 364.5 533.79"></polygon><line class="cls-21" x1="328.97" y1="200.64" x2="407.54" y2="200.64"></line><path class="cls-22" d="M381.89,194.23a8.56,8.56,0,1,1-12.15.13A8.5,8.5,0,0,1,381.89,194.23Z"></path><line class="cls-21" x1="330.37" y1="367.38" x2="408.94" y2="367.38"></line><polyline class="cls-23" points="368.22 352.77 383.55 367.78 368.24 382.81"></polyline><line class="cls-21" x1="330.37" y1="534.43" x2="408.94" y2="534.43"></line><g class="cls-3"><polygon class="cls-4" points="376.72 613.76 372.55 613.76 372.55 613.11 376.08 613.11 376.08 609.59 376.72 609.59 376.72 613.76"></polygon><path class="cls-4" d="M364.53,613.75h-8v-.64h8Zm-16.06,0h-8v-.64h8Zm-16.05,0h-8v-.64h8Zm-16.05,0h-8v-.64h8Zm-16.06,0h-8v-.64h8Zm-16.05,0h-8v-.64h8Zm-16.06,0h-8v-.64h8Z"></path><path class="cls-4" d="M376.72,601.56h-.64v-8h.64Zm0-16h-.64v-8h.64Zm0-16h-.64v-8h.64Zm0-16.06h-.64v-8h.64Zm0-16h-.64v-8h.64Zm0-16.06h-.64v-8h.64Zm0-16h-.64v-8h.64Z"></path><polygon class="cls-4" points="504.81 613.76 500.65 613.76 500.65 613.11 504.17 613.11 504.17 609.59 504.81 609.59 504.81 613.76"></polygon><path class="cls-4" d="M492.62,613.75h-8v-.64h8Zm-16.06,0h-8v-.64h8Zm-16.05,0h-8v-.64h8Zm-16.05,0h-8v-.64h8Zm-16.06,0h-8v-.64h8Zm-16,0h-8v-.64h8Zm-16.06,0h-8v-.64h8Z"></path><polygon class="cls-4" points="380.24 613.76 376.08 613.76 376.08 609.59 376.72 609.59 376.72 613.11 380.24 613.11 380.24 613.76"></polygon><path class="cls-4" d="M376.72,601.56h-.64v-8h.64Zm0-16h-.64v-8h.64Zm0-16h-.64v-8h.64Zm0-16.06h-.64v-8h.64Zm0-16h-.64v-8h.64Zm0-16.06h-.64v-8h.64Zm0-16h-.64v-8h.64Z"></path><path class="cls-4" d="M504.81,601.56h-.64v-8h.64Zm0-16h-.64v-8h.64Zm0-16h-.64v-8h.64Zm0-16.06h-.64v-8h.64Zm0-16h-.64v-8h.64Zm0-16.06h-.64v-8h.64Zm0-16h-.64v-8h.64Z"></path><polygon class="cls-4" points="632.89 613.76 628.74 613.76 628.74 613.11 632.25 613.11 632.25 609.59 632.89 609.59 632.89 613.76"></polygon><path class="cls-4" d="M620.71,613.75h-8v-.64h8Zm-16.06,0h-8v-.64h8Zm-16,0h-8v-.64h8Zm-16.06,0h-8v-.64h8Zm-16,0h-8v-.64h8Zm-16,0h-8v-.64h8Zm-16.06,0h-8v-.64h8Z"></path><polygon class="cls-4" points="508.33 613.76 504.17 613.76 504.17 609.59 504.81 609.59 504.81 613.11 508.33 613.11 508.33 613.76"></polygon><path class="cls-4" d="M504.81,601.56h-.64v-8h.64Zm0-16h-.64v-8h.64Zm0-16h-.64v-8h.64Zm0-16.06h-.64v-8h.64Zm0-16h-.64v-8h.64Zm0-16.06h-.64v-8h.64Zm0-16h-.64v-8h.64Z"></path><path class="cls-4" d="M632.89,601.56h-.64v-8h.64Zm0-16h-.64v-8h.64Zm0-16h-.64v-8h.64Zm0-16.06h-.64v-8h.64Zm0-16h-.64v-8h.64Zm0-16.06h-.64v-8h.64Zm0-16h-.64v-8h.64Z"></path><polygon class="cls-4" points="760.98 613.76 756.83 613.76 756.83 613.11 760.34 613.11 760.34 609.59 760.98 609.59 760.98 613.76"></polygon><path class="cls-4" d="M748.8,613.75h-8v-.64h8Zm-16.06,0h-8v-.64h8Zm-16,0h-8v-.64h8Zm-16.06,0h-8v-.64h8Zm-16,0h-8v-.64h8Zm-16.05,0h-8v-.64h8Zm-16,0h-8v-.64h8Z"></path><polygon class="cls-4" points="636.42 613.76 632.25 613.76 632.25 609.59 632.89 609.59 632.89 613.11 636.42 613.11 636.42 613.76"></polygon><path class="cls-4" d="M632.89,601.56h-.64v-8h.64Zm0-16h-.64v-8h.64Zm0-16h-.64v-8h.64Zm0-16.06h-.64v-8h.64Zm0-16h-.64v-8h.64Zm0-16.06h-.64v-8h.64Zm0-16h-.64v-8h.64Z"></path><path class="cls-4" d="M761,601.56h-.64v-8H761Zm0-16h-.64v-8H761Zm0-16h-.64v-8H761Zm0-16.06h-.64v-8H761Zm0-16h-.64v-8H761Zm0-16.06h-.64v-8H761Zm0-16h-.64v-8H761Z"></path><polygon class="cls-4" points="889.08 613.76 884.91 613.76 884.91 613.11 888.44 613.11 888.44 609.59 889.08 609.59 889.08 613.76"></polygon><path class="cls-4" d="M876.88,613.75h-8v-.64h8Zm-16,0h-8v-.64h8Zm-16.05,0h-8v-.64h8Zm-16.06,0h-8v-.64h8Zm-16.05,0h-8v-.64h8Zm-16.06,0h-8v-.64h8Zm-16.05,0h-8v-.64h8Z"></path><polygon class="cls-4" points="764.51 613.76 760.34 613.76 760.34 609.59 760.98 609.59 760.98 613.11 764.51 613.11 764.51 613.76"></polygon><path class="cls-4" d="M761,601.56h-.64v-8H761Zm0-16h-.64v-8H761Zm0-16h-.64v-8H761Zm0-16.06h-.64v-8H761Zm0-16h-.64v-8H761Zm0-16.06h-.64v-8H761Zm0-16h-.64v-8H761Z"></path><path class="cls-4" d="M889.08,601.56h-.64v-8h.64Zm0-16h-.64v-8h.64Zm0-16h-.64v-8h.64Zm0-16.06h-.64v-8h.64Zm0-16h-.64v-8h.64Zm0-16.06h-.64v-8h.64Zm0-16h-.64v-8h.64Z"></path><polygon class="cls-4" points="1017.17 613.76 1013 613.76 1013 613.11 1016.53 613.11 1016.53 609.59 1017.17 609.59 1017.17 613.76"></polygon><path class="cls-4" d="M1005,613.75h-8v-.64h8Zm-16.05,0h-8v-.64h8Zm-16,0h-8v-.64h8Zm-16,0h-8v-.64h8Zm-16.06,0h-8v-.64h8Zm-16.06,0h-8v-.64h8Zm-16.05,0h-8v-.64h8Z"></path><polygon class="cls-4" points="892.6 613.76 888.44 613.76 888.44 609.59 889.08 609.59 889.08 613.11 892.6 613.11 892.6 613.76"></polygon><path class="cls-4" d="M889.08,601.56h-.64v-8h.64Zm0-16h-.64v-8h.64Zm0-16h-.64v-8h.64Zm0-16.06h-.64v-8h.64Zm0-16h-.64v-8h.64Zm0-16.06h-.64v-8h.64Zm0-16h-.64v-8h.64Z"></path><path class="cls-4" d="M1017.17,601.56h-.64v-8h.64Zm0-16h-.64v-8h.64Zm0-16h-.64v-8h.64Zm0-16.06h-.64v-8h.64Zm0-16h-.64v-8h.64Zm0-16.06h-.64v-8h.64Zm0-16h-.64v-8h.64Z"></path><path class="cls-4" d="M1133.06,613.75h-8v-.64h8Zm-16,0h-8v-.64h8Zm-16.06,0h-8v-.64h8Zm-16,0h-8v-.64h8Zm-16.05,0h-8v-.64h8Zm-16,0h-8v-.64h8Zm-16.06,0h-8v-.64h8Z"></path><polygon class="cls-4" points="1020.68 613.76 1016.53 613.76 1016.53 609.59 1017.17 609.59 1017.17 613.11 1020.68 613.11 1020.68 613.76"></polygon><path class="cls-4" d="M1017.17,601.56h-.64v-8h.64Zm0-16h-.64v-8h.64Zm0-16h-.64v-8h.64Zm0-16.06h-.64v-8h.64Zm0-16h-.64v-8h.64Zm0-16.06h-.64v-8h.64Zm0-16h-.64v-8h.64Z"></path><polygon class="cls-4" points="376.72 741.85 372.55 741.85 372.55 741.21 376.08 741.21 376.08 737.68 376.72 737.68 376.72 741.85"></polygon><path class="cls-4" d="M364.53,741.85h-8v-.64h8Zm-16.06,0h-8v-.64h8Zm-16.05,0h-8v-.64h8Zm-16.05,0h-8v-.64h8Zm-16.06,0h-8v-.64h8Zm-16.05,0h-8v-.64h8Zm-16.06,0h-8v-.64h8Z"></path><path class="cls-4" d="M364.53,613.75h-8v-.64h8Zm-16.06,0h-8v-.64h8Zm-16.05,0h-8v-.64h8Zm-16.05,0h-8v-.64h8Zm-16.06,0h-8v-.64h8Zm-16.05,0h-8v-.64h8Zm-16.06,0h-8v-.64h8Z"></path><polygon class="cls-4" points="376.72 617.28 376.08 617.28 376.08 613.76 372.55 613.76 372.55 613.11 376.72 613.11 376.72 617.28"></polygon><path class="cls-4" d="M376.72,729.65h-.64v-8h.64Zm0-16h-.64v-8h.64Zm0-16.05h-.64v-8h.64Zm0-16.06h-.64v-8h.64Zm0-16h-.64v-8h.64Zm0-16.06h-.64v-8h.64Zm0-16h-.64v-8h.64Z"></path><polygon class="cls-4" points="504.81 741.85 500.65 741.85 500.65 741.21 504.17 741.21 504.17 737.68 504.81 737.68 504.81 741.85"></polygon><path class="cls-4" d="M492.62,741.85h-8v-.64h8Zm-16.06,0h-8v-.64h8Zm-16.05,0h-8v-.64h8Zm-16.05,0h-8v-.64h8Zm-16.06,0h-8v-.64h8Zm-16,0h-8v-.64h8Zm-16.06,0h-8v-.64h8Z"></path><polygon class="cls-4" points="380.24 741.85 376.08 741.85 376.08 737.68 376.72 737.68 376.72 741.21 380.24 741.21 380.24 741.85"></polygon><path class="cls-4" d="M376.72,729.65h-.64v-8h.64Zm0-16h-.64v-8h.64Zm0-16.05h-.64v-8h.64Zm0-16.06h-.64v-8h.64Zm0-16h-.64v-8h.64Zm0-16.06h-.64v-8h.64Zm0-16h-.64v-8h.64Z"></path><polygon class="cls-4" points="376.72 617.28 376.08 617.28 376.08 613.11 380.24 613.11 380.24 613.76 376.72 613.76 376.72 617.28"></polygon><path class="cls-4" d="M492.62,613.75h-8v-.64h8Zm-16.06,0h-8v-.64h8Zm-16.05,0h-8v-.64h8Zm-16.05,0h-8v-.64h8Zm-16.06,0h-8v-.64h8Zm-16,0h-8v-.64h8Zm-16.06,0h-8v-.64h8Z"></path><polygon class="cls-4" points="504.81 617.28 504.17 617.28 504.17 613.76 500.65 613.76 500.65 613.11 504.81 613.11 504.81 617.28"></polygon><path class="cls-4" d="M504.81,729.65h-.64v-8h.64Zm0-16h-.64v-8h.64Zm0-16.05h-.64v-8h.64Zm0-16.06h-.64v-8h.64Zm0-16h-.64v-8h.64Zm0-16.06h-.64v-8h.64Zm0-16h-.64v-8h.64Z"></path><polygon class="cls-4" points="632.89 741.85 628.74 741.85 628.74 741.21 632.25 741.21 632.25 737.68 632.89 737.68 632.89 741.85"></polygon><path class="cls-4" d="M620.71,741.85h-8v-.64h8Zm-16.06,0h-8v-.64h8Zm-16,0h-8v-.64h8Zm-16.06,0h-8v-.64h8Zm-16,0h-8v-.64h8Zm-16,0h-8v-.64h8Zm-16.06,0h-8v-.64h8Z"></path><polygon class="cls-4" points="508.33 741.85 504.17 741.85 504.17 737.68 504.81 737.68 504.81 741.21 508.33 741.21 508.33 741.85"></polygon><path class="cls-4" d="M504.81,729.65h-.64v-8h.64Zm0-16h-.64v-8h.64Zm0-16.05h-.64v-8h.64Zm0-16.06h-.64v-8h.64Zm0-16h-.64v-8h.64Zm0-16.06h-.64v-8h.64Zm0-16h-.64v-8h.64Z"></path><polygon class="cls-4" points="504.81 617.28 504.17 617.28 504.17 613.11 508.33 613.11 508.33 613.76 504.81 613.76 504.81 617.28"></polygon><path class="cls-4" d="M620.71,613.75h-8v-.64h8Zm-16.06,0h-8v-.64h8Zm-16,0h-8v-.64h8Zm-16.06,0h-8v-.64h8Zm-16,0h-8v-.64h8Zm-16,0h-8v-.64h8Zm-16.06,0h-8v-.64h8Z"></path><polygon class="cls-4" points="632.89 617.28 632.25 617.28 632.25 613.76 628.74 613.76 628.74 613.11 632.89 613.11 632.89 617.28"></polygon><path class="cls-4" d="M632.89,729.65h-.64v-8h.64Zm0-16h-.64v-8h.64Zm0-16.05h-.64v-8h.64Zm0-16.06h-.64v-8h.64Zm0-16h-.64v-8h.64Zm0-16.06h-.64v-8h.64Zm0-16h-.64v-8h.64Z"></path><polygon class="cls-4" points="760.98 741.85 756.83 741.85 756.83 741.21 760.34 741.21 760.34 737.68 760.98 737.68 760.98 741.85"></polygon><path class="cls-4" d="M748.8,741.85h-8v-.64h8Zm-16.06,0h-8v-.64h8Zm-16,0h-8v-.64h8Zm-16.06,0h-8v-.64h8Zm-16,0h-8v-.64h8Zm-16.05,0h-8v-.64h8Zm-16,0h-8v-.64h8Z"></path><polygon class="cls-4" points="636.42 741.85 632.25 741.85 632.25 737.68 632.89 737.68 632.89 741.21 636.42 741.21 636.42 741.85"></polygon><path class="cls-4" d="M632.89,729.65h-.64v-8h.64Zm0-16h-.64v-8h.64Zm0-16.05h-.64v-8h.64Zm0-16.06h-.64v-8h.64Zm0-16h-.64v-8h.64Zm0-16.06h-.64v-8h.64Zm0-16h-.64v-8h.64Z"></path><polygon class="cls-4" points="632.89 617.28 632.25 617.28 632.25 613.11 636.42 613.11 636.42 613.76 632.89 613.76 632.89 617.28"></polygon><path class="cls-4" d="M748.8,613.75h-8v-.64h8Zm-16.06,0h-8v-.64h8Zm-16,0h-8v-.64h8Zm-16.06,0h-8v-.64h8Zm-16,0h-8v-.64h8Zm-16.05,0h-8v-.64h8Zm-16,0h-8v-.64h8Z"></path><polygon class="cls-4" points="760.98 617.28 760.34 617.28 760.34 613.76 756.83 613.76 756.83 613.11 760.98 613.11 760.98 617.28"></polygon><path class="cls-4" d="M761,729.65h-.64v-8H761Zm0-16h-.64v-8H761Zm0-16.05h-.64v-8H761Zm0-16.06h-.64v-8H761Zm0-16h-.64v-8H761Zm0-16.06h-.64v-8H761Zm0-16h-.64v-8H761Z"></path><polygon class="cls-4" points="889.08 741.85 884.91 741.85 884.91 741.21 888.44 741.21 888.44 737.68 889.08 737.68 889.08 741.85"></polygon><path class="cls-4" d="M876.88,741.85h-8v-.64h8Zm-16,0h-8v-.64h8Zm-16.05,0h-8v-.64h8Zm-16.06,0h-8v-.64h8Zm-16.05,0h-8v-.64h8Zm-16.06,0h-8v-.64h8Zm-16.05,0h-8v-.64h8Z"></path><polygon class="cls-4" points="764.51 741.85 760.34 741.85 760.34 737.68 760.98 737.68 760.98 741.21 764.51 741.21 764.51 741.85"></polygon><path class="cls-4" d="M761,729.65h-.64v-8H761Zm0-16h-.64v-8H761Zm0-16.05h-.64v-8H761Zm0-16.06h-.64v-8H761Zm0-16h-.64v-8H761Zm0-16.06h-.64v-8H761Zm0-16h-.64v-8H761Z"></path><polygon class="cls-4" points="760.98 617.28 760.34 617.28 760.34 613.11 764.51 613.11 764.51 613.76 760.98 613.76 760.98 617.28"></polygon><path class="cls-4" d="M876.88,613.75h-8v-.64h8Zm-16,0h-8v-.64h8Zm-16.05,0h-8v-.64h8Zm-16.06,0h-8v-.64h8Zm-16.05,0h-8v-.64h8Zm-16.06,0h-8v-.64h8Zm-16.05,0h-8v-.64h8Z"></path><polygon class="cls-4" points="889.08 617.28 888.44 617.28 888.44 613.76 884.91 613.76 884.91 613.11 889.08 613.11 889.08 617.28"></polygon><path class="cls-4" d="M889.08,729.65h-.64v-8h.64Zm0-16h-.64v-8h.64Zm0-16.05h-.64v-8h.64Zm0-16.06h-.64v-8h.64Zm0-16h-.64v-8h.64Zm0-16.06h-.64v-8h.64Zm0-16h-.64v-8h.64Z"></path><polygon class="cls-4" points="1017.17 741.85 1013 741.85 1013 741.21 1016.53 741.21 1016.53 737.68 1017.17 737.68 1017.17 741.85"></polygon><path class="cls-4" d="M1005,741.85h-8v-.64h8Zm-16.05,0h-8v-.64h8Zm-16,0h-8v-.64h8Zm-16,0h-8v-.64h8Zm-16.06,0h-8v-.64h8Zm-16.06,0h-8v-.64h8Zm-16.05,0h-8v-.64h8Z"></path><polygon class="cls-4" points="892.6 741.85 888.44 741.85 888.44 737.68 889.08 737.68 889.08 741.21 892.6 741.21 892.6 741.85"></polygon><path class="cls-4" d="M889.08,729.65h-.64v-8h.64Zm0-16h-.64v-8h.64Zm0-16.05h-.64v-8h.64Zm0-16.06h-.64v-8h.64Zm0-16h-.64v-8h.64Zm0-16.06h-.64v-8h.64Zm0-16h-.64v-8h.64Z"></path><polygon class="cls-4" points="889.08 617.28 888.44 617.28 888.44 613.11 892.6 613.11 892.6 613.76 889.08 613.76 889.08 617.28"></polygon><path class="cls-4" d="M1005,613.75h-8v-.64h8Zm-16.05,0h-8v-.64h8Zm-16,0h-8v-.64h8Zm-16,0h-8v-.64h8Zm-16.06,0h-8v-.64h8Zm-16.06,0h-8v-.64h8Zm-16.05,0h-8v-.64h8Z"></path><polygon class="cls-4" points="1017.17 617.28 1016.53 617.28 1016.53 613.76 1013 613.76 1013 613.11 1017.17 613.11 1017.17 617.28"></polygon><path class="cls-4" d="M1017.17,729.65h-.64v-8h.64Zm0-16h-.64v-8h.64Zm0-16.05h-.64v-8h.64Zm0-16.06h-.64v-8h.64Zm0-16h-.64v-8h.64Zm0-16.06h-.64v-8h.64Zm0-16h-.64v-8h.64Z"></path><path class="cls-4" d="M1133.06,741.85h-8v-.64h8Zm-16,0h-8v-.64h8Zm-16.06,0h-8v-.64h8Zm-16,0h-8v-.64h8Zm-16.05,0h-8v-.64h8Zm-16,0h-8v-.64h8Zm-16.06,0h-8v-.64h8Z"></path><polygon class="cls-4" points="1020.68 741.85 1016.53 741.85 1016.53 737.68 1017.17 737.68 1017.17 741.21 1020.68 741.21 1020.68 741.85"></polygon><path class="cls-4" d="M1017.17,729.65h-.64v-8h.64Zm0-16h-.64v-8h.64Zm0-16.05h-.64v-8h.64Zm0-16.06h-.64v-8h.64Zm0-16h-.64v-8h.64Zm0-16.06h-.64v-8h.64Zm0-16h-.64v-8h.64Z"></path><polygon class="cls-4" points="1017.17 617.28 1016.53 617.28 1016.53 613.11 1020.68 613.11 1020.68 613.76 1017.17 613.76 1017.17 617.28"></polygon><path class="cls-4" d="M1133.06,613.75h-8v-.64h8Zm-16,0h-8v-.64h8Zm-16.06,0h-8v-.64h8Zm-16,0h-8v-.64h8Zm-16.05,0h-8v-.64h8Zm-16.06,0h-8v-.64h8Zm-16,0h-8v-.64h8Z"></path><polygon class="cls-4" points="376.72 869.93 372.55 869.93 372.55 869.29 376.08 869.29 376.08 865.77 376.72 865.77 376.72 869.93"></polygon><path class="cls-4" d="M364.53,869.93h-8v-.64h8Zm-16.06,0h-8v-.64h8Zm-16.05,0h-8v-.64h8Zm-16.05,0h-8v-.64h8Zm-16.06,0h-8v-.64h8Zm-16.05,0h-8v-.64h8Zm-16.06,0h-8v-.64h8Z"></path><path class="cls-4" d="M364.53,741.85h-8v-.64h8Zm-16.06,0h-8v-.64h8Zm-16.05,0h-8v-.64h8Zm-16.05,0h-8v-.64h8Zm-16.06,0h-8v-.64h8Zm-16.05,0h-8v-.64h8Zm-16.06,0h-8v-.64h8Z"></path><polygon class="cls-4" points="376.72 745.36 376.08 745.36 376.08 741.85 372.55 741.85 372.55 741.21 376.72 741.21 376.72 745.36"></polygon><path class="cls-4" d="M376.72,857.74h-.64v-8h.64Zm0-16h-.64v-8h.64Zm0-16.06h-.64v-8h.64Zm0-16h-.64v-8h.64Zm0-16.05h-.64v-8h.64Zm0-16.06h-.64v-8h.64Zm0-16.05h-.64v-8h.64Z"></path><polygon class="cls-4" points="504.81 869.93 500.65 869.93 500.65 869.29 504.17 869.29 504.17 865.77 504.81 865.77 504.81 869.93"></polygon><path class="cls-4" d="M492.62,869.93h-8v-.64h8Zm-16.06,0h-8v-.64h8Zm-16.05,0h-8v-.64h8Zm-16.05,0h-8v-.64h8Zm-16.06,0h-8v-.64h8Zm-16,0h-8v-.64h8Zm-16.06,0h-8v-.64h8Z"></path><polygon class="cls-4" points="380.24 869.93 376.08 869.93 376.08 865.77 376.72 865.77 376.72 869.29 380.24 869.29 380.24 869.93"></polygon><path class="cls-4" d="M376.72,857.74h-.64v-8h.64Zm0-16h-.64v-8h.64Zm0-16.06h-.64v-8h.64Zm0-16h-.64v-8h.64Zm0-16.05h-.64v-8h.64Zm0-16.06h-.64v-8h.64Zm0-16.05h-.64v-8h.64Z"></path><polygon class="cls-4" points="376.72 745.36 376.08 745.36 376.08 741.21 380.24 741.21 380.24 741.85 376.72 741.85 376.72 745.36"></polygon><path class="cls-4" d="M492.62,741.85h-8v-.64h8Zm-16.06,0h-8v-.64h8Zm-16.05,0h-8v-.64h8Zm-16.05,0h-8v-.64h8Zm-16.06,0h-8v-.64h8Zm-16,0h-8v-.64h8Zm-16.06,0h-8v-.64h8Z"></path><polygon class="cls-4" points="504.81 745.36 504.17 745.36 504.17 741.85 500.65 741.85 500.65 741.21 504.81 741.21 504.81 745.36"></polygon><path class="cls-4" d="M504.81,857.74h-.64v-8h.64Zm0-16h-.64v-8h.64Zm0-16.06h-.64v-8h.64Zm0-16h-.64v-8h.64Zm0-16.05h-.64v-8h.64Zm0-16.06h-.64v-8h.64Zm0-16.05h-.64v-8h.64Z"></path><polygon class="cls-4" points="632.89 869.93 628.74 869.93 628.74 869.29 632.25 869.29 632.25 865.77 632.89 865.77 632.89 869.93"></polygon><path class="cls-4" d="M620.71,869.93h-8v-.64h8Zm-16.06,0h-8v-.64h8Zm-16,0h-8v-.64h8Zm-16.06,0h-8v-.64h8Zm-16,0h-8v-.64h8Zm-16,0h-8v-.64h8Zm-16.06,0h-8v-.64h8Z"></path><polygon class="cls-4" points="508.33 869.93 504.17 869.93 504.17 865.77 504.81 865.77 504.81 869.29 508.33 869.29 508.33 869.93"></polygon><path class="cls-4" d="M504.81,857.74h-.64v-8h.64Zm0-16h-.64v-8h.64Zm0-16.06h-.64v-8h.64Zm0-16h-.64v-8h.64Zm0-16.05h-.64v-8h.64Zm0-16.06h-.64v-8h.64Zm0-16.05h-.64v-8h.64Z"></path><polygon class="cls-4" points="504.81 745.36 504.17 745.36 504.17 741.21 508.33 741.21 508.33 741.85 504.81 741.85 504.81 745.36"></polygon><path class="cls-4" d="M620.71,741.85h-8v-.64h8Zm-16.06,0h-8v-.64h8Zm-16,0h-8v-.64h8Zm-16.06,0h-8v-.64h8Zm-16,0h-8v-.64h8Zm-16,0h-8v-.64h8Zm-16.06,0h-8v-.64h8Z"></path><polygon class="cls-4" points="632.89 745.36 632.25 745.36 632.25 741.85 628.74 741.85 628.74 741.21 632.89 741.21 632.89 745.36"></polygon><path class="cls-4" d="M632.89,857.74h-.64v-8h.64Zm0-16h-.64v-8h.64Zm0-16.06h-.64v-8h.64Zm0-16h-.64v-8h.64Zm0-16.05h-.64v-8h.64Zm0-16.06h-.64v-8h.64Zm0-16.05h-.64v-8h.64Z"></path><polygon class="cls-4" points="760.98 869.93 756.83 869.93 756.83 869.29 760.34 869.29 760.34 865.77 760.98 865.77 760.98 869.93"></polygon><path class="cls-4" d="M748.8,869.93h-8v-.64h8Zm-16.06,0h-8v-.64h8Zm-16,0h-8v-.64h8Zm-16.06,0h-8v-.64h8Zm-16,0h-8v-.64h8Zm-16.05,0h-8v-.64h8Zm-16,0h-8v-.64h8Z"></path><polygon class="cls-4" points="636.42 869.93 632.25 869.93 632.25 865.77 632.89 865.77 632.89 869.29 636.42 869.29 636.42 869.93"></polygon><path class="cls-4" d="M632.89,857.74h-.64v-8h.64Zm0-16h-.64v-8h.64Zm0-16.06h-.64v-8h.64Zm0-16h-.64v-8h.64Zm0-16.05h-.64v-8h.64Zm0-16.06h-.64v-8h.64Zm0-16.05h-.64v-8h.64Z"></path><polygon class="cls-4" points="632.89 745.36 632.25 745.36 632.25 741.21 636.42 741.21 636.42 741.85 632.89 741.85 632.89 745.36"></polygon><path class="cls-4" d="M748.8,741.85h-8v-.64h8Zm-16.06,0h-8v-.64h8Zm-16,0h-8v-.64h8Zm-16.06,0h-8v-.64h8Zm-16,0h-8v-.64h8Zm-16.05,0h-8v-.64h8Zm-16,0h-8v-.64h8Z"></path><polygon class="cls-4" points="760.98 745.36 760.34 745.36 760.34 741.85 756.83 741.85 756.83 741.21 760.98 741.21 760.98 745.36"></polygon><path class="cls-4" d="M761,857.74h-.64v-8H761Zm0-16h-.64v-8H761Zm0-16.06h-.64v-8H761Zm0-16h-.64v-8H761Zm0-16.05h-.64v-8H761Zm0-16.06h-.64v-8H761Zm0-16.05h-.64v-8H761Z"></path><polygon class="cls-4" points="889.08 869.93 884.91 869.93 884.91 869.29 888.44 869.29 888.44 865.77 889.08 865.77 889.08 869.93"></polygon><path class="cls-4" d="M876.88,869.93h-8v-.64h8Zm-16,0h-8v-.64h8Zm-16.05,0h-8v-.64h8Zm-16.06,0h-8v-.64h8Zm-16.05,0h-8v-.64h8Zm-16.06,0h-8v-.64h8Zm-16.05,0h-8v-.64h8Z"></path><polygon class="cls-4" points="764.51 869.93 760.34 869.93 760.34 865.77 760.98 865.77 760.98 869.29 764.51 869.29 764.51 869.93"></polygon><path class="cls-4" d="M761,857.74h-.64v-8H761Zm0-16h-.64v-8H761Zm0-16.06h-.64v-8H761Zm0-16h-.64v-8H761Zm0-16.05h-.64v-8H761Zm0-16.06h-.64v-8H761Zm0-16.05h-.64v-8H761Z"></path><polygon class="cls-4" points="760.98 745.36 760.34 745.36 760.34 741.21 764.51 741.21 764.51 741.85 760.98 741.85 760.98 745.36"></polygon><path class="cls-4" d="M876.88,741.85h-8v-.64h8Zm-16,0h-8v-.64h8Zm-16.05,0h-8v-.64h8Zm-16.06,0h-8v-.64h8Zm-16.05,0h-8v-.64h8Zm-16.06,0h-8v-.64h8Zm-16.05,0h-8v-.64h8Z"></path><polygon class="cls-4" points="889.08 745.36 888.44 745.36 888.44 741.85 884.91 741.85 884.91 741.21 889.08 741.21 889.08 745.36"></polygon><path class="cls-4" d="M889.08,857.74h-.64v-8h.64Zm0-16h-.64v-8h.64Zm0-16.06h-.64v-8h.64Zm0-16h-.64v-8h.64Zm0-16.05h-.64v-8h.64Zm0-16.06h-.64v-8h.64Zm0-16.05h-.64v-8h.64Z"></path><polygon class="cls-4" points="1017.17 869.93 1013 869.93 1013 869.29 1016.53 869.29 1016.53 865.77 1017.17 865.77 1017.17 869.93"></polygon><path class="cls-4" d="M1005,869.93h-8v-.64h8Zm-16.05,0h-8v-.64h8Zm-16,0h-8v-.64h8Zm-16,0h-8v-.64h8Zm-16.06,0h-8v-.64h8Zm-16.06,0h-8v-.64h8Zm-16.05,0h-8v-.64h8Z"></path><polygon class="cls-4" points="892.6 869.93 888.44 869.93 888.44 865.77 889.08 865.77 889.08 869.29 892.6 869.29 892.6 869.93"></polygon><path class="cls-4" d="M889.08,857.74h-.64v-8h.64Zm0-16h-.64v-8h.64Zm0-16.06h-.64v-8h.64Zm0-16h-.64v-8h.64Zm0-16.05h-.64v-8h.64Zm0-16.06h-.64v-8h.64Zm0-16.05h-.64v-8h.64Z"></path><polygon class="cls-4" points="889.08 745.36 888.44 745.36 888.44 741.21 892.6 741.21 892.6 741.85 889.08 741.85 889.08 745.36"></polygon><path class="cls-4" d="M1005,741.85h-8v-.64h8Zm-16.05,0h-8v-.64h8Zm-16,0h-8v-.64h8Zm-16,0h-8v-.64h8Zm-16.06,0h-8v-.64h8Zm-16.06,0h-8v-.64h8Zm-16.05,0h-8v-.64h8Z"></path><polygon class="cls-4" points="1017.17 745.36 1016.53 745.36 1016.53 741.85 1013 741.85 1013 741.21 1017.17 741.21 1017.17 745.36"></polygon><path class="cls-4" d="M1017.17,857.74h-.64v-8h.64Zm0-16h-.64v-8h.64Zm0-16.06h-.64v-8h.64Zm0-16h-.64v-8h.64Zm0-16.05h-.64v-8h.64Zm0-16.06h-.64v-8h.64Zm0-16.05h-.64v-8h.64Z"></path><path class="cls-4" d="M1133.06,869.93h-8v-.64h8Zm-16,0h-8v-.64h8Zm-16.06,0h-8v-.64h8Zm-16,0h-8v-.64h8Zm-16.05,0h-8v-.64h8Zm-16,0h-8v-.64h8Zm-16.06,0h-8v-.64h8Z"></path><polygon class="cls-4" points="1020.68 869.93 1016.53 869.93 1016.53 865.77 1017.17 865.77 1017.17 869.29 1020.68 869.29 1020.68 869.93"></polygon><path class="cls-4" d="M1017.17,857.74h-.64v-8h.64Zm0-16h-.64v-8h.64Zm0-16.06h-.64v-8h.64Zm0-16h-.64v-8h.64Zm0-16.05h-.64v-8h.64Zm0-16.06h-.64v-8h.64Zm0-16.05h-.64v-8h.64Z"></path><polygon class="cls-4" points="1017.17 745.36 1016.53 745.36 1016.53 741.21 1020.68 741.21 1020.68 741.85 1017.17 741.85 1017.17 745.36"></polygon><path class="cls-4" d="M1133.06,741.85h-8v-.64h8Zm-16,0h-8v-.64h8Zm-16.06,0h-8v-.64h8Zm-16,0h-8v-.64h8Zm-16.05,0h-8v-.64h8Zm-16.06,0h-8v-.64h8Zm-16,0h-8v-.64h8Z"></path><path class="cls-4" d="M364.53,869.93h-8v-.64h8Zm-16.06,0h-8v-.64h8Zm-16.05,0h-8v-.64h8Zm-16.05,0h-8v-.64h8Zm-16.06,0h-8v-.64h8Zm-16.05,0h-8v-.64h8Zm-16.06,0h-8v-.64h8Z"></path><polygon class="cls-4" points="376.72 873.45 376.08 873.45 376.08 869.93 372.55 869.93 372.55 869.29 376.72 869.29 376.72 873.45"></polygon><path class="cls-4" d="M376.72,985.83h-.64v-8h.64Zm0-16.05h-.64v-8h.64Zm0-16.06h-.64v-8h.64Zm0-16.05h-.64v-8h.64Zm0-16h-.64v-8h.64Zm0-16.06h-.64v-8h.64Zm0-16h-.64v-8h.64Z"></path><path class="cls-4" d="M376.72,985.83h-.64v-8h.64Zm0-16.05h-.64v-8h.64Zm0-16.06h-.64v-8h.64Zm0-16.05h-.64v-8h.64Zm0-16h-.64v-8h.64Zm0-16h-.64v-8h.64Zm0-16.06h-.64v-8h.64Z"></path><polygon class="cls-4" points="376.72 873.45 376.08 873.45 376.08 869.29 380.24 869.29 380.24 869.93 376.72 869.93 376.72 873.45"></polygon><path class="cls-4" d="M492.62,869.93h-8v-.64h8Zm-16.06,0h-8v-.64h8Zm-16.05,0h-8v-.64h8Zm-16.05,0h-8v-.64h8Zm-16.06,0h-8v-.64h8Zm-16,0h-8v-.64h8Zm-16.06,0h-8v-.64h8Z"></path><polygon class="cls-4" points="504.81 873.45 504.17 873.45 504.17 869.93 500.65 869.93 500.65 869.29 504.81 869.29 504.81 873.45"></polygon><path class="cls-4" d="M504.81,985.83h-.64v-8h.64Zm0-16.05h-.64v-8h.64Zm0-16.06h-.64v-8h.64Zm0-16.05h-.64v-8h.64Zm0-16h-.64v-8h.64Zm0-16.06h-.64v-8h.64Zm0-16h-.64v-8h.64Z"></path><path class="cls-4" d="M504.81,985.83h-.64v-8h.64Zm0-16.05h-.64v-8h.64Zm0-16.06h-.64v-8h.64Zm0-16.05h-.64v-8h.64Zm0-16h-.64v-8h.64Zm0-16h-.64v-8h.64Zm0-16.06h-.64v-8h.64Z"></path><polygon class="cls-4" points="504.81 873.45 504.17 873.45 504.17 869.29 508.33 869.29 508.33 869.93 504.81 869.93 504.81 873.45"></polygon><path class="cls-4" d="M620.71,869.93h-8v-.64h8Zm-16.06,0h-8v-.64h8Zm-16,0h-8v-.64h8Zm-16.06,0h-8v-.64h8Zm-16,0h-8v-.64h8Zm-16,0h-8v-.64h8Zm-16.06,0h-8v-.64h8Z"></path><polygon class="cls-4" points="632.89 873.45 632.25 873.45 632.25 869.93 628.74 869.93 628.74 869.29 632.89 869.29 632.89 873.45"></polygon><path class="cls-4" d="M632.89,985.83h-.64v-8h.64Zm0-16.05h-.64v-8h.64Zm0-16.06h-.64v-8h.64Zm0-16.05h-.64v-8h.64Zm0-16h-.64v-8h.64Zm0-16.06h-.64v-8h.64Zm0-16h-.64v-8h.64Z"></path><path class="cls-4" d="M632.89,985.83h-.64v-8h.64Zm0-16.05h-.64v-8h.64Zm0-16.06h-.64v-8h.64Zm0-16.05h-.64v-8h.64Zm0-16h-.64v-8h.64Zm0-16h-.64v-8h.64Zm0-16.06h-.64v-8h.64Z"></path><polygon class="cls-4" points="632.89 873.45 632.25 873.45 632.25 869.29 636.42 869.29 636.42 869.93 632.89 869.93 632.89 873.45"></polygon><path class="cls-4" d="M748.8,869.93h-8v-.64h8Zm-16.06,0h-8v-.64h8Zm-16,0h-8v-.64h8Zm-16.06,0h-8v-.64h8Zm-16,0h-8v-.64h8Zm-16.05,0h-8v-.64h8Zm-16,0h-8v-.64h8Z"></path><polygon class="cls-4" points="760.98 873.45 760.34 873.45 760.34 869.93 756.83 869.93 756.83 869.29 760.98 869.29 760.98 873.45"></polygon><path class="cls-4" d="M761,985.83h-.64v-8H761Zm0-16.05h-.64v-8H761Zm0-16.06h-.64v-8H761Zm0-16.05h-.64v-8H761Zm0-16h-.64v-8H761Zm0-16.06h-.64v-8H761Zm0-16h-.64v-8H761Z"></path><path class="cls-4" d="M761,985.83h-.64v-8H761Zm0-16.05h-.64v-8H761Zm0-16.06h-.64v-8H761Zm0-16.05h-.64v-8H761Zm0-16h-.64v-8H761Zm0-16h-.64v-8H761Zm0-16.06h-.64v-8H761Z"></path><polygon class="cls-4" points="760.98 873.45 760.34 873.45 760.34 869.29 764.51 869.29 764.51 869.93 760.98 869.93 760.98 873.45"></polygon><path class="cls-4" d="M876.88,869.93h-8v-.64h8Zm-16,0h-8v-.64h8Zm-16.05,0h-8v-.64h8Zm-16.06,0h-8v-.64h8Zm-16.05,0h-8v-.64h8Zm-16.06,0h-8v-.64h8Zm-16.05,0h-8v-.64h8Z"></path><polygon class="cls-4" points="889.08 873.45 888.44 873.45 888.44 869.93 884.91 869.93 884.91 869.29 889.08 869.29 889.08 873.45"></polygon><path class="cls-4" d="M889.08,985.83h-.64v-8h.64Zm0-16.05h-.64v-8h.64Zm0-16.06h-.64v-8h.64Zm0-16.05h-.64v-8h.64Zm0-16h-.64v-8h.64Zm0-16.06h-.64v-8h.64Zm0-16h-.64v-8h.64Z"></path><path class="cls-4" d="M889.08,985.83h-.64v-8h.64Zm0-16.05h-.64v-8h.64Zm0-16.06h-.64v-8h.64Zm0-16.05h-.64v-8h.64Zm0-16h-.64v-8h.64Zm0-16h-.64v-8h.64Zm0-16.06h-.64v-8h.64Z"></path><polygon class="cls-4" points="889.08 873.45 888.44 873.45 888.44 869.29 892.6 869.29 892.6 869.93 889.08 869.93 889.08 873.45"></polygon><path class="cls-4" d="M1005,869.93h-8v-.64h8Zm-16.05,0h-8v-.64h8Zm-16,0h-8v-.64h8Zm-16,0h-8v-.64h8Zm-16.06,0h-8v-.64h8Zm-16.06,0h-8v-.64h8Zm-16.05,0h-8v-.64h8Z"></path><polygon class="cls-4" points="1017.17 873.45 1016.53 873.45 1016.53 869.93 1013 869.93 1013 869.29 1017.17 869.29 1017.17 873.45"></polygon><path class="cls-4" d="M1017.17,985.83h-.64v-8h.64Zm0-16.05h-.64v-8h.64Zm0-16.06h-.64v-8h.64Zm0-16.05h-.64v-8h.64Zm0-16h-.64v-8h.64Zm0-16.06h-.64v-8h.64Zm0-16h-.64v-8h.64Z"></path><path class="cls-4" d="M1017.17,985.83h-.64v-8h.64Zm0-16.05h-.64v-8h.64Zm0-16.06h-.64v-8h.64Zm0-16.05h-.64v-8h.64Zm0-16h-.64v-8h.64Zm0-16h-.64v-8h.64Zm0-16.06h-.64v-8h.64Z"></path><polygon class="cls-4" points="1017.17 873.45 1016.53 873.45 1016.53 869.29 1020.68 869.29 1020.68 869.93 1017.17 869.93 1017.17 873.45"></polygon><path class="cls-4" d="M1133.06,869.93h-8v-.64h8Zm-16,0h-8v-.64h8Zm-16.06,0h-8v-.64h8Zm-16,0h-8v-.64h8Zm-16.05,0h-8v-.64h8Zm-16.06,0h-8v-.64h8Zm-16,0h-8v-.64h8Z"></path><rect class="cls-4" x="61.99" y="921.64" width="1.28" height="16.01"></rect><rect class="cls-4" x="54.62" y="929.31" width="16.01" height="0.67"></rect><rect class="cls-4" x="1073.79" y="921.64" width="1.28" height="16.01"></rect><rect class="cls-4" x="1066.42" y="929" width="16.01" height="1.28"></rect><polygon class="cls-4" points="124.54 613.24 120.38 613.24 120.38 612.6 123.9 612.6 123.9 609.08 124.54 609.08 124.54 613.24"></polygon><path class="cls-4" d="M112.36,613.24h-8v-.64h8Zm-16.06,0h-8v-.64h8Zm-16,0h-8v-.64h8Zm-16.06,0h-8v-.64h8Zm-16,0h-8v-.64h8Zm-16,0h-8v-.64h8Zm-16.06,0H8v-.64h8Z"></path><path class="cls-4" d="M124.54,601.05h-.64v-8h.64Zm0-16.06h-.64v-8h.64Zm0-16h-.64v-8h.64Zm0-16.05h-.64v-8h.64Zm0-16h-.64v-8h.64Zm0-16.06h-.64v-8h.64Zm0-16h-.64v-8h.64Z"></path><polygon class="cls-4" points="252.63 613.24 248.47 613.24 248.47 612.6 251.99 612.6 251.99 609.08 252.63 609.08 252.63 613.24"></polygon><path class="cls-4" d="M240.44,613.24h-8v-.64h8Zm-16.05,0h-8v-.64h8Zm-16,0h-8v-.64h8Zm-16.06,0h-8v-.64h8Zm-16.06,0h-8v-.64h8Zm-16.05,0h-8v-.64h8Zm-16,0h-8v-.64h8Z"></path><polygon class="cls-4" points="128.07 613.24 123.9 613.24 123.9 609.08 124.54 609.08 124.54 612.6 128.07 612.6 128.07 613.24"></polygon><path class="cls-4" d="M124.54,601.05h-.64v-8h.64Zm0-16.06h-.64v-8h.64Zm0-16h-.64v-8h.64Zm0-16.05h-.64v-8h.64Zm0-16h-.64v-8h.64Zm0-16.06h-.64v-8h.64Zm0-16h-.64v-8h.64Z"></path><path class="cls-4" d="M252.63,601.05H252v-8h.64Zm0-16.06H252v-8h.64Zm0-16H252v-8h.64Zm0-16.05H252v-8h.64Zm0-16H252v-8h.64Zm0-16.06H252v-8h.64Zm0-16H252v-8h.64Z"></path><polygon class="cls-4" points="256.16 613.24 251.99 613.24 251.99 609.08 252.63 609.08 252.63 612.6 256.16 612.6 256.16 613.24"></polygon><path class="cls-4" d="M252.63,601.05H252v-8h.64Zm0-16.06H252v-8h.64Zm0-16H252v-8h.64Zm0-16.05H252v-8h.64Zm0-16H252v-8h.64Zm0-16.06H252v-8h.64Zm0-16H252v-8h.64Z"></path><polygon class="cls-4" points="124.54 741.33 120.38 741.33 120.38 740.69 123.9 740.69 123.9 737.17 124.54 737.17 124.54 741.33"></polygon><path class="cls-4" d="M112.36,741.33h-8v-.64h8Zm-16.06,0h-8v-.64h8Zm-16,0h-8v-.64h8Zm-16.06,0h-8v-.64h8Zm-16,0h-8v-.64h8Zm-16,0h-8v-.64h8Zm-16.06,0H8v-.64h8Z"></path><path class="cls-4" d="M112.36,613.24h-8v-.64h8Zm-16.06,0h-8v-.64h8Zm-16.06,0h-8v-.64h8Zm-16,0h-8v-.64h8Zm-16,0h-8v-.64h8Zm-16,0h-8v-.64h8Zm-16.06,0H8v-.64h8Z"></path><polygon class="cls-4" points="124.54 616.76 123.9 616.76 123.9 613.24 120.38 613.24 120.38 612.6 124.54 612.6 124.54 616.76"></polygon><path class="cls-4" d="M124.54,729.14h-.64v-8h.64Zm0-16h-.64v-8h.64Zm0-16.06h-.64v-8h.64Zm0-16.06h-.64v-8h.64Zm0-16.05h-.64v-8h.64Zm0-16h-.64v-8h.64Zm0-16h-.64v-8h.64Z"></path><polygon class="cls-4" points="252.63 741.33 248.47 741.33 248.47 740.69 251.99 740.69 251.99 737.17 252.63 737.17 252.63 741.33"></polygon><path class="cls-4" d="M240.44,741.33h-8v-.64h8Zm-16.05,0h-8v-.64h8Zm-16,0h-8v-.64h8Zm-16.06,0h-8v-.64h8Zm-16.06,0h-8v-.64h8Zm-16.05,0h-8v-.64h8Zm-16,0h-8v-.64h8Z"></path><polygon class="cls-4" points="128.07 741.33 123.9 741.33 123.9 737.17 124.54 737.17 124.54 740.69 128.07 740.69 128.07 741.33"></polygon><path class="cls-4" d="M124.54,729.14h-.64v-8h.64Zm0-16h-.64v-8h.64Zm0-16.06h-.64v-8h.64Zm0-16.06h-.64v-8h.64Zm0-16.05h-.64v-8h.64Zm0-16h-.64v-8h.64Zm0-16h-.64v-8h.64Z"></path><polygon class="cls-4" points="124.54 616.76 123.9 616.76 123.9 612.6 128.07 612.6 128.07 613.24 124.54 613.24 124.54 616.76"></polygon><path class="cls-4" d="M240.44,613.24h-8v-.64h8Zm-16.05,0h-8v-.64h8Zm-16,0h-8v-.64h8Zm-16.06,0h-8v-.64h8Zm-16.06,0h-8v-.64h8Zm-16.05,0h-8v-.64h8Zm-16,0h-8v-.64h8Z"></path><polygon class="cls-4" points="252.63 616.76 251.99 616.76 251.99 613.24 248.47 613.24 248.47 612.6 252.63 612.6 252.63 616.76"></polygon><path class="cls-4" d="M252.63,729.14H252v-8h.64Zm0-16H252v-8h.64Zm0-16.06H252v-8h.64Zm0-16.06H252v-8h.64Zm0-16.05H252v-8h.64Zm0-16H252v-8h.64Zm0-16H252v-8h.64Z"></path><polygon class="cls-4" points="256.16 741.33 251.99 741.33 251.99 737.17 252.63 737.17 252.63 740.69 256.16 740.69 256.16 741.33"></polygon><path class="cls-4" d="M252.63,729.14H252v-8h.64Zm0-16H252v-8h.64Zm0-16.06H252v-8h.64Zm0-16.06H252v-8h.64Zm0-16.05H252v-8h.64Zm0-16H252v-8h.64Zm0-16H252v-8h.64Z"></path><polygon class="cls-4" points="252.63 616.76 251.99 616.76 251.99 612.6 256.16 612.6 256.16 613.24 252.63 613.24 252.63 616.76"></polygon><polygon class="cls-4" points="124.54 869.42 120.38 869.42 120.38 868.78 123.9 868.78 123.9 865.25 124.54 865.25 124.54 869.42"></polygon><path class="cls-4" d="M112.36,869.42h-8v-.64h8Zm-16.06,0h-8v-.64h8Zm-16,0h-8v-.64h8Zm-16.06,0h-8v-.64h8Zm-16,0h-8v-.64h8Zm-16,0h-8v-.64h8Zm-16.06,0H8v-.64h8Z"></path><path class="cls-4" d="M112.36,741.33h-8v-.64h8Zm-16.06,0h-8v-.64h8Zm-16.06,0h-8v-.64h8Zm-16,0h-8v-.64h8Zm-16,0h-8v-.64h8Zm-16,0h-8v-.64h8Zm-16.06,0H8v-.64h8Z"></path><polygon class="cls-4" points="124.54 744.85 123.9 744.85 123.9 741.33 120.38 741.33 120.38 740.69 124.54 740.69 124.54 744.85"></polygon><path class="cls-4" d="M124.54,857.23h-.64v-8h.64Zm0-16.05h-.64v-8h.64Zm0-16.06h-.64v-8h.64Zm0-16h-.64v-8h.64Zm0-16.06h-.64v-8h.64Zm0-16h-.64v-8h.64Zm0-16.05h-.64v-8h.64Z"></path><polygon class="cls-4" points="252.63 869.42 248.47 869.42 248.47 868.78 251.99 868.78 251.99 865.25 252.63 865.25 252.63 869.42"></polygon><path class="cls-4" d="M240.44,869.42h-8v-.64h8Zm-16.05,0h-8v-.64h8Zm-16,0h-8v-.64h8Zm-16.06,0h-8v-.64h8Zm-16.06,0h-8v-.64h8Zm-16.05,0h-8v-.64h8Zm-16,0h-8v-.64h8Z"></path><polygon class="cls-4" points="128.07 869.42 123.9 869.42 123.9 865.25 124.54 865.25 124.54 868.78 128.07 868.78 128.07 869.42"></polygon><path class="cls-4" d="M124.54,857.23h-.64v-8h.64Zm0-16.05h-.64v-8h.64Zm0-16.06h-.64v-8h.64Zm0-16h-.64v-8h.64Zm0-16.06h-.64v-8h.64Zm0-16h-.64v-8h.64Zm0-16.05h-.64v-8h.64Z"></path><polygon class="cls-4" points="124.54 744.85 123.9 744.85 123.9 740.69 128.07 740.69 128.07 741.33 124.54 741.33 124.54 744.85"></polygon><path class="cls-4" d="M240.44,741.33h-8v-.64h8Zm-16.05,0h-8v-.64h8Zm-16,0h-8v-.64h8Zm-16.06,0h-8v-.64h8Zm-16.06,0h-8v-.64h8Zm-16.05,0h-8v-.64h8Zm-16,0h-8v-.64h8Z"></path><polygon class="cls-4" points="252.63 744.85 251.99 744.85 251.99 741.33 248.47 741.33 248.47 740.69 252.63 740.69 252.63 744.85"></polygon><path class="cls-4" d="M252.63,857.23H252v-8h.64Zm0-16.05H252v-8h.64Zm0-16.06H252v-8h.64Zm0-16H252v-8h.64Zm0-16.06H252v-8h.64Zm0-16H252v-8h.64Zm0-16.05H252v-8h.64Z"></path><polygon class="cls-4" points="256.16 869.42 251.99 869.42 251.99 865.25 252.63 865.25 252.63 868.78 256.16 868.78 256.16 869.42"></polygon><path class="cls-4" d="M252.63,857.23H252v-8h.64Zm0-16.05H252v-8h.64Zm0-16.06H252v-8h.64Zm0-16H252v-8h.64Zm0-16.06H252v-8h.64Zm0-16H252v-8h.64Zm0-16.05H252v-8h.64Z"></path><polygon class="cls-4" points="252.63 744.85 251.99 744.85 251.99 740.69 256.16 740.69 256.16 741.33 252.63 741.33 252.63 744.85"></polygon><path class="cls-4" d="M112.36,869.42h-8v-.64h8Zm-16.06,0h-8v-.64h8Zm-16.06,0h-8v-.64h8Zm-16,0h-8v-.64h8Zm-16,0h-8v-.64h8Zm-16,0h-8v-.64h8Zm-16.06,0H8v-.64h8Z"></path><polygon class="cls-4" points="124.54 872.94 123.9 872.94 123.9 869.42 120.38 869.42 120.38 868.78 124.54 868.78 124.54 872.94"></polygon><path class="cls-4" d="M124.54,985.31h-.64v-8h.64Zm0-16h-.64v-8h.64Zm0-16h-.64v-8h.64Zm0-16.05h-.64v-8h.64Zm0-16.06h-.64v-8h.64Zm0-16.06h-.64v-8h.64Zm0-16h-.64v-8h.64Z"></path><path class="cls-4" d="M124.54,985.31h-.64v-8h.64Zm0-16h-.64v-8h.64Zm0-16h-.64v-8h.64Zm0-16.05h-.64v-8h.64Zm0-16.06h-.64v-8h.64Zm0-16.05h-.64v-8h.64Zm0-16.06h-.64v-8h.64Z"></path><polygon class="cls-4" points="124.54 872.94 123.9 872.94 123.9 868.78 128.07 868.78 128.07 869.42 124.54 869.42 124.54 872.94"></polygon><path class="cls-4" d="M240.44,869.42h-8v-.64h8Zm-16.05,0h-8v-.64h8Zm-16,0h-8v-.64h8Zm-16.06,0h-8v-.64h8Zm-16.06,0h-8v-.64h8Zm-16.05,0h-8v-.64h8Zm-16,0h-8v-.64h8Z"></path><polygon class="cls-4" points="252.63 872.94 251.99 872.94 251.99 869.42 248.47 869.42 248.47 868.78 252.63 868.78 252.63 872.94"></polygon><path class="cls-4" d="M252.63,985.31H252v-8h.64Zm0-16H252v-8h.64Zm0-16H252v-8h.64Zm0-16.05H252v-8h.64Zm0-16.06H252v-8h.64Zm0-16.06H252v-8h.64Zm0-16H252v-8h.64Z"></path><path class="cls-4" d="M252.63,985.31H252v-8h.64Zm0-16H252v-8h.64Zm0-16H252v-8h.64Zm0-16.05H252v-8h.64Zm0-16.06H252v-8h.64Zm0-16.05H252v-8h.64Zm0-16.06H252v-8h.64Z"></path><polygon class="cls-4" points="252.63 872.94 251.99 872.94 251.99 868.78 256.16 868.78 256.16 869.42 252.63 869.42 252.63 872.94"></polygon></g><path class="cls-19" d="M556.81,446.26a11.78,11.78,0,1,1,.22,16.68A11.72,11.72,0,0,1,556.81,446.26Z"></path><line class="cls-24" x1="681.19" y1="450.52" x2="493.78" y2="610.63"></line><circle class="cls-25" cx="673.16" cy="451.28" r="28.61"></circle><line class="cls-26" x1="843.44" y1="451.28" x2="987.82" y2="569.62"></line><line class="cls-26" x1="996.65" y1="575" x2="989.51" y2="782.41"></line><line class="cls-26" x1="838.72" y1="451.5" x2="777.21" y2="616.27"></line><circle class="cls-25" cx="829.44" cy="451.28" r="28.61"></circle><line class="cls-26" x1="765.47" y1="446.94" x2="672.84" y2="701.4"></line><circle class="cls-25" cx="750.59" cy="451.28" r="28.61"></circle><line class="cls-26" x1="782.66" y1="618.34" x2="987.81" y2="780.23"></line><circle class="cls-25" cx="786.41" cy="616.89" r="33.33"></circle><path class="cls-5" d="M809.27,599.19a2,2,0,0,0-2-2q-20.5,0-41,0a1.88,1.88,0,0,0-2,2v32.33a3,3,0,0,0,0,.42,1.93,1.93,0,0,0,2,1.56h20.49c6.83,0,13.66,0,20.49,0a2,2,0,0,0,2-2Q809.26,615.34,809.27,599.19Zm-1.91,31.68c0,.55-1.47.3-1.93.33H767.15c-.83,0-1,0-1-.79,0-10.17,0-20.26,0-30.43v-.16c0-.53.27-.74.79-.76l.21,0h39.21c.85,0,1,.15,1,1v30C807.37,630.19,807.35,630.73,807.36,630.87Z"></path><path class="cls-5" d="M787.87,619.64c-2.18-2.32-4.33-4.92-6.49-7.23-4,5.11-7.89,10.39-11.87,15.06H804c-2.94-6-5.87-12.8-8.81-19.38C792.76,611.87,790.32,615.9,787.87,619.64Z"></path><path class="cls-5" d="M775.5,610.9a4.17,4.17,0,1,0-4.15-4.2A4.14,4.14,0,0,0,775.5,610.9Z"></path><line class="cls-26" x1="681.47" y1="706.32" x2="989.19" y2="781.32"></line><circle class="cls-25" cx="990.01" cy="782.22" r="33.33"></circle><path class="cls-5" d="M980.11,788.74a80.36,80.36,0,0,0,7.46,12.49c.64.89,1.31,1.77,2,2.65l.06,0a80.7,80.7,0,0,0,9.68-15.7,33.69,33.69,0,0,0,3.35-11.66,14.29,14.29,0,0,0-.12-3.33,12.67,12.67,0,0,0-3-6.4,13,13,0,0,0-8-4.47c-.53-.08-.78-.07-1.58-.13h-1a12.85,12.85,0,0,0-8.51,3.7,12.7,12.7,0,0,0-3.94,8.55,18.83,18.83,0,0,0,.45,5.18A40.54,40.54,0,0,0,980.11,788.74Zm9.47-20.43a7.05,7.05,0,1,1-7.12,7.05A7.08,7.08,0,0,1,989.58,768.31Z"></path><line class="cls-26" x1="494.32" y1="615.45" x2="674.21" y2="710.44"></line><circle class="cls-25" cx="495.45" cy="616.08" r="25.91"></circle><line class="cls-26" x1="674.1" y1="711.48" x2="828.77" y2="871.1"></line><circle class="cls-25" cx="859.6" cy="899.34" r="51.44"></circle><line class="cls-26" x1="679.67" y1="707.15" x2="514.81" y2="793.53"></line><circle class="cls-25" cx="506.79" cy="791.68" r="33.33"></circle><circle class="cls-25" cx="681.47" cy="706.23" r="57"></circle><path class="cls-5" d="M527.33,805.93c-.28-1.43-.58-2.85-.9-4.27a6.46,6.46,0,0,0-.79-2,3.72,3.72,0,0,0-2.2-1.78c-.56-.16-1.1-.37-1.64-.58-2-.79-4.06-1.68-6.16-2.32a3.13,3.13,0,0,1-1.57-1.08,3,3,0,0,0-.86-.76,1.24,1.24,0,0,1-.68-1.37,3.32,3.32,0,0,1,.25-1.13,12.36,12.36,0,0,0,1-2.72.65.65,0,0,0,.78-.3,6.41,6.41,0,0,0,.47-1.16c.26-.9.47-1.81.7-2.72,0-.06,0-.13,0-.19a.61.61,0,0,0-.35-.72c-.11-.05-.23-.07-.38-.12l.12-.52a8.44,8.44,0,0,0-.73-5.84,5.84,5.84,0,0,0-3.56-3.09c-.46-.15-.93-.27-1.4-.38-1-.24-2.12-.2-3.15-.52a2.18,2.18,0,0,0-.76,0c-.51,0-1,.21-1.52.22a1.73,1.73,0,0,0-1.44.67,1.21,1.21,0,0,1-.64.4,2.16,2.16,0,0,0-1.15,1.24,10.9,10.9,0,0,0-.49,1c-.1.36,0,.76-.11,1.14a10.57,10.57,0,0,0-.16,2.31,15.23,15.23,0,0,0,.55,3.26c-.27.21-.65.33-.68.75a2.44,2.44,0,0,0,.12,1.34,13,13,0,0,1,.75,2.09,2.46,2.46,0,0,0,.42.86,2.35,2.35,0,0,0,.72.46,7,7,0,0,0,.85,2.24,1.67,1.67,0,0,1,.2,1.22c-.1.5-.22,1-.31,1.43a7.1,7.1,0,0,0-1,.87,4.94,4.94,0,0,1-2.14,1.43c-1.87.73-3.75,1.41-5.67,2a15.43,15.43,0,0,0-2.09.78,4.2,4.2,0,0,0-2.35,2.45c-.45,1.24-.91,2.48-1.32,3.74a8.34,8.34,0,0,0-.44,2.47,5.24,5.24,0,0,0,.1,1.25,1,1,0,0,0,1,.81l.77,0,36.36.08h.58c.7,0,1-.28,1.07-1A6,6,0,0,0,527.33,805.93Z"></path><path class="cls-2" d="M512.18,623.67c-4.82-8.38-9.63-16.69-14.44-25.06a3.16,3.16,0,0,0-3.12-1.66,3.2,3.2,0,0,0-3,1.73c-4.82,8.37-9.63,16.63-14.44,25a3.47,3.47,0,0,0,3,5.18h28.89A3.47,3.47,0,0,0,512.18,623.67Zm-17.8,1.7a2.17,2.17,0,1,1,2.16-2.17A2.17,2.17,0,0,1,494.38,625.37Zm1.62-6.86a1.57,1.57,0,1,1-3.13,0l-.62-11.9c0-.86,1.32-1.72,2.19-1.72s2.19.86,2.19,1.72Z"></path><path class="cls-2" d="M845.9,887.24a1.82,1.82,0,0,0-.45.73,10.56,10.56,0,0,0-.29,1.11l-2,9.11-2.31-8.52c-.19-.7-.34-1.21-.46-1.51a2,2,0,0,0-.61-.85,1.81,1.81,0,0,0-1.24-.39,1.89,1.89,0,0,0-1.24.38,2.07,2.07,0,0,0-.66.88,12.65,12.65,0,0,0-.46,1.49l-2.29,8.52-2-9.11a6.23,6.23,0,0,0-.52-1.6,1.2,1.2,0,0,0-1.16-.56,1.46,1.46,0,0,0-1.06.42,1.39,1.39,0,0,0-.42,1,6.41,6.41,0,0,0,.23,1.39l2.6,10.51c.08.31.17.65.27,1a3.43,3.43,0,0,0,.38,1,1.65,1.65,0,0,0,.61.62,2,2,0,0,0,1,.22,1.75,1.75,0,0,0,1.16-.37,2.11,2.11,0,0,0,.62-.83c.11-.31.27-.82.47-1.53L838.5,891l2.52,9.35c.21.73.37,1.25.48,1.55a2,2,0,0,0,.61.81,2,2,0,0,0,2.35,0,1.93,1.93,0,0,0,.59-.86,15.43,15.43,0,0,0,.44-1.56l2.6-10.51a6.25,6.25,0,0,0,.23-1.39,1.37,1.37,0,0,0-.43-1,1.45,1.45,0,0,0-1-.41A1.31,1.31,0,0,0,845.9,887.24Z"></path><path class="cls-2" d="M868.34,887.33a1.49,1.49,0,0,0-1.05-.41,1.29,1.29,0,0,0-.94.32,1.84,1.84,0,0,0-.46.73,8.8,8.8,0,0,0-.28,1.11l-2.05,9.11-2.31-8.52c-.19-.7-.34-1.21-.45-1.51a2.14,2.14,0,0,0-.62-.85,1.79,1.79,0,0,0-1.24-.39,1.89,1.89,0,0,0-1.24.38,2.07,2.07,0,0,0-.66.88,12.65,12.65,0,0,0-.46,1.49l-2.29,8.52-2-9.11a6.23,6.23,0,0,0-.52-1.6,1.2,1.2,0,0,0-1.16-.56,1.42,1.42,0,0,0-1.05.42,1.36,1.36,0,0,0-.43,1,6,6,0,0,0,.24,1.39l2.59,10.51c.08.31.17.65.27,1a3.77,3.77,0,0,0,.38,1,1.73,1.73,0,0,0,.61.62,2,2,0,0,0,1,.22,1.79,1.79,0,0,0,1.16-.37,2.08,2.08,0,0,0,.61-.83c.11-.31.27-.82.47-1.53l2.55-9.35,2.53,9.35c.2.73.36,1.25.47,1.55a2,2,0,0,0,.61.81,2,2,0,0,0,2.35,0,1.93,1.93,0,0,0,.59-.86q.18-.5.45-1.56l2.59-10.51a6.42,6.42,0,0,0,.24-1.39A1.4,1.4,0,0,0,868.34,887.33Z"></path><path class="cls-2" d="M872.63,901.27a4,4,0,0,0,.38,1,1.73,1.73,0,0,0,.61.62,2,2,0,0,0,1,.22,1.79,1.79,0,0,0,1.16-.37,2.08,2.08,0,0,0,.61-.83c.11-.31.27-.82.47-1.53l2.56-9.35,2.52,9.35c.2.73.36,1.25.48,1.55a1.91,1.91,0,0,0,.6.81,2,2,0,0,0,2.35,0,1.93,1.93,0,0,0,.59-.86q.18-.5.45-1.56L889,889.75a6.42,6.42,0,0,0,.24-1.39,1.4,1.4,0,0,0-.43-1,1.49,1.49,0,0,0-1-.41,1.29,1.29,0,0,0-.94.32,1.84,1.84,0,0,0-.46.73,11,11,0,0,0-.28,1.11l-2,9.11-2.31-8.52c-.19-.7-.34-1.21-.45-1.51a2.21,2.21,0,0,0-.61-.85,1.82,1.82,0,0,0-1.24-.39,1.9,1.9,0,0,0-1.25.38,2.25,2.25,0,0,0-.66.88,14.91,14.91,0,0,0-.46,1.49l-2.29,8.52-2-9.11a6.23,6.23,0,0,0-.52-1.6,1.19,1.19,0,0,0-1.16-.56,1.42,1.42,0,0,0-1,.42,1.36,1.36,0,0,0-.43,1,6,6,0,0,0,.24,1.39l2.59,10.51C872.44,900.57,872.53,900.91,872.63,901.27Z"></path><path class="cls-2" d="M884.63,880.33h-51.4A14.26,14.26,0,0,0,819,894.58v.82a14.26,14.26,0,0,0,14.25,14.25h34.33l-.89-2.73H833.23A11.53,11.53,0,0,1,821.7,895.4v-.82a11.54,11.54,0,0,1,11.53-11.52h51.4a11.54,11.54,0,0,1,11.52,11.52v.82a11.53,11.53,0,0,1-11.52,11.52h-5.39l5.93,2.71a14.26,14.26,0,0,0,13.71-14.23v-.82A14.26,14.26,0,0,0,884.63,880.33Z"></path><polygon class="cls-2" points="885.22 911.65 876.36 907.61 867.5 903.58 870.51 912.84 873.52 922.1 877.34 918.69 886.82 929.31 890.91 925.66 881.42 915.04 885.22 911.65"></polygon><rect class="cls-27" x="631.1" y="232.07" width="257.36" height="256.49" transform="translate(1120.08 -399.46) rotate(90)"></rect><line class="cls-28" x1="511.53" y1="367.99" x2="621.24" y2="367.99"></line><line class="cls-28" x1="513.45" y1="281.1" x2="623.16" y2="281.1"></line><line class="cls-28" x1="512.13" y1="455.11" x2="621.84" y2="455.11"></line><text class="cls-29" transform="translate(610.66 208.34)">[ KN<tspan class="cls-30" x="44.95" y="0">O</tspan><tspan x="60.7" y="0">WLEDGE UNIFI</tspan><tspan class="cls-30" x="213.07" y="0">C</tspan><tspan class="cls-31" x="226.44" y="0">A</tspan><tspan x="241.2" y="0">TION ]</tspan></text><circle class="cls-25" cx="997.09" cy="570.48" r="57"></circle><path class="cls-5" d="M1034.58,598.36c-.51-2.64-1.07-5.27-1.65-7.9a12.37,12.37,0,0,0-1.47-3.64,6.91,6.91,0,0,0-4.08-3.31c-1-.29-2-.68-3-1.06-3.78-1.48-7.51-3.12-11.4-4.3a5.79,5.79,0,0,1-2.91-2,5.61,5.61,0,0,0-1.59-1.41,2.3,2.3,0,0,1-1.25-2.54,6.29,6.29,0,0,1,.45-2.09,21.77,21.77,0,0,0,1.76-5,1.19,1.19,0,0,0,1.45-.57,12.14,12.14,0,0,0,.88-2.15c.46-1.66.86-3.35,1.28-5,0-.12.07-.23.09-.35a1.14,1.14,0,0,0-.66-1.33,7.21,7.21,0,0,0-.7-.23c.1-.39.16-.68.23-1a15.7,15.7,0,0,0-1.37-10.81,10.74,10.74,0,0,0-6.58-5.72c-.85-.27-1.72-.5-2.59-.7-1.92-.46-3.93-.38-5.84-1a3.77,3.77,0,0,0-1.41.06c-.94.07-1.83.38-2.81.4A3.22,3.22,0,0,0,988.7,538a2.38,2.38,0,0,1-1.18.74,4,4,0,0,0-2.13,2.3c-.25.66-.72,1.24-.9,1.91s-.07,1.42-.21,2.11a19.32,19.32,0,0,0-.29,4.29,26.07,26.07,0,0,0,1,6c-.52.4-1.22.62-1.28,1.4a4.61,4.61,0,0,0,.23,2.47,23.19,23.19,0,0,1,1.39,3.87,4.65,4.65,0,0,0,.77,1.6,5.33,5.33,0,0,0,1.34.86,13.2,13.2,0,0,0,1.57,4.14,3,3,0,0,1,.37,2.25c-.18.94-.4,1.86-.58,2.65A14.23,14.23,0,0,0,987,576.2a9.31,9.31,0,0,1-4,2.66c-3.46,1.35-6.94,2.6-10.51,3.62a29.74,29.74,0,0,0-3.85,1.44,7.77,7.77,0,0,0-4.35,4.53c-.84,2.31-1.69,4.61-2.45,6.93A16.17,16.17,0,0,0,961,600a9.93,9.93,0,0,0,.2,2.31,1.8,1.8,0,0,0,1.77,1.5c.48,0,1,0,1.44,0l67.31.15c.36,0,.72,0,1.08,0,1.31-.07,1.79-.52,2-1.84A11,11,0,0,0,1034.58,598.36Z"></path><path class="cls-5" d="M714.3,672.69c0-1.86-1.09-3-2.7-3h-9.26v-2.55a3,3,0,0,0-3-3.1H659.41l-7.1,7c0,9.4,0,18.81,0,28.21q0,16.07,0,32.13a2.93,2.93,0,0,0,2.73,3.17h9.82v2.31a2.94,2.94,0,0,0,2.74,3.18q22,0,44,0a2.87,2.87,0,0,0,2.74-3.1Q714.3,704.79,714.3,672.69Zm-57.95,58.8c-.53,0-.79-.14-.83-.86V699.24c0-8.68-.34-17.28-.34-26,.17,0,.06-.1.23-.1h2.47a3.47,3.47,0,0,0,3.49-3.28v-2.74c0-.06-.11-.11-.11-.17h36.87c.72,0,1,.41,1,1.24v.32q0,30.74,0,61.46c0,1.34-.21,1.55-1.36,1.56ZM711.72,674q0,30.74,0,61.47c0,1.33-.21,1.55-1.36,1.55h-41.6a2.1,2.1,0,0,1-.56-.07c-.62-.16-1.15-.35-1.18-1.08,0-.17,0-.4,0-.57s.07-.51.07-.78h31.51c1.49,0,3-.77,2.95-2.61,0-19.68.2-40.32.2-59.05,2.88,0,5.48,0,8.36,0l.57,0c.72,0,1,.16,1.06,1Z"></path><path class="cls-5" d="M695.46,680.21h-28.9c-.41,0-.75.64-.75,1.17s.34,1.17.75,1.17h28.9c.41,0,.75-.64.75-1.17S695.87,680.21,695.46,680.21Z"></path><path class="cls-5" d="M695.25,686.06h-36.7c-.53,0-1,.64-1,1.17s.43,1.17,1,1.17h36.7c.53,0,1-.64,1-1.17S695.78,686.06,695.25,686.06Z"></path><path class="cls-5" d="M695.25,691.91h-36.7c-.53,0-1,.65-1,1.18s.43,1.17,1,1.17h36.7c.53,0,1-.65,1-1.17S695.78,691.91,695.25,691.91Z"></path><path class="cls-5" d="M695.25,697.77h-36.7c-.53,0-1,.64-1,1.17s.43,1.17,1,1.17h36.7c.53,0,1-.64,1-1.17S695.78,697.77,695.25,697.77Z"></path><path class="cls-5" d="M687.15,709.47H658.34c-.41,0-.75.65-.75,1.17s.34,1.18.75,1.18h28.81c.42,0,.75-.65.75-1.18S687.57,709.47,687.15,709.47Z"></path><path class="cls-5" d="M695.25,703.62h-36.7c-.53,0-1,.64-1,1.17s.43,1.17,1,1.17h36.7c.53,0,1-.64,1-1.17S695.78,703.62,695.25,703.62Z"></path><text class="cls-32" transform="translate(658.55 401.62)">// <tspan class="cls-33" x="19.07" y="0">K</tspan><tspan class="cls-34" x="29.55" y="0">n</tspan><tspan class="cls-35" x="39.47" y="0">o</tspan><tspan x="48.84" y="0">wled</tspan><tspan class="cls-34" x="86.3" y="0">g</tspan><tspan class="cls-36" x="95.8" y="0">e G</tspan><tspan class="cls-37" x="120.4" y="0">r</tspan><tspan class="cls-36" x="126.14" y="0">aph</tspan><tspan x="0" y="20.96">// Neu</tspan><tspan class="cls-37" x="50.2" y="20.96">r</tspan><tspan class="cls-36" x="55.94" y="20.96">al Ne</tspan><tspan class="cls-38" x="95.44" y="20.96">t</tspan><tspan class="cls-39" x="101.36" y="20.96">w</tspan><tspan class="cls-40" x="113.6" y="20.96">ork</tspan><tspan x="0" y="41.92">// Machi</tspan><tspan class="cls-34" x="65.2" y="41.92">n</tspan><tspan x="75.12" y="41.92">e </tspan><tspan class="cls-33" x="88.52" y="41.92">L</tspan><tspan x="97.25" y="41.92">earning</tspan></text><rect class="cls-2" x="786.71" y="286.33" width="11.86" height="70.58"></rect><rect class="cls-2" x="857.29" y="286.33" width="11.86" height="70.58"></rect><polygon class="cls-2" points="827.08 356.9 815.22 356.9 815.22 309.48 827.08 318.92 827.08 356.9"></polygon><polygon class="cls-2" points="798.85 286.33 786.73 286.45 857.29 356.9 863.22 349.85 798.85 286.33"></polygon><polygon class="cls-2" points="827.23 286.33 815.22 286.33 868.01 339.69 868.01 326.7 827.23 286.33"></polygon><path class="cls-2" d="M716.59,356.81H702.21l-28.06-28.05L663.81,339.1v17.71H653.65v-22l10.16-10.16v.05l8.36-8.35,30-30h14.37l-35.23,35.24Zm-62.94-33.17V286.33h10.16v27.14Z"></path><path class="cls-2" d="M776.36,356.91H745.84a36.52,36.52,0,0,1-25.43-10.2h0a34.68,34.68,0,0,1,0-50.16h0a36.52,36.52,0,0,1,25.43-10.2h30.38v10.2h-34c-12.75,1.69-22.61,12.3-22.61,25.08s9.86,23.39,22.61,25.08h23.91V324.24H746L741.31,314h35.05Z"></path></svg>