<?xml version="1.0" encoding="UTF-8"?> <svg xmlns="http://www.w3.org/2000/svg" id="Layer_1" data-name="Layer 1" viewBox="0 0 960 380"><defs><style> .cls-1 { fill: #5a758c; stroke-width: 0px; } </style></defs><polygon class="cls-1" points="886.53 40.4 886.53 166.53 759.08 40.4 708.21 40.4 886.53 220.63 886.53 284.87 638.8 40.4 637.6 40.42 637.6 40.4 587.34 40.4 587.34 339.59 637.6 339.59 637.6 91.06 708.21 161.56 708.21 339.59 758.47 339.59 758.47 211.74 886.53 339.59 936.79 339.59 936.79 40.4 886.53 40.4"></polygon><polygon class="cls-1" points="66.29 40.4 23.21 40.4 23.21 198.52 66.29 155.47 66.29 40.4"></polygon><polygon class="cls-1" points="290.05 40.4 229.1 40.4 101.78 167.76 66.34 203.19 66.34 202.95 23.26 246.03 23.26 339.16 66.34 339.16 66.34 264.07 110.18 220.23 229.11 339.16 290.09 339.16 140.67 189.8 290.05 40.4"></polygon><path class="cls-1" d="M414.81,201.12h85.41v95.25h-101.37c-54.07-7.18-95.87-52.13-95.87-106.32s41.8-99.13,95.87-106.31h144.02v-43.23h-128.83c-40.19-.15-78.87,15.35-107.83,43.23-1.66,1.58-3.28,3.21-4.87,4.87-56.03,58.72-53.85,151.73,4.87,207.76,28.96,27.87,67.63,43.37,107.83,43.23h129.41v-181.7h-148.59l19.95,43.23Z"></path></svg> 