<?xml version="1.0" encoding="UTF-8"?>
<svg xmlns="http://www.w3.org/2000/svg" id="Layer_1" data-name="Layer 1" viewBox="0 0 960 380">
  <defs>
    <style>.cls-1{fill:#fff;}</style>
  </defs>
  <rect class="cls-1" x="582.9" y="60.36" width="42" height="250"></rect>
  <rect class="cls-1" x="832.9" y="60.36" width="42" height="250"></rect>
  <polygon class="cls-1" points="725.9 310.36 683.9 310.36 683.9 142.36 725.9 175.81 725.9 310.36"></polygon>
  <polygon class="cls-1" points="625.9 60.36 582.95 60.8 832.9 310.36 853.9 285.36 625.9 60.36"></polygon>
  <polygon class="cls-1" points="726.41 60.36 683.9 60.36 870.9 249.36 870.9 203.36 726.41 60.36"></polygon>
  <path class="cls-1" d="M334.52,310H283.57l-99.38-99.38-36.63,36.63V310h-36V232.18l36-36v.2l29.61-29.6L283.56,60.36h50.93L209.67,185.19Zm-223-117.52V60.36h36v96.15Z"></path>
  <path class="cls-1" d="M546.23,310.36H438.1A129.27,129.27,0,0,1,348,274.24h0a122.79,122.79,0,0,1,0-177.67h0A129.22,129.22,0,0,1,438.1,60.45H545.75V96.57H425.41c-45.18,6-80.11,43.55-80.11,88.83s34.93,82.84,80.11,88.84h84.7V194.65H438.74l-16.67-36.12H546.23Z"></path>
</svg>
