<svg xmlns="http://www.w3.org/2000/svg" xmlns:xlink="http://www.w3.org/1999/xlink" viewBox="0 0 1248.12 702.07"><defs><clipPath id="clippath-1"><path d="M479.32,40.29v-7.28c0-1.1,.9-2,2-2h7.28c1.1,0,2,.9,2,2v7.28c0,1.1-.9,2-2,2h-7.28c-1.1,0-2-.9-2-2Zm-12.1,44.29h7.28c1.1,0,2-.9,2-2v-7.28c0-1.1-.9-2-2-2h-7.28c-1.1,0-2,.9-2,2v7.28c0,1.1,.9,2,2,2Zm0-70.49h7.28c1.1,0,2-.9,2-2V4.82c0-1.1-.9-2-2-2h-7.28c-1.1,0-2,.9-2,2v7.28c0,1.1,.9,2,2,2Zm-14.1,56.39h7.28c1.1,0,2-.9,2-2v-7.28c0-1.1-.9-2-2-2h-7.28c-1.1,0-2,.9-2,2v7.28c0,1.1,.9,2,2,2Zm-14.1,28.2h7.28c1.1,0,2-.9,2-2v-7.28c0-1.1-.9-2-2-2h-7.28c-1.1,0-2,.9-2,2v7.28c0,1.1,.9,2,2,2Zm-14.1-70.49h7.28c1.1,0,2-.9,2-2v-7.28c0-1.1-.9-2-2-2h-7.28c-1.1,0-2,.9-2,2v7.28c0,1.1,.9,2,2,2Zm-14.1,28.2h7.28c1.1,0,2-.9,2-2v-7.28c0-1.1-.9-2-2-2h-7.28c-1.1,0-2,.9-2,2v7.28c0,1.1,.9,2,2,2Zm-14.1-42.29h7.28c1.1,0,2-.9,2-2V4.82c0-1.1-.9-2-2-2h-7.28c-1.1,0-2,.9-2,2v7.28c0,1.1,.9,2,2,2Zm0,56.39h7.28c1.1,0,2-.9,2-2v-7.28c0-1.1-.9-2-2-2h-7.28c-1.1,0-2,.9-2,2v7.28c0,1.1,.9,2,2,2Zm28.2,28.2h7.28c1.1,0,2-.9,2-2v-7.28c0-1.1-.9-2-2-2h-7.28c-1.1,0-2,.9-2,2v7.28c0,1.1,.9,2,2,2Zm-28.2,70.49h7.28c1.1,0,2-.9,2-2v-7.28c0-1.1-.9-2-2-2h-7.28c-1.1,0-2,.9-2,2v7.28c0,1.1,.9,2,2,2Zm-14.1-126.88h7.28c1.1,0,2-.9,2-2v-7.28c0-1.1-.9-2-2-2h-7.28c-1.1,0-2,.9-2,2v7.28c0,1.1,.9,2,2,2Zm0,28.2h7.28c1.1,0,2-.9,2-2v-7.28c0-1.1-.9-2-2-2h-7.28c-1.1,0-2,.9-2,2v7.28c0,1.1,.9,2,2,2Zm0,70.49h7.28c1.1,0,2-.9,2-2v-7.28c0-1.1-.9-2-2-2h-7.28c-1.1,0-2,.9-2,2v7.28c0,1.1,.9,2,2,2Zm-14.1-56.39h7.28c1.1,0,2-.9,2-2v-7.28c0-1.1-.9-2-2-2h-7.28c-1.1,0-2,.9-2,2v7.28c0,1.1,.9,2,2,2Zm0,42.29h7.28c1.1,0,2-.9,2-2v-7.28c0-1.1-.9-2-2-2h-7.28c-1.1,0-2,.9-2,2v7.28c0,1.1,.9,2,2,2Zm0,42.29h7.28c1.1,0,2-.9,2-2v-7.28c0-1.1-.9-2-2-2h-7.28c-1.1,0-2,.9-2,2v7.28c0,1.1,.9,2,2,2Zm-14.1-155.07h7.28c1.1,0,2-.9,2-2V4.82c0-1.1-.9-2-2-2h-7.28c-1.1,0-2,.9-2,2v7.28c0,1.1,.9,2,2,2Zm0,14.1h7.28c1.1,0,2-.9,2-2v-7.28c0-1.1-.9-2-2-2h-7.28c-1.1,0-2,.9-2,2v7.28c0,1.1,.9,2,2,2Zm0,84.59h7.28c1.1,0,2-.9,2-2v-7.28c0-1.1-.9-2-2-2h-7.28c-1.1,0-2,.9-2,2v7.28c0,1.1,.9,2,2,2Zm-14.1-42.29h7.28c1.1,0,2-.9,2-2v-7.28c0-1.1-.9-2-2-2h-7.28c-1.1,0-2,.9-2,2v7.28c0,1.1,.9,2,2,2Zm0,84.59h7.28c1.1,0,2-.9,2-2v-7.28c0-1.1-.9-2-2-2h-7.28c-1.1,0-2,.9-2,2v7.28c0,1.1,.9,2,2,2Zm-14.1-140.98h7.28c1.1,0,2-.9,2-2V4.82c0-1.1-.9-2-2-2h-7.28c-1.1,0-2,.9-2,2v7.28c0,1.1,.9,2,2,2Zm0,42.29h7.28c1.1,0,2-.9,2-2v-7.28c0-1.1-.9-2-2-2h-7.28c-1.1,0-2,.9-2,2v7.28c0,1.1,.9,2,2,2Zm0,42.29h7.28c1.1,0,2-.9,2-2v-7.28c0-1.1-.9-2-2-2h-7.28c-1.1,0-2,.9-2,2v7.28c0,1.1,.9,2,2,2Zm0,28.2h7.28c1.1,0,2-.9,2-2v-7.28c0-1.1-.9-2-2-2h-7.28c-1.1,0-2,.9-2,2v7.28c0,1.1,.9,2,2,2Zm0,42.29h7.28c1.1,0,2-.9,2-2v-7.28c0-1.1-.9-2-2-2h-7.28c-1.1,0-2,.9-2,2v7.28c0,1.1,.9,2,2,2Zm-14.1-140.98h7.28c1.1,0,2-.9,2-2v-7.28c0-1.1-.9-2-2-2h-7.28c-1.1,0-2,.9-2,2v7.28c0,1.1,.9,2,2,2Zm0,14.1h7.28c1.1,0,2-.9,2-2v-7.28c0-1.1-.9-2-2-2h-7.28c-1.1,0-2,.9-2,2v7.28c0,1.1,.9,2,2,2Zm0,28.2h7.28c1.1,0,2-.9,2-2v-7.28c0-1.1-.9-2-2-2h-7.28c-1.1,0-2,.9-2,2v7.28c0,1.1,.9,2,2,2Zm0,42.29h7.28c1.1,0,2-.9,2-2v-7.28c0-1.1-.9-2-2-2h-7.28c-1.1,0-2,.9-2,2v7.28c0,1.1,.9,2,2,2Zm0,42.29h7.28c1.1,0,2-.9,2-2v-7.28c0-1.1-.9-2-2-2h-7.28c-1.1,0-2,.9-2,2v7.28c0,1.1,.9,2,2,2Zm0,28.2h7.28c1.1,0,2-.9,2-2v-7.28c0-1.1-.9-2-2-2h-7.28c-1.1,0-2,.9-2,2v7.28c0,1.1,.9,2,2,2Zm-14.1-126.88h7.28c1.1,0,2-.9,2-2v-7.28c0-1.1-.9-2-2-2h-7.28c-1.1,0-2,.9-2,2v7.28c0,1.1,.9,2,2,2Zm0,42.29h7.28c1.1,0,2-.9,2-2v-7.28c0-1.1-.9-2-2-2h-7.28c-1.1,0-2,.9-2,2v7.28c0,1.1,.9,2,2,2Zm0,14.1h7.28c1.1,0,2-.9,2-2v-7.28c0-1.1-.9-2-2-2h-7.28c-1.1,0-2,.9-2,2v7.28c0,1.1,.9,2,2,2Zm0,28.2h7.28c1.1,0,2-.9,2-2v-7.28c0-1.1-.9-2-2-2h-7.28c-1.1,0-2,.9-2,2v7.28c0,1.1,.9,2,2,2Zm0,42.29h7.28c1.1,0,2-.9,2-2v-7.28c0-1.1-.9-2-2-2h-7.28c-1.1,0-2,.9-2,2v7.28c0,1.1,.9,2,2,2Zm0,14.1h7.28c1.1,0,2-.9,2-2v-7.28c0-1.1-.9-2-2-2h-7.28c-1.1,0-2,.9-2,2v7.28c0,1.1,.9,2,2,2Zm-14.1-183.27h7.28c1.1,0,2-.9,2-2V4.82c0-1.1-.9-2-2-2h-7.28c-1.1,0-2,.9-2,2v7.28c0,1.1,.9,2,2,2Zm0,14.1h7.28c1.1,0,2-.9,2-2v-7.28c0-1.1-.9-2-2-2h-7.28c-1.1,0-2,.9-2,2v7.28c0,1.1,.9,2,2,2Zm0,14.1h7.28c1.1,0,2-.9,2-2v-7.28c0-1.1-.9-2-2-2h-7.28c-1.1,0-2,.9-2,2v7.28c0,1.1,.9,2,2,2Zm0,14.1h7.28c1.1,0,2-.9,2-2v-7.28c0-1.1-.9-2-2-2h-7.28c-1.1,0-2,.9-2,2v7.28c0,1.1,.9,2,2,2Zm0,28.2h7.28c1.1,0,2-.9,2-2v-7.28c0-1.1-.9-2-2-2h-7.28c-1.1,0-2,.9-2,2v7.28c0,1.1,.9,2,2,2Zm0,28.2h7.28c1.1,0,2-.9,2-2v-7.28c0-1.1-.9-2-2-2h-7.28c-1.1,0-2,.9-2,2v7.28c0,1.1,.9,2,2,2Zm0,14.1h7.28c1.1,0,2-.9,2-2v-7.28c0-1.1-.9-2-2-2h-7.28c-1.1,0-2,.9-2,2v7.28c0,1.1,.9,2,2,2Zm-14.1-112.78h7.28c1.1,0,2-.9,2-2V4.82c0-1.1-.9-2-2-2h-7.28c-1.1,0-2,.9-2,2v7.28c0,1.1,.9,2,2,2Zm0,70.49h7.28c1.1,0,2-.9,2-2v-7.28c0-1.1-.9-2-2-2h-7.28c-1.1,0-2,.9-2,2v7.28c0,1.1,.9,2,2,2Zm0,14.1h7.28c1.1,0,2-.9,2-2v-7.28c0-1.1-.9-2-2-2h-7.28c-1.1,0-2,.9-2,2v7.28c0,1.1,.9,2,2,2Zm0,14.1h7.28c1.1,0,2-.9,2-2v-7.28c0-1.1-.9-2-2-2h-7.28c-1.1,0-2,.9-2,2v7.28c0,1.1,.9,2,2,2Zm0,28.2h7.28c1.1,0,2-.9,2-2v-7.28c0-1.1-.9-2-2-2h-7.28c-1.1,0-2,.9-2,2v7.28c0,1.1,.9,2,2,2Zm0,28.2h7.28c1.1,0,2-.9,2-2v-7.28c0-1.1-.9-2-2-2h-7.28c-1.1,0-2,.9-2,2v7.28c0,1.1,.9,2,2,2Zm0,28.2h7.28c1.1,0,2-.9,2-2v-7.28c0-1.1-.9-2-2-2h-7.28c-1.1,0-2,.9-2,2v7.28c0,1.1,.9,2,2,2Zm-14.1-140.98h7.28c1.1,0,2-.9,2-2v-7.28c0-1.1-.9-2-2-2h-7.28c-1.1,0-2,.9-2,2v7.28c0,1.1,.9,2,2,2Zm0,14.1h7.28c1.1,0,2-.9,2-2v-7.28c0-1.1-.9-2-2-2h-7.28c-1.1,0-2,.9-2,2v7.28c0,1.1,.9,2,2,2Zm0,42.29h7.28c1.1,0,2-.9,2-2v-7.28c0-1.1-.9-2-2-2h-7.28c-1.1,0-2,.9-2,2v7.28c0,1.1,.9,2,2,2Zm0,14.1h7.28c1.1,0,2-.9,2-2v-7.28c0-1.1-.9-2-2-2h-7.28c-1.1,0-2,.9-2,2v7.28c0,1.1,.9,2,2,2Zm0,28.2h7.28c1.1,0,2-.9,2-2v-7.28c0-1.1-.9-2-2-2h-7.28c-1.1,0-2,.9-2,2v7.28c0,1.1,.9,2,2,2Zm0,28.2h7.28c1.1,0,2-.9,2-2v-7.28c0-1.1-.9-2-2-2h-7.28c-1.1,0-2,.9-2,2v7.28c0,1.1,.9,2,2,2Zm0,14.1h7.28c1.1,0,2-.9,2-2v-7.28c0-1.1-.9-2-2-2h-7.28c-1.1,0-2,.9-2,2v7.28c0,1.1,.9,2,2,2ZM241.66,14.1h7.28c1.1,0,2-.9,2-2V4.82c0-1.1-.9-2-2-2h-7.28c-1.1,0-2,.9-2,2v7.28c0,1.1,.9,2,2,2Zm0,70.49h7.28c1.1,0,2-.9,2-2v-7.28c0-1.1-.9-2-2-2h-7.28c-1.1,0-2,.9-2,2v7.28c0,1.1,.9,2,2,2Zm0,28.2h7.28c1.1,0,2-.9,2-2v-7.28c0-1.1-.9-2-2-2h-7.28c-1.1,0-2,.9-2,2v7.28c0,1.1,.9,2,2,2Zm0,14.1h7.28c1.1,0,2-.9,2-2v-7.28c0-1.1-.9-2-2-2h-7.28c-1.1,0-2,.9-2,2v7.28c0,1.1,.9,2,2,2Zm0,28.2h7.28c1.1,0,2-.9,2-2v-7.28c0-1.1-.9-2-2-2h-7.28c-1.1,0-2,.9-2,2v7.28c0,1.1,.9,2,2,2Zm0,14.1h7.28c1.1,0,2-.9,2-2v-7.28c0-1.1-.9-2-2-2h-7.28c-1.1,0-2,.9-2,2v7.28c0,1.1,.9,2,2,2Zm0,28.2h7.28c1.1,0,2-.9,2-2v-7.28c0-1.1-.9-2-2-2h-7.28c-1.1,0-2,.9-2,2v7.28c0,1.1,.9,2,2,2ZM227.56,14.1h7.28c1.1,0,2-.9,2-2V4.82c0-1.1-.9-2-2-2h-7.28c-1.1,0-2,.9-2,2v7.28c0,1.1,.9,2,2,2Zm0,28.2h7.28c1.1,0,2-.9,2-2v-7.28c0-1.1-.9-2-2-2h-7.28c-1.1,0-2,.9-2,2v7.28c0,1.1,.9,2,2,2Zm0,14.1h7.28c1.1,0,2-.9,2-2v-7.28c0-1.1-.9-2-2-2h-7.28c-1.1,0-2,.9-2,2v7.28c0,1.1,.9,2,2,2Zm0,28.2h7.28c1.1,0,2-.9,2-2v-7.28c0-1.1-.9-2-2-2h-7.28c-1.1,0-2,.9-2,2v7.28c0,1.1,.9,2,2,2Zm0,14.1h7.28c1.1,0,2-.9,2-2v-7.28c0-1.1-.9-2-2-2h-7.28c-1.1,0-2,.9-2,2v7.28c0,1.1,.9,2,2,2Zm0,14.1h7.28c1.1,0,2-.9,2-2v-7.28c0-1.1-.9-2-2-2h-7.28c-1.1,0-2,.9-2,2v7.28c0,1.1,.9,2,2,2Zm0,56.39h7.28c1.1,0,2-.9,2-2v-7.28c0-1.1-.9-2-2-2h-7.28c-1.1,0-2,.9-2,2v7.28c0,1.1,.9,2,2,2Zm0,14.1h7.28c1.1,0,2-.9,2-2v-7.28c0-1.1-.9-2-2-2h-7.28c-1.1,0-2,.9-2,2v7.28c0,1.1,.9,2,2,2Zm-14.1-155.07h7.28c1.1,0,2-.9,2-2v-7.28c0-1.1-.9-2-2-2h-7.28c-1.1,0-2,.9-2,2v7.28c0,1.1,.9,2,2,2Zm0,42.29h7.28c1.1,0,2-.9,2-2v-7.28c0-1.1-.9-2-2-2h-7.28c-1.1,0-2,.9-2,2v7.28c0,1.1,.9,2,2,2Zm0,28.2h7.28c1.1,0,2-.9,2-2v-7.28c0-1.1-.9-2-2-2h-7.28c-1.1,0-2,.9-2,2v7.28c0,1.1,.9,2,2,2Zm0,28.2h7.28c1.1,0,2-.9,2-2v-7.28c0-1.1-.9-2-2-2h-7.28c-1.1,0-2,.9-2,2v7.28c0,1.1,.9,2,2,2Zm0,14.1h7.28c1.1,0,2-.9,2-2v-7.28c0-1.1-.9-2-2-2h-7.28c-1.1,0-2,.9-2,2v7.28c0,1.1,.9,2,2,2Zm-14.1-112.78h7.28c1.1,0,2-.9,2-2v-7.28c0-1.1-.9-2-2-2h-7.28c-1.1,0-2,.9-2,2v7.28c0,1.1,.9,2,2,2Zm0,14.1h7.28c1.1,0,2-.9,2-2v-7.28c0-1.1-.9-2-2-2h-7.28c-1.1,0-2,.9-2,2v7.28c0,1.1,.9,2,2,2Zm0,28.2h7.28c1.1,0,2-.9,2-2v-7.28c0-1.1-.9-2-2-2h-7.28c-1.1,0-2,.9-2,2v7.28c0,1.1,.9,2,2,2Zm0,14.1h7.28c1.1,0,2-.9,2-2v-7.28c0-1.1-.9-2-2-2h-7.28c-1.1,0-2,.9-2,2v7.28c0,1.1,.9,2,2,2Zm0,28.2h7.28c1.1,0,2-.9,2-2v-7.28c0-1.1-.9-2-2-2h-7.28c-1.1,0-2,.9-2,2v7.28c0,1.1,.9,2,2,2Zm0,14.1h7.28c1.1,0,2-.9,2-2v-7.28c0-1.1-.9-2-2-2h-7.28c-1.1,0-2,.9-2,2v7.28c0,1.1,.9,2,2,2Zm0,14.1h7.28c1.1,0,2-.9,2-2v-7.28c0-1.1-.9-2-2-2h-7.28c-1.1,0-2,.9-2,2v7.28c0,1.1,.9,2,2,2Zm0,14.1h7.28c1.1,0,2-.9,2-2v-7.28c0-1.1-.9-2-2-2h-7.28c-1.1,0-2,.9-2,2v7.28c0,1.1,.9,2,2,2Zm0,28.2h7.28c1.1,0,2-.9,2-2v-7.28c0-1.1-.9-2-2-2h-7.28c-1.1,0-2,.9-2,2v7.28c0,1.1,.9,2,2,2Zm0,14.1h7.28c1.1,0,2-.9,2-2v-7.28c0-1.1-.9-2-2-2h-7.28c-1.1,0-2,.9-2,2v7.28c0,1.1,.9,2,2,2ZM185.27,14.1h7.28c1.1,0,2-.9,2-2V4.82c0-1.1-.9-2-2-2h-7.28c-1.1,0-2,.9-2,2v7.28c0,1.1,.9,2,2,2Zm0,70.49h7.28c1.1,0,2-.9,2-2v-7.28c0-1.1-.9-2-2-2h-7.28c-1.1,0-2,.9-2,2v7.28c0,1.1,.9,2,2,2Zm0,14.1h7.28c1.1,0,2-.9,2-2v-7.28c0-1.1-.9-2-2-2h-7.28c-1.1,0-2,.9-2,2v7.28c0,1.1,.9,2,2,2Zm0,28.2h7.28c1.1,0,2-.9,2-2v-7.28c0-1.1-.9-2-2-2h-7.28c-1.1,0-2,.9-2,2v7.28c0,1.1,.9,2,2,2Zm0,14.1h7.28c1.1,0,2-.9,2-2v-7.28c0-1.1-.9-2-2-2h-7.28c-1.1,0-2,.9-2,2v7.28c0,1.1,.9,2,2,2Zm0,14.1h7.28c1.1,0,2-.9,2-2v-7.28c0-1.1-.9-2-2-2h-7.28c-1.1,0-2,.9-2,2v7.28c0,1.1,.9,2,2,2Zm0,28.2h7.28c1.1,0,2-.9,2-2v-7.28c0-1.1-.9-2-2-2h-7.28c-1.1,0-2,.9-2,2v7.28c0,1.1,.9,2,2,2Zm0,14.1h7.28c1.1,0,2-.9,2-2v-7.28c0-1.1-.9-2-2-2h-7.28c-1.1,0-2,.9-2,2v7.28c0,1.1,.9,2,2,2Zm-14.1-155.07h7.28c1.1,0,2-.9,2-2v-7.28c0-1.1-.9-2-2-2h-7.28c-1.1,0-2,.9-2,2v7.28c0,1.1,.9,2,2,2Zm0,14.1h7.28c1.1,0,2-.9,2-2v-7.28c0-1.1-.9-2-2-2h-7.28c-1.1,0-2,.9-2,2v7.28c0,1.1,.9,2,2,2Zm0,28.2h7.28c1.1,0,2-.9,2-2v-7.28c0-1.1-.9-2-2-2h-7.28c-1.1,0-2,.9-2,2v7.28c0,1.1,.9,2,2,2Zm0,14.1h7.28c1.1,0,2-.9,2-2v-7.28c0-1.1-.9-2-2-2h-7.28c-1.1,0-2,.9-2,2v7.28c0,1.1,.9,2,2,2Zm0,14.1h7.28c1.1,0,2-.9,2-2v-7.28c0-1.1-.9-2-2-2h-7.28c-1.1,0-2,.9-2,2v7.28c0,1.1,.9,2,2,2Zm0,42.29h7.28c1.1,0,2-.9,2-2v-7.28c0-1.1-.9-2-2-2h-7.28c-1.1,0-2,.9-2,2v7.28c0,1.1,.9,2,2,2Zm0,14.1h7.28c1.1,0,2-.9,2-2v-7.28c0-1.1-.9-2-2-2h-7.28c-1.1,0-2,.9-2,2v7.28c0,1.1,.9,2,2,2Zm0,14.1h7.28c1.1,0,2-.9,2-2v-7.28c0-1.1-.9-2-2-2h-7.28c-1.1,0-2,.9-2,2v7.28c0,1.1,.9,2,2,2Zm0,14.1h7.28c1.1,0,2-.9,2-2v-7.28c0-1.1-.9-2-2-2h-7.28c-1.1,0-2,.9-2,2v7.28c0,1.1,.9,2,2,2ZM157.07,14.1h7.28c1.1,0,2-.9,2-2V4.82c0-1.1-.9-2-2-2h-7.28c-1.1,0-2,.9-2,2v7.28c0,1.1,.9,2,2,2Zm0,14.1h7.28c1.1,0,2-.9,2-2v-7.28c0-1.1-.9-2-2-2h-7.28c-1.1,0-2,.9-2,2v7.28c0,1.1,.9,2,2,2Zm0,28.2h7.28c1.1,0,2-.9,2-2v-7.28c0-1.1-.9-2-2-2h-7.28c-1.1,0-2,.9-2,2v7.28c0,1.1,.9,2,2,2Zm0,14.1h7.28c1.1,0,2-.9,2-2v-7.28c0-1.1-.9-2-2-2h-7.28c-1.1,0-2,.9-2,2v7.28c0,1.1,.9,2,2,2Zm0,14.1h7.28c1.1,0,2-.9,2-2v-7.28c0-1.1-.9-2-2-2h-7.28c-1.1,0-2,.9-2,2v7.28c0,1.1,.9,2,2,2Zm0,14.1h7.28c1.1,0,2-.9,2-2v-7.28c0-1.1-.9-2-2-2h-7.28c-1.1,0-2,.9-2,2v7.28c0,1.1,.9,2,2,2Zm0,28.2h7.28c1.1,0,2-.9,2-2v-7.28c0-1.1-.9-2-2-2h-7.28c-1.1,0-2,.9-2,2v7.28c0,1.1,.9,2,2,2Zm0,14.1h7.28c1.1,0,2-.9,2-2v-7.28c0-1.1-.9-2-2-2h-7.28c-1.1,0-2,.9-2,2v7.28c0,1.1,.9,2,2,2Zm0,28.2h7.28c1.1,0,2-.9,2-2v-7.28c0-1.1-.9-2-2-2h-7.28c-1.1,0-2,.9-2,2v7.28c0,1.1,.9,2,2,2Zm0,28.2h7.28c1.1,0,2-.9,2-2v-7.28c0-1.1-.9-2-2-2h-7.28c-1.1,0-2,.9-2,2v7.28c0,1.1,.9,2,2,2Zm-14.1-155.07h7.28c1.1,0,2-.9,2-2v-7.28c0-1.1-.9-2-2-2h-7.28c-1.1,0-2,.9-2,2v7.28c0,1.1,.9,2,2,2Zm0,14.1h7.28c1.1,0,2-.9,2-2v-7.28c0-1.1-.9-2-2-2h-7.28c-1.1,0-2,.9-2,2v7.28c0,1.1,.9,2,2,2Zm0,42.29h7.28c1.1,0,2-.9,2-2v-7.28c0-1.1-.9-2-2-2h-7.28c-1.1,0-2,.9-2,2v7.28c0,1.1,.9,2,2,2Zm0,14.1h7.28c1.1,0,2-.9,2-2v-7.28c0-1.1-.9-2-2-2h-7.28c-1.1,0-2,.9-2,2v7.28c0,1.1,.9,2,2,2Zm0,14.1h7.28c1.1,0,2-.9,2-2v-7.28c0-1.1-.9-2-2-2h-7.28c-1.1,0-2,.9-2,2v7.28c0,1.1,.9,2,2,2Zm0,14.1h7.28c1.1,0,2-.9,2-2v-7.28c0-1.1-.9-2-2-2h-7.28c-1.1,0-2,.9-2,2v7.28c0,1.1,.9,2,2,2Zm0,28.2h7.28c1.1,0,2-.9,2-2v-7.28c0-1.1-.9-2-2-2h-7.28c-1.1,0-2,.9-2,2v7.28c0,1.1,.9,2,2,2Zm0,14.1h7.28c1.1,0,2-.9,2-2v-7.28c0-1.1-.9-2-2-2h-7.28c-1.1,0-2,.9-2,2v7.28c0,1.1,.9,2,2,2Zm-14.1-155.07h7.28c1.1,0,2-.9,2-2v-7.28c0-1.1-.9-2-2-2h-7.28c-1.1,0-2,.9-2,2v7.28c0,1.1,.9,2,2,2Zm0,14.1h7.28c1.1,0,2-.9,2-2v-7.28c0-1.1-.9-2-2-2h-7.28c-1.1,0-2,.9-2,2v7.28c0,1.1,.9,2,2,2Zm0,14.1h7.28c1.1,0,2-.9,2-2v-7.28c0-1.1-.9-2-2-2h-7.28c-1.1,0-2,.9-2,2v7.28c0,1.1,.9,2,2,2Zm0,14.1h7.28c1.1,0,2-.9,2-2v-7.28c0-1.1-.9-2-2-2h-7.28c-1.1,0-2,.9-2,2v7.28c0,1.1,.9,2,2,2Zm0,14.1h7.28c1.1,0,2-.9,2-2v-7.28c0-1.1-.9-2-2-2h-7.28c-1.1,0-2,.9-2,2v7.28c0,1.1,.9,2,2,2Zm0,14.1h7.28c1.1,0,2-.9,2-2v-7.28c0-1.1-.9-2-2-2h-7.28c-1.1,0-2,.9-2,2v7.28c0,1.1,.9,2,2,2Zm0,14.1h7.28c1.1,0,2-.9,2-2v-7.28c0-1.1-.9-2-2-2h-7.28c-1.1,0-2,.9-2,2v7.28c0,1.1,.9,2,2,2Zm0,28.2h7.28c1.1,0,2-.9,2-2v-7.28c0-1.1-.9-2-2-2h-7.28c-1.1,0-2,.9-2,2v7.28c0,1.1,.9,2,2,2Zm0,14.1h7.28c1.1,0,2-.9,2-2v-7.28c0-1.1-.9-2-2-2h-7.28c-1.1,0-2,.9-2,2v7.28c0,1.1,.9,2,2,2Zm0,14.1h7.28c1.1,0,2-.9,2-2v-7.28c0-1.1-.9-2-2-2h-7.28c-1.1,0-2,.9-2,2v7.28c0,1.1,.9,2,2,2ZM114.78,14.1h7.28c1.1,0,2-.9,2-2V4.82c0-1.1-.9-2-2-2h-7.28c-1.1,0-2,.9-2,2v7.28c0,1.1,.9,2,2,2Zm0,14.1h7.28c1.1,0,2-.9,2-2v-7.28c0-1.1-.9-2-2-2h-7.28c-1.1,0-2,.9-2,2v7.28c0,1.1,.9,2,2,2Zm0,28.2h7.28c1.1,0,2-.9,2-2v-7.28c0-1.1-.9-2-2-2h-7.28c-1.1,0-2,.9-2,2v7.28c0,1.1,.9,2,2,2Zm0,28.2h7.28c1.1,0,2-.9,2-2v-7.28c0-1.1-.9-2-2-2h-7.28c-1.1,0-2,.9-2,2v7.28c0,1.1,.9,2,2,2Zm0,14.1h7.28c1.1,0,2-.9,2-2v-7.28c0-1.1-.9-2-2-2h-7.28c-1.1,0-2,.9-2,2v7.28c0,1.1,.9,2,2,2Zm0,14.1h7.28c1.1,0,2-.9,2-2v-7.28c0-1.1-.9-2-2-2h-7.28c-1.1,0-2,.9-2,2v7.28c0,1.1,.9,2,2,2Zm0,14.1h7.28c1.1,0,2-.9,2-2v-7.28c0-1.1-.9-2-2-2h-7.28c-1.1,0-2,.9-2,2v7.28c0,1.1,.9,2,2,2Zm0,14.1h7.28c1.1,0,2-.9,2-2v-7.28c0-1.1-.9-2-2-2h-7.28c-1.1,0-2,.9-2,2v7.28c0,1.1,.9,2,2,2Zm0,42.29h7.28c1.1,0,2-.9,2-2v-7.28c0-1.1-.9-2-2-2h-7.28c-1.1,0-2,.9-2,2v7.28c0,1.1,.9,2,2,2Zm0,14.1h7.28c1.1,0,2-.9,2-2v-7.28c0-1.1-.9-2-2-2h-7.28c-1.1,0-2,.9-2,2v7.28c0,1.1,.9,2,2,2ZM100.68,28.2h7.28c1.1,0,2-.9,2-2v-7.28c0-1.1-.9-2-2-2h-7.28c-1.1,0-2,.9-2,2v7.28c0,1.1,.9,2,2,2Zm0,14.1h7.28c1.1,0,2-.9,2-2v-7.28c0-1.1-.9-2-2-2h-7.28c-1.1,0-2,.9-2,2v7.28c0,1.1,.9,2,2,2Zm0,14.1h7.28c1.1,0,2-.9,2-2v-7.28c0-1.1-.9-2-2-2h-7.28c-1.1,0-2,.9-2,2v7.28c0,1.1,.9,2,2,2Zm0,14.1h7.28c1.1,0,2-.9,2-2v-7.28c0-1.1-.9-2-2-2h-7.28c-1.1,0-2,.9-2,2v7.28c0,1.1,.9,2,2,2Zm0,14.1h7.28c1.1,0,2-.9,2-2v-7.28c0-1.1-.9-2-2-2h-7.28c-1.1,0-2,.9-2,2v7.28c0,1.1,.9,2,2,2Zm0,14.1h7.28c1.1,0,2-.9,2-2v-7.28c0-1.1-.9-2-2-2h-7.28c-1.1,0-2,.9-2,2v7.28c0,1.1,.9,2,2,2Zm0,28.2h7.28c1.1,0,2-.9,2-2v-7.28c0-1.1-.9-2-2-2h-7.28c-1.1,0-2,.9-2,2v7.28c0,1.1,.9,2,2,2Zm0,14.1h7.28c1.1,0,2-.9,2-2v-7.28c0-1.1-.9-2-2-2h-7.28c-1.1,0-2,.9-2,2v7.28c0,1.1,.9,2,2,2Zm0,14.1h7.28c1.1,0,2-.9,2-2v-7.28c0-1.1-.9-2-2-2h-7.28c-1.1,0-2,.9-2,2v7.28c0,1.1,.9,2,2,2Zm0,14.1h7.28c1.1,0,2-.9,2-2v-7.28c0-1.1-.9-2-2-2h-7.28c-1.1,0-2,.9-2,2v7.28c0,1.1,.9,2,2,2Zm0,14.1h7.28c1.1,0,2-.9,2-2v-7.28c0-1.1-.9-2-2-2h-7.28c-1.1,0-2,.9-2,2v7.28c0,1.1,.9,2,2,2Zm0,14.1h7.28c1.1,0,2-.9,2-2v-7.28c0-1.1-.9-2-2-2h-7.28c-1.1,0-2,.9-2,2v7.28c0,1.1,.9,2,2,2ZM86.59,14.1h7.28c1.1,0,2-.9,2-2V4.82c0-1.1-.9-2-2-2h-7.28c-1.1,0-2,.9-2,2v7.28c0,1.1,.9,2,2,2Zm0,14.1h7.28c1.1,0,2-.9,2-2v-7.28c0-1.1-.9-2-2-2h-7.28c-1.1,0-2,.9-2,2v7.28c0,1.1,.9,2,2,2Zm0,14.1h7.28c1.1,0,2-.9,2-2v-7.28c0-1.1-.9-2-2-2h-7.28c-1.1,0-2,.9-2,2v7.28c0,1.1,.9,2,2,2Zm0,42.29h7.28c1.1,0,2-.9,2-2v-7.28c0-1.1-.9-2-2-2h-7.28c-1.1,0-2,.9-2,2v7.28c0,1.1,.9,2,2,2Zm0,14.1h7.28c1.1,0,2-.9,2-2v-7.28c0-1.1-.9-2-2-2h-7.28c-1.1,0-2,.9-2,2v7.28c0,1.1,.9,2,2,2Zm0,14.1h7.28c1.1,0,2-.9,2-2v-7.28c0-1.1-.9-2-2-2h-7.28c-1.1,0-2,.9-2,2v7.28c0,1.1,.9,2,2,2Zm0,14.1h7.28c1.1,0,2-.9,2-2v-7.28c0-1.1-.9-2-2-2h-7.28c-1.1,0-2,.9-2,2v7.28c0,1.1,.9,2,2,2Zm0,28.2h7.28c1.1,0,2-.9,2-2v-7.28c0-1.1-.9-2-2-2h-7.28c-1.1,0-2,.9-2,2v7.28c0,1.1,.9,2,2,2Zm0,14.1h7.28c1.1,0,2-.9,2-2v-7.28c0-1.1-.9-2-2-2h-7.28c-1.1,0-2,.9-2,2v7.28c0,1.1,.9,2,2,2Zm0,14.1h7.28c1.1,0,2-.9,2-2v-7.28c0-1.1-.9-2-2-2h-7.28c-1.1,0-2,.9-2,2v7.28c0,1.1,.9,2,2,2Zm0,14.1h7.28c1.1,0,2-.9,2-2v-7.28c0-1.1-.9-2-2-2h-7.28c-1.1,0-2,.9-2,2v7.28c0,1.1,.9,2,2,2ZM72.49,14.1h7.28c1.1,0,2-.9,2-2V4.82c0-1.1-.9-2-2-2h-7.28c-1.1,0-2,.9-2,2v7.28c0,1.1,.9,2,2,2Zm0,28.2h7.28c1.1,0,2-.9,2-2v-7.28c0-1.1-.9-2-2-2h-7.28c-1.1,0-2,.9-2,2v7.28c0,1.1,.9,2,2,2Zm0,14.1h7.28c1.1,0,2-.9,2-2v-7.28c0-1.1-.9-2-2-2h-7.28c-1.1,0-2,.9-2,2v7.28c0,1.1,.9,2,2,2Zm0,14.1h7.28c1.1,0,2-.9,2-2v-7.28c0-1.1-.9-2-2-2h-7.28c-1.1,0-2,.9-2,2v7.28c0,1.1,.9,2,2,2Zm0,14.1h7.28c1.1,0,2-.9,2-2v-7.28c0-1.1-.9-2-2-2h-7.28c-1.1,0-2,.9-2,2v7.28c0,1.1,.9,2,2,2Zm0,14.1h7.28c1.1,0,2-.9,2-2v-7.28c0-1.1-.9-2-2-2h-7.28c-1.1,0-2,.9-2,2v7.28c0,1.1,.9,2,2,2Zm0,28.2h7.28c1.1,0,2-.9,2-2v-7.28c0-1.1-.9-2-2-2h-7.28c-1.1,0-2,.9-2,2v7.28c0,1.1,.9,2,2,2Zm0,14.1h7.28c1.1,0,2-.9,2-2v-7.28c0-1.1-.9-2-2-2h-7.28c-1.1,0-2,.9-2,2v7.28c0,1.1,.9,2,2,2Zm0,14.1h7.28c1.1,0,2-.9,2-2v-7.28c0-1.1-.9-2-2-2h-7.28c-1.1,0-2,.9-2,2v7.28c0,1.1,.9,2,2,2Zm0,14.1h7.28c1.1,0,2-.9,2-2v-7.28c0-1.1-.9-2-2-2h-7.28c-1.1,0-2,.9-2,2v7.28c0,1.1,.9,2,2,2Zm0,14.1h7.28c1.1,0,2-.9,2-2v-7.28c0-1.1-.9-2-2-2h-7.28c-1.1,0-2,.9-2,2v7.28c0,1.1,.9,2,2,2Zm0,14.1h7.28c1.1,0,2-.9,2-2v-7.28c0-1.1-.9-2-2-2h-7.28c-1.1,0-2,.9-2,2v7.28c0,1.1,.9,2,2,2ZM58.39,28.2h7.28c1.1,0,2-.9,2-2v-7.28c0-1.1-.9-2-2-2h-7.28c-1.1,0-2,.9-2,2v7.28c0,1.1,.9,2,2,2Zm0,14.1h7.28c1.1,0,2-.9,2-2v-7.28c0-1.1-.9-2-2-2h-7.28c-1.1,0-2,.9-2,2v7.28c0,1.1,.9,2,2,2Zm0,14.1h7.28c1.1,0,2-.9,2-2v-7.28c0-1.1-.9-2-2-2h-7.28c-1.1,0-2,.9-2,2v7.28c0,1.1,.9,2,2,2Zm0,14.1h7.28c1.1,0,2-.9,2-2v-7.28c0-1.1-.9-2-2-2h-7.28c-1.1,0-2,.9-2,2v7.28c0,1.1,.9,2,2,2Zm0,14.1h7.28c1.1,0,2-.9,2-2v-7.28c0-1.1-.9-2-2-2h-7.28c-1.1,0-2,.9-2,2v7.28c0,1.1,.9,2,2,2Zm0,14.1h7.28c1.1,0,2-.9,2-2v-7.28c0-1.1-.9-2-2-2h-7.28c-1.1,0-2,.9-2,2v7.28c0,1.1,.9,2,2,2Zm0,14.1h7.28c1.1,0,2-.9,2-2v-7.28c0-1.1-.9-2-2-2h-7.28c-1.1,0-2,.9-2,2v7.28c0,1.1,.9,2,2,2Zm0,14.1h7.28c1.1,0,2-.9,2-2v-7.28c0-1.1-.9-2-2-2h-7.28c-1.1,0-2,.9-2,2v7.28c0,1.1,.9,2,2,2Zm0,42.29h7.28c1.1,0,2-.9,2-2v-7.28c0-1.1-.9-2-2-2h-7.28c-1.1,0-2,.9-2,2v7.28c0,1.1,.9,2,2,2Zm0,14.1h7.28c1.1,0,2-.9,2-2v-7.28c0-1.1-.9-2-2-2h-7.28c-1.1,0-2,.9-2,2v7.28c0,1.1,.9,2,2,2Zm0,14.1h7.28c1.1,0,2-.9,2-2v-7.28c0-1.1-.9-2-2-2h-7.28c-1.1,0-2,.9-2,2v7.28c0,1.1,.9,2,2,2Zm296.05,14.1h7.28c1.1,0,2-.9,2-2v-7.28c0-1.1-.9-2-2-2h-7.28c-1.1,0-2,.9-2,2v7.28c0,1.1,.9,2,2,2Zm0,28.2h7.28c1.1,0,2-.9,2-2v-7.28c0-1.1-.9-2-2-2h-7.28c-1.1,0-2,.9-2,2v7.28c0,1.1,.9,2,2,2Zm-14.1,126.88h7.28c1.1,0,2-.9,2-2v-7.28c0-1.1-.9-2-2-2h-7.28c-1.1,0-2,.9-2,2v7.28c0,1.1,.9,2,2,2Zm-14.1-155.07h7.28c1.1,0,2-.9,2-2v-7.28c0-1.1-.9-2-2-2h-7.28c-1.1,0-2,.9-2,2v7.28c0,1.1,.9,2,2,2Zm0,42.29h7.28c1.1,0,2-.9,2-2v-7.28c0-1.1-.9-2-2-2h-7.28c-1.1,0-2,.9-2,2v7.28c0,1.1,.9,2,2,2ZM664.59,14.1h7.28c1.1,0,2-.9,2-2V4.82c0-1.1-.9-2-2-2h-7.28c-1.1,0-2,.9-2,2v7.28c0,1.1,.9,2,2,2Zm-28.2,0h7.28c1.1,0,2-.9,2-2V4.82c0-1.1-.9-2-2-2h-7.28c-1.1,0-2,.9-2,2v7.28c0,1.1,.9,2,2,2Zm-28.2,14.1h7.28c1.1,0,2-.9,2-2v-7.28c0-1.1-.9-2-2-2h-7.28c-1.1,0-2,.9-2,2v7.28c0,1.1,.9,2,2,2Zm109.02-14.09h7.28c1.1,0,2-.9,2-2V4.82c0-1.1-.9-2-2-2h-7.28c-1.1,0-2,.9-2,2v7.28c0,1.1,.9,2,2,2Zm-109.02,28.19h7.28c1.1,0,2-.9,2-2v-7.28c0-1.1-.9-2-2-2h-7.28c-1.1,0-2,.9-2,2v7.28c0,1.1,.9,2,2,2Zm-28.2-28.2h7.28c1.1,0,2-.9,2-2V4.82c0-1.1-.9-2-2-2h-7.28c-1.1,0-2,.9-2,2v7.28c0,1.1,.9,2,2,2Zm-14.1,28.2h7.28c1.1,0,2-.9,2-2v-7.28c0-1.1-.9-2-2-2h-7.28c-1.1,0-2,.9-2,2v7.28c0,1.1,.9,2,2,2Zm-28.2-14.1h7.28c1.1,0,2-.9,2-2v-7.28c0-1.1-.9-2-2-2h-7.28c-1.1,0-2,.9-2,2v7.28c0,1.1,.9,2,2,2Zm-28.2-14.1h7.28c1.1,0,2-.9,2-2V4.82c0-1.1-.9-2-2-2h-7.28c-1.1,0-2,.9-2,2v7.28c0,1.1,.9,2,2,2Zm0,42.29h7.28c1.1,0,2-.9,2-2v-7.28c0-1.1-.9-2-2-2h-7.28c-1.1,0-2,.9-2,2v7.28c0,1.1,.9,2,2,2Zm65.67-30.2v-7.28c0-1.1-.9-2-2-2h-7.28c-1.1,0-2,.9-2,2v7.28c0,1.1,.9,2,2,2h7.28c1.1,0,2-.9,2-2Zm0-14.1V4.82c0-1.1-.9-2-2-2h-7.28c-1.1,0-2,.9-2,2v7.28c0,1.1,.9,2,2,2h7.28c1.1,0,2-.9,2-2Zm198.43,2h7.28c1.1,0,2-.9,2-2V4.82c0-1.1-.9-2-2-2h-7.28c-1.1,0-2,.9-2,2v7.28c0,1.1,.9,2,2,2Zm-14.1,14.1h7.28c1.1,0,2-.9,2-2v-7.28c0-1.1-.9-2-2-2h-7.28c-1.1,0-2,.9-2,2v7.28c0,1.1,.9,2,2,2Zm-42.29,0h7.28c1.1,0,2-.9,2-2v-7.28c0-1.1-.9-2-2-2h-7.28c-1.1,0-2,.9-2,2v7.28c0,1.1,.9,2,2,2Zm0,14.1h7.28c1.1,0,2-.9,2-2v-7.28c0-1.1-.9-2-2-2h-7.28c-1.1,0-2,.9-2,2v7.28c0,1.1,.9,2,2,2Zm-14.1-28.2h7.28c1.1,0,2-.9,2-2V4.82c0-1.1-.9-2-2-2h-7.28c-1.1,0-2,.9-2,2v7.28c0,1.1,.9,2,2,2ZM312.15,225.56h7.28c1.1,0,2-.9,2-2v-7.28c0-1.1-.9-2-2-2h-7.28c-1.1,0-2,.9-2,2v7.28c0,1.1,.9,2,2,2Zm0,28.2h7.28c1.1,0,2-.9,2-2v-7.28c0-1.1-.9-2-2-2h-7.28c-1.1,0-2,.9-2,2v7.28c0,1.1,.9,2,2,2Zm0,112.78h7.28c1.1,0,2-.9,2-2v-7.28c0-1.1-.9-2-2-2h-7.28c-1.1,0-2,.9-2,2v7.28c0,1.1,.9,2,2,2Zm-14.1-126.88h7.28c1.1,0,2-.9,2-2v-7.28c0-1.1-.9-2-2-2h-7.28c-1.1,0-2,.9-2,2v7.28c0,1.1,.9,2,2,2Zm0,126.88h7.28c1.1,0,2-.9,2-2v-7.28c0-1.1-.9-2-2-2h-7.28c-1.1,0-2,.9-2,2v7.28c0,1.1,.9,2,2,2Zm-14.1-155.07h7.28c1.1,0,2-.9,2-2v-7.28c0-1.1-.9-2-2-2h-7.28c-1.1,0-2,.9-2,2v7.28c0,1.1,.9,2,2,2Zm0,28.2h7.28c1.1,0,2-.9,2-2v-7.28c0-1.1-.9-2-2-2h-7.28c-1.1,0-2,.9-2,2v7.28c0,1.1,.9,2,2,2Zm0,112.78h7.28c1.1,0,2-.9,2-2v-7.28c0-1.1-.9-2-2-2h-7.28c-1.1,0-2,.9-2,2v7.28c0,1.1,.9,2,2,2Zm-14.1-140.98h7.28c1.1,0,2-.9,2-2v-7.28c0-1.1-.9-2-2-2h-7.28c-1.1,0-2,.9-2,2v7.28c0,1.1,.9,2,2,2Zm0,56.39h7.28c1.1,0,2-.9,2-2v-7.28c0-1.1-.9-2-2-2h-7.28c-1.1,0-2,.9-2,2v7.28c0,1.1,.9,2,2,2Zm0,56.39h7.28c1.1,0,2-.9,2-2v-7.28c0-1.1-.9-2-2-2h-7.28c-1.1,0-2,.9-2,2v7.28c0,1.1,.9,2,2,2Zm-14.1-112.78h7.28c1.1,0,2-.9,2-2v-7.28c0-1.1-.9-2-2-2h-7.28c-1.1,0-2,.9-2,2v7.28c0,1.1,.9,2,2,2Zm0,42.29h7.28c1.1,0,2-.9,2-2v-7.28c0-1.1-.9-2-2-2h-7.28c-1.1,0-2,.9-2,2v7.28c0,1.1,.9,2,2,2Zm0,98.68h7.28c1.1,0,2-.9,2-2v-7.28c0-1.1-.9-2-2-2h-7.28c-1.1,0-2,.9-2,2v7.28c0,1.1,.9,2,2,2Zm-14.1-126.88h7.28c1.1,0,2-.9,2-2v-7.28c0-1.1-.9-2-2-2h-7.28c-1.1,0-2,.9-2,2v7.28c0,1.1,.9,2,2,2Zm0,28.2h7.28c1.1,0,2-.9,2-2v-7.28c0-1.1-.9-2-2-2h-7.28c-1.1,0-2,.9-2,2v7.28c0,1.1,.9,2,2,2Zm0,28.2h7.28c1.1,0,2-.9,2-2v-7.28c0-1.1-.9-2-2-2h-7.28c-1.1,0-2,.9-2,2v7.28c0,1.1,.9,2,2,2Zm0,42.29h7.28c1.1,0,2-.9,2-2v-7.28c0-1.1-.9-2-2-2h-7.28c-1.1,0-2,.9-2,2v7.28c0,1.1,.9,2,2,2Zm0,42.29h7.28c1.1,0,2-.9,2-2v-7.28c0-1.1-.9-2-2-2h-7.28c-1.1,0-2,.9-2,2v7.28c0,1.1,.9,2,2,2Zm0,28.2h7.28c1.1,0,2-.9,2-2v-7.28c0-1.1-.9-2-2-2h-7.28c-1.1,0-2,.9-2,2v7.28c0,1.1,.9,2,2,2Zm-14.1-183.27h7.28c1.1,0,2-.9,2-2v-7.28c0-1.1-.9-2-2-2h-7.28c-1.1,0-2,.9-2,2v7.28c0,1.1,.9,2,2,2Zm0,56.39h7.28c1.1,0,2-.9,2-2v-7.28c0-1.1-.9-2-2-2h-7.28c-1.1,0-2,.9-2,2v7.28c0,1.1,.9,2,2,2Zm0,56.39h7.28c1.1,0,2-.9,2-2v-7.28c0-1.1-.9-2-2-2h-7.28c-1.1,0-2,.9-2,2v7.28c0,1.1,.9,2,2,2Zm0,28.2h7.28c1.1,0,2-.9,2-2v-7.28c0-1.1-.9-2-2-2h-7.28c-1.1,0-2,.9-2,2v7.28c0,1.1,.9,2,2,2Zm0,42.29h7.28c1.1,0,2-.9,2-2v-7.28c0-1.1-.9-2-2-2h-7.28c-1.1,0-2,.9-2,2v7.28c0,1.1,.9,2,2,2Zm0,42.29h7.28c1.1,0,2-.9,2-2v-7.28c0-1.1-.9-2-2-2h-7.28c-1.1,0-2,.9-2,2v7.28c0,1.1,.9,2,2,2Zm-14.1-225.56h7.28c1.1,0,2-.9,2-2v-7.28c0-1.1-.9-2-2-2h-7.28c-1.1,0-2,.9-2,2v7.28c0,1.1,.9,2,2,2Zm0,14.1h7.28c1.1,0,2-.9,2-2v-7.28c0-1.1-.9-2-2-2h-7.28c-1.1,0-2,.9-2,2v7.28c0,1.1,.9,2,2,2Zm0,42.29h7.28c1.1,0,2-.9,2-2v-7.28c0-1.1-.9-2-2-2h-7.28c-1.1,0-2,.9-2,2v7.28c0,1.1,.9,2,2,2Zm0,14.1h7.28c1.1,0,2-.9,2-2v-7.28c0-1.1-.9-2-2-2h-7.28c-1.1,0-2,.9-2,2v7.28c0,1.1,.9,2,2,2Zm0,28.2h7.28c1.1,0,2-.9,2-2v-7.28c0-1.1-.9-2-2-2h-7.28c-1.1,0-2,.9-2,2v7.28c0,1.1,.9,2,2,2Zm0,14.1h7.28c1.1,0,2-.9,2-2v-7.28c0-1.1-.9-2-2-2h-7.28c-1.1,0-2,.9-2,2v7.28c0,1.1,.9,2,2,2Zm0,42.29h7.28c1.1,0,2-.9,2-2v-7.28c0-1.1-.9-2-2-2h-7.28c-1.1,0-2,.9-2,2v7.28c0,1.1,.9,2,2,2Zm0,28.2h7.28c1.1,0,2-.9,2-2v-7.28c0-1.1-.9-2-2-2h-7.28c-1.1,0-2,.9-2,2v7.28c0,1.1,.9,2,2,2Zm-14.1-84.59h7.28c1.1,0,2-.9,2-2v-7.28c0-1.1-.9-2-2-2h-7.28c-1.1,0-2,.9-2,2v7.28c0,1.1,.9,2,2,2Zm0,14.1h7.28c1.1,0,2-.9,2-2v-7.28c0-1.1-.9-2-2-2h-7.28c-1.1,0-2,.9-2,2v7.28c0,1.1,.9,2,2,2Zm0,56.39h7.28c1.1,0,2-.9,2-2v-7.28c0-1.1-.9-2-2-2h-7.28c-1.1,0-2,.9-2,2v7.28c0,1.1,.9,2,2,2Zm0,14.1h7.28c1.1,0,2-.9,2-2v-7.28c0-1.1-.9-2-2-2h-7.28c-1.1,0-2,.9-2,2v7.28c0,1.1,.9,2,2,2Zm0,42.29h7.28c1.1,0,2-.9,2-2v-7.28c0-1.1-.9-2-2-2h-7.28c-1.1,0-2,.9-2,2v7.28c0,1.1,.9,2,2,2Zm-14.1-211.47h7.28c1.1,0,2-.9,2-2v-7.28c0-1.1-.9-2-2-2h-7.28c-1.1,0-2,.9-2,2v7.28c0,1.1,.9,2,2,2Zm0,14.1h7.28c1.1,0,2-.9,2-2v-7.28c0-1.1-.9-2-2-2h-7.28c-1.1,0-2,.9-2,2v7.28c0,1.1,.9,2,2,2Zm0,28.2h7.28c1.1,0,2-.9,2-2v-7.28c0-1.1-.9-2-2-2h-7.28c-1.1,0-2,.9-2,2v7.28c0,1.1,.9,2,2,2Zm0,98.68h7.28c1.1,0,2-.9,2-2v-7.28c0-1.1-.9-2-2-2h-7.28c-1.1,0-2,.9-2,2v7.28c0,1.1,.9,2,2,2Zm0,42.29h7.28c1.1,0,2-.9,2-2v-7.28c0-1.1-.9-2-2-2h-7.28c-1.1,0-2,.9-2,2v7.28c0,1.1,.9,2,2,2Zm0,28.2h7.28c1.1,0,2-.9,2-2v-7.28c0-1.1-.9-2-2-2h-7.28c-1.1,0-2,.9-2,2v7.28c0,1.1,.9,2,2,2Zm0,112.78h7.28c1.1,0,2-.9,2-2v-7.28c0-1.1-.9-2-2-2h-7.28c-1.1,0-2,.9-2,2v7.28c0,1.1,.9,2,2,2Zm-14.1-338.34h7.28c1.1,0,2-.9,2-2v-7.28c0-1.1-.9-2-2-2h-7.28c-1.1,0-2,.9-2,2v7.28c0,1.1,.9,2,2,2Zm0,14.1h7.28c1.1,0,2-.9,2-2v-7.28c0-1.1-.9-2-2-2h-7.28c-1.1,0-2,.9-2,2v7.28c0,1.1,.9,2,2,2Zm0,14.1h7.28c1.1,0,2-.9,2-2v-7.28c0-1.1-.9-2-2-2h-7.28c-1.1,0-2,.9-2,2v7.28c0,1.1,.9,2,2,2Zm0,28.2h7.28c1.1,0,2-.9,2-2v-7.28c0-1.1-.9-2-2-2h-7.28c-1.1,0-2,.9-2,2v7.28c0,1.1,.9,2,2,2Zm0,14.1h7.28c1.1,0,2-.9,2-2v-7.28c0-1.1-.9-2-2-2h-7.28c-1.1,0-2,.9-2,2v7.28c0,1.1,.9,2,2,2Zm0,42.29h7.28c1.1,0,2-.9,2-2v-7.28c0-1.1-.9-2-2-2h-7.28c-1.1,0-2,.9-2,2v7.28c0,1.1,.9,2,2,2Zm0,28.2h7.28c1.1,0,2-.9,2-2v-7.28c0-1.1-.9-2-2-2h-7.28c-1.1,0-2,.9-2,2v7.28c0,1.1,.9,2,2,2Zm0,28.2h7.28c1.1,0,2-.9,2-2v-7.28c0-1.1-.9-2-2-2h-7.28c-1.1,0-2,.9-2,2v7.28c0,1.1,.9,2,2,2Zm0,56.39h7.28c1.1,0,2-.9,2-2v-7.28c0-1.1-.9-2-2-2h-7.28c-1.1,0-2,.9-2,2v7.28c0,1.1,.9,2,2,2Zm0,28.2h7.28c1.1,0,2-.9,2-2v-7.28c0-1.1-.9-2-2-2h-7.28c-1.1,0-2,.9-2,2v7.28c0,1.1,.9,2,2,2Zm-14.1-253.76h7.28c1.1,0,2-.9,2-2v-7.28c0-1.1-.9-2-2-2h-7.28c-1.1,0-2,.9-2,2v7.28c0,1.1,.9,2,2,2Zm0,28.2h7.28c1.1,0,2-.9,2-2v-7.28c0-1.1-.9-2-2-2h-7.28c-1.1,0-2,.9-2,2v7.28c0,1.1,.9,2,2,2Zm0,14.1h7.28c1.1,0,2-.9,2-2v-7.28c0-1.1-.9-2-2-2h-7.28c-1.1,0-2,.9-2,2v7.28c0,1.1,.9,2,2,2Zm0,56.39h7.28c1.1,0,2-.9,2-2v-7.28c0-1.1-.9-2-2-2h-7.28c-1.1,0-2,.9-2,2v7.28c0,1.1,.9,2,2,2Zm0,28.2h7.28c1.1,0,2-.9,2-2v-7.28c0-1.1-.9-2-2-2h-7.28c-1.1,0-2,.9-2,2v7.28c0,1.1,.9,2,2,2Zm0,14.1h7.28c1.1,0,2-.9,2-2v-7.28c0-1.1-.9-2-2-2h-7.28c-1.1,0-2,.9-2,2v7.28c0,1.1,.9,2,2,2Zm0,14.1h7.28c1.1,0,2-.9,2-2v-7.28c0-1.1-.9-2-2-2h-7.28c-1.1,0-2,.9-2,2v7.28c0,1.1,.9,2,2,2Zm0,126.88h7.28c1.1,0,2-.9,2-2v-7.28c0-1.1-.9-2-2-2h-7.28c-1.1,0-2,.9-2,2v7.28c0,1.1,.9,2,2,2Zm-14.1-281.95h7.28c1.1,0,2-.9,2-2v-7.28c0-1.1-.9-2-2-2h-7.28c-1.1,0-2,.9-2,2v7.28c0,1.1,.9,2,2,2Zm0,14.1h7.28c1.1,0,2-.9,2-2v-7.28c0-1.1-.9-2-2-2h-7.28c-1.1,0-2,.9-2,2v7.28c0,1.1,.9,2,2,2Zm0,28.2h7.28c1.1,0,2-.9,2-2v-7.28c0-1.1-.9-2-2-2h-7.28c-1.1,0-2,.9-2,2v7.28c0,1.1,.9,2,2,2Zm0,14.1h7.28c1.1,0,2-.9,2-2v-7.28c0-1.1-.9-2-2-2h-7.28c-1.1,0-2,.9-2,2v7.28c0,1.1,.9,2,2,2Zm0,42.29h7.28c1.1,0,2-.9,2-2v-7.28c0-1.1-.9-2-2-2h-7.28c-1.1,0-2,.9-2,2v7.28c0,1.1,.9,2,2,2Zm0,14.1h7.28c1.1,0,2-.9,2-2v-7.28c0-1.1-.9-2-2-2h-7.28c-1.1,0-2,.9-2,2v7.28c0,1.1,.9,2,2,2Zm0,42.29h7.28c1.1,0,2-.9,2-2v-7.28c0-1.1-.9-2-2-2h-7.28c-1.1,0-2,.9-2,2v7.28c0,1.1,.9,2,2,2Zm0,28.2h7.28c1.1,0,2-.9,2-2v-7.28c0-1.1-.9-2-2-2h-7.28c-1.1,0-2,.9-2,2v7.28c0,1.1,.9,2,2,2Zm0,42.29h7.28c1.1,0,2-.9,2-2v-7.28c0-1.1-.9-2-2-2h-7.28c-1.1,0-2,.9-2,2v7.28c0,1.1,.9,2,2,2Zm0,28.2h7.28c1.1,0,2-.9,2-2v-7.28c0-1.1-.9-2-2-2h-7.28c-1.1,0-2,.9-2,2v7.28c0,1.1,.9,2,2,2Zm0,84.59h7.28c1.1,0,2-.9,2-2v-7.28c0-1.1-.9-2-2-2h-7.28c-1.1,0-2,.9-2,2v7.28c0,1.1,.9,2,2,2Zm-14.1-338.34h7.28c1.1,0,2-.9,2-2v-7.28c0-1.1-.9-2-2-2h-7.28c-1.1,0-2,.9-2,2v7.28c0,1.1,.9,2,2,2Zm0,28.2h7.28c1.1,0,2-.9,2-2v-7.28c0-1.1-.9-2-2-2h-7.28c-1.1,0-2,.9-2,2v7.28c0,1.1,.9,2,2,2Zm0,14.1h7.28c1.1,0,2-.9,2-2v-7.28c0-1.1-.9-2-2-2h-7.28c-1.1,0-2,.9-2,2v7.28c0,1.1,.9,2,2,2Zm0,98.68h7.28c1.1,0,2-.9,2-2v-7.28c0-1.1-.9-2-2-2h-7.28c-1.1,0-2,.9-2,2v7.28c0,1.1,.9,2,2,2Zm0,28.2h7.28c1.1,0,2-.9,2-2v-7.28c0-1.1-.9-2-2-2h-7.28c-1.1,0-2,.9-2,2v7.28c0,1.1,.9,2,2,2Zm0,14.1h7.28c1.1,0,2-.9,2-2v-7.28c0-1.1-.9-2-2-2h-7.28c-1.1,0-2,.9-2,2v7.28c0,1.1,.9,2,2,2Zm0,14.1h7.28c1.1,0,2-.9,2-2v-7.28c0-1.1-.9-2-2-2h-7.28c-1.1,0-2,.9-2,2v7.28c0,1.1,.9,2,2,2Zm0,84.59h7.28c1.1,0,2-.9,2-2v-7.28c0-1.1-.9-2-2-2h-7.28c-1.1,0-2,.9-2,2v7.28c0,1.1,.9,2,2,2Zm0,56.39h7.28c1.1,0,2-.9,2-2v-7.28c0-1.1-.9-2-2-2h-7.28c-1.1,0-2,.9-2,2v7.28c0,1.1,.9,2,2,2Zm-14.1-338.34h7.28c1.1,0,2-.9,2-2v-7.28c0-1.1-.9-2-2-2h-7.28c-1.1,0-2,.9-2,2v7.28c0,1.1,.9,2,2,2Zm0,14.1h7.28c1.1,0,2-.9,2-2v-7.28c0-1.1-.9-2-2-2h-7.28c-1.1,0-2,.9-2,2v7.28c0,1.1,.9,2,2,2Zm0,14.1h7.28c1.1,0,2-.9,2-2v-7.28c0-1.1-.9-2-2-2h-7.28c-1.1,0-2,.9-2,2v7.28c0,1.1,.9,2,2,2Zm0,14.1h7.28c1.1,0,2-.9,2-2v-7.28c0-1.1-.9-2-2-2h-7.28c-1.1,0-2,.9-2,2v7.28c0,1.1,.9,2,2,2Zm0,14.1h7.28c1.1,0,2-.9,2-2v-7.28c0-1.1-.9-2-2-2h-7.28c-1.1,0-2,.9-2,2v7.28c0,1.1,.9,2,2,2Zm0,28.2h7.28c1.1,0,2-.9,2-2v-7.28c0-1.1-.9-2-2-2h-7.28c-1.1,0-2,.9-2,2v7.28c0,1.1,.9,2,2,2Zm0,28.2h7.28c1.1,0,2-.9,2-2v-7.28c0-1.1-.9-2-2-2h-7.28c-1.1,0-2,.9-2,2v7.28c0,1.1,.9,2,2,2Zm0,14.1h7.28c1.1,0,2-.9,2-2v-7.28c0-1.1-.9-2-2-2h-7.28c-1.1,0-2,.9-2,2v7.28c0,1.1,.9,2,2,2Zm0,28.2h7.28c1.1,0,2-.9,2-2v-7.28c0-1.1-.9-2-2-2h-7.28c-1.1,0-2,.9-2,2v7.28c0,1.1,.9,2,2,2Zm0,28.2h7.28c1.1,0,2-.9,2-2v-7.28c0-1.1-.9-2-2-2h-7.28c-1.1,0-2,.9-2,2v7.28c0,1.1,.9,2,2,2Zm0,42.29h7.28c1.1,0,2-.9,2-2v-7.28c0-1.1-.9-2-2-2h-7.28c-1.1,0-2,.9-2,2v7.28c0,1.1,.9,2,2,2Zm0,28.2h7.28c1.1,0,2-.9,2-2v-7.28c0-1.1-.9-2-2-2h-7.28c-1.1,0-2,.9-2,2v7.28c0,1.1,.9,2,2,2Zm0,14.1h7.28c1.1,0,2-.9,2-2v-7.28c0-1.1-.9-2-2-2h-7.28c-1.1,0-2,.9-2,2v7.28c0,1.1,.9,2,2,2Zm0,56.39h7.28c1.1,0,2-.9,2-2v-7.28c0-1.1-.9-2-2-2h-7.28c-1.1,0-2,.9-2,2v7.28c0,1.1,.9,2,2,2Zm0,14.1h7.28c1.1,0,2-.9,2-2v-7.28c0-1.1-.9-2-2-2h-7.28c-1.1,0-2,.9-2,2v7.28c0,1.1,.9,2,2,2Zm-14.1-324.25h7.28c1.1,0,2-.9,2-2v-7.28c0-1.1-.9-2-2-2h-7.28c-1.1,0-2,.9-2,2v7.28c0,1.1,.9,2,2,2Zm0,14.1h7.28c1.1,0,2-.9,2-2v-7.28c0-1.1-.9-2-2-2h-7.28c-1.1,0-2,.9-2,2v7.28c0,1.1,.9,2,2,2Zm0,112.78h7.28c1.1,0,2-.9,2-2v-7.28c0-1.1-.9-2-2-2h-7.28c-1.1,0-2,.9-2,2v7.28c0,1.1,.9,2,2,2Zm0,14.1h7.28c1.1,0,2-.9,2-2v-7.28c0-1.1-.9-2-2-2h-7.28c-1.1,0-2,.9-2,2v7.28c0,1.1,.9,2,2,2Zm0,42.29h7.28c1.1,0,2-.9,2-2v-7.28c0-1.1-.9-2-2-2h-7.28c-1.1,0-2,.9-2,2v7.28c0,1.1,.9,2,2,2Zm0,28.2h7.28c1.1,0,2-.9,2-2v-7.28c0-1.1-.9-2-2-2h-7.28c-1.1,0-2,.9-2,2v7.28c0,1.1,.9,2,2,2Zm0,70.49h7.28c1.1,0,2-.9,2-2v-7.28c0-1.1-.9-2-2-2h-7.28c-1.1,0-2,.9-2,2v7.28c0,1.1,.9,2,2,2Zm0,14.1h7.28c1.1,0,2-.9,2-2v-7.28c0-1.1-.9-2-2-2h-7.28c-1.1,0-2,.9-2,2v7.28c0,1.1,.9,2,2,2Zm0,70.49h7.28c1.1,0,2-.9,2-2v-7.28c0-1.1-.9-2-2-2h-7.28c-1.1,0-2,.9-2,2v7.28c0,1.1,.9,2,2,2Zm-14.1-380.64h7.28c1.1,0,2-.9,2-2v-7.28c0-1.1-.9-2-2-2h-7.28c-1.1,0-2,.9-2,2v7.28c0,1.1,.9,2,2,2Zm0,42.29h7.28c1.1,0,2-.9,2-2v-7.28c0-1.1-.9-2-2-2h-7.28c-1.1,0-2,.9-2,2v7.28c0,1.1,.9,2,2,2Zm0,28.2h7.28c1.1,0,2-.9,2-2v-7.28c0-1.1-.9-2-2-2h-7.28c-1.1,0-2,.9-2,2v7.28c0,1.1,.9,2,2,2Zm0,14.1h7.28c1.1,0,2-.9,2-2v-7.28c0-1.1-.9-2-2-2h-7.28c-1.1,0-2,.9-2,2v7.28c0,1.1,.9,2,2,2Zm0,28.2h7.28c1.1,0,2-.9,2-2v-7.28c0-1.1-.9-2-2-2h-7.28c-1.1,0-2,.9-2,2v7.28c0,1.1,.9,2,2,2Zm0,14.1h7.28c1.1,0,2-.9,2-2v-7.28c0-1.1-.9-2-2-2h-7.28c-1.1,0-2,.9-2,2v7.28c0,1.1,.9,2,2,2Zm0,28.2h7.28c1.1,0,2-.9,2-2v-7.28c0-1.1-.9-2-2-2h-7.28c-1.1,0-2,.9-2,2v7.28c0,1.1,.9,2,2,2Zm0,14.1h7.28c1.1,0,2-.9,2-2v-7.28c0-1.1-.9-2-2-2h-7.28c-1.1,0-2,.9-2,2v7.28c0,1.1,.9,2,2,2Zm0,14.1h7.28c1.1,0,2-.9,2-2v-7.28c0-1.1-.9-2-2-2h-7.28c-1.1,0-2,.9-2,2v7.28c0,1.1,.9,2,2,2Zm0,42.29h7.28c1.1,0,2-.9,2-2v-7.28c0-1.1-.9-2-2-2h-7.28c-1.1,0-2,.9-2,2v7.28c0,1.1,.9,2,2,2Zm0,42.29h7.28c1.1,0,2-.9,2-2v-7.28c0-1.1-.9-2-2-2h-7.28c-1.1,0-2,.9-2,2v7.28c0,1.1,.9,2,2,2Zm0,28.2h7.28c1.1,0,2-.9,2-2v-7.28c0-1.1-.9-2-2-2h-7.28c-1.1,0-2,.9-2,2v7.28c0,1.1,.9,2,2,2Zm0,28.2h7.28c1.1,0,2-.9,2-2v-7.28c0-1.1-.9-2-2-2h-7.28c-1.1,0-2,.9-2,2v7.28c0,1.1,.9,2,2,2Zm-14.1-324.25h7.28c1.1,0,2-.9,2-2v-7.28c0-1.1-.9-2-2-2h-7.28c-1.1,0-2,.9-2,2v7.28c0,1.1,.9,2,2,2Zm0,14.1h7.28c1.1,0,2-.9,2-2v-7.28c0-1.1-.9-2-2-2h-7.28c-1.1,0-2,.9-2,2v7.28c0,1.1,.9,2,2,2Zm0,28.2h7.28c1.1,0,2-.9,2-2v-7.28c0-1.1-.9-2-2-2h-7.28c-1.1,0-2,.9-2,2v7.28c0,1.1,.9,2,2,2Zm0,14.1h7.28c1.1,0,2-.9,2-2v-7.28c0-1.1-.9-2-2-2h-7.28c-1.1,0-2,.9-2,2v7.28c0,1.1,.9,2,2,2Zm0,14.1h7.28c1.1,0,2-.9,2-2v-7.28c0-1.1-.9-2-2-2h-7.28c-1.1,0-2,.9-2,2v7.28c0,1.1,.9,2,2,2Zm0,14.1h7.28c1.1,0,2-.9,2-2v-7.28c0-1.1-.9-2-2-2h-7.28c-1.1,0-2,.9-2,2v7.28c0,1.1,.9,2,2,2Zm0,14.1h7.28c1.1,0,2-.9,2-2v-7.28c0-1.1-.9-2-2-2h-7.28c-1.1,0-2,.9-2,2v7.28c0,1.1,.9,2,2,2Zm0,14.1h7.28c1.1,0,2-.9,2-2v-7.28c0-1.1-.9-2-2-2h-7.28c-1.1,0-2,.9-2,2v7.28c0,1.1,.9,2,2,2Zm0,14.1h7.28c1.1,0,2-.9,2-2v-7.28c0-1.1-.9-2-2-2h-7.28c-1.1,0-2,.9-2,2v7.28c0,1.1,.9,2,2,2Zm0,14.1h7.28c1.1,0,2-.9,2-2v-7.28c0-1.1-.9-2-2-2h-7.28c-1.1,0-2,.9-2,2v7.28c0,1.1,.9,2,2,2Zm0,42.29h7.28c1.1,0,2-.9,2-2v-7.28c0-1.1-.9-2-2-2h-7.28c-1.1,0-2,.9-2,2v7.28c0,1.1,.9,2,2,2Zm0,14.1h7.28c1.1,0,2-.9,2-2v-7.28c0-1.1-.9-2-2-2h-7.28c-1.1,0-2,.9-2,2v7.28c0,1.1,.9,2,2,2Zm0,183.27h7.28c1.1,0,2-.9,2-2v-7.28c0-1.1-.9-2-2-2h-7.28c-1.1,0-2,.9-2,2v7.28c0,1.1,.9,2,2,2Zm-14.1-366.54h7.28c1.1,0,2-.9,2-2v-7.28c0-1.1-.9-2-2-2h-7.28c-1.1,0-2,.9-2,2v7.28c0,1.1,.9,2,2,2Zm0,14.1h7.28c1.1,0,2-.9,2-2v-7.28c0-1.1-.9-2-2-2h-7.28c-1.1,0-2,.9-2,2v7.28c0,1.1,.9,2,2,2Zm0,14.1h7.28c1.1,0,2-.9,2-2v-7.28c0-1.1-.9-2-2-2h-7.28c-1.1,0-2,.9-2,2v7.28c0,1.1,.9,2,2,2Zm0,14.1h7.28c1.1,0,2-.9,2-2v-7.28c0-1.1-.9-2-2-2h-7.28c-1.1,0-2,.9-2,2v7.28c0,1.1,.9,2,2,2Zm0,14.1h7.28c1.1,0,2-.9,2-2v-7.28c0-1.1-.9-2-2-2h-7.28c-1.1,0-2,.9-2,2v7.28c0,1.1,.9,2,2,2Zm0,14.1h7.28c1.1,0,2-.9,2-2v-7.28c0-1.1-.9-2-2-2h-7.28c-1.1,0-2,.9-2,2v7.28c0,1.1,.9,2,2,2Zm0,14.1h7.28c1.1,0,2-.9,2-2v-7.28c0-1.1-.9-2-2-2h-7.28c-1.1,0-2,.9-2,2v7.28c0,1.1,.9,2,2,2Zm0,28.2h7.28c1.1,0,2-.9,2-2v-7.28c0-1.1-.9-2-2-2h-7.28c-1.1,0-2,.9-2,2v7.28c0,1.1,.9,2,2,2Zm0,14.1h7.28c1.1,0,2-.9,2-2v-7.28c0-1.1-.9-2-2-2h-7.28c-1.1,0-2,.9-2,2v7.28c0,1.1,.9,2,2,2Zm0,14.1h7.28c1.1,0,2-.9,2-2v-7.28c0-1.1-.9-2-2-2h-7.28c-1.1,0-2,.9-2,2v7.28c0,1.1,.9,2,2,2Zm0,14.1h7.28c1.1,0,2-.9,2-2v-7.28c0-1.1-.9-2-2-2h-7.28c-1.1,0-2,.9-2,2v7.28c0,1.1,.9,2,2,2Zm0,14.1h7.28c1.1,0,2-.9,2-2v-7.28c0-1.1-.9-2-2-2h-7.28c-1.1,0-2,.9-2,2v7.28c0,1.1,.9,2,2,2Zm0,42.29h7.28c1.1,0,2-.9,2-2v-7.28c0-1.1-.9-2-2-2h-7.28c-1.1,0-2,.9-2,2v7.28c0,1.1,.9,2,2,2Zm0,28.2h7.28c1.1,0,2-.9,2-2v-7.28c0-1.1-.9-2-2-2h-7.28c-1.1,0-2,.9-2,2v7.28c0,1.1,.9,2,2,2Zm0,28.2h7.28c1.1,0,2-.9,2-2v-7.28c0-1.1-.9-2-2-2h-7.28c-1.1,0-2,.9-2,2v7.28c0,1.1,.9,2,2,2Zm0,28.2h7.28c1.1,0,2-.9,2-2v-7.28c0-1.1-.9-2-2-2h-7.28c-1.1,0-2,.9-2,2v7.28c0,1.1,.9,2,2,2Zm0,14.1h7.28c1.1,0,2-.9,2-2v-7.28c0-1.1-.9-2-2-2h-7.28c-1.1,0-2,.9-2,2v7.28c0,1.1,.9,2,2,2Zm0,14.1h7.28c1.1,0,2-.9,2-2v-7.28c0-1.1-.9-2-2-2h-7.28c-1.1,0-2,.9-2,2v7.28c0,1.1,.9,2,2,2Zm0,14.1h7.28c1.1,0,2-.9,2-2v-7.28c0-1.1-.9-2-2-2h-7.28c-1.1,0-2,.9-2,2v7.28c0,1.1,.9,2,2,2Zm0,42.29h7.28c1.1,0,2-.9,2-2v-7.28c0-1.1-.9-2-2-2h-7.28c-1.1,0-2,.9-2,2v7.28c0,1.1,.9,2,2,2ZM44.29,28.2h7.28c1.1,0,2-.9,2-2v-7.28c0-1.1-.9-2-2-2h-7.28c-1.1,0-2,.9-2,2v7.28c0,1.1,.9,2,2,2Zm0,14.1h7.28c1.1,0,2-.9,2-2v-7.28c0-1.1-.9-2-2-2h-7.28c-1.1,0-2,.9-2,2v7.28c0,1.1,.9,2,2,2Zm0,14.1h7.28c1.1,0,2-.9,2-2v-7.28c0-1.1-.9-2-2-2h-7.28c-1.1,0-2,.9-2,2v7.28c0,1.1,.9,2,2,2Zm0,28.2h7.28c1.1,0,2-.9,2-2v-7.28c0-1.1-.9-2-2-2h-7.28c-1.1,0-2,.9-2,2v7.28c0,1.1,.9,2,2,2Zm0,14.1h7.28c1.1,0,2-.9,2-2v-7.28c0-1.1-.9-2-2-2h-7.28c-1.1,0-2,.9-2,2v7.28c0,1.1,.9,2,2,2Zm0,14.1h7.28c1.1,0,2-.9,2-2v-7.28c0-1.1-.9-2-2-2h-7.28c-1.1,0-2,.9-2,2v7.28c0,1.1,.9,2,2,2Zm0,14.1h7.28c1.1,0,2-.9,2-2v-7.28c0-1.1-.9-2-2-2h-7.28c-1.1,0-2,.9-2,2v7.28c0,1.1,.9,2,2,2Zm0,28.2h7.28c1.1,0,2-.9,2-2v-7.28c0-1.1-.9-2-2-2h-7.28c-1.1,0-2,.9-2,2v7.28c0,1.1,.9,2,2,2Zm0,14.1h7.28c1.1,0,2-.9,2-2v-7.28c0-1.1-.9-2-2-2h-7.28c-1.1,0-2,.9-2,2v7.28c0,1.1,.9,2,2,2Zm0,14.1h7.28c1.1,0,2-.9,2-2v-7.28c0-1.1-.9-2-2-2h-7.28c-1.1,0-2,.9-2,2v7.28c0,1.1,.9,2,2,2Zm0,14.1h7.28c1.1,0,2-.9,2-2v-7.28c0-1.1-.9-2-2-2h-7.28c-1.1,0-2,.9-2,2v7.28c0,1.1,.9,2,2,2ZM30.2,28.2h7.28c1.1,0,2-.9,2-2v-7.28c0-1.1-.9-2-2-2h-7.28c-1.1,0-2,.9-2,2v7.28c0,1.1,.9,2,2,2Zm0,14.1h7.28c1.1,0,2-.9,2-2v-7.28c0-1.1-.9-2-2-2h-7.28c-1.1,0-2,.9-2,2v7.28c0,1.1,.9,2,2,2Zm0,56.39h7.28c1.1,0,2-.9,2-2v-7.28c0-1.1-.9-2-2-2h-7.28c-1.1,0-2,.9-2,2v7.28c0,1.1,.9,2,2,2Zm0,14.1h7.28c1.1,0,2-.9,2-2v-7.28c0-1.1-.9-2-2-2h-7.28c-1.1,0-2,.9-2,2v7.28c0,1.1,.9,2,2,2Zm0,14.1h7.28c1.1,0,2-.9,2-2v-7.28c0-1.1-.9-2-2-2h-7.28c-1.1,0-2,.9-2,2v7.28c0,1.1,.9,2,2,2Zm0,14.1h7.28c1.1,0,2-.9,2-2v-7.28c0-1.1-.9-2-2-2h-7.28c-1.1,0-2,.9-2,2v7.28c0,1.1,.9,2,2,2Zm0,14.1h7.28c1.1,0,2-.9,2-2v-7.28c0-1.1-.9-2-2-2h-7.28c-1.1,0-2,.9-2,2v7.28c0,1.1,.9,2,2,2Zm0,14.1h7.28c1.1,0,2-.9,2-2v-7.28c0-1.1-.9-2-2-2h-7.28c-1.1,0-2,.9-2,2v7.28c0,1.1,.9,2,2,2Zm0,14.1h7.28c1.1,0,2-.9,2-2v-7.28c0-1.1-.9-2-2-2h-7.28c-1.1,0-2,.9-2,2v7.28c0,1.1,.9,2,2,2Zm14.1,28.2h7.28c1.1,0,2-.9,2-2v-7.28c0-1.1-.9-2-2-2h-7.28c-1.1,0-2,.9-2,2v7.28c0,1.1,.9,2,2,2Zm0,14.1h7.28c1.1,0,2-.9,2-2v-7.28c0-1.1-.9-2-2-2h-7.28c-1.1,0-2,.9-2,2v7.28c0,1.1,.9,2,2,2Zm0,14.1h7.28c1.1,0,2-.9,2-2v-7.28c0-1.1-.9-2-2-2h-7.28c-1.1,0-2,.9-2,2v7.28c0,1.1,.9,2,2,2Zm0,14.1h7.28c1.1,0,2-.9,2-2v-7.28c0-1.1-.9-2-2-2h-7.28c-1.1,0-2,.9-2,2v7.28c0,1.1,.9,2,2,2Zm0,28.2h7.28c1.1,0,2-.9,2-2v-7.28c0-1.1-.9-2-2-2h-7.28c-1.1,0-2,.9-2,2v7.28c0,1.1,.9,2,2,2Zm0,14.1h7.28c1.1,0,2-.9,2-2v-7.28c0-1.1-.9-2-2-2h-7.28c-1.1,0-2,.9-2,2v7.28c0,1.1,.9,2,2,2Zm0,14.1h7.28c1.1,0,2-.9,2-2v-7.28c0-1.1-.9-2-2-2h-7.28c-1.1,0-2,.9-2,2v7.28c0,1.1,.9,2,2,2Zm0,14.1h7.28c1.1,0,2-.9,2-2v-7.28c0-1.1-.9-2-2-2h-7.28c-1.1,0-2,.9-2,2v7.28c0,1.1,.9,2,2,2Zm0,14.1h7.28c1.1,0,2-.9,2-2v-7.28c0-1.1-.9-2-2-2h-7.28c-1.1,0-2,.9-2,2v7.28c0,1.1,.9,2,2,2Zm0,14.1h7.28c1.1,0,2-.9,2-2v-7.28c0-1.1-.9-2-2-2h-7.28c-1.1,0-2,.9-2,2v7.28c0,1.1,.9,2,2,2Zm0,14.1h7.28c1.1,0,2-.9,2-2v-7.28c0-1.1-.9-2-2-2h-7.28c-1.1,0-2,.9-2,2v7.28c0,1.1,.9,2,2,2Zm0,42.29h7.28c1.1,0,2-.9,2-2v-7.28c0-1.1-.9-2-2-2h-7.28c-1.1,0-2,.9-2,2v7.28c0,1.1,.9,2,2,2Zm0,14.1h7.28c1.1,0,2-.9,2-2v-7.28c0-1.1-.9-2-2-2h-7.28c-1.1,0-2,.9-2,2v7.28c0,1.1,.9,2,2,2Zm0,14.1h7.28c1.1,0,2-.9,2-2v-7.28c0-1.1-.9-2-2-2h-7.28c-1.1,0-2,.9-2,2v7.28c0,1.1,.9,2,2,2Zm0,28.2h7.28c1.1,0,2-.9,2-2v-7.28c0-1.1-.9-2-2-2h-7.28c-1.1,0-2,.9-2,2v7.28c0,1.1,.9,2,2,2Zm0,14.1h7.28c1.1,0,2-.9,2-2v-7.28c0-1.1-.9-2-2-2h-7.28c-1.1,0-2,.9-2,2v7.28c0,1.1,.9,2,2,2Zm0,14.1h7.28c1.1,0,2-.9,2-2v-7.28c0-1.1-.9-2-2-2h-7.28c-1.1,0-2,.9-2,2v7.28c0,1.1,.9,2,2,2Zm0,28.2h7.28c1.1,0,2-.9,2-2v-7.28c0-1.1-.9-2-2-2h-7.28c-1.1,0-2,.9-2,2v7.28c0,1.1,.9,2,2,2Zm0,14.1h7.28c1.1,0,2-.9,2-2v-7.28c0-1.1-.9-2-2-2h-7.28c-1.1,0-2,.9-2,2v7.28c0,1.1,.9,2,2,2Zm0,28.2h7.28c1.1,0,2-.9,2-2v-7.28c0-1.1-.9-2-2-2h-7.28c-1.1,0-2,.9-2,2v7.28c0,1.1,.9,2,2,2Zm0,28.2h7.28c1.1,0,2-.9,2-2v-7.28c0-1.1-.9-2-2-2h-7.28c-1.1,0-2,.9-2,2v7.28c0,1.1,.9,2,2,2Zm0,14.1h7.28c1.1,0,2-.9,2-2v-7.28c0-1.1-.9-2-2-2h-7.28c-1.1,0-2,.9-2,2v7.28c0,1.1,.9,2,2,2ZM30.2,211.47h7.28c1.1,0,2-.9,2-2v-7.28c0-1.1-.9-2-2-2h-7.28c-1.1,0-2,.9-2,2v7.28c0,1.1,.9,2,2,2Zm0,14.1h7.28c1.1,0,2-.9,2-2v-7.28c0-1.1-.9-2-2-2h-7.28c-1.1,0-2,.9-2,2v7.28c0,1.1,.9,2,2,2Zm0,14.1h7.28c1.1,0,2-.9,2-2v-7.28c0-1.1-.9-2-2-2h-7.28c-1.1,0-2,.9-2,2v7.28c0,1.1,.9,2,2,2Zm0,14.1h7.28c1.1,0,2-.9,2-2v-7.28c0-1.1-.9-2-2-2h-7.28c-1.1,0-2,.9-2,2v7.28c0,1.1,.9,2,2,2Zm0,56.39h7.28c1.1,0,2-.9,2-2v-7.28c0-1.1-.9-2-2-2h-7.28c-1.1,0-2,.9-2,2v7.28c0,1.1,.9,2,2,2Zm0,14.1h7.28c1.1,0,2-.9,2-2v-7.28c0-1.1-.9-2-2-2h-7.28c-1.1,0-2,.9-2,2v7.28c0,1.1,.9,2,2,2Zm0,14.1h7.28c1.1,0,2-.9,2-2v-7.28c0-1.1-.9-2-2-2h-7.28c-1.1,0-2,.9-2,2v7.28c0,1.1,.9,2,2,2Zm0,14.1h7.28c1.1,0,2-.9,2-2v-7.28c0-1.1-.9-2-2-2h-7.28c-1.1,0-2,.9-2,2v7.28c0,1.1,.9,2,2,2Zm0,14.1h7.28c1.1,0,2-.9,2-2v-7.28c0-1.1-.9-2-2-2h-7.28c-1.1,0-2,.9-2,2v7.28c0,1.1,.9,2,2,2Zm0,28.2h7.28c1.1,0,2-.9,2-2v-7.28c0-1.1-.9-2-2-2h-7.28c-1.1,0-2,.9-2,2v7.28c0,1.1,.9,2,2,2Zm0,14.1h7.28c1.1,0,2-.9,2-2v-7.28c0-1.1-.9-2-2-2h-7.28c-1.1,0-2,.9-2,2v7.28c0,1.1,.9,2,2,2Zm0,14.1h7.28c1.1,0,2-.9,2-2v-7.28c0-1.1-.9-2-2-2h-7.28c-1.1,0-2,.9-2,2v7.28c0,1.1,.9,2,2,2Zm0,70.49h7.28c1.1,0,2-.9,2-2v-7.28c0-1.1-.9-2-2-2h-7.28c-1.1,0-2,.9-2,2v7.28c0,1.1,.9,2,2,2Zm0,28.2h7.28c1.1,0,2-.9,2-2v-7.28c0-1.1-.9-2-2-2h-7.28c-1.1,0-2,.9-2,2v7.28c0,1.1,.9,2,2,2Zm0,28.2h7.28c1.1,0,2-.9,2-2v-7.28c0-1.1-.9-2-2-2h-7.28c-1.1,0-2,.9-2,2v7.28c0,1.1,.9,2,2,2Zm0,42.29h7.28c1.1,0,2-.9,2-2v-7.28c0-1.1-.9-2-2-2h-7.28c-1.1,0-2,.9-2,2v7.28c0,1.1,.9,2,2,2Zm0,28.2h7.28c1.1,0,2-.9,2-2v-7.28c0-1.1-.9-2-2-2h-7.28c-1.1,0-2,.9-2,2v7.28c0,1.1,.9,2,2,2Zm0,28.2h7.28c1.1,0,2-.9,2-2v-7.28c0-1.1-.9-2-2-2h-7.28c-1.1,0-2,.9-2,2v7.28c0,1.1,.9,2,2,2ZM16.1,28.2h7.28c1.1,0,2-.9,2-2v-7.28c0-1.1-.9-2-2-2h-7.28c-1.1,0-2,.9-2,2v7.28c0,1.1,.9,2,2,2Zm0,14.1h7.28c1.1,0,2-.9,2-2v-7.28c0-1.1-.9-2-2-2h-7.28c-1.1,0-2,.9-2,2v7.28c0,1.1,.9,2,2,2Zm0,14.1h7.28c1.1,0,2-.9,2-2v-7.28c0-1.1-.9-2-2-2h-7.28c-1.1,0-2,.9-2,2v7.28c0,1.1,.9,2,2,2Zm0,14.1h7.28c1.1,0,2-.9,2-2v-7.28c0-1.1-.9-2-2-2h-7.28c-1.1,0-2,.9-2,2v7.28c0,1.1,.9,2,2,2Zm0,14.1h7.28c1.1,0,2-.9,2-2v-7.28c0-1.1-.9-2-2-2h-7.28c-1.1,0-2,.9-2,2v7.28c0,1.1,.9,2,2,2Zm0,14.1h7.28c1.1,0,2-.9,2-2v-7.28c0-1.1-.9-2-2-2h-7.28c-1.1,0-2,.9-2,2v7.28c0,1.1,.9,2,2,2Zm0,14.1h7.28c1.1,0,2-.9,2-2v-7.28c0-1.1-.9-2-2-2h-7.28c-1.1,0-2,.9-2,2v7.28c0,1.1,.9,2,2,2Zm0,14.1h7.28c1.1,0,2-.9,2-2v-7.28c0-1.1-.9-2-2-2h-7.28c-1.1,0-2,.9-2,2v7.28c0,1.1,.9,2,2,2Zm0,14.1h7.28c1.1,0,2-.9,2-2v-7.28c0-1.1-.9-2-2-2h-7.28c-1.1,0-2,.9-2,2v7.28c0,1.1,.9,2,2,2Zm0,14.1h7.28c1.1,0,2-.9,2-2v-7.28c0-1.1-.9-2-2-2h-7.28c-1.1,0-2,.9-2,2v7.28c0,1.1,.9,2,2,2Zm0,14.1h7.28c1.1,0,2-.9,2-2v-7.28c0-1.1-.9-2-2-2h-7.28c-1.1,0-2,.9-2,2v7.28c0,1.1,.9,2,2,2Zm0,14.1h7.28c1.1,0,2-.9,2-2v-7.28c0-1.1-.9-2-2-2h-7.28c-1.1,0-2,.9-2,2v7.28c0,1.1,.9,2,2,2Zm0,14.1h7.28c1.1,0,2-.9,2-2v-7.28c0-1.1-.9-2-2-2h-7.28c-1.1,0-2,.9-2,2v7.28c0,1.1,.9,2,2,2ZM2,29.61h7.28c1.1,0,2-.9,2-2v-7.28c0-1.1-.9-2-2-2H2C.9,18.33,0,19.22,0,20.33v7.28c0,1.1,.9,2,2,2Zm0-1.41h7.28c1.1,0,2-.9,2-2v-7.28c0-1.1-.9-2-2-2H2C.9,16.92,0,17.81,0,18.92v7.28c0,1.1,.9,2,2,2Zm0,14.1h7.28c1.1,0,2-.9,2-2v-7.28c0-1.1-.9-2-2-2H2C.9,31.01,0,31.91,0,33.01v7.28c0,1.1,.9,2,2,2Zm0,14.1h7.28c1.1,0,2-.9,2-2v-7.28c0-1.1-.9-2-2-2H2C.9,45.11,0,46.01,0,47.11v7.28c0,1.1,.9,2,2,2Zm0,14.1h7.28c1.1,0,2-.9,2-2v-7.28c0-1.1-.9-2-2-2H2C.9,59.21,0,60.11,0,61.21v7.28c0,1.1,.9,2,2,2Zm0,14.1h7.28c1.1,0,2-.9,2-2v-7.28c0-1.1-.9-2-2-2H2C.9,73.31,0,74.2,0,75.31v7.28c0,1.1,.9,2,2,2Zm0,14.1h7.28c1.1,0,2-.9,2-2v-7.28c0-1.1-.9-2-2-2H2C.9,87.41,0,88.3,0,89.41v7.28c0,1.1,.9,2,2,2Zm0,14.1h7.28c1.1,0,2-.9,2-2v-7.28c0-1.1-.9-2-2-2H2C.9,101.5,0,102.4,0,103.5v7.28c0,1.1,.9,2,2,2Zm0,14.1h7.28c1.1,0,2-.9,2-2v-7.28c0-1.1-.9-2-2-2H2C.9,115.6,0,116.5,0,117.6v7.28c0,1.1,.9,2,2,2Zm0,14.1h7.28c1.1,0,2-.9,2-2v-7.28c0-1.1-.9-2-2-2H2C.9,129.7,0,130.59,0,131.7v7.28c0,1.1,.9,2,2,2Zm0,14.1h7.28c1.1,0,2-.9,2-2v-7.28c0-1.1-.9-2-2-2H2C.9,143.8,0,144.69,0,145.8v7.28c0,1.1,.9,2,2,2Zm0,14.1h7.28c1.1,0,2-.9,2-2v-7.28c0-1.1-.9-2-2-2H2C.9,157.89,0,158.79,0,159.89v7.28c0,1.1,.9,2,2,2Zm0,14.1h7.28c1.1,0,2-.9,2-2v-7.28c0-1.1-.9-2-2-2H2C.9,171.99,0,172.89,0,173.99v7.28c0,1.1,.9,2,2,2Zm0,14.1h7.28c1.1,0,2-.9,2-2v-7.28c0-1.1-.9-2-2-2H2C.9,186.09,0,186.99,0,188.09v7.28c0,1.1,.9,2,2,2Zm14.1,14.1h7.28c1.1,0,2-.9,2-2v-7.28c0-1.1-.9-2-2-2h-7.28c-1.1,0-2,.9-2,2v7.28c0,1.1,.9,2,2,2Zm0,14.1h7.28c1.1,0,2-.9,2-2v-7.28c0-1.1-.9-2-2-2h-7.28c-1.1,0-2,.9-2,2v7.28c0,1.1,.9,2,2,2Zm0,14.1h7.28c1.1,0,2-.9,2-2v-7.28c0-1.1-.9-2-2-2h-7.28c-1.1,0-2,.9-2,2v7.28c0,1.1,.9,2,2,2Zm0,14.1h7.28c1.1,0,2-.9,2-2v-7.28c0-1.1-.9-2-2-2h-7.28c-1.1,0-2,.9-2,2v7.28c0,1.1,.9,2,2,2Zm0,28.2h7.28c1.1,0,2-.9,2-2v-7.28c0-1.1-.9-2-2-2h-7.28c-1.1,0-2,.9-2,2v7.28c0,1.1,.9,2,2,2Zm0,14.1h7.28c1.1,0,2-.9,2-2v-7.28c0-1.1-.9-2-2-2h-7.28c-1.1,0-2,.9-2,2v7.28c0,1.1,.9,2,2,2Zm0,14.1h7.28c1.1,0,2-.9,2-2v-7.28c0-1.1-.9-2-2-2h-7.28c-1.1,0-2,.9-2,2v7.28c0,1.1,.9,2,2,2Zm0,14.1h7.28c1.1,0,2-.9,2-2v-7.28c0-1.1-.9-2-2-2h-7.28c-1.1,0-2,.9-2,2v7.28c0,1.1,.9,2,2,2Zm0,70.49h7.28c1.1,0,2-.9,2-2v-7.28c0-1.1-.9-2-2-2h-7.28c-1.1,0-2,.9-2,2v7.28c0,1.1,.9,2,2,2Zm0,14.1h7.28c1.1,0,2-.9,2-2v-7.28c0-1.1-.9-2-2-2h-7.28c-1.1,0-2,.9-2,2v7.28c0,1.1,.9,2,2,2Zm0,14.1h7.28c1.1,0,2-.9,2-2v-7.28c0-1.1-.9-2-2-2h-7.28c-1.1,0-2,.9-2,2v7.28c0,1.1,.9,2,2,2Zm0,14.1h7.28c1.1,0,2-.9,2-2v-7.28c0-1.1-.9-2-2-2h-7.28c-1.1,0-2,.9-2,2v7.28c0,1.1,.9,2,2,2Zm0,28.2h7.28c1.1,0,2-.9,2-2v-7.28c0-1.1-.9-2-2-2h-7.28c-1.1,0-2,.9-2,2v7.28c0,1.1,.9,2,2,2Zm0,14.1h7.28c1.1,0,2-.9,2-2v-7.28c0-1.1-.9-2-2-2h-7.28c-1.1,0-2,.9-2,2v7.28c0,1.1,.9,2,2,2Zm0,14.1h7.28c1.1,0,2-.9,2-2v-7.28c0-1.1-.9-2-2-2h-7.28c-1.1,0-2,.9-2,2v7.28c0,1.1,.9,2,2,2Zm0,14.1h7.28c1.1,0,2-.9,2-2v-7.28c0-1.1-.9-2-2-2h-7.28c-1.1,0-2,.9-2,2v7.28c0,1.1,.9,2,2,2Zm0,42.29h7.28c1.1,0,2-.9,2-2v-7.28c0-1.1-.9-2-2-2h-7.28c-1.1,0-2,.9-2,2v7.28c0,1.1,.9,2,2,2Zm0,14.1h7.28c1.1,0,2-.9,2-2v-7.28c0-1.1-.9-2-2-2h-7.28c-1.1,0-2,.9-2,2v7.28c0,1.1,.9,2,2,2Zm0,14.1h7.28c1.1,0,2-.9,2-2v-7.28c0-1.1-.9-2-2-2h-7.28c-1.1,0-2,.9-2,2v7.28c0,1.1,.9,2,2,2Zm0,14.1h7.28c1.1,0,2-.9,2-2v-7.28c0-1.1-.9-2-2-2h-7.28c-1.1,0-2,.9-2,2v7.28c0,1.1,.9,2,2,2Zm0,14.1h7.28c1.1,0,2-.9,2-2v-7.28c0-1.1-.9-2-2-2h-7.28c-1.1,0-2,.9-2,2v7.28c0,1.1,.9,2,2,2Zm0,28.2h7.28c1.1,0,2-.9,2-2v-7.28c0-1.1-.9-2-2-2h-7.28c-1.1,0-2,.9-2,2v7.28c0,1.1,.9,2,2,2ZM2,211.47h7.28c1.1,0,2-.9,2-2v-7.28c0-1.1-.9-2-2-2H2C.9,200.19,0,201.08,0,202.19v7.28c0,1.1,.9,2,2,2Zm0,14.1h7.28c1.1,0,2-.9,2-2v-7.28c0-1.1-.9-2-2-2H2C.9,214.29,0,215.18,0,216.29v7.28c0,1.1,.9,2,2,2Zm0,14.1h7.28c1.1,0,2-.9,2-2v-7.28c0-1.1-.9-2-2-2H2C.9,228.38,0,229.28,0,230.38v7.28c0,1.1,.9,2,2,2Zm0,14.1h7.28c1.1,0,2-.9,2-2v-7.28c0-1.1-.9-2-2-2H2C.9,242.48,0,243.38,0,244.48v7.28c0,1.1,.9,2,2,2Zm0,28.2h7.28c1.1,0,2-.9,2-2v-7.28c0-1.1-.9-2-2-2H2c-1.1,0-2,.9-2,2v7.28c0,1.1,.9,2,2,2Zm0,14.1h7.28c1.1,0,2-.9,2-2v-7.28c0-1.1-.9-2-2-2H2c-1.1,0-2,.9-2,2v7.28c0,1.1,.9,2,2,2Zm0,14.1h7.28c1.1,0,2-.9,2-2v-7.28c0-1.1-.9-2-2-2H2c-1.1,0-2,.9-2,2v7.28c0,1.1,.9,2,2,2Zm0,14.1h7.28c1.1,0,2-.9,2-2v-7.28c0-1.1-.9-2-2-2H2c-1.1,0-2,.9-2,2v7.28c0,1.1,.9,2,2,2Zm0,14.1h7.28c1.1,0,2-.9,2-2v-7.28c0-1.1-.9-2-2-2H2c-1.1,0-2,.9-2,2v7.28c0,1.1,.9,2,2,2Zm0,42.29h7.28c1.1,0,2-.9,2-2v-7.28c0-1.1-.9-2-2-2H2c-1.1,0-2,.9-2,2v7.28c0,1.1,.9,2,2,2Zm0,14.1h7.28c1.1,0,2-.9,2-2v-7.28c0-1.1-.9-2-2-2H2C.9,383.46,0,384.35,0,385.46v7.28c0,1.1,.9,2,2,2Zm0,14.1h7.28c1.1,0,2-.9,2-2v-7.28c0-1.1-.9-2-2-2H2C.9,397.56,0,398.45,0,399.56v7.28c0,1.1,.9,2,2,2Zm0,14.1h7.28c1.1,0,2-.9,2-2v-7.28c0-1.1-.9-2-2-2H2C.9,411.65,0,412.55,0,413.65v7.28c0,1.1,.9,2,2,2Zm0,14.1h7.28c1.1,0,2-.9,2-2v-7.28c0-1.1-.9-2-2-2H2C.9,425.75,0,426.65,0,427.75v7.28c0,1.1,.9,2,2,2Zm0,28.2h7.28c1.1,0,2-.9,2-2v-7.28c0-1.1-.9-2-2-2H2C.9,453.95,0,454.84,0,455.95v7.28c0,1.1,.9,2,2,2Zm0,14.1h7.28c1.1,0,2-.9,2-2v-7.28c0-1.1-.9-2-2-2H2C.9,468.04,0,468.94,0,470.04v7.28c0,1.1,.9,2,2,2Zm0,14.1h7.28c1.1,0,2-.9,2-2v-7.28c0-1.1-.9-2-2-2H2C.9,482.14,0,483.04,0,484.14v7.28c0,1.1,.9,2,2,2Zm0,84.59h7.28c1.1,0,2-.9,2-2v-7.28c0-1.1-.9-2-2-2H2c-1.1,0-2,.9-2,2v7.28c0,1.1,.9,2,2,2Zm0,14.1h7.28c1.1,0,2-.9,2-2v-7.28c0-1.1-.9-2-2-2H2c-1.1,0-2,.9-2,2v7.28c0,1.1,.9,2,2,2Zm0,14.1h7.28c1.1,0,2-.9,2-2v-7.28c0-1.1-.9-2-2-2H2c-1.1,0-2,.9-2,2v7.28c0,1.1,.9,2,2,2Zm0,14.1h7.28c1.1,0,2-.9,2-2v-7.28c0-1.1-.9-2-2-2H2c-1.1,0-2,.9-2,2v7.28c0,1.1,.9,2,2,2Zm0,14.1h7.28c1.1,0,2-.9,2-2v-7.28c0-1.1-.9-2-2-2H2C.9,623.12,0,624.01,0,625.12v7.28c0,1.1,.9,2,2,2Zm0,28.2h7.28c1.1,0,2-.9,2-2v-7.28c0-1.1-.9-2-2-2H2C.9,651.31,0,652.21,0,653.31v7.28c0,1.1,.9,2,2,2ZM830.01,14.1h7.28c1.1,0,2-.9,2-2V4.82c0-1.1-.9-2-2-2h-7.28c-1.1,0-2,.9-2,2v7.28c0,1.1,.9,2,2,2Zm28.2,14.1h7.28c1.1,0,2-.9,2-2v-7.28c0-1.1-.9-2-2-2h-7.28c-1.1,0-2,.9-2,2v7.28c0,1.1,.9,2,2,2Zm-14.1,14.1h7.28c1.1,0,2-.9,2-2v-7.28c0-1.1-.9-2-2-2h-7.28c-1.1,0-2,.9-2,2v7.28c0,1.1,.9,2,2,2Zm126.88,0h7.28c1.1,0,2-.9,2-2v-7.28c0-1.1-.9-2-2-2h-7.28c-1.1,0-2,.9-2,2v7.28c0,1.1,.9,2,2,2Zm-140.98-14.1h7.28c1.1,0,2-.9,2-2v-7.28c0-1.1-.9-2-2-2h-7.28c-1.1,0-2,.9-2,2v7.28c0,1.1,.9,2,2,2Zm-28.2,0h7.28c1.1,0,2-.9,2-2v-7.28c0-1.1-.9-2-2-2h-7.28c-1.1,0-2,.9-2,2v7.28c0,1.1,.9,2,2,2Zm42.29,42.29h7.28c1.1,0,2-.9,2-2v-7.28c0-1.1-.9-2-2-2h-7.28c-1.1,0-2,.9-2,2v7.28c0,1.1,.9,2,2,2Zm183.27-56.39h7.28c1.1,0,2-.9,2-2V4.82c0-1.1-.9-2-2-2h-7.28c-1.1,0-2,.9-2,2v7.28c0,1.1,.9,2,2,2Zm112.78,0h7.28c1.1,0,2-.9,2-2V4.82c0-1.1-.9-2-2-2h-7.28c-1.1,0-2,.9-2,2v7.28c0,1.1,.9,2,2,2Zm-28.2,0h7.28c1.1,0,2-.9,2-2V4.82c0-1.1-.9-2-2-2h-7.28c-1.1,0-2,.9-2,2v7.28c0,1.1,.9,2,2,2Zm42.29,0h7.28c1.1,0,2-.9,2-2V4.82c0-1.1-.9-2-2-2h-7.28c-1.1,0-2,.9-2,2v7.28c0,1.1,.9,2,2,2Zm84.59,0h7.28c1.1,0,2-.9,2-2V4.82c0-1.1-.9-2-2-2h-7.28c-1.1,0-2,.9-2,2v7.28c0,1.1,.9,2,2,2Zm-14.1,0h7.28c1.1,0,2-.9,2-2V4.82c0-1.1-.9-2-2-2h-7.28c-1.1,0-2,.9-2,2v7.28c0,1.1,.9,2,2,2Zm-28.2,0h7.28c1.1,0,2-.9,2-2V4.82c0-1.1-.9-2-2-2h-7.28c-1.1,0-2,.9-2,2v7.28c0,1.1,.9,2,2,2Zm0,28.2h7.28c1.1,0,2-.9,2-2v-7.28c0-1.1-.9-2-2-2h-7.28c-1.1,0-2,.9-2,2v7.28c0,1.1,.9,2,2,2Zm-56.39-14.1h7.28c1.1,0,2-.9,2-2v-7.28c0-1.1-.9-2-2-2h-7.28c-1.1,0-2,.9-2,2v7.28c0,1.1,.9,2,2,2Zm-169.17-14.1h7.28c1.1,0,2-.9,2-2V4.82c0-1.1-.9-2-2-2h-7.28c-1.1,0-2,.9-2,2v7.28c0,1.1,.9,2,2,2Zm-42.29,0h7.28c1.1,0,2-.9,2-2V4.82c0-1.1-.9-2-2-2h-7.28c-1.1,0-2,.9-2,2v7.28c0,1.1,.9,2,2,2Zm0,14.1h7.28c1.1,0,2-.9,2-2v-7.28c0-1.1-.9-2-2-2h-7.28c-1.1,0-2,.9-2,2v7.28c0,1.1,.9,2,2,2Zm-28.2-14.1h7.28c1.1,0,2-.9,2-2V4.82c0-1.1-.9-2-2-2h-7.28c-1.1,0-2,.9-2,2v7.28c0,1.1,.9,2,2,2ZM460.4,2.82h-7.28c-1.1,0-2,.9-2,2v7.28c0,1.1,.9,2,2,2h7.28c1.1,0,2-.9,2-2V4.82c0-1.1-.9-2-2-2Zm-14.1,0h-7.28c-1.1,0-2,.9-2,2v7.28c0,1.1,.9,2,2,2h7.28c1.1,0,2-.9,2-2V4.82c0-1.1-.9-2-2-2Zm-14.1,0h-7.28c-1.1,0-2,.9-2,2v7.28c0,1.1,.9,2,2,2h7.28c1.1,0,2-.9,2-2V4.82c0-1.1-.9-2-2-2Z" style="fill:none;"></path></clipPath><linearGradient id="linear-gradient" x1="525.34" y1="517.02" x2="978.09" y2="-231.32" gradientTransform="translate(0 -2.82)" gradientUnits="userSpaceOnUse"><stop offset="0" stop-color="#e6e6e6"></stop><stop offset=".19" stop-color="#bec8cf"></stop><stop offset=".41" stop-color="#96abb9"></stop><stop offset=".58" stop-color="#7e98ac"></stop><stop offset=".69" stop-color="#7592a7"></stop></linearGradient></defs><g id="Layer_2"><rect width="1248.12" height="702.07" style="fill:#222d35;"></rect><rect width="1248.12" height="702.07" style="fill:#222d35;"></rect></g><g id="Layer_3"><rect x="813.91" y="2.82" width="11.28" height="11.28" rx="2" ry="2" transform="translate(828.01 -811.09) rotate(90)" style="fill:#dfeaef;"></rect></g><g id="Layer_4"><g style="clip-path:url(#clippath-1);"><rect width="1248.12" height="702.07" transform="translate(1248.12 702.07) rotate(180)" style="fill:url(#linear-gradient);"></rect></g></g></svg>