<svg xmlns="http://www.w3.org/2000/svg" xmlns:xlink="http://www.w3.org/1999/xlink" viewBox="0 0 1248.12 702.07"><defs><clipPath id="clippath"><path d="M507.52,700.07v-7.28c0-1.1,.9-2,2-2h7.28c1.1,0,2,.9,2,2v7.28c0,1.1-.9,2-2,2h-7.28c-1.1,0-2-.9-2-2Zm72.49-12.1h7.28c1.1,0,2-.9,2-2v-7.28c0-1.1-.9-2-2-2h-7.28c-1.1,0-2,.9-2,2v7.28c0,1.1,.9,2,2,2Zm-14.1,0h7.28c1.1,0,2-.9,2-2v-7.28c0-1.1-.9-2-2-2h-7.28c-1.1,0-2,.9-2,2v7.28c0,1.1,.9,2,2,2Zm109.02,14.1h7.28c1.1,0,2-.9,2-2v-7.28c0-1.1-.9-2-2-2h-7.28c-1.1,0-2,.9-2,2v7.28c0,1.1,.9,2,2,2Zm-28.2-28.2h7.28c1.1,0,2-.9,2-2v-7.28c0-1.1-.9-2-2-2h-7.28c-1.1,0-2,.9-2,2v7.28c0,1.1,.9,2,2,2Zm0,14.1h7.28c1.1,0,2-.9,2-2v-7.28c0-1.1-.9-2-2-2h-7.28c-1.1,0-2,.9-2,2v7.28c0,1.1,.9,2,2,2Zm0-28.2h7.28c1.1,0,2-.9,2-2v-7.28c0-1.1-.9-2-2-2h-7.28c-1.1,0-2,.9-2,2v7.28c0,1.1,.9,2,2,2Zm-14.1,14.1h7.28c1.1,0,2-.9,2-2v-7.28c0-1.1-.9-2-2-2h-7.28c-1.1,0-2,.9-2,2v7.28c0,1.1,.9,2,2,2Zm-14.1,28.2h7.28c1.1,0,2-.9,2-2v-7.28c0-1.1-.9-2-2-2h-7.28c-1.1,0-2,.9-2,2v7.28c0,1.1,.9,2,2,2Zm70.49,0h7.28c1.1,0,2-.9,2-2v-7.28c0-1.1-.9-2-2-2h-7.28c-1.1,0-2,.9-2,2v7.28c0,1.1,.9,2,2,2Zm70.49-62.03h7.28c1.1,0,2-.9,2-2v-7.28c0-1.1-.9-2-2-2h-7.28c-1.1,0-2,.9-2,2v7.28c0,1.1,.9,2,2,2Zm0,28.2h7.28c1.1,0,2-.9,2-2v-7.28c0-1.1-.9-2-2-2h-7.28c-1.1,0-2,.9-2,2v7.28c0,1.1,.9,2,2,2Zm-250,19.74h7.28c1.1,0,2-.9,2-2v-7.28c0-1.1-.9-2-2-2h-7.28c-1.1,0-2,.9-2,2v7.28c0,1.1,.9,2,2,2Zm221.8-56.39h7.28c1.1,0,2-.9,2-2v-7.28c0-1.1-.9-2-2-2h-7.28c-1.1,0-2,.9-2,2v7.28c0,1.1,.9,2,2,2Zm-28.2-14.1h7.28c1.1,0,2-.9,2-2v-7.28c0-1.1-.9-2-2-2h-7.28c-1.1,0-2,.9-2,2v7.28c0,1.1,.9,2,2,2Zm14.1,70.49h7.28c1.1,0,2-.9,2-2v-7.28c0-1.1-.9-2-2-2h-7.28c-1.1,0-2,.9-2,2v7.28c0,1.1,.9,2,2,2Zm0-14.1h7.28c1.1,0,2-.9,2-2v-7.28c0-1.1-.9-2-2-2h-7.28c-1.1,0-2,.9-2,2v7.28c0,1.1,.9,2,2,2Zm-14.1,28.2h7.28c1.1,0,2-.9,2-2v-7.28c0-1.1-.9-2-2-2h-7.28c-1.1,0-2,.9-2,2v7.28c0,1.1,.9,2,2,2Zm-235.9,0h7.28c1.1,0,2-.9,2-2v-7.28c0-1.1-.9-2-2-2h-7.28c-1.1,0-2,.9-2,2v7.28c0,1.1,.9,2,2,2Zm-84.59,0h7.28c1.1,0,2-.9,2-2v-7.28c0-1.1-.9-2-2-2h-7.28c-1.1,0-2,.9-2,2v7.28c0,1.1,.9,2,2,2Zm84.59-28.2h7.28c1.1,0,2-.9,2-2v-7.28c0-1.1-.9-2-2-2h-7.28c-1.1,0-2,.9-2,2v7.28c0,1.1,.9,2,2,2Zm105.96-11.28h-7.28c-1.1,0-2,.9-2,2v7.28c0,1.1,.9,2,2,2h7.28c1.1,0,2-.9,2-2v-7.28c0-1.1-.9-2-2-2Zm-35.47,39.47h7.28c1.1,0,2-.9,2-2v-7.28c0-1.1-.9-2-2-2h-7.28c-1.1,0-2,.9-2,2v7.28c0,1.1,.9,2,2,2Zm14.1,0h7.28c1.1,0,2-.9,2-2v-7.28c0-1.1-.9-2-2-2h-7.28c-1.1,0-2,.9-2,2v7.28c0,1.1,.9,2,2,2Zm14.1,0h7.28c1.1,0,2-.9,2-2v-7.28c0-1.1-.9-2-2-2h-7.28c-1.1,0-2,.9-2,2v7.28c0,1.1,.9,2,2,2Zm21.38-11.28h-7.28c-1.1,0-2,.9-2,2v7.28c0,1.1,.9,2,2,2h7.28c1.1,0,2-.9,2-2v-7.28c0-1.1-.9-2-2-2Zm-84.59,0h-7.28c-1.1,0-2,.9-2,2v7.28c0,1.1,.9,2,2,2h7.28c1.1,0,2-.9,2-2v-7.28c0-1.1-.9-2-2-2Zm-84.59,0h-7.28c-1.1,0-2,.9-2,2v7.28c0,1.1,.9,2,2,2h7.28c1.1,0,2-.9,2-2v-7.28c0-1.1-.9-2-2-2Zm-28.2-14.1h-7.28c-1.1,0-2,.9-2,2v7.28c0,1.1,.9,2,2,2h7.28c1.1,0,2-.9,2-2v-7.28c0-1.1-.9-2-2-2Zm14.1-14.1h-7.28c-1.1,0-2,.9-2,2v7.28c0,1.1,.9,2,2,2h7.28c1.1,0,2-.9,2-2v-7.28c0-1.1-.9-2-2-2Zm-126.88,0h-7.28c-1.1,0-2,.9-2,2v7.28c0,1.1,.9,2,2,2h7.28c1.1,0,2-.9,2-2v-7.28c0-1.1-.9-2-2-2Zm-267.86,0H2c-1.1,0-2,.9-2,2v7.28c0,1.1,.9,2,2,2h7.28c1.1,0,2-.9,2-2v-7.28c0-1.1-.9-2-2-2Zm408.83,14.1h-7.28c-1.1,0-2,.9-2,2v7.28c0,1.1,.9,2,2,2h7.28c1.1,0,2-.9,2-2v-7.28c0-1.1-.9-2-2-2Zm28.2,0h-7.28c-1.1,0-2,.9-2,2v7.28c0,1.1,.9,2,2,2h7.28c1.1,0,2-.9,2-2v-7.28c0-1.1-.9-2-2-2Zm-14.1,14.1h-7.28c-1.1,0-2,.9-2,2v7.28c0,1.1,.9,2,2,2h7.28c1.1,0,2-.9,2-2v-7.28c0-1.1-.9-2-2-2Zm-211.47,0h-7.28c-1.1,0-2,.9-2,2v7.28c0,1.1,.9,2,2,2h7.28c1.1,0,2-.9,2-2v-7.28c0-1.1-.9-2-2-2Zm-112.78,0h-7.28c-1.1,0-2,.9-2,2v7.28c0,1.1,.9,2,2,2h7.28c1.1,0,2-.9,2-2v-7.28c0-1.1-.9-2-2-2Zm28.2,0h-7.28c-1.1,0-2,.9-2,2v7.28c0,1.1,.9,2,2,2h7.28c1.1,0,2-.9,2-2v-7.28c0-1.1-.9-2-2-2Zm-42.29,0h-7.28c-1.1,0-2,.9-2,2v7.28c0,1.1,.9,2,2,2h7.28c1.1,0,2-.9,2-2v-7.28c0-1.1-.9-2-2-2Zm-84.59,0H2c-1.1,0-2,.9-2,2v7.28c0,1.1,.9,2,2,2h7.28c1.1,0,2-.9,2-2v-7.28c0-1.1-.9-2-2-2Zm14.1,0h-7.28c-1.1,0-2,.9-2,2v7.28c0,1.1,.9,2,2,2h7.28c1.1,0,2-.9,2-2v-7.28c0-1.1-.9-2-2-2Zm28.2,0h-7.28c-1.1,0-2,.9-2,2v7.28c0,1.1,.9,2,2,2h7.28c1.1,0,2-.9,2-2v-7.28c0-1.1-.9-2-2-2Zm0-28.2h-7.28c-1.1,0-2,.9-2,2v7.28c0,1.1,.9,2,2,2h7.28c1.1,0,2-.9,2-2v-7.28c0-1.1-.9-2-2-2Zm-42.29,14.1H2c-1.1,0-2,.9-2,2v7.28c0,1.1,.9,2,2,2h7.28c1.1,0,2-.9,2-2v-7.28c0-1.1-.9-2-2-2Zm267.86,14.1h-7.28c-1.1,0-2,.9-2,2v7.28c0,1.1,.9,2,2,2h7.28c1.1,0,2-.9,2-2v-7.28c0-1.1-.9-2-2-2Zm42.29,0h-7.28c-1.1,0-2,.9-2,2v7.28c0,1.1,.9,2,2,2h7.28c1.1,0,2-.9,2-2v-7.28c0-1.1-.9-2-2-2Zm0-14.1h-7.28c-1.1,0-2,.9-2,2v7.28c0,1.1,.9,2,2,2h7.28c1.1,0,2-.9,2-2v-7.28c0-1.1-.9-2-2-2Zm28.2,14.1h-7.28c-1.1,0-2,.9-2,2v7.28c0,1.1,.9,2,2,2h7.28c1.1,0,2-.9,2-2v-7.28c0-1.1-.9-2-2-2ZM754.7,93.86v-7.28c0-1.1-.9-2-2-2h-7.28c-1.1,0-2,.9-2,2v7.28c0,1.1,.9,2,2,2h7.28c1.1,0,2-.9,2-2Zm14.1-56.39v-7.28c0-1.1-.9-2-2-2h-7.28c-1.1,0-2,.9-2,2v7.28c0,1.1,.9,2,2,2h7.28c1.1,0,2-.9,2-2Zm14.1,42.29v-7.28c0-1.1-.9-2-2-2h-7.28c-1.1,0-2,.9-2,2v7.28c0,1.1,.9,2,2,2h7.28c1.1,0,2-.9,2-2Zm0,98.68v-7.28c0-1.1-.9-2-2-2h-7.28c-1.1,0-2,.9-2,2v7.28c0,1.1,.9,2,2,2h7.28c1.1,0,2-.9,2-2Zm14.1-169.17V2C796.99,.9,796.09,0,794.99,0h-7.28c-1.1,0-2,.9-2,2v7.28c0,1.1,.9,2,2,2h7.28c1.1,0,2-.9,2-2Zm14.1,84.59v-7.28c0-1.1-.9-2-2-2h-7.28c-1.1,0-2,.9-2,2v7.28c0,1.1,.9,2,2,2h7.28c1.1,0,2-.9,2-2Zm0,70.49v-7.28c0-1.1-.9-2-2-2h-7.28c-1.1,0-2,.9-2,2v7.28c0,1.1,.9,2,2,2h7.28c1.1,0,2-.9,2-2Zm14.1-140.98v-7.28c0-1.1-.9-2-2-2h-7.28c-1.1,0-2,.9-2,2v7.28c0,1.1,.9,2,2,2h7.28c1.1,0,2-.9,2-2Zm0,155.07v-7.28c0-1.1-.9-2-2-2h-7.28c-1.1,0-2,.9-2,2v7.28c0,1.1,.9,2,2,2h7.28c1.1,0,2-.9,2-2Zm14.1-126.88v-7.28c0-1.1-.9-2-2-2h-7.28c-1.1,0-2,.9-2,2v7.28c0,1.1,.9,2,2,2h7.28c1.1,0,2-.9,2-2Zm0,98.68v-7.28c0-1.1-.9-2-2-2h-7.28c-1.1,0-2,.9-2,2v7.28c0,1.1,.9,2,2,2h7.28c1.1,0,2-.9,2-2Zm14.1-140.98V2C853.38,.9,852.49,0,851.38,0h-7.28c-1.1,0-2,.9-2,2v7.28c0,1.1,.9,2,2,2h7.28c1.1,0,2-.9,2-2Zm0,56.39v-7.28c0-1.1-.9-2-2-2h-7.28c-1.1,0-2,.9-2,2v7.28c0,1.1,.9,2,2,2h7.28c1.1,0,2-.9,2-2Zm0,70.49v-7.28c0-1.1-.9-2-2-2h-7.28c-1.1,0-2,.9-2,2v7.28c0,1.1,.9,2,2,2h7.28c1.1,0,2-.9,2-2Zm0,28.2v-7.28c0-1.1-.9-2-2-2h-7.28c-1.1,0-2,.9-2,2v7.28c0,1.1,.9,2,2,2h7.28c1.1,0,2-.9,2-2Zm14.1-126.88v-7.28c0-1.1-.9-2-2-2h-7.28c-1.1,0-2,.9-2,2v7.28c0,1.1,.9,2,2,2h7.28c1.1,0,2-.9,2-2Zm0,28.2v-7.28c0-1.1-.9-2-2-2h-7.28c-1.1,0-2,.9-2,2v7.28c0,1.1,.9,2,2,2h7.28c1.1,0,2-.9,2-2Zm0,70.49v-7.28c0-1.1-.9-2-2-2h-7.28c-1.1,0-2,.9-2,2v7.28c0,1.1,.9,2,2,2h7.28c1.1,0,2-.9,2-2Zm0,56.39v-7.28c0-1.1-.9-2-2-2h-7.28c-1.1,0-2,.9-2,2v7.28c0,1.1,.9,2,2,2h7.28c1.1,0,2-.9,2-2Zm14.1-169.17v-7.28c0-1.1-.9-2-2-2h-7.28c-1.1,0-2,.9-2,2v7.28c0,1.1,.9,2,2,2h7.28c1.1,0,2-.9,2-2Zm0,56.39v-7.28c0-1.1-.9-2-2-2h-7.28c-1.1,0-2,.9-2,2v7.28c0,1.1,.9,2,2,2h7.28c1.1,0,2-.9,2-2Zm0,42.29v-7.28c0-1.1-.9-2-2-2h-7.28c-1.1,0-2,.9-2,2v7.28c0,1.1,.9,2,2,2h7.28c1.1,0,2-.9,2-2Zm-152.26-77.77v7.28c0,1.1,.9,2,2,2h7.28c1.1,0,2-.9,2-2v-7.28c0-1.1-.9-2-2-2h-7.28c-1.1,0-2,.9-2,2Zm-14.1,56.39v7.28c0,1.1,.9,2,2,2h7.28c1.1,0,2-.9,2-2v-7.28c0-1.1-.9-2-2-2h-7.28c-1.1,0-2,.9-2,2Zm0-84.59v7.28c0,1.1,.9,2,2,2h7.28c1.1,0,2-.9,2-2v-7.28c0-1.1-.9-2-2-2h-7.28c-1.1,0-2,.9-2,2Zm-28.2,56.39v7.28c0,1.1,.9,2,2,2h7.28c1.1,0,2-.9,2-2v-7.28c0-1.1-.9-2-2-2h-7.28c-1.1,0-2,.9-2,2Zm-28.2-56.39v7.28c0,1.1,.9,2,2,2h7.28c1.1,0,2-.9,2-2v-7.28c0-1.1-.9-2-2-2h-7.28c-1.1,0-2,.9-2,2Zm-56.39,0v7.28c0,1.1,.9,2,2,2h7.28c1.1,0,2-.9,2-2v-7.28c0-1.1-.9-2-2-2h-7.28c-1.1,0-2,.9-2,2Zm279.13,148.26v-7.28c0-1.1-.9-2-2-2h-7.28c-1.1,0-2,.9-2,2v7.28c0,1.1,.9,2,2,2h7.28c1.1,0,2-.9,2-2Zm14.1-155.07V2C895.67,.9,894.78,0,893.67,0h-7.28c-1.1,0-2,.9-2,2v7.28c0,1.1,.9,2,2,2h7.28c1.1,0,2-.9,2-2Zm0,14.1v-7.28c0-1.1-.9-2-2-2h-7.28c-1.1,0-2,.9-2,2v7.28c0,1.1,.9,2,2,2h7.28c1.1,0,2-.9,2-2Zm0,84.59v-7.28c0-1.1-.9-2-2-2h-7.28c-1.1,0-2,.9-2,2v7.28c0,1.1,.9,2,2,2h7.28c1.1,0,2-.9,2-2Zm0,70.49v-7.28c0-1.1-.9-2-2-2h-7.28c-1.1,0-2,.9-2,2v7.28c0,1.1,.9,2,2,2h7.28c1.1,0,2-.9,2-2Zm14.1-112.78v-7.28c0-1.1-.9-2-2-2h-7.28c-1.1,0-2,.9-2,2v7.28c0,1.1,.9,2,2,2h7.28c1.1,0,2-.9,2-2Zm0,84.59v-7.28c0-1.1-.9-2-2-2h-7.28c-1.1,0-2,.9-2,2v7.28c0,1.1,.9,2,2,2h7.28c1.1,0,2-.9,2-2Zm0,14.1v-7.28c0-1.1-.9-2-2-2h-7.28c-1.1,0-2,.9-2,2v7.28c0,1.1,.9,2,2,2h7.28c1.1,0,2-.9,2-2Zm14.1-155.07V2C923.87,.9,922.97,0,921.87,0h-7.28c-1.1,0-2,.9-2,2v7.28c0,1.1,.9,2,2,2h7.28c1.1,0,2-.9,2-2Zm0,42.29v-7.28c0-1.1-.9-2-2-2h-7.28c-1.1,0-2,.9-2,2v7.28c0,1.1,.9,2,2,2h7.28c1.1,0,2-.9,2-2Zm0,42.29v-7.28c0-1.1-.9-2-2-2h-7.28c-1.1,0-2,.9-2,2v7.28c0,1.1,.9,2,2,2h7.28c1.1,0,2-.9,2-2Zm0,28.2v-7.28c0-1.1-.9-2-2-2h-7.28c-1.1,0-2,.9-2,2v7.28c0,1.1,.9,2,2,2h7.28c1.1,0,2-.9,2-2Zm0,28.2v-7.28c0-1.1-.9-2-2-2h-7.28c-1.1,0-2,.9-2,2v7.28c0,1.1,.9,2,2,2h7.28c1.1,0,2-.9,2-2Zm0,14.1v-7.28c0-1.1-.9-2-2-2h-7.28c-1.1,0-2,.9-2,2v7.28c0,1.1,.9,2,2,2h7.28c1.1,0,2-.9,2-2Zm14.1-140.98v-7.28c0-1.1-.9-2-2-2h-7.28c-1.1,0-2,.9-2,2v7.28c0,1.1,.9,2,2,2h7.28c1.1,0,2-.9,2-2Zm0,14.1v-7.28c0-1.1-.9-2-2-2h-7.28c-1.1,0-2,.9-2,2v7.28c0,1.1,.9,2,2,2h7.28c1.1,0,2-.9,2-2Zm0,28.2v-7.28c0-1.1-.9-2-2-2h-7.28c-1.1,0-2,.9-2,2v7.28c0,1.1,.9,2,2,2h7.28c1.1,0,2-.9,2-2Zm0,42.29v-7.28c0-1.1-.9-2-2-2h-7.28c-1.1,0-2,.9-2,2v7.28c0,1.1,.9,2,2,2h7.28c1.1,0,2-.9,2-2Zm0,42.29v-7.28c0-1.1-.9-2-2-2h-7.28c-1.1,0-2,.9-2,2v7.28c0,1.1,.9,2,2,2h7.28c1.1,0,2-.9,2-2Zm0,28.2v-7.28c0-1.1-.9-2-2-2h-7.28c-1.1,0-2,.9-2,2v7.28c0,1.1,.9,2,2,2h7.28c1.1,0,2-.9,2-2Zm14.1-155.07v-7.28c0-1.1-.9-2-2-2h-7.28c-1.1,0-2,.9-2,2v7.28c0,1.1,.9,2,2,2h7.28c1.1,0,2-.9,2-2Zm0,28.2v-7.28c0-1.1-.9-2-2-2h-7.28c-1.1,0-2,.9-2,2v7.28c0,1.1,.9,2,2,2h7.28c1.1,0,2-.9,2-2Zm0,42.29v-7.28c0-1.1-.9-2-2-2h-7.28c-1.1,0-2,.9-2,2v7.28c0,1.1,.9,2,2,2h7.28c1.1,0,2-.9,2-2Zm0,14.1v-7.28c0-1.1-.9-2-2-2h-7.28c-1.1,0-2,.9-2,2v7.28c0,1.1,.9,2,2,2h7.28c1.1,0,2-.9,2-2Zm0,28.2v-7.28c0-1.1-.9-2-2-2h-7.28c-1.1,0-2,.9-2,2v7.28c0,1.1,.9,2,2,2h7.28c1.1,0,2-.9,2-2Zm0,42.29v-7.28c0-1.1-.9-2-2-2h-7.28c-1.1,0-2,.9-2,2v7.28c0,1.1,.9,2,2,2h7.28c1.1,0,2-.9,2-2Zm0,14.1v-7.28c0-1.1-.9-2-2-2h-7.28c-1.1,0-2,.9-2,2v7.28c0,1.1,.9,2,2,2h7.28c1.1,0,2-.9,2-2Zm14.1-183.27V2C966.16,.9,965.27,0,964.16,0h-7.28c-1.1,0-2,.9-2,2v7.28c0,1.1,.9,2,2,2h7.28c1.1,0,2-.9,2-2Zm0,14.1v-7.28c0-1.1-.9-2-2-2h-7.28c-1.1,0-2,.9-2,2v7.28c0,1.1,.9,2,2,2h7.28c1.1,0,2-.9,2-2Zm0,14.1v-7.28c0-1.1-.9-2-2-2h-7.28c-1.1,0-2,.9-2,2v7.28c0,1.1,.9,2,2,2h7.28c1.1,0,2-.9,2-2Zm0,14.1v-7.28c0-1.1-.9-2-2-2h-7.28c-1.1,0-2,.9-2,2v7.28c0,1.1,.9,2,2,2h7.28c1.1,0,2-.9,2-2Zm0,28.2v-7.28c0-1.1-.9-2-2-2h-7.28c-1.1,0-2,.9-2,2v7.28c0,1.1,.9,2,2,2h7.28c1.1,0,2-.9,2-2Zm0,28.2v-7.28c0-1.1-.9-2-2-2h-7.28c-1.1,0-2,.9-2,2v7.28c0,1.1,.9,2,2,2h7.28c1.1,0,2-.9,2-2Zm0,14.1v-7.28c0-1.1-.9-2-2-2h-7.28c-1.1,0-2,.9-2,2v7.28c0,1.1,.9,2,2,2h7.28c1.1,0,2-.9,2-2Zm0,56.39v-7.28c0-1.1-.9-2-2-2h-7.28c-1.1,0-2,.9-2,2v7.28c0,1.1,.9,2,2,2h7.28c1.1,0,2-.9,2-2Zm14.1-169.17V2C980.26,.9,979.36,0,978.26,0h-7.28c-1.1,0-2,.9-2,2v7.28c0,1.1,.9,2,2,2h7.28c1.1,0,2-.9,2-2Zm0,28.2v-7.28c0-1.1-.9-2-2-2h-7.28c-1.1,0-2,.9-2,2v7.28c0,1.1,.9,2,2,2h7.28c1.1,0,2-.9,2-2Zm0,42.29v-7.28c0-1.1-.9-2-2-2h-7.28c-1.1,0-2,.9-2,2v7.28c0,1.1,.9,2,2,2h7.28c1.1,0,2-.9,2-2Zm0,14.1v-7.28c0-1.1-.9-2-2-2h-7.28c-1.1,0-2,.9-2,2v7.28c0,1.1,.9,2,2,2h7.28c1.1,0,2-.9,2-2Zm0,14.1v-7.28c0-1.1-.9-2-2-2h-7.28c-1.1,0-2,.9-2,2v7.28c0,1.1,.9,2,2,2h7.28c1.1,0,2-.9,2-2Zm0,28.2v-7.28c0-1.1-.9-2-2-2h-7.28c-1.1,0-2,.9-2,2v7.28c0,1.1,.9,2,2,2h7.28c1.1,0,2-.9,2-2Zm0,14.1v-7.28c0-1.1-.9-2-2-2h-7.28c-1.1,0-2,.9-2,2v7.28c0,1.1,.9,2,2,2h7.28c1.1,0,2-.9,2-2Zm0,14.1v-7.28c0-1.1-.9-2-2-2h-7.28c-1.1,0-2,.9-2,2v7.28c0,1.1,.9,2,2,2h7.28c1.1,0,2-.9,2-2Zm0,28.2v-7.28c0-1.1-.9-2-2-2h-7.28c-1.1,0-2,.9-2,2v7.28c0,1.1,.9,2,2,2h7.28c1.1,0,2-.9,2-2Zm14.1-169.17v-7.28c0-1.1-.9-2-2-2h-7.28c-1.1,0-2,.9-2,2v7.28c0,1.1,.9,2,2,2h7.28c1.1,0,2-.9,2-2Zm0,28.2v-7.28c0-1.1-.9-2-2-2h-7.28c-1.1,0-2,.9-2,2v7.28c0,1.1,.9,2,2,2h7.28c1.1,0,2-.9,2-2Zm0,14.1v-7.28c0-1.1-.9-2-2-2h-7.28c-1.1,0-2,.9-2,2v7.28c0,1.1,.9,2,2,2h7.28c1.1,0,2-.9,2-2Zm0,42.29v-7.28c0-1.1-.9-2-2-2h-7.28c-1.1,0-2,.9-2,2v7.28c0,1.1,.9,2,2,2h7.28c1.1,0,2-.9,2-2Zm0,14.1v-7.28c0-1.1-.9-2-2-2h-7.28c-1.1,0-2,.9-2,2v7.28c0,1.1,.9,2,2,2h7.28c1.1,0,2-.9,2-2Zm0,28.2v-7.28c0-1.1-.9-2-2-2h-7.28c-1.1,0-2,.9-2,2v7.28c0,1.1,.9,2,2,2h7.28c1.1,0,2-.9,2-2Zm0,28.2v-7.28c0-1.1-.9-2-2-2h-7.28c-1.1,0-2,.9-2,2v7.28c0,1.1,.9,2,2,2h7.28c1.1,0,2-.9,2-2Zm0,14.1v-7.28c0-1.1-.9-2-2-2h-7.28c-1.1,0-2,.9-2,2v7.28c0,1.1,.9,2,2,2h7.28c1.1,0,2-.9,2-2Zm14.1-183.27V2C1008.46,.9,1007.56,0,1006.46,0h-7.28c-1.1,0-2,.9-2,2v7.28c0,1.1,.9,2,2,2h7.28c1.1,0,2-.9,2-2Zm0,70.49v-7.28c0-1.1-.9-2-2-2h-7.28c-1.1,0-2,.9-2,2v7.28c0,1.1,.9,2,2,2h7.28c1.1,0,2-.9,2-2Zm0,28.2v-7.28c0-1.1-.9-2-2-2h-7.28c-1.1,0-2,.9-2,2v7.28c0,1.1,.9,2,2,2h7.28c1.1,0,2-.9,2-2Zm0,14.1v-7.28c0-1.1-.9-2-2-2h-7.28c-1.1,0-2,.9-2,2v7.28c0,1.1,.9,2,2,2h7.28c1.1,0,2-.9,2-2Zm0,28.2v-7.28c0-1.1-.9-2-2-2h-7.28c-1.1,0-2,.9-2,2v7.28c0,1.1,.9,2,2,2h7.28c1.1,0,2-.9,2-2Zm0,14.1v-7.28c0-1.1-.9-2-2-2h-7.28c-1.1,0-2,.9-2,2v7.28c0,1.1,.9,2,2,2h7.28c1.1,0,2-.9,2-2Zm0,28.2v-7.28c0-1.1-.9-2-2-2h-7.28c-1.1,0-2,.9-2,2v7.28c0,1.1,.9,2,2,2h7.28c1.1,0,2-.9,2-2Zm14.1-183.27V2C1022.55,.9,1021.66,0,1020.55,0h-7.28c-1.1,0-2,.9-2,2v7.28c0,1.1,.9,2,2,2h7.28c1.1,0,2-.9,2-2Zm0,28.2v-7.28c0-1.1-.9-2-2-2h-7.28c-1.1,0-2,.9-2,2v7.28c0,1.1,.9,2,2,2h7.28c1.1,0,2-.9,2-2Zm0,14.1v-7.28c0-1.1-.9-2-2-2h-7.28c-1.1,0-2,.9-2,2v7.28c0,1.1,.9,2,2,2h7.28c1.1,0,2-.9,2-2Zm0,28.2v-7.28c0-1.1-.9-2-2-2h-7.28c-1.1,0-2,.9-2,2v7.28c0,1.1,.9,2,2,2h7.28c1.1,0,2-.9,2-2Zm0,14.1v-7.28c0-1.1-.9-2-2-2h-7.28c-1.1,0-2,.9-2,2v7.28c0,1.1,.9,2,2,2h7.28c1.1,0,2-.9,2-2Zm0,14.1v-7.28c0-1.1-.9-2-2-2h-7.28c-1.1,0-2,.9-2,2v7.28c0,1.1,.9,2,2,2h7.28c1.1,0,2-.9,2-2Zm0,56.39v-7.28c0-1.1-.9-2-2-2h-7.28c-1.1,0-2,.9-2,2v7.28c0,1.1,.9,2,2,2h7.28c1.1,0,2-.9,2-2Zm0,14.1v-7.28c0-1.1-.9-2-2-2h-7.28c-1.1,0-2,.9-2,2v7.28c0,1.1,.9,2,2,2h7.28c1.1,0,2-.9,2-2Zm0,14.1v-7.28c0-1.1-.9-2-2-2h-7.28c-1.1,0-2,.9-2,2v7.28c0,1.1,.9,2,2,2h7.28c1.1,0,2-.9,2-2Zm14.1-169.17v-7.28c0-1.1-.9-2-2-2h-7.28c-1.1,0-2,.9-2,2v7.28c0,1.1,.9,2,2,2h7.28c1.1,0,2-.9,2-2Zm0,42.29v-7.28c0-1.1-.9-2-2-2h-7.28c-1.1,0-2,.9-2,2v7.28c0,1.1,.9,2,2,2h7.28c1.1,0,2-.9,2-2Zm0,28.2v-7.28c0-1.1-.9-2-2-2h-7.28c-1.1,0-2,.9-2,2v7.28c0,1.1,.9,2,2,2h7.28c1.1,0,2-.9,2-2Zm0,28.2v-7.28c0-1.1-.9-2-2-2h-7.28c-1.1,0-2,.9-2,2v7.28c0,1.1,.9,2,2,2h7.28c1.1,0,2-.9,2-2Zm0,14.1v-7.28c0-1.1-.9-2-2-2h-7.28c-1.1,0-2,.9-2,2v7.28c0,1.1,.9,2,2,2h7.28c1.1,0,2-.9,2-2Zm0,56.39v-7.28c0-1.1-.9-2-2-2h-7.28c-1.1,0-2,.9-2,2v7.28c0,1.1,.9,2,2,2h7.28c1.1,0,2-.9,2-2Zm14.1-169.17v-7.28c0-1.1-.9-2-2-2h-7.28c-1.1,0-2,.9-2,2v7.28c0,1.1,.9,2,2,2h7.28c1.1,0,2-.9,2-2Zm0,14.1v-7.28c0-1.1-.9-2-2-2h-7.28c-1.1,0-2,.9-2,2v7.28c0,1.1,.9,2,2,2h7.28c1.1,0,2-.9,2-2Zm0,28.2v-7.28c0-1.1-.9-2-2-2h-7.28c-1.1,0-2,.9-2,2v7.28c0,1.1,.9,2,2,2h7.28c1.1,0,2-.9,2-2Zm0,14.1v-7.28c0-1.1-.9-2-2-2h-7.28c-1.1,0-2,.9-2,2v7.28c0,1.1,.9,2,2,2h7.28c1.1,0,2-.9,2-2Zm0,28.2v-7.28c0-1.1-.9-2-2-2h-7.28c-1.1,0-2,.9-2,2v7.28c0,1.1,.9,2,2,2h7.28c1.1,0,2-.9,2-2Zm0,14.1v-7.28c0-1.1-.9-2-2-2h-7.28c-1.1,0-2,.9-2,2v7.28c0,1.1,.9,2,2,2h7.28c1.1,0,2-.9,2-2Zm0,14.1v-7.28c0-1.1-.9-2-2-2h-7.28c-1.1,0-2,.9-2,2v7.28c0,1.1,.9,2,2,2h7.28c1.1,0,2-.9,2-2Zm0,14.1v-7.28c0-1.1-.9-2-2-2h-7.28c-1.1,0-2,.9-2,2v7.28c0,1.1,.9,2,2,2h7.28c1.1,0,2-.9,2-2Zm0,14.1v-7.28c0-1.1-.9-2-2-2h-7.28c-1.1,0-2,.9-2,2v7.28c0,1.1,.9,2,2,2h7.28c1.1,0,2-.9,2-2Zm0,14.1v-7.28c0-1.1-.9-2-2-2h-7.28c-1.1,0-2,.9-2,2v7.28c0,1.1,.9,2,2,2h7.28c1.1,0,2-.9,2-2Zm0,14.1v-7.28c0-1.1-.9-2-2-2h-7.28c-1.1,0-2,.9-2,2v7.28c0,1.1,.9,2,2,2h7.28c1.1,0,2-.9,2-2Zm14.1-183.27V2C1064.85,.9,1063.95,0,1062.85,0h-7.28c-1.1,0-2,.9-2,2v7.28c0,1.1,.9,2,2,2h7.28c1.1,0,2-.9,2-2Zm0,14.1v-7.28c0-1.1-.9-2-2-2h-7.28c-1.1,0-2,.9-2,2v7.28c0,1.1,.9,2,2,2h7.28c1.1,0,2-.9,2-2Zm0,56.39v-7.28c0-1.1-.9-2-2-2h-7.28c-1.1,0-2,.9-2,2v7.28c0,1.1,.9,2,2,2h7.28c1.1,0,2-.9,2-2Zm0,14.1v-7.28c0-1.1-.9-2-2-2h-7.28c-1.1,0-2,.9-2,2v7.28c0,1.1,.9,2,2,2h7.28c1.1,0,2-.9,2-2Zm0,28.2v-7.28c0-1.1-.9-2-2-2h-7.28c-1.1,0-2,.9-2,2v7.28c0,1.1,.9,2,2,2h7.28c1.1,0,2-.9,2-2Zm0,14.1v-7.28c0-1.1-.9-2-2-2h-7.28c-1.1,0-2,.9-2,2v7.28c0,1.1,.9,2,2,2h7.28c1.1,0,2-.9,2-2Zm0,14.1v-7.28c0-1.1-.9-2-2-2h-7.28c-1.1,0-2,.9-2,2v7.28c0,1.1,.9,2,2,2h7.28c1.1,0,2-.9,2-2Zm0,28.2v-7.28c0-1.1-.9-2-2-2h-7.28c-1.1,0-2,.9-2,2v7.28c0,1.1,.9,2,2,2h7.28c1.1,0,2-.9,2-2Zm0,14.1v-7.28c0-1.1-.9-2-2-2h-7.28c-1.1,0-2,.9-2,2v7.28c0,1.1,.9,2,2,2h7.28c1.1,0,2-.9,2-2Zm14.1-169.17v-7.28c0-1.1-.9-2-2-2h-7.28c-1.1,0-2,.9-2,2v7.28c0,1.1,.9,2,2,2h7.28c1.1,0,2-.9,2-2Zm0,14.1v-7.28c0-1.1-.9-2-2-2h-7.28c-1.1,0-2,.9-2,2v7.28c0,1.1,.9,2,2,2h7.28c1.1,0,2-.9,2-2Zm0,14.1v-7.28c0-1.1-.9-2-2-2h-7.28c-1.1,0-2,.9-2,2v7.28c0,1.1,.9,2,2,2h7.28c1.1,0,2-.9,2-2Zm0,28.2v-7.28c0-1.1-.9-2-2-2h-7.28c-1.1,0-2,.9-2,2v7.28c0,1.1,.9,2,2,2h7.28c1.1,0,2-.9,2-2Zm0,14.1v-7.28c0-1.1-.9-2-2-2h-7.28c-1.1,0-2,.9-2,2v7.28c0,1.1,.9,2,2,2h7.28c1.1,0,2-.9,2-2Zm0,14.1v-7.28c0-1.1-.9-2-2-2h-7.28c-1.1,0-2,.9-2,2v7.28c0,1.1,.9,2,2,2h7.28c1.1,0,2-.9,2-2Zm0,42.29v-7.28c0-1.1-.9-2-2-2h-7.28c-1.1,0-2,.9-2,2v7.28c0,1.1,.9,2,2,2h7.28c1.1,0,2-.9,2-2Zm0,14.1v-7.28c0-1.1-.9-2-2-2h-7.28c-1.1,0-2,.9-2,2v7.28c0,1.1,.9,2,2,2h7.28c1.1,0,2-.9,2-2Zm0,14.1v-7.28c0-1.1-.9-2-2-2h-7.28c-1.1,0-2,.9-2,2v7.28c0,1.1,.9,2,2,2h7.28c1.1,0,2-.9,2-2Zm0,14.1v-7.28c0-1.1-.9-2-2-2h-7.28c-1.1,0-2,.9-2,2v7.28c0,1.1,.9,2,2,2h7.28c1.1,0,2-.9,2-2Zm14.1-183.27V2C1093.04,.9,1092.15,0,1091.04,0h-7.28c-1.1,0-2,.9-2,2v7.28c0,1.1,.9,2,2,2h7.28c1.1,0,2-.9,2-2Zm0,14.1v-7.28c0-1.1-.9-2-2-2h-7.28c-1.1,0-2,.9-2,2v7.28c0,1.1,.9,2,2,2h7.28c1.1,0,2-.9,2-2Zm0,28.2v-7.28c0-1.1-.9-2-2-2h-7.28c-1.1,0-2,.9-2,2v7.28c0,1.1,.9,2,2,2h7.28c1.1,0,2-.9,2-2Zm0,14.1v-7.28c0-1.1-.9-2-2-2h-7.28c-1.1,0-2,.9-2,2v7.28c0,1.1,.9,2,2,2h7.28c1.1,0,2-.9,2-2Zm0,14.1v-7.28c0-1.1-.9-2-2-2h-7.28c-1.1,0-2,.9-2,2v7.28c0,1.1,.9,2,2,2h7.28c1.1,0,2-.9,2-2Zm0,14.1v-7.28c0-1.1-.9-2-2-2h-7.28c-1.1,0-2,.9-2,2v7.28c0,1.1,.9,2,2,2h7.28c1.1,0,2-.9,2-2Zm0,28.2v-7.28c0-1.1-.9-2-2-2h-7.28c-1.1,0-2,.9-2,2v7.28c0,1.1,.9,2,2,2h7.28c1.1,0,2-.9,2-2Zm0,14.1v-7.28c0-1.1-.9-2-2-2h-7.28c-1.1,0-2,.9-2,2v7.28c0,1.1,.9,2,2,2h7.28c1.1,0,2-.9,2-2Zm0,28.2v-7.28c0-1.1-.9-2-2-2h-7.28c-1.1,0-2,.9-2,2v7.28c0,1.1,.9,2,2,2h7.28c1.1,0,2-.9,2-2Zm0,28.2v-7.28c0-1.1-.9-2-2-2h-7.28c-1.1,0-2,.9-2,2v7.28c0,1.1,.9,2,2,2h7.28c1.1,0,2-.9,2-2Zm14.1-155.07v-7.28c0-1.1-.9-2-2-2h-7.28c-1.1,0-2,.9-2,2v7.28c0,1.1,.9,2,2,2h7.28c1.1,0,2-.9,2-2Zm0,14.1v-7.28c0-1.1-.9-2-2-2h-7.28c-1.1,0-2,.9-2,2v7.28c0,1.1,.9,2,2,2h7.28c1.1,0,2-.9,2-2Zm0,28.2v-7.28c0-1.1-.9-2-2-2h-7.28c-1.1,0-2,.9-2,2v7.28c0,1.1,.9,2,2,2h7.28c1.1,0,2-.9,2-2Zm0,14.1v-7.28c0-1.1-.9-2-2-2h-7.28c-1.1,0-2,.9-2,2v7.28c0,1.1,.9,2,2,2h7.28c1.1,0,2-.9,2-2Zm0,14.1v-7.28c0-1.1-.9-2-2-2h-7.28c-1.1,0-2,.9-2,2v7.28c0,1.1,.9,2,2,2h7.28c1.1,0,2-.9,2-2Zm0,14.1v-7.28c0-1.1-.9-2-2-2h-7.28c-1.1,0-2,.9-2,2v7.28c0,1.1,.9,2,2,2h7.28c1.1,0,2-.9,2-2Zm0,14.1v-7.28c0-1.1-.9-2-2-2h-7.28c-1.1,0-2,.9-2,2v7.28c0,1.1,.9,2,2,2h7.28c1.1,0,2-.9,2-2Zm0,28.2v-7.28c0-1.1-.9-2-2-2h-7.28c-1.1,0-2,.9-2,2v7.28c0,1.1,.9,2,2,2h7.28c1.1,0,2-.9,2-2Zm0,14.1v-7.28c0-1.1-.9-2-2-2h-7.28c-1.1,0-2,.9-2,2v7.28c0,1.1,.9,2,2,2h7.28c1.1,0,2-.9,2-2Zm14.1-155.07v-7.28c0-1.1-.9-2-2-2h-7.28c-1.1,0-2,.9-2,2v7.28c0,1.1,.9,2,2,2h7.28c1.1,0,2-.9,2-2Zm0,14.1v-7.28c0-1.1-.9-2-2-2h-7.28c-1.1,0-2,.9-2,2v7.28c0,1.1,.9,2,2,2h7.28c1.1,0,2-.9,2-2Zm0,14.1v-7.28c0-1.1-.9-2-2-2h-7.28c-1.1,0-2,.9-2,2v7.28c0,1.1,.9,2,2,2h7.28c1.1,0,2-.9,2-2Zm0,14.1v-7.28c0-1.1-.9-2-2-2h-7.28c-1.1,0-2,.9-2,2v7.28c0,1.1,.9,2,2,2h7.28c1.1,0,2-.9,2-2Zm0,14.1v-7.28c0-1.1-.9-2-2-2h-7.28c-1.1,0-2,.9-2,2v7.28c0,1.1,.9,2,2,2h7.28c1.1,0,2-.9,2-2Zm0,14.1v-7.28c0-1.1-.9-2-2-2h-7.28c-1.1,0-2,.9-2,2v7.28c0,1.1,.9,2,2,2h7.28c1.1,0,2-.9,2-2Zm0,14.1v-7.28c0-1.1-.9-2-2-2h-7.28c-1.1,0-2,.9-2,2v7.28c0,1.1,.9,2,2,2h7.28c1.1,0,2-.9,2-2Zm0,28.2v-7.28c0-1.1-.9-2-2-2h-7.28c-1.1,0-2,.9-2,2v7.28c0,1.1,.9,2,2,2h7.28c1.1,0,2-.9,2-2Zm0,14.1v-7.28c0-1.1-.9-2-2-2h-7.28c-1.1,0-2,.9-2,2v7.28c0,1.1,.9,2,2,2h7.28c1.1,0,2-.9,2-2Zm0,14.1v-7.28c0-1.1-.9-2-2-2h-7.28c-1.1,0-2,.9-2,2v7.28c0,1.1,.9,2,2,2h7.28c1.1,0,2-.9,2-2Zm14.1-155.07V2C1135.34,.9,1134.44,0,1133.34,0h-7.28c-1.1,0-2,.9-2,2v7.28c0,1.1,.9,2,2,2h7.28c1.1,0,2-.9,2-2Zm0,14.1v-7.28c0-1.1-.9-2-2-2h-7.28c-1.1,0-2,.9-2,2v7.28c0,1.1,.9,2,2,2h7.28c1.1,0,2-.9,2-2Zm0,28.2v-7.28c0-1.1-.9-2-2-2h-7.28c-1.1,0-2,.9-2,2v7.28c0,1.1,.9,2,2,2h7.28c1.1,0,2-.9,2-2Zm0,28.2v-7.28c0-1.1-.9-2-2-2h-7.28c-1.1,0-2,.9-2,2v7.28c0,1.1,.9,2,2,2h7.28c1.1,0,2-.9,2-2Zm0,14.1v-7.28c0-1.1-.9-2-2-2h-7.28c-1.1,0-2,.9-2,2v7.28c0,1.1,.9,2,2,2h7.28c1.1,0,2-.9,2-2Zm0,14.1v-7.28c0-1.1-.9-2-2-2h-7.28c-1.1,0-2,.9-2,2v7.28c0,1.1,.9,2,2,2h7.28c1.1,0,2-.9,2-2Zm0,14.1v-7.28c0-1.1-.9-2-2-2h-7.28c-1.1,0-2,.9-2,2v7.28c0,1.1,.9,2,2,2h7.28c1.1,0,2-.9,2-2Zm0,14.1v-7.28c0-1.1-.9-2-2-2h-7.28c-1.1,0-2,.9-2,2v7.28c0,1.1,.9,2,2,2h7.28c1.1,0,2-.9,2-2Zm0,42.29v-7.28c0-1.1-.9-2-2-2h-7.28c-1.1,0-2,.9-2,2v7.28c0,1.1,.9,2,2,2h7.28c1.1,0,2-.9,2-2Zm0,14.1v-7.28c0-1.1-.9-2-2-2h-7.28c-1.1,0-2,.9-2,2v7.28c0,1.1,.9,2,2,2h7.28c1.1,0,2-.9,2-2Zm14.1-169.17v-7.28c0-1.1-.9-2-2-2h-7.28c-1.1,0-2,.9-2,2v7.28c0,1.1,.9,2,2,2h7.28c1.1,0,2-.9,2-2Zm0,14.1v-7.28c0-1.1-.9-2-2-2h-7.28c-1.1,0-2,.9-2,2v7.28c0,1.1,.9,2,2,2h7.28c1.1,0,2-.9,2-2Zm0,14.1v-7.28c0-1.1-.9-2-2-2h-7.28c-1.1,0-2,.9-2,2v7.28c0,1.1,.9,2,2,2h7.28c1.1,0,2-.9,2-2Zm0,14.1v-7.28c0-1.1-.9-2-2-2h-7.28c-1.1,0-2,.9-2,2v7.28c0,1.1,.9,2,2,2h7.28c1.1,0,2-.9,2-2Zm0,14.1v-7.28c0-1.1-.9-2-2-2h-7.28c-1.1,0-2,.9-2,2v7.28c0,1.1,.9,2,2,2h7.28c1.1,0,2-.9,2-2Zm0,14.1v-7.28c0-1.1-.9-2-2-2h-7.28c-1.1,0-2,.9-2,2v7.28c0,1.1,.9,2,2,2h7.28c1.1,0,2-.9,2-2Zm0,28.2v-7.28c0-1.1-.9-2-2-2h-7.28c-1.1,0-2,.9-2,2v7.28c0,1.1,.9,2,2,2h7.28c1.1,0,2-.9,2-2Zm0,14.1v-7.28c0-1.1-.9-2-2-2h-7.28c-1.1,0-2,.9-2,2v7.28c0,1.1,.9,2,2,2h7.28c1.1,0,2-.9,2-2Zm0,14.1v-7.28c0-1.1-.9-2-2-2h-7.28c-1.1,0-2,.9-2,2v7.28c0,1.1,.9,2,2,2h7.28c1.1,0,2-.9,2-2Zm0,14.1v-7.28c0-1.1-.9-2-2-2h-7.28c-1.1,0-2,.9-2,2v7.28c0,1.1,.9,2,2,2h7.28c1.1,0,2-.9,2-2Zm0,14.1v-7.28c0-1.1-.9-2-2-2h-7.28c-1.1,0-2,.9-2,2v7.28c0,1.1,.9,2,2,2h7.28c1.1,0,2-.9,2-2Zm0,14.1v-7.28c0-1.1-.9-2-2-2h-7.28c-1.1,0-2,.9-2,2v7.28c0,1.1,.9,2,2,2h7.28c1.1,0,2-.9,2-2Zm14.1-183.27V2C1163.53,.9,1162.64,0,1161.53,0h-7.28c-1.1,0-2,.9-2,2v7.28c0,1.1,.9,2,2,2h7.28c1.1,0,2-.9,2-2Zm0,14.1v-7.28c0-1.1-.9-2-2-2h-7.28c-1.1,0-2,.9-2,2v7.28c0,1.1,.9,2,2,2h7.28c1.1,0,2-.9,2-2Zm0,14.1v-7.28c0-1.1-.9-2-2-2h-7.28c-1.1,0-2,.9-2,2v7.28c0,1.1,.9,2,2,2h7.28c1.1,0,2-.9,2-2Zm0,28.2v-7.28c0-1.1-.9-2-2-2h-7.28c-1.1,0-2,.9-2,2v7.28c0,1.1,.9,2,2,2h7.28c1.1,0,2-.9,2-2Zm0,14.1v-7.28c0-1.1-.9-2-2-2h-7.28c-1.1,0-2,.9-2,2v7.28c0,1.1,.9,2,2,2h7.28c1.1,0,2-.9,2-2Zm0,14.1v-7.28c0-1.1-.9-2-2-2h-7.28c-1.1,0-2,.9-2,2v7.28c0,1.1,.9,2,2,2h7.28c1.1,0,2-.9,2-2Zm0,14.1v-7.28c0-1.1-.9-2-2-2h-7.28c-1.1,0-2,.9-2,2v7.28c0,1.1,.9,2,2,2h7.28c1.1,0,2-.9,2-2Zm0,14.1v-7.28c0-1.1-.9-2-2-2h-7.28c-1.1,0-2,.9-2,2v7.28c0,1.1,.9,2,2,2h7.28c1.1,0,2-.9,2-2Zm0,28.2v-7.28c0-1.1-.9-2-2-2h-7.28c-1.1,0-2,.9-2,2v7.28c0,1.1,.9,2,2,2h7.28c1.1,0,2-.9,2-2Zm0,14.1v-7.28c0-1.1-.9-2-2-2h-7.28c-1.1,0-2,.9-2,2v7.28c0,1.1,.9,2,2,2h7.28c1.1,0,2-.9,2-2Zm0,14.1v-7.28c0-1.1-.9-2-2-2h-7.28c-1.1,0-2,.9-2,2v7.28c0,1.1,.9,2,2,2h7.28c1.1,0,2-.9,2-2Zm0,14.1v-7.28c0-1.1-.9-2-2-2h-7.28c-1.1,0-2,.9-2,2v7.28c0,1.1,.9,2,2,2h7.28c1.1,0,2-.9,2-2Zm14.1-183.27V2C1177.63,.9,1176.73,0,1175.63,0h-7.28c-1.1,0-2,.9-2,2v7.28c0,1.1,.9,2,2,2h7.28c1.1,0,2-.9,2-2Zm0,28.2v-7.28c0-1.1-.9-2-2-2h-7.28c-1.1,0-2,.9-2,2v7.28c0,1.1,.9,2,2,2h7.28c1.1,0,2-.9,2-2Zm0,14.1v-7.28c0-1.1-.9-2-2-2h-7.28c-1.1,0-2,.9-2,2v7.28c0,1.1,.9,2,2,2h7.28c1.1,0,2-.9,2-2Zm0,14.1v-7.28c0-1.1-.9-2-2-2h-7.28c-1.1,0-2,.9-2,2v7.28c0,1.1,.9,2,2,2h7.28c1.1,0,2-.9,2-2Zm0,14.1v-7.28c0-1.1-.9-2-2-2h-7.28c-1.1,0-2,.9-2,2v7.28c0,1.1,.9,2,2,2h7.28c1.1,0,2-.9,2-2Zm0,14.1v-7.28c0-1.1-.9-2-2-2h-7.28c-1.1,0-2,.9-2,2v7.28c0,1.1,.9,2,2,2h7.28c1.1,0,2-.9,2-2Zm0,28.2v-7.28c0-1.1-.9-2-2-2h-7.28c-1.1,0-2,.9-2,2v7.28c0,1.1,.9,2,2,2h7.28c1.1,0,2-.9,2-2Zm0,14.1v-7.28c0-1.1-.9-2-2-2h-7.28c-1.1,0-2,.9-2,2v7.28c0,1.1,.9,2,2,2h7.28c1.1,0,2-.9,2-2Zm0,14.1v-7.28c0-1.1-.9-2-2-2h-7.28c-1.1,0-2,.9-2,2v7.28c0,1.1,.9,2,2,2h7.28c1.1,0,2-.9,2-2Zm0,14.1v-7.28c0-1.1-.9-2-2-2h-7.28c-1.1,0-2,.9-2,2v7.28c0,1.1,.9,2,2,2h7.28c1.1,0,2-.9,2-2Zm0,14.1v-7.28c0-1.1-.9-2-2-2h-7.28c-1.1,0-2,.9-2,2v7.28c0,1.1,.9,2,2,2h7.28c1.1,0,2-.9,2-2Zm0,14.1v-7.28c0-1.1-.9-2-2-2h-7.28c-1.1,0-2,.9-2,2v7.28c0,1.1,.9,2,2,2h7.28c1.1,0,2-.9,2-2Zm14.1-169.17v-7.28c0-1.1-.9-2-2-2h-7.28c-1.1,0-2,.9-2,2v7.28c0,1.1,.9,2,2,2h7.28c1.1,0,2-.9,2-2Zm0,14.1v-7.28c0-1.1-.9-2-2-2h-7.28c-1.1,0-2,.9-2,2v7.28c0,1.1,.9,2,2,2h7.28c1.1,0,2-.9,2-2Zm0,14.1v-7.28c0-1.1-.9-2-2-2h-7.28c-1.1,0-2,.9-2,2v7.28c0,1.1,.9,2,2,2h7.28c1.1,0,2-.9,2-2Zm0,14.1v-7.28c0-1.1-.9-2-2-2h-7.28c-1.1,0-2,.9-2,2v7.28c0,1.1,.9,2,2,2h7.28c1.1,0,2-.9,2-2Zm0,14.1v-7.28c0-1.1-.9-2-2-2h-7.28c-1.1,0-2,.9-2,2v7.28c0,1.1,.9,2,2,2h7.28c1.1,0,2-.9,2-2Zm0,14.1v-7.28c0-1.1-.9-2-2-2h-7.28c-1.1,0-2,.9-2,2v7.28c0,1.1,.9,2,2,2h7.28c1.1,0,2-.9,2-2Zm0,14.1v-7.28c0-1.1-.9-2-2-2h-7.28c-1.1,0-2,.9-2,2v7.28c0,1.1,.9,2,2,2h7.28c1.1,0,2-.9,2-2Zm0,14.1v-7.28c0-1.1-.9-2-2-2h-7.28c-1.1,0-2,.9-2,2v7.28c0,1.1,.9,2,2,2h7.28c1.1,0,2-.9,2-2Zm0,28.2v-7.28c0-1.1-.9-2-2-2h-7.28c-1.1,0-2,.9-2,2v7.28c0,1.1,.9,2,2,2h7.28c1.1,0,2-.9,2-2Zm0,14.1v-7.28c0-1.1-.9-2-2-2h-7.28c-1.1,0-2,.9-2,2v7.28c0,1.1,.9,2,2,2h7.28c1.1,0,2-.9,2-2Zm0,14.1v-7.28c0-1.1-.9-2-2-2h-7.28c-1.1,0-2,.9-2,2v7.28c0,1.1,.9,2,2,2h7.28c1.1,0,2-.9,2-2Zm0,14.1v-7.28c0-1.1-.9-2-2-2h-7.28c-1.1,0-2,.9-2,2v7.28c0,1.1,.9,2,2,2h7.28c1.1,0,2-.9,2-2Zm-422.93,422.93v-7.28c0-1.1-.9-2-2-2h-7.28c-1.1,0-2,.9-2,2v7.28c0,1.1,.9,2,2,2h7.28c1.1,0,2-.9,2-2Zm14.1-28.2v-7.28c0-1.1-.9-2-2-2h-7.28c-1.1,0-2,.9-2,2v7.28c0,1.1,.9,2,2,2h7.28c1.1,0,2-.9,2-2Zm0,98.68v-7.28c0-1.1-.9-2-2-2h-7.28c-1.1,0-2,.9-2,2v7.28c0,1.1,.9,2,2,2h7.28c1.1,0,2-.9,2-2Zm14.1-479.32v-7.28c0-1.1-.9-2-2-2h-7.28c-1.1,0-2,.9-2,2v7.28c0,1.1,.9,2,2,2h7.28c1.1,0,2-.9,2-2Zm0,253.76v-7.28c0-1.1-.9-2-2-2h-7.28c-1.1,0-2,.9-2,2v7.28c0,1.1,.9,2,2,2h7.28c1.1,0,2-.9,2-2Zm0,183.27v-7.28c0-1.1-.9-2-2-2h-7.28c-1.1,0-2,.9-2,2v7.28c0,1.1,.9,2,2,2h7.28c1.1,0,2-.9,2-2Zm14.1-225.56v-7.28c0-1.1-.9-2-2-2h-7.28c-1.1,0-2,.9-2,2v7.28c0,1.1,.9,2,2,2h7.28c1.1,0,2-.9,2-2Zm0,155.07v-7.28c0-1.1-.9-2-2-2h-7.28c-1.1,0-2,.9-2,2v7.28c0,1.1,.9,2,2,2h7.28c1.1,0,2-.9,2-2Zm0,98.68v-7.28c0-1.1-.9-2-2-2h-7.28c-1.1,0-2,.9-2,2v7.28c0,1.1,.9,2,2,2h7.28c1.1,0,2-.9,2-2Zm14.1-197.37v-7.28c0-1.1-.9-2-2-2h-7.28c-1.1,0-2,.9-2,2v7.28c0,1.1,.9,2,2,2h7.28c1.1,0,2-.9,2-2Zm0,70.49v-7.28c0-1.1-.9-2-2-2h-7.28c-1.1,0-2,.9-2,2v7.28c0,1.1,.9,2,2,2h7.28c1.1,0,2-.9,2-2Zm0,84.59v-7.28c0-1.1-.9-2-2-2h-7.28c-1.1,0-2,.9-2,2v7.28c0,1.1,.9,2,2,2h7.28c1.1,0,2-.9,2-2Zm0,56.39v-7.28c0-1.1-.9-2-2-2h-7.28c-1.1,0-2,.9-2,2v7.28c0,1.1,.9,2,2,2h7.28c1.1,0,2-.9,2-2Zm14.1-253.76v-7.28c0-1.1-.9-2-2-2h-7.28c-1.1,0-2,.9-2,2v7.28c0,1.1,.9,2,2,2h7.28c1.1,0,2-.9,2-2Zm0,14.1v-7.28c0-1.1-.9-2-2-2h-7.28c-1.1,0-2,.9-2,2v7.28c0,1.1,.9,2,2,2h7.28c1.1,0,2-.9,2-2Zm0,112.78v-7.28c0-1.1-.9-2-2-2h-7.28c-1.1,0-2,.9-2,2v7.28c0,1.1,.9,2,2,2h7.28c1.1,0,2-.9,2-2Zm0,70.49v-7.28c0-1.1-.9-2-2-2h-7.28c-1.1,0-2,.9-2,2v7.28c0,1.1,.9,2,2,2h7.28c1.1,0,2-.9,2-2Zm14.1-352.44v-7.28c0-1.1-.9-2-2-2h-7.28c-1.1,0-2,.9-2,2v7.28c0,1.1,.9,2,2,2h7.28c1.1,0,2-.9,2-2Zm0,84.59v-7.28c0-1.1-.9-2-2-2h-7.28c-1.1,0-2,.9-2,2v7.28c0,1.1,.9,2,2,2h7.28c1.1,0,2-.9,2-2Zm0,70.49v-7.28c0-1.1-.9-2-2-2h-7.28c-1.1,0-2,.9-2,2v7.28c0,1.1,.9,2,2,2h7.28c1.1,0,2-.9,2-2Zm0,155.07v-7.28c0-1.1-.9-2-2-2h-7.28c-1.1,0-2,.9-2,2v7.28c0,1.1,.9,2,2,2h7.28c1.1,0,2-.9,2-2Zm0,70.49v-7.28c0-1.1-.9-2-2-2h-7.28c-1.1,0-2,.9-2,2v7.28c0,1.1,.9,2,2,2h7.28c1.1,0,2-.9,2-2Zm0,28.2v-7.28c0-1.1-.9-2-2-2h-7.28c-1.1,0-2,.9-2,2v7.28c0,1.1,.9,2,2,2h7.28c1.1,0,2-.9,2-2Zm14.1-394.74v-7.28c0-1.1-.9-2-2-2h-7.28c-1.1,0-2,.9-2,2v7.28c0,1.1,.9,2,2,2h7.28c1.1,0,2-.9,2-2Zm0,112.78v-7.28c0-1.1-.9-2-2-2h-7.28c-1.1,0-2,.9-2,2v7.28c0,1.1,.9,2,2,2h7.28c1.1,0,2-.9,2-2Zm0,42.29v-7.28c0-1.1-.9-2-2-2h-7.28c-1.1,0-2,.9-2,2v7.28c0,1.1,.9,2,2,2h7.28c1.1,0,2-.9,2-2Zm0,126.88v-7.28c0-1.1-.9-2-2-2h-7.28c-1.1,0-2,.9-2,2v7.28c0,1.1,.9,2,2,2h7.28c1.1,0,2-.9,2-2Zm0,42.29v-7.28c0-1.1-.9-2-2-2h-7.28c-1.1,0-2,.9-2,2v7.28c0,1.1,.9,2,2,2h7.28c1.1,0,2-.9,2-2Zm0,14.1v-7.28c0-1.1-.9-2-2-2h-7.28c-1.1,0-2,.9-2,2v7.28c0,1.1,.9,2,2,2h7.28c1.1,0,2-.9,2-2Zm0,42.29v-7.28c0-1.1-.9-2-2-2h-7.28c-1.1,0-2,.9-2,2v7.28c0,1.1,.9,2,2,2h7.28c1.1,0,2-.9,2-2Zm0,28.2v-7.28c0-1.1-.9-2-2-2h-7.28c-1.1,0-2,.9-2,2v7.28c0,1.1,.9,2,2,2h7.28c1.1,0,2-.9,2-2Zm14.1-451.13v-7.28c0-1.1-.9-2-2-2h-7.28c-1.1,0-2,.9-2,2v7.28c0,1.1,.9,2,2,2h7.28c1.1,0,2-.9,2-2Zm0,14.1v-7.28c0-1.1-.9-2-2-2h-7.28c-1.1,0-2,.9-2,2v7.28c0,1.1,.9,2,2,2h7.28c1.1,0,2-.9,2-2Zm0,98.68v-7.28c0-1.1-.9-2-2-2h-7.28c-1.1,0-2,.9-2,2v7.28c0,1.1,.9,2,2,2h7.28c1.1,0,2-.9,2-2Zm0,98.68v-7.28c0-1.1-.9-2-2-2h-7.28c-1.1,0-2,.9-2,2v7.28c0,1.1,.9,2,2,2h7.28c1.1,0,2-.9,2-2Zm0,70.49v-7.28c0-1.1-.9-2-2-2h-7.28c-1.1,0-2,.9-2,2v7.28c0,1.1,.9,2,2,2h7.28c1.1,0,2-.9,2-2Zm0,14.1v-7.28c0-1.1-.9-2-2-2h-7.28c-1.1,0-2,.9-2,2v7.28c0,1.1,.9,2,2,2h7.28c1.1,0,2-.9,2-2Zm0,112.78v-7.28c0-1.1-.9-2-2-2h-7.28c-1.1,0-2,.9-2,2v7.28c0,1.1,.9,2,2,2h7.28c1.1,0,2-.9,2-2Zm0,42.29v-7.28c0-1.1-.9-2-2-2h-7.28c-1.1,0-2,.9-2,2v7.28c0,1.1,.9,2,2,2h7.28c1.1,0,2-.9,2-2Zm14.1-493.42v-7.28c0-1.1-.9-2-2-2h-7.28c-1.1,0-2,.9-2,2v7.28c0,1.1,.9,2,2,2h7.28c1.1,0,2-.9,2-2Zm0,84.59v-7.28c0-1.1-.9-2-2-2h-7.28c-1.1,0-2,.9-2,2v7.28c0,1.1,.9,2,2,2h7.28c1.1,0,2-.9,2-2Zm0,28.2v-7.28c0-1.1-.9-2-2-2h-7.28c-1.1,0-2,.9-2,2v7.28c0,1.1,.9,2,2,2h7.28c1.1,0,2-.9,2-2Zm0,42.29v-7.28c0-1.1-.9-2-2-2h-7.28c-1.1,0-2,.9-2,2v7.28c0,1.1,.9,2,2,2h7.28c1.1,0,2-.9,2-2Zm0,42.29v-7.28c0-1.1-.9-2-2-2h-7.28c-1.1,0-2,.9-2,2v7.28c0,1.1,.9,2,2,2h7.28c1.1,0,2-.9,2-2Zm0,42.29v-7.28c0-1.1-.9-2-2-2h-7.28c-1.1,0-2,.9-2,2v7.28c0,1.1,.9,2,2,2h7.28c1.1,0,2-.9,2-2Zm0,126.88v-7.28c0-1.1-.9-2-2-2h-7.28c-1.1,0-2,.9-2,2v7.28c0,1.1,.9,2,2,2h7.28c1.1,0,2-.9,2-2Zm0,42.29v-7.28c0-1.1-.9-2-2-2h-7.28c-1.1,0-2,.9-2,2v7.28c0,1.1,.9,2,2,2h7.28c1.1,0,2-.9,2-2Zm0,28.2v-7.28c0-1.1-.9-2-2-2h-7.28c-1.1,0-2,.9-2,2v7.28c0,1.1,.9,2,2,2h7.28c1.1,0,2-.9,2-2Zm0,28.2v-7.28c0-1.1-.9-2-2-2h-7.28c-1.1,0-2,.9-2,2v7.28c0,1.1,.9,2,2,2h7.28c1.1,0,2-.9,2-2Zm14.1-352.44v-7.28c0-1.1-.9-2-2-2h-7.28c-1.1,0-2,.9-2,2v7.28c0,1.1,.9,2,2,2h7.28c1.1,0,2-.9,2-2Zm0,42.29v-7.28c0-1.1-.9-2-2-2h-7.28c-1.1,0-2,.9-2,2v7.28c0,1.1,.9,2,2,2h7.28c1.1,0,2-.9,2-2Zm0,28.2v-7.28c0-1.1-.9-2-2-2h-7.28c-1.1,0-2,.9-2,2v7.28c0,1.1,.9,2,2,2h7.28c1.1,0,2-.9,2-2Zm0,56.39v-7.28c0-1.1-.9-2-2-2h-7.28c-1.1,0-2,.9-2,2v7.28c0,1.1,.9,2,2,2h7.28c1.1,0,2-.9,2-2Zm0,56.39v-7.28c0-1.1-.9-2-2-2h-7.28c-1.1,0-2,.9-2,2v7.28c0,1.1,.9,2,2,2h7.28c1.1,0,2-.9,2-2Zm0,56.39v-7.28c0-1.1-.9-2-2-2h-7.28c-1.1,0-2,.9-2,2v7.28c0,1.1,.9,2,2,2h7.28c1.1,0,2-.9,2-2Zm0,28.2v-7.28c0-1.1-.9-2-2-2h-7.28c-1.1,0-2,.9-2,2v7.28c0,1.1,.9,2,2,2h7.28c1.1,0,2-.9,2-2Zm0,70.49v-7.28c0-1.1-.9-2-2-2h-7.28c-1.1,0-2,.9-2,2v7.28c0,1.1,.9,2,2,2h7.28c1.1,0,2-.9,2-2Zm0,42.29v-7.28c0-1.1-.9-2-2-2h-7.28c-1.1,0-2,.9-2,2v7.28c0,1.1,.9,2,2,2h7.28c1.1,0,2-.9,2-2Zm14.1-493.42v-7.28c0-1.1-.9-2-2-2h-7.28c-1.1,0-2,.9-2,2v7.28c0,1.1,.9,2,2,2h7.28c1.1,0,2-.9,2-2Zm0,42.29v-7.28c0-1.1-.9-2-2-2h-7.28c-1.1,0-2,.9-2,2v7.28c0,1.1,.9,2,2,2h7.28c1.1,0,2-.9,2-2Zm0,42.29v-7.28c0-1.1-.9-2-2-2h-7.28c-1.1,0-2,.9-2,2v7.28c0,1.1,.9,2,2,2h7.28c1.1,0,2-.9,2-2Zm0,126.88v-7.28c0-1.1-.9-2-2-2h-7.28c-1.1,0-2,.9-2,2v7.28c0,1.1,.9,2,2,2h7.28c1.1,0,2-.9,2-2Zm0,42.29v-7.28c0-1.1-.9-2-2-2h-7.28c-1.1,0-2,.9-2,2v7.28c0,1.1,.9,2,2,2h7.28c1.1,0,2-.9,2-2Zm0,84.59v-7.28c0-1.1-.9-2-2-2h-7.28c-1.1,0-2,.9-2,2v7.28c0,1.1,.9,2,2,2h7.28c1.1,0,2-.9,2-2Zm0,14.1v-7.28c0-1.1-.9-2-2-2h-7.28c-1.1,0-2,.9-2,2v7.28c0,1.1,.9,2,2,2h7.28c1.1,0,2-.9,2-2Zm0,28.2v-7.28c0-1.1-.9-2-2-2h-7.28c-1.1,0-2,.9-2,2v7.28c0,1.1,.9,2,2,2h7.28c1.1,0,2-.9,2-2Zm0,42.29v-7.28c0-1.1-.9-2-2-2h-7.28c-1.1,0-2,.9-2,2v7.28c0,1.1,.9,2,2,2h7.28c1.1,0,2-.9,2-2Zm0,28.2v-7.28c0-1.1-.9-2-2-2h-7.28c-1.1,0-2,.9-2,2v7.28c0,1.1,.9,2,2,2h7.28c1.1,0,2-.9,2-2Zm0,42.29v-7.28c0-1.1-.9-2-2-2h-7.28c-1.1,0-2,.9-2,2v7.28c0,1.1,.9,2,2,2h7.28c1.1,0,2-.9,2-2Zm14.1-451.13v-7.28c0-1.1-.9-2-2-2h-7.28c-1.1,0-2,.9-2,2v7.28c0,1.1,.9,2,2,2h7.28c1.1,0,2-.9,2-2Zm0,28.2v-7.28c0-1.1-.9-2-2-2h-7.28c-1.1,0-2,.9-2,2v7.28c0,1.1,.9,2,2,2h7.28c1.1,0,2-.9,2-2Zm0,84.59v-7.28c0-1.1-.9-2-2-2h-7.28c-1.1,0-2,.9-2,2v7.28c0,1.1,.9,2,2,2h7.28c1.1,0,2-.9,2-2Zm0,28.2v-7.28c0-1.1-.9-2-2-2h-7.28c-1.1,0-2,.9-2,2v7.28c0,1.1,.9,2,2,2h7.28c1.1,0,2-.9,2-2Zm0,14.1v-7.28c0-1.1-.9-2-2-2h-7.28c-1.1,0-2,.9-2,2v7.28c0,1.1,.9,2,2,2h7.28c1.1,0,2-.9,2-2Zm0,42.29v-7.28c0-1.1-.9-2-2-2h-7.28c-1.1,0-2,.9-2,2v7.28c0,1.1,.9,2,2,2h7.28c1.1,0,2-.9,2-2Zm0,28.2v-7.28c0-1.1-.9-2-2-2h-7.28c-1.1,0-2,.9-2,2v7.28c0,1.1,.9,2,2,2h7.28c1.1,0,2-.9,2-2Zm0,14.1v-7.28c0-1.1-.9-2-2-2h-7.28c-1.1,0-2,.9-2,2v7.28c0,1.1,.9,2,2,2h7.28c1.1,0,2-.9,2-2Zm0,14.1v-7.28c0-1.1-.9-2-2-2h-7.28c-1.1,0-2,.9-2,2v7.28c0,1.1,.9,2,2,2h7.28c1.1,0,2-.9,2-2Zm0,42.29v-7.28c0-1.1-.9-2-2-2h-7.28c-1.1,0-2,.9-2,2v7.28c0,1.1,.9,2,2,2h7.28c1.1,0,2-.9,2-2Zm0,28.2v-7.28c0-1.1-.9-2-2-2h-7.28c-1.1,0-2,.9-2,2v7.28c0,1.1,.9,2,2,2h7.28c1.1,0,2-.9,2-2Zm0,28.2v-7.28c0-1.1-.9-2-2-2h-7.28c-1.1,0-2,.9-2,2v7.28c0,1.1,.9,2,2,2h7.28c1.1,0,2-.9,2-2Zm0,14.1v-7.28c0-1.1-.9-2-2-2h-7.28c-1.1,0-2,.9-2,2v7.28c0,1.1,.9,2,2,2h7.28c1.1,0,2-.9,2-2Zm0,28.2v-7.28c0-1.1-.9-2-2-2h-7.28c-1.1,0-2,.9-2,2v7.28c0,1.1,.9,2,2,2h7.28c1.1,0,2-.9,2-2Zm0,42.29v-7.28c0-1.1-.9-2-2-2h-7.28c-1.1,0-2,.9-2,2v7.28c0,1.1,.9,2,2,2h7.28c1.1,0,2-.9,2-2Zm0,14.1v-7.28c0-1.1-.9-2-2-2h-7.28c-1.1,0-2,.9-2,2v7.28c0,1.1,.9,2,2,2h7.28c1.1,0,2-.9,2-2Zm14.1-493.42v-7.28c0-1.1-.9-2-2-2h-7.28c-1.1,0-2,.9-2,2v7.28c0,1.1,.9,2,2,2h7.28c1.1,0,2-.9,2-2Zm0,28.2v-7.28c0-1.1-.9-2-2-2h-7.28c-1.1,0-2,.9-2,2v7.28c0,1.1,.9,2,2,2h7.28c1.1,0,2-.9,2-2Zm0,56.39v-7.28c0-1.1-.9-2-2-2h-7.28c-1.1,0-2,.9-2,2v7.28c0,1.1,.9,2,2,2h7.28c1.1,0,2-.9,2-2Zm0,70.49v-7.28c0-1.1-.9-2-2-2h-7.28c-1.1,0-2,.9-2,2v7.28c0,1.1,.9,2,2,2h7.28c1.1,0,2-.9,2-2Zm0,28.2v-7.28c0-1.1-.9-2-2-2h-7.28c-1.1,0-2,.9-2,2v7.28c0,1.1,.9,2,2,2h7.28c1.1,0,2-.9,2-2Zm0,42.29v-7.28c0-1.1-.9-2-2-2h-7.28c-1.1,0-2,.9-2,2v7.28c0,1.1,.9,2,2,2h7.28c1.1,0,2-.9,2-2Zm0,56.39v-7.28c0-1.1-.9-2-2-2h-7.28c-1.1,0-2,.9-2,2v7.28c0,1.1,.9,2,2,2h7.28c1.1,0,2-.9,2-2Zm0,42.29v-7.28c0-1.1-.9-2-2-2h-7.28c-1.1,0-2,.9-2,2v7.28c0,1.1,.9,2,2,2h7.28c1.1,0,2-.9,2-2Zm0,14.1v-7.28c0-1.1-.9-2-2-2h-7.28c-1.1,0-2,.9-2,2v7.28c0,1.1,.9,2,2,2h7.28c1.1,0,2-.9,2-2Zm0,42.29v-7.28c0-1.1-.9-2-2-2h-7.28c-1.1,0-2,.9-2,2v7.28c0,1.1,.9,2,2,2h7.28c1.1,0,2-.9,2-2Zm0,14.1v-7.28c0-1.1-.9-2-2-2h-7.28c-1.1,0-2,.9-2,2v7.28c0,1.1,.9,2,2,2h7.28c1.1,0,2-.9,2-2Zm0,70.49v-7.28c0-1.1-.9-2-2-2h-7.28c-1.1,0-2,.9-2,2v7.28c0,1.1,.9,2,2,2h7.28c1.1,0,2-.9,2-2Zm0,14.1v-7.28c0-1.1-.9-2-2-2h-7.28c-1.1,0-2,.9-2,2v7.28c0,1.1,.9,2,2,2h7.28c1.1,0,2-.9,2-2Zm0,14.1v-7.28c0-1.1-.9-2-2-2h-7.28c-1.1,0-2,.9-2,2v7.28c0,1.1,.9,2,2,2h7.28c1.1,0,2-.9,2-2Zm14.1-493.42v-7.28c0-1.1-.9-2-2-2h-7.28c-1.1,0-2,.9-2,2v7.28c0,1.1,.9,2,2,2h7.28c1.1,0,2-.9,2-2Zm0,28.2v-7.28c0-1.1-.9-2-2-2h-7.28c-1.1,0-2,.9-2,2v7.28c0,1.1,.9,2,2,2h7.28c1.1,0,2-.9,2-2Zm0,42.29v-7.28c0-1.1-.9-2-2-2h-7.28c-1.1,0-2,.9-2,2v7.28c0,1.1,.9,2,2,2h7.28c1.1,0,2-.9,2-2Zm0,14.1v-7.28c0-1.1-.9-2-2-2h-7.28c-1.1,0-2,.9-2,2v7.28c0,1.1,.9,2,2,2h7.28c1.1,0,2-.9,2-2Zm0,42.29v-7.28c0-1.1-.9-2-2-2h-7.28c-1.1,0-2,.9-2,2v7.28c0,1.1,.9,2,2,2h7.28c1.1,0,2-.9,2-2Zm0,56.39v-7.28c0-1.1-.9-2-2-2h-7.28c-1.1,0-2,.9-2,2v7.28c0,1.1,.9,2,2,2h7.28c1.1,0,2-.9,2-2Zm0,14.1v-7.28c0-1.1-.9-2-2-2h-7.28c-1.1,0-2,.9-2,2v7.28c0,1.1,.9,2,2,2h7.28c1.1,0,2-.9,2-2Zm0,56.39v-7.28c0-1.1-.9-2-2-2h-7.28c-1.1,0-2,.9-2,2v7.28c0,1.1,.9,2,2,2h7.28c1.1,0,2-.9,2-2Zm0,14.1v-7.28c0-1.1-.9-2-2-2h-7.28c-1.1,0-2,.9-2,2v7.28c0,1.1,.9,2,2,2h7.28c1.1,0,2-.9,2-2Zm0,14.1v-7.28c0-1.1-.9-2-2-2h-7.28c-1.1,0-2,.9-2,2v7.28c0,1.1,.9,2,2,2h7.28c1.1,0,2-.9,2-2Zm0,56.39v-7.28c0-1.1-.9-2-2-2h-7.28c-1.1,0-2,.9-2,2v7.28c0,1.1,.9,2,2,2h7.28c1.1,0,2-.9,2-2Zm0,14.1v-7.28c0-1.1-.9-2-2-2h-7.28c-1.1,0-2,.9-2,2v7.28c0,1.1,.9,2,2,2h7.28c1.1,0,2-.9,2-2Zm0,42.29v-7.28c0-1.1-.9-2-2-2h-7.28c-1.1,0-2,.9-2,2v7.28c0,1.1,.9,2,2,2h7.28c1.1,0,2-.9,2-2Zm0,14.1v-7.28c0-1.1-.9-2-2-2h-7.28c-1.1,0-2,.9-2,2v7.28c0,1.1,.9,2,2,2h7.28c1.1,0,2-.9,2-2Zm0,14.1v-7.28c0-1.1-.9-2-2-2h-7.28c-1.1,0-2,.9-2,2v7.28c0,1.1,.9,2,2,2h7.28c1.1,0,2-.9,2-2Zm0,14.1v-7.28c0-1.1-.9-2-2-2h-7.28c-1.1,0-2,.9-2,2v7.28c0,1.1,.9,2,2,2h7.28c1.1,0,2-.9,2-2Zm0,14.1v-7.28c0-1.1-.9-2-2-2h-7.28c-1.1,0-2,.9-2,2v7.28c0,1.1,.9,2,2,2h7.28c1.1,0,2-.9,2-2Zm0,28.2v-7.28c0-1.1-.9-2-2-2h-7.28c-1.1,0-2,.9-2,2v7.28c0,1.1,.9,2,2,2h7.28c1.1,0,2-.9,2-2Zm14.1-479.32v-7.28c0-1.1-.9-2-2-2h-7.28c-1.1,0-2,.9-2,2v7.28c0,1.1,.9,2,2,2h7.28c1.1,0,2-.9,2-2Zm0,70.49v-7.28c0-1.1-.9-2-2-2h-7.28c-1.1,0-2,.9-2,2v7.28c0,1.1,.9,2,2,2h7.28c1.1,0,2-.9,2-2Zm0,42.29v-7.28c0-1.1-.9-2-2-2h-7.28c-1.1,0-2,.9-2,2v7.28c0,1.1,.9,2,2,2h7.28c1.1,0,2-.9,2-2Zm0,14.1v-7.28c0-1.1-.9-2-2-2h-7.28c-1.1,0-2,.9-2,2v7.28c0,1.1,.9,2,2,2h7.28c1.1,0,2-.9,2-2Zm0,56.39v-7.28c0-1.1-.9-2-2-2h-7.28c-1.1,0-2,.9-2,2v7.28c0,1.1,.9,2,2,2h7.28c1.1,0,2-.9,2-2Zm0,14.1v-7.28c0-1.1-.9-2-2-2h-7.28c-1.1,0-2,.9-2,2v7.28c0,1.1,.9,2,2,2h7.28c1.1,0,2-.9,2-2Zm0,42.29v-7.28c0-1.1-.9-2-2-2h-7.28c-1.1,0-2,.9-2,2v7.28c0,1.1,.9,2,2,2h7.28c1.1,0,2-.9,2-2Zm0,84.59v-7.28c0-1.1-.9-2-2-2h-7.28c-1.1,0-2,.9-2,2v7.28c0,1.1,.9,2,2,2h7.28c1.1,0,2-.9,2-2Zm0,42.29v-7.28c0-1.1-.9-2-2-2h-7.28c-1.1,0-2,.9-2,2v7.28c0,1.1,.9,2,2,2h7.28c1.1,0,2-.9,2-2Zm0,14.1v-7.28c0-1.1-.9-2-2-2h-7.28c-1.1,0-2,.9-2,2v7.28c0,1.1,.9,2,2,2h7.28c1.1,0,2-.9,2-2Zm0,42.29v-7.28c0-1.1-.9-2-2-2h-7.28c-1.1,0-2,.9-2,2v7.28c0,1.1,.9,2,2,2h7.28c1.1,0,2-.9,2-2Zm14.1-422.93v-7.28c0-1.1-.9-2-2-2h-7.28c-1.1,0-2,.9-2,2v7.28c0,1.1,.9,2,2,2h7.28c1.1,0,2-.9,2-2Zm0,42.29v-7.28c0-1.1-.9-2-2-2h-7.28c-1.1,0-2,.9-2,2v7.28c0,1.1,.9,2,2,2h7.28c1.1,0,2-.9,2-2Zm0,28.2v-7.28c0-1.1-.9-2-2-2h-7.28c-1.1,0-2,.9-2,2v7.28c0,1.1,.9,2,2,2h7.28c1.1,0,2-.9,2-2Zm0,56.39v-7.28c0-1.1-.9-2-2-2h-7.28c-1.1,0-2,.9-2,2v7.28c0,1.1,.9,2,2,2h7.28c1.1,0,2-.9,2-2Zm0,14.1v-7.28c0-1.1-.9-2-2-2h-7.28c-1.1,0-2,.9-2,2v7.28c0,1.1,.9,2,2,2h7.28c1.1,0,2-.9,2-2Zm0,56.39v-7.28c0-1.1-.9-2-2-2h-7.28c-1.1,0-2,.9-2,2v7.28c0,1.1,.9,2,2,2h7.28c1.1,0,2-.9,2-2Zm0,14.1v-7.28c0-1.1-.9-2-2-2h-7.28c-1.1,0-2,.9-2,2v7.28c0,1.1,.9,2,2,2h7.28c1.1,0,2-.9,2-2Zm0,14.1v-7.28c0-1.1-.9-2-2-2h-7.28c-1.1,0-2,.9-2,2v7.28c0,1.1,.9,2,2,2h7.28c1.1,0,2-.9,2-2Zm0,28.2v-7.28c0-1.1-.9-2-2-2h-7.28c-1.1,0-2,.9-2,2v7.28c0,1.1,.9,2,2,2h7.28c1.1,0,2-.9,2-2Zm0,28.2v-7.28c0-1.1-.9-2-2-2h-7.28c-1.1,0-2,.9-2,2v7.28c0,1.1,.9,2,2,2h7.28c1.1,0,2-.9,2-2Zm0,14.1v-7.28c0-1.1-.9-2-2-2h-7.28c-1.1,0-2,.9-2,2v7.28c0,1.1,.9,2,2,2h7.28c1.1,0,2-.9,2-2Zm0,28.2v-7.28c0-1.1-.9-2-2-2h-7.28c-1.1,0-2,.9-2,2v7.28c0,1.1,.9,2,2,2h7.28c1.1,0,2-.9,2-2Zm0,14.1v-7.28c0-1.1-.9-2-2-2h-7.28c-1.1,0-2,.9-2,2v7.28c0,1.1,.9,2,2,2h7.28c1.1,0,2-.9,2-2Zm0,14.1v-7.28c0-1.1-.9-2-2-2h-7.28c-1.1,0-2,.9-2,2v7.28c0,1.1,.9,2,2,2h7.28c1.1,0,2-.9,2-2Zm0,42.29v-7.28c0-1.1-.9-2-2-2h-7.28c-1.1,0-2,.9-2,2v7.28c0,1.1,.9,2,2,2h7.28c1.1,0,2-.9,2-2Zm0,14.1v-7.28c0-1.1-.9-2-2-2h-7.28c-1.1,0-2,.9-2,2v7.28c0,1.1,.9,2,2,2h7.28c1.1,0,2-.9,2-2Zm0,28.2v-7.28c0-1.1-.9-2-2-2h-7.28c-1.1,0-2,.9-2,2v7.28c0,1.1,.9,2,2,2h7.28c1.1,0,2-.9,2-2Zm0,14.1v-7.28c0-1.1-.9-2-2-2h-7.28c-1.1,0-2,.9-2,2v7.28c0,1.1,.9,2,2,2h7.28c1.1,0,2-.9,2-2Zm0,28.2v-7.28c0-1.1-.9-2-2-2h-7.28c-1.1,0-2,.9-2,2v7.28c0,1.1,.9,2,2,2h7.28c1.1,0,2-.9,2-2Zm0,14.1v-7.28c0-1.1-.9-2-2-2h-7.28c-1.1,0-2,.9-2,2v7.28c0,1.1,.9,2,2,2h7.28c1.1,0,2-.9,2-2Zm14.1-479.32v-7.28c0-1.1-.9-2-2-2h-7.28c-1.1,0-2,.9-2,2v7.28c0,1.1,.9,2,2,2h7.28c1.1,0,2-.9,2-2Zm0,14.1v-7.28c0-1.1-.9-2-2-2h-7.28c-1.1,0-2,.9-2,2v7.28c0,1.1,.9,2,2,2h7.28c1.1,0,2-.9,2-2Zm0,14.1v-7.28c0-1.1-.9-2-2-2h-7.28c-1.1,0-2,.9-2,2v7.28c0,1.1,.9,2,2,2h7.28c1.1,0,2-.9,2-2Zm0,28.2v-7.28c0-1.1-.9-2-2-2h-7.28c-1.1,0-2,.9-2,2v7.28c0,1.1,.9,2,2,2h7.28c1.1,0,2-.9,2-2Zm0,42.29v-7.28c0-1.1-.9-2-2-2h-7.28c-1.1,0-2,.9-2,2v7.28c0,1.1,.9,2,2,2h7.28c1.1,0,2-.9,2-2Zm0,14.1v-7.28c0-1.1-.9-2-2-2h-7.28c-1.1,0-2,.9-2,2v7.28c0,1.1,.9,2,2,2h7.28c1.1,0,2-.9,2-2Zm0,28.2v-7.28c0-1.1-.9-2-2-2h-7.28c-1.1,0-2,.9-2,2v7.28c0,1.1,.9,2,2,2h7.28c1.1,0,2-.9,2-2Zm0,28.2v-7.28c0-1.1-.9-2-2-2h-7.28c-1.1,0-2,.9-2,2v7.28c0,1.1,.9,2,2,2h7.28c1.1,0,2-.9,2-2Zm0,56.39v-7.28c0-1.1-.9-2-2-2h-7.28c-1.1,0-2,.9-2,2v7.28c0,1.1,.9,2,2,2h7.28c1.1,0,2-.9,2-2Zm0,14.1v-7.28c0-1.1-.9-2-2-2h-7.28c-1.1,0-2,.9-2,2v7.28c0,1.1,.9,2,2,2h7.28c1.1,0,2-.9,2-2Zm0,14.1v-7.28c0-1.1-.9-2-2-2h-7.28c-1.1,0-2,.9-2,2v7.28c0,1.1,.9,2,2,2h7.28c1.1,0,2-.9,2-2Zm0,14.1v-7.28c0-1.1-.9-2-2-2h-7.28c-1.1,0-2,.9-2,2v7.28c0,1.1,.9,2,2,2h7.28c1.1,0,2-.9,2-2Zm0,42.29v-7.28c0-1.1-.9-2-2-2h-7.28c-1.1,0-2,.9-2,2v7.28c0,1.1,.9,2,2,2h7.28c1.1,0,2-.9,2-2Zm0,28.2v-7.28c0-1.1-.9-2-2-2h-7.28c-1.1,0-2,.9-2,2v7.28c0,1.1,.9,2,2,2h7.28c1.1,0,2-.9,2-2Zm0,14.1v-7.28c0-1.1-.9-2-2-2h-7.28c-1.1,0-2,.9-2,2v7.28c0,1.1,.9,2,2,2h7.28c1.1,0,2-.9,2-2Zm0,14.1v-7.28c0-1.1-.9-2-2-2h-7.28c-1.1,0-2,.9-2,2v7.28c0,1.1,.9,2,2,2h7.28c1.1,0,2-.9,2-2Zm0,14.1v-7.28c0-1.1-.9-2-2-2h-7.28c-1.1,0-2,.9-2,2v7.28c0,1.1,.9,2,2,2h7.28c1.1,0,2-.9,2-2Zm0,42.29v-7.28c0-1.1-.9-2-2-2h-7.28c-1.1,0-2,.9-2,2v7.28c0,1.1,.9,2,2,2h7.28c1.1,0,2-.9,2-2Zm0,14.1v-7.28c0-1.1-.9-2-2-2h-7.28c-1.1,0-2,.9-2,2v7.28c0,1.1,.9,2,2,2h7.28c1.1,0,2-.9,2-2Zm0,28.2v-7.28c0-1.1-.9-2-2-2h-7.28c-1.1,0-2,.9-2,2v7.28c0,1.1,.9,2,2,2h7.28c1.1,0,2-.9,2-2Zm14.1-479.32v-7.28c0-1.1-.9-2-2-2h-7.28c-1.1,0-2,.9-2,2v7.28c0,1.1,.9,2,2,2h7.28c1.1,0,2-.9,2-2Zm0,28.2v-7.28c0-1.1-.9-2-2-2h-7.28c-1.1,0-2,.9-2,2v7.28c0,1.1,.9,2,2,2h7.28c1.1,0,2-.9,2-2Zm0,28.2v-7.28c0-1.1-.9-2-2-2h-7.28c-1.1,0-2,.9-2,2v7.28c0,1.1,.9,2,2,2h7.28c1.1,0,2-.9,2-2Zm0,14.1v-7.28c0-1.1-.9-2-2-2h-7.28c-1.1,0-2,.9-2,2v7.28c0,1.1,.9,2,2,2h7.28c1.1,0,2-.9,2-2Zm0,14.1v-7.28c0-1.1-.9-2-2-2h-7.28c-1.1,0-2,.9-2,2v7.28c0,1.1,.9,2,2,2h7.28c1.1,0,2-.9,2-2Zm0,28.2v-7.28c0-1.1-.9-2-2-2h-7.28c-1.1,0-2,.9-2,2v7.28c0,1.1,.9,2,2,2h7.28c1.1,0,2-.9,2-2Zm0,14.1v-7.28c0-1.1-.9-2-2-2h-7.28c-1.1,0-2,.9-2,2v7.28c0,1.1,.9,2,2,2h7.28c1.1,0,2-.9,2-2Zm0,14.1v-7.28c0-1.1-.9-2-2-2h-7.28c-1.1,0-2,.9-2,2v7.28c0,1.1,.9,2,2,2h7.28c1.1,0,2-.9,2-2Zm0,42.29v-7.28c0-1.1-.9-2-2-2h-7.28c-1.1,0-2,.9-2,2v7.28c0,1.1,.9,2,2,2h7.28c1.1,0,2-.9,2-2Zm0,14.1v-7.28c0-1.1-.9-2-2-2h-7.28c-1.1,0-2,.9-2,2v7.28c0,1.1,.9,2,2,2h7.28c1.1,0,2-.9,2-2Zm0,14.1v-7.28c0-1.1-.9-2-2-2h-7.28c-1.1,0-2,.9-2,2v7.28c0,1.1,.9,2,2,2h7.28c1.1,0,2-.9,2-2Zm0,14.1v-7.28c0-1.1-.9-2-2-2h-7.28c-1.1,0-2,.9-2,2v7.28c0,1.1,.9,2,2,2h7.28c1.1,0,2-.9,2-2Zm0,42.29v-7.28c0-1.1-.9-2-2-2h-7.28c-1.1,0-2,.9-2,2v7.28c0,1.1,.9,2,2,2h7.28c1.1,0,2-.9,2-2Zm0,28.2v-7.28c0-1.1-.9-2-2-2h-7.28c-1.1,0-2,.9-2,2v7.28c0,1.1,.9,2,2,2h7.28c1.1,0,2-.9,2-2Zm0,42.29v-7.28c0-1.1-.9-2-2-2h-7.28c-1.1,0-2,.9-2,2v7.28c0,1.1,.9,2,2,2h7.28c1.1,0,2-.9,2-2Zm0,14.1v-7.28c0-1.1-.9-2-2-2h-7.28c-1.1,0-2,.9-2,2v7.28c0,1.1,.9,2,2,2h7.28c1.1,0,2-.9,2-2Zm0,42.29v-7.28c0-1.1-.9-2-2-2h-7.28c-1.1,0-2,.9-2,2v7.28c0,1.1,.9,2,2,2h7.28c1.1,0,2-.9,2-2Zm0,14.1v-7.28c0-1.1-.9-2-2-2h-7.28c-1.1,0-2,.9-2,2v7.28c0,1.1,.9,2,2,2h7.28c1.1,0,2-.9,2-2Zm0,28.2v-7.28c0-1.1-.9-2-2-2h-7.28c-1.1,0-2,.9-2,2v7.28c0,1.1,.9,2,2,2h7.28c1.1,0,2-.9,2-2Zm0,28.2v-7.28c0-1.1-.9-2-2-2h-7.28c-1.1,0-2,.9-2,2v7.28c0,1.1,.9,2,2,2h7.28c1.1,0,2-.9,2-2Zm0,28.2v-7.28c0-1.1-.9-2-2-2h-7.28c-1.1,0-2,.9-2,2v7.28c0,1.1,.9,2,2,2h7.28c1.1,0,2-.9,2-2Zm14.1-493.42v-7.28c0-1.1-.9-2-2-2h-7.28c-1.1,0-2,.9-2,2v7.28c0,1.1,.9,2,2,2h7.28c1.1,0,2-.9,2-2Zm0,14.1v-7.28c0-1.1-.9-2-2-2h-7.28c-1.1,0-2,.9-2,2v7.28c0,1.1,.9,2,2,2h7.28c1.1,0,2-.9,2-2Zm0,28.2v-7.28c0-1.1-.9-2-2-2h-7.28c-1.1,0-2,.9-2,2v7.28c0,1.1,.9,2,2,2h7.28c1.1,0,2-.9,2-2Zm0,14.1v-7.28c0-1.1-.9-2-2-2h-7.28c-1.1,0-2,.9-2,2v7.28c0,1.1,.9,2,2,2h7.28c1.1,0,2-.9,2-2Zm0,14.1v-7.28c0-1.1-.9-2-2-2h-7.28c-1.1,0-2,.9-2,2v7.28c0,1.1,.9,2,2,2h7.28c1.1,0,2-.9,2-2Zm0,28.2v-7.28c0-1.1-.9-2-2-2h-7.28c-1.1,0-2,.9-2,2v7.28c0,1.1,.9,2,2,2h7.28c1.1,0,2-.9,2-2Zm0,14.1v-7.28c0-1.1-.9-2-2-2h-7.28c-1.1,0-2,.9-2,2v7.28c0,1.1,.9,2,2,2h7.28c1.1,0,2-.9,2-2Zm0,14.1v-7.28c0-1.1-.9-2-2-2h-7.28c-1.1,0-2,.9-2,2v7.28c0,1.1,.9,2,2,2h7.28c1.1,0,2-.9,2-2Zm0,28.2v-7.28c0-1.1-.9-2-2-2h-7.28c-1.1,0-2,.9-2,2v7.28c0,1.1,.9,2,2,2h7.28c1.1,0,2-.9,2-2Zm0,14.1v-7.28c0-1.1-.9-2-2-2h-7.28c-1.1,0-2,.9-2,2v7.28c0,1.1,.9,2,2,2h7.28c1.1,0,2-.9,2-2Zm0,14.1v-7.28c0-1.1-.9-2-2-2h-7.28c-1.1,0-2,.9-2,2v7.28c0,1.1,.9,2,2,2h7.28c1.1,0,2-.9,2-2Zm0,140.98v-7.28c0-1.1-.9-2-2-2h-7.28c-1.1,0-2,.9-2,2v7.28c0,1.1,.9,2,2,2h7.28c1.1,0,2-.9,2-2Zm0,14.1v-7.28c0-1.1-.9-2-2-2h-7.28c-1.1,0-2,.9-2,2v7.28c0,1.1,.9,2,2,2h7.28c1.1,0,2-.9,2-2Zm0,14.1v-7.28c0-1.1-.9-2-2-2h-7.28c-1.1,0-2,.9-2,2v7.28c0,1.1,.9,2,2,2h7.28c1.1,0,2-.9,2-2Zm0,14.1v-7.28c0-1.1-.9-2-2-2h-7.28c-1.1,0-2,.9-2,2v7.28c0,1.1,.9,2,2,2h7.28c1.1,0,2-.9,2-2Zm0,28.2v-7.28c0-1.1-.9-2-2-2h-7.28c-1.1,0-2,.9-2,2v7.28c0,1.1,.9,2,2,2h7.28c1.1,0,2-.9,2-2Zm0,14.1v-7.28c0-1.1-.9-2-2-2h-7.28c-1.1,0-2,.9-2,2v7.28c0,1.1,.9,2,2,2h7.28c1.1,0,2-.9,2-2Zm0,28.2v-7.28c0-1.1-.9-2-2-2h-7.28c-1.1,0-2,.9-2,2v7.28c0,1.1,.9,2,2,2h7.28c1.1,0,2-.9,2-2Zm0,14.1v-7.28c0-1.1-.9-2-2-2h-7.28c-1.1,0-2,.9-2,2v7.28c0,1.1,.9,2,2,2h7.28c1.1,0,2-.9,2-2Zm0,42.29v-7.28c0-1.1-.9-2-2-2h-7.28c-1.1,0-2,.9-2,2v7.28c0,1.1,.9,2,2,2h7.28c1.1,0,2-.9,2-2Zm14.1-493.42v-7.28c0-1.1-.9-2-2-2h-7.28c-1.1,0-2,.9-2,2v7.28c0,1.1,.9,2,2,2h7.28c1.1,0,2-.9,2-2Zm0,42.29v-7.28c0-1.1-.9-2-2-2h-7.28c-1.1,0-2,.9-2,2v7.28c0,1.1,.9,2,2,2h7.28c1.1,0,2-.9,2-2Zm0,14.1v-7.28c0-1.1-.9-2-2-2h-7.28c-1.1,0-2,.9-2,2v7.28c0,1.1,.9,2,2,2h7.28c1.1,0,2-.9,2-2Zm0,14.1v-7.28c0-1.1-.9-2-2-2h-7.28c-1.1,0-2,.9-2,2v7.28c0,1.1,.9,2,2,2h7.28c1.1,0,2-.9,2-2Zm0,14.1v-7.28c0-1.1-.9-2-2-2h-7.28c-1.1,0-2,.9-2,2v7.28c0,1.1,.9,2,2,2h7.28c1.1,0,2-.9,2-2Zm0,14.1v-7.28c0-1.1-.9-2-2-2h-7.28c-1.1,0-2,.9-2,2v7.28c0,1.1,.9,2,2,2h7.28c1.1,0,2-.9,2-2Zm0,14.1v-7.28c0-1.1-.9-2-2-2h-7.28c-1.1,0-2,.9-2,2v7.28c0,1.1,.9,2,2,2h7.28c1.1,0,2-.9,2-2Zm0,14.1v-7.28c0-1.1-.9-2-2-2h-7.28c-1.1,0-2,.9-2,2v7.28c0,1.1,.9,2,2,2h7.28c1.1,0,2-.9,2-2Zm0,28.2v-7.28c0-1.1-.9-2-2-2h-7.28c-1.1,0-2,.9-2,2v7.28c0,1.1,.9,2,2,2h7.28c1.1,0,2-.9,2-2Zm0,14.1v-7.28c0-1.1-.9-2-2-2h-7.28c-1.1,0-2,.9-2,2v7.28c0,1.1,.9,2,2,2h7.28c1.1,0,2-.9,2-2Zm0,14.1v-7.28c0-1.1-.9-2-2-2h-7.28c-1.1,0-2,.9-2,2v7.28c0,1.1,.9,2,2,2h7.28c1.1,0,2-.9,2-2Zm0,14.1v-7.28c0-1.1-.9-2-2-2h-7.28c-1.1,0-2,.9-2,2v7.28c0,1.1,.9,2,2,2h7.28c1.1,0,2-.9,2-2Zm0,14.1v-7.28c0-1.1-.9-2-2-2h-7.28c-1.1,0-2,.9-2,2v7.28c0,1.1,.9,2,2,2h7.28c1.1,0,2-.9,2-2Zm0,14.1v-7.28c0-1.1-.9-2-2-2h-7.28c-1.1,0-2,.9-2,2v7.28c0,1.1,.9,2,2,2h7.28c1.1,0,2-.9,2-2Zm0,14.1v-7.28c0-1.1-.9-2-2-2h-7.28c-1.1,0-2,.9-2,2v7.28c0,1.1,.9,2,2,2h7.28c1.1,0,2-.9,2-2Zm0,14.1v-7.28c0-1.1-.9-2-2-2h-7.28c-1.1,0-2,.9-2,2v7.28c0,1.1,.9,2,2,2h7.28c1.1,0,2-.9,2-2Zm0,28.2v-7.28c0-1.1-.9-2-2-2h-7.28c-1.1,0-2,.9-2,2v7.28c0,1.1,.9,2,2,2h7.28c1.1,0,2-.9,2-2Zm0,14.1v-7.28c0-1.1-.9-2-2-2h-7.28c-1.1,0-2,.9-2,2v7.28c0,1.1,.9,2,2,2h7.28c1.1,0,2-.9,2-2Zm0,14.1v-7.28c0-1.1-.9-2-2-2h-7.28c-1.1,0-2,.9-2,2v7.28c0,1.1,.9,2,2,2h7.28c1.1,0,2-.9,2-2Zm0,14.1v-7.28c0-1.1-.9-2-2-2h-7.28c-1.1,0-2,.9-2,2v7.28c0,1.1,.9,2,2,2h7.28c1.1,0,2-.9,2-2Zm0,42.29v-7.28c0-1.1-.9-2-2-2h-7.28c-1.1,0-2,.9-2,2v7.28c0,1.1,.9,2,2,2h7.28c1.1,0,2-.9,2-2Zm0,14.1v-7.28c0-1.1-.9-2-2-2h-7.28c-1.1,0-2,.9-2,2v7.28c0,1.1,.9,2,2,2h7.28c1.1,0,2-.9,2-2Zm0,14.1v-7.28c0-1.1-.9-2-2-2h-7.28c-1.1,0-2,.9-2,2v7.28c0,1.1,.9,2,2,2h7.28c1.1,0,2-.9,2-2Zm0,28.2v-7.28c0-1.1-.9-2-2-2h-7.28c-1.1,0-2,.9-2,2v7.28c0,1.1,.9,2,2,2h7.28c1.1,0,2-.9,2-2Zm0,14.1v-7.28c0-1.1-.9-2-2-2h-7.28c-1.1,0-2,.9-2,2v7.28c0,1.1,.9,2,2,2h7.28c1.1,0,2-.9,2-2Zm0,28.2v-7.28c0-1.1-.9-2-2-2h-7.28c-1.1,0-2,.9-2,2v7.28c0,1.1,.9,2,2,2h7.28c1.1,0,2-.9,2-2Zm14.1-451.13v-7.28c0-1.1-.9-2-2-2h-7.28c-1.1,0-2,.9-2,2v7.28c0,1.1,.9,2,2,2h7.28c1.1,0,2-.9,2-2Zm0,14.1v-7.28c0-1.1-.9-2-2-2h-7.28c-1.1,0-2,.9-2,2v7.28c0,1.1,.9,2,2,2h7.28c1.1,0,2-.9,2-2Zm0,14.1v-7.28c0-1.1-.9-2-2-2h-7.28c-1.1,0-2,.9-2,2v7.28c0,1.1,.9,2,2,2h7.28c1.1,0,2-.9,2-2Zm0,14.1v-7.28c0-1.1-.9-2-2-2h-7.28c-1.1,0-2,.9-2,2v7.28c0,1.1,.9,2,2,2h7.28c1.1,0,2-.9,2-2Zm0,14.1v-7.28c0-1.1-.9-2-2-2h-7.28c-1.1,0-2,.9-2,2v7.28c0,1.1,.9,2,2,2h7.28c1.1,0,2-.9,2-2Zm0,56.39v-7.28c0-1.1-.9-2-2-2h-7.28c-1.1,0-2,.9-2,2v7.28c0,1.1,.9,2,2,2h7.28c1.1,0,2-.9,2-2Zm0,14.1v-7.28c0-1.1-.9-2-2-2h-7.28c-1.1,0-2,.9-2,2v7.28c0,1.1,.9,2,2,2h7.28c1.1,0,2-.9,2-2Zm0,14.1v-7.28c0-1.1-.9-2-2-2h-7.28c-1.1,0-2,.9-2,2v7.28c0,1.1,.9,2,2,2h7.28c1.1,0,2-.9,2-2Zm0,14.1v-7.28c0-1.1-.9-2-2-2h-7.28c-1.1,0-2,.9-2,2v7.28c0,1.1,.9,2,2,2h7.28c1.1,0,2-.9,2-2Zm0,28.2v-7.28c0-1.1-.9-2-2-2h-7.28c-1.1,0-2,.9-2,2v7.28c0,1.1,.9,2,2,2h7.28c1.1,0,2-.9,2-2Zm0,14.1v-7.28c0-1.1-.9-2-2-2h-7.28c-1.1,0-2,.9-2,2v7.28c0,1.1,.9,2,2,2h7.28c1.1,0,2-.9,2-2Zm0,14.1v-7.28c0-1.1-.9-2-2-2h-7.28c-1.1,0-2,.9-2,2v7.28c0,1.1,.9,2,2,2h7.28c1.1,0,2-.9,2-2Zm0,28.2v-7.28c0-1.1-.9-2-2-2h-7.28c-1.1,0-2,.9-2,2v7.28c0,1.1,.9,2,2,2h7.28c1.1,0,2-.9,2-2Zm0,14.1v-7.28c0-1.1-.9-2-2-2h-7.28c-1.1,0-2,.9-2,2v7.28c0,1.1,.9,2,2,2h7.28c1.1,0,2-.9,2-2Zm0,14.1v-7.28c0-1.1-.9-2-2-2h-7.28c-1.1,0-2,.9-2,2v7.28c0,1.1,.9,2,2,2h7.28c1.1,0,2-.9,2-2Zm0,14.1v-7.28c0-1.1-.9-2-2-2h-7.28c-1.1,0-2,.9-2,2v7.28c0,1.1,.9,2,2,2h7.28c1.1,0,2-.9,2-2Zm0,42.29v-7.28c0-1.1-.9-2-2-2h-7.28c-1.1,0-2,.9-2,2v7.28c0,1.1,.9,2,2,2h7.28c1.1,0,2-.9,2-2Zm0,14.1v-7.28c0-1.1-.9-2-2-2h-7.28c-1.1,0-2,.9-2,2v7.28c0,1.1,.9,2,2,2h7.28c1.1,0,2-.9,2-2Zm0,28.2v-7.28c0-1.1-.9-2-2-2h-7.28c-1.1,0-2,.9-2,2v7.28c0,1.1,.9,2,2,2h7.28c1.1,0,2-.9,2-2Zm0,14.1v-7.28c0-1.1-.9-2-2-2h-7.28c-1.1,0-2,.9-2,2v7.28c0,1.1,.9,2,2,2h7.28c1.1,0,2-.9,2-2Zm0,14.1v-7.28c0-1.1-.9-2-2-2h-7.28c-1.1,0-2,.9-2,2v7.28c0,1.1,.9,2,2,2h7.28c1.1,0,2-.9,2-2Zm0,42.29v-7.28c0-1.1-.9-2-2-2h-7.28c-1.1,0-2,.9-2,2v7.28c0,1.1,.9,2,2,2h7.28c1.1,0,2-.9,2-2Zm0,14.1v-7.28c0-1.1-.9-2-2-2h-7.28c-1.1,0-2,.9-2,2v7.28c0,1.1,.9,2,2,2h7.28c1.1,0,2-.9,2-2Zm0,28.2v-7.28c0-1.1-.9-2-2-2h-7.28c-1.1,0-2,.9-2,2v7.28c0,1.1,.9,2,2,2h7.28c1.1,0,2-.9,2-2Zm14.1-493.42v-7.28c0-1.1-.9-2-2-2h-7.28c-1.1,0-2,.9-2,2v7.28c0,1.1,.9,2,2,2h7.28c1.1,0,2-.9,2-2Zm0,14.1v-7.28c0-1.1-.9-2-2-2h-7.28c-1.1,0-2,.9-2,2v7.28c0,1.1,.9,2,2,2h7.28c1.1,0,2-.9,2-2Zm0,14.1v-7.28c0-1.1-.9-2-2-2h-7.28c-1.1,0-2,.9-2,2v7.28c0,1.1,.9,2,2,2h7.28c1.1,0,2-.9,2-2Zm0,28.2v-7.28c0-1.1-.9-2-2-2h-7.28c-1.1,0-2,.9-2,2v7.28c0,1.1,.9,2,2,2h7.28c1.1,0,2-.9,2-2Zm0,14.1v-7.28c0-1.1-.9-2-2-2h-7.28c-1.1,0-2,.9-2,2v7.28c0,1.1,.9,2,2,2h7.28c1.1,0,2-.9,2-2Zm0,14.1v-7.28c0-1.1-.9-2-2-2h-7.28c-1.1,0-2,.9-2,2v7.28c0,1.1,.9,2,2,2h7.28c1.1,0,2-.9,2-2Zm0,14.1v-7.28c0-1.1-.9-2-2-2h-7.28c-1.1,0-2,.9-2,2v7.28c0,1.1,.9,2,2,2h7.28c1.1,0,2-.9,2-2Zm0,14.1v-7.28c0-1.1-.9-2-2-2h-7.28c-1.1,0-2,.9-2,2v7.28c0,1.1,.9,2,2,2h7.28c1.1,0,2-.9,2-2Zm0,28.2v-7.28c0-1.1-.9-2-2-2h-7.28c-1.1,0-2,.9-2,2v7.28c0,1.1,.9,2,2,2h7.28c1.1,0,2-.9,2-2Zm0,28.2v-7.28c0-1.1-.9-2-2-2h-7.28c-1.1,0-2,.9-2,2v7.28c0,1.1,.9,2,2,2h7.28c1.1,0,2-.9,2-2Zm0,14.1v-7.28c0-1.1-.9-2-2-2h-7.28c-1.1,0-2,.9-2,2v7.28c0,1.1,.9,2,2,2h7.28c1.1,0,2-.9,2-2Zm0,42.29v-7.28c0-1.1-.9-2-2-2h-7.28c-1.1,0-2,.9-2,2v7.28c0,1.1,.9,2,2,2h7.28c1.1,0,2-.9,2-2Zm0,14.1v-7.28c0-1.1-.9-2-2-2h-7.28c-1.1,0-2,.9-2,2v7.28c0,1.1,.9,2,2,2h7.28c1.1,0,2-.9,2-2Zm0,14.1v-7.28c0-1.1-.9-2-2-2h-7.28c-1.1,0-2,.9-2,2v7.28c0,1.1,.9,2,2,2h7.28c1.1,0,2-.9,2-2Zm0,14.1v-7.28c0-1.1-.9-2-2-2h-7.28c-1.1,0-2,.9-2,2v7.28c0,1.1,.9,2,2,2h7.28c1.1,0,2-.9,2-2Zm0,28.2v-7.28c0-1.1-.9-2-2-2h-7.28c-1.1,0-2,.9-2,2v7.28c0,1.1,.9,2,2,2h7.28c1.1,0,2-.9,2-2Zm0,14.1v-7.28c0-1.1-.9-2-2-2h-7.28c-1.1,0-2,.9-2,2v7.28c0,1.1,.9,2,2,2h7.28c1.1,0,2-.9,2-2Zm0,14.1v-7.28c0-1.1-.9-2-2-2h-7.28c-1.1,0-2,.9-2,2v7.28c0,1.1,.9,2,2,2h7.28c1.1,0,2-.9,2-2Zm0,14.1v-7.28c0-1.1-.9-2-2-2h-7.28c-1.1,0-2,.9-2,2v7.28c0,1.1,.9,2,2,2h7.28c1.1,0,2-.9,2-2Zm0,28.2v-7.28c0-1.1-.9-2-2-2h-7.28c-1.1,0-2,.9-2,2v7.28c0,1.1,.9,2,2,2h7.28c1.1,0,2-.9,2-2Zm0,14.1v-7.28c0-1.1-.9-2-2-2h-7.28c-1.1,0-2,.9-2,2v7.28c0,1.1,.9,2,2,2h7.28c1.1,0,2-.9,2-2Zm0,14.1v-7.28c0-1.1-.9-2-2-2h-7.28c-1.1,0-2,.9-2,2v7.28c0,1.1,.9,2,2,2h7.28c1.1,0,2-.9,2-2Zm0,14.1v-7.28c0-1.1-.9-2-2-2h-7.28c-1.1,0-2,.9-2,2v7.28c0,1.1,.9,2,2,2h7.28c1.1,0,2-.9,2-2Zm0,28.2v-7.28c0-1.1-.9-2-2-2h-7.28c-1.1,0-2,.9-2,2v7.28c0,1.1,.9,2,2,2h7.28c1.1,0,2-.9,2-2Zm0,28.2v-7.28c0-1.1-.9-2-2-2h-7.28c-1.1,0-2,.9-2,2v7.28c0,1.1,.9,2,2,2h7.28c1.1,0,2-.9,2-2Zm0,14.1v-7.28c0-1.1-.9-2-2-2h-7.28c-1.1,0-2,.9-2,2v7.28c0,1.1,.9,2,2,2h7.28c1.1,0,2-.9,2-2Zm14.1-479.32v-7.28c0-1.1-.9-2-2-2h-7.28c-1.1,0-2,.9-2,2v7.28c0,1.1,.9,2,2,2h7.28c1.1,0,2-.9,2-2Zm0,14.1v-7.28c0-1.1-.9-2-2-2h-7.28c-1.1,0-2,.9-2,2v7.28c0,1.1,.9,2,2,2h7.28c1.1,0,2-.9,2-2Zm0,14.1v-7.28c0-1.1-.9-2-2-2h-7.28c-1.1,0-2,.9-2,2v7.28c0,1.1,.9,2,2,2h7.28c1.1,0,2-.9,2-2Zm0,14.1v-7.28c0-1.1-.9-2-2-2h-7.28c-1.1,0-2,.9-2,2v7.28c0,1.1,.9,2,2,2h7.28c1.1,0,2-.9,2-2Zm0,56.39v-7.28c0-1.1-.9-2-2-2h-7.28c-1.1,0-2,.9-2,2v7.28c0,1.1,.9,2,2,2h7.28c1.1,0,2-.9,2-2Zm0,28.2v-7.28c0-1.1-.9-2-2-2h-7.28c-1.1,0-2,.9-2,2v7.28c0,1.1,.9,2,2,2h7.28c1.1,0,2-.9,2-2Zm0,14.1v-7.28c0-1.1-.9-2-2-2h-7.28c-1.1,0-2,.9-2,2v7.28c0,1.1,.9,2,2,2h7.28c1.1,0,2-.9,2-2Zm0,14.1v-7.28c0-1.1-.9-2-2-2h-7.28c-1.1,0-2,.9-2,2v7.28c0,1.1,.9,2,2,2h7.28c1.1,0,2-.9,2-2Zm0,28.2v-7.28c0-1.1-.9-2-2-2h-7.28c-1.1,0-2,.9-2,2v7.28c0,1.1,.9,2,2,2h7.28c1.1,0,2-.9,2-2Zm0,14.1v-7.28c0-1.1-.9-2-2-2h-7.28c-1.1,0-2,.9-2,2v7.28c0,1.1,.9,2,2,2h7.28c1.1,0,2-.9,2-2Zm0,14.1v-7.28c0-1.1-.9-2-2-2h-7.28c-1.1,0-2,.9-2,2v7.28c0,1.1,.9,2,2,2h7.28c1.1,0,2-.9,2-2Zm0,28.2v-7.28c0-1.1-.9-2-2-2h-7.28c-1.1,0-2,.9-2,2v7.28c0,1.1,.9,2,2,2h7.28c1.1,0,2-.9,2-2Zm0,14.1v-7.28c0-1.1-.9-2-2-2h-7.28c-1.1,0-2,.9-2,2v7.28c0,1.1,.9,2,2,2h7.28c1.1,0,2-.9,2-2Zm0,14.1v-7.28c0-1.1-.9-2-2-2h-7.28c-1.1,0-2,.9-2,2v7.28c0,1.1,.9,2,2,2h7.28c1.1,0,2-.9,2-2Zm0,14.1v-7.28c0-1.1-.9-2-2-2h-7.28c-1.1,0-2,.9-2,2v7.28c0,1.1,.9,2,2,2h7.28c1.1,0,2-.9,2-2Zm0,14.1v-7.28c0-1.1-.9-2-2-2h-7.28c-1.1,0-2,.9-2,2v7.28c0,1.1,.9,2,2,2h7.28c1.1,0,2-.9,2-2Zm0,28.2v-7.28c0-1.1-.9-2-2-2h-7.28c-1.1,0-2,.9-2,2v7.28c0,1.1,.9,2,2,2h7.28c1.1,0,2-.9,2-2Zm0,14.1v-7.28c0-1.1-.9-2-2-2h-7.28c-1.1,0-2,.9-2,2v7.28c0,1.1,.9,2,2,2h7.28c1.1,0,2-.9,2-2Zm0,14.1v-7.28c0-1.1-.9-2-2-2h-7.28c-1.1,0-2,.9-2,2v7.28c0,1.1,.9,2,2,2h7.28c1.1,0,2-.9,2-2Zm0,14.1v-7.28c0-1.1-.9-2-2-2h-7.28c-1.1,0-2,.9-2,2v7.28c0,1.1,.9,2,2,2h7.28c1.1,0,2-.9,2-2Zm0,28.2v-7.28c0-1.1-.9-2-2-2h-7.28c-1.1,0-2,.9-2,2v7.28c0,1.1,.9,2,2,2h7.28c1.1,0,2-.9,2-2Zm0,14.1v-7.28c0-1.1-.9-2-2-2h-7.28c-1.1,0-2,.9-2,2v7.28c0,1.1,.9,2,2,2h7.28c1.1,0,2-.9,2-2Zm0,28.2v-7.28c0-1.1-.9-2-2-2h-7.28c-1.1,0-2,.9-2,2v7.28c0,1.1,.9,2,2,2h7.28c1.1,0,2-.9,2-2Zm0,14.1v-7.28c0-1.1-.9-2-2-2h-7.28c-1.1,0-2,.9-2,2v7.28c0,1.1,.9,2,2,2h7.28c1.1,0,2-.9,2-2Zm0,28.2v-7.28c0-1.1-.9-2-2-2h-7.28c-1.1,0-2,.9-2,2v7.28c0,1.1,.9,2,2,2h7.28c1.1,0,2-.9,2-2Zm0,14.1v-7.28c0-1.1-.9-2-2-2h-7.28c-1.1,0-2,.9-2,2v7.28c0,1.1,.9,2,2,2h7.28c1.1,0,2-.9,2-2Zm14.1-493.42v-7.28c0-1.1-.9-2-2-2h-7.28c-1.1,0-2,.9-2,2v7.28c0,1.1,.9,2,2,2h7.28c1.1,0,2-.9,2-2Zm0,14.1v-7.28c0-1.1-.9-2-2-2h-7.28c-1.1,0-2,.9-2,2v7.28c0,1.1,.9,2,2,2h7.28c1.1,0,2-.9,2-2Zm0,28.2v-7.28c0-1.1-.9-2-2-2h-7.28c-1.1,0-2,.9-2,2v7.28c0,1.1,.9,2,2,2h7.28c1.1,0,2-.9,2-2Zm0,14.1v-7.28c0-1.1-.9-2-2-2h-7.28c-1.1,0-2,.9-2,2v7.28c0,1.1,.9,2,2,2h7.28c1.1,0,2-.9,2-2Zm0,14.1v-7.28c0-1.1-.9-2-2-2h-7.28c-1.1,0-2,.9-2,2v7.28c0,1.1,.9,2,2,2h7.28c1.1,0,2-.9,2-2Zm0,14.1v-7.28c0-1.1-.9-2-2-2h-7.28c-1.1,0-2,.9-2,2v7.28c0,1.1,.9,2,2,2h7.28c1.1,0,2-.9,2-2Zm0,14.1v-7.28c0-1.1-.9-2-2-2h-7.28c-1.1,0-2,.9-2,2v7.28c0,1.1,.9,2,2,2h7.28c1.1,0,2-.9,2-2Zm0,14.1v-7.28c0-1.1-.9-2-2-2h-7.28c-1.1,0-2,.9-2,2v7.28c0,1.1,.9,2,2,2h7.28c1.1,0,2-.9,2-2Zm0,28.2v-7.28c0-1.1-.9-2-2-2h-7.28c-1.1,0-2,.9-2,2v7.28c0,1.1,.9,2,2,2h7.28c1.1,0,2-.9,2-2Zm0,14.1v-7.28c0-1.1-.9-2-2-2h-7.28c-1.1,0-2,.9-2,2v7.28c0,1.1,.9,2,2,2h7.28c1.1,0,2-.9,2-2Zm0,14.1v-7.28c0-1.1-.9-2-2-2h-7.28c-1.1,0-2,.9-2,2v7.28c0,1.1,.9,2,2,2h7.28c1.1,0,2-.9,2-2Zm0,14.1v-7.28c0-1.1-.9-2-2-2h-7.28c-1.1,0-2,.9-2,2v7.28c0,1.1,.9,2,2,2h7.28c1.1,0,2-.9,2-2Zm0,14.1v-7.28c0-1.1-.9-2-2-2h-7.28c-1.1,0-2,.9-2,2v7.28c0,1.1,.9,2,2,2h7.28c1.1,0,2-.9,2-2Zm0,14.1v-7.28c0-1.1-.9-2-2-2h-7.28c-1.1,0-2,.9-2,2v7.28c0,1.1,.9,2,2,2h7.28c1.1,0,2-.9,2-2Zm0,14.1v-7.28c0-1.1-.9-2-2-2h-7.28c-1.1,0-2,.9-2,2v7.28c0,1.1,.9,2,2,2h7.28c1.1,0,2-.9,2-2Zm0,14.1v-7.28c0-1.1-.9-2-2-2h-7.28c-1.1,0-2,.9-2,2v7.28c0,1.1,.9,2,2,2h7.28c1.1,0,2-.9,2-2Zm0,14.1v-7.28c0-1.1-.9-2-2-2h-7.28c-1.1,0-2,.9-2,2v7.28c0,1.1,.9,2,2,2h7.28c1.1,0,2-.9,2-2Zm0,28.2v-7.28c0-1.1-.9-2-2-2h-7.28c-1.1,0-2,.9-2,2v7.28c0,1.1,.9,2,2,2h7.28c1.1,0,2-.9,2-2Zm0,42.29v-7.28c0-1.1-.9-2-2-2h-7.28c-1.1,0-2,.9-2,2v7.28c0,1.1,.9,2,2,2h7.28c1.1,0,2-.9,2-2Zm0,14.1v-7.28c0-1.1-.9-2-2-2h-7.28c-1.1,0-2,.9-2,2v7.28c0,1.1,.9,2,2,2h7.28c1.1,0,2-.9,2-2Zm0,14.1v-7.28c0-1.1-.9-2-2-2h-7.28c-1.1,0-2,.9-2,2v7.28c0,1.1,.9,2,2,2h7.28c1.1,0,2-.9,2-2Zm0,14.1v-7.28c0-1.1-.9-2-2-2h-7.28c-1.1,0-2,.9-2,2v7.28c0,1.1,.9,2,2,2h7.28c1.1,0,2-.9,2-2Zm0,14.1v-7.28c0-1.1-.9-2-2-2h-7.28c-1.1,0-2,.9-2,2v7.28c0,1.1,.9,2,2,2h7.28c1.1,0,2-.9,2-2Zm0,14.1v-7.28c0-1.1-.9-2-2-2h-7.28c-1.1,0-2,.9-2,2v7.28c0,1.1,.9,2,2,2h7.28c1.1,0,2-.9,2-2Zm0,28.2v-7.28c0-1.1-.9-2-2-2h-7.28c-1.1,0-2,.9-2,2v7.28c0,1.1,.9,2,2,2h7.28c1.1,0,2-.9,2-2Zm0,14.1v-7.28c0-1.1-.9-2-2-2h-7.28c-1.1,0-2,.9-2,2v7.28c0,1.1,.9,2,2,2h7.28c1.1,0,2-.9,2-2Zm0,28.2v-7.28c0-1.1-.9-2-2-2h-7.28c-1.1,0-2,.9-2,2v7.28c0,1.1,.9,2,2,2h7.28c1.1,0,2-.9,2-2Zm0,14.1v-7.28c0-1.1-.9-2-2-2h-7.28c-1.1,0-2,.9-2,2v7.28c0,1.1,.9,2,2,2h7.28c1.1,0,2-.9,2-2Zm14.1-479.32v-7.28c0-1.1-.9-2-2-2h-7.28c-1.1,0-2,.9-2,2v7.28c0,1.1,.9,2,2,2h7.28c1.1,0,2-.9,2-2Zm0,14.1v-7.28c0-1.1-.9-2-2-2h-7.28c-1.1,0-2,.9-2,2v7.28c0,1.1,.9,2,2,2h7.28c1.1,0,2-.9,2-2Zm0,14.1v-7.28c0-1.1-.9-2-2-2h-7.28c-1.1,0-2,.9-2,2v7.28c0,1.1,.9,2,2,2h7.28c1.1,0,2-.9,2-2Zm0,14.1v-7.28c0-1.1-.9-2-2-2h-7.28c-1.1,0-2,.9-2,2v7.28c0,1.1,.9,2,2,2h7.28c1.1,0,2-.9,2-2Zm0,14.1v-7.28c0-1.1-.9-2-2-2h-7.28c-1.1,0-2,.9-2,2v7.28c0,1.1,.9,2,2,2h7.28c1.1,0,2-.9,2-2Zm0,28.2v-7.28c0-1.1-.9-2-2-2h-7.28c-1.1,0-2,.9-2,2v7.28c0,1.1,.9,2,2,2h7.28c1.1,0,2-.9,2-2Zm0,14.1v-7.28c0-1.1-.9-2-2-2h-7.28c-1.1,0-2,.9-2,2v7.28c0,1.1,.9,2,2,2h7.28c1.1,0,2-.9,2-2Zm0,14.1v-7.28c0-1.1-.9-2-2-2h-7.28c-1.1,0-2,.9-2,2v7.28c0,1.1,.9,2,2,2h7.28c1.1,0,2-.9,2-2Zm0,28.2v-7.28c0-1.1-.9-2-2-2h-7.28c-1.1,0-2,.9-2,2v7.28c0,1.1,.9,2,2,2h7.28c1.1,0,2-.9,2-2Zm0,14.1v-7.28c0-1.1-.9-2-2-2h-7.28c-1.1,0-2,.9-2,2v7.28c0,1.1,.9,2,2,2h7.28c1.1,0,2-.9,2-2Zm0,14.1v-7.28c0-1.1-.9-2-2-2h-7.28c-1.1,0-2,.9-2,2v7.28c0,1.1,.9,2,2,2h7.28c1.1,0,2-.9,2-2Zm0,14.1v-7.28c0-1.1-.9-2-2-2h-7.28c-1.1,0-2,.9-2,2v7.28c0,1.1,.9,2,2,2h7.28c1.1,0,2-.9,2-2Zm0,14.1v-7.28c0-1.1-.9-2-2-2h-7.28c-1.1,0-2,.9-2,2v7.28c0,1.1,.9,2,2,2h7.28c1.1,0,2-.9,2-2Zm0,14.1v-7.28c0-1.1-.9-2-2-2h-7.28c-1.1,0-2,.9-2,2v7.28c0,1.1,.9,2,2,2h7.28c1.1,0,2-.9,2-2Zm0,14.1v-7.28c0-1.1-.9-2-2-2h-7.28c-1.1,0-2,.9-2,2v7.28c0,1.1,.9,2,2,2h7.28c1.1,0,2-.9,2-2Zm0,28.2v-7.28c0-1.1-.9-2-2-2h-7.28c-1.1,0-2,.9-2,2v7.28c0,1.1,.9,2,2,2h7.28c1.1,0,2-.9,2-2Zm0,14.1v-7.28c0-1.1-.9-2-2-2h-7.28c-1.1,0-2,.9-2,2v7.28c0,1.1,.9,2,2,2h7.28c1.1,0,2-.9,2-2Zm0,14.1v-7.28c0-1.1-.9-2-2-2h-7.28c-1.1,0-2,.9-2,2v7.28c0,1.1,.9,2,2,2h7.28c1.1,0,2-.9,2-2Zm0,14.1v-7.28c0-1.1-.9-2-2-2h-7.28c-1.1,0-2,.9-2,2v7.28c0,1.1,.9,2,2,2h7.28c1.1,0,2-.9,2-2Zm0,28.2v-7.28c0-1.1-.9-2-2-2h-7.28c-1.1,0-2,.9-2,2v7.28c0,1.1,.9,2,2,2h7.28c1.1,0,2-.9,2-2Zm0,14.1v-7.28c0-1.1-.9-2-2-2h-7.28c-1.1,0-2,.9-2,2v7.28c0,1.1,.9,2,2,2h7.28c1.1,0,2-.9,2-2Zm0,14.1v-7.28c0-1.1-.9-2-2-2h-7.28c-1.1,0-2,.9-2,2v7.28c0,1.1,.9,2,2,2h7.28c1.1,0,2-.9,2-2Zm0,14.1v-7.28c0-1.1-.9-2-2-2h-7.28c-1.1,0-2,.9-2,2v7.28c0,1.1,.9,2,2,2h7.28c1.1,0,2-.9,2-2Zm0,14.1v-7.28c0-1.1-.9-2-2-2h-7.28c-1.1,0-2,.9-2,2v7.28c0,1.1,.9,2,2,2h7.28c1.1,0,2-.9,2-2Zm0,42.29v-7.28c0-1.1-.9-2-2-2h-7.28c-1.1,0-2,.9-2,2v7.28c0,1.1,.9,2,2,2h7.28c1.1,0,2-.9,2-2Zm0,14.1v-7.28c0-1.1-.9-2-2-2h-7.28c-1.1,0-2,.9-2,2v7.28c0,1.1,.9,2,2,2h7.28c1.1,0,2-.9,2-2Zm0,14.1v-7.28c0-1.1-.9-2-2-2h-7.28c-1.1,0-2,.9-2,2v7.28c0,1.1,.9,2,2,2h7.28c1.1,0,2-.9,2-2Zm0,28.2v-7.28c0-1.1-.9-2-2-2h-7.28c-1.1,0-2,.9-2,2v7.28c0,1.1,.9,2,2,2h7.28c1.1,0,2-.9,2-2Zm14.1-479.32v-7.28c0-1.1-.9-2-2-2h-7.28c-1.1,0-2,.9-2,2v7.28c0,1.1,.9,2,2,2h7.28c1.1,0,2-.9,2-2Zm0,14.1v-7.28c0-1.1-.9-2-2-2h-7.28c-1.1,0-2,.9-2,2v7.28c0,1.1,.9,2,2,2h7.28c1.1,0,2-.9,2-2Zm0,14.1v-7.28c0-1.1-.9-2-2-2h-7.28c-1.1,0-2,.9-2,2v7.28c0,1.1,.9,2,2,2h7.28c1.1,0,2-.9,2-2Zm0,14.1v-7.28c0-1.1-.9-2-2-2h-7.28c-1.1,0-2,.9-2,2v7.28c0,1.1,.9,2,2,2h7.28c1.1,0,2-.9,2-2Zm0,14.1v-7.28c0-1.1-.9-2-2-2h-7.28c-1.1,0-2,.9-2,2v7.28c0,1.1,.9,2,2,2h7.28c1.1,0,2-.9,2-2Zm0,14.1v-7.28c0-1.1-.9-2-2-2h-7.28c-1.1,0-2,.9-2,2v7.28c0,1.1,.9,2,2,2h7.28c1.1,0,2-.9,2-2Zm0,14.1v-7.28c0-1.1-.9-2-2-2h-7.28c-1.1,0-2,.9-2,2v7.28c0,1.1,.9,2,2,2h7.28c1.1,0,2-.9,2-2Zm0,14.1v-7.28c0-1.1-.9-2-2-2h-7.28c-1.1,0-2,.9-2,2v7.28c0,1.1,.9,2,2,2h7.28c1.1,0,2-.9,2-2Zm0,14.1v-7.28c0-1.1-.9-2-2-2h-7.28c-1.1,0-2,.9-2,2v7.28c0,1.1,.9,2,2,2h7.28c1.1,0,2-.9,2-2Zm0,14.1v-7.28c0-1.1-.9-2-2-2h-7.28c-1.1,0-2,.9-2,2v7.28c0,1.1,.9,2,2,2h7.28c1.1,0,2-.9,2-2Zm0,28.2v-7.28c0-1.1-.9-2-2-2h-7.28c-1.1,0-2,.9-2,2v7.28c0,1.1,.9,2,2,2h7.28c1.1,0,2-.9,2-2Zm0,14.1v-7.28c0-1.1-.9-2-2-2h-7.28c-1.1,0-2,.9-2,2v7.28c0,1.1,.9,2,2,2h7.28c1.1,0,2-.9,2-2Zm0,14.1v-7.28c0-1.1-.9-2-2-2h-7.28c-1.1,0-2,.9-2,2v7.28c0,1.1,.9,2,2,2h7.28c1.1,0,2-.9,2-2Zm0,14.1v-7.28c0-1.1-.9-2-2-2h-7.28c-1.1,0-2,.9-2,2v7.28c0,1.1,.9,2,2,2h7.28c1.1,0,2-.9,2-2Zm0,28.2v-7.28c0-1.1-.9-2-2-2h-7.28c-1.1,0-2,.9-2,2v7.28c0,1.1,.9,2,2,2h7.28c1.1,0,2-.9,2-2Zm0,14.1v-7.28c0-1.1-.9-2-2-2h-7.28c-1.1,0-2,.9-2,2v7.28c0,1.1,.9,2,2,2h7.28c1.1,0,2-.9,2-2Zm0,14.1v-7.28c0-1.1-.9-2-2-2h-7.28c-1.1,0-2,.9-2,2v7.28c0,1.1,.9,2,2,2h7.28c1.1,0,2-.9,2-2Zm0,14.1v-7.28c0-1.1-.9-2-2-2h-7.28c-1.1,0-2,.9-2,2v7.28c0,1.1,.9,2,2,2h7.28c1.1,0,2-.9,2-2Zm0,42.29v-7.28c0-1.1-.9-2-2-2h-7.28c-1.1,0-2,.9-2,2v7.28c0,1.1,.9,2,2,2h7.28c1.1,0,2-.9,2-2Zm0,14.1v-7.28c0-1.1-.9-2-2-2h-7.28c-1.1,0-2,.9-2,2v7.28c0,1.1,.9,2,2,2h7.28c1.1,0,2-.9,2-2Zm0,14.1v-7.28c0-1.1-.9-2-2-2h-7.28c-1.1,0-2,.9-2,2v7.28c0,1.1,.9,2,2,2h7.28c1.1,0,2-.9,2-2Zm0,28.2v-7.28c0-1.1-.9-2-2-2h-7.28c-1.1,0-2,.9-2,2v7.28c0,1.1,.9,2,2,2h7.28c1.1,0,2-.9,2-2Zm0,14.1v-7.28c0-1.1-.9-2-2-2h-7.28c-1.1,0-2,.9-2,2v7.28c0,1.1,.9,2,2,2h7.28c1.1,0,2-.9,2-2Zm0,14.1v-7.28c0-1.1-.9-2-2-2h-7.28c-1.1,0-2,.9-2,2v7.28c0,1.1,.9,2,2,2h7.28c1.1,0,2-.9,2-2Zm0,14.1v-7.28c0-1.1-.9-2-2-2h-7.28c-1.1,0-2,.9-2,2v7.28c0,1.1,.9,2,2,2h7.28c1.1,0,2-.9,2-2Zm0,14.1v-7.28c0-1.1-.9-2-2-2h-7.28c-1.1,0-2,.9-2,2v7.28c0,1.1,.9,2,2,2h7.28c1.1,0,2-.9,2-2Zm0,28.2v-7.28c0-1.1-.9-2-2-2h-7.28c-1.1,0-2,.9-2,2v7.28c0,1.1,.9,2,2,2h7.28c1.1,0,2-.9,2-2Zm0,14.1v-7.28c0-1.1-.9-2-2-2h-7.28c-1.1,0-2,.9-2,2v7.28c0,1.1,.9,2,2,2h7.28c1.1,0,2-.9,2-2Zm0,28.2v-7.28c0-1.1-.9-2-2-2h-7.28c-1.1,0-2,.9-2,2v7.28c0,1.1,.9,2,2,2h7.28c1.1,0,2-.9,2-2Zm14.1-493.42v-7.28c0-1.1-.9-2-2-2h-7.28c-1.1,0-2,.9-2,2v7.28c0,1.1,.9,2,2,2h7.28c1.1,0,2-.9,2-2Zm0,14.1v-7.28c0-1.1-.9-2-2-2h-7.28c-1.1,0-2,.9-2,2v7.28c0,1.1,.9,2,2,2h7.28c1.1,0,2-.9,2-2Zm0,14.1v-7.28c0-1.1-.9-2-2-2h-7.28c-1.1,0-2,.9-2,2v7.28c0,1.1,.9,2,2,2h7.28c1.1,0,2-.9,2-2Zm0,42.29v-7.28c0-1.1-.9-2-2-2h-7.28c-1.1,0-2,.9-2,2v7.28c0,1.1,.9,2,2,2h7.28c1.1,0,2-.9,2-2Zm0,14.1v-7.28c0-1.1-.9-2-2-2h-7.28c-1.1,0-2,.9-2,2v7.28c0,1.1,.9,2,2,2h7.28c1.1,0,2-.9,2-2Zm0,14.1v-7.28c0-1.1-.9-2-2-2h-7.28c-1.1,0-2,.9-2,2v7.28c0,1.1,.9,2,2,2h7.28c1.1,0,2-.9,2-2Zm0,14.1v-7.28c0-1.1-.9-2-2-2h-7.28c-1.1,0-2,.9-2,2v7.28c0,1.1,.9,2,2,2h7.28c1.1,0,2-.9,2-2Zm0,14.1v-7.28c0-1.1-.9-2-2-2h-7.28c-1.1,0-2,.9-2,2v7.28c0,1.1,.9,2,2,2h7.28c1.1,0,2-.9,2-2Zm0,14.1v-7.28c0-1.1-.9-2-2-2h-7.28c-1.1,0-2,.9-2,2v7.28c0,1.1,.9,2,2,2h7.28c1.1,0,2-.9,2-2Zm0,14.1v-7.28c0-1.1-.9-2-2-2h-7.28c-1.1,0-2,.9-2,2v7.28c0,1.1,.9,2,2,2h7.28c1.1,0,2-.9,2-2Zm0,28.2v-7.28c0-1.1-.9-2-2-2h-7.28c-1.1,0-2,.9-2,2v7.28c0,1.1,.9,2,2,2h7.28c1.1,0,2-.9,2-2Zm0,14.1v-7.28c0-1.1-.9-2-2-2h-7.28c-1.1,0-2,.9-2,2v7.28c0,1.1,.9,2,2,2h7.28c1.1,0,2-.9,2-2Zm0,14.1v-7.28c0-1.1-.9-2-2-2h-7.28c-1.1,0-2,.9-2,2v7.28c0,1.1,.9,2,2,2h7.28c1.1,0,2-.9,2-2Zm0,14.1v-7.28c0-1.1-.9-2-2-2h-7.28c-1.1,0-2,.9-2,2v7.28c0,1.1,.9,2,2,2h7.28c1.1,0,2-.9,2-2Zm0,14.1v-7.28c0-1.1-.9-2-2-2h-7.28c-1.1,0-2,.9-2,2v7.28c0,1.1,.9,2,2,2h7.28c1.1,0,2-.9,2-2Zm0,28.2v-7.28c0-1.1-.9-2-2-2h-7.28c-1.1,0-2,.9-2,2v7.28c0,1.1,.9,2,2,2h7.28c1.1,0,2-.9,2-2Zm0,14.1v-7.28c0-1.1-.9-2-2-2h-7.28c-1.1,0-2,.9-2,2v7.28c0,1.1,.9,2,2,2h7.28c1.1,0,2-.9,2-2Zm0,14.1v-7.28c0-1.1-.9-2-2-2h-7.28c-1.1,0-2,.9-2,2v7.28c0,1.1,.9,2,2,2h7.28c1.1,0,2-.9,2-2Zm0,14.1v-7.28c0-1.1-.9-2-2-2h-7.28c-1.1,0-2,.9-2,2v7.28c0,1.1,.9,2,2,2h7.28c1.1,0,2-.9,2-2Zm0,28.2v-7.28c0-1.1-.9-2-2-2h-7.28c-1.1,0-2,.9-2,2v7.28c0,1.1,.9,2,2,2h7.28c1.1,0,2-.9,2-2Zm0,14.1v-7.28c0-1.1-.9-2-2-2h-7.28c-1.1,0-2,.9-2,2v7.28c0,1.1,.9,2,2,2h7.28c1.1,0,2-.9,2-2Zm0,14.1v-7.28c0-1.1-.9-2-2-2h-7.28c-1.1,0-2,.9-2,2v7.28c0,1.1,.9,2,2,2h7.28c1.1,0,2-.9,2-2Zm0,14.1v-7.28c0-1.1-.9-2-2-2h-7.28c-1.1,0-2,.9-2,2v7.28c0,1.1,.9,2,2,2h7.28c1.1,0,2-.9,2-2Zm0,14.1v-7.28c0-1.1-.9-2-2-2h-7.28c-1.1,0-2,.9-2,2v7.28c0,1.1,.9,2,2,2h7.28c1.1,0,2-.9,2-2Zm0,28.2v-7.28c0-1.1-.9-2-2-2h-7.28c-1.1,0-2,.9-2,2v7.28c0,1.1,.9,2,2,2h7.28c1.1,0,2-.9,2-2Zm0,14.1v-7.28c0-1.1-.9-2-2-2h-7.28c-1.1,0-2,.9-2,2v7.28c0,1.1,.9,2,2,2h7.28c1.1,0,2-.9,2-2Zm0,42.29v-7.28c0-1.1-.9-2-2-2h-7.28c-1.1,0-2,.9-2,2v7.28c0,1.1,.9,2,2,2h7.28c1.1,0,2-.9,2-2Zm0,14.1v-7.28c0-1.1-.9-2-2-2h-7.28c-1.1,0-2,.9-2,2v7.28c0,1.1,.9,2,2,2h7.28c1.1,0,2-.9,2-2Zm14.1-493.42v-7.28c0-1.1-.9-2-2-2h-7.28c-1.1,0-2,.9-2,2v7.28c0,1.1,.9,2,2,2h7.28c1.1,0,2-.9,2-2Zm0,14.1v-7.28c0-1.1-.9-2-2-2h-7.28c-1.1,0-2,.9-2,2v7.28c0,1.1,.9,2,2,2h7.28c1.1,0,2-.9,2-2Zm0,28.2v-7.28c0-1.1-.9-2-2-2h-7.28c-1.1,0-2,.9-2,2v7.28c0,1.1,.9,2,2,2h7.28c1.1,0,2-.9,2-2Zm0,14.1v-7.28c0-1.1-.9-2-2-2h-7.28c-1.1,0-2,.9-2,2v7.28c0,1.1,.9,2,2,2h7.28c1.1,0,2-.9,2-2Zm0,14.1v-7.28c0-1.1-.9-2-2-2h-7.28c-1.1,0-2,.9-2,2v7.28c0,1.1,.9,2,2,2h7.28c1.1,0,2-.9,2-2Zm0,14.1v-7.28c0-1.1-.9-2-2-2h-7.28c-1.1,0-2,.9-2,2v7.28c0,1.1,.9,2,2,2h7.28c1.1,0,2-.9,2-2Zm0,28.2v-7.28c0-1.1-.9-2-2-2h-7.28c-1.1,0-2,.9-2,2v7.28c0,1.1,.9,2,2,2h7.28c1.1,0,2-.9,2-2Zm0,14.1v-7.28c0-1.1-.9-2-2-2h-7.28c-1.1,0-2,.9-2,2v7.28c0,1.1,.9,2,2,2h7.28c1.1,0,2-.9,2-2Zm0,14.1v-7.28c0-1.1-.9-2-2-2h-7.28c-1.1,0-2,.9-2,2v7.28c0,1.1,.9,2,2,2h7.28c1.1,0,2-.9,2-2Zm0,14.1v-7.28c0-1.1-.9-2-2-2h-7.28c-1.1,0-2,.9-2,2v7.28c0,1.1,.9,2,2,2h7.28c1.1,0,2-.9,2-2Zm0,14.1v-7.28c0-1.1-.9-2-2-2h-7.28c-1.1,0-2,.9-2,2v7.28c0,1.1,.9,2,2,2h7.28c1.1,0,2-.9,2-2Zm0,14.1v-7.28c0-1.1-.9-2-2-2h-7.28c-1.1,0-2,.9-2,2v7.28c0,1.1,.9,2,2,2h7.28c1.1,0,2-.9,2-2Zm0,28.2v-7.28c0-1.1-.9-2-2-2h-7.28c-1.1,0-2,.9-2,2v7.28c0,1.1,.9,2,2,2h7.28c1.1,0,2-.9,2-2Zm0,14.1v-7.28c0-1.1-.9-2-2-2h-7.28c-1.1,0-2,.9-2,2v7.28c0,1.1,.9,2,2,2h7.28c1.1,0,2-.9,2-2Zm0,14.1v-7.28c0-1.1-.9-2-2-2h-7.28c-1.1,0-2,.9-2,2v7.28c0,1.1,.9,2,2,2h7.28c1.1,0,2-.9,2-2Zm0,14.1v-7.28c0-1.1-.9-2-2-2h-7.28c-1.1,0-2,.9-2,2v7.28c0,1.1,.9,2,2,2h7.28c1.1,0,2-.9,2-2Zm0,14.1v-7.28c0-1.1-.9-2-2-2h-7.28c-1.1,0-2,.9-2,2v7.28c0,1.1,.9,2,2,2h7.28c1.1,0,2-.9,2-2Zm0,14.1v-7.28c0-1.1-.9-2-2-2h-7.28c-1.1,0-2,.9-2,2v7.28c0,1.1,.9,2,2,2h7.28c1.1,0,2-.9,2-2Zm0,14.1v-7.28c0-1.1-.9-2-2-2h-7.28c-1.1,0-2,.9-2,2v7.28c0,1.1,.9,2,2,2h7.28c1.1,0,2-.9,2-2Zm0,28.2v-7.28c0-1.1-.9-2-2-2h-7.28c-1.1,0-2,.9-2,2v7.28c0,1.1,.9,2,2,2h7.28c1.1,0,2-.9,2-2Zm0,14.1v-7.28c0-1.1-.9-2-2-2h-7.28c-1.1,0-2,.9-2,2v7.28c0,1.1,.9,2,2,2h7.28c1.1,0,2-.9,2-2Zm0,14.1v-7.28c0-1.1-.9-2-2-2h-7.28c-1.1,0-2,.9-2,2v7.28c0,1.1,.9,2,2,2h7.28c1.1,0,2-.9,2-2Zm0,14.1v-7.28c0-1.1-.9-2-2-2h-7.28c-1.1,0-2,.9-2,2v7.28c0,1.1,.9,2,2,2h7.28c1.1,0,2-.9,2-2Zm0,28.2v-7.28c0-1.1-.9-2-2-2h-7.28c-1.1,0-2,.9-2,2v7.28c0,1.1,.9,2,2,2h7.28c1.1,0,2-.9,2-2Zm0,14.1v-7.28c0-1.1-.9-2-2-2h-7.28c-1.1,0-2,.9-2,2v7.28c0,1.1,.9,2,2,2h7.28c1.1,0,2-.9,2-2Zm0,14.1v-7.28c0-1.1-.9-2-2-2h-7.28c-1.1,0-2,.9-2,2v7.28c0,1.1,.9,2,2,2h7.28c1.1,0,2-.9,2-2Zm0,28.2v-7.28c0-1.1-.9-2-2-2h-7.28c-1.1,0-2,.9-2,2v7.28c0,1.1,.9,2,2,2h7.28c1.1,0,2-.9,2-2Zm0,14.1v-7.28c0-1.1-.9-2-2-2h-7.28c-1.1,0-2,.9-2,2v7.28c0,1.1,.9,2,2,2h7.28c1.1,0,2-.9,2-2Zm0,14.1v-7.28c0-1.1-.9-2-2-2h-7.28c-1.1,0-2,.9-2,2v7.28c0,1.1,.9,2,2,2h7.28c1.1,0,2-.9,2-2Zm14.1-479.32v-7.28c0-1.1-.9-2-2-2h-7.28c-1.1,0-2,.9-2,2v7.28c0,1.1,.9,2,2,2h7.28c1.1,0,2-.9,2-2Zm0,14.1v-7.28c0-1.1-.9-2-2-2h-7.28c-1.1,0-2,.9-2,2v7.28c0,1.1,.9,2,2,2h7.28c1.1,0,2-.9,2-2Zm0,28.2v-7.28c0-1.1-.9-2-2-2h-7.28c-1.1,0-2,.9-2,2v7.28c0,1.1,.9,2,2,2h7.28c1.1,0,2-.9,2-2Zm0,14.1v-7.28c0-1.1-.9-2-2-2h-7.28c-1.1,0-2,.9-2,2v7.28c0,1.1,.9,2,2,2h7.28c1.1,0,2-.9,2-2Zm0,14.1v-7.28c0-1.1-.9-2-2-2h-7.28c-1.1,0-2,.9-2,2v7.28c0,1.1,.9,2,2,2h7.28c1.1,0,2-.9,2-2Zm0,14.1v-7.28c0-1.1-.9-2-2-2h-7.28c-1.1,0-2,.9-2,2v7.28c0,1.1,.9,2,2,2h7.28c1.1,0,2-.9,2-2Zm0,14.1v-7.28c0-1.1-.9-2-2-2h-7.28c-1.1,0-2,.9-2,2v7.28c0,1.1,.9,2,2,2h7.28c1.1,0,2-.9,2-2Zm0,14.1v-7.28c0-1.1-.9-2-2-2h-7.28c-1.1,0-2,.9-2,2v7.28c0,1.1,.9,2,2,2h7.28c1.1,0,2-.9,2-2Zm0,14.1v-7.28c0-1.1-.9-2-2-2h-7.28c-1.1,0-2,.9-2,2v7.28c0,1.1,.9,2,2,2h7.28c1.1,0,2-.9,2-2Zm0,14.1v-7.28c0-1.1-.9-2-2-2h-7.28c-1.1,0-2,.9-2,2v7.28c0,1.1,.9,2,2,2h7.28c1.1,0,2-.9,2-2Zm0,28.2v-7.28c0-1.1-.9-2-2-2h-7.28c-1.1,0-2,.9-2,2v7.28c0,1.1,.9,2,2,2h7.28c1.1,0,2-.9,2-2Zm0,14.1v-7.28c0-1.1-.9-2-2-2h-7.28c-1.1,0-2,.9-2,2v7.28c0,1.1,.9,2,2,2h7.28c1.1,0,2-.9,2-2Zm0,14.1v-7.28c0-1.1-.9-2-2-2h-7.28c-1.1,0-2,.9-2,2v7.28c0,1.1,.9,2,2,2h7.28c1.1,0,2-.9,2-2Zm0,14.1v-7.28c0-1.1-.9-2-2-2h-7.28c-1.1,0-2,.9-2,2v7.28c0,1.1,.9,2,2,2h7.28c1.1,0,2-.9,2-2Zm0,14.1v-7.28c0-1.1-.9-2-2-2h-7.28c-1.1,0-2,.9-2,2v7.28c0,1.1,.9,2,2,2h7.28c1.1,0,2-.9,2-2Zm0,14.1v-7.28c0-1.1-.9-2-2-2h-7.28c-1.1,0-2,.9-2,2v7.28c0,1.1,.9,2,2,2h7.28c1.1,0,2-.9,2-2Zm0,14.1v-7.28c0-1.1-.9-2-2-2h-7.28c-1.1,0-2,.9-2,2v7.28c0,1.1,.9,2,2,2h7.28c1.1,0,2-.9,2-2Zm0,14.1v-7.28c0-1.1-.9-2-2-2h-7.28c-1.1,0-2,.9-2,2v7.28c0,1.1,.9,2,2,2h7.28c1.1,0,2-.9,2-2Zm0,14.1v-7.28c0-1.1-.9-2-2-2h-7.28c-1.1,0-2,.9-2,2v7.28c0,1.1,.9,2,2,2h7.28c1.1,0,2-.9,2-2Zm0,42.29v-7.28c0-1.1-.9-2-2-2h-7.28c-1.1,0-2,.9-2,2v7.28c0,1.1,.9,2,2,2h7.28c1.1,0,2-.9,2-2Zm0,14.1v-7.28c0-1.1-.9-2-2-2h-7.28c-1.1,0-2,.9-2,2v7.28c0,1.1,.9,2,2,2h7.28c1.1,0,2-.9,2-2Zm0,14.1v-7.28c0-1.1-.9-2-2-2h-7.28c-1.1,0-2,.9-2,2v7.28c0,1.1,.9,2,2,2h7.28c1.1,0,2-.9,2-2Zm0,14.1v-7.28c0-1.1-.9-2-2-2h-7.28c-1.1,0-2,.9-2,2v7.28c0,1.1,.9,2,2,2h7.28c1.1,0,2-.9,2-2Zm0,14.1v-7.28c0-1.1-.9-2-2-2h-7.28c-1.1,0-2,.9-2,2v7.28c0,1.1,.9,2,2,2h7.28c1.1,0,2-.9,2-2Zm0,28.2v-7.28c0-1.1-.9-2-2-2h-7.28c-1.1,0-2,.9-2,2v7.28c0,1.1,.9,2,2,2h7.28c1.1,0,2-.9,2-2Zm0,14.1v-7.28c0-1.1-.9-2-2-2h-7.28c-1.1,0-2,.9-2,2v7.28c0,1.1,.9,2,2,2h7.28c1.1,0,2-.9,2-2Zm0,14.1v-7.28c0-1.1-.9-2-2-2h-7.28c-1.1,0-2,.9-2,2v7.28c0,1.1,.9,2,2,2h7.28c1.1,0,2-.9,2-2Zm0,14.1v-7.28c0-1.1-.9-2-2-2h-7.28c-1.1,0-2,.9-2,2v7.28c0,1.1,.9,2,2,2h7.28c1.1,0,2-.9,2-2Zm0,14.1v-7.28c0-1.1-.9-2-2-2h-7.28c-1.1,0-2,.9-2,2v7.28c0,1.1,.9,2,2,2h7.28c1.1,0,2-.9,2-2Zm0,28.2v-7.28c0-1.1-.9-2-2-2h-7.28c-1.1,0-2,.9-2,2v7.28c0,1.1,.9,2,2,2h7.28c1.1,0,2-.9,2-2Zm14.1-479.32v-7.28c0-1.1-.9-2-2-2h-7.28c-1.1,0-2,.9-2,2v7.28c0,1.1,.9,2,2,2h7.28c1.1,0,2-.9,2-2Zm0,14.1v-7.28c0-1.1-.9-2-2-2h-7.28c-1.1,0-2,.9-2,2v7.28c0,1.1,.9,2,2,2h7.28c1.1,0,2-.9,2-2Zm0,14.1v-7.28c0-1.1-.9-2-2-2h-7.28c-1.1,0-2,.9-2,2v7.28c0,1.1,.9,2,2,2h7.28c1.1,0,2-.9,2-2Zm0,14.1v-7.28c0-1.1-.9-2-2-2h-7.28c-1.1,0-2,.9-2,2v7.28c0,1.1,.9,2,2,2h7.28c1.1,0,2-.9,2-2Zm0,14.1v-7.28c0-1.1-.9-2-2-2h-7.28c-1.1,0-2,.9-2,2v7.28c0,1.1,.9,2,2,2h7.28c1.1,0,2-.9,2-2Zm0,14.1v-7.28c0-1.1-.9-2-2-2h-7.28c-1.1,0-2,.9-2,2v7.28c0,1.1,.9,2,2,2h7.28c1.1,0,2-.9,2-2Zm0,14.1v-7.28c0-1.1-.9-2-2-2h-7.28c-1.1,0-2,.9-2,2v7.28c0,1.1,.9,2,2,2h7.28c1.1,0,2-.9,2-2Zm0,28.2v-7.28c0-1.1-.9-2-2-2h-7.28c-1.1,0-2,.9-2,2v7.28c0,1.1,.9,2,2,2h7.28c1.1,0,2-.9,2-2Zm0,14.1v-7.28c0-1.1-.9-2-2-2h-7.28c-1.1,0-2,.9-2,2v7.28c0,1.1,.9,2,2,2h7.28c1.1,0,2-.9,2-2Zm0,14.1v-7.28c0-1.1-.9-2-2-2h-7.28c-1.1,0-2,.9-2,2v7.28c0,1.1,.9,2,2,2h7.28c1.1,0,2-.9,2-2Zm0,14.1v-7.28c0-1.1-.9-2-2-2h-7.28c-1.1,0-2,.9-2,2v7.28c0,1.1,.9,2,2,2h7.28c1.1,0,2-.9,2-2Zm0,14.1v-7.28c0-1.1-.9-2-2-2h-7.28c-1.1,0-2,.9-2,2v7.28c0,1.1,.9,2,2,2h7.28c1.1,0,2-.9,2-2Zm0,14.1v-7.28c0-1.1-.9-2-2-2h-7.28c-1.1,0-2,.9-2,2v7.28c0,1.1,.9,2,2,2h7.28c1.1,0,2-.9,2-2Zm0,14.1v-7.28c0-1.1-.9-2-2-2h-7.28c-1.1,0-2,.9-2,2v7.28c0,1.1,.9,2,2,2h7.28c1.1,0,2-.9,2-2Zm0,14.1v-7.28c0-1.1-.9-2-2-2h-7.28c-1.1,0-2,.9-2,2v7.28c0,1.1,.9,2,2,2h7.28c1.1,0,2-.9,2-2Zm0,28.2v-7.28c0-1.1-.9-2-2-2h-7.28c-1.1,0-2,.9-2,2v7.28c0,1.1,.9,2,2,2h7.28c1.1,0,2-.9,2-2Zm0,14.1v-7.28c0-1.1-.9-2-2-2h-7.28c-1.1,0-2,.9-2,2v7.28c0,1.1,.9,2,2,2h7.28c1.1,0,2-.9,2-2Zm0,14.1v-7.28c0-1.1-.9-2-2-2h-7.28c-1.1,0-2,.9-2,2v7.28c0,1.1,.9,2,2,2h7.28c1.1,0,2-.9,2-2Zm0,14.1v-7.28c0-1.1-.9-2-2-2h-7.28c-1.1,0-2,.9-2,2v7.28c0,1.1,.9,2,2,2h7.28c1.1,0,2-.9,2-2Zm0,14.1v-7.28c0-1.1-.9-2-2-2h-7.28c-1.1,0-2,.9-2,2v7.28c0,1.1,.9,2,2,2h7.28c1.1,0,2-.9,2-2Zm0,14.1v-7.28c0-1.1-.9-2-2-2h-7.28c-1.1,0-2,.9-2,2v7.28c0,1.1,.9,2,2,2h7.28c1.1,0,2-.9,2-2Zm0,14.1v-7.28c0-1.1-.9-2-2-2h-7.28c-1.1,0-2,.9-2,2v7.28c0,1.1,.9,2,2,2h7.28c1.1,0,2-.9,2-2Zm0,14.1v-7.28c0-1.1-.9-2-2-2h-7.28c-1.1,0-2,.9-2,2v7.28c0,1.1,.9,2,2,2h7.28c1.1,0,2-.9,2-2Zm0,14.1v-7.28c0-1.1-.9-2-2-2h-7.28c-1.1,0-2,.9-2,2v7.28c0,1.1,.9,2,2,2h7.28c1.1,0,2-.9,2-2Zm0,28.2v-7.28c0-1.1-.9-2-2-2h-7.28c-1.1,0-2,.9-2,2v7.28c0,1.1,.9,2,2,2h7.28c1.1,0,2-.9,2-2Zm0,14.1v-7.28c0-1.1-.9-2-2-2h-7.28c-1.1,0-2,.9-2,2v7.28c0,1.1,.9,2,2,2h7.28c1.1,0,2-.9,2-2Zm0,14.1v-7.28c0-1.1-.9-2-2-2h-7.28c-1.1,0-2,.9-2,2v7.28c0,1.1,.9,2,2,2h7.28c1.1,0,2-.9,2-2Zm0,28.2v-7.28c0-1.1-.9-2-2-2h-7.28c-1.1,0-2,.9-2,2v7.28c0,1.1,.9,2,2,2h7.28c1.1,0,2-.9,2-2Zm0,14.1v-7.28c0-1.1-.9-2-2-2h-7.28c-1.1,0-2,.9-2,2v7.28c0,1.1,.9,2,2,2h7.28c1.1,0,2-.9,2-2Zm0,14.1v-7.28c0-1.1-.9-2-2-2h-7.28c-1.1,0-2,.9-2,2v7.28c0,1.1,.9,2,2,2h7.28c1.1,0,2-.9,2-2Zm0,14.1v-7.28c0-1.1-.9-2-2-2h-7.28c-1.1,0-2,.9-2,2v7.28c0,1.1,.9,2,2,2h7.28c1.1,0,2-.9,2-2Zm14.1-690.79V2C1205.82,.9,1204.93,0,1203.82,0h-7.28c-1.1,0-2,.9-2,2v7.28c0,1.1,.9,2,2,2h7.28c1.1,0,2-.9,2-2Zm0,14.1v-7.28c0-1.1-.9-2-2-2h-7.28c-1.1,0-2,.9-2,2v7.28c0,1.1,.9,2,2,2h7.28c1.1,0,2-.9,2-2Zm0,14.1v-7.28c0-1.1-.9-2-2-2h-7.28c-1.1,0-2,.9-2,2v7.28c0,1.1,.9,2,2,2h7.28c1.1,0,2-.9,2-2Zm0,14.1v-7.28c0-1.1-.9-2-2-2h-7.28c-1.1,0-2,.9-2,2v7.28c0,1.1,.9,2,2,2h7.28c1.1,0,2-.9,2-2Zm0,14.1v-7.28c0-1.1-.9-2-2-2h-7.28c-1.1,0-2,.9-2,2v7.28c0,1.1,.9,2,2,2h7.28c1.1,0,2-.9,2-2Zm0,14.1v-7.28c0-1.1-.9-2-2-2h-7.28c-1.1,0-2,.9-2,2v7.28c0,1.1,.9,2,2,2h7.28c1.1,0,2-.9,2-2Zm0,14.1v-7.28c0-1.1-.9-2-2-2h-7.28c-1.1,0-2,.9-2,2v7.28c0,1.1,.9,2,2,2h7.28c1.1,0,2-.9,2-2Zm0,14.1v-7.28c0-1.1-.9-2-2-2h-7.28c-1.1,0-2,.9-2,2v7.28c0,1.1,.9,2,2,2h7.28c1.1,0,2-.9,2-2Zm0,14.1v-7.28c0-1.1-.9-2-2-2h-7.28c-1.1,0-2,.9-2,2v7.28c0,1.1,.9,2,2,2h7.28c1.1,0,2-.9,2-2Zm0,28.2v-7.28c0-1.1-.9-2-2-2h-7.28c-1.1,0-2,.9-2,2v7.28c0,1.1,.9,2,2,2h7.28c1.1,0,2-.9,2-2Zm0,14.1v-7.28c0-1.1-.9-2-2-2h-7.28c-1.1,0-2,.9-2,2v7.28c0,1.1,.9,2,2,2h7.28c1.1,0,2-.9,2-2Zm0,14.1v-7.28c0-1.1-.9-2-2-2h-7.28c-1.1,0-2,.9-2,2v7.28c0,1.1,.9,2,2,2h7.28c1.1,0,2-.9,2-2Zm0,14.1v-7.28c0-1.1-.9-2-2-2h-7.28c-1.1,0-2,.9-2,2v7.28c0,1.1,.9,2,2,2h7.28c1.1,0,2-.9,2-2Zm14.1-183.27V2C1219.92,.9,1219.03,0,1217.92,0h-7.28c-1.1,0-2,.9-2,2v7.28c0,1.1,.9,2,2,2h7.28c1.1,0,2-.9,2-2Zm0,14.1v-7.28c0-1.1-.9-2-2-2h-7.28c-1.1,0-2,.9-2,2v7.28c0,1.1,.9,2,2,2h7.28c1.1,0,2-.9,2-2Zm0,14.1v-7.28c0-1.1-.9-2-2-2h-7.28c-1.1,0-2,.9-2,2v7.28c0,1.1,.9,2,2,2h7.28c1.1,0,2-.9,2-2Zm0,14.1v-7.28c0-1.1-.9-2-2-2h-7.28c-1.1,0-2,.9-2,2v7.28c0,1.1,.9,2,2,2h7.28c1.1,0,2-.9,2-2Zm0,14.1v-7.28c0-1.1-.9-2-2-2h-7.28c-1.1,0-2,.9-2,2v7.28c0,1.1,.9,2,2,2h7.28c1.1,0,2-.9,2-2Zm0,28.2v-7.28c0-1.1-.9-2-2-2h-7.28c-1.1,0-2,.9-2,2v7.28c0,1.1,.9,2,2,2h7.28c1.1,0,2-.9,2-2Zm0,14.1v-7.28c0-1.1-.9-2-2-2h-7.28c-1.1,0-2,.9-2,2v7.28c0,1.1,.9,2,2,2h7.28c1.1,0,2-.9,2-2Zm0,14.1v-7.28c0-1.1-.9-2-2-2h-7.28c-1.1,0-2,.9-2,2v7.28c0,1.1,.9,2,2,2h7.28c1.1,0,2-.9,2-2Zm0,14.1v-7.28c0-1.1-.9-2-2-2h-7.28c-1.1,0-2,.9-2,2v7.28c0,1.1,.9,2,2,2h7.28c1.1,0,2-.9,2-2Zm0,14.1v-7.28c0-1.1-.9-2-2-2h-7.28c-1.1,0-2,.9-2,2v7.28c0,1.1,.9,2,2,2h7.28c1.1,0,2-.9,2-2Zm0,14.1v-7.28c0-1.1-.9-2-2-2h-7.28c-1.1,0-2,.9-2,2v7.28c0,1.1,.9,2,2,2h7.28c1.1,0,2-.9,2-2Zm0,14.1v-7.28c0-1.1-.9-2-2-2h-7.28c-1.1,0-2,.9-2,2v7.28c0,1.1,.9,2,2,2h7.28c1.1,0,2-.9,2-2Zm-14.1,28.2v-7.28c0-1.1-.9-2-2-2h-7.28c-1.1,0-2,.9-2,2v7.28c0,1.1,.9,2,2,2h7.28c1.1,0,2-.9,2-2Zm0,14.1v-7.28c0-1.1-.9-2-2-2h-7.28c-1.1,0-2,.9-2,2v7.28c0,1.1,.9,2,2,2h7.28c1.1,0,2-.9,2-2Zm0,14.1v-7.28c0-1.1-.9-2-2-2h-7.28c-1.1,0-2,.9-2,2v7.28c0,1.1,.9,2,2,2h7.28c1.1,0,2-.9,2-2Zm0,14.1v-7.28c0-1.1-.9-2-2-2h-7.28c-1.1,0-2,.9-2,2v7.28c0,1.1,.9,2,2,2h7.28c1.1,0,2-.9,2-2Zm0,28.2v-7.28c0-1.1-.9-2-2-2h-7.28c-1.1,0-2,.9-2,2v7.28c0,1.1,.9,2,2,2h7.28c1.1,0,2-.9,2-2Zm0,14.1v-7.28c0-1.1-.9-2-2-2h-7.28c-1.1,0-2,.9-2,2v7.28c0,1.1,.9,2,2,2h7.28c1.1,0,2-.9,2-2Zm0,14.1v-7.28c0-1.1-.9-2-2-2h-7.28c-1.1,0-2,.9-2,2v7.28c0,1.1,.9,2,2,2h7.28c1.1,0,2-.9,2-2Zm0,14.1v-7.28c0-1.1-.9-2-2-2h-7.28c-1.1,0-2,.9-2,2v7.28c0,1.1,.9,2,2,2h7.28c1.1,0,2-.9,2-2Zm0,14.1v-7.28c0-1.1-.9-2-2-2h-7.28c-1.1,0-2,.9-2,2v7.28c0,1.1,.9,2,2,2h7.28c1.1,0,2-.9,2-2Zm0,14.1v-7.28c0-1.1-.9-2-2-2h-7.28c-1.1,0-2,.9-2,2v7.28c0,1.1,.9,2,2,2h7.28c1.1,0,2-.9,2-2Zm0,14.1v-7.28c0-1.1-.9-2-2-2h-7.28c-1.1,0-2,.9-2,2v7.28c0,1.1,.9,2,2,2h7.28c1.1,0,2-.9,2-2Zm0,28.2v-7.28c0-1.1-.9-2-2-2h-7.28c-1.1,0-2,.9-2,2v7.28c0,1.1,.9,2,2,2h7.28c1.1,0,2-.9,2-2Zm0,14.1v-7.28c0-1.1-.9-2-2-2h-7.28c-1.1,0-2,.9-2,2v7.28c0,1.1,.9,2,2,2h7.28c1.1,0,2-.9,2-2Zm0,14.1v-7.28c0-1.1-.9-2-2-2h-7.28c-1.1,0-2,.9-2,2v7.28c0,1.1,.9,2,2,2h7.28c1.1,0,2-.9,2-2Zm0,14.1v-7.28c0-1.1-.9-2-2-2h-7.28c-1.1,0-2,.9-2,2v7.28c0,1.1,.9,2,2,2h7.28c1.1,0,2-.9,2-2Zm0,14.1v-7.28c0-1.1-.9-2-2-2h-7.28c-1.1,0-2,.9-2,2v7.28c0,1.1,.9,2,2,2h7.28c1.1,0,2-.9,2-2Zm0,14.1v-7.28c0-1.1-.9-2-2-2h-7.28c-1.1,0-2,.9-2,2v7.28c0,1.1,.9,2,2,2h7.28c1.1,0,2-.9,2-2Zm0,14.1v-7.28c0-1.1-.9-2-2-2h-7.28c-1.1,0-2,.9-2,2v7.28c0,1.1,.9,2,2,2h7.28c1.1,0,2-.9,2-2Zm0,14.1v-7.28c0-1.1-.9-2-2-2h-7.28c-1.1,0-2,.9-2,2v7.28c0,1.1,.9,2,2,2h7.28c1.1,0,2-.9,2-2Zm0,14.1v-7.28c0-1.1-.9-2-2-2h-7.28c-1.1,0-2,.9-2,2v7.28c0,1.1,.9,2,2,2h7.28c1.1,0,2-.9,2-2Zm0,14.1v-7.28c0-1.1-.9-2-2-2h-7.28c-1.1,0-2,.9-2,2v7.28c0,1.1,.9,2,2,2h7.28c1.1,0,2-.9,2-2Zm0,14.1v-7.28c0-1.1-.9-2-2-2h-7.28c-1.1,0-2,.9-2,2v7.28c0,1.1,.9,2,2,2h7.28c1.1,0,2-.9,2-2Zm0,28.2v-7.28c0-1.1-.9-2-2-2h-7.28c-1.1,0-2,.9-2,2v7.28c0,1.1,.9,2,2,2h7.28c1.1,0,2-.9,2-2Zm0,14.1v-7.28c0-1.1-.9-2-2-2h-7.28c-1.1,0-2,.9-2,2v7.28c0,1.1,.9,2,2,2h7.28c1.1,0,2-.9,2-2Zm0,14.1v-7.28c0-1.1-.9-2-2-2h-7.28c-1.1,0-2,.9-2,2v7.28c0,1.1,.9,2,2,2h7.28c1.1,0,2-.9,2-2Zm0,14.1v-7.28c0-1.1-.9-2-2-2h-7.28c-1.1,0-2,.9-2,2v7.28c0,1.1,.9,2,2,2h7.28c1.1,0,2-.9,2-2Zm0,14.1v-7.28c0-1.1-.9-2-2-2h-7.28c-1.1,0-2,.9-2,2v7.28c0,1.1,.9,2,2,2h7.28c1.1,0,2-.9,2-2Zm0,14.1v-7.28c0-1.1-.9-2-2-2h-7.28c-1.1,0-2,.9-2,2v7.28c0,1.1,.9,2,2,2h7.28c1.1,0,2-.9,2-2Zm0,14.1v-7.28c0-1.1-.9-2-2-2h-7.28c-1.1,0-2,.9-2,2v7.28c0,1.1,.9,2,2,2h7.28c1.1,0,2-.9,2-2Zm0,14.1v-7.28c0-1.1-.9-2-2-2h-7.28c-1.1,0-2,.9-2,2v7.28c0,1.1,.9,2,2,2h7.28c1.1,0,2-.9,2-2Zm0,14.1v-7.28c0-1.1-.9-2-2-2h-7.28c-1.1,0-2,.9-2,2v7.28c0,1.1,.9,2,2,2h7.28c1.1,0,2-.9,2-2Zm0,28.2v-7.28c0-1.1-.9-2-2-2h-7.28c-1.1,0-2,.9-2,2v7.28c0,1.1,.9,2,2,2h7.28c1.1,0,2-.9,2-2Zm14.1-493.42v-7.28c0-1.1-.9-2-2-2h-7.28c-1.1,0-2,.9-2,2v7.28c0,1.1,.9,2,2,2h7.28c1.1,0,2-.9,2-2Zm0,14.1v-7.28c0-1.1-.9-2-2-2h-7.28c-1.1,0-2,.9-2,2v7.28c0,1.1,.9,2,2,2h7.28c1.1,0,2-.9,2-2Zm0,14.1v-7.28c0-1.1-.9-2-2-2h-7.28c-1.1,0-2,.9-2,2v7.28c0,1.1,.9,2,2,2h7.28c1.1,0,2-.9,2-2Zm0,14.1v-7.28c0-1.1-.9-2-2-2h-7.28c-1.1,0-2,.9-2,2v7.28c0,1.1,.9,2,2,2h7.28c1.1,0,2-.9,2-2Zm0,14.1v-7.28c0-1.1-.9-2-2-2h-7.28c-1.1,0-2,.9-2,2v7.28c0,1.1,.9,2,2,2h7.28c1.1,0,2-.9,2-2Zm0,14.1v-7.28c0-1.1-.9-2-2-2h-7.28c-1.1,0-2,.9-2,2v7.28c0,1.1,.9,2,2,2h7.28c1.1,0,2-.9,2-2Zm0,28.2v-7.28c0-1.1-.9-2-2-2h-7.28c-1.1,0-2,.9-2,2v7.28c0,1.1,.9,2,2,2h7.28c1.1,0,2-.9,2-2Zm0,14.1v-7.28c0-1.1-.9-2-2-2h-7.28c-1.1,0-2,.9-2,2v7.28c0,1.1,.9,2,2,2h7.28c1.1,0,2-.9,2-2Zm0,14.1v-7.28c0-1.1-.9-2-2-2h-7.28c-1.1,0-2,.9-2,2v7.28c0,1.1,.9,2,2,2h7.28c1.1,0,2-.9,2-2Zm0,14.1v-7.28c0-1.1-.9-2-2-2h-7.28c-1.1,0-2,.9-2,2v7.28c0,1.1,.9,2,2,2h7.28c1.1,0,2-.9,2-2Zm0,14.1v-7.28c0-1.1-.9-2-2-2h-7.28c-1.1,0-2,.9-2,2v7.28c0,1.1,.9,2,2,2h7.28c1.1,0,2-.9,2-2Zm0,14.1v-7.28c0-1.1-.9-2-2-2h-7.28c-1.1,0-2,.9-2,2v7.28c0,1.1,.9,2,2,2h7.28c1.1,0,2-.9,2-2Zm0,14.1v-7.28c0-1.1-.9-2-2-2h-7.28c-1.1,0-2,.9-2,2v7.28c0,1.1,.9,2,2,2h7.28c1.1,0,2-.9,2-2Zm0,14.1v-7.28c0-1.1-.9-2-2-2h-7.28c-1.1,0-2,.9-2,2v7.28c0,1.1,.9,2,2,2h7.28c1.1,0,2-.9,2-2Zm0,14.1v-7.28c0-1.1-.9-2-2-2h-7.28c-1.1,0-2,.9-2,2v7.28c0,1.1,.9,2,2,2h7.28c1.1,0,2-.9,2-2Zm0,28.2v-7.28c0-1.1-.9-2-2-2h-7.28c-1.1,0-2,.9-2,2v7.28c0,1.1,.9,2,2,2h7.28c1.1,0,2-.9,2-2Zm0,14.1v-7.28c0-1.1-.9-2-2-2h-7.28c-1.1,0-2,.9-2,2v7.28c0,1.1,.9,2,2,2h7.28c1.1,0,2-.9,2-2Zm0,14.1v-7.28c0-1.1-.9-2-2-2h-7.28c-1.1,0-2,.9-2,2v7.28c0,1.1,.9,2,2,2h7.28c1.1,0,2-.9,2-2Zm0,14.1v-7.28c0-1.1-.9-2-2-2h-7.28c-1.1,0-2,.9-2,2v7.28c0,1.1,.9,2,2,2h7.28c1.1,0,2-.9,2-2Zm0,14.1v-7.28c0-1.1-.9-2-2-2h-7.28c-1.1,0-2,.9-2,2v7.28c0,1.1,.9,2,2,2h7.28c1.1,0,2-.9,2-2Zm0,14.1v-7.28c0-1.1-.9-2-2-2h-7.28c-1.1,0-2,.9-2,2v7.28c0,1.1,.9,2,2,2h7.28c1.1,0,2-.9,2-2Zm0,14.1v-7.28c0-1.1-.9-2-2-2h-7.28c-1.1,0-2,.9-2,2v7.28c0,1.1,.9,2,2,2h7.28c1.1,0,2-.9,2-2Zm0,14.1v-7.28c0-1.1-.9-2-2-2h-7.28c-1.1,0-2,.9-2,2v7.28c0,1.1,.9,2,2,2h7.28c1.1,0,2-.9,2-2Zm0,14.1v-7.28c0-1.1-.9-2-2-2h-7.28c-1.1,0-2,.9-2,2v7.28c0,1.1,.9,2,2,2h7.28c1.1,0,2-.9,2-2Zm0,14.1v-7.28c0-1.1-.9-2-2-2h-7.28c-1.1,0-2,.9-2,2v7.28c0,1.1,.9,2,2,2h7.28c1.1,0,2-.9,2-2Zm0,14.1v-7.28c0-1.1-.9-2-2-2h-7.28c-1.1,0-2,.9-2,2v7.28c0,1.1,.9,2,2,2h7.28c1.1,0,2-.9,2-2Zm0,14.1v-7.28c0-1.1-.9-2-2-2h-7.28c-1.1,0-2,.9-2,2v7.28c0,1.1,.9,2,2,2h7.28c1.1,0,2-.9,2-2Zm0,14.1v-7.28c0-1.1-.9-2-2-2h-7.28c-1.1,0-2,.9-2,2v7.28c0,1.1,.9,2,2,2h7.28c1.1,0,2-.9,2-2Zm0,28.2v-7.28c0-1.1-.9-2-2-2h-7.28c-1.1,0-2,.9-2,2v7.28c0,1.1,.9,2,2,2h7.28c1.1,0,2-.9,2-2Zm0,14.1v-7.28c0-1.1-.9-2-2-2h-7.28c-1.1,0-2,.9-2,2v7.28c0,1.1,.9,2,2,2h7.28c1.1,0,2-.9,2-2Zm0,14.1v-7.28c0-1.1-.9-2-2-2h-7.28c-1.1,0-2,.9-2,2v7.28c0,1.1,.9,2,2,2h7.28c1.1,0,2-.9,2-2Zm0,14.1v-7.28c0-1.1-.9-2-2-2h-7.28c-1.1,0-2,.9-2,2v7.28c0,1.1,.9,2,2,2h7.28c1.1,0,2-.9,2-2Zm0,14.1v-7.28c0-1.1-.9-2-2-2h-7.28c-1.1,0-2,.9-2,2v7.28c0,1.1,.9,2,2,2h7.28c1.1,0,2-.9,2-2Zm14.1-690.79V2C1234.02,.9,1233.12,0,1232.02,0h-7.28c-1.1,0-2,.9-2,2v7.28c0,1.1,.9,2,2,2h7.28c1.1,0,2-.9,2-2Zm0,14.1v-7.28c0-1.1-.9-2-2-2h-7.28c-1.1,0-2,.9-2,2v7.28c0,1.1,.9,2,2,2h7.28c1.1,0,2-.9,2-2Zm0,14.1v-7.28c0-1.1-.9-2-2-2h-7.28c-1.1,0-2,.9-2,2v7.28c0,1.1,.9,2,2,2h7.28c1.1,0,2-.9,2-2Zm0,14.1v-7.28c0-1.1-.9-2-2-2h-7.28c-1.1,0-2,.9-2,2v7.28c0,1.1,.9,2,2,2h7.28c1.1,0,2-.9,2-2Zm0,14.1v-7.28c0-1.1-.9-2-2-2h-7.28c-1.1,0-2,.9-2,2v7.28c0,1.1,.9,2,2,2h7.28c1.1,0,2-.9,2-2Zm0,14.1v-7.28c0-1.1-.9-2-2-2h-7.28c-1.1,0-2,.9-2,2v7.28c0,1.1,.9,2,2,2h7.28c1.1,0,2-.9,2-2Zm0,14.1v-7.28c0-1.1-.9-2-2-2h-7.28c-1.1,0-2,.9-2,2v7.28c0,1.1,.9,2,2,2h7.28c1.1,0,2-.9,2-2Zm0,14.1v-7.28c0-1.1-.9-2-2-2h-7.28c-1.1,0-2,.9-2,2v7.28c0,1.1,.9,2,2,2h7.28c1.1,0,2-.9,2-2Zm0,14.1v-7.28c0-1.1-.9-2-2-2h-7.28c-1.1,0-2,.9-2,2v7.28c0,1.1,.9,2,2,2h7.28c1.1,0,2-.9,2-2Zm0,14.1v-7.28c0-1.1-.9-2-2-2h-7.28c-1.1,0-2,.9-2,2v7.28c0,1.1,.9,2,2,2h7.28c1.1,0,2-.9,2-2Zm0,14.1v-7.28c0-1.1-.9-2-2-2h-7.28c-1.1,0-2,.9-2,2v7.28c0,1.1,.9,2,2,2h7.28c1.1,0,2-.9,2-2Zm0,14.1v-7.28c0-1.1-.9-2-2-2h-7.28c-1.1,0-2,.9-2,2v7.28c0,1.1,.9,2,2,2h7.28c1.1,0,2-.9,2-2Zm0,14.1v-7.28c0-1.1-.9-2-2-2h-7.28c-1.1,0-2,.9-2,2v7.28c0,1.1,.9,2,2,2h7.28c1.1,0,2-.9,2-2Zm0,14.1v-7.28c0-1.1-.9-2-2-2h-7.28c-1.1,0-2,.9-2,2v7.28c0,1.1,.9,2,2,2h7.28c1.1,0,2-.9,2-2Zm14.1-183.27V2C1248.12,.9,1247.22,0,1246.12,0h-7.28c-1.1,0-2,.9-2,2v7.28c0,1.1,.9,2,2,2h7.28c1.1,0,2-.9,2-2Zm0,14.1v-7.28c0-1.1-.9-2-2-2h-7.28c-1.1,0-2,.9-2,2v7.28c0,1.1,.9,2,2,2h7.28c1.1,0,2-.9,2-2Zm0,14.1v-7.28c0-1.1-.9-2-2-2h-7.28c-1.1,0-2,.9-2,2v7.28c0,1.1,.9,2,2,2h7.28c1.1,0,2-.9,2-2Zm0,14.1v-7.28c0-1.1-.9-2-2-2h-7.28c-1.1,0-2,.9-2,2v7.28c0,1.1,.9,2,2,2h7.28c1.1,0,2-.9,2-2Zm0,14.1v-7.28c0-1.1-.9-2-2-2h-7.28c-1.1,0-2,.9-2,2v7.28c0,1.1,.9,2,2,2h7.28c1.1,0,2-.9,2-2Zm0,14.1v-7.28c0-1.1-.9-2-2-2h-7.28c-1.1,0-2,.9-2,2v7.28c0,1.1,.9,2,2,2h7.28c1.1,0,2-.9,2-2Zm0,14.1v-7.28c0-1.1-.9-2-2-2h-7.28c-1.1,0-2,.9-2,2v7.28c0,1.1,.9,2,2,2h7.28c1.1,0,2-.9,2-2Zm0,14.1v-7.28c0-1.1-.9-2-2-2h-7.28c-1.1,0-2,.9-2,2v7.28c0,1.1,.9,2,2,2h7.28c1.1,0,2-.9,2-2Zm0,14.1v-7.28c0-1.1-.9-2-2-2h-7.28c-1.1,0-2,.9-2,2v7.28c0,1.1,.9,2,2,2h7.28c1.1,0,2-.9,2-2Zm0,14.1v-7.28c0-1.1-.9-2-2-2h-7.28c-1.1,0-2,.9-2,2v7.28c0,1.1,.9,2,2,2h7.28c1.1,0,2-.9,2-2Zm0,14.1v-7.28c0-1.1-.9-2-2-2h-7.28c-1.1,0-2,.9-2,2v7.28c0,1.1,.9,2,2,2h7.28c1.1,0,2-.9,2-2Zm0,14.1v-7.28c0-1.1-.9-2-2-2h-7.28c-1.1,0-2,.9-2,2v7.28c0,1.1,.9,2,2,2h7.28c1.1,0,2-.9,2-2Zm0,14.1v-7.28c0-1.1-.9-2-2-2h-7.28c-1.1,0-2,.9-2,2v7.28c0,1.1,.9,2,2,2h7.28c1.1,0,2-.9,2-2Zm0,14.1v-7.28c0-1.1-.9-2-2-2h-7.28c-1.1,0-2,.9-2,2v7.28c0,1.1,.9,2,2,2h7.28c1.1,0,2-.9,2-2Zm-14.1,14.1v-7.28c0-1.1-.9-2-2-2h-7.28c-1.1,0-2,.9-2,2v7.28c0,1.1,.9,2,2,2h7.28c1.1,0,2-.9,2-2Zm0,14.1v-7.28c0-1.1-.9-2-2-2h-7.28c-1.1,0-2,.9-2,2v7.28c0,1.1,.9,2,2,2h7.28c1.1,0,2-.9,2-2Zm0,14.1v-7.28c0-1.1-.9-2-2-2h-7.28c-1.1,0-2,.9-2,2v7.28c0,1.1,.9,2,2,2h7.28c1.1,0,2-.9,2-2Zm0,14.1v-7.28c0-1.1-.9-2-2-2h-7.28c-1.1,0-2,.9-2,2v7.28c0,1.1,.9,2,2,2h7.28c1.1,0,2-.9,2-2Zm0,14.1v-7.28c0-1.1-.9-2-2-2h-7.28c-1.1,0-2,.9-2,2v7.28c0,1.1,.9,2,2,2h7.28c1.1,0,2-.9,2-2Zm0,14.1v-7.28c0-1.1-.9-2-2-2h-7.28c-1.1,0-2,.9-2,2v7.28c0,1.1,.9,2,2,2h7.28c1.1,0,2-.9,2-2Zm0,14.1v-7.28c0-1.1-.9-2-2-2h-7.28c-1.1,0-2,.9-2,2v7.28c0,1.1,.9,2,2,2h7.28c1.1,0,2-.9,2-2Zm0,14.1v-7.28c0-1.1-.9-2-2-2h-7.28c-1.1,0-2,.9-2,2v7.28c0,1.1,.9,2,2,2h7.28c1.1,0,2-.9,2-2Zm0,14.1v-7.28c0-1.1-.9-2-2-2h-7.28c-1.1,0-2,.9-2,2v7.28c0,1.1,.9,2,2,2h7.28c1.1,0,2-.9,2-2Zm0,14.1v-7.28c0-1.1-.9-2-2-2h-7.28c-1.1,0-2,.9-2,2v7.28c0,1.1,.9,2,2,2h7.28c1.1,0,2-.9,2-2Zm0,14.1v-7.28c0-1.1-.9-2-2-2h-7.28c-1.1,0-2,.9-2,2v7.28c0,1.1,.9,2,2,2h7.28c1.1,0,2-.9,2-2Zm0,14.1v-7.28c0-1.1-.9-2-2-2h-7.28c-1.1,0-2,.9-2,2v7.28c0,1.1,.9,2,2,2h7.28c1.1,0,2-.9,2-2Zm0,14.1v-7.28c0-1.1-.9-2-2-2h-7.28c-1.1,0-2,.9-2,2v7.28c0,1.1,.9,2,2,2h7.28c1.1,0,2-.9,2-2Zm0,14.1v-7.28c0-1.1-.9-2-2-2h-7.28c-1.1,0-2,.9-2,2v7.28c0,1.1,.9,2,2,2h7.28c1.1,0,2-.9,2-2Zm0,14.1v-7.28c0-1.1-.9-2-2-2h-7.28c-1.1,0-2,.9-2,2v7.28c0,1.1,.9,2,2,2h7.28c1.1,0,2-.9,2-2Zm0,14.1v-7.28c0-1.1-.9-2-2-2h-7.28c-1.1,0-2,.9-2,2v7.28c0,1.1,.9,2,2,2h7.28c1.1,0,2-.9,2-2Zm0,14.1v-7.28c0-1.1-.9-2-2-2h-7.28c-1.1,0-2,.9-2,2v7.28c0,1.1,.9,2,2,2h7.28c1.1,0,2-.9,2-2Zm0,14.1v-7.28c0-1.1-.9-2-2-2h-7.28c-1.1,0-2,.9-2,2v7.28c0,1.1,.9,2,2,2h7.28c1.1,0,2-.9,2-2Zm0,14.1v-7.28c0-1.1-.9-2-2-2h-7.28c-1.1,0-2,.9-2,2v7.28c0,1.1,.9,2,2,2h7.28c1.1,0,2-.9,2-2Zm0,14.1v-7.28c0-1.1-.9-2-2-2h-7.28c-1.1,0-2,.9-2,2v7.28c0,1.1,.9,2,2,2h7.28c1.1,0,2-.9,2-2Zm0,14.1v-7.28c0-1.1-.9-2-2-2h-7.28c-1.1,0-2,.9-2,2v7.28c0,1.1,.9,2,2,2h7.28c1.1,0,2-.9,2-2Zm0,14.1v-7.28c0-1.1-.9-2-2-2h-7.28c-1.1,0-2,.9-2,2v7.28c0,1.1,.9,2,2,2h7.28c1.1,0,2-.9,2-2Zm0,14.1v-7.28c0-1.1-.9-2-2-2h-7.28c-1.1,0-2,.9-2,2v7.28c0,1.1,.9,2,2,2h7.28c1.1,0,2-.9,2-2Zm0,14.1v-7.28c0-1.1-.9-2-2-2h-7.28c-1.1,0-2,.9-2,2v7.28c0,1.1,.9,2,2,2h7.28c1.1,0,2-.9,2-2Zm0,14.1v-7.28c0-1.1-.9-2-2-2h-7.28c-1.1,0-2,.9-2,2v7.28c0,1.1,.9,2,2,2h7.28c1.1,0,2-.9,2-2Zm0,14.1v-7.28c0-1.1-.9-2-2-2h-7.28c-1.1,0-2,.9-2,2v7.28c0,1.1,.9,2,2,2h7.28c1.1,0,2-.9,2-2Zm0,14.1v-7.28c0-1.1-.9-2-2-2h-7.28c-1.1,0-2,.9-2,2v7.28c0,1.1,.9,2,2,2h7.28c1.1,0,2-.9,2-2Zm0,14.1v-7.28c0-1.1-.9-2-2-2h-7.28c-1.1,0-2,.9-2,2v7.28c0,1.1,.9,2,2,2h7.28c1.1,0,2-.9,2-2Zm0,14.1v-7.28c0-1.1-.9-2-2-2h-7.28c-1.1,0-2,.9-2,2v7.28c0,1.1,.9,2,2,2h7.28c1.1,0,2-.9,2-2Zm0,14.1v-7.28c0-1.1-.9-2-2-2h-7.28c-1.1,0-2,.9-2,2v7.28c0,1.1,.9,2,2,2h7.28c1.1,0,2-.9,2-2Zm0,14.1v-7.28c0-1.1-.9-2-2-2h-7.28c-1.1,0-2,.9-2,2v7.28c0,1.1,.9,2,2,2h7.28c1.1,0,2-.9,2-2Zm0,14.1v-7.28c0-1.1-.9-2-2-2h-7.28c-1.1,0-2,.9-2,2v7.28c0,1.1,.9,2,2,2h7.28c1.1,0,2-.9,2-2Zm0,14.1v-7.28c0-1.1-.9-2-2-2h-7.28c-1.1,0-2,.9-2,2v7.28c0,1.1,.9,2,2,2h7.28c1.1,0,2-.9,2-2Zm0,14.1v-7.28c0-1.1-.9-2-2-2h-7.28c-1.1,0-2,.9-2,2v7.28c0,1.1,.9,2,2,2h7.28c1.1,0,2-.9,2-2Zm0,14.1v-7.28c0-1.1-.9-2-2-2h-7.28c-1.1,0-2,.9-2,2v7.28c0,1.1,.9,2,2,2h7.28c1.1,0,2-.9,2-2Zm0,14.1v-7.28c0-1.1-.9-2-2-2h-7.28c-1.1,0-2,.9-2,2v7.28c0,1.1,.9,2,2,2h7.28c1.1,0,2-.9,2-2Zm14.1-493.42v-7.28c0-1.1-.9-2-2-2h-7.28c-1.1,0-2,.9-2,2v7.28c0,1.1,.9,2,2,2h7.28c1.1,0,2-.9,2-2Zm0,14.1v-7.28c0-1.1-.9-2-2-2h-7.28c-1.1,0-2,.9-2,2v7.28c0,1.1,.9,2,2,2h7.28c1.1,0,2-.9,2-2Zm0,14.1v-7.28c0-1.1-.9-2-2-2h-7.28c-1.1,0-2,.9-2,2v7.28c0,1.1,.9,2,2,2h7.28c1.1,0,2-.9,2-2Zm0,14.1v-7.28c0-1.1-.9-2-2-2h-7.28c-1.1,0-2,.9-2,2v7.28c0,1.1,.9,2,2,2h7.28c1.1,0,2-.9,2-2Zm0,14.1v-7.28c0-1.1-.9-2-2-2h-7.28c-1.1,0-2,.9-2,2v7.28c0,1.1,.9,2,2,2h7.28c1.1,0,2-.9,2-2Zm0,14.1v-7.28c0-1.1-.9-2-2-2h-7.28c-1.1,0-2,.9-2,2v7.28c0,1.1,.9,2,2,2h7.28c1.1,0,2-.9,2-2Zm0,14.1v-7.28c0-1.1-.9-2-2-2h-7.28c-1.1,0-2,.9-2,2v7.28c0,1.1,.9,2,2,2h7.28c1.1,0,2-.9,2-2Zm0,14.1v-7.28c0-1.1-.9-2-2-2h-7.28c-1.1,0-2,.9-2,2v7.28c0,1.1,.9,2,2,2h7.28c1.1,0,2-.9,2-2Zm0,14.1v-7.28c0-1.1-.9-2-2-2h-7.28c-1.1,0-2,.9-2,2v7.28c0,1.1,.9,2,2,2h7.28c1.1,0,2-.9,2-2Zm0,14.1v-7.28c0-1.1-.9-2-2-2h-7.28c-1.1,0-2,.9-2,2v7.28c0,1.1,.9,2,2,2h7.28c1.1,0,2-.9,2-2Zm0,14.1v-7.28c0-1.1-.9-2-2-2h-7.28c-1.1,0-2,.9-2,2v7.28c0,1.1,.9,2,2,2h7.28c1.1,0,2-.9,2-2Zm0,14.1v-7.28c0-1.1-.9-2-2-2h-7.28c-1.1,0-2,.9-2,2v7.28c0,1.1,.9,2,2,2h7.28c1.1,0,2-.9,2-2Zm0,14.1v-7.28c0-1.1-.9-2-2-2h-7.28c-1.1,0-2,.9-2,2v7.28c0,1.1,.9,2,2,2h7.28c1.1,0,2-.9,2-2Zm0,14.1v-7.28c0-1.1-.9-2-2-2h-7.28c-1.1,0-2,.9-2,2v7.28c0,1.1,.9,2,2,2h7.28c1.1,0,2-.9,2-2Zm0,14.1v-7.28c0-1.1-.9-2-2-2h-7.28c-1.1,0-2,.9-2,2v7.28c0,1.1,.9,2,2,2h7.28c1.1,0,2-.9,2-2Zm0,14.1v-7.28c0-1.1-.9-2-2-2h-7.28c-1.1,0-2,.9-2,2v7.28c0,1.1,.9,2,2,2h7.28c1.1,0,2-.9,2-2Zm0,14.1v-7.28c0-1.1-.9-2-2-2h-7.28c-1.1,0-2,.9-2,2v7.28c0,1.1,.9,2,2,2h7.28c1.1,0,2-.9,2-2Zm0,14.1v-7.28c0-1.1-.9-2-2-2h-7.28c-1.1,0-2,.9-2,2v7.28c0,1.1,.9,2,2,2h7.28c1.1,0,2-.9,2-2Zm0,14.1v-7.28c0-1.1-.9-2-2-2h-7.28c-1.1,0-2,.9-2,2v7.28c0,1.1,.9,2,2,2h7.28c1.1,0,2-.9,2-2Zm0,14.1v-7.28c0-1.1-.9-2-2-2h-7.28c-1.1,0-2,.9-2,2v7.28c0,1.1,.9,2,2,2h7.28c1.1,0,2-.9,2-2Zm0,14.1v-7.28c0-1.1-.9-2-2-2h-7.28c-1.1,0-2,.9-2,2v7.28c0,1.1,.9,2,2,2h7.28c1.1,0,2-.9,2-2Zm0,14.1v-7.28c0-1.1-.9-2-2-2h-7.28c-1.1,0-2,.9-2,2v7.28c0,1.1,.9,2,2,2h7.28c1.1,0,2-.9,2-2Zm0,14.1v-7.28c0-1.1-.9-2-2-2h-7.28c-1.1,0-2,.9-2,2v7.28c0,1.1,.9,2,2,2h7.28c1.1,0,2-.9,2-2Zm0,14.1v-7.28c0-1.1-.9-2-2-2h-7.28c-1.1,0-2,.9-2,2v7.28c0,1.1,.9,2,2,2h7.28c1.1,0,2-.9,2-2Zm0,14.1v-7.28c0-1.1-.9-2-2-2h-7.28c-1.1,0-2,.9-2,2v7.28c0,1.1,.9,2,2,2h7.28c1.1,0,2-.9,2-2Zm0,14.1v-7.28c0-1.1-.9-2-2-2h-7.28c-1.1,0-2,.9-2,2v7.28c0,1.1,.9,2,2,2h7.28c1.1,0,2-.9,2-2Zm0,14.1v-7.28c0-1.1-.9-2-2-2h-7.28c-1.1,0-2,.9-2,2v7.28c0,1.1,.9,2,2,2h7.28c1.1,0,2-.9,2-2Zm0,14.1v-7.28c0-1.1-.9-2-2-2h-7.28c-1.1,0-2,.9-2,2v7.28c0,1.1,.9,2,2,2h7.28c1.1,0,2-.9,2-2Zm0,14.1v-7.28c0-1.1-.9-2-2-2h-7.28c-1.1,0-2,.9-2,2v7.28c0,1.1,.9,2,2,2h7.28c1.1,0,2-.9,2-2Zm0,14.1v-7.28c0-1.1-.9-2-2-2h-7.28c-1.1,0-2,.9-2,2v7.28c0,1.1,.9,2,2,2h7.28c1.1,0,2-.9,2-2Zm0,14.1v-7.28c0-1.1-.9-2-2-2h-7.28c-1.1,0-2,.9-2,2v7.28c0,1.1,.9,2,2,2h7.28c1.1,0,2-.9,2-2Zm0,14.1v-7.28c0-1.1-.9-2-2-2h-7.28c-1.1,0-2,.9-2,2v7.28c0,1.1,.9,2,2,2h7.28c1.1,0,2-.9,2-2Zm0,14.1v-7.28c0-1.1-.9-2-2-2h-7.28c-1.1,0-2,.9-2,2v7.28c0,1.1,.9,2,2,2h7.28c1.1,0,2-.9,2-2Zm0,14.1v-7.28c0-1.1-.9-2-2-2h-7.28c-1.1,0-2,.9-2,2v7.28c0,1.1,.9,2,2,2h7.28c1.1,0,2-.9,2-2Zm0,14.1v-7.28c0-1.1-.9-2-2-2h-7.28c-1.1,0-2,.9-2,2v7.28c0,1.1,.9,2,2,2h7.28c1.1,0,2-.9,2-2Zm0,14.1v-7.28c0-1.1-.9-2-2-2h-7.28c-1.1,0-2,.9-2,2v7.28c0,1.1,.9,2,2,2h7.28c1.1,0,2-.9,2-2Z" style="fill:none;"></path></clipPath><linearGradient id="linear-gradient" x1="434.2" y1="467.98" x2="1340.42" y2="-90.22" gradientUnits="userSpaceOnUse"><stop offset="0" stop-color="#e6e6e6"></stop><stop offset=".27" stop-color="#bec8cf"></stop><stop offset=".59" stop-color="#96abb9"></stop><stop offset=".85" stop-color="#7e98ac"></stop><stop offset="1" stop-color="#7592a7"></stop></linearGradient></defs><g id="Layer_2"><rect width="1248.12" height="702.07" style="fill:#222d35;"></rect></g><g id="Layer_3"><g><rect x="785.71" y="690.79" width="11.28" height="11.28" rx="2" ry="2" transform="translate(1487.78 -94.92) rotate(90)" style="fill:#e6e6e6;"></rect><rect x="743.79" y="690.79" width="11.28" height="11.28" rx="2" ry="2" transform="translate(1445.85 -53) rotate(90)" style="fill:#e6e6e6;"></rect><rect x="799.81" y="690.79" width="11.28" height="11.28" rx="2" ry="2" transform="translate(1501.88 -109.02) rotate(90)" style="fill:#e6e6e6;"></rect><rect x="813.91" y="690.79" width="11.28" height="11.28" rx="2" ry="2" transform="translate(1515.97 -123.12) rotate(90)" style="fill:#e6e6e6;"></rect></g></g><g id="Layer_4"><g style="clip-path:url(#clippath);"><rect width="1248.12" height="702.07" style="fill:url(#linear-gradient);"></rect></g></g></svg>