<?xml version="1.0" encoding="UTF-8"?> <svg xmlns="http://www.w3.org/2000/svg" xmlns:xlink="http://www.w3.org/1999/xlink" id="Layer_1" data-name="Layer 1" viewBox="0 0 998.82 1011.92"><defs><style>.cls-1{fill:#7aefe5;stroke:#7aefe5;stroke-width:5.95px;}.cls-1,.cls-2{stroke-miterlimit:10;}.cls-2{fill:none;stroke:#1d93c4;stroke-width:7.86px;}.cls-3{fill:url(#linear-gradient);}.cls-4{fill:url(#linear-gradient-2);}.cls-5{fill:url(#linear-gradient-3);}.cls-6{fill:url(#linear-gradient-4);}.cls-7{fill:url(#linear-gradient-5);}.cls-8{fill:url(#linear-gradient-6);}.cls-9{fill:url(#linear-gradient-7);}.cls-10{fill:url(#linear-gradient-8);}.cls-11{fill:url(#linear-gradient-9);}.cls-12{fill:url(#linear-gradient-10);}.cls-13{fill:url(#linear-gradient-11);}</style><linearGradient id="linear-gradient" x1="460.82" y1="421.38" x2="535.23" y2="421.38" gradientUnits="userSpaceOnUse"><stop offset="0" stop-color="#1d93c4"></stop><stop offset="1" stop-color="#7aefe5"></stop></linearGradient><linearGradient id="linear-gradient-2" x1="707.5" y1="504.62" x2="770.12" y2="504.62" xlink:href="#linear-gradient"></linearGradient><linearGradient id="linear-gradient-3" x1="590.67" y1="660.52" x2="654.52" y2="660.52" xlink:href="#linear-gradient"></linearGradient><linearGradient id="linear-gradient-4" x1="590.67" y1="349.92" x2="654.52" y2="349.92" xlink:href="#linear-gradient"></linearGradient><linearGradient id="linear-gradient-5" x1="457.15" y1="216.08" x2="538.97" y2="216.08" xlink:href="#linear-gradient"></linearGradient><linearGradient id="linear-gradient-6" x1="459.92" y1="587.54" x2="534.33" y2="587.54" xlink:href="#linear-gradient"></linearGradient><linearGradient id="linear-gradient-7" x1="342.41" y1="363.8" x2="404.35" y2="363.8" xlink:href="#linear-gradient"></linearGradient><linearGradient id="linear-gradient-8" x1="342.41" y1="650.66" x2="404.35" y2="650.66" xlink:href="#linear-gradient"></linearGradient><linearGradient id="linear-gradient-9" x1="232.29" y1="505.9" x2="287.81" y2="505.9" xlink:href="#linear-gradient"></linearGradient><linearGradient id="linear-gradient-10" x1="456.21" y1="795.84" x2="538.04" y2="795.84" xlink:href="#linear-gradient"></linearGradient><linearGradient id="linear-gradient-11" x1="232.29" y1="505.96" x2="770.12" y2="505.96" xlink:href="#linear-gradient"></linearGradient></defs><path class="cls-1" d="M836.94,451.71l50,50a5,5,0,0,1,0,7l-50,50a5,5,0,0,1-8.47-3.52v-100A5,5,0,0,1,836.94,451.71Z"></path><polygon class="cls-2" points="110.42 506.71 191.17 587.46 191.17 425.96 110.42 506.71"></polygon><path class="cls-3" d="M460.82,353v71.67a4.68,4.68,0,0,0,1.37,3.31l65.06,65.07a4.68,4.68,0,0,0,8-3.31V418.08a4.64,4.64,0,0,0-1.37-3.3L468.8,349.71A4.67,4.67,0,0,0,460.82,353Z"></path><path class="cls-4" d="M770.12,382.25V627a5.4,5.4,0,0,1-1.47,3.74l-52.59,55.44c-3.16,3.33-8.56,1-8.56-3.74V326.81c0-4.72,5.4-7.08,8.56-3.74l52.59,55.44A5.38,5.38,0,0,1,770.12,382.25Z"></path><path class="cls-5" d="M654.52,523.82V742.45a5,5,0,0,1-1.44,3.52l-53.81,54.76a5,5,0,0,1-8.6-3.52V577.63a5,5,0,0,1,1.47-3.55L646,520.27A5,5,0,0,1,654.52,523.82Z"></path><path class="cls-6" d="M590.67,213.23V431.86a5,5,0,0,0,1.44,3.51l53.81,54.77a5,5,0,0,0,8.6-3.52V267a5,5,0,0,0-1.47-3.55l-53.81-53.81A5,5,0,0,0,590.67,213.23Z"></path><path class="cls-7" d="M458.62,287.61,530.4,359.4a5,5,0,0,0,8.57-3.55V148.1a5,5,0,0,0-1.47-3.55L465.71,72.76a5,5,0,0,0-8.56,3.55V284.06A5,5,0,0,0,458.62,287.61Z"></path><path class="cls-8" d="M534.33,519.17v71.67a4.68,4.68,0,0,1-1.37,3.31L467.9,659.21a4.67,4.67,0,0,1-8-3.3V584.24a4.68,4.68,0,0,1,1.37-3.31l65.06-65.07A4.68,4.68,0,0,1,534.33,519.17Z"></path><path class="cls-9" d="M343.88,440.78l51.9,51.89a5,5,0,0,0,8.57-3.54V238.48a5,5,0,0,0-8.57-3.55l-51.9,51.89a5,5,0,0,0-1.47,3.55V437.23A5,5,0,0,0,343.88,440.78Z"></path><path class="cls-10" d="M343.88,727.64l51.9,51.89a5,5,0,0,0,8.57-3.54V525.34a5,5,0,0,0-8.57-3.55l-51.9,51.89a5,5,0,0,0-1.47,3.55V724.09A5,5,0,0,0,343.88,727.64Z"></path><path class="cls-11" d="M232.29,609V398.89a4.94,4.94,0,0,1,1.46-3.51l45.58-45.58a5,5,0,0,1,8.48,3.51V658.49a5,5,0,0,1-8.62,3.37L233.6,612.37A5,5,0,0,1,232.29,609Z"></path><path class="cls-12" d="M536.57,867.37l-71.79,71.78a5,5,0,0,1-8.57-3.55V727.85a5,5,0,0,1,1.47-3.55l71.79-71.78a5,5,0,0,1,8.57,3.55V863.82A5,5,0,0,1,536.57,867.37Z"></path><path class="cls-13" d="M460.82,353v71.67a4.68,4.68,0,0,0,1.37,3.31l65.06,65.07a4.68,4.68,0,0,0,8-3.31V418.08a4.64,4.64,0,0,0-1.37-3.3L468.8,349.71A4.67,4.67,0,0,0,460.82,353Z"></path><path class="cls-13" d="M770.12,382.25V627a5.4,5.4,0,0,1-1.47,3.74l-52.59,55.44c-3.16,3.33-8.56,1-8.56-3.74V326.81c0-4.72,5.4-7.08,8.56-3.74l52.59,55.44A5.38,5.38,0,0,1,770.12,382.25Z"></path><path class="cls-13" d="M654.52,523.82V742.45a5,5,0,0,1-1.44,3.52l-53.81,54.76a5,5,0,0,1-8.6-3.52V577.63a5,5,0,0,1,1.47-3.55L646,520.27A5,5,0,0,1,654.52,523.82Z"></path><path class="cls-13" d="M590.67,213.23V431.86a5,5,0,0,0,1.44,3.51l53.81,54.77a5,5,0,0,0,8.6-3.52V267a5,5,0,0,0-1.47-3.55l-53.81-53.81A5,5,0,0,0,590.67,213.23Z"></path><path class="cls-13" d="M458.62,287.61,530.4,359.4a5,5,0,0,0,8.57-3.55V148.1a5,5,0,0,0-1.47-3.55L465.71,72.76a5,5,0,0,0-8.56,3.55V284.06A5,5,0,0,0,458.62,287.61Z"></path><path class="cls-13" d="M534.33,519.17v71.67a4.68,4.68,0,0,1-1.37,3.31L467.9,659.21a4.67,4.67,0,0,1-8-3.3V584.24a4.68,4.68,0,0,1,1.37-3.31l65.06-65.07A4.68,4.68,0,0,1,534.33,519.17Z"></path><path class="cls-13" d="M343.88,440.78l51.9,51.89a5,5,0,0,0,8.57-3.54V238.48a5,5,0,0,0-8.57-3.55l-51.9,51.89a5,5,0,0,0-1.47,3.55V437.23A5,5,0,0,0,343.88,440.78Z"></path><path class="cls-13" d="M343.88,727.64l51.9,51.89a5,5,0,0,0,8.57-3.54V525.34a5,5,0,0,0-8.57-3.55l-51.9,51.89a5,5,0,0,0-1.47,3.55V724.09A5,5,0,0,0,343.88,727.64Z"></path><path class="cls-13" d="M232.29,609V398.89a4.94,4.94,0,0,1,1.46-3.51l45.58-45.58a5,5,0,0,1,8.48,3.51V658.49a5,5,0,0,1-8.62,3.37L233.6,612.37A5,5,0,0,1,232.29,609Z"></path><path class="cls-13" d="M536.57,867.37l-71.79,71.78a5,5,0,0,1-8.57-3.55V727.85a5,5,0,0,1,1.47-3.55l71.79-71.78a5,5,0,0,1,8.57,3.55V863.82A5,5,0,0,1,536.57,867.37Z"></path></svg> 